<svg xmlns="http://www.w3.org/2000/svg" viewBox="0 0 900 540" width="900" height="540">
<defs>
  <!-- Gradients -->
  <linearGradient id="areaFill" x1="0" y1="0" x2="0" y2="1">
    <stop offset="0%" stop-color="#58A6B8" stop-opacity="0.28"/>
    <stop offset="85%" stop-color="#58A6B8" stop-opacity="0.03"/>
    <stop offset="100%" stop-color="#58A6B8" stop-opacity="0"/>
  </linearGradient>
  <radialGradient id="haloGrad" cx="50%" cy="50%" r="50%">
    <stop offset="0%" stop-color="#58A6B8" stop-opacity="0.5"/>
    <stop offset="100%" stop-color="#58A6B8" stop-opacity="0"/>
  </radialGradient>
  <linearGradient id="frameFade" x1="0" y1="0" x2="1" y2="1">
    <stop offset="0%" stop-color="#58A6B8" stop-opacity="0.35"/>
    <stop offset="50%" stop-color="#58A6B8" stop-opacity="0.12"/>
    <stop offset="100%" stop-color="#58A6B8" stop-opacity="0.35"/>
  </linearGradient>
  <!-- Filters -->
  <filter id="glowSm" x="-50%" y="-50%" width="200%" height="200%">
    <feGaussianBlur stdDeviation="2.5" result="b"/><feMerge><feMergeNode in="b"/><feMergeNode in="SourceGraphic"/></feMerge>
  </filter>
  <filter id="glowMd" x="-50%" y="-50%" width="200%" height="200%">
    <feGaussianBlur stdDeviation="5" result="b"/><feMerge><feMergeNode in="b"/><feMergeNode in="SourceGraphic"/></feMerge>
  </filter>
  <filter id="glowLg" x="-80%" y="-80%" width="260%" height="260%">
    <feGaussianBlur stdDeviation="10" result="b"/><feMerge><feMergeNode in="b"/><feMergeNode in="SourceGraphic"/></feMerge>
  </filter>
  <filter id="cardShadow" x="-10%" y="-10%" width="120%" height="130%">
    <feGaussianBlur stdDeviation="6" result="b"/><feFlood flood-color="#58A6B8" flood-opacity="0.08" result="c"/>
    <feComposite in="c" in2="b" operator="in" result="s"/><feMerge><feMergeNode in="s"/><feMergeNode in="SourceGraphic"/></feMerge>
  </filter>
</defs>

<!-- Background -->
<rect width="900" height="540" fill="#0d0d0d" rx="16"/>
<line x1="90" y1="210.0" x2="860" y2="210.0" stroke="rgba(88,166,184,0.055)" stroke-width="0.7"/>
<line x1="90" y1="246.7" x2="860" y2="246.7" stroke="rgba(88,166,184,0.055)" stroke-width="0.7"/>
<line x1="90" y1="283.3" x2="860" y2="283.3" stroke="rgba(88,166,184,0.055)" stroke-width="0.7"/>
<line x1="90" y1="320.0" x2="860" y2="320.0" stroke="rgba(88,166,184,0.055)" stroke-width="0.7"/>
<line x1="90" y1="356.7" x2="860" y2="356.7" stroke="rgba(88,166,184,0.055)" stroke-width="0.7"/>
<line x1="90" y1="393.3" x2="860" y2="393.3" stroke="rgba(88,166,184,0.055)" stroke-width="0.7"/>
<line x1="90" y1="430.0" x2="860" y2="430.0" stroke="rgba(88,166,184,0.055)" stroke-width="0.7"/>
<line x1="90.0" y1="210" x2="90.0" y2="430" stroke="rgba(88,166,184,0.055)" stroke-width="0.5"/>
<line x1="222.8" y1="210" x2="222.8" y2="430" stroke="rgba(88,166,184,0.055)" stroke-width="0.5"/>
<line x1="355.5" y1="210" x2="355.5" y2="430" stroke="rgba(88,166,184,0.055)" stroke-width="0.5"/>
<line x1="488.3" y1="210" x2="488.3" y2="430" stroke="rgba(88,166,184,0.055)" stroke-width="0.5"/>
<line x1="621.0" y1="210" x2="621.0" y2="430" stroke="rgba(88,166,184,0.055)" stroke-width="0.5"/>
<line x1="753.8" y1="210" x2="753.8" y2="430" stroke="rgba(88,166,184,0.055)" stroke-width="0.5"/>
<circle cx="408.8" cy="412.0" r="0.5" fill="#58A6B8" opacity="0.102"><animate attributeName="opacity" values="0.102;0.224;0.102" dur="6.8s" begin="4.7s" repeatCount="indefinite"/></circle>
<circle cx="2.8" cy="140.1" r="0.7" fill="#58A6B8" opacity="0.136"><animate attributeName="opacity" values="0.136;0.299;0.136" dur="6.1s" begin="0.9s" repeatCount="indefinite"/></circle>
<circle cx="785.4" cy="225.2" r="1.2" fill="#58A6B8" opacity="0.130"><animate attributeName="opacity" values="0.130;0.286;0.130" dur="6.3s" begin="5.8s" repeatCount="indefinite"/></circle>
<circle cx="56.3" cy="360.8" r="1.1" fill="#58A6B8" opacity="0.136"><animate attributeName="opacity" values="0.136;0.299;0.136" dur="3.7s" begin="0.3s" repeatCount="indefinite"/></circle>
<circle cx="554.2" cy="193.4" r="0.7" fill="#58A6B8" opacity="0.134"><animate attributeName="opacity" values="0.134;0.295;0.134" dur="6.3s" begin="5.7s" repeatCount="indefinite"/></circle>
<circle cx="863.8" cy="364.6" r="1.1" fill="#58A6B8" opacity="0.045"><animate attributeName="opacity" values="0.045;0.099;0.045" dur="3.9s" begin="5.4s" repeatCount="indefinite"/></circle>
<circle cx="705.8" cy="384.6" r="0.9" fill="#58A6B8" opacity="0.150"><animate attributeName="opacity" values="0.150;0.330;0.150" dur="5.2s" begin="2.2s" repeatCount="indefinite"/></circle>
<circle cx="573.0" cy="99.2" r="0.5" fill="#58A6B8" opacity="0.143"><animate attributeName="opacity" values="0.143;0.315;0.143" dur="8.2s" begin="3.7s" repeatCount="indefinite"/></circle>
<circle cx="837.0" cy="121.5" r="1.3" fill="#58A6B8" opacity="0.049"><animate attributeName="opacity" values="0.049;0.108;0.049" dur="4.0s" begin="1.4s" repeatCount="indefinite"/></circle>
<circle cx="44.4" cy="482.1" r="0.9" fill="#58A6B8" opacity="0.054"><animate attributeName="opacity" values="0.054;0.119;0.054" dur="5.9s" begin="2.7s" repeatCount="indefinite"/></circle>
<circle cx="2.0" cy="348.4" r="0.9" fill="#58A6B8" opacity="0.139"><animate attributeName="opacity" values="0.139;0.306;0.139" dur="6.2s" begin="4.1s" repeatCount="indefinite"/></circle>
<circle cx="95.7" cy="522.1" r="1.3" fill="#58A6B8" opacity="0.096"><animate attributeName="opacity" values="0.096;0.211;0.096" dur="5.0s" begin="2.4s" repeatCount="indefinite"/></circle>
<circle cx="268.2" cy="307.2" r="0.8" fill="#58A6B8" opacity="0.080"><animate attributeName="opacity" values="0.080;0.176;0.080" dur="5.2s" begin="2.9s" repeatCount="indefinite"/></circle>
<circle cx="532.5" cy="447.5" r="0.8" fill="#58A6B8" opacity="0.151"><animate attributeName="opacity" values="0.151;0.332;0.151" dur="8.0s" begin="0.8s" repeatCount="indefinite"/></circle>
<circle cx="440.4" cy="425.4" r="1.3" fill="#58A6B8" opacity="0.066"><animate attributeName="opacity" values="0.066;0.145;0.066" dur="7.9s" begin="2.6s" repeatCount="indefinite"/></circle>
<circle cx="71.3" cy="413.7" r="0.7" fill="#58A6B8" opacity="0.089"><animate attributeName="opacity" values="0.089;0.196;0.089" dur="8.0s" begin="4.4s" repeatCount="indefinite"/></circle>
<circle cx="663.0" cy="386.9" r="0.4" fill="#58A6B8" opacity="0.045"><animate attributeName="opacity" values="0.045;0.099;0.045" dur="6.5s" begin="5.7s" repeatCount="indefinite"/></circle>
<circle cx="61.6" cy="391.2" r="0.6" fill="#58A6B8" opacity="0.120"><animate attributeName="opacity" values="0.120;0.264;0.120" dur="7.0s" begin="5.4s" repeatCount="indefinite"/></circle>
<circle cx="275.4" cy="490.0" r="1.0" fill="#58A6B8" opacity="0.122"><animate attributeName="opacity" values="0.122;0.268;0.122" dur="7.5s" begin="2.8s" repeatCount="indefinite"/></circle>
<circle cx="798.8" cy="421.0" r="1.3" fill="#58A6B8" opacity="0.052"><animate attributeName="opacity" values="0.052;0.114;0.052" dur="6.4s" begin="3.7s" repeatCount="indefinite"/></circle>
<circle cx="349.1" cy="502.0" r="0.7" fill="#58A6B8" opacity="0.093"><animate attributeName="opacity" values="0.093;0.205;0.093" dur="7.0s" begin="0.6s" repeatCount="indefinite"/></circle>
<circle cx="730.6" cy="50.4" r="1.1" fill="#58A6B8" opacity="0.085"><animate attributeName="opacity" values="0.085;0.187;0.085" dur="7.2s" begin="4.9s" repeatCount="indefinite"/></circle>
<circle cx="350.1" cy="495.5" r="0.7" fill="#58A6B8" opacity="0.071"><animate attributeName="opacity" values="0.071;0.156;0.071" dur="5.0s" begin="3.0s" repeatCount="indefinite"/></circle>
<circle cx="228.5" cy="31.4" r="0.6" fill="#58A6B8" opacity="0.116"><animate attributeName="opacity" values="0.116;0.255;0.116" dur="4.7s" begin="4.0s" repeatCount="indefinite"/></circle>
<circle cx="28.2" cy="487.0" r="1.4" fill="#58A6B8" opacity="0.049"><animate attributeName="opacity" values="0.049;0.108;0.049" dur="6.6s" begin="5.6s" repeatCount="indefinite"/></circle>
<circle cx="470.2" cy="320.0" r="1.2" fill="#58A6B8" opacity="0.062"><animate attributeName="opacity" values="0.062;0.136;0.062" dur="3.9s" begin="0.9s" repeatCount="indefinite"/></circle>
<circle cx="802.8" cy="329.5" r="0.7" fill="#58A6B8" opacity="0.119"><animate attributeName="opacity" values="0.119;0.262;0.119" dur="6.0s" begin="1.4s" repeatCount="indefinite"/></circle>
<circle cx="846.1" cy="510.7" r="1.2" fill="#58A6B8" opacity="0.137"><animate attributeName="opacity" values="0.137;0.301;0.137" dur="8.5s" begin="3.7s" repeatCount="indefinite"/></circle>
<circle cx="250.0" cy="34.0" r="1.4" fill="#58A6B8" opacity="0.127"><animate attributeName="opacity" values="0.127;0.279;0.127" dur="3.7s" begin="4.0s" repeatCount="indefinite"/></circle>
<circle cx="219.6" cy="227.9" r="0.4" fill="#58A6B8" opacity="0.129"><animate attributeName="opacity" values="0.129;0.284;0.129" dur="5.5s" begin="5.1s" repeatCount="indefinite"/></circle>
<circle cx="346.2" cy="289.2" r="0.8" fill="#58A6B8" opacity="0.156"><animate attributeName="opacity" values="0.156;0.343;0.156" dur="4.1s" begin="0.6s" repeatCount="indefinite"/></circle>
<circle cx="423.6" cy="116.1" r="0.9" fill="#58A6B8" opacity="0.082"><animate attributeName="opacity" values="0.082;0.180;0.082" dur="5.9s" begin="3.4s" repeatCount="indefinite"/></circle>
<circle cx="138.1" cy="195.6" r="0.8" fill="#58A6B8" opacity="0.094"><animate attributeName="opacity" values="0.094;0.207;0.094" dur="5.7s" begin="3.8s" repeatCount="indefinite"/></circle>
<circle cx="790.6" cy="110.9" r="0.8" fill="#58A6B8" opacity="0.099"><animate attributeName="opacity" values="0.099;0.218;0.099" dur="5.4s" begin="1.2s" repeatCount="indefinite"/></circle>
<circle cx="835.6" cy="127.5" r="0.4" fill="#58A6B8" opacity="0.091"><animate attributeName="opacity" values="0.091;0.200;0.091" dur="7.6s" begin="3.6s" repeatCount="indefinite"/></circle>
<circle cx="711.9" cy="359.4" r="1.1" fill="#58A6B8" opacity="0.132"><animate attributeName="opacity" values="0.132;0.290;0.132" dur="4.5s" begin="1.8s" repeatCount="indefinite"/></circle>
<circle cx="633.4" cy="130.7" r="0.3" fill="#58A6B8" opacity="0.140"><animate attributeName="opacity" values="0.140;0.308;0.140" dur="5.4s" begin="3.2s" repeatCount="indefinite"/></circle>
<circle cx="433.8" cy="34.4" r="1.0" fill="#58A6B8" opacity="0.116"><animate attributeName="opacity" values="0.116;0.255;0.116" dur="5.9s" begin="0.4s" repeatCount="indefinite"/></circle>
<circle cx="728.1" cy="284.4" r="1.2" fill="#58A6B8" opacity="0.069"><animate attributeName="opacity" values="0.069;0.152;0.069" dur="6.4s" begin="1.8s" repeatCount="indefinite"/></circle>
<circle cx="254.0" cy="0.7" r="1.0" fill="#58A6B8" opacity="0.113"><animate attributeName="opacity" values="0.113;0.249;0.113" dur="8.1s" begin="3.5s" repeatCount="indefinite"/></circle>
<circle cx="593.5" cy="115.6" r="0.7" fill="#58A6B8" opacity="0.045"><animate attributeName="opacity" values="0.045;0.099;0.045" dur="6.3s" begin="4.1s" repeatCount="indefinite"/></circle>
<circle cx="100.2" cy="412.6" r="0.9" fill="#58A6B8" opacity="0.041"><animate attributeName="opacity" values="0.041;0.090;0.041" dur="4.4s" begin="1.0s" repeatCount="indefinite"/></circle>
<circle cx="159.0" cy="472.1" r="0.7" fill="#58A6B8" opacity="0.120"><animate attributeName="opacity" values="0.120;0.264;0.120" dur="4.0s" begin="3.2s" repeatCount="indefinite"/></circle>
<circle cx="48.2" cy="536.5" r="1.3" fill="#58A6B8" opacity="0.157"><animate attributeName="opacity" values="0.157;0.345;0.157" dur="8.1s" begin="0.3s" repeatCount="indefinite"/></circle>
<circle cx="263.4" cy="213.5" r="0.4" fill="#58A6B8" opacity="0.140"><animate attributeName="opacity" values="0.140;0.308;0.140" dur="5.0s" begin="1.6s" repeatCount="indefinite"/></circle>
<circle cx="268.2" cy="443.1" r="0.6" fill="#58A6B8" opacity="0.060"><animate attributeName="opacity" values="0.060;0.132;0.060" dur="6.9s" begin="3.2s" repeatCount="indefinite"/></circle>
<circle cx="573.0" cy="136.1" r="0.9" fill="#58A6B8" opacity="0.119"><animate attributeName="opacity" values="0.119;0.262;0.119" dur="6.8s" begin="1.1s" repeatCount="indefinite"/></circle>
<circle cx="191.3" cy="310.0" r="0.7" fill="#58A6B8" opacity="0.041"><animate attributeName="opacity" values="0.041;0.090;0.041" dur="5.9s" begin="2.1s" repeatCount="indefinite"/></circle>
<circle cx="120.8" cy="461.2" r="0.5" fill="#58A6B8" opacity="0.046"><animate attributeName="opacity" values="0.046;0.101;0.046" dur="6.7s" begin="5.6s" repeatCount="indefinite"/></circle>
<circle cx="13.7" cy="53.5" r="0.8" fill="#58A6B8" opacity="0.135"><animate attributeName="opacity" values="0.135;0.297;0.135" dur="7.2s" begin="2.9s" repeatCount="indefinite"/></circle>
<circle cx="835.0" cy="29.0" r="0.8" fill="#58A6B8" opacity="0.147"><animate attributeName="opacity" values="0.147;0.323;0.147" dur="3.8s" begin="3.2s" repeatCount="indefinite"/></circle>
<circle cx="242.5" cy="492.8" r="0.7" fill="#58A6B8" opacity="0.063"><animate attributeName="opacity" values="0.063;0.139;0.063" dur="8.2s" begin="4.1s" repeatCount="indefinite"/></circle>
<circle cx="880.9" cy="186.9" r="1.2" fill="#58A6B8" opacity="0.157"><animate attributeName="opacity" values="0.157;0.345;0.157" dur="8.3s" begin="4.8s" repeatCount="indefinite"/></circle>
<circle cx="74.7" cy="315.8" r="1.3" fill="#58A6B8" opacity="0.103"><animate attributeName="opacity" values="0.103;0.227;0.103" dur="4.2s" begin="3.1s" repeatCount="indefinite"/></circle>
<circle cx="695.9" cy="416.8" r="0.9" fill="#58A6B8" opacity="0.064"><animate attributeName="opacity" values="0.064;0.141;0.064" dur="8.1s" begin="0.2s" repeatCount="indefinite"/></circle>
<g transform="translate(132.3,211.2) rotate(45)" opacity="0.045"><rect x="-1.9" y="-1.9" width="3.8" height="3.8" fill="#58A6B8"/><animate attributeName="opacity" values="0.045;0.112;0.045" dur="9.3s" begin="3.1s" repeatCount="indefinite"/></g>
<g transform="translate(822.0,156.8) rotate(45)" opacity="0.056"><rect x="-2.2" y="-2.2" width="4.5" height="4.5" fill="#58A6B8"/><animate attributeName="opacity" values="0.056;0.140;0.056" dur="7.5s" begin="1.8s" repeatCount="indefinite"/></g>
<g transform="translate(411.4,257.8) rotate(45)" opacity="0.071"><rect x="-2.1" y="-2.1" width="4.2" height="4.2" fill="#58A6B8"/><animate attributeName="opacity" values="0.071;0.177;0.071" dur="6.3s" begin="3.7s" repeatCount="indefinite"/></g>
<g transform="translate(369.2,119.1) rotate(45)" opacity="0.069"><rect x="-1.8" y="-1.8" width="3.6" height="3.6" fill="#58A6B8"/><animate attributeName="opacity" values="0.069;0.173;0.069" dur="7.2s" begin="3.9s" repeatCount="indefinite"/></g>
<g transform="translate(388.3,465.3) rotate(45)" opacity="0.074"><rect x="-2.1" y="-2.1" width="4.2" height="4.2" fill="#58A6B8"/><animate attributeName="opacity" values="0.074;0.185;0.074" dur="8.5s" begin="1.6s" repeatCount="indefinite"/></g>
<g transform="translate(501.3,316.2) rotate(45)" opacity="0.042"><rect x="-2.1" y="-2.1" width="4.2" height="4.2" fill="#58A6B8"/><animate attributeName="opacity" values="0.042;0.105;0.042" dur="9.1s" begin="2.1s" repeatCount="indefinite"/></g>
<g transform="translate(364.3,362.9) rotate(45)" opacity="0.074"><rect x="-1.8" y="-1.8" width="3.6" height="3.6" fill="#58A6B8"/><animate attributeName="opacity" values="0.074;0.185;0.074" dur="8.7s" begin="4.7s" repeatCount="indefinite"/></g>
<g transform="translate(552.5,324.1) rotate(45)" opacity="0.057"><rect x="-1.9" y="-1.9" width="3.9" height="3.9" fill="#58A6B8"/><animate attributeName="opacity" values="0.057;0.143;0.057" dur="8.5s" begin="3.3s" repeatCount="indefinite"/></g>
<g transform="translate(18,18) scale(1,1)"><path d="M0 25 L0 6 Q0 0 6 0 L25 0" fill="none" stroke="#58A6B8" stroke-width="1.3" opacity="0.35"/><circle cx="0" cy="0" r="1.8" fill="#58A6B8" opacity="0.4"/><path d="M0 12 L5 12" fill="none" stroke="#58A6B8" stroke-width="0.6" opacity="0.2"/><path d="M12 0 L12 5" fill="none" stroke="#58A6B8" stroke-width="0.6" opacity="0.2"/></g><g transform="translate(882,18) scale(-1,1)"><path d="M0 25 L0 6 Q0 0 6 0 L25 0" fill="none" stroke="#58A6B8" stroke-width="1.3" opacity="0.35"/><circle cx="0" cy="0" r="1.8" fill="#58A6B8" opacity="0.4"/><path d="M0 12 L5 12" fill="none" stroke="#58A6B8" stroke-width="0.6" opacity="0.2"/><path d="M12 0 L12 5" fill="none" stroke="#58A6B8" stroke-width="0.6" opacity="0.2"/></g><g transform="translate(18,522) scale(1,-1)"><path d="M0 25 L0 6 Q0 0 6 0 L25 0" fill="none" stroke="#58A6B8" stroke-width="1.3" opacity="0.35"/><circle cx="0" cy="0" r="1.8" fill="#58A6B8" opacity="0.4"/><path d="M0 12 L5 12" fill="none" stroke="#58A6B8" stroke-width="0.6" opacity="0.2"/><path d="M12 0 L12 5" fill="none" stroke="#58A6B8" stroke-width="0.6" opacity="0.2"/></g><g transform="translate(882,522) scale(-1,-1)"><path d="M0 25 L0 6 Q0 0 6 0 L25 0" fill="none" stroke="#58A6B8" stroke-width="1.3" opacity="0.35"/><circle cx="0" cy="0" r="1.8" fill="#58A6B8" opacity="0.4"/><path d="M0 12 L5 12" fill="none" stroke="#58A6B8" stroke-width="0.6" opacity="0.2"/><path d="M12 0 L12 5" fill="none" stroke="#58A6B8" stroke-width="0.6" opacity="0.2"/></g>
<rect x="10" y="10" width="880" height="520" rx="12" fill="none" stroke="url(#frameFade)" stroke-width="1"/>
<text x="450" y="50" text-anchor="middle" font-family="Georgia,'Palatino Linotype','Book Antiqua',Palatino,serif" font-size="22" font-weight="bold" fill="#e8f4f7" letter-spacing="8" filter="url(#glowMd)">✧ THE COMMIT COVEN ✧</text>
<line x1="310" y1="62" x2="590" y2="62" stroke="#58A6B8" stroke-width="0.5" opacity="0.25"/>
<g filter="url(#cardShadow)"><rect x="70" y="80" width="240" height="78" rx="10" fill="rgba(88,166,184,0.05)" stroke="rgba(88,166,184,0.22)" stroke-width="0.8"/><text x="190" y="110" text-anchor="middle" font-family="Georgia,'Palatino Linotype',serif" font-size="11" fill="#5a7a80" letter-spacing="3" text-transform="uppercase">LONGEST STREAK</text><text x="190" y="136" text-anchor="middle" font-family="Georgia,'Palatino Linotype',serif" font-size="20" fill="#e8f4f7" font-weight="bold" filter="url(#glowSm)">12 Nights</text></g>
<g filter="url(#cardShadow)"><rect x="330" y="80" width="240" height="78" rx="10" fill="rgba(88,166,184,0.05)" stroke="rgba(88,166,184,0.22)" stroke-width="0.8"/><text x="450" y="110" text-anchor="middle" font-family="Georgia,'Palatino Linotype',serif" font-size="11" fill="#5a7a80" letter-spacing="3" text-transform="uppercase">CURRENT RITUAL</text><text x="450" y="136" text-anchor="middle" font-family="Georgia,'Palatino Linotype',serif" font-size="20" fill="#e8f4f7" font-weight="bold" filter="url(#glowSm)">7 Nights</text></g>
<g filter="url(#cardShadow)"><rect x="590" y="80" width="240" height="78" rx="10" fill="rgba(88,166,184,0.05)" stroke="rgba(88,166,184,0.22)" stroke-width="0.8"/><text x="710" y="110" text-anchor="middle" font-family="Georgia,'Palatino Linotype',serif" font-size="11" fill="#5a7a80" letter-spacing="3" text-transform="uppercase">TOTAL OFFERINGS</text><text x="710" y="136" text-anchor="middle" font-family="Georgia,'Palatino Linotype',serif" font-size="20" fill="#e8f4f7" font-weight="bold" filter="url(#glowSm)">210</text></g>
<text x="80" y="434.0" text-anchor="end" font-family="'Courier New',monospace" font-size="10" fill="#5a7a80">0</text>
<line x1="86" y1="430.0" x2="90" y2="430.0" stroke="#5a7a80" stroke-width="0.5"/>
<text x="80" y="390.0" text-anchor="end" font-family="'Courier New',monospace" font-size="10" fill="#5a7a80">2</text>
<line x1="86" y1="386.0" x2="90" y2="386.0" stroke="#5a7a80" stroke-width="0.5"/>
<text x="80" y="346.0" text-anchor="end" font-family="'Courier New',monospace" font-size="10" fill="#5a7a80">4</text>
<line x1="86" y1="342.0" x2="90" y2="342.0" stroke="#5a7a80" stroke-width="0.5"/>
<text x="80" y="302.0" text-anchor="end" font-family="'Courier New',monospace" font-size="10" fill="#5a7a80">6</text>
<line x1="86" y1="298.0" x2="90" y2="298.0" stroke="#5a7a80" stroke-width="0.5"/>
<text x="80" y="258.0" text-anchor="end" font-family="'Courier New',monospace" font-size="10" fill="#5a7a80">8</text>
<line x1="86" y1="254.0" x2="90" y2="254.0" stroke="#5a7a80" stroke-width="0.5"/>
<text x="80" y="214.0" text-anchor="end" font-family="'Courier New',monospace" font-size="10" fill="#5a7a80">10</text>
<line x1="86" y1="210.0" x2="90" y2="210.0" stroke="#5a7a80" stroke-width="0.5"/>
<text x="90.0" y="450" text-anchor="middle" font-family="'Courier New',monospace" font-size="10" fill="#5a7a80">23</text>
<text x="196.2" y="450" text-anchor="middle" font-family="'Courier New',monospace" font-size="10" fill="#5a7a80">27</text>
<text x="302.4" y="450" text-anchor="middle" font-family="'Courier New',monospace" font-size="10" fill="#5a7a80">1</text>
<text x="408.6" y="450" text-anchor="middle" font-family="'Courier New',monospace" font-size="10" fill="#5a7a80">5</text>
<text x="514.8" y="450" text-anchor="middle" font-family="'Courier New',monospace" font-size="10" fill="#5a7a80">9</text>
<text x="621.0" y="450" text-anchor="middle" font-family="'Courier New',monospace" font-size="10" fill="#5a7a80">13</text>
<text x="727.2" y="450" text-anchor="middle" font-family="'Courier New',monospace" font-size="10" fill="#5a7a80">17</text>
<text x="833.4" y="450" text-anchor="middle" font-family="'Courier New',monospace" font-size="10" fill="#5a7a80">21</text>
<text x="860.0" y="450" text-anchor="middle" font-family="'Courier New',monospace" font-size="10" fill="#5a7a80">22</text>
<line x1="90" y1="210" x2="90" y2="430" stroke="#58A6B8" stroke-width="0.5" opacity="0.2"/>
<line x1="90" y1="430" x2="860" y2="430" stroke="#58A6B8" stroke-width="0.5" opacity="0.2"/>
<path d="M90.0 320.0 C93.5 325.9,109.5 352.3,116.6 364.0 C123.6 375.7,136.0 399.2,143.1 408.0 C150.2 416.8,162.6 427.1,169.7 430.0 C176.7 432.9,189.1 430.0,196.2 430.0 C203.3 430.0,215.7 430.0,222.8 430.0 C229.8 430.0,242.2 444.7,249.3 430.0 C256.4 415.3,268.8 337.6,275.9 320.0 C282.9 302.4,295.3 309.7,302.4 298.0 C309.5 286.3,321.9 217.3,329.0 232.0 C336.0 246.7,348.4 381.6,355.5 408.0 C362.6 434.4,375.0 430.0,382.1 430.0 C389.1 430.0,401.5 408.0,408.6 408.0 C415.7 408.0,428.1 435.9,435.2 430.0 C442.3 424.1,454.6 366.9,461.7 364.0 C468.8 361.1,481.2 399.2,488.3 408.0 C495.4 416.8,507.7 427.1,514.8 430.0 C521.9 432.9,534.3 430.0,541.4 430.0 C548.5 430.0,560.9 430.0,567.9 430.0 C575.0 430.0,587.4 432.9,594.5 430.0 C601.6 427.1,614.0 408.0,621.0 408.0 C628.1 408.0,640.5 430.0,647.6 430.0 C654.7 430.0,667.1 413.9,674.1 408.0 C681.2 402.1,693.6 391.9,700.7 386.0 C707.8 380.1,720.2 369.9,727.2 364.0 C734.3 358.1,746.7 339.1,753.8 342.0 C760.9 344.9,773.3 383.1,780.3 386.0 C787.4 388.9,799.8 361.1,806.9 364.0 C814.0 366.9,826.4 399.2,833.4 408.0 C840.5 416.8,856.5 427.1,860.0 430.0 L860.0 430 L90.0 430 Z" fill="url(#areaFill)" opacity="0.9">
  <animate attributeName="opacity" values="0;0.9" dur="2s" fill="freeze"/>
</path>
<path d="M90.0 320.0 C93.5 325.9,109.5 352.3,116.6 364.0 C123.6 375.7,136.0 399.2,143.1 408.0 C150.2 416.8,162.6 427.1,169.7 430.0 C176.7 432.9,189.1 430.0,196.2 430.0 C203.3 430.0,215.7 430.0,222.8 430.0 C229.8 430.0,242.2 444.7,249.3 430.0 C256.4 415.3,268.8 337.6,275.9 320.0 C282.9 302.4,295.3 309.7,302.4 298.0 C309.5 286.3,321.9 217.3,329.0 232.0 C336.0 246.7,348.4 381.6,355.5 408.0 C362.6 434.4,375.0 430.0,382.1 430.0 C389.1 430.0,401.5 408.0,408.6 408.0 C415.7 408.0,428.1 435.9,435.2 430.0 C442.3 424.1,454.6 366.9,461.7 364.0 C468.8 361.1,481.2 399.2,488.3 408.0 C495.4 416.8,507.7 427.1,514.8 430.0 C521.9 432.9,534.3 430.0,541.4 430.0 C548.5 430.0,560.9 430.0,567.9 430.0 C575.0 430.0,587.4 432.9,594.5 430.0 C601.6 427.1,614.0 408.0,621.0 408.0 C628.1 408.0,640.5 430.0,647.6 430.0 C654.7 430.0,667.1 413.9,674.1 408.0 C681.2 402.1,693.6 391.9,700.7 386.0 C707.8 380.1,720.2 369.9,727.2 364.0 C734.3 358.1,746.7 339.1,753.8 342.0 C760.9 344.9,773.3 383.1,780.3 386.0 C787.4 388.9,799.8 361.1,806.9 364.0 C814.0 366.9,826.4 399.2,833.4 408.0 C840.5 416.8,856.5 427.1,860.0 430.0" fill="none" stroke="#58A6B8" stroke-width="4" opacity="0.15" filter="url(#glowLg)" stroke-linecap="round" stroke-linejoin="round"/>
<path d="M90.0 320.0 C93.5 325.9,109.5 352.3,116.6 364.0 C123.6 375.7,136.0 399.2,143.1 408.0 C150.2 416.8,162.6 427.1,169.7 430.0 C176.7 432.9,189.1 430.0,196.2 430.0 C203.3 430.0,215.7 430.0,222.8 430.0 C229.8 430.0,242.2 444.7,249.3 430.0 C256.4 415.3,268.8 337.6,275.9 320.0 C282.9 302.4,295.3 309.7,302.4 298.0 C309.5 286.3,321.9 217.3,329.0 232.0 C336.0 246.7,348.4 381.6,355.5 408.0 C362.6 434.4,375.0 430.0,382.1 430.0 C389.1 430.0,401.5 408.0,408.6 408.0 C415.7 408.0,428.1 435.9,435.2 430.0 C442.3 424.1,454.6 366.9,461.7 364.0 C468.8 361.1,481.2 399.2,488.3 408.0 C495.4 416.8,507.7 427.1,514.8 430.0 C521.9 432.9,534.3 430.0,541.4 430.0 C548.5 430.0,560.9 430.0,567.9 430.0 C575.0 430.0,587.4 432.9,594.5 430.0 C601.6 427.1,614.0 408.0,621.0 408.0 C628.1 408.0,640.5 430.0,647.6 430.0 C654.7 430.0,667.1 413.9,674.1 408.0 C681.2 402.1,693.6 391.9,700.7 386.0 C707.8 380.1,720.2 369.9,727.2 364.0 C734.3 358.1,746.7 339.1,753.8 342.0 C760.9 344.9,773.3 383.1,780.3 386.0 C787.4 388.9,799.8 361.1,806.9 364.0 C814.0 366.9,826.4 399.2,833.4 408.0 C840.5 416.8,856.5 427.1,860.0 430.0" fill="none" stroke="#58A6B8" stroke-width="2.2" stroke-linecap="round" stroke-linejoin="round" filter="url(#glowSm)" stroke-dasharray="1733" stroke-dashoffset="1733">
  <animate attributeName="stroke-dashoffset" from="1733" to="0" dur="2.5s" fill="freeze" calcMode="spline" keySplines="0.4 0 0.2 1"/>
  <animate attributeName="opacity" values="0.7;1;0.85;1" dur="6s" begin="2.5s" repeatCount="indefinite"/>
</path>
<circle cx="90.0" cy="320.0" r="4.1" fill="#58A6B8" stroke="#0d0d0d" stroke-width="1" filter="url(#glowSm)" opacity="0">
  <title>Jun 23
5 Contributions</title>
  <animate attributeName="opacity" from="0" to="1" dur="0.4s" begin="0.80s" fill="freeze"/>
  <animate attributeName="r" values="4.1;5.1;4.1" dur="4s" begin="1.20s" repeatCount="indefinite"/>
</circle>
<circle cx="116.6" cy="364.0" r="3.4" fill="#58A6B8" stroke="#0d0d0d" stroke-width="1" filter="url(#glowSm)" opacity="0">
  <title>Jun 24
3 Contributions</title>
  <animate attributeName="opacity" from="0" to="1" dur="0.4s" begin="0.86s" fill="freeze"/>
  <animate attributeName="r" values="3.4;4.4;3.4" dur="4s" begin="1.26s" repeatCount="indefinite"/>
</circle>
<circle cx="143.1" cy="408.0" r="2.6" fill="#58A6B8" stroke="#0d0d0d" stroke-width="1" filter="url(#glowSm)" opacity="0">
  <title>Jun 25
1 Contribution</title>
  <animate attributeName="opacity" from="0" to="1" dur="0.4s" begin="0.92s" fill="freeze"/>
  <animate attributeName="r" values="2.6;3.6;2.6" dur="4s" begin="1.32s" repeatCount="indefinite"/>
</circle>
<circle cx="169.7" cy="430.0" r="2.2" fill="#58A6B8" stroke="#0d0d0d" stroke-width="1" filter="url(#glowSm)" opacity="0">
  <title>Jun 26
0 Contributions</title>
  <animate attributeName="opacity" from="0" to="1" dur="0.4s" begin="0.98s" fill="freeze"/>
  <animate attributeName="r" values="2.2;3.2;2.2" dur="4s" begin="1.38s" repeatCount="indefinite"/>
</circle>
<circle cx="196.2" cy="430.0" r="2.2" fill="#58A6B8" stroke="#0d0d0d" stroke-width="1" filter="url(#glowSm)" opacity="0">
  <title>Jun 27
0 Contributions</title>
  <animate attributeName="opacity" from="0" to="1" dur="0.4s" begin="1.04s" fill="freeze"/>
  <animate attributeName="r" values="2.2;3.2;2.2" dur="4s" begin="1.44s" repeatCount="indefinite"/>
</circle>
<circle cx="222.8" cy="430.0" r="2.2" fill="#58A6B8" stroke="#0d0d0d" stroke-width="1" filter="url(#glowSm)" opacity="0">
  <title>Jun 28
0 Contributions</title>
  <animate attributeName="opacity" from="0" to="1" dur="0.4s" begin="1.10s" fill="freeze"/>
  <animate attributeName="r" values="2.2;3.2;2.2" dur="4s" begin="1.50s" repeatCount="indefinite"/>
</circle>
<circle cx="249.3" cy="430.0" r="2.2" fill="#58A6B8" stroke="#0d0d0d" stroke-width="1" filter="url(#glowSm)" opacity="0">
  <title>Jun 29
0 Contributions</title>
  <animate attributeName="opacity" from="0" to="1" dur="0.4s" begin="1.16s" fill="freeze"/>
  <animate attributeName="r" values="2.2;3.2;2.2" dur="4s" begin="1.56s" repeatCount="indefinite"/>
</circle>
<circle cx="275.9" cy="320.0" r="4.1" fill="#58A6B8" stroke="#0d0d0d" stroke-width="1" filter="url(#glowSm)" opacity="0">
  <title>Jun 30
5 Contributions</title>
  <animate attributeName="opacity" from="0" to="1" dur="0.4s" begin="1.22s" fill="freeze"/>
  <animate attributeName="r" values="4.1;5.1;4.1" dur="4s" begin="1.62s" repeatCount="indefinite"/>
</circle>
<circle cx="302.4" cy="298.0" r="4.5" fill="#58A6B8" stroke="#0d0d0d" stroke-width="1" filter="url(#glowSm)" opacity="0">
  <title>Jul 1
6 Contributions</title>
  <animate attributeName="opacity" from="0" to="1" dur="0.4s" begin="1.28s" fill="freeze"/>
  <animate attributeName="r" values="4.5;5.5;4.5" dur="4s" begin="1.68s" repeatCount="indefinite"/>
</circle>
<circle cx="329.0" cy="232.0" r="18" fill="url(#haloGrad)" opacity="0">
  <animate attributeName="opacity" values="0;0.6;0.3;0.6" dur="4s" begin="1.34s" repeatCount="indefinite"/>
  <animate attributeName="r" values="14;22;14" dur="4s" begin="1.34s" repeatCount="indefinite"/>
</circle>
<circle cx="329.0" cy="232.0" r="7.2" fill="#e8f4f7" stroke="#0d0d0d" stroke-width="1" filter="url(#glowMd)" opacity="0">
  <title>Jul 2
9 Contributions</title>
  <animate attributeName="opacity" from="0" to="1" dur="0.4s" begin="1.34s" fill="freeze"/>
  <animate attributeName="r" values="7.2;9.2;7.2" dur="3s" begin="1.74s" repeatCount="indefinite"/>
</circle>
<circle cx="355.5" cy="408.0" r="2.6" fill="#58A6B8" stroke="#0d0d0d" stroke-width="1" filter="url(#glowSm)" opacity="0">
  <title>Jul 3
1 Contribution</title>
  <animate attributeName="opacity" from="0" to="1" dur="0.4s" begin="1.40s" fill="freeze"/>
  <animate attributeName="r" values="2.6;3.6;2.6" dur="4s" begin="1.80s" repeatCount="indefinite"/>
</circle>
<circle cx="382.1" cy="430.0" r="2.2" fill="#58A6B8" stroke="#0d0d0d" stroke-width="1" filter="url(#glowSm)" opacity="0">
  <title>Jul 4
0 Contributions</title>
  <animate attributeName="opacity" from="0" to="1" dur="0.4s" begin="1.46s" fill="freeze"/>
  <animate attributeName="r" values="2.2;3.2;2.2" dur="4s" begin="1.86s" repeatCount="indefinite"/>
</circle>
<circle cx="408.6" cy="408.0" r="2.6" fill="#58A6B8" stroke="#0d0d0d" stroke-width="1" filter="url(#glowSm)" opacity="0">
  <title>Jul 5
1 Contribution</title>
  <animate attributeName="opacity" from="0" to="1" dur="0.4s" begin="1.52s" fill="freeze"/>
  <animate attributeName="r" values="2.6;3.6;2.6" dur="4s" begin="1.92s" repeatCount="indefinite"/>
</circle>
<circle cx="435.2" cy="430.0" r="2.2" fill="#58A6B8" stroke="#0d0d0d" stroke-width="1" filter="url(#glowSm)" opacity="0">
  <title>Jul 6
0 Contributions</title>
  <animate attributeName="opacity" from="0" to="1" dur="0.4s" begin="1.58s" fill="freeze"/>
  <animate attributeName="r" values="2.2;3.2;2.2" dur="4s" begin="1.98s" repeatCount="indefinite"/>
</circle>
<circle cx="461.7" cy="364.0" r="3.4" fill="#58A6B8" stroke="#0d0d0d" stroke-width="1" filter="url(#glowSm)" opacity="0">
  <title>Jul 7
3 Contributions</title>
  <animate attributeName="opacity" from="0" to="1" dur="0.4s" begin="1.64s" fill="freeze"/>
  <animate attributeName="r" values="3.4;4.4;3.4" dur="4s" begin="2.04s" repeatCount="indefinite"/>
</circle>
<circle cx="488.3" cy="408.0" r="2.6" fill="#58A6B8" stroke="#0d0d0d" stroke-width="1" filter="url(#glowSm)" opacity="0">
  <title>Jul 8
1 Contribution</title>
  <animate attributeName="opacity" from="0" to="1" dur="0.4s" begin="1.70s" fill="freeze"/>
  <animate attributeName="r" values="2.6;3.6;2.6" dur="4s" begin="2.10s" repeatCount="indefinite"/>
</circle>
<circle cx="514.8" cy="430.0" r="2.2" fill="#58A6B8" stroke="#0d0d0d" stroke-width="1" filter="url(#glowSm)" opacity="0">
  <title>Jul 9
0 Contributions</title>
  <animate attributeName="opacity" from="0" to="1" dur="0.4s" begin="1.76s" fill="freeze"/>
  <animate attributeName="r" values="2.2;3.2;2.2" dur="4s" begin="2.16s" repeatCount="indefinite"/>
</circle>
<circle cx="541.4" cy="430.0" r="2.2" fill="#58A6B8" stroke="#0d0d0d" stroke-width="1" filter="url(#glowSm)" opacity="0">
  <title>Jul 10
0 Contributions</title>
  <animate attributeName="opacity" from="0" to="1" dur="0.4s" begin="1.82s" fill="freeze"/>
  <animate attributeName="r" values="2.2;3.2;2.2" dur="4s" begin="2.22s" repeatCount="indefinite"/>
</circle>
<circle cx="567.9" cy="430.0" r="2.2" fill="#58A6B8" stroke="#0d0d0d" stroke-width="1" filter="url(#glowSm)" opacity="0">
  <title>Jul 11
0 Contributions</title>
  <animate attributeName="opacity" from="0" to="1" dur="0.4s" begin="1.88s" fill="freeze"/>
  <animate attributeName="r" values="2.2;3.2;2.2" dur="4s" begin="2.28s" repeatCount="indefinite"/>
</circle>
<circle cx="594.5" cy="430.0" r="2.2" fill="#58A6B8" stroke="#0d0d0d" stroke-width="1" filter="url(#glowSm)" opacity="0">
  <title>Jul 12
0 Contributions</title>
  <animate attributeName="opacity" from="0" to="1" dur="0.4s" begin="1.94s" fill="freeze"/>
  <animate attributeName="r" values="2.2;3.2;2.2" dur="4s" begin="2.34s" repeatCount="indefinite"/>
</circle>
<circle cx="621.0" cy="408.0" r="2.6" fill="#58A6B8" stroke="#0d0d0d" stroke-width="1" filter="url(#glowSm)" opacity="0">
  <title>Jul 13
1 Contribution</title>
  <animate attributeName="opacity" from="0" to="1" dur="0.4s" begin="2.00s" fill="freeze"/>
  <animate attributeName="r" values="2.6;3.6;2.6" dur="4s" begin="2.40s" repeatCount="indefinite"/>
</circle>
<circle cx="647.6" cy="430.0" r="2.2" fill="#58A6B8" stroke="#0d0d0d" stroke-width="1" filter="url(#glowSm)" opacity="0">
  <title>Jul 14
0 Contributions</title>
  <animate attributeName="opacity" from="0" to="1" dur="0.4s" begin="2.06s" fill="freeze"/>
  <animate attributeName="r" values="2.2;3.2;2.2" dur="4s" begin="2.46s" repeatCount="indefinite"/>
</circle>
<circle cx="674.1" cy="408.0" r="2.6" fill="#58A6B8" stroke="#0d0d0d" stroke-width="1" filter="url(#glowSm)" opacity="0">
  <title>Jul 15
1 Contribution</title>
  <animate attributeName="opacity" from="0" to="1" dur="0.4s" begin="2.12s" fill="freeze"/>
  <animate attributeName="r" values="2.6;3.6;2.6" dur="4s" begin="2.52s" repeatCount="indefinite"/>
</circle>
<circle cx="700.7" cy="386.0" r="3.0" fill="#58A6B8" stroke="#0d0d0d" stroke-width="1" filter="url(#glowSm)" opacity="0">
  <title>Jul 16
2 Contributions</title>
  <animate attributeName="opacity" from="0" to="1" dur="0.4s" begin="2.18s" fill="freeze"/>
  <animate attributeName="r" values="3.0;4.0;3.0" dur="4s" begin="2.58s" repeatCount="indefinite"/>
</circle>
<circle cx="727.2" cy="364.0" r="3.4" fill="#58A6B8" stroke="#0d0d0d" stroke-width="1" filter="url(#glowSm)" opacity="0">
  <title>Jul 17
3 Contributions</title>
  <animate attributeName="opacity" from="0" to="1" dur="0.4s" begin="2.24s" fill="freeze"/>
  <animate attributeName="r" values="3.4;4.4;3.4" dur="4s" begin="2.64s" repeatCount="indefinite"/>
</circle>
<circle cx="753.8" cy="342.0" r="3.8" fill="#58A6B8" stroke="#0d0d0d" stroke-width="1" filter="url(#glowSm)" opacity="0">
  <title>Jul 18
4 Contributions</title>
  <animate attributeName="opacity" from="0" to="1" dur="0.4s" begin="2.30s" fill="freeze"/>
  <animate attributeName="r" values="3.8;4.8;3.8" dur="4s" begin="2.70s" repeatCount="indefinite"/>
</circle>
<circle cx="780.3" cy="386.0" r="3.0" fill="#58A6B8" stroke="#0d0d0d" stroke-width="1" filter="url(#glowSm)" opacity="0">
  <title>Jul 19
2 Contributions</title>
  <animate attributeName="opacity" from="0" to="1" dur="0.4s" begin="2.36s" fill="freeze"/>
  <animate attributeName="r" values="3.0;4.0;3.0" dur="4s" begin="2.76s" repeatCount="indefinite"/>
</circle>
<circle cx="806.9" cy="364.0" r="3.4" fill="#58A6B8" stroke="#0d0d0d" stroke-width="1" filter="url(#glowSm)" opacity="0">
  <title>Jul 20
3 Contributions</title>
  <animate attributeName="opacity" from="0" to="1" dur="0.4s" begin="2.42s" fill="freeze"/>
  <animate attributeName="r" values="3.4;4.4;3.4" dur="4s" begin="2.82s" repeatCount="indefinite"/>
</circle>
<circle cx="833.4" cy="408.0" r="2.6" fill="#58A6B8" stroke="#0d0d0d" stroke-width="1" filter="url(#glowSm)" opacity="0">
  <title>Jul 21
1 Contribution</title>
  <animate attributeName="opacity" from="0" to="1" dur="0.4s" begin="2.48s" fill="freeze"/>
  <animate attributeName="r" values="2.6;3.6;2.6" dur="4s" begin="2.88s" repeatCount="indefinite"/>
</circle>
<circle cx="860.0" cy="430.0" r="2.2" fill="#58A6B8" stroke="#0d0d0d" stroke-width="1" filter="url(#glowSm)" opacity="0">
  <title>Jul 22
0 Contributions</title>
  <animate attributeName="opacity" from="0" to="1" dur="0.4s" begin="2.54s" fill="freeze"/>
  <animate attributeName="r" values="2.2;3.2;2.2" dur="4s" begin="2.94s" repeatCount="indefinite"/>
</circle>
<text x="90" y="466" text-anchor="start" font-family="Georgia,'Palatino Linotype',serif" font-size="10" fill="#5a7a80" letter-spacing="1.5">JUN</text>
<text x="860" y="466" text-anchor="end" font-family="Georgia,'Palatino Linotype',serif" font-size="10" fill="#5a7a80" letter-spacing="1.5">JUL</text>
<text x="450" y="522" text-anchor="middle" font-family="Georgia,'Palatino Linotype',serif" font-size="9" fill="#5a7a80" letter-spacing="4" opacity="0.5">LAST 30 DAYS OF DARK RITUALS</text>
</svg>