<svg xmlns="http://www.w3.org/2000/svg" viewBox="0 0 900 540" width="900" height="540">
<defs>
  <!-- Gradients -->
  <linearGradient id="areaFill" x1="0" y1="0" x2="0" y2="1">
    <stop offset="0%" stop-color="#58A6B8" stop-opacity="0.28"/>
    <stop offset="85%" stop-color="#58A6B8" stop-opacity="0.03"/>
    <stop offset="100%" stop-color="#58A6B8" stop-opacity="0"/>
  </linearGradient>
  <radialGradient id="haloGrad" cx="50%" cy="50%" r="50%">
    <stop offset="0%" stop-color="#58A6B8" stop-opacity="0.5"/>
    <stop offset="100%" stop-color="#58A6B8" stop-opacity="0"/>
  </radialGradient>
  <linearGradient id="frameFade" x1="0" y1="0" x2="1" y2="1">
    <stop offset="0%" stop-color="#58A6B8" stop-opacity="0.35"/>
    <stop offset="50%" stop-color="#58A6B8" stop-opacity="0.12"/>
    <stop offset="100%" stop-color="#58A6B8" stop-opacity="0.35"/>
  </linearGradient>
  <!-- Filters -->
  <filter id="glowSm" x="-50%" y="-50%" width="200%" height="200%">
    <feGaussianBlur stdDeviation="2.5" result="b"/><feMerge><feMergeNode in="b"/><feMergeNode in="SourceGraphic"/></feMerge>
  </filter>
  <filter id="glowMd" x="-50%" y="-50%" width="200%" height="200%">
    <feGaussianBlur stdDeviation="5" result="b"/><feMerge><feMergeNode in="b"/><feMergeNode in="SourceGraphic"/></feMerge>
  </filter>
  <filter id="glowLg" x="-80%" y="-80%" width="260%" height="260%">
    <feGaussianBlur stdDeviation="10" result="b"/><feMerge><feMergeNode in="b"/><feMergeNode in="SourceGraphic"/></feMerge>
  </filter>
  <filter id="cardShadow" x="-10%" y="-10%" width="120%" height="130%">
    <feGaussianBlur stdDeviation="6" result="b"/><feFlood flood-color="#58A6B8" flood-opacity="0.08" result="c"/>
    <feComposite in="c" in2="b" operator="in" result="s"/><feMerge><feMergeNode in="s"/><feMergeNode in="SourceGraphic"/></feMerge>
  </filter>
</defs>

<!-- Background -->
<rect width="900" height="540" fill="#0d0d0d" rx="16"/>
<line x1="90" y1="210.0" x2="860" y2="210.0" stroke="rgba(88,166,184,0.055)" stroke-width="0.7"/>
<line x1="90" y1="246.7" x2="860" y2="246.7" stroke="rgba(88,166,184,0.055)" stroke-width="0.7"/>
<line x1="90" y1="283.3" x2="860" y2="283.3" stroke="rgba(88,166,184,0.055)" stroke-width="0.7"/>
<line x1="90" y1="320.0" x2="860" y2="320.0" stroke="rgba(88,166,184,0.055)" stroke-width="0.7"/>
<line x1="90" y1="356.7" x2="860" y2="356.7" stroke="rgba(88,166,184,0.055)" stroke-width="0.7"/>
<line x1="90" y1="393.3" x2="860" y2="393.3" stroke="rgba(88,166,184,0.055)" stroke-width="0.7"/>
<line x1="90" y1="430.0" x2="860" y2="430.0" stroke="rgba(88,166,184,0.055)" stroke-width="0.7"/>
<line x1="90.0" y1="210" x2="90.0" y2="430" stroke="rgba(88,166,184,0.055)" stroke-width="0.5"/>
<line x1="222.8" y1="210" x2="222.8" y2="430" stroke="rgba(88,166,184,0.055)" stroke-width="0.5"/>
<line x1="355.5" y1="210" x2="355.5" y2="430" stroke="rgba(88,166,184,0.055)" stroke-width="0.5"/>
<line x1="488.3" y1="210" x2="488.3" y2="430" stroke="rgba(88,166,184,0.055)" stroke-width="0.5"/>
<line x1="621.0" y1="210" x2="621.0" y2="430" stroke="rgba(88,166,184,0.055)" stroke-width="0.5"/>
<line x1="753.8" y1="210" x2="753.8" y2="430" stroke="rgba(88,166,184,0.055)" stroke-width="0.5"/>
<circle cx="606.8" cy="310.3" r="1.4" fill="#58A6B8" opacity="0.103"><animate attributeName="opacity" values="0.103;0.227;0.103" dur="6.2s" begin="5.5s" repeatCount="indefinite"/></circle>
<circle cx="184.4" cy="490.1" r="0.8" fill="#58A6B8" opacity="0.063"><animate attributeName="opacity" values="0.063;0.139;0.063" dur="5.6s" begin="2.5s" repeatCount="indefinite"/></circle>
<circle cx="600.7" cy="303.2" r="1.1" fill="#58A6B8" opacity="0.051"><animate attributeName="opacity" values="0.051;0.112;0.051" dur="5.5s" begin="5.5s" repeatCount="indefinite"/></circle>
<circle cx="789.3" cy="170.5" r="1.0" fill="#58A6B8" opacity="0.054"><animate attributeName="opacity" values="0.054;0.119;0.054" dur="5.4s" begin="4.4s" repeatCount="indefinite"/></circle>
<circle cx="162.6" cy="228.2" r="1.0" fill="#58A6B8" opacity="0.114"><animate attributeName="opacity" values="0.114;0.251;0.114" dur="4.5s" begin="2.6s" repeatCount="indefinite"/></circle>
<circle cx="377.2" cy="44.9" r="1.2" fill="#58A6B8" opacity="0.110"><animate attributeName="opacity" values="0.110;0.242;0.110" dur="4.0s" begin="4.5s" repeatCount="indefinite"/></circle>
<circle cx="457.6" cy="206.9" r="0.5" fill="#58A6B8" opacity="0.114"><animate attributeName="opacity" values="0.114;0.251;0.114" dur="5.9s" begin="0.4s" repeatCount="indefinite"/></circle>
<circle cx="50.8" cy="24.0" r="1.3" fill="#58A6B8" opacity="0.121"><animate attributeName="opacity" values="0.121;0.266;0.121" dur="8.5s" begin="2.4s" repeatCount="indefinite"/></circle>
<circle cx="653.4" cy="38.9" r="0.3" fill="#58A6B8" opacity="0.129"><animate attributeName="opacity" values="0.129;0.284;0.129" dur="7.3s" begin="4.3s" repeatCount="indefinite"/></circle>
<circle cx="719.3" cy="467.5" r="0.8" fill="#58A6B8" opacity="0.083"><animate attributeName="opacity" values="0.083;0.183;0.083" dur="5.8s" begin="2.9s" repeatCount="indefinite"/></circle>
<circle cx="407.7" cy="426.9" r="0.8" fill="#58A6B8" opacity="0.052"><animate attributeName="opacity" values="0.052;0.114;0.052" dur="7.3s" begin="3.8s" repeatCount="indefinite"/></circle>
<circle cx="272.8" cy="442.1" r="1.1" fill="#58A6B8" opacity="0.043"><animate attributeName="opacity" values="0.043;0.095;0.043" dur="6.5s" begin="0.3s" repeatCount="indefinite"/></circle>
<circle cx="897.8" cy="81.1" r="0.9" fill="#58A6B8" opacity="0.100"><animate attributeName="opacity" values="0.100;0.220;0.100" dur="4.5s" begin="4.4s" repeatCount="indefinite"/></circle>
<circle cx="157.9" cy="252.3" r="1.4" fill="#58A6B8" opacity="0.070"><animate attributeName="opacity" values="0.070;0.154;0.070" dur="6.0s" begin="5.4s" repeatCount="indefinite"/></circle>
<circle cx="49.7" cy="534.4" r="1.1" fill="#58A6B8" opacity="0.131"><animate attributeName="opacity" values="0.131;0.288;0.131" dur="5.9s" begin="1.0s" repeatCount="indefinite"/></circle>
<circle cx="225.8" cy="134.5" r="0.3" fill="#58A6B8" opacity="0.129"><animate attributeName="opacity" values="0.129;0.284;0.129" dur="4.7s" begin="4.9s" repeatCount="indefinite"/></circle>
<circle cx="108.2" cy="170.5" r="0.3" fill="#58A6B8" opacity="0.083"><animate attributeName="opacity" values="0.083;0.183;0.083" dur="4.0s" begin="1.7s" repeatCount="indefinite"/></circle>
<circle cx="410.2" cy="121.2" r="0.5" fill="#58A6B8" opacity="0.084"><animate attributeName="opacity" values="0.084;0.185;0.084" dur="6.7s" begin="0.5s" repeatCount="indefinite"/></circle>
<circle cx="792.1" cy="305.1" r="1.3" fill="#58A6B8" opacity="0.158"><animate attributeName="opacity" values="0.158;0.348;0.158" dur="4.2s" begin="5.6s" repeatCount="indefinite"/></circle>
<circle cx="599.4" cy="182.6" r="0.3" fill="#58A6B8" opacity="0.075"><animate attributeName="opacity" values="0.075;0.165;0.075" dur="6.8s" begin="1.3s" repeatCount="indefinite"/></circle>
<circle cx="653.6" cy="411.7" r="0.9" fill="#58A6B8" opacity="0.114"><animate attributeName="opacity" values="0.114;0.251;0.114" dur="4.9s" begin="2.7s" repeatCount="indefinite"/></circle>
<circle cx="212.9" cy="19.4" r="1.1" fill="#58A6B8" opacity="0.105"><animate attributeName="opacity" values="0.105;0.231;0.105" dur="4.3s" begin="3.9s" repeatCount="indefinite"/></circle>
<circle cx="897.2" cy="88.5" r="0.8" fill="#58A6B8" opacity="0.047"><animate attributeName="opacity" values="0.047;0.103;0.047" dur="4.6s" begin="0.8s" repeatCount="indefinite"/></circle>
<circle cx="766.2" cy="104.4" r="0.5" fill="#58A6B8" opacity="0.051"><animate attributeName="opacity" values="0.051;0.112;0.051" dur="6.0s" begin="5.0s" repeatCount="indefinite"/></circle>
<circle cx="636.1" cy="480.4" r="0.7" fill="#58A6B8" opacity="0.129"><animate attributeName="opacity" values="0.129;0.284;0.129" dur="5.7s" begin="2.4s" repeatCount="indefinite"/></circle>
<circle cx="485.1" cy="441.9" r="0.5" fill="#58A6B8" opacity="0.110"><animate attributeName="opacity" values="0.110;0.242;0.110" dur="7.9s" begin="5.9s" repeatCount="indefinite"/></circle>
<circle cx="564.6" cy="321.2" r="1.3" fill="#58A6B8" opacity="0.084"><animate attributeName="opacity" values="0.084;0.185;0.084" dur="3.8s" begin="6.0s" repeatCount="indefinite"/></circle>
<circle cx="553.6" cy="399.9" r="1.0" fill="#58A6B8" opacity="0.075"><animate attributeName="opacity" values="0.075;0.165;0.075" dur="4.3s" begin="5.3s" repeatCount="indefinite"/></circle>
<circle cx="656.1" cy="409.2" r="1.0" fill="#58A6B8" opacity="0.154"><animate attributeName="opacity" values="0.154;0.339;0.154" dur="7.0s" begin="0.5s" repeatCount="indefinite"/></circle>
<circle cx="112.8" cy="391.1" r="1.0" fill="#58A6B8" opacity="0.121"><animate attributeName="opacity" values="0.121;0.266;0.121" dur="6.0s" begin="1.7s" repeatCount="indefinite"/></circle>
<circle cx="110.9" cy="505.0" r="0.4" fill="#58A6B8" opacity="0.042"><animate attributeName="opacity" values="0.042;0.092;0.042" dur="6.5s" begin="0.2s" repeatCount="indefinite"/></circle>
<circle cx="331.3" cy="64.3" r="0.4" fill="#58A6B8" opacity="0.105"><animate attributeName="opacity" values="0.105;0.231;0.105" dur="4.8s" begin="5.1s" repeatCount="indefinite"/></circle>
<circle cx="38.5" cy="234.7" r="0.8" fill="#58A6B8" opacity="0.133"><animate attributeName="opacity" values="0.133;0.293;0.133" dur="5.3s" begin="4.1s" repeatCount="indefinite"/></circle>
<circle cx="231.9" cy="534.2" r="0.4" fill="#58A6B8" opacity="0.154"><animate attributeName="opacity" values="0.154;0.339;0.154" dur="6.4s" begin="4.7s" repeatCount="indefinite"/></circle>
<circle cx="585.9" cy="14.9" r="0.6" fill="#58A6B8" opacity="0.069"><animate attributeName="opacity" values="0.069;0.152;0.069" dur="5.2s" begin="5.3s" repeatCount="indefinite"/></circle>
<circle cx="876.3" cy="213.2" r="0.7" fill="#58A6B8" opacity="0.128"><animate attributeName="opacity" values="0.128;0.282;0.128" dur="6.7s" begin="0.6s" repeatCount="indefinite"/></circle>
<circle cx="320.1" cy="536.0" r="1.2" fill="#58A6B8" opacity="0.079"><animate attributeName="opacity" values="0.079;0.174;0.079" dur="5.0s" begin="4.9s" repeatCount="indefinite"/></circle>
<circle cx="675.7" cy="524.9" r="0.8" fill="#58A6B8" opacity="0.137"><animate attributeName="opacity" values="0.137;0.301;0.137" dur="6.3s" begin="5.0s" repeatCount="indefinite"/></circle>
<circle cx="721.1" cy="166.3" r="1.0" fill="#58A6B8" opacity="0.061"><animate attributeName="opacity" values="0.061;0.134;0.061" dur="7.3s" begin="4.1s" repeatCount="indefinite"/></circle>
<circle cx="720.4" cy="199.2" r="0.4" fill="#58A6B8" opacity="0.071"><animate attributeName="opacity" values="0.071;0.156;0.071" dur="3.7s" begin="2.2s" repeatCount="indefinite"/></circle>
<circle cx="71.2" cy="200.8" r="0.4" fill="#58A6B8" opacity="0.120"><animate attributeName="opacity" values="0.120;0.264;0.120" dur="5.3s" begin="3.4s" repeatCount="indefinite"/></circle>
<circle cx="380.3" cy="75.6" r="0.7" fill="#58A6B8" opacity="0.159"><animate attributeName="opacity" values="0.159;0.350;0.159" dur="7.8s" begin="5.3s" repeatCount="indefinite"/></circle>
<circle cx="897.2" cy="53.8" r="0.5" fill="#58A6B8" opacity="0.058"><animate attributeName="opacity" values="0.058;0.128;0.058" dur="7.7s" begin="0.1s" repeatCount="indefinite"/></circle>
<circle cx="884.6" cy="481.6" r="0.4" fill="#58A6B8" opacity="0.089"><animate attributeName="opacity" values="0.089;0.196;0.089" dur="5.2s" begin="5.5s" repeatCount="indefinite"/></circle>
<circle cx="294.3" cy="220.2" r="0.5" fill="#58A6B8" opacity="0.122"><animate attributeName="opacity" values="0.122;0.268;0.122" dur="8.1s" begin="2.4s" repeatCount="indefinite"/></circle>
<circle cx="260.1" cy="20.3" r="1.2" fill="#58A6B8" opacity="0.052"><animate attributeName="opacity" values="0.052;0.114;0.052" dur="8.0s" begin="4.4s" repeatCount="indefinite"/></circle>
<circle cx="47.6" cy="217.5" r="0.4" fill="#58A6B8" opacity="0.097"><animate attributeName="opacity" values="0.097;0.213;0.097" dur="4.9s" begin="1.7s" repeatCount="indefinite"/></circle>
<circle cx="777.8" cy="500.3" r="0.6" fill="#58A6B8" opacity="0.148"><animate attributeName="opacity" values="0.148;0.326;0.148" dur="5.1s" begin="1.3s" repeatCount="indefinite"/></circle>
<circle cx="748.6" cy="84.3" r="0.8" fill="#58A6B8" opacity="0.054"><animate attributeName="opacity" values="0.054;0.119;0.054" dur="6.5s" begin="0.6s" repeatCount="indefinite"/></circle>
<circle cx="626.8" cy="272.4" r="0.6" fill="#58A6B8" opacity="0.114"><animate attributeName="opacity" values="0.114;0.251;0.114" dur="3.8s" begin="4.6s" repeatCount="indefinite"/></circle>
<circle cx="744.3" cy="452.8" r="0.7" fill="#58A6B8" opacity="0.151"><animate attributeName="opacity" values="0.151;0.332;0.151" dur="5.5s" begin="3.2s" repeatCount="indefinite"/></circle>
<circle cx="504.7" cy="147.6" r="1.1" fill="#58A6B8" opacity="0.106"><animate attributeName="opacity" values="0.106;0.233;0.106" dur="8.4s" begin="1.3s" repeatCount="indefinite"/></circle>
<circle cx="859.5" cy="310.6" r="1.3" fill="#58A6B8" opacity="0.111"><animate attributeName="opacity" values="0.111;0.244;0.111" dur="4.5s" begin="2.8s" repeatCount="indefinite"/></circle>
<circle cx="832.5" cy="235.2" r="0.8" fill="#58A6B8" opacity="0.121"><animate attributeName="opacity" values="0.121;0.266;0.121" dur="5.4s" begin="3.4s" repeatCount="indefinite"/></circle>
<circle cx="16.9" cy="511.4" r="1.4" fill="#58A6B8" opacity="0.090"><animate attributeName="opacity" values="0.090;0.198;0.090" dur="7.0s" begin="3.5s" repeatCount="indefinite"/></circle>
<g transform="translate(252.9,86.3) rotate(45)" opacity="0.090"><rect x="-1.3" y="-1.3" width="2.6" height="2.6" fill="#58A6B8"/><animate attributeName="opacity" values="0.090;0.225;0.090" dur="6.0s" begin="1.1s" repeatCount="indefinite"/></g>
<g transform="translate(495.2,84.3) rotate(45)" opacity="0.100"><rect x="-1.3" y="-1.3" width="2.5" height="2.5" fill="#58A6B8"/><animate attributeName="opacity" values="0.100;0.250;0.100" dur="8.7s" begin="2.1s" repeatCount="indefinite"/></g>
<g transform="translate(461.1,370.3) rotate(45)" opacity="0.069"><rect x="-1.6" y="-1.6" width="3.2" height="3.2" fill="#58A6B8"/><animate attributeName="opacity" values="0.069;0.173;0.069" dur="6.7s" begin="0.8s" repeatCount="indefinite"/></g>
<g transform="translate(622.3,441.2) rotate(45)" opacity="0.048"><rect x="-1.8" y="-1.8" width="3.7" height="3.7" fill="#58A6B8"/><animate attributeName="opacity" values="0.048;0.120;0.048" dur="8.2s" begin="0.7s" repeatCount="indefinite"/></g>
<g transform="translate(276.4,71.2) rotate(45)" opacity="0.061"><rect x="-2.2" y="-2.2" width="4.4" height="4.4" fill="#58A6B8"/><animate attributeName="opacity" values="0.061;0.152;0.061" dur="9.2s" begin="2.4s" repeatCount="indefinite"/></g>
<g transform="translate(200.4,332.8) rotate(45)" opacity="0.084"><rect x="-1.9" y="-1.9" width="3.8" height="3.8" fill="#58A6B8"/><animate attributeName="opacity" values="0.084;0.210;0.084" dur="8.6s" begin="1.4s" repeatCount="indefinite"/></g>
<g transform="translate(377.3,202.7) rotate(45)" opacity="0.044"><rect x="-1.6" y="-1.6" width="3.3" height="3.3" fill="#58A6B8"/><animate attributeName="opacity" values="0.044;0.110;0.044" dur="7.7s" begin="1.3s" repeatCount="indefinite"/></g>
<g transform="translate(89.7,479.2) rotate(45)" opacity="0.076"><rect x="-1.8" y="-1.8" width="3.6" height="3.6" fill="#58A6B8"/><animate attributeName="opacity" values="0.076;0.190;0.076" dur="7.6s" begin="0.9s" repeatCount="indefinite"/></g>
<g transform="translate(18,18) scale(1,1)"><path d="M0 25 L0 6 Q0 0 6 0 L25 0" fill="none" stroke="#58A6B8" stroke-width="1.3" opacity="0.35"/><circle cx="0" cy="0" r="1.8" fill="#58A6B8" opacity="0.4"/><path d="M0 12 L5 12" fill="none" stroke="#58A6B8" stroke-width="0.6" opacity="0.2"/><path d="M12 0 L12 5" fill="none" stroke="#58A6B8" stroke-width="0.6" opacity="0.2"/></g><g transform="translate(882,18) scale(-1,1)"><path d="M0 25 L0 6 Q0 0 6 0 L25 0" fill="none" stroke="#58A6B8" stroke-width="1.3" opacity="0.35"/><circle cx="0" cy="0" r="1.8" fill="#58A6B8" opacity="0.4"/><path d="M0 12 L5 12" fill="none" stroke="#58A6B8" stroke-width="0.6" opacity="0.2"/><path d="M12 0 L12 5" fill="none" stroke="#58A6B8" stroke-width="0.6" opacity="0.2"/></g><g transform="translate(18,522) scale(1,-1)"><path d="M0 25 L0 6 Q0 0 6 0 L25 0" fill="none" stroke="#58A6B8" stroke-width="1.3" opacity="0.35"/><circle cx="0" cy="0" r="1.8" fill="#58A6B8" opacity="0.4"/><path d="M0 12 L5 12" fill="none" stroke="#58A6B8" stroke-width="0.6" opacity="0.2"/><path d="M12 0 L12 5" fill="none" stroke="#58A6B8" stroke-width="0.6" opacity="0.2"/></g><g transform="translate(882,522) scale(-1,-1)"><path d="M0 25 L0 6 Q0 0 6 0 L25 0" fill="none" stroke="#58A6B8" stroke-width="1.3" opacity="0.35"/><circle cx="0" cy="0" r="1.8" fill="#58A6B8" opacity="0.4"/><path d="M0 12 L5 12" fill="none" stroke="#58A6B8" stroke-width="0.6" opacity="0.2"/><path d="M12 0 L12 5" fill="none" stroke="#58A6B8" stroke-width="0.6" opacity="0.2"/></g>
<rect x="10" y="10" width="880" height="520" rx="12" fill="none" stroke="url(#frameFade)" stroke-width="1"/>
<text x="450" y="50" text-anchor="middle" font-family="Georgia,'Palatino Linotype','Book Antiqua',Palatino,serif" font-size="22" font-weight="bold" fill="#e8f4f7" letter-spacing="8" filter="url(#glowMd)">✧ THE COMMIT COVEN ✧</text>
<line x1="310" y1="62" x2="590" y2="62" stroke="#58A6B8" stroke-width="0.5" opacity="0.25"/>
<g filter="url(#cardShadow)"><rect x="70" y="80" width="240" height="78" rx="10" fill="rgba(88,166,184,0.05)" stroke="rgba(88,166,184,0.22)" stroke-width="0.8"/><text x="190" y="110" text-anchor="middle" font-family="Georgia,'Palatino Linotype',serif" font-size="11" fill="#5a7a80" letter-spacing="3" text-transform="uppercase">LONGEST STREAK</text><text x="190" y="136" text-anchor="middle" font-family="Georgia,'Palatino Linotype',serif" font-size="20" fill="#e8f4f7" font-weight="bold" filter="url(#glowSm)">12 Nights</text></g>
<g filter="url(#cardShadow)"><rect x="330" y="80" width="240" height="78" rx="10" fill="rgba(88,166,184,0.05)" stroke="rgba(88,166,184,0.22)" stroke-width="0.8"/><text x="450" y="110" text-anchor="middle" font-family="Georgia,'Palatino Linotype',serif" font-size="11" fill="#5a7a80" letter-spacing="3" text-transform="uppercase">CURRENT RITUAL</text><text x="450" y="136" text-anchor="middle" font-family="Georgia,'Palatino Linotype',serif" font-size="20" fill="#e8f4f7" font-weight="bold" filter="url(#glowSm)">2 Nights</text></g>
<g filter="url(#cardShadow)"><rect x="590" y="80" width="240" height="78" rx="10" fill="rgba(88,166,184,0.05)" stroke="rgba(88,166,184,0.22)" stroke-width="0.8"/><text x="710" y="110" text-anchor="middle" font-family="Georgia,'Palatino Linotype',serif" font-size="11" fill="#5a7a80" letter-spacing="3" text-transform="uppercase">TOTAL OFFERINGS</text><text x="710" y="136" text-anchor="middle" font-family="Georgia,'Palatino Linotype',serif" font-size="20" fill="#e8f4f7" font-weight="bold" filter="url(#glowSm)">239</text></g>
<text x="80" y="434.0" text-anchor="end" font-family="'Courier New',monospace" font-size="10" fill="#5a7a80">0</text>
<line x1="86" y1="430.0" x2="90" y2="430.0" stroke="#5a7a80" stroke-width="0.5"/>
<text x="80" y="390.0" text-anchor="end" font-family="'Courier New',monospace" font-size="10" fill="#5a7a80">2</text>
<line x1="86" y1="386.0" x2="90" y2="386.0" stroke="#5a7a80" stroke-width="0.5"/>
<text x="80" y="346.0" text-anchor="end" font-family="'Courier New',monospace" font-size="10" fill="#5a7a80">4</text>
<line x1="86" y1="342.0" x2="90" y2="342.0" stroke="#5a7a80" stroke-width="0.5"/>
<text x="80" y="302.0" text-anchor="end" font-family="'Courier New',monospace" font-size="10" fill="#5a7a80">6</text>
<line x1="86" y1="298.0" x2="90" y2="298.0" stroke="#5a7a80" stroke-width="0.5"/>
<text x="80" y="258.0" text-anchor="end" font-family="'Courier New',monospace" font-size="10" fill="#5a7a80">8</text>
<line x1="86" y1="254.0" x2="90" y2="254.0" stroke="#5a7a80" stroke-width="0.5"/>
<text x="80" y="214.0" text-anchor="end" font-family="'Courier New',monospace" font-size="10" fill="#5a7a80">10</text>
<line x1="86" y1="210.0" x2="90" y2="210.0" stroke="#5a7a80" stroke-width="0.5"/>
<text x="90.0" y="450" text-anchor="middle" font-family="'Courier New',monospace" font-size="10" fill="#5a7a80">11</text>
<text x="196.2" y="450" text-anchor="middle" font-family="'Courier New',monospace" font-size="10" fill="#5a7a80">15</text>
<text x="302.4" y="450" text-anchor="middle" font-family="'Courier New',monospace" font-size="10" fill="#5a7a80">19</text>
<text x="408.6" y="450" text-anchor="middle" font-family="'Courier New',monospace" font-size="10" fill="#5a7a80">23</text>
<text x="514.8" y="450" text-anchor="middle" font-family="'Courier New',monospace" font-size="10" fill="#5a7a80">27</text>
<text x="621.0" y="450" text-anchor="middle" font-family="'Courier New',monospace" font-size="10" fill="#5a7a80">31</text>
<text x="727.2" y="450" text-anchor="middle" font-family="'Courier New',monospace" font-size="10" fill="#5a7a80">4</text>
<text x="833.4" y="450" text-anchor="middle" font-family="'Courier New',monospace" font-size="10" fill="#5a7a80">8</text>
<text x="860.0" y="450" text-anchor="middle" font-family="'Courier New',monospace" font-size="10" fill="#5a7a80">9</text>
<line x1="90" y1="210" x2="90" y2="430" stroke="#58A6B8" stroke-width="0.5" opacity="0.2"/>
<line x1="90" y1="430" x2="860" y2="430" stroke="#58A6B8" stroke-width="0.5" opacity="0.2"/>
<path d="M90.0 430.0 C93.5 430.0,109.5 432.9,116.6 430.0 C123.6 427.1,136.0 408.0,143.1 408.0 C150.2 408.0,162.6 430.0,169.7 430.0 C176.7 430.0,189.1 413.9,196.2 408.0 C203.3 402.1,215.7 391.9,222.8 386.0 C229.8 380.1,242.2 369.9,249.3 364.0 C256.4 358.1,268.8 339.1,275.9 342.0 C282.9 344.9,295.3 383.1,302.4 386.0 C309.5 388.9,321.9 361.1,329.0 364.0 C336.0 366.9,348.4 399.2,355.5 408.0 C362.6 416.8,375.0 447.6,382.1 430.0 C389.1 412.4,401.5 305.3,408.6 276.0 C415.7 246.7,428.1 189.5,435.2 210.0 C442.3 230.5,454.6 400.7,461.7 430.0 C468.8 459.3,481.2 430.0,488.3 430.0 C495.4 430.0,507.7 430.0,514.8 430.0 C521.9 430.0,534.3 432.9,541.4 430.0 C548.5 427.1,560.9 408.0,567.9 408.0 C575.0 408.0,587.4 427.1,594.5 430.0 C601.6 432.9,614.0 430.0,621.0 430.0 C628.1 430.0,640.5 441.7,647.6 430.0 C654.7 418.3,667.1 342.0,674.1 342.0 C681.2 342.0,693.6 424.1,700.7 430.0 C707.8 435.9,720.2 386.0,727.2 386.0 C734.3 386.0,746.7 424.1,753.8 430.0 C760.9 435.9,773.3 435.9,780.3 430.0 C787.4 424.1,799.8 394.8,806.9 386.0 C814.0 377.2,826.4 358.1,833.4 364.0 C840.5 369.9,856.5 421.2,860.0 430.0 L860.0 430 L90.0 430 Z" fill="url(#areaFill)" opacity="0.9">
  <animate attributeName="opacity" values="0;0.9" dur="2s" fill="freeze"/>
</path>
<path d="M90.0 430.0 C93.5 430.0,109.5 432.9,116.6 430.0 C123.6 427.1,136.0 408.0,143.1 408.0 C150.2 408.0,162.6 430.0,169.7 430.0 C176.7 430.0,189.1 413.9,196.2 408.0 C203.3 402.1,215.7 391.9,222.8 386.0 C229.8 380.1,242.2 369.9,249.3 364.0 C256.4 358.1,268.8 339.1,275.9 342.0 C282.9 344.9,295.3 383.1,302.4 386.0 C309.5 388.9,321.9 361.1,329.0 364.0 C336.0 366.9,348.4 399.2,355.5 408.0 C362.6 416.8,375.0 447.6,382.1 430.0 C389.1 412.4,401.5 305.3,408.6 276.0 C415.7 246.7,428.1 189.5,435.2 210.0 C442.3 230.5,454.6 400.7,461.7 430.0 C468.8 459.3,481.2 430.0,488.3 430.0 C495.4 430.0,507.7 430.0,514.8 430.0 C521.9 430.0,534.3 432.9,541.4 430.0 C548.5 427.1,560.9 408.0,567.9 408.0 C575.0 408.0,587.4 427.1,594.5 430.0 C601.6 432.9,614.0 430.0,621.0 430.0 C628.1 430.0,640.5 441.7,647.6 430.0 C654.7 418.3,667.1 342.0,674.1 342.0 C681.2 342.0,693.6 424.1,700.7 430.0 C707.8 435.9,720.2 386.0,727.2 386.0 C734.3 386.0,746.7 424.1,753.8 430.0 C760.9 435.9,773.3 435.9,780.3 430.0 C787.4 424.1,799.8 394.8,806.9 386.0 C814.0 377.2,826.4 358.1,833.4 364.0 C840.5 369.9,856.5 421.2,860.0 430.0" fill="none" stroke="#58A6B8" stroke-width="4" opacity="0.15" filter="url(#glowLg)" stroke-linecap="round" stroke-linejoin="round"/>
<path d="M90.0 430.0 C93.5 430.0,109.5 432.9,116.6 430.0 C123.6 427.1,136.0 408.0,143.1 408.0 C150.2 408.0,162.6 430.0,169.7 430.0 C176.7 430.0,189.1 413.9,196.2 408.0 C203.3 402.1,215.7 391.9,222.8 386.0 C229.8 380.1,242.2 369.9,249.3 364.0 C256.4 358.1,268.8 339.1,275.9 342.0 C282.9 344.9,295.3 383.1,302.4 386.0 C309.5 388.9,321.9 361.1,329.0 364.0 C336.0 366.9,348.4 399.2,355.5 408.0 C362.6 416.8,375.0 447.6,382.1 430.0 C389.1 412.4,401.5 305.3,408.6 276.0 C415.7 246.7,428.1 189.5,435.2 210.0 C442.3 230.5,454.6 400.7,461.7 430.0 C468.8 459.3,481.2 430.0,488.3 430.0 C495.4 430.0,507.7 430.0,514.8 430.0 C521.9 430.0,534.3 432.9,541.4 430.0 C548.5 427.1,560.9 408.0,567.9 408.0 C575.0 408.0,587.4 427.1,594.5 430.0 C601.6 432.9,614.0 430.0,621.0 430.0 C628.1 430.0,640.5 441.7,647.6 430.0 C654.7 418.3,667.1 342.0,674.1 342.0 C681.2 342.0,693.6 424.1,700.7 430.0 C707.8 435.9,720.2 386.0,727.2 386.0 C734.3 386.0,746.7 424.1,753.8 430.0 C760.9 435.9,773.3 435.9,780.3 430.0 C787.4 424.1,799.8 394.8,806.9 386.0 C814.0 377.2,826.4 358.1,833.4 364.0 C840.5 369.9,856.5 421.2,860.0 430.0" fill="none" stroke="#58A6B8" stroke-width="2.2" stroke-linecap="round" stroke-linejoin="round" filter="url(#glowSm)" stroke-dasharray="1984" stroke-dashoffset="1984">
  <animate attributeName="stroke-dashoffset" from="1984" to="0" dur="2.5s" fill="freeze" calcMode="spline" keySplines="0.4 0 0.2 1"/>
  <animate attributeName="opacity" values="0.7;1;0.85;1" dur="6s" begin="2.5s" repeatCount="indefinite"/>
</path>
<circle cx="90.0" cy="430.0" r="2.2" fill="#58A6B8" stroke="#0d0d0d" stroke-width="1" filter="url(#glowSm)" opacity="0">
  <title>Jul 11
0 Contributions</title>
  <animate attributeName="opacity" from="0" to="1" dur="0.4s" begin="0.80s" fill="freeze"/>
  <animate attributeName="r" values="2.2;3.2;2.2" dur="4s" begin="1.20s" repeatCount="indefinite"/>
</circle>
<circle cx="116.6" cy="430.0" r="2.2" fill="#58A6B8" stroke="#0d0d0d" stroke-width="1" filter="url(#glowSm)" opacity="0">
  <title>Jul 12
0 Contributions</title>
  <animate attributeName="opacity" from="0" to="1" dur="0.4s" begin="0.86s" fill="freeze"/>
  <animate attributeName="r" values="2.2;3.2;2.2" dur="4s" begin="1.26s" repeatCount="indefinite"/>
</circle>
<circle cx="143.1" cy="408.0" r="2.6" fill="#58A6B8" stroke="#0d0d0d" stroke-width="1" filter="url(#glowSm)" opacity="0">
  <title>Jul 13
1 Contribution</title>
  <animate attributeName="opacity" from="0" to="1" dur="0.4s" begin="0.92s" fill="freeze"/>
  <animate attributeName="r" values="2.6;3.6;2.6" dur="4s" begin="1.32s" repeatCount="indefinite"/>
</circle>
<circle cx="169.7" cy="430.0" r="2.2" fill="#58A6B8" stroke="#0d0d0d" stroke-width="1" filter="url(#glowSm)" opacity="0">
  <title>Jul 14
0 Contributions</title>
  <animate attributeName="opacity" from="0" to="1" dur="0.4s" begin="0.98s" fill="freeze"/>
  <animate attributeName="r" values="2.2;3.2;2.2" dur="4s" begin="1.38s" repeatCount="indefinite"/>
</circle>
<circle cx="196.2" cy="408.0" r="2.6" fill="#58A6B8" stroke="#0d0d0d" stroke-width="1" filter="url(#glowSm)" opacity="0">
  <title>Jul 15
1 Contribution</title>
  <animate attributeName="opacity" from="0" to="1" dur="0.4s" begin="1.04s" fill="freeze"/>
  <animate attributeName="r" values="2.6;3.6;2.6" dur="4s" begin="1.44s" repeatCount="indefinite"/>
</circle>
<circle cx="222.8" cy="386.0" r="2.9" fill="#58A6B8" stroke="#0d0d0d" stroke-width="1" filter="url(#glowSm)" opacity="0">
  <title>Jul 16
2 Contributions</title>
  <animate attributeName="opacity" from="0" to="1" dur="0.4s" begin="1.10s" fill="freeze"/>
  <animate attributeName="r" values="2.9;3.9;2.9" dur="4s" begin="1.50s" repeatCount="indefinite"/>
</circle>
<circle cx="249.3" cy="364.0" r="3.3" fill="#58A6B8" stroke="#0d0d0d" stroke-width="1" filter="url(#glowSm)" opacity="0">
  <title>Jul 17
3 Contributions</title>
  <animate attributeName="opacity" from="0" to="1" dur="0.4s" begin="1.16s" fill="freeze"/>
  <animate attributeName="r" values="3.3;4.3;3.3" dur="4s" begin="1.56s" repeatCount="indefinite"/>
</circle>
<circle cx="275.9" cy="342.0" r="3.6" fill="#58A6B8" stroke="#0d0d0d" stroke-width="1" filter="url(#glowSm)" opacity="0">
  <title>Jul 18
4 Contributions</title>
  <animate attributeName="opacity" from="0" to="1" dur="0.4s" begin="1.22s" fill="freeze"/>
  <animate attributeName="r" values="3.6;4.6;3.6" dur="4s" begin="1.62s" repeatCount="indefinite"/>
</circle>
<circle cx="302.4" cy="386.0" r="2.9" fill="#58A6B8" stroke="#0d0d0d" stroke-width="1" filter="url(#glowSm)" opacity="0">
  <title>Jul 19
2 Contributions</title>
  <animate attributeName="opacity" from="0" to="1" dur="0.4s" begin="1.28s" fill="freeze"/>
  <animate attributeName="r" values="2.9;3.9;2.9" dur="4s" begin="1.68s" repeatCount="indefinite"/>
</circle>
<circle cx="329.0" cy="364.0" r="3.3" fill="#58A6B8" stroke="#0d0d0d" stroke-width="1" filter="url(#glowSm)" opacity="0">
  <title>Jul 20
3 Contributions</title>
  <animate attributeName="opacity" from="0" to="1" dur="0.4s" begin="1.34s" fill="freeze"/>
  <animate attributeName="r" values="3.3;4.3;3.3" dur="4s" begin="1.74s" repeatCount="indefinite"/>
</circle>
<circle cx="355.5" cy="408.0" r="2.6" fill="#58A6B8" stroke="#0d0d0d" stroke-width="1" filter="url(#glowSm)" opacity="0">
  <title>Jul 21
1 Contribution</title>
  <animate attributeName="opacity" from="0" to="1" dur="0.4s" begin="1.40s" fill="freeze"/>
  <animate attributeName="r" values="2.6;3.6;2.6" dur="4s" begin="1.80s" repeatCount="indefinite"/>
</circle>
<circle cx="382.1" cy="430.0" r="2.2" fill="#58A6B8" stroke="#0d0d0d" stroke-width="1" filter="url(#glowSm)" opacity="0">
  <title>Jul 22
0 Contributions</title>
  <animate attributeName="opacity" from="0" to="1" dur="0.4s" begin="1.46s" fill="freeze"/>
  <animate attributeName="r" values="2.2;3.2;2.2" dur="4s" begin="1.86s" repeatCount="indefinite"/>
</circle>
<circle cx="408.6" cy="276.0" r="4.7" fill="#58A6B8" stroke="#0d0d0d" stroke-width="1" filter="url(#glowSm)" opacity="0">
  <title>Jul 23
7 Contributions</title>
  <animate attributeName="opacity" from="0" to="1" dur="0.4s" begin="1.52s" fill="freeze"/>
  <animate attributeName="r" values="4.7;5.7;4.7" dur="4s" begin="1.92s" repeatCount="indefinite"/>
</circle>
<circle cx="435.2" cy="210.0" r="18" fill="url(#haloGrad)" opacity="0">
  <animate attributeName="opacity" values="0;0.6;0.3;0.6" dur="4s" begin="1.58s" repeatCount="indefinite"/>
  <animate attributeName="r" values="14;22;14" dur="4s" begin="1.58s" repeatCount="indefinite"/>
</circle>
<circle cx="435.2" cy="210.0" r="7.2" fill="#e8f4f7" stroke="#0d0d0d" stroke-width="1" filter="url(#glowMd)" opacity="0">
  <title>Jul 24
10 Contributions</title>
  <animate attributeName="opacity" from="0" to="1" dur="0.4s" begin="1.58s" fill="freeze"/>
  <animate attributeName="r" values="7.2;9.2;7.2" dur="3s" begin="1.98s" repeatCount="indefinite"/>
</circle>
<circle cx="461.7" cy="430.0" r="2.2" fill="#58A6B8" stroke="#0d0d0d" stroke-width="1" filter="url(#glowSm)" opacity="0">
  <title>Jul 25
0 Contributions</title>
  <animate attributeName="opacity" from="0" to="1" dur="0.4s" begin="1.64s" fill="freeze"/>
  <animate attributeName="r" values="2.2;3.2;2.2" dur="4s" begin="2.04s" repeatCount="indefinite"/>
</circle>
<circle cx="488.3" cy="430.0" r="2.2" fill="#58A6B8" stroke="#0d0d0d" stroke-width="1" filter="url(#glowSm)" opacity="0">
  <title>Jul 26
0 Contributions</title>
  <animate attributeName="opacity" from="0" to="1" dur="0.4s" begin="1.70s" fill="freeze"/>
  <animate attributeName="r" values="2.2;3.2;2.2" dur="4s" begin="2.10s" repeatCount="indefinite"/>
</circle>
<circle cx="514.8" cy="430.0" r="2.2" fill="#58A6B8" stroke="#0d0d0d" stroke-width="1" filter="url(#glowSm)" opacity="0">
  <title>Jul 27
0 Contributions</title>
  <animate attributeName="opacity" from="0" to="1" dur="0.4s" begin="1.76s" fill="freeze"/>
  <animate attributeName="r" values="2.2;3.2;2.2" dur="4s" begin="2.16s" repeatCount="indefinite"/>
</circle>
<circle cx="541.4" cy="430.0" r="2.2" fill="#58A6B8" stroke="#0d0d0d" stroke-width="1" filter="url(#glowSm)" opacity="0">
  <title>Jul 28
0 Contributions</title>
  <animate attributeName="opacity" from="0" to="1" dur="0.4s" begin="1.82s" fill="freeze"/>
  <animate attributeName="r" values="2.2;3.2;2.2" dur="4s" begin="2.22s" repeatCount="indefinite"/>
</circle>
<circle cx="567.9" cy="408.0" r="2.6" fill="#58A6B8" stroke="#0d0d0d" stroke-width="1" filter="url(#glowSm)" opacity="0">
  <title>Jul 29
1 Contribution</title>
  <animate attributeName="opacity" from="0" to="1" dur="0.4s" begin="1.88s" fill="freeze"/>
  <animate attributeName="r" values="2.6;3.6;2.6" dur="4s" begin="2.28s" repeatCount="indefinite"/>
</circle>
<circle cx="594.5" cy="430.0" r="2.2" fill="#58A6B8" stroke="#0d0d0d" stroke-width="1" filter="url(#glowSm)" opacity="0">
  <title>Jul 30
0 Contributions</title>
  <animate attributeName="opacity" from="0" to="1" dur="0.4s" begin="1.94s" fill="freeze"/>
  <animate attributeName="r" values="2.2;3.2;2.2" dur="4s" begin="2.34s" repeatCount="indefinite"/>
</circle>
<circle cx="621.0" cy="430.0" r="2.2" fill="#58A6B8" stroke="#0d0d0d" stroke-width="1" filter="url(#glowSm)" opacity="0">
  <title>Jul 31
0 Contributions</title>
  <animate attributeName="opacity" from="0" to="1" dur="0.4s" begin="2.00s" fill="freeze"/>
  <animate attributeName="r" values="2.2;3.2;2.2" dur="4s" begin="2.40s" repeatCount="indefinite"/>
</circle>
<circle cx="647.6" cy="430.0" r="2.2" fill="#58A6B8" stroke="#0d0d0d" stroke-width="1" filter="url(#glowSm)" opacity="0">
  <title>Aug 1
0 Contributions</title>
  <animate attributeName="opacity" from="0" to="1" dur="0.4s" begin="2.06s" fill="freeze"/>
  <animate attributeName="r" values="2.2;3.2;2.2" dur="4s" begin="2.46s" repeatCount="indefinite"/>
</circle>
<circle cx="674.1" cy="342.0" r="3.6" fill="#58A6B8" stroke="#0d0d0d" stroke-width="1" filter="url(#glowSm)" opacity="0">
  <title>Aug 2
4 Contributions</title>
  <animate attributeName="opacity" from="0" to="1" dur="0.4s" begin="2.12s" fill="freeze"/>
  <animate attributeName="r" values="3.6;4.6;3.6" dur="4s" begin="2.52s" repeatCount="indefinite"/>
</circle>
<circle cx="700.7" cy="430.0" r="2.2" fill="#58A6B8" stroke="#0d0d0d" stroke-width="1" filter="url(#glowSm)" opacity="0">
  <title>Aug 3
0 Contributions</title>
  <animate attributeName="opacity" from="0" to="1" dur="0.4s" begin="2.18s" fill="freeze"/>
  <animate attributeName="r" values="2.2;3.2;2.2" dur="4s" begin="2.58s" repeatCount="indefinite"/>
</circle>
<circle cx="727.2" cy="386.0" r="2.9" fill="#58A6B8" stroke="#0d0d0d" stroke-width="1" filter="url(#glowSm)" opacity="0">
  <title>Aug 4
2 Contributions</title>
  <animate attributeName="opacity" from="0" to="1" dur="0.4s" begin="2.24s" fill="freeze"/>
  <animate attributeName="r" values="2.9;3.9;2.9" dur="4s" begin="2.64s" repeatCount="indefinite"/>
</circle>
<circle cx="753.8" cy="430.0" r="2.2" fill="#58A6B8" stroke="#0d0d0d" stroke-width="1" filter="url(#glowSm)" opacity="0">
  <title>Aug 5
0 Contributions</title>
  <animate attributeName="opacity" from="0" to="1" dur="0.4s" begin="2.30s" fill="freeze"/>
  <animate attributeName="r" values="2.2;3.2;2.2" dur="4s" begin="2.70s" repeatCount="indefinite"/>
</circle>
<circle cx="780.3" cy="430.0" r="2.2" fill="#58A6B8" stroke="#0d0d0d" stroke-width="1" filter="url(#glowSm)" opacity="0">
  <title>Aug 6
0 Contributions</title>
  <animate attributeName="opacity" from="0" to="1" dur="0.4s" begin="2.36s" fill="freeze"/>
  <animate attributeName="r" values="2.2;3.2;2.2" dur="4s" begin="2.76s" repeatCount="indefinite"/>
</circle>
<circle cx="806.9" cy="386.0" r="2.9" fill="#58A6B8" stroke="#0d0d0d" stroke-width="1" filter="url(#glowSm)" opacity="0">
  <title>Aug 7
2 Contributions</title>
  <animate attributeName="opacity" from="0" to="1" dur="0.4s" begin="2.42s" fill="freeze"/>
  <animate attributeName="r" values="2.9;3.9;2.9" dur="4s" begin="2.82s" repeatCount="indefinite"/>
</circle>
<circle cx="833.4" cy="364.0" r="3.3" fill="#58A6B8" stroke="#0d0d0d" stroke-width="1" filter="url(#glowSm)" opacity="0">
  <title>Aug 8
3 Contributions</title>
  <animate attributeName="opacity" from="0" to="1" dur="0.4s" begin="2.48s" fill="freeze"/>
  <animate attributeName="r" values="3.3;4.3;3.3" dur="4s" begin="2.88s" repeatCount="indefinite"/>
</circle>
<circle cx="860.0" cy="430.0" r="2.2" fill="#58A6B8" stroke="#0d0d0d" stroke-width="1" filter="url(#glowSm)" opacity="0">
  <title>Aug 9
0 Contributions</title>
  <animate attributeName="opacity" from="0" to="1" dur="0.4s" begin="2.54s" fill="freeze"/>
  <animate attributeName="r" values="2.2;3.2;2.2" dur="4s" begin="2.94s" repeatCount="indefinite"/>
</circle>
<text x="90" y="466" text-anchor="start" font-family="Georgia,'Palatino Linotype',serif" font-size="10" fill="#5a7a80" letter-spacing="1.5">JUL</text>
<text x="860" y="466" text-anchor="end" font-family="Georgia,'Palatino Linotype',serif" font-size="10" fill="#5a7a80" letter-spacing="1.5">AUG</text>
<text x="450" y="522" text-anchor="middle" font-family="Georgia,'Palatino Linotype',serif" font-size="9" fill="#5a7a80" letter-spacing="4" opacity="0.5">LAST 30 DAYS OF DARK RITUALS</text>
</svg>