<svg xmlns="http://www.w3.org/2000/svg" viewBox="0 0 900 540" width="900" height="540">
<defs>
  <!-- Gradients -->
  <linearGradient id="areaFill" x1="0" y1="0" x2="0" y2="1">
    <stop offset="0%" stop-color="#58A6B8" stop-opacity="0.28"/>
    <stop offset="85%" stop-color="#58A6B8" stop-opacity="0.03"/>
    <stop offset="100%" stop-color="#58A6B8" stop-opacity="0"/>
  </linearGradient>
  <radialGradient id="haloGrad" cx="50%" cy="50%" r="50%">
    <stop offset="0%" stop-color="#58A6B8" stop-opacity="0.5"/>
    <stop offset="100%" stop-color="#58A6B8" stop-opacity="0"/>
  </radialGradient>
  <linearGradient id="frameFade" x1="0" y1="0" x2="1" y2="1">
    <stop offset="0%" stop-color="#58A6B8" stop-opacity="0.35"/>
    <stop offset="50%" stop-color="#58A6B8" stop-opacity="0.12"/>
    <stop offset="100%" stop-color="#58A6B8" stop-opacity="0.35"/>
  </linearGradient>
  <!-- Filters -->
  <filter id="glowSm" x="-50%" y="-50%" width="200%" height="200%">
    <feGaussianBlur stdDeviation="2.5" result="b"/><feMerge><feMergeNode in="b"/><feMergeNode in="SourceGraphic"/></feMerge>
  </filter>
  <filter id="glowMd" x="-50%" y="-50%" width="200%" height="200%">
    <feGaussianBlur stdDeviation="5" result="b"/><feMerge><feMergeNode in="b"/><feMergeNode in="SourceGraphic"/></feMerge>
  </filter>
  <filter id="glowLg" x="-80%" y="-80%" width="260%" height="260%">
    <feGaussianBlur stdDeviation="10" result="b"/><feMerge><feMergeNode in="b"/><feMergeNode in="SourceGraphic"/></feMerge>
  </filter>
  <filter id="cardShadow" x="-10%" y="-10%" width="120%" height="130%">
    <feGaussianBlur stdDeviation="6" result="b"/><feFlood flood-color="#58A6B8" flood-opacity="0.08" result="c"/>
    <feComposite in="c" in2="b" operator="in" result="s"/><feMerge><feMergeNode in="s"/><feMergeNode in="SourceGraphic"/></feMerge>
  </filter>
</defs>

<!-- Background -->
<rect width="900" height="540" fill="#0d0d0d" rx="16"/>
<line x1="90" y1="210.0" x2="860" y2="210.0" stroke="rgba(88,166,184,0.055)" stroke-width="0.7"/>
<line x1="90" y1="246.7" x2="860" y2="246.7" stroke="rgba(88,166,184,0.055)" stroke-width="0.7"/>
<line x1="90" y1="283.3" x2="860" y2="283.3" stroke="rgba(88,166,184,0.055)" stroke-width="0.7"/>
<line x1="90" y1="320.0" x2="860" y2="320.0" stroke="rgba(88,166,184,0.055)" stroke-width="0.7"/>
<line x1="90" y1="356.7" x2="860" y2="356.7" stroke="rgba(88,166,184,0.055)" stroke-width="0.7"/>
<line x1="90" y1="393.3" x2="860" y2="393.3" stroke="rgba(88,166,184,0.055)" stroke-width="0.7"/>
<line x1="90" y1="430.0" x2="860" y2="430.0" stroke="rgba(88,166,184,0.055)" stroke-width="0.7"/>
<line x1="90.0" y1="210" x2="90.0" y2="430" stroke="rgba(88,166,184,0.055)" stroke-width="0.5"/>
<line x1="222.8" y1="210" x2="222.8" y2="430" stroke="rgba(88,166,184,0.055)" stroke-width="0.5"/>
<line x1="355.5" y1="210" x2="355.5" y2="430" stroke="rgba(88,166,184,0.055)" stroke-width="0.5"/>
<line x1="488.3" y1="210" x2="488.3" y2="430" stroke="rgba(88,166,184,0.055)" stroke-width="0.5"/>
<line x1="621.0" y1="210" x2="621.0" y2="430" stroke="rgba(88,166,184,0.055)" stroke-width="0.5"/>
<line x1="753.8" y1="210" x2="753.8" y2="430" stroke="rgba(88,166,184,0.055)" stroke-width="0.5"/>
<circle cx="333.9" cy="330.3" r="0.8" fill="#58A6B8" opacity="0.111"><animate attributeName="opacity" values="0.111;0.244;0.111" dur="4.5s" begin="6.0s" repeatCount="indefinite"/></circle>
<circle cx="891.1" cy="121.6" r="0.8" fill="#58A6B8" opacity="0.125"><animate attributeName="opacity" values="0.125;0.275;0.125" dur="5.3s" begin="4.1s" repeatCount="indefinite"/></circle>
<circle cx="691.7" cy="278.3" r="0.6" fill="#58A6B8" opacity="0.123"><animate attributeName="opacity" values="0.123;0.271;0.123" dur="4.7s" begin="1.3s" repeatCount="indefinite"/></circle>
<circle cx="301.8" cy="474.0" r="1.1" fill="#58A6B8" opacity="0.090"><animate attributeName="opacity" values="0.090;0.198;0.090" dur="4.0s" begin="1.8s" repeatCount="indefinite"/></circle>
<circle cx="516.1" cy="90.1" r="0.9" fill="#58A6B8" opacity="0.041"><animate attributeName="opacity" values="0.041;0.090;0.041" dur="5.3s" begin="2.3s" repeatCount="indefinite"/></circle>
<circle cx="702.6" cy="389.2" r="1.1" fill="#58A6B8" opacity="0.070"><animate attributeName="opacity" values="0.070;0.154;0.070" dur="8.1s" begin="0.5s" repeatCount="indefinite"/></circle>
<circle cx="4.4" cy="312.2" r="0.6" fill="#58A6B8" opacity="0.050"><animate attributeName="opacity" values="0.050;0.110;0.050" dur="5.5s" begin="2.8s" repeatCount="indefinite"/></circle>
<circle cx="336.2" cy="501.0" r="0.8" fill="#58A6B8" opacity="0.145"><animate attributeName="opacity" values="0.145;0.319;0.145" dur="6.3s" begin="1.2s" repeatCount="indefinite"/></circle>
<circle cx="191.4" cy="428.1" r="0.8" fill="#58A6B8" opacity="0.046"><animate attributeName="opacity" values="0.046;0.101;0.046" dur="5.3s" begin="2.7s" repeatCount="indefinite"/></circle>
<circle cx="264.8" cy="178.4" r="0.4" fill="#58A6B8" opacity="0.073"><animate attributeName="opacity" values="0.073;0.161;0.073" dur="5.4s" begin="0.1s" repeatCount="indefinite"/></circle>
<circle cx="487.9" cy="491.8" r="0.4" fill="#58A6B8" opacity="0.083"><animate attributeName="opacity" values="0.083;0.183;0.083" dur="7.5s" begin="4.9s" repeatCount="indefinite"/></circle>
<circle cx="154.3" cy="534.5" r="0.8" fill="#58A6B8" opacity="0.110"><animate attributeName="opacity" values="0.110;0.242;0.110" dur="5.6s" begin="5.2s" repeatCount="indefinite"/></circle>
<circle cx="691.1" cy="172.2" r="0.9" fill="#58A6B8" opacity="0.047"><animate attributeName="opacity" values="0.047;0.103;0.047" dur="4.7s" begin="3.4s" repeatCount="indefinite"/></circle>
<circle cx="24.7" cy="294.5" r="1.2" fill="#58A6B8" opacity="0.148"><animate attributeName="opacity" values="0.148;0.326;0.148" dur="4.7s" begin="5.8s" repeatCount="indefinite"/></circle>
<circle cx="894.2" cy="150.7" r="0.4" fill="#58A6B8" opacity="0.103"><animate attributeName="opacity" values="0.103;0.227;0.103" dur="8.3s" begin="1.4s" repeatCount="indefinite"/></circle>
<circle cx="838.9" cy="197.2" r="1.2" fill="#58A6B8" opacity="0.148"><animate attributeName="opacity" values="0.148;0.326;0.148" dur="4.3s" begin="1.0s" repeatCount="indefinite"/></circle>
<circle cx="625.1" cy="108.2" r="0.3" fill="#58A6B8" opacity="0.044"><animate attributeName="opacity" values="0.044;0.097;0.044" dur="7.8s" begin="2.4s" repeatCount="indefinite"/></circle>
<circle cx="739.8" cy="180.4" r="0.9" fill="#58A6B8" opacity="0.095"><animate attributeName="opacity" values="0.095;0.209;0.095" dur="4.5s" begin="3.2s" repeatCount="indefinite"/></circle>
<circle cx="632.7" cy="370.2" r="1.2" fill="#58A6B8" opacity="0.083"><animate attributeName="opacity" values="0.083;0.183;0.083" dur="6.4s" begin="4.4s" repeatCount="indefinite"/></circle>
<circle cx="769.7" cy="142.3" r="0.7" fill="#58A6B8" opacity="0.112"><animate attributeName="opacity" values="0.112;0.246;0.112" dur="6.4s" begin="2.7s" repeatCount="indefinite"/></circle>
<circle cx="858.4" cy="53.9" r="1.3" fill="#58A6B8" opacity="0.098"><animate attributeName="opacity" values="0.098;0.216;0.098" dur="7.7s" begin="2.2s" repeatCount="indefinite"/></circle>
<circle cx="794.4" cy="469.0" r="0.7" fill="#58A6B8" opacity="0.092"><animate attributeName="opacity" values="0.092;0.202;0.092" dur="5.7s" begin="2.6s" repeatCount="indefinite"/></circle>
<circle cx="530.2" cy="230.1" r="1.3" fill="#58A6B8" opacity="0.072"><animate attributeName="opacity" values="0.072;0.158;0.072" dur="6.8s" begin="3.2s" repeatCount="indefinite"/></circle>
<circle cx="339.3" cy="192.3" r="0.5" fill="#58A6B8" opacity="0.041"><animate attributeName="opacity" values="0.041;0.090;0.041" dur="3.6s" begin="3.1s" repeatCount="indefinite"/></circle>
<circle cx="818.8" cy="90.1" r="0.8" fill="#58A6B8" opacity="0.133"><animate attributeName="opacity" values="0.133;0.293;0.133" dur="4.3s" begin="3.0s" repeatCount="indefinite"/></circle>
<circle cx="111.1" cy="339.1" r="1.1" fill="#58A6B8" opacity="0.097"><animate attributeName="opacity" values="0.097;0.213;0.097" dur="3.8s" begin="4.0s" repeatCount="indefinite"/></circle>
<circle cx="596.5" cy="491.3" r="0.8" fill="#58A6B8" opacity="0.045"><animate attributeName="opacity" values="0.045;0.099;0.045" dur="4.7s" begin="5.8s" repeatCount="indefinite"/></circle>
<circle cx="856.3" cy="434.6" r="0.6" fill="#58A6B8" opacity="0.070"><animate attributeName="opacity" values="0.070;0.154;0.070" dur="3.9s" begin="3.6s" repeatCount="indefinite"/></circle>
<circle cx="460.3" cy="113.6" r="0.6" fill="#58A6B8" opacity="0.152"><animate attributeName="opacity" values="0.152;0.334;0.152" dur="8.2s" begin="2.5s" repeatCount="indefinite"/></circle>
<circle cx="412.3" cy="83.5" r="1.2" fill="#58A6B8" opacity="0.108"><animate attributeName="opacity" values="0.108;0.238;0.108" dur="7.2s" begin="4.9s" repeatCount="indefinite"/></circle>
<circle cx="429.3" cy="165.5" r="0.4" fill="#58A6B8" opacity="0.145"><animate attributeName="opacity" values="0.145;0.319;0.145" dur="4.4s" begin="2.3s" repeatCount="indefinite"/></circle>
<circle cx="335.8" cy="434.5" r="1.3" fill="#58A6B8" opacity="0.132"><animate attributeName="opacity" values="0.132;0.290;0.132" dur="5.6s" begin="0.7s" repeatCount="indefinite"/></circle>
<circle cx="382.9" cy="75.2" r="0.8" fill="#58A6B8" opacity="0.102"><animate attributeName="opacity" values="0.102;0.224;0.102" dur="6.7s" begin="5.1s" repeatCount="indefinite"/></circle>
<circle cx="466.1" cy="215.8" r="0.9" fill="#58A6B8" opacity="0.061"><animate attributeName="opacity" values="0.061;0.134;0.061" dur="5.8s" begin="0.5s" repeatCount="indefinite"/></circle>
<circle cx="727.6" cy="471.8" r="1.4" fill="#58A6B8" opacity="0.138"><animate attributeName="opacity" values="0.138;0.304;0.138" dur="5.1s" begin="5.7s" repeatCount="indefinite"/></circle>
<circle cx="588.7" cy="112.9" r="0.8" fill="#58A6B8" opacity="0.156"><animate attributeName="opacity" values="0.156;0.343;0.156" dur="4.7s" begin="0.1s" repeatCount="indefinite"/></circle>
<circle cx="499.8" cy="20.1" r="1.0" fill="#58A6B8" opacity="0.144"><animate attributeName="opacity" values="0.144;0.317;0.144" dur="6.5s" begin="4.5s" repeatCount="indefinite"/></circle>
<circle cx="591.8" cy="239.9" r="1.1" fill="#58A6B8" opacity="0.121"><animate attributeName="opacity" values="0.121;0.266;0.121" dur="8.4s" begin="5.1s" repeatCount="indefinite"/></circle>
<circle cx="102.2" cy="379.1" r="0.7" fill="#58A6B8" opacity="0.081"><animate attributeName="opacity" values="0.081;0.178;0.081" dur="6.7s" begin="2.4s" repeatCount="indefinite"/></circle>
<circle cx="876.4" cy="493.5" r="0.5" fill="#58A6B8" opacity="0.111"><animate attributeName="opacity" values="0.111;0.244;0.111" dur="5.5s" begin="4.3s" repeatCount="indefinite"/></circle>
<circle cx="421.8" cy="523.2" r="0.9" fill="#58A6B8" opacity="0.095"><animate attributeName="opacity" values="0.095;0.209;0.095" dur="8.4s" begin="2.7s" repeatCount="indefinite"/></circle>
<circle cx="471.5" cy="329.5" r="0.7" fill="#58A6B8" opacity="0.082"><animate attributeName="opacity" values="0.082;0.180;0.082" dur="7.1s" begin="4.8s" repeatCount="indefinite"/></circle>
<circle cx="615.2" cy="205.7" r="1.0" fill="#58A6B8" opacity="0.109"><animate attributeName="opacity" values="0.109;0.240;0.109" dur="5.7s" begin="5.6s" repeatCount="indefinite"/></circle>
<circle cx="122.7" cy="80.4" r="1.0" fill="#58A6B8" opacity="0.089"><animate attributeName="opacity" values="0.089;0.196;0.089" dur="5.7s" begin="4.0s" repeatCount="indefinite"/></circle>
<circle cx="264.2" cy="213.5" r="0.6" fill="#58A6B8" opacity="0.115"><animate attributeName="opacity" values="0.115;0.253;0.115" dur="7.1s" begin="5.1s" repeatCount="indefinite"/></circle>
<circle cx="4.7" cy="521.7" r="1.1" fill="#58A6B8" opacity="0.071"><animate attributeName="opacity" values="0.071;0.156;0.071" dur="7.9s" begin="1.2s" repeatCount="indefinite"/></circle>
<circle cx="350.8" cy="370.6" r="1.2" fill="#58A6B8" opacity="0.085"><animate attributeName="opacity" values="0.085;0.187;0.085" dur="8.1s" begin="2.8s" repeatCount="indefinite"/></circle>
<circle cx="759.7" cy="17.0" r="0.6" fill="#58A6B8" opacity="0.101"><animate attributeName="opacity" values="0.101;0.222;0.101" dur="7.7s" begin="0.1s" repeatCount="indefinite"/></circle>
<circle cx="341.6" cy="496.0" r="1.0" fill="#58A6B8" opacity="0.127"><animate attributeName="opacity" values="0.127;0.279;0.127" dur="8.0s" begin="5.1s" repeatCount="indefinite"/></circle>
<circle cx="834.5" cy="92.1" r="1.2" fill="#58A6B8" opacity="0.064"><animate attributeName="opacity" values="0.064;0.141;0.064" dur="7.8s" begin="4.5s" repeatCount="indefinite"/></circle>
<circle cx="450.5" cy="384.0" r="0.4" fill="#58A6B8" opacity="0.154"><animate attributeName="opacity" values="0.154;0.339;0.154" dur="8.3s" begin="1.5s" repeatCount="indefinite"/></circle>
<circle cx="470.7" cy="528.3" r="0.6" fill="#58A6B8" opacity="0.088"><animate attributeName="opacity" values="0.088;0.194;0.088" dur="3.8s" begin="4.3s" repeatCount="indefinite"/></circle>
<circle cx="461.4" cy="450.6" r="0.8" fill="#58A6B8" opacity="0.059"><animate attributeName="opacity" values="0.059;0.130;0.059" dur="8.0s" begin="5.0s" repeatCount="indefinite"/></circle>
<circle cx="476.5" cy="466.1" r="1.1" fill="#58A6B8" opacity="0.100"><animate attributeName="opacity" values="0.100;0.220;0.100" dur="6.7s" begin="4.3s" repeatCount="indefinite"/></circle>
<circle cx="626.6" cy="511.7" r="1.3" fill="#58A6B8" opacity="0.075"><animate attributeName="opacity" values="0.075;0.165;0.075" dur="7.1s" begin="4.3s" repeatCount="indefinite"/></circle>
<g transform="translate(604.8,414.2) rotate(45)" opacity="0.083"><rect x="-1.8" y="-1.8" width="3.6" height="3.6" fill="#58A6B8"/><animate attributeName="opacity" values="0.083;0.208;0.083" dur="9.7s" begin="2.4s" repeatCount="indefinite"/></g>
<g transform="translate(548.2,294.9) rotate(45)" opacity="0.088"><rect x="-1.7" y="-1.7" width="3.3" height="3.3" fill="#58A6B8"/><animate attributeName="opacity" values="0.088;0.220;0.088" dur="7.4s" begin="3.3s" repeatCount="indefinite"/></g>
<g transform="translate(819.4,391.5) rotate(45)" opacity="0.080"><rect x="-1.6" y="-1.6" width="3.2" height="3.2" fill="#58A6B8"/><animate attributeName="opacity" values="0.080;0.200;0.080" dur="9.0s" begin="0.7s" repeatCount="indefinite"/></g>
<g transform="translate(615.5,232.7) rotate(45)" opacity="0.077"><rect x="-1.3" y="-1.3" width="2.5" height="2.5" fill="#58A6B8"/><animate attributeName="opacity" values="0.077;0.193;0.077" dur="6.7s" begin="4.7s" repeatCount="indefinite"/></g>
<g transform="translate(268.4,190.3) rotate(45)" opacity="0.069"><rect x="-1.5" y="-1.5" width="3.0" height="3.0" fill="#58A6B8"/><animate attributeName="opacity" values="0.069;0.173;0.069" dur="9.2s" begin="2.0s" repeatCount="indefinite"/></g>
<g transform="translate(566.6,498.6) rotate(45)" opacity="0.064"><rect x="-2.0" y="-2.0" width="4.0" height="4.0" fill="#58A6B8"/><animate attributeName="opacity" values="0.064;0.160;0.064" dur="8.5s" begin="1.0s" repeatCount="indefinite"/></g>
<g transform="translate(642.7,197.0) rotate(45)" opacity="0.073"><rect x="-1.6" y="-1.6" width="3.2" height="3.2" fill="#58A6B8"/><animate attributeName="opacity" values="0.073;0.182;0.073" dur="9.4s" begin="2.3s" repeatCount="indefinite"/></g>
<g transform="translate(287.4,48.2) rotate(45)" opacity="0.100"><rect x="-1.6" y="-1.6" width="3.3" height="3.3" fill="#58A6B8"/><animate attributeName="opacity" values="0.100;0.250;0.100" dur="9.4s" begin="1.3s" repeatCount="indefinite"/></g>
<g transform="translate(18,18) scale(1,1)"><path d="M0 25 L0 6 Q0 0 6 0 L25 0" fill="none" stroke="#58A6B8" stroke-width="1.3" opacity="0.35"/><circle cx="0" cy="0" r="1.8" fill="#58A6B8" opacity="0.4"/><path d="M0 12 L5 12" fill="none" stroke="#58A6B8" stroke-width="0.6" opacity="0.2"/><path d="M12 0 L12 5" fill="none" stroke="#58A6B8" stroke-width="0.6" opacity="0.2"/></g><g transform="translate(882,18) scale(-1,1)"><path d="M0 25 L0 6 Q0 0 6 0 L25 0" fill="none" stroke="#58A6B8" stroke-width="1.3" opacity="0.35"/><circle cx="0" cy="0" r="1.8" fill="#58A6B8" opacity="0.4"/><path d="M0 12 L5 12" fill="none" stroke="#58A6B8" stroke-width="0.6" opacity="0.2"/><path d="M12 0 L12 5" fill="none" stroke="#58A6B8" stroke-width="0.6" opacity="0.2"/></g><g transform="translate(18,522) scale(1,-1)"><path d="M0 25 L0 6 Q0 0 6 0 L25 0" fill="none" stroke="#58A6B8" stroke-width="1.3" opacity="0.35"/><circle cx="0" cy="0" r="1.8" fill="#58A6B8" opacity="0.4"/><path d="M0 12 L5 12" fill="none" stroke="#58A6B8" stroke-width="0.6" opacity="0.2"/><path d="M12 0 L12 5" fill="none" stroke="#58A6B8" stroke-width="0.6" opacity="0.2"/></g><g transform="translate(882,522) scale(-1,-1)"><path d="M0 25 L0 6 Q0 0 6 0 L25 0" fill="none" stroke="#58A6B8" stroke-width="1.3" opacity="0.35"/><circle cx="0" cy="0" r="1.8" fill="#58A6B8" opacity="0.4"/><path d="M0 12 L5 12" fill="none" stroke="#58A6B8" stroke-width="0.6" opacity="0.2"/><path d="M12 0 L12 5" fill="none" stroke="#58A6B8" stroke-width="0.6" opacity="0.2"/></g>
<rect x="10" y="10" width="880" height="520" rx="12" fill="none" stroke="url(#frameFade)" stroke-width="1"/>
<text x="450" y="50" text-anchor="middle" font-family="Georgia,'Palatino Linotype','Book Antiqua',Palatino,serif" font-size="22" font-weight="bold" fill="#e8f4f7" letter-spacing="8" filter="url(#glowMd)">✧ THE COMMIT COVEN ✧</text>
<line x1="310" y1="62" x2="590" y2="62" stroke="#58A6B8" stroke-width="0.5" opacity="0.25"/>
<g filter="url(#cardShadow)"><rect x="70" y="80" width="240" height="78" rx="10" fill="rgba(88,166,184,0.05)" stroke="rgba(88,166,184,0.22)" stroke-width="0.8"/><text x="190" y="110" text-anchor="middle" font-family="Georgia,'Palatino Linotype',serif" font-size="11" fill="#5a7a80" letter-spacing="3" text-transform="uppercase">LONGEST STREAK</text><text x="190" y="136" text-anchor="middle" font-family="Georgia,'Palatino Linotype',serif" font-size="20" fill="#e8f4f7" font-weight="bold" filter="url(#glowSm)">12 Nights</text></g>
<g filter="url(#cardShadow)"><rect x="330" y="80" width="240" height="78" rx="10" fill="rgba(88,166,184,0.05)" stroke="rgba(88,166,184,0.22)" stroke-width="0.8"/><text x="450" y="110" text-anchor="middle" font-family="Georgia,'Palatino Linotype',serif" font-size="11" fill="#5a7a80" letter-spacing="3" text-transform="uppercase">CURRENT RITUAL</text><text x="450" y="136" text-anchor="middle" font-family="Georgia,'Palatino Linotype',serif" font-size="20" fill="#e8f4f7" font-weight="bold" filter="url(#glowSm)">1 Nights</text></g>
<g filter="url(#cardShadow)"><rect x="590" y="80" width="240" height="78" rx="10" fill="rgba(88,166,184,0.05)" stroke="rgba(88,166,184,0.22)" stroke-width="0.8"/><text x="710" y="110" text-anchor="middle" font-family="Georgia,'Palatino Linotype',serif" font-size="11" fill="#5a7a80" letter-spacing="3" text-transform="uppercase">TOTAL OFFERINGS</text><text x="710" y="136" text-anchor="middle" font-family="Georgia,'Palatino Linotype',serif" font-size="20" fill="#e8f4f7" font-weight="bold" filter="url(#glowSm)">196</text></g>
<text x="80" y="434.0" text-anchor="end" font-family="'Courier New',monospace" font-size="10" fill="#5a7a80">0</text>
<line x1="86" y1="430.0" x2="90" y2="430.0" stroke="#5a7a80" stroke-width="0.5"/>
<text x="80" y="390.0" text-anchor="end" font-family="'Courier New',monospace" font-size="10" fill="#5a7a80">5</text>
<line x1="86" y1="386.0" x2="90" y2="386.0" stroke="#5a7a80" stroke-width="0.5"/>
<text x="80" y="346.0" text-anchor="end" font-family="'Courier New',monospace" font-size="10" fill="#5a7a80">10</text>
<line x1="86" y1="342.0" x2="90" y2="342.0" stroke="#5a7a80" stroke-width="0.5"/>
<text x="80" y="302.0" text-anchor="end" font-family="'Courier New',monospace" font-size="10" fill="#5a7a80">15</text>
<line x1="86" y1="298.0" x2="90" y2="298.0" stroke="#5a7a80" stroke-width="0.5"/>
<text x="80" y="258.0" text-anchor="end" font-family="'Courier New',monospace" font-size="10" fill="#5a7a80">20</text>
<line x1="86" y1="254.0" x2="90" y2="254.0" stroke="#5a7a80" stroke-width="0.5"/>
<text x="80" y="214.0" text-anchor="end" font-family="'Courier New',monospace" font-size="10" fill="#5a7a80">25</text>
<line x1="86" y1="210.0" x2="90" y2="210.0" stroke="#5a7a80" stroke-width="0.5"/>
<text x="90.0" y="450" text-anchor="middle" font-family="'Courier New',monospace" font-size="10" fill="#5a7a80">17</text>
<text x="196.2" y="450" text-anchor="middle" font-family="'Courier New',monospace" font-size="10" fill="#5a7a80">21</text>
<text x="302.4" y="450" text-anchor="middle" font-family="'Courier New',monospace" font-size="10" fill="#5a7a80">25</text>
<text x="408.6" y="450" text-anchor="middle" font-family="'Courier New',monospace" font-size="10" fill="#5a7a80">29</text>
<text x="514.8" y="450" text-anchor="middle" font-family="'Courier New',monospace" font-size="10" fill="#5a7a80">3</text>
<text x="621.0" y="450" text-anchor="middle" font-family="'Courier New',monospace" font-size="10" fill="#5a7a80">7</text>
<text x="727.2" y="450" text-anchor="middle" font-family="'Courier New',monospace" font-size="10" fill="#5a7a80">11</text>
<text x="833.4" y="450" text-anchor="middle" font-family="'Courier New',monospace" font-size="10" fill="#5a7a80">15</text>
<text x="860.0" y="450" text-anchor="middle" font-family="'Courier New',monospace" font-size="10" fill="#5a7a80">16</text>
<line x1="90" y1="210" x2="90" y2="430" stroke="#58A6B8" stroke-width="0.5" opacity="0.2"/>
<line x1="90" y1="430" x2="860" y2="430" stroke="#58A6B8" stroke-width="0.5" opacity="0.2"/>
<path d="M90.0 342.0 C93.5 340.8,109.5 347.3,116.6 333.2 C123.6 319.1,136.0 228.2,143.1 236.4 C150.2 244.6,162.6 370.2,169.7 394.8 C176.7 419.4,189.1 418.9,196.2 421.2 C203.3 423.5,215.7 417.1,222.8 412.4 C229.8 407.7,242.2 387.2,249.3 386.0 C256.4 384.8,268.8 398.9,275.9 403.6 C282.9 408.3,295.3 417.7,302.4 421.2 C309.5 424.7,321.9 428.8,329.0 430.0 C336.0 431.2,348.4 430.0,355.5 430.0 C362.6 430.0,375.0 430.0,382.1 430.0 C389.1 430.0,401.5 435.9,408.6 430.0 C415.7 424.1,428.1 393.0,435.2 386.0 C442.3 379.0,454.6 381.9,461.7 377.2 C468.8 372.5,481.2 344.9,488.3 350.8 C495.4 356.7,507.7 410.6,514.8 421.2 C521.9 431.8,534.3 430.0,541.4 430.0 C548.5 430.0,560.9 421.2,567.9 421.2 C575.0 421.2,587.4 432.3,594.5 430.0 C601.6 427.7,614.0 404.8,621.0 403.6 C628.1 402.4,640.5 417.7,647.6 421.2 C654.7 424.7,667.1 428.8,674.1 430.0 C681.2 431.2,693.6 430.0,700.7 430.0 C707.8 430.0,720.2 430.0,727.2 430.0 C734.3 430.0,746.7 431.2,753.8 430.0 C760.9 428.8,773.3 421.2,780.3 421.2 C787.4 421.2,799.8 430.0,806.9 430.0 C814.0 430.0,826.4 421.2,833.4 421.2 C840.5 421.2,856.5 428.8,860.0 430.0 L860.0 430 L90.0 430 Z" fill="url(#areaFill)" opacity="0.9">
  <animate attributeName="opacity" values="0;0.9" dur="2s" fill="freeze"/>
</path>
<path d="M90.0 342.0 C93.5 340.8,109.5 347.3,116.6 333.2 C123.6 319.1,136.0 228.2,143.1 236.4 C150.2 244.6,162.6 370.2,169.7 394.8 C176.7 419.4,189.1 418.9,196.2 421.2 C203.3 423.5,215.7 417.1,222.8 412.4 C229.8 407.7,242.2 387.2,249.3 386.0 C256.4 384.8,268.8 398.9,275.9 403.6 C282.9 408.3,295.3 417.7,302.4 421.2 C309.5 424.7,321.9 428.8,329.0 430.0 C336.0 431.2,348.4 430.0,355.5 430.0 C362.6 430.0,375.0 430.0,382.1 430.0 C389.1 430.0,401.5 435.9,408.6 430.0 C415.7 424.1,428.1 393.0,435.2 386.0 C442.3 379.0,454.6 381.9,461.7 377.2 C468.8 372.5,481.2 344.9,488.3 350.8 C495.4 356.7,507.7 410.6,514.8 421.2 C521.9 431.8,534.3 430.0,541.4 430.0 C548.5 430.0,560.9 421.2,567.9 421.2 C575.0 421.2,587.4 432.3,594.5 430.0 C601.6 427.7,614.0 404.8,621.0 403.6 C628.1 402.4,640.5 417.7,647.6 421.2 C654.7 424.7,667.1 428.8,674.1 430.0 C681.2 431.2,693.6 430.0,700.7 430.0 C707.8 430.0,720.2 430.0,727.2 430.0 C734.3 430.0,746.7 431.2,753.8 430.0 C760.9 428.8,773.3 421.2,780.3 421.2 C787.4 421.2,799.8 430.0,806.9 430.0 C814.0 430.0,826.4 421.2,833.4 421.2 C840.5 421.2,856.5 428.8,860.0 430.0" fill="none" stroke="#58A6B8" stroke-width="4" opacity="0.15" filter="url(#glowLg)" stroke-linecap="round" stroke-linejoin="round"/>
<path d="M90.0 342.0 C93.5 340.8,109.5 347.3,116.6 333.2 C123.6 319.1,136.0 228.2,143.1 236.4 C150.2 244.6,162.6 370.2,169.7 394.8 C176.7 419.4,189.1 418.9,196.2 421.2 C203.3 423.5,215.7 417.1,222.8 412.4 C229.8 407.7,242.2 387.2,249.3 386.0 C256.4 384.8,268.8 398.9,275.9 403.6 C282.9 408.3,295.3 417.7,302.4 421.2 C309.5 424.7,321.9 428.8,329.0 430.0 C336.0 431.2,348.4 430.0,355.5 430.0 C362.6 430.0,375.0 430.0,382.1 430.0 C389.1 430.0,401.5 435.9,408.6 430.0 C415.7 424.1,428.1 393.0,435.2 386.0 C442.3 379.0,454.6 381.9,461.7 377.2 C468.8 372.5,481.2 344.9,488.3 350.8 C495.4 356.7,507.7 410.6,514.8 421.2 C521.9 431.8,534.3 430.0,541.4 430.0 C548.5 430.0,560.9 421.2,567.9 421.2 C575.0 421.2,587.4 432.3,594.5 430.0 C601.6 427.7,614.0 404.8,621.0 403.6 C628.1 402.4,640.5 417.7,647.6 421.2 C654.7 424.7,667.1 428.8,674.1 430.0 C681.2 431.2,693.6 430.0,700.7 430.0 C707.8 430.0,720.2 430.0,727.2 430.0 C734.3 430.0,746.7 431.2,753.8 430.0 C760.9 428.8,773.3 421.2,780.3 421.2 C787.4 421.2,799.8 430.0,806.9 430.0 C814.0 430.0,826.4 421.2,833.4 421.2 C840.5 421.2,856.5 428.8,860.0 430.0" fill="none" stroke="#58A6B8" stroke-width="2.2" stroke-linecap="round" stroke-linejoin="round" filter="url(#glowSm)" stroke-dasharray="1467" stroke-dashoffset="1467">
  <animate attributeName="stroke-dashoffset" from="1467" to="0" dur="2.5s" fill="freeze" calcMode="spline" keySplines="0.4 0 0.2 1"/>
  <animate attributeName="opacity" values="0.7;1;0.85;1" dur="6s" begin="2.5s" repeatCount="indefinite"/>
</path>
<circle cx="90.0" cy="342.0" r="3.8" fill="#58A6B8" stroke="#0d0d0d" stroke-width="1" filter="url(#glowSm)" opacity="0">
  <title>Jun 17
10 Contributions</title>
  <animate attributeName="opacity" from="0" to="1" dur="0.4s" begin="0.80s" fill="freeze"/>
  <animate attributeName="r" values="3.8;4.8;3.8" dur="4s" begin="1.20s" repeatCount="indefinite"/>
</circle>
<circle cx="116.6" cy="333.2" r="4.0" fill="#58A6B8" stroke="#0d0d0d" stroke-width="1" filter="url(#glowSm)" opacity="0">
  <title>Jun 18
11 Contributions</title>
  <animate attributeName="opacity" from="0" to="1" dur="0.4s" begin="0.86s" fill="freeze"/>
  <animate attributeName="r" values="4.0;5.0;4.0" dur="4s" begin="1.26s" repeatCount="indefinite"/>
</circle>
<circle cx="143.1" cy="236.4" r="18" fill="url(#haloGrad)" opacity="0">
  <animate attributeName="opacity" values="0;0.6;0.3;0.6" dur="4s" begin="0.92s" repeatCount="indefinite"/>
  <animate attributeName="r" values="14;22;14" dur="4s" begin="0.92s" repeatCount="indefinite"/>
</circle>
<circle cx="143.1" cy="236.4" r="7.2" fill="#e8f4f7" stroke="#0d0d0d" stroke-width="1" filter="url(#glowMd)" opacity="0">
  <title>Jun 19
22 Contributions</title>
  <animate attributeName="opacity" from="0" to="1" dur="0.4s" begin="0.92s" fill="freeze"/>
  <animate attributeName="r" values="7.2;9.2;7.2" dur="3s" begin="1.32s" repeatCount="indefinite"/>
</circle>
<circle cx="169.7" cy="394.8" r="2.8" fill="#58A6B8" stroke="#0d0d0d" stroke-width="1" filter="url(#glowSm)" opacity="0">
  <title>Jun 20
4 Contributions</title>
  <animate attributeName="opacity" from="0" to="1" dur="0.4s" begin="0.98s" fill="freeze"/>
  <animate attributeName="r" values="2.8;3.8;2.8" dur="4s" begin="1.38s" repeatCount="indefinite"/>
</circle>
<circle cx="196.2" cy="421.2" r="2.4" fill="#58A6B8" stroke="#0d0d0d" stroke-width="1" filter="url(#glowSm)" opacity="0">
  <title>Jun 21
1 Contribution</title>
  <animate attributeName="opacity" from="0" to="1" dur="0.4s" begin="1.04s" fill="freeze"/>
  <animate attributeName="r" values="2.4;3.4;2.4" dur="4s" begin="1.44s" repeatCount="indefinite"/>
</circle>
<circle cx="222.8" cy="412.4" r="2.5" fill="#58A6B8" stroke="#0d0d0d" stroke-width="1" filter="url(#glowSm)" opacity="0">
  <title>Jun 22
2 Contributions</title>
  <animate attributeName="opacity" from="0" to="1" dur="0.4s" begin="1.10s" fill="freeze"/>
  <animate attributeName="r" values="2.5;3.5;2.5" dur="4s" begin="1.50s" repeatCount="indefinite"/>
</circle>
<circle cx="249.3" cy="386.0" r="3.0" fill="#58A6B8" stroke="#0d0d0d" stroke-width="1" filter="url(#glowSm)" opacity="0">
  <title>Jun 23
5 Contributions</title>
  <animate attributeName="opacity" from="0" to="1" dur="0.4s" begin="1.16s" fill="freeze"/>
  <animate attributeName="r" values="3.0;4.0;3.0" dur="4s" begin="1.56s" repeatCount="indefinite"/>
</circle>
<circle cx="275.9" cy="403.6" r="2.7" fill="#58A6B8" stroke="#0d0d0d" stroke-width="1" filter="url(#glowSm)" opacity="0">
  <title>Jun 24
3 Contributions</title>
  <animate attributeName="opacity" from="0" to="1" dur="0.4s" begin="1.22s" fill="freeze"/>
  <animate attributeName="r" values="2.7;3.7;2.7" dur="4s" begin="1.62s" repeatCount="indefinite"/>
</circle>
<circle cx="302.4" cy="421.2" r="2.4" fill="#58A6B8" stroke="#0d0d0d" stroke-width="1" filter="url(#glowSm)" opacity="0">
  <title>Jun 25
1 Contribution</title>
  <animate attributeName="opacity" from="0" to="1" dur="0.4s" begin="1.28s" fill="freeze"/>
  <animate attributeName="r" values="2.4;3.4;2.4" dur="4s" begin="1.68s" repeatCount="indefinite"/>
</circle>
<circle cx="329.0" cy="430.0" r="2.2" fill="#58A6B8" stroke="#0d0d0d" stroke-width="1" filter="url(#glowSm)" opacity="0">
  <title>Jun 26
0 Contributions</title>
  <animate attributeName="opacity" from="0" to="1" dur="0.4s" begin="1.34s" fill="freeze"/>
  <animate attributeName="r" values="2.2;3.2;2.2" dur="4s" begin="1.74s" repeatCount="indefinite"/>
</circle>
<circle cx="355.5" cy="430.0" r="2.2" fill="#58A6B8" stroke="#0d0d0d" stroke-width="1" filter="url(#glowSm)" opacity="0">
  <title>Jun 27
0 Contributions</title>
  <animate attributeName="opacity" from="0" to="1" dur="0.4s" begin="1.40s" fill="freeze"/>
  <animate attributeName="r" values="2.2;3.2;2.2" dur="4s" begin="1.80s" repeatCount="indefinite"/>
</circle>
<circle cx="382.1" cy="430.0" r="2.2" fill="#58A6B8" stroke="#0d0d0d" stroke-width="1" filter="url(#glowSm)" opacity="0">
  <title>Jun 28
0 Contributions</title>
  <animate attributeName="opacity" from="0" to="1" dur="0.4s" begin="1.46s" fill="freeze"/>
  <animate attributeName="r" values="2.2;3.2;2.2" dur="4s" begin="1.86s" repeatCount="indefinite"/>
</circle>
<circle cx="408.6" cy="430.0" r="2.2" fill="#58A6B8" stroke="#0d0d0d" stroke-width="1" filter="url(#glowSm)" opacity="0">
  <title>Jun 29
0 Contributions</title>
  <animate attributeName="opacity" from="0" to="1" dur="0.4s" begin="1.52s" fill="freeze"/>
  <animate attributeName="r" values="2.2;3.2;2.2" dur="4s" begin="1.92s" repeatCount="indefinite"/>
</circle>
<circle cx="435.2" cy="386.0" r="3.0" fill="#58A6B8" stroke="#0d0d0d" stroke-width="1" filter="url(#glowSm)" opacity="0">
  <title>Jun 30
5 Contributions</title>
  <animate attributeName="opacity" from="0" to="1" dur="0.4s" begin="1.58s" fill="freeze"/>
  <animate attributeName="r" values="3.0;4.0;3.0" dur="4s" begin="1.98s" repeatCount="indefinite"/>
</circle>
<circle cx="461.7" cy="377.2" r="3.2" fill="#58A6B8" stroke="#0d0d0d" stroke-width="1" filter="url(#glowSm)" opacity="0">
  <title>Jul 1
6 Contributions</title>
  <animate attributeName="opacity" from="0" to="1" dur="0.4s" begin="1.64s" fill="freeze"/>
  <animate attributeName="r" values="3.2;4.2;3.2" dur="4s" begin="2.04s" repeatCount="indefinite"/>
</circle>
<circle cx="488.3" cy="350.8" r="3.6" fill="#58A6B8" stroke="#0d0d0d" stroke-width="1" filter="url(#glowSm)" opacity="0">
  <title>Jul 2
9 Contributions</title>
  <animate attributeName="opacity" from="0" to="1" dur="0.4s" begin="1.70s" fill="freeze"/>
  <animate attributeName="r" values="3.6;4.6;3.6" dur="4s" begin="2.10s" repeatCount="indefinite"/>
</circle>
<circle cx="514.8" cy="421.2" r="2.4" fill="#58A6B8" stroke="#0d0d0d" stroke-width="1" filter="url(#glowSm)" opacity="0">
  <title>Jul 3
1 Contribution</title>
  <animate attributeName="opacity" from="0" to="1" dur="0.4s" begin="1.76s" fill="freeze"/>
  <animate attributeName="r" values="2.4;3.4;2.4" dur="4s" begin="2.16s" repeatCount="indefinite"/>
</circle>
<circle cx="541.4" cy="430.0" r="2.2" fill="#58A6B8" stroke="#0d0d0d" stroke-width="1" filter="url(#glowSm)" opacity="0">
  <title>Jul 4
0 Contributions</title>
  <animate attributeName="opacity" from="0" to="1" dur="0.4s" begin="1.82s" fill="freeze"/>
  <animate attributeName="r" values="2.2;3.2;2.2" dur="4s" begin="2.22s" repeatCount="indefinite"/>
</circle>
<circle cx="567.9" cy="421.2" r="2.4" fill="#58A6B8" stroke="#0d0d0d" stroke-width="1" filter="url(#glowSm)" opacity="0">
  <title>Jul 5
1 Contribution</title>
  <animate attributeName="opacity" from="0" to="1" dur="0.4s" begin="1.88s" fill="freeze"/>
  <animate attributeName="r" values="2.4;3.4;2.4" dur="4s" begin="2.28s" repeatCount="indefinite"/>
</circle>
<circle cx="594.5" cy="430.0" r="2.2" fill="#58A6B8" stroke="#0d0d0d" stroke-width="1" filter="url(#glowSm)" opacity="0">
  <title>Jul 6
0 Contributions</title>
  <animate attributeName="opacity" from="0" to="1" dur="0.4s" begin="1.94s" fill="freeze"/>
  <animate attributeName="r" values="2.2;3.2;2.2" dur="4s" begin="2.34s" repeatCount="indefinite"/>
</circle>
<circle cx="621.0" cy="403.6" r="2.7" fill="#58A6B8" stroke="#0d0d0d" stroke-width="1" filter="url(#glowSm)" opacity="0">
  <title>Jul 7
3 Contributions</title>
  <animate attributeName="opacity" from="0" to="1" dur="0.4s" begin="2.00s" fill="freeze"/>
  <animate attributeName="r" values="2.7;3.7;2.7" dur="4s" begin="2.40s" repeatCount="indefinite"/>
</circle>
<circle cx="647.6" cy="421.2" r="2.4" fill="#58A6B8" stroke="#0d0d0d" stroke-width="1" filter="url(#glowSm)" opacity="0">
  <title>Jul 8
1 Contribution</title>
  <animate attributeName="opacity" from="0" to="1" dur="0.4s" begin="2.06s" fill="freeze"/>
  <animate attributeName="r" values="2.4;3.4;2.4" dur="4s" begin="2.46s" repeatCount="indefinite"/>
</circle>
<circle cx="674.1" cy="430.0" r="2.2" fill="#58A6B8" stroke="#0d0d0d" stroke-width="1" filter="url(#glowSm)" opacity="0">
  <title>Jul 9
0 Contributions</title>
  <animate attributeName="opacity" from="0" to="1" dur="0.4s" begin="2.12s" fill="freeze"/>
  <animate attributeName="r" values="2.2;3.2;2.2" dur="4s" begin="2.52s" repeatCount="indefinite"/>
</circle>
<circle cx="700.7" cy="430.0" r="2.2" fill="#58A6B8" stroke="#0d0d0d" stroke-width="1" filter="url(#glowSm)" opacity="0">
  <title>Jul 10
0 Contributions</title>
  <animate attributeName="opacity" from="0" to="1" dur="0.4s" begin="2.18s" fill="freeze"/>
  <animate attributeName="r" values="2.2;3.2;2.2" dur="4s" begin="2.58s" repeatCount="indefinite"/>
</circle>
<circle cx="727.2" cy="430.0" r="2.2" fill="#58A6B8" stroke="#0d0d0d" stroke-width="1" filter="url(#glowSm)" opacity="0">
  <title>Jul 11
0 Contributions</title>
  <animate attributeName="opacity" from="0" to="1" dur="0.4s" begin="2.24s" fill="freeze"/>
  <animate attributeName="r" values="2.2;3.2;2.2" dur="4s" begin="2.64s" repeatCount="indefinite"/>
</circle>
<circle cx="753.8" cy="430.0" r="2.2" fill="#58A6B8" stroke="#0d0d0d" stroke-width="1" filter="url(#glowSm)" opacity="0">
  <title>Jul 12
0 Contributions</title>
  <animate attributeName="opacity" from="0" to="1" dur="0.4s" begin="2.30s" fill="freeze"/>
  <animate attributeName="r" values="2.2;3.2;2.2" dur="4s" begin="2.70s" repeatCount="indefinite"/>
</circle>
<circle cx="780.3" cy="421.2" r="2.4" fill="#58A6B8" stroke="#0d0d0d" stroke-width="1" filter="url(#glowSm)" opacity="0">
  <title>Jul 13
1 Contribution</title>
  <animate attributeName="opacity" from="0" to="1" dur="0.4s" begin="2.36s" fill="freeze"/>
  <animate attributeName="r" values="2.4;3.4;2.4" dur="4s" begin="2.76s" repeatCount="indefinite"/>
</circle>
<circle cx="806.9" cy="430.0" r="2.2" fill="#58A6B8" stroke="#0d0d0d" stroke-width="1" filter="url(#glowSm)" opacity="0">
  <title>Jul 14
0 Contributions</title>
  <animate attributeName="opacity" from="0" to="1" dur="0.4s" begin="2.42s" fill="freeze"/>
  <animate attributeName="r" values="2.2;3.2;2.2" dur="4s" begin="2.82s" repeatCount="indefinite"/>
</circle>
<circle cx="833.4" cy="421.2" r="2.4" fill="#58A6B8" stroke="#0d0d0d" stroke-width="1" filter="url(#glowSm)" opacity="0">
  <title>Jul 15
1 Contribution</title>
  <animate attributeName="opacity" from="0" to="1" dur="0.4s" begin="2.48s" fill="freeze"/>
  <animate attributeName="r" values="2.4;3.4;2.4" dur="4s" begin="2.88s" repeatCount="indefinite"/>
</circle>
<circle cx="860.0" cy="430.0" r="2.2" fill="#58A6B8" stroke="#0d0d0d" stroke-width="1" filter="url(#glowSm)" opacity="0">
  <title>Jul 16
0 Contributions</title>
  <animate attributeName="opacity" from="0" to="1" dur="0.4s" begin="2.54s" fill="freeze"/>
  <animate attributeName="r" values="2.2;3.2;2.2" dur="4s" begin="2.94s" repeatCount="indefinite"/>
</circle>
<text x="90" y="466" text-anchor="start" font-family="Georgia,'Palatino Linotype',serif" font-size="10" fill="#5a7a80" letter-spacing="1.5">JUN</text>
<text x="860" y="466" text-anchor="end" font-family="Georgia,'Palatino Linotype',serif" font-size="10" fill="#5a7a80" letter-spacing="1.5">JUL</text>
<text x="450" y="522" text-anchor="middle" font-family="Georgia,'Palatino Linotype',serif" font-size="9" fill="#5a7a80" letter-spacing="4" opacity="0.5">LAST 30 DAYS OF DARK RITUALS</text>
</svg>