<svg xmlns="http://www.w3.org/2000/svg" viewBox="0 0 900 540" width="900" height="540">
<defs>
  <!-- Gradients -->
  <linearGradient id="areaFill" x1="0" y1="0" x2="0" y2="1">
    <stop offset="0%" stop-color="#58A6B8" stop-opacity="0.28"/>
    <stop offset="85%" stop-color="#58A6B8" stop-opacity="0.03"/>
    <stop offset="100%" stop-color="#58A6B8" stop-opacity="0"/>
  </linearGradient>
  <radialGradient id="haloGrad" cx="50%" cy="50%" r="50%">
    <stop offset="0%" stop-color="#58A6B8" stop-opacity="0.5"/>
    <stop offset="100%" stop-color="#58A6B8" stop-opacity="0"/>
  </radialGradient>
  <linearGradient id="frameFade" x1="0" y1="0" x2="1" y2="1">
    <stop offset="0%" stop-color="#58A6B8" stop-opacity="0.35"/>
    <stop offset="50%" stop-color="#58A6B8" stop-opacity="0.12"/>
    <stop offset="100%" stop-color="#58A6B8" stop-opacity="0.35"/>
  </linearGradient>
  <!-- Filters -->
  <filter id="glowSm" x="-50%" y="-50%" width="200%" height="200%">
    <feGaussianBlur stdDeviation="2.5" result="b"/><feMerge><feMergeNode in="b"/><feMergeNode in="SourceGraphic"/></feMerge>
  </filter>
  <filter id="glowMd" x="-50%" y="-50%" width="200%" height="200%">
    <feGaussianBlur stdDeviation="5" result="b"/><feMerge><feMergeNode in="b"/><feMergeNode in="SourceGraphic"/></feMerge>
  </filter>
  <filter id="glowLg" x="-80%" y="-80%" width="260%" height="260%">
    <feGaussianBlur stdDeviation="10" result="b"/><feMerge><feMergeNode in="b"/><feMergeNode in="SourceGraphic"/></feMerge>
  </filter>
  <filter id="cardShadow" x="-10%" y="-10%" width="120%" height="130%">
    <feGaussianBlur stdDeviation="6" result="b"/><feFlood flood-color="#58A6B8" flood-opacity="0.08" result="c"/>
    <feComposite in="c" in2="b" operator="in" result="s"/><feMerge><feMergeNode in="s"/><feMergeNode in="SourceGraphic"/></feMerge>
  </filter>
</defs>

<!-- Background -->
<rect width="900" height="540" fill="#0d0d0d" rx="16"/>
<line x1="90" y1="210.0" x2="860" y2="210.0" stroke="rgba(88,166,184,0.055)" stroke-width="0.7"/>
<line x1="90" y1="246.7" x2="860" y2="246.7" stroke="rgba(88,166,184,0.055)" stroke-width="0.7"/>
<line x1="90" y1="283.3" x2="860" y2="283.3" stroke="rgba(88,166,184,0.055)" stroke-width="0.7"/>
<line x1="90" y1="320.0" x2="860" y2="320.0" stroke="rgba(88,166,184,0.055)" stroke-width="0.7"/>
<line x1="90" y1="356.7" x2="860" y2="356.7" stroke="rgba(88,166,184,0.055)" stroke-width="0.7"/>
<line x1="90" y1="393.3" x2="860" y2="393.3" stroke="rgba(88,166,184,0.055)" stroke-width="0.7"/>
<line x1="90" y1="430.0" x2="860" y2="430.0" stroke="rgba(88,166,184,0.055)" stroke-width="0.7"/>
<line x1="90.0" y1="210" x2="90.0" y2="430" stroke="rgba(88,166,184,0.055)" stroke-width="0.5"/>
<line x1="222.8" y1="210" x2="222.8" y2="430" stroke="rgba(88,166,184,0.055)" stroke-width="0.5"/>
<line x1="355.5" y1="210" x2="355.5" y2="430" stroke="rgba(88,166,184,0.055)" stroke-width="0.5"/>
<line x1="488.3" y1="210" x2="488.3" y2="430" stroke="rgba(88,166,184,0.055)" stroke-width="0.5"/>
<line x1="621.0" y1="210" x2="621.0" y2="430" stroke="rgba(88,166,184,0.055)" stroke-width="0.5"/>
<line x1="753.8" y1="210" x2="753.8" y2="430" stroke="rgba(88,166,184,0.055)" stroke-width="0.5"/>
<circle cx="821.3" cy="371.1" r="0.6" fill="#58A6B8" opacity="0.158"><animate attributeName="opacity" values="0.158;0.348;0.158" dur="7.5s" begin="2.5s" repeatCount="indefinite"/></circle>
<circle cx="530.7" cy="396.3" r="1.2" fill="#58A6B8" opacity="0.050"><animate attributeName="opacity" values="0.050;0.110;0.050" dur="5.7s" begin="4.8s" repeatCount="indefinite"/></circle>
<circle cx="141.8" cy="199.1" r="0.7" fill="#58A6B8" opacity="0.143"><animate attributeName="opacity" values="0.143;0.315;0.143" dur="8.3s" begin="1.9s" repeatCount="indefinite"/></circle>
<circle cx="391.0" cy="227.5" r="0.6" fill="#58A6B8" opacity="0.113"><animate attributeName="opacity" values="0.113;0.249;0.113" dur="5.8s" begin="1.5s" repeatCount="indefinite"/></circle>
<circle cx="157.1" cy="113.5" r="1.3" fill="#58A6B8" opacity="0.155"><animate attributeName="opacity" values="0.155;0.341;0.155" dur="8.3s" begin="2.5s" repeatCount="indefinite"/></circle>
<circle cx="868.2" cy="304.6" r="0.9" fill="#58A6B8" opacity="0.065"><animate attributeName="opacity" values="0.065;0.143;0.065" dur="6.9s" begin="4.6s" repeatCount="indefinite"/></circle>
<circle cx="148.4" cy="288.4" r="1.0" fill="#58A6B8" opacity="0.102"><animate attributeName="opacity" values="0.102;0.224;0.102" dur="4.0s" begin="0.9s" repeatCount="indefinite"/></circle>
<circle cx="756.8" cy="341.5" r="1.0" fill="#58A6B8" opacity="0.058"><animate attributeName="opacity" values="0.058;0.128;0.058" dur="6.3s" begin="4.8s" repeatCount="indefinite"/></circle>
<circle cx="128.6" cy="185.9" r="0.8" fill="#58A6B8" opacity="0.074"><animate attributeName="opacity" values="0.074;0.163;0.074" dur="4.5s" begin="5.4s" repeatCount="indefinite"/></circle>
<circle cx="564.3" cy="88.2" r="0.3" fill="#58A6B8" opacity="0.044"><animate attributeName="opacity" values="0.044;0.097;0.044" dur="4.2s" begin="0.0s" repeatCount="indefinite"/></circle>
<circle cx="297.3" cy="467.9" r="0.8" fill="#58A6B8" opacity="0.136"><animate attributeName="opacity" values="0.136;0.299;0.136" dur="7.9s" begin="0.7s" repeatCount="indefinite"/></circle>
<circle cx="81.7" cy="366.1" r="0.3" fill="#58A6B8" opacity="0.058"><animate attributeName="opacity" values="0.058;0.128;0.058" dur="4.8s" begin="0.0s" repeatCount="indefinite"/></circle>
<circle cx="406.6" cy="360.6" r="0.8" fill="#58A6B8" opacity="0.056"><animate attributeName="opacity" values="0.056;0.123;0.056" dur="6.3s" begin="0.1s" repeatCount="indefinite"/></circle>
<circle cx="239.5" cy="306.1" r="0.3" fill="#58A6B8" opacity="0.140"><animate attributeName="opacity" values="0.140;0.308;0.140" dur="8.1s" begin="0.3s" repeatCount="indefinite"/></circle>
<circle cx="658.5" cy="500.4" r="0.7" fill="#58A6B8" opacity="0.049"><animate attributeName="opacity" values="0.049;0.108;0.049" dur="3.9s" begin="2.5s" repeatCount="indefinite"/></circle>
<circle cx="811.7" cy="238.2" r="0.6" fill="#58A6B8" opacity="0.051"><animate attributeName="opacity" values="0.051;0.112;0.051" dur="7.3s" begin="5.0s" repeatCount="indefinite"/></circle>
<circle cx="140.4" cy="209.1" r="0.6" fill="#58A6B8" opacity="0.143"><animate attributeName="opacity" values="0.143;0.315;0.143" dur="6.9s" begin="2.9s" repeatCount="indefinite"/></circle>
<circle cx="511.9" cy="273.6" r="0.4" fill="#58A6B8" opacity="0.098"><animate attributeName="opacity" values="0.098;0.216;0.098" dur="7.8s" begin="5.9s" repeatCount="indefinite"/></circle>
<circle cx="267.4" cy="227.9" r="1.1" fill="#58A6B8" opacity="0.131"><animate attributeName="opacity" values="0.131;0.288;0.131" dur="5.1s" begin="2.1s" repeatCount="indefinite"/></circle>
<circle cx="102.6" cy="32.6" r="0.7" fill="#58A6B8" opacity="0.094"><animate attributeName="opacity" values="0.094;0.207;0.094" dur="5.5s" begin="4.8s" repeatCount="indefinite"/></circle>
<circle cx="46.4" cy="203.9" r="0.7" fill="#58A6B8" opacity="0.061"><animate attributeName="opacity" values="0.061;0.134;0.061" dur="4.4s" begin="3.3s" repeatCount="indefinite"/></circle>
<circle cx="452.5" cy="27.5" r="0.7" fill="#58A6B8" opacity="0.152"><animate attributeName="opacity" values="0.152;0.334;0.152" dur="8.3s" begin="3.1s" repeatCount="indefinite"/></circle>
<circle cx="199.2" cy="5.0" r="0.9" fill="#58A6B8" opacity="0.065"><animate attributeName="opacity" values="0.065;0.143;0.065" dur="4.4s" begin="0.7s" repeatCount="indefinite"/></circle>
<circle cx="10.0" cy="371.6" r="1.4" fill="#58A6B8" opacity="0.056"><animate attributeName="opacity" values="0.056;0.123;0.056" dur="7.7s" begin="4.7s" repeatCount="indefinite"/></circle>
<circle cx="170.3" cy="76.7" r="1.2" fill="#58A6B8" opacity="0.066"><animate attributeName="opacity" values="0.066;0.145;0.066" dur="7.6s" begin="1.9s" repeatCount="indefinite"/></circle>
<circle cx="406.6" cy="336.4" r="0.9" fill="#58A6B8" opacity="0.118"><animate attributeName="opacity" values="0.118;0.260;0.118" dur="6.1s" begin="1.0s" repeatCount="indefinite"/></circle>
<circle cx="493.5" cy="29.5" r="1.2" fill="#58A6B8" opacity="0.124"><animate attributeName="opacity" values="0.124;0.273;0.124" dur="7.9s" begin="3.9s" repeatCount="indefinite"/></circle>
<circle cx="850.3" cy="261.1" r="0.8" fill="#58A6B8" opacity="0.076"><animate attributeName="opacity" values="0.076;0.167;0.076" dur="4.6s" begin="0.8s" repeatCount="indefinite"/></circle>
<circle cx="243.8" cy="126.0" r="1.1" fill="#58A6B8" opacity="0.125"><animate attributeName="opacity" values="0.125;0.275;0.125" dur="6.8s" begin="5.2s" repeatCount="indefinite"/></circle>
<circle cx="8.1" cy="79.9" r="0.9" fill="#58A6B8" opacity="0.058"><animate attributeName="opacity" values="0.058;0.128;0.058" dur="4.4s" begin="1.9s" repeatCount="indefinite"/></circle>
<circle cx="58.6" cy="309.5" r="0.3" fill="#58A6B8" opacity="0.133"><animate attributeName="opacity" values="0.133;0.293;0.133" dur="4.5s" begin="5.4s" repeatCount="indefinite"/></circle>
<circle cx="218.8" cy="475.7" r="0.5" fill="#58A6B8" opacity="0.115"><animate attributeName="opacity" values="0.115;0.253;0.115" dur="8.1s" begin="5.5s" repeatCount="indefinite"/></circle>
<circle cx="367.6" cy="302.7" r="0.3" fill="#58A6B8" opacity="0.090"><animate attributeName="opacity" values="0.090;0.198;0.090" dur="4.9s" begin="5.6s" repeatCount="indefinite"/></circle>
<circle cx="836.4" cy="134.9" r="1.3" fill="#58A6B8" opacity="0.053"><animate attributeName="opacity" values="0.053;0.117;0.053" dur="7.1s" begin="4.3s" repeatCount="indefinite"/></circle>
<circle cx="243.4" cy="537.3" r="0.6" fill="#58A6B8" opacity="0.044"><animate attributeName="opacity" values="0.044;0.097;0.044" dur="6.3s" begin="5.5s" repeatCount="indefinite"/></circle>
<circle cx="57.0" cy="14.9" r="1.2" fill="#58A6B8" opacity="0.056"><animate attributeName="opacity" values="0.056;0.123;0.056" dur="6.2s" begin="5.2s" repeatCount="indefinite"/></circle>
<circle cx="399.8" cy="111.1" r="0.6" fill="#58A6B8" opacity="0.075"><animate attributeName="opacity" values="0.075;0.165;0.075" dur="4.6s" begin="4.1s" repeatCount="indefinite"/></circle>
<circle cx="557.0" cy="365.3" r="1.3" fill="#58A6B8" opacity="0.069"><animate attributeName="opacity" values="0.069;0.152;0.069" dur="4.9s" begin="5.7s" repeatCount="indefinite"/></circle>
<circle cx="892.4" cy="121.6" r="0.4" fill="#58A6B8" opacity="0.091"><animate attributeName="opacity" values="0.091;0.200;0.091" dur="4.5s" begin="2.7s" repeatCount="indefinite"/></circle>
<circle cx="368.6" cy="237.3" r="1.0" fill="#58A6B8" opacity="0.077"><animate attributeName="opacity" values="0.077;0.169;0.077" dur="7.7s" begin="5.3s" repeatCount="indefinite"/></circle>
<circle cx="311.1" cy="89.4" r="0.5" fill="#58A6B8" opacity="0.044"><animate attributeName="opacity" values="0.044;0.097;0.044" dur="7.4s" begin="5.3s" repeatCount="indefinite"/></circle>
<circle cx="387.1" cy="227.1" r="1.1" fill="#58A6B8" opacity="0.050"><animate attributeName="opacity" values="0.050;0.110;0.050" dur="4.0s" begin="3.4s" repeatCount="indefinite"/></circle>
<circle cx="618.6" cy="316.5" r="0.4" fill="#58A6B8" opacity="0.104"><animate attributeName="opacity" values="0.104;0.229;0.104" dur="5.4s" begin="0.4s" repeatCount="indefinite"/></circle>
<circle cx="785.2" cy="40.2" r="0.9" fill="#58A6B8" opacity="0.157"><animate attributeName="opacity" values="0.157;0.345;0.157" dur="4.0s" begin="2.4s" repeatCount="indefinite"/></circle>
<circle cx="514.5" cy="124.3" r="0.3" fill="#58A6B8" opacity="0.145"><animate attributeName="opacity" values="0.145;0.319;0.145" dur="8.3s" begin="0.2s" repeatCount="indefinite"/></circle>
<circle cx="864.7" cy="479.5" r="1.1" fill="#58A6B8" opacity="0.113"><animate attributeName="opacity" values="0.113;0.249;0.113" dur="5.0s" begin="0.7s" repeatCount="indefinite"/></circle>
<circle cx="837.5" cy="463.8" r="0.4" fill="#58A6B8" opacity="0.106"><animate attributeName="opacity" values="0.106;0.233;0.106" dur="6.8s" begin="0.1s" repeatCount="indefinite"/></circle>
<circle cx="549.2" cy="531.4" r="0.6" fill="#58A6B8" opacity="0.061"><animate attributeName="opacity" values="0.061;0.134;0.061" dur="4.6s" begin="4.2s" repeatCount="indefinite"/></circle>
<circle cx="500.3" cy="473.7" r="1.1" fill="#58A6B8" opacity="0.049"><animate attributeName="opacity" values="0.049;0.108;0.049" dur="8.1s" begin="2.1s" repeatCount="indefinite"/></circle>
<circle cx="417.8" cy="449.0" r="1.4" fill="#58A6B8" opacity="0.135"><animate attributeName="opacity" values="0.135;0.297;0.135" dur="4.4s" begin="4.7s" repeatCount="indefinite"/></circle>
<circle cx="805.0" cy="94.0" r="1.3" fill="#58A6B8" opacity="0.095"><animate attributeName="opacity" values="0.095;0.209;0.095" dur="7.8s" begin="0.9s" repeatCount="indefinite"/></circle>
<circle cx="686.7" cy="434.8" r="0.7" fill="#58A6B8" opacity="0.093"><animate attributeName="opacity" values="0.093;0.205;0.093" dur="8.2s" begin="3.7s" repeatCount="indefinite"/></circle>
<circle cx="708.2" cy="144.2" r="0.9" fill="#58A6B8" opacity="0.130"><animate attributeName="opacity" values="0.130;0.286;0.130" dur="6.8s" begin="0.5s" repeatCount="indefinite"/></circle>
<circle cx="240.4" cy="308.9" r="1.1" fill="#58A6B8" opacity="0.132"><animate attributeName="opacity" values="0.132;0.290;0.132" dur="4.1s" begin="0.8s" repeatCount="indefinite"/></circle>
<circle cx="523.6" cy="46.5" r="0.5" fill="#58A6B8" opacity="0.042"><animate attributeName="opacity" values="0.042;0.092;0.042" dur="6.5s" begin="4.4s" repeatCount="indefinite"/></circle>
<g transform="translate(624.1,332.3) rotate(45)" opacity="0.083"><rect x="-1.6" y="-1.6" width="3.3" height="3.3" fill="#58A6B8"/><animate attributeName="opacity" values="0.083;0.208;0.083" dur="9.5s" begin="4.5s" repeatCount="indefinite"/></g>
<g transform="translate(668.2,293.4) rotate(45)" opacity="0.090"><rect x="-2.0" y="-2.0" width="4.0" height="4.0" fill="#58A6B8"/><animate attributeName="opacity" values="0.090;0.225;0.090" dur="7.9s" begin="1.0s" repeatCount="indefinite"/></g>
<g transform="translate(245.7,460.7) rotate(45)" opacity="0.092"><rect x="-1.5" y="-1.5" width="2.9" height="2.9" fill="#58A6B8"/><animate attributeName="opacity" values="0.092;0.230;0.092" dur="9.9s" begin="4.8s" repeatCount="indefinite"/></g>
<g transform="translate(384.6,137.4) rotate(45)" opacity="0.043"><rect x="-1.7" y="-1.7" width="3.5" height="3.5" fill="#58A6B8"/><animate attributeName="opacity" values="0.043;0.107;0.043" dur="7.5s" begin="4.6s" repeatCount="indefinite"/></g>
<g transform="translate(321.0,113.5) rotate(45)" opacity="0.072"><rect x="-1.4" y="-1.4" width="2.9" height="2.9" fill="#58A6B8"/><animate attributeName="opacity" values="0.072;0.180;0.072" dur="7.8s" begin="3.8s" repeatCount="indefinite"/></g>
<g transform="translate(482.5,146.4) rotate(45)" opacity="0.075"><rect x="-2.2" y="-2.2" width="4.5" height="4.5" fill="#58A6B8"/><animate attributeName="opacity" values="0.075;0.188;0.075" dur="7.1s" begin="1.5s" repeatCount="indefinite"/></g>
<g transform="translate(614.6,306.7) rotate(45)" opacity="0.095"><rect x="-1.3" y="-1.3" width="2.6" height="2.6" fill="#58A6B8"/><animate attributeName="opacity" values="0.095;0.237;0.095" dur="9.1s" begin="1.0s" repeatCount="indefinite"/></g>
<g transform="translate(93.3,321.3) rotate(45)" opacity="0.079"><rect x="-1.9" y="-1.9" width="3.9" height="3.9" fill="#58A6B8"/><animate attributeName="opacity" values="0.079;0.198;0.079" dur="7.2s" begin="0.5s" repeatCount="indefinite"/></g>
<g transform="translate(18,18) scale(1,1)"><path d="M0 25 L0 6 Q0 0 6 0 L25 0" fill="none" stroke="#58A6B8" stroke-width="1.3" opacity="0.35"/><circle cx="0" cy="0" r="1.8" fill="#58A6B8" opacity="0.4"/><path d="M0 12 L5 12" fill="none" stroke="#58A6B8" stroke-width="0.6" opacity="0.2"/><path d="M12 0 L12 5" fill="none" stroke="#58A6B8" stroke-width="0.6" opacity="0.2"/></g><g transform="translate(882,18) scale(-1,1)"><path d="M0 25 L0 6 Q0 0 6 0 L25 0" fill="none" stroke="#58A6B8" stroke-width="1.3" opacity="0.35"/><circle cx="0" cy="0" r="1.8" fill="#58A6B8" opacity="0.4"/><path d="M0 12 L5 12" fill="none" stroke="#58A6B8" stroke-width="0.6" opacity="0.2"/><path d="M12 0 L12 5" fill="none" stroke="#58A6B8" stroke-width="0.6" opacity="0.2"/></g><g transform="translate(18,522) scale(1,-1)"><path d="M0 25 L0 6 Q0 0 6 0 L25 0" fill="none" stroke="#58A6B8" stroke-width="1.3" opacity="0.35"/><circle cx="0" cy="0" r="1.8" fill="#58A6B8" opacity="0.4"/><path d="M0 12 L5 12" fill="none" stroke="#58A6B8" stroke-width="0.6" opacity="0.2"/><path d="M12 0 L12 5" fill="none" stroke="#58A6B8" stroke-width="0.6" opacity="0.2"/></g><g transform="translate(882,522) scale(-1,-1)"><path d="M0 25 L0 6 Q0 0 6 0 L25 0" fill="none" stroke="#58A6B8" stroke-width="1.3" opacity="0.35"/><circle cx="0" cy="0" r="1.8" fill="#58A6B8" opacity="0.4"/><path d="M0 12 L5 12" fill="none" stroke="#58A6B8" stroke-width="0.6" opacity="0.2"/><path d="M12 0 L12 5" fill="none" stroke="#58A6B8" stroke-width="0.6" opacity="0.2"/></g>
<rect x="10" y="10" width="880" height="520" rx="12" fill="none" stroke="url(#frameFade)" stroke-width="1"/>
<text x="450" y="50" text-anchor="middle" font-family="Georgia,'Palatino Linotype','Book Antiqua',Palatino,serif" font-size="22" font-weight="bold" fill="#e8f4f7" letter-spacing="8" filter="url(#glowMd)">✧ THE COMMIT COVEN ✧</text>
<line x1="310" y1="62" x2="590" y2="62" stroke="#58A6B8" stroke-width="0.5" opacity="0.25"/>
<g filter="url(#cardShadow)"><rect x="70" y="80" width="240" height="78" rx="10" fill="rgba(88,166,184,0.05)" stroke="rgba(88,166,184,0.22)" stroke-width="0.8"/><text x="190" y="110" text-anchor="middle" font-family="Georgia,'Palatino Linotype',serif" font-size="11" fill="#5a7a80" letter-spacing="3" text-transform="uppercase">LONGEST STREAK</text><text x="190" y="136" text-anchor="middle" font-family="Georgia,'Palatino Linotype',serif" font-size="20" fill="#e8f4f7" font-weight="bold" filter="url(#glowSm)">12 Nights</text></g>
<g filter="url(#cardShadow)"><rect x="330" y="80" width="240" height="78" rx="10" fill="rgba(88,166,184,0.05)" stroke="rgba(88,166,184,0.22)" stroke-width="0.8"/><text x="450" y="110" text-anchor="middle" font-family="Georgia,'Palatino Linotype',serif" font-size="11" fill="#5a7a80" letter-spacing="3" text-transform="uppercase">CURRENT RITUAL</text><text x="450" y="136" text-anchor="middle" font-family="Georgia,'Palatino Linotype',serif" font-size="20" fill="#e8f4f7" font-weight="bold" filter="url(#glowSm)">4 Nights</text></g>
<g filter="url(#cardShadow)"><rect x="590" y="80" width="240" height="78" rx="10" fill="rgba(88,166,184,0.05)" stroke="rgba(88,166,184,0.22)" stroke-width="0.8"/><text x="710" y="110" text-anchor="middle" font-family="Georgia,'Palatino Linotype',serif" font-size="11" fill="#5a7a80" letter-spacing="3" text-transform="uppercase">TOTAL OFFERINGS</text><text x="710" y="136" text-anchor="middle" font-family="Georgia,'Palatino Linotype',serif" font-size="20" fill="#e8f4f7" font-weight="bold" filter="url(#glowSm)">205</text></g>
<text x="80" y="434.0" text-anchor="end" font-family="'Courier New',monospace" font-size="10" fill="#5a7a80">0</text>
<line x1="86" y1="430.0" x2="90" y2="430.0" stroke="#5a7a80" stroke-width="0.5"/>
<text x="80" y="390.0" text-anchor="end" font-family="'Courier New',monospace" font-size="10" fill="#5a7a80">2</text>
<line x1="86" y1="386.0" x2="90" y2="386.0" stroke="#5a7a80" stroke-width="0.5"/>
<text x="80" y="346.0" text-anchor="end" font-family="'Courier New',monospace" font-size="10" fill="#5a7a80">4</text>
<line x1="86" y1="342.0" x2="90" y2="342.0" stroke="#5a7a80" stroke-width="0.5"/>
<text x="80" y="302.0" text-anchor="end" font-family="'Courier New',monospace" font-size="10" fill="#5a7a80">6</text>
<line x1="86" y1="298.0" x2="90" y2="298.0" stroke="#5a7a80" stroke-width="0.5"/>
<text x="80" y="258.0" text-anchor="end" font-family="'Courier New',monospace" font-size="10" fill="#5a7a80">8</text>
<line x1="86" y1="254.0" x2="90" y2="254.0" stroke="#5a7a80" stroke-width="0.5"/>
<text x="80" y="214.0" text-anchor="end" font-family="'Courier New',monospace" font-size="10" fill="#5a7a80">10</text>
<line x1="86" y1="210.0" x2="90" y2="210.0" stroke="#5a7a80" stroke-width="0.5"/>
<text x="90.0" y="450" text-anchor="middle" font-family="'Courier New',monospace" font-size="10" fill="#5a7a80">20</text>
<text x="196.2" y="450" text-anchor="middle" font-family="'Courier New',monospace" font-size="10" fill="#5a7a80">24</text>
<text x="302.4" y="450" text-anchor="middle" font-family="'Courier New',monospace" font-size="10" fill="#5a7a80">28</text>
<text x="408.6" y="450" text-anchor="middle" font-family="'Courier New',monospace" font-size="10" fill="#5a7a80">2</text>
<text x="514.8" y="450" text-anchor="middle" font-family="'Courier New',monospace" font-size="10" fill="#5a7a80">6</text>
<text x="621.0" y="450" text-anchor="middle" font-family="'Courier New',monospace" font-size="10" fill="#5a7a80">10</text>
<text x="727.2" y="450" text-anchor="middle" font-family="'Courier New',monospace" font-size="10" fill="#5a7a80">14</text>
<text x="833.4" y="450" text-anchor="middle" font-family="'Courier New',monospace" font-size="10" fill="#5a7a80">18</text>
<text x="860.0" y="450" text-anchor="middle" font-family="'Courier New',monospace" font-size="10" fill="#5a7a80">19</text>
<line x1="90" y1="210" x2="90" y2="430" stroke="#58A6B8" stroke-width="0.5" opacity="0.2"/>
<line x1="90" y1="430" x2="860" y2="430" stroke="#58A6B8" stroke-width="0.5" opacity="0.2"/>
<path d="M90.0 342.0 C93.5 350.8,109.5 402.1,116.6 408.0 C123.6 413.9,136.0 397.7,143.1 386.0 C150.2 374.3,162.6 322.9,169.7 320.0 C176.7 317.1,189.1 352.3,196.2 364.0 C203.3 375.7,215.7 399.2,222.8 408.0 C229.8 416.8,242.2 427.1,249.3 430.0 C256.4 432.9,268.8 430.0,275.9 430.0 C282.9 430.0,295.3 430.0,302.4 430.0 C309.5 430.0,321.9 444.7,329.0 430.0 C336.0 415.3,348.4 337.6,355.5 320.0 C362.6 302.4,375.0 309.7,382.1 298.0 C389.1 286.3,401.5 217.3,408.6 232.0 C415.7 246.7,428.1 381.6,435.2 408.0 C442.3 434.4,454.6 430.0,461.7 430.0 C468.8 430.0,481.2 408.0,488.3 408.0 C495.4 408.0,507.7 435.9,514.8 430.0 C521.9 424.1,534.3 366.9,541.4 364.0 C548.5 361.1,560.9 399.2,567.9 408.0 C575.0 416.8,587.4 427.1,594.5 430.0 C601.6 432.9,614.0 430.0,621.0 430.0 C628.1 430.0,640.5 430.0,647.6 430.0 C654.7 430.0,667.1 432.9,674.1 430.0 C681.2 427.1,693.6 408.0,700.7 408.0 C707.8 408.0,720.2 430.0,727.2 430.0 C734.3 430.0,746.7 413.9,753.8 408.0 C760.9 402.1,773.3 391.9,780.3 386.0 C787.4 380.1,799.8 369.9,806.9 364.0 C814.0 358.1,826.4 333.2,833.4 342.0 C840.5 350.8,856.5 418.3,860.0 430.0 L860.0 430 L90.0 430 Z" fill="url(#areaFill)" opacity="0.9">
  <animate attributeName="opacity" values="0;0.9" dur="2s" fill="freeze"/>
</path>
<path d="M90.0 342.0 C93.5 350.8,109.5 402.1,116.6 408.0 C123.6 413.9,136.0 397.7,143.1 386.0 C150.2 374.3,162.6 322.9,169.7 320.0 C176.7 317.1,189.1 352.3,196.2 364.0 C203.3 375.7,215.7 399.2,222.8 408.0 C229.8 416.8,242.2 427.1,249.3 430.0 C256.4 432.9,268.8 430.0,275.9 430.0 C282.9 430.0,295.3 430.0,302.4 430.0 C309.5 430.0,321.9 444.7,329.0 430.0 C336.0 415.3,348.4 337.6,355.5 320.0 C362.6 302.4,375.0 309.7,382.1 298.0 C389.1 286.3,401.5 217.3,408.6 232.0 C415.7 246.7,428.1 381.6,435.2 408.0 C442.3 434.4,454.6 430.0,461.7 430.0 C468.8 430.0,481.2 408.0,488.3 408.0 C495.4 408.0,507.7 435.9,514.8 430.0 C521.9 424.1,534.3 366.9,541.4 364.0 C548.5 361.1,560.9 399.2,567.9 408.0 C575.0 416.8,587.4 427.1,594.5 430.0 C601.6 432.9,614.0 430.0,621.0 430.0 C628.1 430.0,640.5 430.0,647.6 430.0 C654.7 430.0,667.1 432.9,674.1 430.0 C681.2 427.1,693.6 408.0,700.7 408.0 C707.8 408.0,720.2 430.0,727.2 430.0 C734.3 430.0,746.7 413.9,753.8 408.0 C760.9 402.1,773.3 391.9,780.3 386.0 C787.4 380.1,799.8 369.9,806.9 364.0 C814.0 358.1,826.4 333.2,833.4 342.0 C840.5 350.8,856.5 418.3,860.0 430.0" fill="none" stroke="#58A6B8" stroke-width="4" opacity="0.15" filter="url(#glowLg)" stroke-linecap="round" stroke-linejoin="round"/>
<path d="M90.0 342.0 C93.5 350.8,109.5 402.1,116.6 408.0 C123.6 413.9,136.0 397.7,143.1 386.0 C150.2 374.3,162.6 322.9,169.7 320.0 C176.7 317.1,189.1 352.3,196.2 364.0 C203.3 375.7,215.7 399.2,222.8 408.0 C229.8 416.8,242.2 427.1,249.3 430.0 C256.4 432.9,268.8 430.0,275.9 430.0 C282.9 430.0,295.3 430.0,302.4 430.0 C309.5 430.0,321.9 444.7,329.0 430.0 C336.0 415.3,348.4 337.6,355.5 320.0 C362.6 302.4,375.0 309.7,382.1 298.0 C389.1 286.3,401.5 217.3,408.6 232.0 C415.7 246.7,428.1 381.6,435.2 408.0 C442.3 434.4,454.6 430.0,461.7 430.0 C468.8 430.0,481.2 408.0,488.3 408.0 C495.4 408.0,507.7 435.9,514.8 430.0 C521.9 424.1,534.3 366.9,541.4 364.0 C548.5 361.1,560.9 399.2,567.9 408.0 C575.0 416.8,587.4 427.1,594.5 430.0 C601.6 432.9,614.0 430.0,621.0 430.0 C628.1 430.0,640.5 430.0,647.6 430.0 C654.7 430.0,667.1 432.9,674.1 430.0 C681.2 427.1,693.6 408.0,700.7 408.0 C707.8 408.0,720.2 430.0,727.2 430.0 C734.3 430.0,746.7 413.9,753.8 408.0 C760.9 402.1,773.3 391.9,780.3 386.0 C787.4 380.1,799.8 369.9,806.9 364.0 C814.0 358.1,826.4 333.2,833.4 342.0 C840.5 350.8,856.5 418.3,860.0 430.0" fill="none" stroke="#58A6B8" stroke-width="2.2" stroke-linecap="round" stroke-linejoin="round" filter="url(#glowSm)" stroke-dasharray="1859" stroke-dashoffset="1859">
  <animate attributeName="stroke-dashoffset" from="1859" to="0" dur="2.5s" fill="freeze" calcMode="spline" keySplines="0.4 0 0.2 1"/>
  <animate attributeName="opacity" values="0.7;1;0.85;1" dur="6s" begin="2.5s" repeatCount="indefinite"/>
</path>
<circle cx="90.0" cy="342.0" r="3.8" fill="#58A6B8" stroke="#0d0d0d" stroke-width="1" filter="url(#glowSm)" opacity="0">
  <title>Jun 20
4 Contributions</title>
  <animate attributeName="opacity" from="0" to="1" dur="0.4s" begin="0.80s" fill="freeze"/>
  <animate attributeName="r" values="3.8;4.8;3.8" dur="4s" begin="1.20s" repeatCount="indefinite"/>
</circle>
<circle cx="116.6" cy="408.0" r="2.6" fill="#58A6B8" stroke="#0d0d0d" stroke-width="1" filter="url(#glowSm)" opacity="0">
  <title>Jun 21
1 Contribution</title>
  <animate attributeName="opacity" from="0" to="1" dur="0.4s" begin="0.86s" fill="freeze"/>
  <animate attributeName="r" values="2.6;3.6;2.6" dur="4s" begin="1.26s" repeatCount="indefinite"/>
</circle>
<circle cx="143.1" cy="386.0" r="3.0" fill="#58A6B8" stroke="#0d0d0d" stroke-width="1" filter="url(#glowSm)" opacity="0">
  <title>Jun 22
2 Contributions</title>
  <animate attributeName="opacity" from="0" to="1" dur="0.4s" begin="0.92s" fill="freeze"/>
  <animate attributeName="r" values="3.0;4.0;3.0" dur="4s" begin="1.32s" repeatCount="indefinite"/>
</circle>
<circle cx="169.7" cy="320.0" r="4.1" fill="#58A6B8" stroke="#0d0d0d" stroke-width="1" filter="url(#glowSm)" opacity="0">
  <title>Jun 23
5 Contributions</title>
  <animate attributeName="opacity" from="0" to="1" dur="0.4s" begin="0.98s" fill="freeze"/>
  <animate attributeName="r" values="4.1;5.1;4.1" dur="4s" begin="1.38s" repeatCount="indefinite"/>
</circle>
<circle cx="196.2" cy="364.0" r="3.4" fill="#58A6B8" stroke="#0d0d0d" stroke-width="1" filter="url(#glowSm)" opacity="0">
  <title>Jun 24
3 Contributions</title>
  <animate attributeName="opacity" from="0" to="1" dur="0.4s" begin="1.04s" fill="freeze"/>
  <animate attributeName="r" values="3.4;4.4;3.4" dur="4s" begin="1.44s" repeatCount="indefinite"/>
</circle>
<circle cx="222.8" cy="408.0" r="2.6" fill="#58A6B8" stroke="#0d0d0d" stroke-width="1" filter="url(#glowSm)" opacity="0">
  <title>Jun 25
1 Contribution</title>
  <animate attributeName="opacity" from="0" to="1" dur="0.4s" begin="1.10s" fill="freeze"/>
  <animate attributeName="r" values="2.6;3.6;2.6" dur="4s" begin="1.50s" repeatCount="indefinite"/>
</circle>
<circle cx="249.3" cy="430.0" r="2.2" fill="#58A6B8" stroke="#0d0d0d" stroke-width="1" filter="url(#glowSm)" opacity="0">
  <title>Jun 26
0 Contributions</title>
  <animate attributeName="opacity" from="0" to="1" dur="0.4s" begin="1.16s" fill="freeze"/>
  <animate attributeName="r" values="2.2;3.2;2.2" dur="4s" begin="1.56s" repeatCount="indefinite"/>
</circle>
<circle cx="275.9" cy="430.0" r="2.2" fill="#58A6B8" stroke="#0d0d0d" stroke-width="1" filter="url(#glowSm)" opacity="0">
  <title>Jun 27
0 Contributions</title>
  <animate attributeName="opacity" from="0" to="1" dur="0.4s" begin="1.22s" fill="freeze"/>
  <animate attributeName="r" values="2.2;3.2;2.2" dur="4s" begin="1.62s" repeatCount="indefinite"/>
</circle>
<circle cx="302.4" cy="430.0" r="2.2" fill="#58A6B8" stroke="#0d0d0d" stroke-width="1" filter="url(#glowSm)" opacity="0">
  <title>Jun 28
0 Contributions</title>
  <animate attributeName="opacity" from="0" to="1" dur="0.4s" begin="1.28s" fill="freeze"/>
  <animate attributeName="r" values="2.2;3.2;2.2" dur="4s" begin="1.68s" repeatCount="indefinite"/>
</circle>
<circle cx="329.0" cy="430.0" r="2.2" fill="#58A6B8" stroke="#0d0d0d" stroke-width="1" filter="url(#glowSm)" opacity="0">
  <title>Jun 29
0 Contributions</title>
  <animate attributeName="opacity" from="0" to="1" dur="0.4s" begin="1.34s" fill="freeze"/>
  <animate attributeName="r" values="2.2;3.2;2.2" dur="4s" begin="1.74s" repeatCount="indefinite"/>
</circle>
<circle cx="355.5" cy="320.0" r="4.1" fill="#58A6B8" stroke="#0d0d0d" stroke-width="1" filter="url(#glowSm)" opacity="0">
  <title>Jun 30
5 Contributions</title>
  <animate attributeName="opacity" from="0" to="1" dur="0.4s" begin="1.40s" fill="freeze"/>
  <animate attributeName="r" values="4.1;5.1;4.1" dur="4s" begin="1.80s" repeatCount="indefinite"/>
</circle>
<circle cx="382.1" cy="298.0" r="4.5" fill="#58A6B8" stroke="#0d0d0d" stroke-width="1" filter="url(#glowSm)" opacity="0">
  <title>Jul 1
6 Contributions</title>
  <animate attributeName="opacity" from="0" to="1" dur="0.4s" begin="1.46s" fill="freeze"/>
  <animate attributeName="r" values="4.5;5.5;4.5" dur="4s" begin="1.86s" repeatCount="indefinite"/>
</circle>
<circle cx="408.6" cy="232.0" r="18" fill="url(#haloGrad)" opacity="0">
  <animate attributeName="opacity" values="0;0.6;0.3;0.6" dur="4s" begin="1.52s" repeatCount="indefinite"/>
  <animate attributeName="r" values="14;22;14" dur="4s" begin="1.52s" repeatCount="indefinite"/>
</circle>
<circle cx="408.6" cy="232.0" r="7.2" fill="#e8f4f7" stroke="#0d0d0d" stroke-width="1" filter="url(#glowMd)" opacity="0">
  <title>Jul 2
9 Contributions</title>
  <animate attributeName="opacity" from="0" to="1" dur="0.4s" begin="1.52s" fill="freeze"/>
  <animate attributeName="r" values="7.2;9.2;7.2" dur="3s" begin="1.92s" repeatCount="indefinite"/>
</circle>
<circle cx="435.2" cy="408.0" r="2.6" fill="#58A6B8" stroke="#0d0d0d" stroke-width="1" filter="url(#glowSm)" opacity="0">
  <title>Jul 3
1 Contribution</title>
  <animate attributeName="opacity" from="0" to="1" dur="0.4s" begin="1.58s" fill="freeze"/>
  <animate attributeName="r" values="2.6;3.6;2.6" dur="4s" begin="1.98s" repeatCount="indefinite"/>
</circle>
<circle cx="461.7" cy="430.0" r="2.2" fill="#58A6B8" stroke="#0d0d0d" stroke-width="1" filter="url(#glowSm)" opacity="0">
  <title>Jul 4
0 Contributions</title>
  <animate attributeName="opacity" from="0" to="1" dur="0.4s" begin="1.64s" fill="freeze"/>
  <animate attributeName="r" values="2.2;3.2;2.2" dur="4s" begin="2.04s" repeatCount="indefinite"/>
</circle>
<circle cx="488.3" cy="408.0" r="2.6" fill="#58A6B8" stroke="#0d0d0d" stroke-width="1" filter="url(#glowSm)" opacity="0">
  <title>Jul 5
1 Contribution</title>
  <animate attributeName="opacity" from="0" to="1" dur="0.4s" begin="1.70s" fill="freeze"/>
  <animate attributeName="r" values="2.6;3.6;2.6" dur="4s" begin="2.10s" repeatCount="indefinite"/>
</circle>
<circle cx="514.8" cy="430.0" r="2.2" fill="#58A6B8" stroke="#0d0d0d" stroke-width="1" filter="url(#glowSm)" opacity="0">
  <title>Jul 6
0 Contributions</title>
  <animate attributeName="opacity" from="0" to="1" dur="0.4s" begin="1.76s" fill="freeze"/>
  <animate attributeName="r" values="2.2;3.2;2.2" dur="4s" begin="2.16s" repeatCount="indefinite"/>
</circle>
<circle cx="541.4" cy="364.0" r="3.4" fill="#58A6B8" stroke="#0d0d0d" stroke-width="1" filter="url(#glowSm)" opacity="0">
  <title>Jul 7
3 Contributions</title>
  <animate attributeName="opacity" from="0" to="1" dur="0.4s" begin="1.82s" fill="freeze"/>
  <animate attributeName="r" values="3.4;4.4;3.4" dur="4s" begin="2.22s" repeatCount="indefinite"/>
</circle>
<circle cx="567.9" cy="408.0" r="2.6" fill="#58A6B8" stroke="#0d0d0d" stroke-width="1" filter="url(#glowSm)" opacity="0">
  <title>Jul 8
1 Contribution</title>
  <animate attributeName="opacity" from="0" to="1" dur="0.4s" begin="1.88s" fill="freeze"/>
  <animate attributeName="r" values="2.6;3.6;2.6" dur="4s" begin="2.28s" repeatCount="indefinite"/>
</circle>
<circle cx="594.5" cy="430.0" r="2.2" fill="#58A6B8" stroke="#0d0d0d" stroke-width="1" filter="url(#glowSm)" opacity="0">
  <title>Jul 9
0 Contributions</title>
  <animate attributeName="opacity" from="0" to="1" dur="0.4s" begin="1.94s" fill="freeze"/>
  <animate attributeName="r" values="2.2;3.2;2.2" dur="4s" begin="2.34s" repeatCount="indefinite"/>
</circle>
<circle cx="621.0" cy="430.0" r="2.2" fill="#58A6B8" stroke="#0d0d0d" stroke-width="1" filter="url(#glowSm)" opacity="0">
  <title>Jul 10
0 Contributions</title>
  <animate attributeName="opacity" from="0" to="1" dur="0.4s" begin="2.00s" fill="freeze"/>
  <animate attributeName="r" values="2.2;3.2;2.2" dur="4s" begin="2.40s" repeatCount="indefinite"/>
</circle>
<circle cx="647.6" cy="430.0" r="2.2" fill="#58A6B8" stroke="#0d0d0d" stroke-width="1" filter="url(#glowSm)" opacity="0">
  <title>Jul 11
0 Contributions</title>
  <animate attributeName="opacity" from="0" to="1" dur="0.4s" begin="2.06s" fill="freeze"/>
  <animate attributeName="r" values="2.2;3.2;2.2" dur="4s" begin="2.46s" repeatCount="indefinite"/>
</circle>
<circle cx="674.1" cy="430.0" r="2.2" fill="#58A6B8" stroke="#0d0d0d" stroke-width="1" filter="url(#glowSm)" opacity="0">
  <title>Jul 12
0 Contributions</title>
  <animate attributeName="opacity" from="0" to="1" dur="0.4s" begin="2.12s" fill="freeze"/>
  <animate attributeName="r" values="2.2;3.2;2.2" dur="4s" begin="2.52s" repeatCount="indefinite"/>
</circle>
<circle cx="700.7" cy="408.0" r="2.6" fill="#58A6B8" stroke="#0d0d0d" stroke-width="1" filter="url(#glowSm)" opacity="0">
  <title>Jul 13
1 Contribution</title>
  <animate attributeName="opacity" from="0" to="1" dur="0.4s" begin="2.18s" fill="freeze"/>
  <animate attributeName="r" values="2.6;3.6;2.6" dur="4s" begin="2.58s" repeatCount="indefinite"/>
</circle>
<circle cx="727.2" cy="430.0" r="2.2" fill="#58A6B8" stroke="#0d0d0d" stroke-width="1" filter="url(#glowSm)" opacity="0">
  <title>Jul 14
0 Contributions</title>
  <animate attributeName="opacity" from="0" to="1" dur="0.4s" begin="2.24s" fill="freeze"/>
  <animate attributeName="r" values="2.2;3.2;2.2" dur="4s" begin="2.64s" repeatCount="indefinite"/>
</circle>
<circle cx="753.8" cy="408.0" r="2.6" fill="#58A6B8" stroke="#0d0d0d" stroke-width="1" filter="url(#glowSm)" opacity="0">
  <title>Jul 15
1 Contribution</title>
  <animate attributeName="opacity" from="0" to="1" dur="0.4s" begin="2.30s" fill="freeze"/>
  <animate attributeName="r" values="2.6;3.6;2.6" dur="4s" begin="2.70s" repeatCount="indefinite"/>
</circle>
<circle cx="780.3" cy="386.0" r="3.0" fill="#58A6B8" stroke="#0d0d0d" stroke-width="1" filter="url(#glowSm)" opacity="0">
  <title>Jul 16
2 Contributions</title>
  <animate attributeName="opacity" from="0" to="1" dur="0.4s" begin="2.36s" fill="freeze"/>
  <animate attributeName="r" values="3.0;4.0;3.0" dur="4s" begin="2.76s" repeatCount="indefinite"/>
</circle>
<circle cx="806.9" cy="364.0" r="3.4" fill="#58A6B8" stroke="#0d0d0d" stroke-width="1" filter="url(#glowSm)" opacity="0">
  <title>Jul 17
3 Contributions</title>
  <animate attributeName="opacity" from="0" to="1" dur="0.4s" begin="2.42s" fill="freeze"/>
  <animate attributeName="r" values="3.4;4.4;3.4" dur="4s" begin="2.82s" repeatCount="indefinite"/>
</circle>
<circle cx="833.4" cy="342.0" r="3.8" fill="#58A6B8" stroke="#0d0d0d" stroke-width="1" filter="url(#glowSm)" opacity="0">
  <title>Jul 18
4 Contributions</title>
  <animate attributeName="opacity" from="0" to="1" dur="0.4s" begin="2.48s" fill="freeze"/>
  <animate attributeName="r" values="3.8;4.8;3.8" dur="4s" begin="2.88s" repeatCount="indefinite"/>
</circle>
<circle cx="860.0" cy="430.0" r="2.2" fill="#58A6B8" stroke="#0d0d0d" stroke-width="1" filter="url(#glowSm)" opacity="0">
  <title>Jul 19
0 Contributions</title>
  <animate attributeName="opacity" from="0" to="1" dur="0.4s" begin="2.54s" fill="freeze"/>
  <animate attributeName="r" values="2.2;3.2;2.2" dur="4s" begin="2.94s" repeatCount="indefinite"/>
</circle>
<text x="90" y="466" text-anchor="start" font-family="Georgia,'Palatino Linotype',serif" font-size="10" fill="#5a7a80" letter-spacing="1.5">JUN</text>
<text x="860" y="466" text-anchor="end" font-family="Georgia,'Palatino Linotype',serif" font-size="10" fill="#5a7a80" letter-spacing="1.5">JUL</text>
<text x="450" y="522" text-anchor="middle" font-family="Georgia,'Palatino Linotype',serif" font-size="9" fill="#5a7a80" letter-spacing="4" opacity="0.5">LAST 30 DAYS OF DARK RITUALS</text>
</svg>