<svg xmlns="http://www.w3.org/2000/svg" viewBox="0 0 900 540" width="900" height="540">
<defs>
  <!-- Gradients -->
  <linearGradient id="areaFill" x1="0" y1="0" x2="0" y2="1">
    <stop offset="0%" stop-color="#58A6B8" stop-opacity="0.28"/>
    <stop offset="85%" stop-color="#58A6B8" stop-opacity="0.03"/>
    <stop offset="100%" stop-color="#58A6B8" stop-opacity="0"/>
  </linearGradient>
  <radialGradient id="haloGrad" cx="50%" cy="50%" r="50%">
    <stop offset="0%" stop-color="#58A6B8" stop-opacity="0.5"/>
    <stop offset="100%" stop-color="#58A6B8" stop-opacity="0"/>
  </radialGradient>
  <linearGradient id="frameFade" x1="0" y1="0" x2="1" y2="1">
    <stop offset="0%" stop-color="#58A6B8" stop-opacity="0.35"/>
    <stop offset="50%" stop-color="#58A6B8" stop-opacity="0.12"/>
    <stop offset="100%" stop-color="#58A6B8" stop-opacity="0.35"/>
  </linearGradient>
  <!-- Filters -->
  <filter id="glowSm" x="-50%" y="-50%" width="200%" height="200%">
    <feGaussianBlur stdDeviation="2.5" result="b"/><feMerge><feMergeNode in="b"/><feMergeNode in="SourceGraphic"/></feMerge>
  </filter>
  <filter id="glowMd" x="-50%" y="-50%" width="200%" height="200%">
    <feGaussianBlur stdDeviation="5" result="b"/><feMerge><feMergeNode in="b"/><feMergeNode in="SourceGraphic"/></feMerge>
  </filter>
  <filter id="glowLg" x="-80%" y="-80%" width="260%" height="260%">
    <feGaussianBlur stdDeviation="10" result="b"/><feMerge><feMergeNode in="b"/><feMergeNode in="SourceGraphic"/></feMerge>
  </filter>
  <filter id="cardShadow" x="-10%" y="-10%" width="120%" height="130%">
    <feGaussianBlur stdDeviation="6" result="b"/><feFlood flood-color="#58A6B8" flood-opacity="0.08" result="c"/>
    <feComposite in="c" in2="b" operator="in" result="s"/><feMerge><feMergeNode in="s"/><feMergeNode in="SourceGraphic"/></feMerge>
  </filter>
</defs>

<!-- Background -->
<rect width="900" height="540" fill="#0d0d0d" rx="16"/>
<line x1="90" y1="210.0" x2="860" y2="210.0" stroke="rgba(88,166,184,0.055)" stroke-width="0.7"/>
<line x1="90" y1="246.7" x2="860" y2="246.7" stroke="rgba(88,166,184,0.055)" stroke-width="0.7"/>
<line x1="90" y1="283.3" x2="860" y2="283.3" stroke="rgba(88,166,184,0.055)" stroke-width="0.7"/>
<line x1="90" y1="320.0" x2="860" y2="320.0" stroke="rgba(88,166,184,0.055)" stroke-width="0.7"/>
<line x1="90" y1="356.7" x2="860" y2="356.7" stroke="rgba(88,166,184,0.055)" stroke-width="0.7"/>
<line x1="90" y1="393.3" x2="860" y2="393.3" stroke="rgba(88,166,184,0.055)" stroke-width="0.7"/>
<line x1="90" y1="430.0" x2="860" y2="430.0" stroke="rgba(88,166,184,0.055)" stroke-width="0.7"/>
<line x1="90.0" y1="210" x2="90.0" y2="430" stroke="rgba(88,166,184,0.055)" stroke-width="0.5"/>
<line x1="222.8" y1="210" x2="222.8" y2="430" stroke="rgba(88,166,184,0.055)" stroke-width="0.5"/>
<line x1="355.5" y1="210" x2="355.5" y2="430" stroke="rgba(88,166,184,0.055)" stroke-width="0.5"/>
<line x1="488.3" y1="210" x2="488.3" y2="430" stroke="rgba(88,166,184,0.055)" stroke-width="0.5"/>
<line x1="621.0" y1="210" x2="621.0" y2="430" stroke="rgba(88,166,184,0.055)" stroke-width="0.5"/>
<line x1="753.8" y1="210" x2="753.8" y2="430" stroke="rgba(88,166,184,0.055)" stroke-width="0.5"/>
<circle cx="621.7" cy="193.2" r="1.0" fill="#58A6B8" opacity="0.151"><animate attributeName="opacity" values="0.151;0.332;0.151" dur="3.7s" begin="4.1s" repeatCount="indefinite"/></circle>
<circle cx="531.4" cy="178.4" r="0.5" fill="#58A6B8" opacity="0.067"><animate attributeName="opacity" values="0.067;0.147;0.067" dur="3.9s" begin="2.7s" repeatCount="indefinite"/></circle>
<circle cx="305.2" cy="285.3" r="1.2" fill="#58A6B8" opacity="0.048"><animate attributeName="opacity" values="0.048;0.106;0.048" dur="4.7s" begin="2.4s" repeatCount="indefinite"/></circle>
<circle cx="353.6" cy="423.6" r="0.9" fill="#58A6B8" opacity="0.124"><animate attributeName="opacity" values="0.124;0.273;0.124" dur="5.2s" begin="4.7s" repeatCount="indefinite"/></circle>
<circle cx="552.9" cy="298.5" r="1.4" fill="#58A6B8" opacity="0.084"><animate attributeName="opacity" values="0.084;0.185;0.084" dur="5.3s" begin="4.2s" repeatCount="indefinite"/></circle>
<circle cx="4.9" cy="407.4" r="0.6" fill="#58A6B8" opacity="0.128"><animate attributeName="opacity" values="0.128;0.282;0.128" dur="7.2s" begin="2.4s" repeatCount="indefinite"/></circle>
<circle cx="786.5" cy="262.7" r="0.9" fill="#58A6B8" opacity="0.106"><animate attributeName="opacity" values="0.106;0.233;0.106" dur="3.8s" begin="5.6s" repeatCount="indefinite"/></circle>
<circle cx="743.7" cy="286.2" r="0.8" fill="#58A6B8" opacity="0.105"><animate attributeName="opacity" values="0.105;0.231;0.105" dur="5.5s" begin="0.8s" repeatCount="indefinite"/></circle>
<circle cx="77.5" cy="194.4" r="1.0" fill="#58A6B8" opacity="0.116"><animate attributeName="opacity" values="0.116;0.255;0.116" dur="8.3s" begin="0.3s" repeatCount="indefinite"/></circle>
<circle cx="390.9" cy="372.6" r="1.4" fill="#58A6B8" opacity="0.090"><animate attributeName="opacity" values="0.090;0.198;0.090" dur="5.8s" begin="0.5s" repeatCount="indefinite"/></circle>
<circle cx="733.8" cy="429.8" r="0.6" fill="#58A6B8" opacity="0.111"><animate attributeName="opacity" values="0.111;0.244;0.111" dur="7.6s" begin="1.6s" repeatCount="indefinite"/></circle>
<circle cx="345.4" cy="48.7" r="0.8" fill="#58A6B8" opacity="0.094"><animate attributeName="opacity" values="0.094;0.207;0.094" dur="6.7s" begin="1.7s" repeatCount="indefinite"/></circle>
<circle cx="101.0" cy="225.3" r="0.9" fill="#58A6B8" opacity="0.062"><animate attributeName="opacity" values="0.062;0.136;0.062" dur="6.0s" begin="4.7s" repeatCount="indefinite"/></circle>
<circle cx="34.6" cy="411.9" r="0.7" fill="#58A6B8" opacity="0.084"><animate attributeName="opacity" values="0.084;0.185;0.084" dur="3.9s" begin="2.1s" repeatCount="indefinite"/></circle>
<circle cx="432.2" cy="73.9" r="0.4" fill="#58A6B8" opacity="0.133"><animate attributeName="opacity" values="0.133;0.293;0.133" dur="3.8s" begin="4.5s" repeatCount="indefinite"/></circle>
<circle cx="670.4" cy="258.4" r="1.2" fill="#58A6B8" opacity="0.126"><animate attributeName="opacity" values="0.126;0.277;0.126" dur="6.5s" begin="2.7s" repeatCount="indefinite"/></circle>
<circle cx="387.9" cy="401.2" r="0.8" fill="#58A6B8" opacity="0.043"><animate attributeName="opacity" values="0.043;0.095;0.043" dur="8.1s" begin="4.1s" repeatCount="indefinite"/></circle>
<circle cx="47.4" cy="33.0" r="1.0" fill="#58A6B8" opacity="0.074"><animate attributeName="opacity" values="0.074;0.163;0.074" dur="6.3s" begin="1.1s" repeatCount="indefinite"/></circle>
<circle cx="637.8" cy="380.2" r="0.7" fill="#58A6B8" opacity="0.089"><animate attributeName="opacity" values="0.089;0.196;0.089" dur="5.6s" begin="2.7s" repeatCount="indefinite"/></circle>
<circle cx="182.5" cy="329.8" r="0.5" fill="#58A6B8" opacity="0.082"><animate attributeName="opacity" values="0.082;0.180;0.082" dur="6.7s" begin="3.7s" repeatCount="indefinite"/></circle>
<circle cx="753.0" cy="385.9" r="0.7" fill="#58A6B8" opacity="0.097"><animate attributeName="opacity" values="0.097;0.213;0.097" dur="6.7s" begin="4.6s" repeatCount="indefinite"/></circle>
<circle cx="335.7" cy="295.9" r="0.8" fill="#58A6B8" opacity="0.157"><animate attributeName="opacity" values="0.157;0.345;0.157" dur="3.7s" begin="4.7s" repeatCount="indefinite"/></circle>
<circle cx="248.9" cy="342.3" r="0.4" fill="#58A6B8" opacity="0.088"><animate attributeName="opacity" values="0.088;0.194;0.088" dur="5.3s" begin="5.7s" repeatCount="indefinite"/></circle>
<circle cx="211.2" cy="306.5" r="0.5" fill="#58A6B8" opacity="0.154"><animate attributeName="opacity" values="0.154;0.339;0.154" dur="6.2s" begin="2.3s" repeatCount="indefinite"/></circle>
<circle cx="734.9" cy="31.7" r="0.8" fill="#58A6B8" opacity="0.124"><animate attributeName="opacity" values="0.124;0.273;0.124" dur="4.3s" begin="0.7s" repeatCount="indefinite"/></circle>
<circle cx="219.8" cy="190.0" r="1.4" fill="#58A6B8" opacity="0.054"><animate attributeName="opacity" values="0.054;0.119;0.054" dur="5.7s" begin="3.1s" repeatCount="indefinite"/></circle>
<circle cx="132.9" cy="531.9" r="1.2" fill="#58A6B8" opacity="0.085"><animate attributeName="opacity" values="0.085;0.187;0.085" dur="4.5s" begin="3.9s" repeatCount="indefinite"/></circle>
<circle cx="704.4" cy="389.4" r="0.7" fill="#58A6B8" opacity="0.116"><animate attributeName="opacity" values="0.116;0.255;0.116" dur="3.8s" begin="5.1s" repeatCount="indefinite"/></circle>
<circle cx="690.9" cy="319.1" r="0.6" fill="#58A6B8" opacity="0.055"><animate attributeName="opacity" values="0.055;0.121;0.055" dur="7.2s" begin="3.7s" repeatCount="indefinite"/></circle>
<circle cx="272.3" cy="298.7" r="1.1" fill="#58A6B8" opacity="0.041"><animate attributeName="opacity" values="0.041;0.090;0.041" dur="5.3s" begin="3.2s" repeatCount="indefinite"/></circle>
<circle cx="524.7" cy="411.0" r="1.0" fill="#58A6B8" opacity="0.107"><animate attributeName="opacity" values="0.107;0.235;0.107" dur="6.7s" begin="0.7s" repeatCount="indefinite"/></circle>
<circle cx="213.0" cy="266.8" r="0.7" fill="#58A6B8" opacity="0.121"><animate attributeName="opacity" values="0.121;0.266;0.121" dur="5.7s" begin="3.6s" repeatCount="indefinite"/></circle>
<circle cx="643.6" cy="537.4" r="0.5" fill="#58A6B8" opacity="0.132"><animate attributeName="opacity" values="0.132;0.290;0.132" dur="5.0s" begin="0.5s" repeatCount="indefinite"/></circle>
<circle cx="618.8" cy="255.2" r="1.2" fill="#58A6B8" opacity="0.118"><animate attributeName="opacity" values="0.118;0.260;0.118" dur="4.0s" begin="2.7s" repeatCount="indefinite"/></circle>
<circle cx="687.5" cy="448.0" r="0.5" fill="#58A6B8" opacity="0.143"><animate attributeName="opacity" values="0.143;0.315;0.143" dur="4.1s" begin="3.4s" repeatCount="indefinite"/></circle>
<circle cx="629.4" cy="82.9" r="1.1" fill="#58A6B8" opacity="0.092"><animate attributeName="opacity" values="0.092;0.202;0.092" dur="4.9s" begin="1.6s" repeatCount="indefinite"/></circle>
<circle cx="508.4" cy="290.2" r="1.2" fill="#58A6B8" opacity="0.107"><animate attributeName="opacity" values="0.107;0.235;0.107" dur="3.8s" begin="4.0s" repeatCount="indefinite"/></circle>
<circle cx="807.1" cy="197.0" r="0.8" fill="#58A6B8" opacity="0.077"><animate attributeName="opacity" values="0.077;0.169;0.077" dur="5.6s" begin="2.6s" repeatCount="indefinite"/></circle>
<circle cx="215.6" cy="157.9" r="1.0" fill="#58A6B8" opacity="0.104"><animate attributeName="opacity" values="0.104;0.229;0.104" dur="7.4s" begin="5.7s" repeatCount="indefinite"/></circle>
<circle cx="347.8" cy="13.7" r="1.3" fill="#58A6B8" opacity="0.085"><animate attributeName="opacity" values="0.085;0.187;0.085" dur="7.7s" begin="5.5s" repeatCount="indefinite"/></circle>
<circle cx="107.2" cy="516.8" r="0.9" fill="#58A6B8" opacity="0.115"><animate attributeName="opacity" values="0.115;0.253;0.115" dur="8.4s" begin="2.2s" repeatCount="indefinite"/></circle>
<circle cx="706.0" cy="99.1" r="0.8" fill="#58A6B8" opacity="0.124"><animate attributeName="opacity" values="0.124;0.273;0.124" dur="8.2s" begin="2.9s" repeatCount="indefinite"/></circle>
<circle cx="476.3" cy="283.3" r="0.4" fill="#58A6B8" opacity="0.083"><animate attributeName="opacity" values="0.083;0.183;0.083" dur="5.7s" begin="1.1s" repeatCount="indefinite"/></circle>
<circle cx="688.4" cy="428.0" r="0.5" fill="#58A6B8" opacity="0.141"><animate attributeName="opacity" values="0.141;0.310;0.141" dur="5.4s" begin="0.2s" repeatCount="indefinite"/></circle>
<circle cx="294.0" cy="72.4" r="1.2" fill="#58A6B8" opacity="0.157"><animate attributeName="opacity" values="0.157;0.345;0.157" dur="5.1s" begin="2.1s" repeatCount="indefinite"/></circle>
<circle cx="492.6" cy="197.0" r="1.1" fill="#58A6B8" opacity="0.081"><animate attributeName="opacity" values="0.081;0.178;0.081" dur="8.1s" begin="5.0s" repeatCount="indefinite"/></circle>
<circle cx="276.9" cy="163.4" r="0.4" fill="#58A6B8" opacity="0.142"><animate attributeName="opacity" values="0.142;0.312;0.142" dur="5.5s" begin="1.3s" repeatCount="indefinite"/></circle>
<circle cx="157.6" cy="496.9" r="1.0" fill="#58A6B8" opacity="0.108"><animate attributeName="opacity" values="0.108;0.238;0.108" dur="4.1s" begin="4.8s" repeatCount="indefinite"/></circle>
<circle cx="451.5" cy="395.9" r="1.3" fill="#58A6B8" opacity="0.107"><animate attributeName="opacity" values="0.107;0.235;0.107" dur="6.8s" begin="5.6s" repeatCount="indefinite"/></circle>
<circle cx="774.3" cy="518.0" r="1.2" fill="#58A6B8" opacity="0.068"><animate attributeName="opacity" values="0.068;0.150;0.068" dur="7.4s" begin="4.5s" repeatCount="indefinite"/></circle>
<circle cx="612.4" cy="241.6" r="1.0" fill="#58A6B8" opacity="0.074"><animate attributeName="opacity" values="0.074;0.163;0.074" dur="7.6s" begin="5.4s" repeatCount="indefinite"/></circle>
<circle cx="492.9" cy="354.1" r="0.3" fill="#58A6B8" opacity="0.136"><animate attributeName="opacity" values="0.136;0.299;0.136" dur="4.4s" begin="1.7s" repeatCount="indefinite"/></circle>
<circle cx="164.5" cy="255.2" r="0.9" fill="#58A6B8" opacity="0.125"><animate attributeName="opacity" values="0.125;0.275;0.125" dur="6.2s" begin="4.4s" repeatCount="indefinite"/></circle>
<circle cx="833.5" cy="217.7" r="0.9" fill="#58A6B8" opacity="0.084"><animate attributeName="opacity" values="0.084;0.185;0.084" dur="7.5s" begin="3.3s" repeatCount="indefinite"/></circle>
<circle cx="499.6" cy="467.7" r="0.3" fill="#58A6B8" opacity="0.050"><animate attributeName="opacity" values="0.050;0.110;0.050" dur="5.9s" begin="1.9s" repeatCount="indefinite"/></circle>
<g transform="translate(276.2,159.8) rotate(45)" opacity="0.066"><rect x="-1.9" y="-1.9" width="3.7" height="3.7" fill="#58A6B8"/><animate attributeName="opacity" values="0.066;0.165;0.066" dur="6.4s" begin="4.9s" repeatCount="indefinite"/></g>
<g transform="translate(735.5,205.5) rotate(45)" opacity="0.089"><rect x="-1.4" y="-1.4" width="2.8" height="2.8" fill="#58A6B8"/><animate attributeName="opacity" values="0.089;0.222;0.089" dur="8.9s" begin="4.6s" repeatCount="indefinite"/></g>
<g transform="translate(703.5,263.7) rotate(45)" opacity="0.059"><rect x="-1.4" y="-1.4" width="2.9" height="2.9" fill="#58A6B8"/><animate attributeName="opacity" values="0.059;0.147;0.059" dur="7.9s" begin="4.6s" repeatCount="indefinite"/></g>
<g transform="translate(830.0,277.1) rotate(45)" opacity="0.098"><rect x="-1.4" y="-1.4" width="2.7" height="2.7" fill="#58A6B8"/><animate attributeName="opacity" values="0.098;0.245;0.098" dur="8.3s" begin="0.7s" repeatCount="indefinite"/></g>
<g transform="translate(217.1,174.5) rotate(45)" opacity="0.095"><rect x="-1.6" y="-1.6" width="3.2" height="3.2" fill="#58A6B8"/><animate attributeName="opacity" values="0.095;0.237;0.095" dur="9.3s" begin="2.6s" repeatCount="indefinite"/></g>
<g transform="translate(101.0,171.1) rotate(45)" opacity="0.086"><rect x="-1.7" y="-1.7" width="3.3" height="3.3" fill="#58A6B8"/><animate attributeName="opacity" values="0.086;0.215;0.086" dur="8.0s" begin="1.2s" repeatCount="indefinite"/></g>
<g transform="translate(261.7,347.2) rotate(45)" opacity="0.064"><rect x="-1.5" y="-1.5" width="3.1" height="3.1" fill="#58A6B8"/><animate attributeName="opacity" values="0.064;0.160;0.064" dur="9.2s" begin="2.6s" repeatCount="indefinite"/></g>
<g transform="translate(173.2,247.3) rotate(45)" opacity="0.074"><rect x="-1.8" y="-1.8" width="3.6" height="3.6" fill="#58A6B8"/><animate attributeName="opacity" values="0.074;0.185;0.074" dur="9.8s" begin="3.1s" repeatCount="indefinite"/></g>
<g transform="translate(18,18) scale(1,1)"><path d="M0 25 L0 6 Q0 0 6 0 L25 0" fill="none" stroke="#58A6B8" stroke-width="1.3" opacity="0.35"/><circle cx="0" cy="0" r="1.8" fill="#58A6B8" opacity="0.4"/><path d="M0 12 L5 12" fill="none" stroke="#58A6B8" stroke-width="0.6" opacity="0.2"/><path d="M12 0 L12 5" fill="none" stroke="#58A6B8" stroke-width="0.6" opacity="0.2"/></g><g transform="translate(882,18) scale(-1,1)"><path d="M0 25 L0 6 Q0 0 6 0 L25 0" fill="none" stroke="#58A6B8" stroke-width="1.3" opacity="0.35"/><circle cx="0" cy="0" r="1.8" fill="#58A6B8" opacity="0.4"/><path d="M0 12 L5 12" fill="none" stroke="#58A6B8" stroke-width="0.6" opacity="0.2"/><path d="M12 0 L12 5" fill="none" stroke="#58A6B8" stroke-width="0.6" opacity="0.2"/></g><g transform="translate(18,522) scale(1,-1)"><path d="M0 25 L0 6 Q0 0 6 0 L25 0" fill="none" stroke="#58A6B8" stroke-width="1.3" opacity="0.35"/><circle cx="0" cy="0" r="1.8" fill="#58A6B8" opacity="0.4"/><path d="M0 12 L5 12" fill="none" stroke="#58A6B8" stroke-width="0.6" opacity="0.2"/><path d="M12 0 L12 5" fill="none" stroke="#58A6B8" stroke-width="0.6" opacity="0.2"/></g><g transform="translate(882,522) scale(-1,-1)"><path d="M0 25 L0 6 Q0 0 6 0 L25 0" fill="none" stroke="#58A6B8" stroke-width="1.3" opacity="0.35"/><circle cx="0" cy="0" r="1.8" fill="#58A6B8" opacity="0.4"/><path d="M0 12 L5 12" fill="none" stroke="#58A6B8" stroke-width="0.6" opacity="0.2"/><path d="M12 0 L12 5" fill="none" stroke="#58A6B8" stroke-width="0.6" opacity="0.2"/></g>
<rect x="10" y="10" width="880" height="520" rx="12" fill="none" stroke="url(#frameFade)" stroke-width="1"/>
<text x="450" y="50" text-anchor="middle" font-family="Georgia,'Palatino Linotype','Book Antiqua',Palatino,serif" font-size="22" font-weight="bold" fill="#e8f4f7" letter-spacing="8" filter="url(#glowMd)">✧ THE COMMIT COVEN ✧</text>
<line x1="310" y1="62" x2="590" y2="62" stroke="#58A6B8" stroke-width="0.5" opacity="0.25"/>
<g filter="url(#cardShadow)"><rect x="70" y="80" width="240" height="78" rx="10" fill="rgba(88,166,184,0.05)" stroke="rgba(88,166,184,0.22)" stroke-width="0.8"/><text x="190" y="110" text-anchor="middle" font-family="Georgia,'Palatino Linotype',serif" font-size="11" fill="#5a7a80" letter-spacing="3" text-transform="uppercase">LONGEST STREAK</text><text x="190" y="136" text-anchor="middle" font-family="Georgia,'Palatino Linotype',serif" font-size="20" fill="#e8f4f7" font-weight="bold" filter="url(#glowSm)">12 Nights</text></g>
<g filter="url(#cardShadow)"><rect x="330" y="80" width="240" height="78" rx="10" fill="rgba(88,166,184,0.05)" stroke="rgba(88,166,184,0.22)" stroke-width="0.8"/><text x="450" y="110" text-anchor="middle" font-family="Georgia,'Palatino Linotype',serif" font-size="11" fill="#5a7a80" letter-spacing="3" text-transform="uppercase">CURRENT RITUAL</text><text x="450" y="136" text-anchor="middle" font-family="Georgia,'Palatino Linotype',serif" font-size="20" fill="#e8f4f7" font-weight="bold" filter="url(#glowSm)">3 Nights</text></g>
<g filter="url(#cardShadow)"><rect x="590" y="80" width="240" height="78" rx="10" fill="rgba(88,166,184,0.05)" stroke="rgba(88,166,184,0.22)" stroke-width="0.8"/><text x="710" y="110" text-anchor="middle" font-family="Georgia,'Palatino Linotype',serif" font-size="11" fill="#5a7a80" letter-spacing="3" text-transform="uppercase">TOTAL OFFERINGS</text><text x="710" y="136" text-anchor="middle" font-family="Georgia,'Palatino Linotype',serif" font-size="20" fill="#e8f4f7" font-weight="bold" filter="url(#glowSm)">192</text></g>
<text x="80" y="434.0" text-anchor="end" font-family="'Courier New',monospace" font-size="10" fill="#5a7a80">0</text>
<line x1="86" y1="430.0" x2="90" y2="430.0" stroke="#5a7a80" stroke-width="0.5"/>
<text x="80" y="390.0" text-anchor="end" font-family="'Courier New',monospace" font-size="10" fill="#5a7a80">5</text>
<line x1="86" y1="386.0" x2="90" y2="386.0" stroke="#5a7a80" stroke-width="0.5"/>
<text x="80" y="346.0" text-anchor="end" font-family="'Courier New',monospace" font-size="10" fill="#5a7a80">10</text>
<line x1="86" y1="342.0" x2="90" y2="342.0" stroke="#5a7a80" stroke-width="0.5"/>
<text x="80" y="302.0" text-anchor="end" font-family="'Courier New',monospace" font-size="10" fill="#5a7a80">15</text>
<line x1="86" y1="298.0" x2="90" y2="298.0" stroke="#5a7a80" stroke-width="0.5"/>
<text x="80" y="258.0" text-anchor="end" font-family="'Courier New',monospace" font-size="10" fill="#5a7a80">20</text>
<line x1="86" y1="254.0" x2="90" y2="254.0" stroke="#5a7a80" stroke-width="0.5"/>
<text x="80" y="214.0" text-anchor="end" font-family="'Courier New',monospace" font-size="10" fill="#5a7a80">25</text>
<line x1="86" y1="210.0" x2="90" y2="210.0" stroke="#5a7a80" stroke-width="0.5"/>
<text x="90.0" y="450" text-anchor="middle" font-family="'Courier New',monospace" font-size="10" fill="#5a7a80">4</text>
<text x="196.2" y="450" text-anchor="middle" font-family="'Courier New',monospace" font-size="10" fill="#5a7a80">8</text>
<text x="302.4" y="450" text-anchor="middle" font-family="'Courier New',monospace" font-size="10" fill="#5a7a80">12</text>
<text x="408.6" y="450" text-anchor="middle" font-family="'Courier New',monospace" font-size="10" fill="#5a7a80">16</text>
<text x="514.8" y="450" text-anchor="middle" font-family="'Courier New',monospace" font-size="10" fill="#5a7a80">20</text>
<text x="621.0" y="450" text-anchor="middle" font-family="'Courier New',monospace" font-size="10" fill="#5a7a80">24</text>
<text x="727.2" y="450" text-anchor="middle" font-family="'Courier New',monospace" font-size="10" fill="#5a7a80">28</text>
<text x="833.4" y="450" text-anchor="middle" font-family="'Courier New',monospace" font-size="10" fill="#5a7a80">2</text>
<text x="860.0" y="450" text-anchor="middle" font-family="'Courier New',monospace" font-size="10" fill="#5a7a80">3</text>
<line x1="90" y1="210" x2="90" y2="430" stroke="#58A6B8" stroke-width="0.5" opacity="0.2"/>
<line x1="90" y1="430" x2="860" y2="430" stroke="#58A6B8" stroke-width="0.5" opacity="0.2"/>
<path d="M90.0 430.0 C93.5 430.0,109.5 430.0,116.6 430.0 C123.6 430.0,136.0 430.0,143.1 430.0 C150.2 430.0,162.6 430.0,169.7 430.0 C176.7 430.0,189.1 430.0,196.2 430.0 C203.3 430.0,215.7 430.0,222.8 430.0 C229.8 430.0,242.2 430.0,249.3 430.0 C256.4 430.0,268.8 430.0,275.9 430.0 C282.9 430.0,295.3 430.0,302.4 430.0 C309.5 430.0,321.9 435.9,329.0 430.0 C336.0 424.1,348.4 394.2,355.5 386.0 C362.6 377.8,375.0 367.2,382.1 368.4 C389.1 369.6,401.5 398.3,408.6 394.8 C415.7 391.3,428.1 350.2,435.2 342.0 C442.3 333.8,454.6 347.3,461.7 333.2 C468.8 319.1,481.2 228.2,488.3 236.4 C495.4 244.6,507.7 370.2,514.8 394.8 C521.9 419.4,534.3 418.9,541.4 421.2 C548.5 423.5,560.9 417.1,567.9 412.4 C575.0 407.7,587.4 387.2,594.5 386.0 C601.6 384.8,614.0 398.9,621.0 403.6 C628.1 408.3,640.5 417.7,647.6 421.2 C654.7 424.7,667.1 428.8,674.1 430.0 C681.2 431.2,693.6 430.0,700.7 430.0 C707.8 430.0,720.2 430.0,727.2 430.0 C734.3 430.0,746.7 435.9,753.8 430.0 C760.9 424.1,773.3 393.0,780.3 386.0 C787.4 379.0,799.8 381.9,806.9 377.2 C814.0 372.5,826.4 343.8,833.4 350.8 C840.5 357.8,856.5 419.4,860.0 430.0 L860.0 430 L90.0 430 Z" fill="url(#areaFill)" opacity="0.9">
  <animate attributeName="opacity" values="0;0.9" dur="2s" fill="freeze"/>
</path>
<path d="M90.0 430.0 C93.5 430.0,109.5 430.0,116.6 430.0 C123.6 430.0,136.0 430.0,143.1 430.0 C150.2 430.0,162.6 430.0,169.7 430.0 C176.7 430.0,189.1 430.0,196.2 430.0 C203.3 430.0,215.7 430.0,222.8 430.0 C229.8 430.0,242.2 430.0,249.3 430.0 C256.4 430.0,268.8 430.0,275.9 430.0 C282.9 430.0,295.3 430.0,302.4 430.0 C309.5 430.0,321.9 435.9,329.0 430.0 C336.0 424.1,348.4 394.2,355.5 386.0 C362.6 377.8,375.0 367.2,382.1 368.4 C389.1 369.6,401.5 398.3,408.6 394.8 C415.7 391.3,428.1 350.2,435.2 342.0 C442.3 333.8,454.6 347.3,461.7 333.2 C468.8 319.1,481.2 228.2,488.3 236.4 C495.4 244.6,507.7 370.2,514.8 394.8 C521.9 419.4,534.3 418.9,541.4 421.2 C548.5 423.5,560.9 417.1,567.9 412.4 C575.0 407.7,587.4 387.2,594.5 386.0 C601.6 384.8,614.0 398.9,621.0 403.6 C628.1 408.3,640.5 417.7,647.6 421.2 C654.7 424.7,667.1 428.8,674.1 430.0 C681.2 431.2,693.6 430.0,700.7 430.0 C707.8 430.0,720.2 430.0,727.2 430.0 C734.3 430.0,746.7 435.9,753.8 430.0 C760.9 424.1,773.3 393.0,780.3 386.0 C787.4 379.0,799.8 381.9,806.9 377.2 C814.0 372.5,826.4 343.8,833.4 350.8 C840.5 357.8,856.5 419.4,860.0 430.0" fill="none" stroke="#58A6B8" stroke-width="4" opacity="0.15" filter="url(#glowLg)" stroke-linecap="round" stroke-linejoin="round"/>
<path d="M90.0 430.0 C93.5 430.0,109.5 430.0,116.6 430.0 C123.6 430.0,136.0 430.0,143.1 430.0 C150.2 430.0,162.6 430.0,169.7 430.0 C176.7 430.0,189.1 430.0,196.2 430.0 C203.3 430.0,215.7 430.0,222.8 430.0 C229.8 430.0,242.2 430.0,249.3 430.0 C256.4 430.0,268.8 430.0,275.9 430.0 C282.9 430.0,295.3 430.0,302.4 430.0 C309.5 430.0,321.9 435.9,329.0 430.0 C336.0 424.1,348.4 394.2,355.5 386.0 C362.6 377.8,375.0 367.2,382.1 368.4 C389.1 369.6,401.5 398.3,408.6 394.8 C415.7 391.3,428.1 350.2,435.2 342.0 C442.3 333.8,454.6 347.3,461.7 333.2 C468.8 319.1,481.2 228.2,488.3 236.4 C495.4 244.6,507.7 370.2,514.8 394.8 C521.9 419.4,534.3 418.9,541.4 421.2 C548.5 423.5,560.9 417.1,567.9 412.4 C575.0 407.7,587.4 387.2,594.5 386.0 C601.6 384.8,614.0 398.9,621.0 403.6 C628.1 408.3,640.5 417.7,647.6 421.2 C654.7 424.7,667.1 428.8,674.1 430.0 C681.2 431.2,693.6 430.0,700.7 430.0 C707.8 430.0,720.2 430.0,727.2 430.0 C734.3 430.0,746.7 435.9,753.8 430.0 C760.9 424.1,773.3 393.0,780.3 386.0 C787.4 379.0,799.8 381.9,806.9 377.2 C814.0 372.5,826.4 343.8,833.4 350.8 C840.5 357.8,856.5 419.4,860.0 430.0" fill="none" stroke="#58A6B8" stroke-width="2.2" stroke-linecap="round" stroke-linejoin="round" filter="url(#glowSm)" stroke-dasharray="1537" stroke-dashoffset="1537">
  <animate attributeName="stroke-dashoffset" from="1537" to="0" dur="2.5s" fill="freeze" calcMode="spline" keySplines="0.4 0 0.2 1"/>
  <animate attributeName="opacity" values="0.7;1;0.85;1" dur="6s" begin="2.5s" repeatCount="indefinite"/>
</path>
<circle cx="90.0" cy="430.0" r="2.2" fill="#58A6B8" stroke="#0d0d0d" stroke-width="1" filter="url(#glowSm)" opacity="0">
  <title>Jun 4
0 Contributions</title>
  <animate attributeName="opacity" from="0" to="1" dur="0.4s" begin="0.80s" fill="freeze"/>
  <animate attributeName="r" values="2.2;3.2;2.2" dur="4s" begin="1.20s" repeatCount="indefinite"/>
</circle>
<circle cx="116.6" cy="430.0" r="2.2" fill="#58A6B8" stroke="#0d0d0d" stroke-width="1" filter="url(#glowSm)" opacity="0">
  <title>Jun 5
0 Contributions</title>
  <animate attributeName="opacity" from="0" to="1" dur="0.4s" begin="0.86s" fill="freeze"/>
  <animate attributeName="r" values="2.2;3.2;2.2" dur="4s" begin="1.26s" repeatCount="indefinite"/>
</circle>
<circle cx="143.1" cy="430.0" r="2.2" fill="#58A6B8" stroke="#0d0d0d" stroke-width="1" filter="url(#glowSm)" opacity="0">
  <title>Jun 6
0 Contributions</title>
  <animate attributeName="opacity" from="0" to="1" dur="0.4s" begin="0.92s" fill="freeze"/>
  <animate attributeName="r" values="2.2;3.2;2.2" dur="4s" begin="1.32s" repeatCount="indefinite"/>
</circle>
<circle cx="169.7" cy="430.0" r="2.2" fill="#58A6B8" stroke="#0d0d0d" stroke-width="1" filter="url(#glowSm)" opacity="0">
  <title>Jun 7
0 Contributions</title>
  <animate attributeName="opacity" from="0" to="1" dur="0.4s" begin="0.98s" fill="freeze"/>
  <animate attributeName="r" values="2.2;3.2;2.2" dur="4s" begin="1.38s" repeatCount="indefinite"/>
</circle>
<circle cx="196.2" cy="430.0" r="2.2" fill="#58A6B8" stroke="#0d0d0d" stroke-width="1" filter="url(#glowSm)" opacity="0">
  <title>Jun 8
0 Contributions</title>
  <animate attributeName="opacity" from="0" to="1" dur="0.4s" begin="1.04s" fill="freeze"/>
  <animate attributeName="r" values="2.2;3.2;2.2" dur="4s" begin="1.44s" repeatCount="indefinite"/>
</circle>
<circle cx="222.8" cy="430.0" r="2.2" fill="#58A6B8" stroke="#0d0d0d" stroke-width="1" filter="url(#glowSm)" opacity="0">
  <title>Jun 9
0 Contributions</title>
  <animate attributeName="opacity" from="0" to="1" dur="0.4s" begin="1.10s" fill="freeze"/>
  <animate attributeName="r" values="2.2;3.2;2.2" dur="4s" begin="1.50s" repeatCount="indefinite"/>
</circle>
<circle cx="249.3" cy="430.0" r="2.2" fill="#58A6B8" stroke="#0d0d0d" stroke-width="1" filter="url(#glowSm)" opacity="0">
  <title>Jun 10
0 Contributions</title>
  <animate attributeName="opacity" from="0" to="1" dur="0.4s" begin="1.16s" fill="freeze"/>
  <animate attributeName="r" values="2.2;3.2;2.2" dur="4s" begin="1.56s" repeatCount="indefinite"/>
</circle>
<circle cx="275.9" cy="430.0" r="2.2" fill="#58A6B8" stroke="#0d0d0d" stroke-width="1" filter="url(#glowSm)" opacity="0">
  <title>Jun 11
0 Contributions</title>
  <animate attributeName="opacity" from="0" to="1" dur="0.4s" begin="1.22s" fill="freeze"/>
  <animate attributeName="r" values="2.2;3.2;2.2" dur="4s" begin="1.62s" repeatCount="indefinite"/>
</circle>
<circle cx="302.4" cy="430.0" r="2.2" fill="#58A6B8" stroke="#0d0d0d" stroke-width="1" filter="url(#glowSm)" opacity="0">
  <title>Jun 12
0 Contributions</title>
  <animate attributeName="opacity" from="0" to="1" dur="0.4s" begin="1.28s" fill="freeze"/>
  <animate attributeName="r" values="2.2;3.2;2.2" dur="4s" begin="1.68s" repeatCount="indefinite"/>
</circle>
<circle cx="329.0" cy="430.0" r="2.2" fill="#58A6B8" stroke="#0d0d0d" stroke-width="1" filter="url(#glowSm)" opacity="0">
  <title>Jun 13
0 Contributions</title>
  <animate attributeName="opacity" from="0" to="1" dur="0.4s" begin="1.34s" fill="freeze"/>
  <animate attributeName="r" values="2.2;3.2;2.2" dur="4s" begin="1.74s" repeatCount="indefinite"/>
</circle>
<circle cx="355.5" cy="386.0" r="3.0" fill="#58A6B8" stroke="#0d0d0d" stroke-width="1" filter="url(#glowSm)" opacity="0">
  <title>Jun 14
5 Contributions</title>
  <animate attributeName="opacity" from="0" to="1" dur="0.4s" begin="1.40s" fill="freeze"/>
  <animate attributeName="r" values="3.0;4.0;3.0" dur="4s" begin="1.80s" repeatCount="indefinite"/>
</circle>
<circle cx="382.1" cy="368.4" r="3.3" fill="#58A6B8" stroke="#0d0d0d" stroke-width="1" filter="url(#glowSm)" opacity="0">
  <title>Jun 15
7 Contributions</title>
  <animate attributeName="opacity" from="0" to="1" dur="0.4s" begin="1.46s" fill="freeze"/>
  <animate attributeName="r" values="3.3;4.3;3.3" dur="4s" begin="1.86s" repeatCount="indefinite"/>
</circle>
<circle cx="408.6" cy="394.8" r="2.8" fill="#58A6B8" stroke="#0d0d0d" stroke-width="1" filter="url(#glowSm)" opacity="0">
  <title>Jun 16
4 Contributions</title>
  <animate attributeName="opacity" from="0" to="1" dur="0.4s" begin="1.52s" fill="freeze"/>
  <animate attributeName="r" values="2.8;3.8;2.8" dur="4s" begin="1.92s" repeatCount="indefinite"/>
</circle>
<circle cx="435.2" cy="342.0" r="3.8" fill="#58A6B8" stroke="#0d0d0d" stroke-width="1" filter="url(#glowSm)" opacity="0">
  <title>Jun 17
10 Contributions</title>
  <animate attributeName="opacity" from="0" to="1" dur="0.4s" begin="1.58s" fill="freeze"/>
  <animate attributeName="r" values="3.8;4.8;3.8" dur="4s" begin="1.98s" repeatCount="indefinite"/>
</circle>
<circle cx="461.7" cy="333.2" r="4.0" fill="#58A6B8" stroke="#0d0d0d" stroke-width="1" filter="url(#glowSm)" opacity="0">
  <title>Jun 18
11 Contributions</title>
  <animate attributeName="opacity" from="0" to="1" dur="0.4s" begin="1.64s" fill="freeze"/>
  <animate attributeName="r" values="4.0;5.0;4.0" dur="4s" begin="2.04s" repeatCount="indefinite"/>
</circle>
<circle cx="488.3" cy="236.4" r="18" fill="url(#haloGrad)" opacity="0">
  <animate attributeName="opacity" values="0;0.6;0.3;0.6" dur="4s" begin="1.70s" repeatCount="indefinite"/>
  <animate attributeName="r" values="14;22;14" dur="4s" begin="1.70s" repeatCount="indefinite"/>
</circle>
<circle cx="488.3" cy="236.4" r="7.2" fill="#e8f4f7" stroke="#0d0d0d" stroke-width="1" filter="url(#glowMd)" opacity="0">
  <title>Jun 19
22 Contributions</title>
  <animate attributeName="opacity" from="0" to="1" dur="0.4s" begin="1.70s" fill="freeze"/>
  <animate attributeName="r" values="7.2;9.2;7.2" dur="3s" begin="2.10s" repeatCount="indefinite"/>
</circle>
<circle cx="514.8" cy="394.8" r="2.8" fill="#58A6B8" stroke="#0d0d0d" stroke-width="1" filter="url(#glowSm)" opacity="0">
  <title>Jun 20
4 Contributions</title>
  <animate attributeName="opacity" from="0" to="1" dur="0.4s" begin="1.76s" fill="freeze"/>
  <animate attributeName="r" values="2.8;3.8;2.8" dur="4s" begin="2.16s" repeatCount="indefinite"/>
</circle>
<circle cx="541.4" cy="421.2" r="2.4" fill="#58A6B8" stroke="#0d0d0d" stroke-width="1" filter="url(#glowSm)" opacity="0">
  <title>Jun 21
1 Contribution</title>
  <animate attributeName="opacity" from="0" to="1" dur="0.4s" begin="1.82s" fill="freeze"/>
  <animate attributeName="r" values="2.4;3.4;2.4" dur="4s" begin="2.22s" repeatCount="indefinite"/>
</circle>
<circle cx="567.9" cy="412.4" r="2.5" fill="#58A6B8" stroke="#0d0d0d" stroke-width="1" filter="url(#glowSm)" opacity="0">
  <title>Jun 22
2 Contributions</title>
  <animate attributeName="opacity" from="0" to="1" dur="0.4s" begin="1.88s" fill="freeze"/>
  <animate attributeName="r" values="2.5;3.5;2.5" dur="4s" begin="2.28s" repeatCount="indefinite"/>
</circle>
<circle cx="594.5" cy="386.0" r="3.0" fill="#58A6B8" stroke="#0d0d0d" stroke-width="1" filter="url(#glowSm)" opacity="0">
  <title>Jun 23
5 Contributions</title>
  <animate attributeName="opacity" from="0" to="1" dur="0.4s" begin="1.94s" fill="freeze"/>
  <animate attributeName="r" values="3.0;4.0;3.0" dur="4s" begin="2.34s" repeatCount="indefinite"/>
</circle>
<circle cx="621.0" cy="403.6" r="2.7" fill="#58A6B8" stroke="#0d0d0d" stroke-width="1" filter="url(#glowSm)" opacity="0">
  <title>Jun 24
3 Contributions</title>
  <animate attributeName="opacity" from="0" to="1" dur="0.4s" begin="2.00s" fill="freeze"/>
  <animate attributeName="r" values="2.7;3.7;2.7" dur="4s" begin="2.40s" repeatCount="indefinite"/>
</circle>
<circle cx="647.6" cy="421.2" r="2.4" fill="#58A6B8" stroke="#0d0d0d" stroke-width="1" filter="url(#glowSm)" opacity="0">
  <title>Jun 25
1 Contribution</title>
  <animate attributeName="opacity" from="0" to="1" dur="0.4s" begin="2.06s" fill="freeze"/>
  <animate attributeName="r" values="2.4;3.4;2.4" dur="4s" begin="2.46s" repeatCount="indefinite"/>
</circle>
<circle cx="674.1" cy="430.0" r="2.2" fill="#58A6B8" stroke="#0d0d0d" stroke-width="1" filter="url(#glowSm)" opacity="0">
  <title>Jun 26
0 Contributions</title>
  <animate attributeName="opacity" from="0" to="1" dur="0.4s" begin="2.12s" fill="freeze"/>
  <animate attributeName="r" values="2.2;3.2;2.2" dur="4s" begin="2.52s" repeatCount="indefinite"/>
</circle>
<circle cx="700.7" cy="430.0" r="2.2" fill="#58A6B8" stroke="#0d0d0d" stroke-width="1" filter="url(#glowSm)" opacity="0">
  <title>Jun 27
0 Contributions</title>
  <animate attributeName="opacity" from="0" to="1" dur="0.4s" begin="2.18s" fill="freeze"/>
  <animate attributeName="r" values="2.2;3.2;2.2" dur="4s" begin="2.58s" repeatCount="indefinite"/>
</circle>
<circle cx="727.2" cy="430.0" r="2.2" fill="#58A6B8" stroke="#0d0d0d" stroke-width="1" filter="url(#glowSm)" opacity="0">
  <title>Jun 28
0 Contributions</title>
  <animate attributeName="opacity" from="0" to="1" dur="0.4s" begin="2.24s" fill="freeze"/>
  <animate attributeName="r" values="2.2;3.2;2.2" dur="4s" begin="2.64s" repeatCount="indefinite"/>
</circle>
<circle cx="753.8" cy="430.0" r="2.2" fill="#58A6B8" stroke="#0d0d0d" stroke-width="1" filter="url(#glowSm)" opacity="0">
  <title>Jun 29
0 Contributions</title>
  <animate attributeName="opacity" from="0" to="1" dur="0.4s" begin="2.30s" fill="freeze"/>
  <animate attributeName="r" values="2.2;3.2;2.2" dur="4s" begin="2.70s" repeatCount="indefinite"/>
</circle>
<circle cx="780.3" cy="386.0" r="3.0" fill="#58A6B8" stroke="#0d0d0d" stroke-width="1" filter="url(#glowSm)" opacity="0">
  <title>Jun 30
5 Contributions</title>
  <animate attributeName="opacity" from="0" to="1" dur="0.4s" begin="2.36s" fill="freeze"/>
  <animate attributeName="r" values="3.0;4.0;3.0" dur="4s" begin="2.76s" repeatCount="indefinite"/>
</circle>
<circle cx="806.9" cy="377.2" r="3.2" fill="#58A6B8" stroke="#0d0d0d" stroke-width="1" filter="url(#glowSm)" opacity="0">
  <title>Jul 1
6 Contributions</title>
  <animate attributeName="opacity" from="0" to="1" dur="0.4s" begin="2.42s" fill="freeze"/>
  <animate attributeName="r" values="3.2;4.2;3.2" dur="4s" begin="2.82s" repeatCount="indefinite"/>
</circle>
<circle cx="833.4" cy="350.8" r="3.6" fill="#58A6B8" stroke="#0d0d0d" stroke-width="1" filter="url(#glowSm)" opacity="0">
  <title>Jul 2
9 Contributions</title>
  <animate attributeName="opacity" from="0" to="1" dur="0.4s" begin="2.48s" fill="freeze"/>
  <animate attributeName="r" values="3.6;4.6;3.6" dur="4s" begin="2.88s" repeatCount="indefinite"/>
</circle>
<circle cx="860.0" cy="430.0" r="2.2" fill="#58A6B8" stroke="#0d0d0d" stroke-width="1" filter="url(#glowSm)" opacity="0">
  <title>Jul 3
0 Contributions</title>
  <animate attributeName="opacity" from="0" to="1" dur="0.4s" begin="2.54s" fill="freeze"/>
  <animate attributeName="r" values="2.2;3.2;2.2" dur="4s" begin="2.94s" repeatCount="indefinite"/>
</circle>
<text x="90" y="466" text-anchor="start" font-family="Georgia,'Palatino Linotype',serif" font-size="10" fill="#5a7a80" letter-spacing="1.5">JUN</text>
<text x="860" y="466" text-anchor="end" font-family="Georgia,'Palatino Linotype',serif" font-size="10" fill="#5a7a80" letter-spacing="1.5">JUL</text>
<text x="450" y="522" text-anchor="middle" font-family="Georgia,'Palatino Linotype',serif" font-size="9" fill="#5a7a80" letter-spacing="4" opacity="0.5">LAST 30 DAYS OF DARK RITUALS</text>
</svg>