<svg xmlns="http://www.w3.org/2000/svg" viewBox="0 0 900 540" width="900" height="540">
<defs>
  <!-- Gradients -->
  <linearGradient id="areaFill" x1="0" y1="0" x2="0" y2="1">
    <stop offset="0%" stop-color="#58A6B8" stop-opacity="0.28"/>
    <stop offset="85%" stop-color="#58A6B8" stop-opacity="0.03"/>
    <stop offset="100%" stop-color="#58A6B8" stop-opacity="0"/>
  </linearGradient>
  <radialGradient id="haloGrad" cx="50%" cy="50%" r="50%">
    <stop offset="0%" stop-color="#58A6B8" stop-opacity="0.5"/>
    <stop offset="100%" stop-color="#58A6B8" stop-opacity="0"/>
  </radialGradient>
  <linearGradient id="frameFade" x1="0" y1="0" x2="1" y2="1">
    <stop offset="0%" stop-color="#58A6B8" stop-opacity="0.35"/>
    <stop offset="50%" stop-color="#58A6B8" stop-opacity="0.12"/>
    <stop offset="100%" stop-color="#58A6B8" stop-opacity="0.35"/>
  </linearGradient>
  <!-- Filters -->
  <filter id="glowSm" x="-50%" y="-50%" width="200%" height="200%">
    <feGaussianBlur stdDeviation="2.5" result="b"/><feMerge><feMergeNode in="b"/><feMergeNode in="SourceGraphic"/></feMerge>
  </filter>
  <filter id="glowMd" x="-50%" y="-50%" width="200%" height="200%">
    <feGaussianBlur stdDeviation="5" result="b"/><feMerge><feMergeNode in="b"/><feMergeNode in="SourceGraphic"/></feMerge>
  </filter>
  <filter id="glowLg" x="-80%" y="-80%" width="260%" height="260%">
    <feGaussianBlur stdDeviation="10" result="b"/><feMerge><feMergeNode in="b"/><feMergeNode in="SourceGraphic"/></feMerge>
  </filter>
  <filter id="cardShadow" x="-10%" y="-10%" width="120%" height="130%">
    <feGaussianBlur stdDeviation="6" result="b"/><feFlood flood-color="#58A6B8" flood-opacity="0.08" result="c"/>
    <feComposite in="c" in2="b" operator="in" result="s"/><feMerge><feMergeNode in="s"/><feMergeNode in="SourceGraphic"/></feMerge>
  </filter>
</defs>

<!-- Background -->
<rect width="900" height="540" fill="#0d0d0d" rx="16"/>
<line x1="90" y1="210.0" x2="860" y2="210.0" stroke="rgba(88,166,184,0.055)" stroke-width="0.7"/>
<line x1="90" y1="246.7" x2="860" y2="246.7" stroke="rgba(88,166,184,0.055)" stroke-width="0.7"/>
<line x1="90" y1="283.3" x2="860" y2="283.3" stroke="rgba(88,166,184,0.055)" stroke-width="0.7"/>
<line x1="90" y1="320.0" x2="860" y2="320.0" stroke="rgba(88,166,184,0.055)" stroke-width="0.7"/>
<line x1="90" y1="356.7" x2="860" y2="356.7" stroke="rgba(88,166,184,0.055)" stroke-width="0.7"/>
<line x1="90" y1="393.3" x2="860" y2="393.3" stroke="rgba(88,166,184,0.055)" stroke-width="0.7"/>
<line x1="90" y1="430.0" x2="860" y2="430.0" stroke="rgba(88,166,184,0.055)" stroke-width="0.7"/>
<line x1="90.0" y1="210" x2="90.0" y2="430" stroke="rgba(88,166,184,0.055)" stroke-width="0.5"/>
<line x1="222.8" y1="210" x2="222.8" y2="430" stroke="rgba(88,166,184,0.055)" stroke-width="0.5"/>
<line x1="355.5" y1="210" x2="355.5" y2="430" stroke="rgba(88,166,184,0.055)" stroke-width="0.5"/>
<line x1="488.3" y1="210" x2="488.3" y2="430" stroke="rgba(88,166,184,0.055)" stroke-width="0.5"/>
<line x1="621.0" y1="210" x2="621.0" y2="430" stroke="rgba(88,166,184,0.055)" stroke-width="0.5"/>
<line x1="753.8" y1="210" x2="753.8" y2="430" stroke="rgba(88,166,184,0.055)" stroke-width="0.5"/>
<circle cx="596.7" cy="156.0" r="1.4" fill="#58A6B8" opacity="0.129"><animate attributeName="opacity" values="0.129;0.284;0.129" dur="4.9s" begin="3.2s" repeatCount="indefinite"/></circle>
<circle cx="635.7" cy="344.4" r="0.5" fill="#58A6B8" opacity="0.073"><animate attributeName="opacity" values="0.073;0.161;0.073" dur="8.1s" begin="0.7s" repeatCount="indefinite"/></circle>
<circle cx="396.5" cy="510.0" r="1.2" fill="#58A6B8" opacity="0.090"><animate attributeName="opacity" values="0.090;0.198;0.090" dur="4.9s" begin="2.4s" repeatCount="indefinite"/></circle>
<circle cx="682.4" cy="166.4" r="0.7" fill="#58A6B8" opacity="0.101"><animate attributeName="opacity" values="0.101;0.222;0.101" dur="6.2s" begin="4.1s" repeatCount="indefinite"/></circle>
<circle cx="869.4" cy="422.5" r="1.1" fill="#58A6B8" opacity="0.152"><animate attributeName="opacity" values="0.152;0.334;0.152" dur="5.0s" begin="0.2s" repeatCount="indefinite"/></circle>
<circle cx="632.2" cy="115.2" r="0.5" fill="#58A6B8" opacity="0.087"><animate attributeName="opacity" values="0.087;0.191;0.087" dur="4.5s" begin="3.9s" repeatCount="indefinite"/></circle>
<circle cx="422.0" cy="99.1" r="0.3" fill="#58A6B8" opacity="0.079"><animate attributeName="opacity" values="0.079;0.174;0.079" dur="8.5s" begin="5.6s" repeatCount="indefinite"/></circle>
<circle cx="753.9" cy="154.5" r="0.7" fill="#58A6B8" opacity="0.062"><animate attributeName="opacity" values="0.062;0.136;0.062" dur="4.7s" begin="3.0s" repeatCount="indefinite"/></circle>
<circle cx="84.6" cy="21.3" r="0.9" fill="#58A6B8" opacity="0.102"><animate attributeName="opacity" values="0.102;0.224;0.102" dur="7.8s" begin="5.4s" repeatCount="indefinite"/></circle>
<circle cx="541.1" cy="237.3" r="1.2" fill="#58A6B8" opacity="0.156"><animate attributeName="opacity" values="0.156;0.343;0.156" dur="8.5s" begin="5.4s" repeatCount="indefinite"/></circle>
<circle cx="692.4" cy="387.1" r="1.0" fill="#58A6B8" opacity="0.075"><animate attributeName="opacity" values="0.075;0.165;0.075" dur="6.0s" begin="3.2s" repeatCount="indefinite"/></circle>
<circle cx="129.1" cy="437.3" r="0.4" fill="#58A6B8" opacity="0.061"><animate attributeName="opacity" values="0.061;0.134;0.061" dur="4.1s" begin="4.3s" repeatCount="indefinite"/></circle>
<circle cx="830.2" cy="265.4" r="1.3" fill="#58A6B8" opacity="0.046"><animate attributeName="opacity" values="0.046;0.101;0.046" dur="6.7s" begin="4.6s" repeatCount="indefinite"/></circle>
<circle cx="654.9" cy="324.5" r="1.0" fill="#58A6B8" opacity="0.096"><animate attributeName="opacity" values="0.096;0.211;0.096" dur="6.7s" begin="4.2s" repeatCount="indefinite"/></circle>
<circle cx="310.7" cy="500.7" r="1.1" fill="#58A6B8" opacity="0.096"><animate attributeName="opacity" values="0.096;0.211;0.096" dur="8.2s" begin="2.9s" repeatCount="indefinite"/></circle>
<circle cx="348.7" cy="244.8" r="1.1" fill="#58A6B8" opacity="0.110"><animate attributeName="opacity" values="0.110;0.242;0.110" dur="6.0s" begin="1.7s" repeatCount="indefinite"/></circle>
<circle cx="481.6" cy="52.3" r="0.4" fill="#58A6B8" opacity="0.144"><animate attributeName="opacity" values="0.144;0.317;0.144" dur="7.6s" begin="3.2s" repeatCount="indefinite"/></circle>
<circle cx="19.1" cy="348.3" r="0.4" fill="#58A6B8" opacity="0.051"><animate attributeName="opacity" values="0.051;0.112;0.051" dur="4.2s" begin="2.5s" repeatCount="indefinite"/></circle>
<circle cx="612.5" cy="322.2" r="0.8" fill="#58A6B8" opacity="0.102"><animate attributeName="opacity" values="0.102;0.224;0.102" dur="5.0s" begin="5.9s" repeatCount="indefinite"/></circle>
<circle cx="570.5" cy="18.8" r="0.4" fill="#58A6B8" opacity="0.104"><animate attributeName="opacity" values="0.104;0.229;0.104" dur="5.4s" begin="4.2s" repeatCount="indefinite"/></circle>
<circle cx="242.4" cy="311.0" r="0.9" fill="#58A6B8" opacity="0.076"><animate attributeName="opacity" values="0.076;0.167;0.076" dur="4.7s" begin="2.3s" repeatCount="indefinite"/></circle>
<circle cx="319.2" cy="248.8" r="0.7" fill="#58A6B8" opacity="0.097"><animate attributeName="opacity" values="0.097;0.213;0.097" dur="4.9s" begin="0.9s" repeatCount="indefinite"/></circle>
<circle cx="282.2" cy="513.8" r="0.7" fill="#58A6B8" opacity="0.092"><animate attributeName="opacity" values="0.092;0.202;0.092" dur="8.3s" begin="5.8s" repeatCount="indefinite"/></circle>
<circle cx="203.7" cy="42.4" r="0.3" fill="#58A6B8" opacity="0.137"><animate attributeName="opacity" values="0.137;0.301;0.137" dur="8.3s" begin="3.2s" repeatCount="indefinite"/></circle>
<circle cx="26.7" cy="356.9" r="1.0" fill="#58A6B8" opacity="0.114"><animate attributeName="opacity" values="0.114;0.251;0.114" dur="8.1s" begin="3.8s" repeatCount="indefinite"/></circle>
<circle cx="643.7" cy="385.7" r="0.6" fill="#58A6B8" opacity="0.052"><animate attributeName="opacity" values="0.052;0.114;0.052" dur="4.0s" begin="1.7s" repeatCount="indefinite"/></circle>
<circle cx="609.9" cy="302.8" r="1.1" fill="#58A6B8" opacity="0.092"><animate attributeName="opacity" values="0.092;0.202;0.092" dur="5.1s" begin="3.5s" repeatCount="indefinite"/></circle>
<circle cx="109.8" cy="524.6" r="0.9" fill="#58A6B8" opacity="0.154"><animate attributeName="opacity" values="0.154;0.339;0.154" dur="3.8s" begin="3.2s" repeatCount="indefinite"/></circle>
<circle cx="665.1" cy="454.6" r="0.4" fill="#58A6B8" opacity="0.149"><animate attributeName="opacity" values="0.149;0.328;0.149" dur="4.9s" begin="0.3s" repeatCount="indefinite"/></circle>
<circle cx="160.3" cy="156.5" r="1.1" fill="#58A6B8" opacity="0.090"><animate attributeName="opacity" values="0.090;0.198;0.090" dur="6.2s" begin="0.7s" repeatCount="indefinite"/></circle>
<circle cx="876.5" cy="103.9" r="0.4" fill="#58A6B8" opacity="0.079"><animate attributeName="opacity" values="0.079;0.174;0.079" dur="5.1s" begin="4.1s" repeatCount="indefinite"/></circle>
<circle cx="228.5" cy="369.1" r="0.6" fill="#58A6B8" opacity="0.078"><animate attributeName="opacity" values="0.078;0.172;0.078" dur="5.5s" begin="3.4s" repeatCount="indefinite"/></circle>
<circle cx="670.2" cy="537.1" r="0.4" fill="#58A6B8" opacity="0.126"><animate attributeName="opacity" values="0.126;0.277;0.126" dur="7.2s" begin="2.5s" repeatCount="indefinite"/></circle>
<circle cx="396.3" cy="391.7" r="0.4" fill="#58A6B8" opacity="0.135"><animate attributeName="opacity" values="0.135;0.297;0.135" dur="6.9s" begin="1.2s" repeatCount="indefinite"/></circle>
<circle cx="629.7" cy="242.9" r="0.5" fill="#58A6B8" opacity="0.078"><animate attributeName="opacity" values="0.078;0.172;0.078" dur="8.3s" begin="6.0s" repeatCount="indefinite"/></circle>
<circle cx="536.1" cy="113.2" r="0.5" fill="#58A6B8" opacity="0.132"><animate attributeName="opacity" values="0.132;0.290;0.132" dur="3.7s" begin="4.8s" repeatCount="indefinite"/></circle>
<circle cx="787.6" cy="518.1" r="0.5" fill="#58A6B8" opacity="0.046"><animate attributeName="opacity" values="0.046;0.101;0.046" dur="5.9s" begin="3.0s" repeatCount="indefinite"/></circle>
<circle cx="667.8" cy="35.2" r="0.5" fill="#58A6B8" opacity="0.081"><animate attributeName="opacity" values="0.081;0.178;0.081" dur="5.1s" begin="4.0s" repeatCount="indefinite"/></circle>
<circle cx="558.5" cy="515.4" r="1.0" fill="#58A6B8" opacity="0.110"><animate attributeName="opacity" values="0.110;0.242;0.110" dur="4.0s" begin="5.9s" repeatCount="indefinite"/></circle>
<circle cx="214.0" cy="225.8" r="0.4" fill="#58A6B8" opacity="0.079"><animate attributeName="opacity" values="0.079;0.174;0.079" dur="4.6s" begin="1.4s" repeatCount="indefinite"/></circle>
<circle cx="67.3" cy="160.4" r="0.9" fill="#58A6B8" opacity="0.057"><animate attributeName="opacity" values="0.057;0.125;0.057" dur="6.5s" begin="1.0s" repeatCount="indefinite"/></circle>
<circle cx="37.7" cy="158.9" r="1.1" fill="#58A6B8" opacity="0.076"><animate attributeName="opacity" values="0.076;0.167;0.076" dur="7.2s" begin="4.2s" repeatCount="indefinite"/></circle>
<circle cx="30.0" cy="239.0" r="1.1" fill="#58A6B8" opacity="0.142"><animate attributeName="opacity" values="0.142;0.312;0.142" dur="5.9s" begin="3.7s" repeatCount="indefinite"/></circle>
<circle cx="422.9" cy="52.6" r="0.5" fill="#58A6B8" opacity="0.137"><animate attributeName="opacity" values="0.137;0.301;0.137" dur="5.8s" begin="3.2s" repeatCount="indefinite"/></circle>
<circle cx="800.1" cy="515.8" r="0.7" fill="#58A6B8" opacity="0.065"><animate attributeName="opacity" values="0.065;0.143;0.065" dur="5.9s" begin="5.5s" repeatCount="indefinite"/></circle>
<circle cx="213.1" cy="201.3" r="0.9" fill="#58A6B8" opacity="0.119"><animate attributeName="opacity" values="0.119;0.262;0.119" dur="8.5s" begin="1.4s" repeatCount="indefinite"/></circle>
<circle cx="590.8" cy="218.2" r="0.6" fill="#58A6B8" opacity="0.095"><animate attributeName="opacity" values="0.095;0.209;0.095" dur="5.9s" begin="6.0s" repeatCount="indefinite"/></circle>
<circle cx="270.8" cy="430.9" r="1.2" fill="#58A6B8" opacity="0.131"><animate attributeName="opacity" values="0.131;0.288;0.131" dur="4.6s" begin="0.3s" repeatCount="indefinite"/></circle>
<circle cx="409.5" cy="2.4" r="1.0" fill="#58A6B8" opacity="0.069"><animate attributeName="opacity" values="0.069;0.152;0.069" dur="5.8s" begin="5.7s" repeatCount="indefinite"/></circle>
<circle cx="402.8" cy="537.9" r="0.5" fill="#58A6B8" opacity="0.144"><animate attributeName="opacity" values="0.144;0.317;0.144" dur="4.9s" begin="4.1s" repeatCount="indefinite"/></circle>
<circle cx="584.9" cy="201.0" r="0.5" fill="#58A6B8" opacity="0.072"><animate attributeName="opacity" values="0.072;0.158;0.072" dur="7.3s" begin="1.8s" repeatCount="indefinite"/></circle>
<circle cx="291.2" cy="233.9" r="1.3" fill="#58A6B8" opacity="0.102"><animate attributeName="opacity" values="0.102;0.224;0.102" dur="8.5s" begin="3.2s" repeatCount="indefinite"/></circle>
<circle cx="494.3" cy="474.2" r="1.4" fill="#58A6B8" opacity="0.135"><animate attributeName="opacity" values="0.135;0.297;0.135" dur="7.2s" begin="0.7s" repeatCount="indefinite"/></circle>
<circle cx="749.4" cy="403.9" r="0.8" fill="#58A6B8" opacity="0.046"><animate attributeName="opacity" values="0.046;0.101;0.046" dur="8.3s" begin="2.6s" repeatCount="indefinite"/></circle>
<circle cx="316.1" cy="486.9" r="0.5" fill="#58A6B8" opacity="0.142"><animate attributeName="opacity" values="0.142;0.312;0.142" dur="8.1s" begin="4.1s" repeatCount="indefinite"/></circle>
<g transform="translate(229.7,233.7) rotate(45)" opacity="0.043"><rect x="-1.6" y="-1.6" width="3.2" height="3.2" fill="#58A6B8"/><animate attributeName="opacity" values="0.043;0.107;0.043" dur="8.3s" begin="4.5s" repeatCount="indefinite"/></g>
<g transform="translate(210.3,340.7) rotate(45)" opacity="0.044"><rect x="-1.4" y="-1.4" width="2.8" height="2.8" fill="#58A6B8"/><animate attributeName="opacity" values="0.044;0.110;0.044" dur="8.6s" begin="2.0s" repeatCount="indefinite"/></g>
<g transform="translate(226.4,242.5) rotate(45)" opacity="0.083"><rect x="-1.4" y="-1.4" width="2.8" height="2.8" fill="#58A6B8"/><animate attributeName="opacity" values="0.083;0.208;0.083" dur="6.6s" begin="4.1s" repeatCount="indefinite"/></g>
<g transform="translate(116.8,137.0) rotate(45)" opacity="0.077"><rect x="-2.0" y="-2.0" width="4.1" height="4.1" fill="#58A6B8"/><animate attributeName="opacity" values="0.077;0.193;0.077" dur="7.1s" begin="3.0s" repeatCount="indefinite"/></g>
<g transform="translate(455.4,283.5) rotate(45)" opacity="0.072"><rect x="-1.9" y="-1.9" width="3.7" height="3.7" fill="#58A6B8"/><animate attributeName="opacity" values="0.072;0.180;0.072" dur="7.3s" begin="4.5s" repeatCount="indefinite"/></g>
<g transform="translate(783.8,326.5) rotate(45)" opacity="0.094"><rect x="-1.7" y="-1.7" width="3.4" height="3.4" fill="#58A6B8"/><animate attributeName="opacity" values="0.094;0.235;0.094" dur="8.4s" begin="2.9s" repeatCount="indefinite"/></g>
<g transform="translate(739.9,370.8) rotate(45)" opacity="0.044"><rect x="-1.4" y="-1.4" width="2.8" height="2.8" fill="#58A6B8"/><animate attributeName="opacity" values="0.044;0.110;0.044" dur="7.2s" begin="3.8s" repeatCount="indefinite"/></g>
<g transform="translate(484.3,420.8) rotate(45)" opacity="0.090"><rect x="-1.8" y="-1.8" width="3.6" height="3.6" fill="#58A6B8"/><animate attributeName="opacity" values="0.090;0.225;0.090" dur="6.3s" begin="3.0s" repeatCount="indefinite"/></g>
<g transform="translate(18,18) scale(1,1)"><path d="M0 25 L0 6 Q0 0 6 0 L25 0" fill="none" stroke="#58A6B8" stroke-width="1.3" opacity="0.35"/><circle cx="0" cy="0" r="1.8" fill="#58A6B8" opacity="0.4"/><path d="M0 12 L5 12" fill="none" stroke="#58A6B8" stroke-width="0.6" opacity="0.2"/><path d="M12 0 L12 5" fill="none" stroke="#58A6B8" stroke-width="0.6" opacity="0.2"/></g><g transform="translate(882,18) scale(-1,1)"><path d="M0 25 L0 6 Q0 0 6 0 L25 0" fill="none" stroke="#58A6B8" stroke-width="1.3" opacity="0.35"/><circle cx="0" cy="0" r="1.8" fill="#58A6B8" opacity="0.4"/><path d="M0 12 L5 12" fill="none" stroke="#58A6B8" stroke-width="0.6" opacity="0.2"/><path d="M12 0 L12 5" fill="none" stroke="#58A6B8" stroke-width="0.6" opacity="0.2"/></g><g transform="translate(18,522) scale(1,-1)"><path d="M0 25 L0 6 Q0 0 6 0 L25 0" fill="none" stroke="#58A6B8" stroke-width="1.3" opacity="0.35"/><circle cx="0" cy="0" r="1.8" fill="#58A6B8" opacity="0.4"/><path d="M0 12 L5 12" fill="none" stroke="#58A6B8" stroke-width="0.6" opacity="0.2"/><path d="M12 0 L12 5" fill="none" stroke="#58A6B8" stroke-width="0.6" opacity="0.2"/></g><g transform="translate(882,522) scale(-1,-1)"><path d="M0 25 L0 6 Q0 0 6 0 L25 0" fill="none" stroke="#58A6B8" stroke-width="1.3" opacity="0.35"/><circle cx="0" cy="0" r="1.8" fill="#58A6B8" opacity="0.4"/><path d="M0 12 L5 12" fill="none" stroke="#58A6B8" stroke-width="0.6" opacity="0.2"/><path d="M12 0 L12 5" fill="none" stroke="#58A6B8" stroke-width="0.6" opacity="0.2"/></g>
<rect x="10" y="10" width="880" height="520" rx="12" fill="none" stroke="url(#frameFade)" stroke-width="1"/>
<text x="450" y="50" text-anchor="middle" font-family="Georgia,'Palatino Linotype','Book Antiqua',Palatino,serif" font-size="22" font-weight="bold" fill="#e8f4f7" letter-spacing="8" filter="url(#glowMd)">✧ THE COMMIT COVEN ✧</text>
<line x1="310" y1="62" x2="590" y2="62" stroke="#58A6B8" stroke-width="0.5" opacity="0.25"/>
<g filter="url(#cardShadow)"><rect x="70" y="80" width="240" height="78" rx="10" fill="rgba(88,166,184,0.05)" stroke="rgba(88,166,184,0.22)" stroke-width="0.8"/><text x="190" y="110" text-anchor="middle" font-family="Georgia,'Palatino Linotype',serif" font-size="11" fill="#5a7a80" letter-spacing="3" text-transform="uppercase">LONGEST STREAK</text><text x="190" y="136" text-anchor="middle" font-family="Georgia,'Palatino Linotype',serif" font-size="20" fill="#e8f4f7" font-weight="bold" filter="url(#glowSm)">12 Nights</text></g>
<g filter="url(#cardShadow)"><rect x="330" y="80" width="240" height="78" rx="10" fill="rgba(88,166,184,0.05)" stroke="rgba(88,166,184,0.22)" stroke-width="0.8"/><text x="450" y="110" text-anchor="middle" font-family="Georgia,'Palatino Linotype',serif" font-size="11" fill="#5a7a80" letter-spacing="3" text-transform="uppercase">CURRENT RITUAL</text><text x="450" y="136" text-anchor="middle" font-family="Georgia,'Palatino Linotype',serif" font-size="20" fill="#e8f4f7" font-weight="bold" filter="url(#glowSm)">2 Nights</text></g>
<g filter="url(#cardShadow)"><rect x="590" y="80" width="240" height="78" rx="10" fill="rgba(88,166,184,0.05)" stroke="rgba(88,166,184,0.22)" stroke-width="0.8"/><text x="710" y="110" text-anchor="middle" font-family="Georgia,'Palatino Linotype',serif" font-size="11" fill="#5a7a80" letter-spacing="3" text-transform="uppercase">TOTAL OFFERINGS</text><text x="710" y="136" text-anchor="middle" font-family="Georgia,'Palatino Linotype',serif" font-size="20" fill="#e8f4f7" font-weight="bold" filter="url(#glowSm)">183</text></g>
<text x="80" y="434.0" text-anchor="end" font-family="'Courier New',monospace" font-size="10" fill="#5a7a80">0</text>
<line x1="86" y1="430.0" x2="90" y2="430.0" stroke="#5a7a80" stroke-width="0.5"/>
<text x="80" y="390.0" text-anchor="end" font-family="'Courier New',monospace" font-size="10" fill="#5a7a80">5</text>
<line x1="86" y1="386.0" x2="90" y2="386.0" stroke="#5a7a80" stroke-width="0.5"/>
<text x="80" y="346.0" text-anchor="end" font-family="'Courier New',monospace" font-size="10" fill="#5a7a80">10</text>
<line x1="86" y1="342.0" x2="90" y2="342.0" stroke="#5a7a80" stroke-width="0.5"/>
<text x="80" y="302.0" text-anchor="end" font-family="'Courier New',monospace" font-size="10" fill="#5a7a80">15</text>
<line x1="86" y1="298.0" x2="90" y2="298.0" stroke="#5a7a80" stroke-width="0.5"/>
<text x="80" y="258.0" text-anchor="end" font-family="'Courier New',monospace" font-size="10" fill="#5a7a80">20</text>
<line x1="86" y1="254.0" x2="90" y2="254.0" stroke="#5a7a80" stroke-width="0.5"/>
<text x="80" y="214.0" text-anchor="end" font-family="'Courier New',monospace" font-size="10" fill="#5a7a80">25</text>
<line x1="86" y1="210.0" x2="90" y2="210.0" stroke="#5a7a80" stroke-width="0.5"/>
<text x="90.0" y="450" text-anchor="middle" font-family="'Courier New',monospace" font-size="10" fill="#5a7a80">2</text>
<text x="196.2" y="450" text-anchor="middle" font-family="'Courier New',monospace" font-size="10" fill="#5a7a80">6</text>
<text x="302.4" y="450" text-anchor="middle" font-family="'Courier New',monospace" font-size="10" fill="#5a7a80">10</text>
<text x="408.6" y="450" text-anchor="middle" font-family="'Courier New',monospace" font-size="10" fill="#5a7a80">14</text>
<text x="514.8" y="450" text-anchor="middle" font-family="'Courier New',monospace" font-size="10" fill="#5a7a80">18</text>
<text x="621.0" y="450" text-anchor="middle" font-family="'Courier New',monospace" font-size="10" fill="#5a7a80">22</text>
<text x="727.2" y="450" text-anchor="middle" font-family="'Courier New',monospace" font-size="10" fill="#5a7a80">26</text>
<text x="833.4" y="450" text-anchor="middle" font-family="'Courier New',monospace" font-size="10" fill="#5a7a80">30</text>
<text x="860.0" y="450" text-anchor="middle" font-family="'Courier New',monospace" font-size="10" fill="#5a7a80">1</text>
<line x1="90" y1="210" x2="90" y2="430" stroke="#58A6B8" stroke-width="0.5" opacity="0.2"/>
<line x1="90" y1="430" x2="860" y2="430" stroke="#58A6B8" stroke-width="0.5" opacity="0.2"/>
<path d="M90.0 430.0 C93.5 428.8,109.5 421.2,116.6 421.2 C123.6 421.2,136.0 428.8,143.1 430.0 C150.2 431.2,162.6 430.0,169.7 430.0 C176.7 430.0,189.1 430.0,196.2 430.0 C203.3 430.0,215.7 430.0,222.8 430.0 C229.8 430.0,242.2 430.0,249.3 430.0 C256.4 430.0,268.8 430.0,275.9 430.0 C282.9 430.0,295.3 430.0,302.4 430.0 C309.5 430.0,321.9 430.0,329.0 430.0 C336.0 430.0,348.4 430.0,355.5 430.0 C362.6 430.0,375.0 435.9,382.1 430.0 C389.1 424.1,401.5 394.2,408.6 386.0 C415.7 377.8,428.1 367.2,435.2 368.4 C442.3 369.6,454.6 398.3,461.7 394.8 C468.8 391.3,481.2 350.2,488.3 342.0 C495.4 333.8,507.7 347.3,514.8 333.2 C521.9 319.1,534.3 228.2,541.4 236.4 C548.5 244.6,560.9 370.2,567.9 394.8 C575.0 419.4,587.4 418.9,594.5 421.2 C601.6 423.5,614.0 417.1,621.0 412.4 C628.1 407.7,640.5 387.2,647.6 386.0 C654.7 384.8,667.1 398.9,674.1 403.6 C681.2 408.3,693.6 417.7,700.7 421.2 C707.8 424.7,720.2 428.8,727.2 430.0 C734.3 431.2,746.7 430.0,753.8 430.0 C760.9 430.0,773.3 430.0,780.3 430.0 C787.4 430.0,799.8 435.9,806.9 430.0 C814.0 424.1,826.4 393.0,833.4 386.0 C840.5 379.0,856.5 378.4,860.0 377.2 L860.0 430 L90.0 430 Z" fill="url(#areaFill)" opacity="0.9">
  <animate attributeName="opacity" values="0;0.9" dur="2s" fill="freeze"/>
</path>
<path d="M90.0 430.0 C93.5 428.8,109.5 421.2,116.6 421.2 C123.6 421.2,136.0 428.8,143.1 430.0 C150.2 431.2,162.6 430.0,169.7 430.0 C176.7 430.0,189.1 430.0,196.2 430.0 C203.3 430.0,215.7 430.0,222.8 430.0 C229.8 430.0,242.2 430.0,249.3 430.0 C256.4 430.0,268.8 430.0,275.9 430.0 C282.9 430.0,295.3 430.0,302.4 430.0 C309.5 430.0,321.9 430.0,329.0 430.0 C336.0 430.0,348.4 430.0,355.5 430.0 C362.6 430.0,375.0 435.9,382.1 430.0 C389.1 424.1,401.5 394.2,408.6 386.0 C415.7 377.8,428.1 367.2,435.2 368.4 C442.3 369.6,454.6 398.3,461.7 394.8 C468.8 391.3,481.2 350.2,488.3 342.0 C495.4 333.8,507.7 347.3,514.8 333.2 C521.9 319.1,534.3 228.2,541.4 236.4 C548.5 244.6,560.9 370.2,567.9 394.8 C575.0 419.4,587.4 418.9,594.5 421.2 C601.6 423.5,614.0 417.1,621.0 412.4 C628.1 407.7,640.5 387.2,647.6 386.0 C654.7 384.8,667.1 398.9,674.1 403.6 C681.2 408.3,693.6 417.7,700.7 421.2 C707.8 424.7,720.2 428.8,727.2 430.0 C734.3 431.2,746.7 430.0,753.8 430.0 C760.9 430.0,773.3 430.0,780.3 430.0 C787.4 430.0,799.8 435.9,806.9 430.0 C814.0 424.1,826.4 393.0,833.4 386.0 C840.5 379.0,856.5 378.4,860.0 377.2" fill="none" stroke="#58A6B8" stroke-width="4" opacity="0.15" filter="url(#glowLg)" stroke-linecap="round" stroke-linejoin="round"/>
<path d="M90.0 430.0 C93.5 428.8,109.5 421.2,116.6 421.2 C123.6 421.2,136.0 428.8,143.1 430.0 C150.2 431.2,162.6 430.0,169.7 430.0 C176.7 430.0,189.1 430.0,196.2 430.0 C203.3 430.0,215.7 430.0,222.8 430.0 C229.8 430.0,242.2 430.0,249.3 430.0 C256.4 430.0,268.8 430.0,275.9 430.0 C282.9 430.0,295.3 430.0,302.4 430.0 C309.5 430.0,321.9 430.0,329.0 430.0 C336.0 430.0,348.4 430.0,355.5 430.0 C362.6 430.0,375.0 435.9,382.1 430.0 C389.1 424.1,401.5 394.2,408.6 386.0 C415.7 377.8,428.1 367.2,435.2 368.4 C442.3 369.6,454.6 398.3,461.7 394.8 C468.8 391.3,481.2 350.2,488.3 342.0 C495.4 333.8,507.7 347.3,514.8 333.2 C521.9 319.1,534.3 228.2,541.4 236.4 C548.5 244.6,560.9 370.2,567.9 394.8 C575.0 419.4,587.4 418.9,594.5 421.2 C601.6 423.5,614.0 417.1,621.0 412.4 C628.1 407.7,640.5 387.2,647.6 386.0 C654.7 384.8,667.1 398.9,674.1 403.6 C681.2 408.3,693.6 417.7,700.7 421.2 C707.8 424.7,720.2 428.8,727.2 430.0 C734.3 431.2,746.7 430.0,753.8 430.0 C760.9 430.0,773.3 430.0,780.3 430.0 C787.4 430.0,799.8 435.9,806.9 430.0 C814.0 424.1,826.4 393.0,833.4 386.0 C840.5 379.0,856.5 378.4,860.0 377.2" fill="none" stroke="#58A6B8" stroke-width="2.2" stroke-linecap="round" stroke-linejoin="round" filter="url(#glowSm)" stroke-dasharray="1453" stroke-dashoffset="1453">
  <animate attributeName="stroke-dashoffset" from="1453" to="0" dur="2.5s" fill="freeze" calcMode="spline" keySplines="0.4 0 0.2 1"/>
  <animate attributeName="opacity" values="0.7;1;0.85;1" dur="6s" begin="2.5s" repeatCount="indefinite"/>
</path>
<circle cx="90.0" cy="430.0" r="2.2" fill="#58A6B8" stroke="#0d0d0d" stroke-width="1" filter="url(#glowSm)" opacity="0">
  <title>Jun 2
0 Contributions</title>
  <animate attributeName="opacity" from="0" to="1" dur="0.4s" begin="0.80s" fill="freeze"/>
  <animate attributeName="r" values="2.2;3.2;2.2" dur="4s" begin="1.20s" repeatCount="indefinite"/>
</circle>
<circle cx="116.6" cy="421.2" r="2.4" fill="#58A6B8" stroke="#0d0d0d" stroke-width="1" filter="url(#glowSm)" opacity="0">
  <title>Jun 3
1 Contribution</title>
  <animate attributeName="opacity" from="0" to="1" dur="0.4s" begin="0.86s" fill="freeze"/>
  <animate attributeName="r" values="2.4;3.4;2.4" dur="4s" begin="1.26s" repeatCount="indefinite"/>
</circle>
<circle cx="143.1" cy="430.0" r="2.2" fill="#58A6B8" stroke="#0d0d0d" stroke-width="1" filter="url(#glowSm)" opacity="0">
  <title>Jun 4
0 Contributions</title>
  <animate attributeName="opacity" from="0" to="1" dur="0.4s" begin="0.92s" fill="freeze"/>
  <animate attributeName="r" values="2.2;3.2;2.2" dur="4s" begin="1.32s" repeatCount="indefinite"/>
</circle>
<circle cx="169.7" cy="430.0" r="2.2" fill="#58A6B8" stroke="#0d0d0d" stroke-width="1" filter="url(#glowSm)" opacity="0">
  <title>Jun 5
0 Contributions</title>
  <animate attributeName="opacity" from="0" to="1" dur="0.4s" begin="0.98s" fill="freeze"/>
  <animate attributeName="r" values="2.2;3.2;2.2" dur="4s" begin="1.38s" repeatCount="indefinite"/>
</circle>
<circle cx="196.2" cy="430.0" r="2.2" fill="#58A6B8" stroke="#0d0d0d" stroke-width="1" filter="url(#glowSm)" opacity="0">
  <title>Jun 6
0 Contributions</title>
  <animate attributeName="opacity" from="0" to="1" dur="0.4s" begin="1.04s" fill="freeze"/>
  <animate attributeName="r" values="2.2;3.2;2.2" dur="4s" begin="1.44s" repeatCount="indefinite"/>
</circle>
<circle cx="222.8" cy="430.0" r="2.2" fill="#58A6B8" stroke="#0d0d0d" stroke-width="1" filter="url(#glowSm)" opacity="0">
  <title>Jun 7
0 Contributions</title>
  <animate attributeName="opacity" from="0" to="1" dur="0.4s" begin="1.10s" fill="freeze"/>
  <animate attributeName="r" values="2.2;3.2;2.2" dur="4s" begin="1.50s" repeatCount="indefinite"/>
</circle>
<circle cx="249.3" cy="430.0" r="2.2" fill="#58A6B8" stroke="#0d0d0d" stroke-width="1" filter="url(#glowSm)" opacity="0">
  <title>Jun 8
0 Contributions</title>
  <animate attributeName="opacity" from="0" to="1" dur="0.4s" begin="1.16s" fill="freeze"/>
  <animate attributeName="r" values="2.2;3.2;2.2" dur="4s" begin="1.56s" repeatCount="indefinite"/>
</circle>
<circle cx="275.9" cy="430.0" r="2.2" fill="#58A6B8" stroke="#0d0d0d" stroke-width="1" filter="url(#glowSm)" opacity="0">
  <title>Jun 9
0 Contributions</title>
  <animate attributeName="opacity" from="0" to="1" dur="0.4s" begin="1.22s" fill="freeze"/>
  <animate attributeName="r" values="2.2;3.2;2.2" dur="4s" begin="1.62s" repeatCount="indefinite"/>
</circle>
<circle cx="302.4" cy="430.0" r="2.2" fill="#58A6B8" stroke="#0d0d0d" stroke-width="1" filter="url(#glowSm)" opacity="0">
  <title>Jun 10
0 Contributions</title>
  <animate attributeName="opacity" from="0" to="1" dur="0.4s" begin="1.28s" fill="freeze"/>
  <animate attributeName="r" values="2.2;3.2;2.2" dur="4s" begin="1.68s" repeatCount="indefinite"/>
</circle>
<circle cx="329.0" cy="430.0" r="2.2" fill="#58A6B8" stroke="#0d0d0d" stroke-width="1" filter="url(#glowSm)" opacity="0">
  <title>Jun 11
0 Contributions</title>
  <animate attributeName="opacity" from="0" to="1" dur="0.4s" begin="1.34s" fill="freeze"/>
  <animate attributeName="r" values="2.2;3.2;2.2" dur="4s" begin="1.74s" repeatCount="indefinite"/>
</circle>
<circle cx="355.5" cy="430.0" r="2.2" fill="#58A6B8" stroke="#0d0d0d" stroke-width="1" filter="url(#glowSm)" opacity="0">
  <title>Jun 12
0 Contributions</title>
  <animate attributeName="opacity" from="0" to="1" dur="0.4s" begin="1.40s" fill="freeze"/>
  <animate attributeName="r" values="2.2;3.2;2.2" dur="4s" begin="1.80s" repeatCount="indefinite"/>
</circle>
<circle cx="382.1" cy="430.0" r="2.2" fill="#58A6B8" stroke="#0d0d0d" stroke-width="1" filter="url(#glowSm)" opacity="0">
  <title>Jun 13
0 Contributions</title>
  <animate attributeName="opacity" from="0" to="1" dur="0.4s" begin="1.46s" fill="freeze"/>
  <animate attributeName="r" values="2.2;3.2;2.2" dur="4s" begin="1.86s" repeatCount="indefinite"/>
</circle>
<circle cx="408.6" cy="386.0" r="3.0" fill="#58A6B8" stroke="#0d0d0d" stroke-width="1" filter="url(#glowSm)" opacity="0">
  <title>Jun 14
5 Contributions</title>
  <animate attributeName="opacity" from="0" to="1" dur="0.4s" begin="1.52s" fill="freeze"/>
  <animate attributeName="r" values="3.0;4.0;3.0" dur="4s" begin="1.92s" repeatCount="indefinite"/>
</circle>
<circle cx="435.2" cy="368.4" r="3.3" fill="#58A6B8" stroke="#0d0d0d" stroke-width="1" filter="url(#glowSm)" opacity="0">
  <title>Jun 15
7 Contributions</title>
  <animate attributeName="opacity" from="0" to="1" dur="0.4s" begin="1.58s" fill="freeze"/>
  <animate attributeName="r" values="3.3;4.3;3.3" dur="4s" begin="1.98s" repeatCount="indefinite"/>
</circle>
<circle cx="461.7" cy="394.8" r="2.8" fill="#58A6B8" stroke="#0d0d0d" stroke-width="1" filter="url(#glowSm)" opacity="0">
  <title>Jun 16
4 Contributions</title>
  <animate attributeName="opacity" from="0" to="1" dur="0.4s" begin="1.64s" fill="freeze"/>
  <animate attributeName="r" values="2.8;3.8;2.8" dur="4s" begin="2.04s" repeatCount="indefinite"/>
</circle>
<circle cx="488.3" cy="342.0" r="3.8" fill="#58A6B8" stroke="#0d0d0d" stroke-width="1" filter="url(#glowSm)" opacity="0">
  <title>Jun 17
10 Contributions</title>
  <animate attributeName="opacity" from="0" to="1" dur="0.4s" begin="1.70s" fill="freeze"/>
  <animate attributeName="r" values="3.8;4.8;3.8" dur="4s" begin="2.10s" repeatCount="indefinite"/>
</circle>
<circle cx="514.8" cy="333.2" r="4.0" fill="#58A6B8" stroke="#0d0d0d" stroke-width="1" filter="url(#glowSm)" opacity="0">
  <title>Jun 18
11 Contributions</title>
  <animate attributeName="opacity" from="0" to="1" dur="0.4s" begin="1.76s" fill="freeze"/>
  <animate attributeName="r" values="4.0;5.0;4.0" dur="4s" begin="2.16s" repeatCount="indefinite"/>
</circle>
<circle cx="541.4" cy="236.4" r="18" fill="url(#haloGrad)" opacity="0">
  <animate attributeName="opacity" values="0;0.6;0.3;0.6" dur="4s" begin="1.82s" repeatCount="indefinite"/>
  <animate attributeName="r" values="14;22;14" dur="4s" begin="1.82s" repeatCount="indefinite"/>
</circle>
<circle cx="541.4" cy="236.4" r="7.2" fill="#e8f4f7" stroke="#0d0d0d" stroke-width="1" filter="url(#glowMd)" opacity="0">
  <title>Jun 19
22 Contributions</title>
  <animate attributeName="opacity" from="0" to="1" dur="0.4s" begin="1.82s" fill="freeze"/>
  <animate attributeName="r" values="7.2;9.2;7.2" dur="3s" begin="2.22s" repeatCount="indefinite"/>
</circle>
<circle cx="567.9" cy="394.8" r="2.8" fill="#58A6B8" stroke="#0d0d0d" stroke-width="1" filter="url(#glowSm)" opacity="0">
  <title>Jun 20
4 Contributions</title>
  <animate attributeName="opacity" from="0" to="1" dur="0.4s" begin="1.88s" fill="freeze"/>
  <animate attributeName="r" values="2.8;3.8;2.8" dur="4s" begin="2.28s" repeatCount="indefinite"/>
</circle>
<circle cx="594.5" cy="421.2" r="2.4" fill="#58A6B8" stroke="#0d0d0d" stroke-width="1" filter="url(#glowSm)" opacity="0">
  <title>Jun 21
1 Contribution</title>
  <animate attributeName="opacity" from="0" to="1" dur="0.4s" begin="1.94s" fill="freeze"/>
  <animate attributeName="r" values="2.4;3.4;2.4" dur="4s" begin="2.34s" repeatCount="indefinite"/>
</circle>
<circle cx="621.0" cy="412.4" r="2.5" fill="#58A6B8" stroke="#0d0d0d" stroke-width="1" filter="url(#glowSm)" opacity="0">
  <title>Jun 22
2 Contributions</title>
  <animate attributeName="opacity" from="0" to="1" dur="0.4s" begin="2.00s" fill="freeze"/>
  <animate attributeName="r" values="2.5;3.5;2.5" dur="4s" begin="2.40s" repeatCount="indefinite"/>
</circle>
<circle cx="647.6" cy="386.0" r="3.0" fill="#58A6B8" stroke="#0d0d0d" stroke-width="1" filter="url(#glowSm)" opacity="0">
  <title>Jun 23
5 Contributions</title>
  <animate attributeName="opacity" from="0" to="1" dur="0.4s" begin="2.06s" fill="freeze"/>
  <animate attributeName="r" values="3.0;4.0;3.0" dur="4s" begin="2.46s" repeatCount="indefinite"/>
</circle>
<circle cx="674.1" cy="403.6" r="2.7" fill="#58A6B8" stroke="#0d0d0d" stroke-width="1" filter="url(#glowSm)" opacity="0">
  <title>Jun 24
3 Contributions</title>
  <animate attributeName="opacity" from="0" to="1" dur="0.4s" begin="2.12s" fill="freeze"/>
  <animate attributeName="r" values="2.7;3.7;2.7" dur="4s" begin="2.52s" repeatCount="indefinite"/>
</circle>
<circle cx="700.7" cy="421.2" r="2.4" fill="#58A6B8" stroke="#0d0d0d" stroke-width="1" filter="url(#glowSm)" opacity="0">
  <title>Jun 25
1 Contribution</title>
  <animate attributeName="opacity" from="0" to="1" dur="0.4s" begin="2.18s" fill="freeze"/>
  <animate attributeName="r" values="2.4;3.4;2.4" dur="4s" begin="2.58s" repeatCount="indefinite"/>
</circle>
<circle cx="727.2" cy="430.0" r="2.2" fill="#58A6B8" stroke="#0d0d0d" stroke-width="1" filter="url(#glowSm)" opacity="0">
  <title>Jun 26
0 Contributions</title>
  <animate attributeName="opacity" from="0" to="1" dur="0.4s" begin="2.24s" fill="freeze"/>
  <animate attributeName="r" values="2.2;3.2;2.2" dur="4s" begin="2.64s" repeatCount="indefinite"/>
</circle>
<circle cx="753.8" cy="430.0" r="2.2" fill="#58A6B8" stroke="#0d0d0d" stroke-width="1" filter="url(#glowSm)" opacity="0">
  <title>Jun 27
0 Contributions</title>
  <animate attributeName="opacity" from="0" to="1" dur="0.4s" begin="2.30s" fill="freeze"/>
  <animate attributeName="r" values="2.2;3.2;2.2" dur="4s" begin="2.70s" repeatCount="indefinite"/>
</circle>
<circle cx="780.3" cy="430.0" r="2.2" fill="#58A6B8" stroke="#0d0d0d" stroke-width="1" filter="url(#glowSm)" opacity="0">
  <title>Jun 28
0 Contributions</title>
  <animate attributeName="opacity" from="0" to="1" dur="0.4s" begin="2.36s" fill="freeze"/>
  <animate attributeName="r" values="2.2;3.2;2.2" dur="4s" begin="2.76s" repeatCount="indefinite"/>
</circle>
<circle cx="806.9" cy="430.0" r="2.2" fill="#58A6B8" stroke="#0d0d0d" stroke-width="1" filter="url(#glowSm)" opacity="0">
  <title>Jun 29
0 Contributions</title>
  <animate attributeName="opacity" from="0" to="1" dur="0.4s" begin="2.42s" fill="freeze"/>
  <animate attributeName="r" values="2.2;3.2;2.2" dur="4s" begin="2.82s" repeatCount="indefinite"/>
</circle>
<circle cx="833.4" cy="386.0" r="3.0" fill="#58A6B8" stroke="#0d0d0d" stroke-width="1" filter="url(#glowSm)" opacity="0">
  <title>Jun 30
5 Contributions</title>
  <animate attributeName="opacity" from="0" to="1" dur="0.4s" begin="2.48s" fill="freeze"/>
  <animate attributeName="r" values="3.0;4.0;3.0" dur="4s" begin="2.88s" repeatCount="indefinite"/>
</circle>
<circle cx="860.0" cy="377.2" r="3.2" fill="#58A6B8" stroke="#0d0d0d" stroke-width="1" filter="url(#glowSm)" opacity="0">
  <title>Jul 1
6 Contributions</title>
  <animate attributeName="opacity" from="0" to="1" dur="0.4s" begin="2.54s" fill="freeze"/>
  <animate attributeName="r" values="3.2;4.2;3.2" dur="4s" begin="2.94s" repeatCount="indefinite"/>
</circle>
<text x="90" y="466" text-anchor="start" font-family="Georgia,'Palatino Linotype',serif" font-size="10" fill="#5a7a80" letter-spacing="1.5">JUN</text>
<text x="860" y="466" text-anchor="end" font-family="Georgia,'Palatino Linotype',serif" font-size="10" fill="#5a7a80" letter-spacing="1.5">JUL</text>
<text x="450" y="522" text-anchor="middle" font-family="Georgia,'Palatino Linotype',serif" font-size="9" fill="#5a7a80" letter-spacing="4" opacity="0.5">LAST 30 DAYS OF DARK RITUALS</text>
</svg>