<svg xmlns="http://www.w3.org/2000/svg" viewBox="0 0 900 540" width="900" height="540">
<defs>
  <!-- Gradients -->
  <linearGradient id="areaFill" x1="0" y1="0" x2="0" y2="1">
    <stop offset="0%" stop-color="#58A6B8" stop-opacity="0.28"/>
    <stop offset="85%" stop-color="#58A6B8" stop-opacity="0.03"/>
    <stop offset="100%" stop-color="#58A6B8" stop-opacity="0"/>
  </linearGradient>
  <radialGradient id="haloGrad" cx="50%" cy="50%" r="50%">
    <stop offset="0%" stop-color="#58A6B8" stop-opacity="0.5"/>
    <stop offset="100%" stop-color="#58A6B8" stop-opacity="0"/>
  </radialGradient>
  <linearGradient id="frameFade" x1="0" y1="0" x2="1" y2="1">
    <stop offset="0%" stop-color="#58A6B8" stop-opacity="0.35"/>
    <stop offset="50%" stop-color="#58A6B8" stop-opacity="0.12"/>
    <stop offset="100%" stop-color="#58A6B8" stop-opacity="0.35"/>
  </linearGradient>
  <!-- Filters -->
  <filter id="glowSm" x="-50%" y="-50%" width="200%" height="200%">
    <feGaussianBlur stdDeviation="2.5" result="b"/><feMerge><feMergeNode in="b"/><feMergeNode in="SourceGraphic"/></feMerge>
  </filter>
  <filter id="glowMd" x="-50%" y="-50%" width="200%" height="200%">
    <feGaussianBlur stdDeviation="5" result="b"/><feMerge><feMergeNode in="b"/><feMergeNode in="SourceGraphic"/></feMerge>
  </filter>
  <filter id="glowLg" x="-80%" y="-80%" width="260%" height="260%">
    <feGaussianBlur stdDeviation="10" result="b"/><feMerge><feMergeNode in="b"/><feMergeNode in="SourceGraphic"/></feMerge>
  </filter>
  <filter id="cardShadow" x="-10%" y="-10%" width="120%" height="130%">
    <feGaussianBlur stdDeviation="6" result="b"/><feFlood flood-color="#58A6B8" flood-opacity="0.08" result="c"/>
    <feComposite in="c" in2="b" operator="in" result="s"/><feMerge><feMergeNode in="s"/><feMergeNode in="SourceGraphic"/></feMerge>
  </filter>
</defs>

<!-- Background -->
<rect width="900" height="540" fill="#0d0d0d" rx="16"/>
<line x1="90" y1="210.0" x2="860" y2="210.0" stroke="rgba(88,166,184,0.055)" stroke-width="0.7"/>
<line x1="90" y1="246.7" x2="860" y2="246.7" stroke="rgba(88,166,184,0.055)" stroke-width="0.7"/>
<line x1="90" y1="283.3" x2="860" y2="283.3" stroke="rgba(88,166,184,0.055)" stroke-width="0.7"/>
<line x1="90" y1="320.0" x2="860" y2="320.0" stroke="rgba(88,166,184,0.055)" stroke-width="0.7"/>
<line x1="90" y1="356.7" x2="860" y2="356.7" stroke="rgba(88,166,184,0.055)" stroke-width="0.7"/>
<line x1="90" y1="393.3" x2="860" y2="393.3" stroke="rgba(88,166,184,0.055)" stroke-width="0.7"/>
<line x1="90" y1="430.0" x2="860" y2="430.0" stroke="rgba(88,166,184,0.055)" stroke-width="0.7"/>
<line x1="90.0" y1="210" x2="90.0" y2="430" stroke="rgba(88,166,184,0.055)" stroke-width="0.5"/>
<line x1="222.8" y1="210" x2="222.8" y2="430" stroke="rgba(88,166,184,0.055)" stroke-width="0.5"/>
<line x1="355.5" y1="210" x2="355.5" y2="430" stroke="rgba(88,166,184,0.055)" stroke-width="0.5"/>
<line x1="488.3" y1="210" x2="488.3" y2="430" stroke="rgba(88,166,184,0.055)" stroke-width="0.5"/>
<line x1="621.0" y1="210" x2="621.0" y2="430" stroke="rgba(88,166,184,0.055)" stroke-width="0.5"/>
<line x1="753.8" y1="210" x2="753.8" y2="430" stroke="rgba(88,166,184,0.055)" stroke-width="0.5"/>
<circle cx="284.0" cy="285.8" r="1.4" fill="#58A6B8" opacity="0.054"><animate attributeName="opacity" values="0.054;0.119;0.054" dur="5.2s" begin="4.3s" repeatCount="indefinite"/></circle>
<circle cx="835.6" cy="342.2" r="0.6" fill="#58A6B8" opacity="0.119"><animate attributeName="opacity" values="0.119;0.262;0.119" dur="8.3s" begin="0.4s" repeatCount="indefinite"/></circle>
<circle cx="860.7" cy="49.2" r="0.9" fill="#58A6B8" opacity="0.082"><animate attributeName="opacity" values="0.082;0.180;0.082" dur="8.3s" begin="3.8s" repeatCount="indefinite"/></circle>
<circle cx="791.5" cy="242.4" r="1.2" fill="#58A6B8" opacity="0.147"><animate attributeName="opacity" values="0.147;0.323;0.147" dur="6.9s" begin="2.4s" repeatCount="indefinite"/></circle>
<circle cx="273.4" cy="392.3" r="0.4" fill="#58A6B8" opacity="0.066"><animate attributeName="opacity" values="0.066;0.145;0.066" dur="6.9s" begin="1.0s" repeatCount="indefinite"/></circle>
<circle cx="290.8" cy="119.7" r="0.8" fill="#58A6B8" opacity="0.142"><animate attributeName="opacity" values="0.142;0.312;0.142" dur="3.5s" begin="4.0s" repeatCount="indefinite"/></circle>
<circle cx="794.6" cy="99.7" r="0.5" fill="#58A6B8" opacity="0.051"><animate attributeName="opacity" values="0.051;0.112;0.051" dur="4.3s" begin="5.3s" repeatCount="indefinite"/></circle>
<circle cx="205.0" cy="146.7" r="1.1" fill="#58A6B8" opacity="0.093"><animate attributeName="opacity" values="0.093;0.205;0.093" dur="8.0s" begin="5.9s" repeatCount="indefinite"/></circle>
<circle cx="263.9" cy="5.8" r="1.3" fill="#58A6B8" opacity="0.062"><animate attributeName="opacity" values="0.062;0.136;0.062" dur="8.2s" begin="5.0s" repeatCount="indefinite"/></circle>
<circle cx="389.2" cy="58.3" r="1.1" fill="#58A6B8" opacity="0.151"><animate attributeName="opacity" values="0.151;0.332;0.151" dur="7.8s" begin="0.0s" repeatCount="indefinite"/></circle>
<circle cx="660.9" cy="13.1" r="1.3" fill="#58A6B8" opacity="0.102"><animate attributeName="opacity" values="0.102;0.224;0.102" dur="8.4s" begin="2.1s" repeatCount="indefinite"/></circle>
<circle cx="291.5" cy="432.6" r="1.2" fill="#58A6B8" opacity="0.070"><animate attributeName="opacity" values="0.070;0.154;0.070" dur="3.9s" begin="3.7s" repeatCount="indefinite"/></circle>
<circle cx="818.2" cy="251.1" r="0.6" fill="#58A6B8" opacity="0.080"><animate attributeName="opacity" values="0.080;0.176;0.080" dur="6.1s" begin="3.6s" repeatCount="indefinite"/></circle>
<circle cx="788.9" cy="522.3" r="1.1" fill="#58A6B8" opacity="0.152"><animate attributeName="opacity" values="0.152;0.334;0.152" dur="4.8s" begin="0.9s" repeatCount="indefinite"/></circle>
<circle cx="53.3" cy="238.8" r="0.4" fill="#58A6B8" opacity="0.055"><animate attributeName="opacity" values="0.055;0.121;0.055" dur="8.4s" begin="3.4s" repeatCount="indefinite"/></circle>
<circle cx="363.5" cy="274.9" r="0.4" fill="#58A6B8" opacity="0.129"><animate attributeName="opacity" values="0.129;0.284;0.129" dur="6.7s" begin="6.0s" repeatCount="indefinite"/></circle>
<circle cx="11.6" cy="112.8" r="1.4" fill="#58A6B8" opacity="0.125"><animate attributeName="opacity" values="0.125;0.275;0.125" dur="7.6s" begin="1.1s" repeatCount="indefinite"/></circle>
<circle cx="183.6" cy="496.9" r="1.4" fill="#58A6B8" opacity="0.083"><animate attributeName="opacity" values="0.083;0.183;0.083" dur="8.0s" begin="0.3s" repeatCount="indefinite"/></circle>
<circle cx="646.9" cy="130.1" r="0.7" fill="#58A6B8" opacity="0.089"><animate attributeName="opacity" values="0.089;0.196;0.089" dur="8.1s" begin="4.3s" repeatCount="indefinite"/></circle>
<circle cx="559.7" cy="122.9" r="0.9" fill="#58A6B8" opacity="0.052"><animate attributeName="opacity" values="0.052;0.114;0.052" dur="5.0s" begin="0.4s" repeatCount="indefinite"/></circle>
<circle cx="220.1" cy="326.8" r="0.9" fill="#58A6B8" opacity="0.155"><animate attributeName="opacity" values="0.155;0.341;0.155" dur="6.9s" begin="2.2s" repeatCount="indefinite"/></circle>
<circle cx="228.2" cy="538.1" r="1.3" fill="#58A6B8" opacity="0.064"><animate attributeName="opacity" values="0.064;0.141;0.064" dur="8.3s" begin="5.1s" repeatCount="indefinite"/></circle>
<circle cx="463.3" cy="505.1" r="0.9" fill="#58A6B8" opacity="0.117"><animate attributeName="opacity" values="0.117;0.257;0.117" dur="6.4s" begin="1.7s" repeatCount="indefinite"/></circle>
<circle cx="599.6" cy="362.3" r="0.6" fill="#58A6B8" opacity="0.121"><animate attributeName="opacity" values="0.121;0.266;0.121" dur="6.9s" begin="0.8s" repeatCount="indefinite"/></circle>
<circle cx="290.8" cy="291.4" r="1.3" fill="#58A6B8" opacity="0.053"><animate attributeName="opacity" values="0.053;0.117;0.053" dur="5.9s" begin="4.0s" repeatCount="indefinite"/></circle>
<circle cx="227.5" cy="252.9" r="1.4" fill="#58A6B8" opacity="0.076"><animate attributeName="opacity" values="0.076;0.167;0.076" dur="5.5s" begin="3.0s" repeatCount="indefinite"/></circle>
<circle cx="134.9" cy="228.7" r="1.0" fill="#58A6B8" opacity="0.092"><animate attributeName="opacity" values="0.092;0.202;0.092" dur="7.3s" begin="5.6s" repeatCount="indefinite"/></circle>
<circle cx="177.7" cy="64.6" r="1.2" fill="#58A6B8" opacity="0.122"><animate attributeName="opacity" values="0.122;0.268;0.122" dur="7.0s" begin="0.3s" repeatCount="indefinite"/></circle>
<circle cx="167.3" cy="217.0" r="0.9" fill="#58A6B8" opacity="0.071"><animate attributeName="opacity" values="0.071;0.156;0.071" dur="5.3s" begin="1.2s" repeatCount="indefinite"/></circle>
<circle cx="677.8" cy="97.6" r="1.4" fill="#58A6B8" opacity="0.142"><animate attributeName="opacity" values="0.142;0.312;0.142" dur="5.7s" begin="2.7s" repeatCount="indefinite"/></circle>
<circle cx="373.8" cy="144.8" r="1.3" fill="#58A6B8" opacity="0.050"><animate attributeName="opacity" values="0.050;0.110;0.050" dur="4.6s" begin="0.1s" repeatCount="indefinite"/></circle>
<circle cx="419.4" cy="382.6" r="0.8" fill="#58A6B8" opacity="0.041"><animate attributeName="opacity" values="0.041;0.090;0.041" dur="4.8s" begin="5.0s" repeatCount="indefinite"/></circle>
<circle cx="869.3" cy="416.1" r="1.0" fill="#58A6B8" opacity="0.117"><animate attributeName="opacity" values="0.117;0.257;0.117" dur="7.8s" begin="4.6s" repeatCount="indefinite"/></circle>
<circle cx="83.2" cy="418.0" r="1.1" fill="#58A6B8" opacity="0.086"><animate attributeName="opacity" values="0.086;0.189;0.086" dur="4.6s" begin="3.8s" repeatCount="indefinite"/></circle>
<circle cx="402.0" cy="178.3" r="0.6" fill="#58A6B8" opacity="0.111"><animate attributeName="opacity" values="0.111;0.244;0.111" dur="6.0s" begin="2.9s" repeatCount="indefinite"/></circle>
<circle cx="710.8" cy="255.2" r="0.5" fill="#58A6B8" opacity="0.069"><animate attributeName="opacity" values="0.069;0.152;0.069" dur="6.7s" begin="5.3s" repeatCount="indefinite"/></circle>
<circle cx="695.5" cy="258.1" r="0.8" fill="#58A6B8" opacity="0.151"><animate attributeName="opacity" values="0.151;0.332;0.151" dur="8.3s" begin="3.5s" repeatCount="indefinite"/></circle>
<circle cx="648.0" cy="240.8" r="0.4" fill="#58A6B8" opacity="0.042"><animate attributeName="opacity" values="0.042;0.092;0.042" dur="6.1s" begin="0.8s" repeatCount="indefinite"/></circle>
<circle cx="445.6" cy="180.2" r="0.7" fill="#58A6B8" opacity="0.064"><animate attributeName="opacity" values="0.064;0.141;0.064" dur="6.2s" begin="2.3s" repeatCount="indefinite"/></circle>
<circle cx="413.3" cy="386.8" r="1.2" fill="#58A6B8" opacity="0.053"><animate attributeName="opacity" values="0.053;0.117;0.053" dur="8.2s" begin="5.5s" repeatCount="indefinite"/></circle>
<circle cx="689.0" cy="257.8" r="0.7" fill="#58A6B8" opacity="0.106"><animate attributeName="opacity" values="0.106;0.233;0.106" dur="5.9s" begin="0.8s" repeatCount="indefinite"/></circle>
<circle cx="460.9" cy="286.3" r="1.1" fill="#58A6B8" opacity="0.103"><animate attributeName="opacity" values="0.103;0.227;0.103" dur="6.3s" begin="4.4s" repeatCount="indefinite"/></circle>
<circle cx="279.2" cy="82.5" r="1.0" fill="#58A6B8" opacity="0.111"><animate attributeName="opacity" values="0.111;0.244;0.111" dur="6.2s" begin="2.9s" repeatCount="indefinite"/></circle>
<circle cx="452.4" cy="31.2" r="1.0" fill="#58A6B8" opacity="0.087"><animate attributeName="opacity" values="0.087;0.191;0.087" dur="5.2s" begin="3.9s" repeatCount="indefinite"/></circle>
<circle cx="188.6" cy="529.0" r="0.8" fill="#58A6B8" opacity="0.090"><animate attributeName="opacity" values="0.090;0.198;0.090" dur="6.7s" begin="0.6s" repeatCount="indefinite"/></circle>
<circle cx="423.2" cy="374.8" r="1.1" fill="#58A6B8" opacity="0.135"><animate attributeName="opacity" values="0.135;0.297;0.135" dur="7.3s" begin="0.8s" repeatCount="indefinite"/></circle>
<circle cx="607.0" cy="141.4" r="0.4" fill="#58A6B8" opacity="0.143"><animate attributeName="opacity" values="0.143;0.315;0.143" dur="4.9s" begin="5.1s" repeatCount="indefinite"/></circle>
<circle cx="209.1" cy="33.9" r="1.0" fill="#58A6B8" opacity="0.082"><animate attributeName="opacity" values="0.082;0.180;0.082" dur="5.5s" begin="4.0s" repeatCount="indefinite"/></circle>
<circle cx="227.2" cy="376.6" r="1.1" fill="#58A6B8" opacity="0.054"><animate attributeName="opacity" values="0.054;0.119;0.054" dur="4.1s" begin="0.3s" repeatCount="indefinite"/></circle>
<circle cx="786.5" cy="530.1" r="0.8" fill="#58A6B8" opacity="0.100"><animate attributeName="opacity" values="0.100;0.220;0.100" dur="6.4s" begin="5.8s" repeatCount="indefinite"/></circle>
<circle cx="879.4" cy="263.8" r="0.5" fill="#58A6B8" opacity="0.159"><animate attributeName="opacity" values="0.159;0.350;0.159" dur="7.7s" begin="2.6s" repeatCount="indefinite"/></circle>
<circle cx="642.9" cy="7.2" r="1.2" fill="#58A6B8" opacity="0.055"><animate attributeName="opacity" values="0.055;0.121;0.055" dur="7.3s" begin="2.1s" repeatCount="indefinite"/></circle>
<circle cx="705.1" cy="358.0" r="1.0" fill="#58A6B8" opacity="0.100"><animate attributeName="opacity" values="0.100;0.220;0.100" dur="4.8s" begin="4.6s" repeatCount="indefinite"/></circle>
<circle cx="376.8" cy="299.2" r="0.6" fill="#58A6B8" opacity="0.063"><animate attributeName="opacity" values="0.063;0.139;0.063" dur="7.1s" begin="1.9s" repeatCount="indefinite"/></circle>
<circle cx="51.1" cy="303.6" r="0.3" fill="#58A6B8" opacity="0.159"><animate attributeName="opacity" values="0.159;0.350;0.159" dur="3.5s" begin="3.4s" repeatCount="indefinite"/></circle>
<g transform="translate(390.4,265.5) rotate(45)" opacity="0.062"><rect x="-1.9" y="-1.9" width="3.9" height="3.9" fill="#58A6B8"/><animate attributeName="opacity" values="0.062;0.155;0.062" dur="6.5s" begin="1.2s" repeatCount="indefinite"/></g>
<g transform="translate(552.3,95.2) rotate(45)" opacity="0.076"><rect x="-1.3" y="-1.3" width="2.6" height="2.6" fill="#58A6B8"/><animate attributeName="opacity" values="0.076;0.190;0.076" dur="9.1s" begin="0.2s" repeatCount="indefinite"/></g>
<g transform="translate(180.5,110.9) rotate(45)" opacity="0.085"><rect x="-1.4" y="-1.4" width="2.7" height="2.7" fill="#58A6B8"/><animate attributeName="opacity" values="0.085;0.213;0.085" dur="7.8s" begin="3.3s" repeatCount="indefinite"/></g>
<g transform="translate(613.7,289.7) rotate(45)" opacity="0.098"><rect x="-1.9" y="-1.9" width="3.8" height="3.8" fill="#58A6B8"/><animate attributeName="opacity" values="0.098;0.245;0.098" dur="7.3s" begin="4.3s" repeatCount="indefinite"/></g>
<g transform="translate(286.3,288.9) rotate(45)" opacity="0.060"><rect x="-1.3" y="-1.3" width="2.6" height="2.6" fill="#58A6B8"/><animate attributeName="opacity" values="0.060;0.150;0.060" dur="8.7s" begin="0.7s" repeatCount="indefinite"/></g>
<g transform="translate(300.8,203.4) rotate(45)" opacity="0.050"><rect x="-1.6" y="-1.6" width="3.3" height="3.3" fill="#58A6B8"/><animate attributeName="opacity" values="0.050;0.125;0.050" dur="8.2s" begin="3.6s" repeatCount="indefinite"/></g>
<g transform="translate(284.6,374.0) rotate(45)" opacity="0.068"><rect x="-1.8" y="-1.8" width="3.5" height="3.5" fill="#58A6B8"/><animate attributeName="opacity" values="0.068;0.170;0.068" dur="7.7s" begin="1.2s" repeatCount="indefinite"/></g>
<g transform="translate(254.0,152.0) rotate(45)" opacity="0.059"><rect x="-1.3" y="-1.3" width="2.6" height="2.6" fill="#58A6B8"/><animate attributeName="opacity" values="0.059;0.147;0.059" dur="8.5s" begin="0.1s" repeatCount="indefinite"/></g>
<g transform="translate(18,18) scale(1,1)"><path d="M0 25 L0 6 Q0 0 6 0 L25 0" fill="none" stroke="#58A6B8" stroke-width="1.3" opacity="0.35"/><circle cx="0" cy="0" r="1.8" fill="#58A6B8" opacity="0.4"/><path d="M0 12 L5 12" fill="none" stroke="#58A6B8" stroke-width="0.6" opacity="0.2"/><path d="M12 0 L12 5" fill="none" stroke="#58A6B8" stroke-width="0.6" opacity="0.2"/></g><g transform="translate(882,18) scale(-1,1)"><path d="M0 25 L0 6 Q0 0 6 0 L25 0" fill="none" stroke="#58A6B8" stroke-width="1.3" opacity="0.35"/><circle cx="0" cy="0" r="1.8" fill="#58A6B8" opacity="0.4"/><path d="M0 12 L5 12" fill="none" stroke="#58A6B8" stroke-width="0.6" opacity="0.2"/><path d="M12 0 L12 5" fill="none" stroke="#58A6B8" stroke-width="0.6" opacity="0.2"/></g><g transform="translate(18,522) scale(1,-1)"><path d="M0 25 L0 6 Q0 0 6 0 L25 0" fill="none" stroke="#58A6B8" stroke-width="1.3" opacity="0.35"/><circle cx="0" cy="0" r="1.8" fill="#58A6B8" opacity="0.4"/><path d="M0 12 L5 12" fill="none" stroke="#58A6B8" stroke-width="0.6" opacity="0.2"/><path d="M12 0 L12 5" fill="none" stroke="#58A6B8" stroke-width="0.6" opacity="0.2"/></g><g transform="translate(882,522) scale(-1,-1)"><path d="M0 25 L0 6 Q0 0 6 0 L25 0" fill="none" stroke="#58A6B8" stroke-width="1.3" opacity="0.35"/><circle cx="0" cy="0" r="1.8" fill="#58A6B8" opacity="0.4"/><path d="M0 12 L5 12" fill="none" stroke="#58A6B8" stroke-width="0.6" opacity="0.2"/><path d="M12 0 L12 5" fill="none" stroke="#58A6B8" stroke-width="0.6" opacity="0.2"/></g>
<rect x="10" y="10" width="880" height="520" rx="12" fill="none" stroke="url(#frameFade)" stroke-width="1"/>
<text x="450" y="50" text-anchor="middle" font-family="Georgia,'Palatino Linotype','Book Antiqua',Palatino,serif" font-size="22" font-weight="bold" fill="#e8f4f7" letter-spacing="8" filter="url(#glowMd)">✧ THE COMMIT COVEN ✧</text>
<line x1="310" y1="62" x2="590" y2="62" stroke="#58A6B8" stroke-width="0.5" opacity="0.25"/>
<g filter="url(#cardShadow)"><rect x="70" y="80" width="240" height="78" rx="10" fill="rgba(88,166,184,0.05)" stroke="rgba(88,166,184,0.22)" stroke-width="0.8"/><text x="190" y="110" text-anchor="middle" font-family="Georgia,'Palatino Linotype',serif" font-size="11" fill="#5a7a80" letter-spacing="3" text-transform="uppercase">LONGEST STREAK</text><text x="190" y="136" text-anchor="middle" font-family="Georgia,'Palatino Linotype',serif" font-size="20" fill="#e8f4f7" font-weight="bold" filter="url(#glowSm)">12 Nights</text></g>
<g filter="url(#cardShadow)"><rect x="330" y="80" width="240" height="78" rx="10" fill="rgba(88,166,184,0.05)" stroke="rgba(88,166,184,0.22)" stroke-width="0.8"/><text x="450" y="110" text-anchor="middle" font-family="Georgia,'Palatino Linotype',serif" font-size="11" fill="#5a7a80" letter-spacing="3" text-transform="uppercase">CURRENT RITUAL</text><text x="450" y="136" text-anchor="middle" font-family="Georgia,'Palatino Linotype',serif" font-size="20" fill="#e8f4f7" font-weight="bold" filter="url(#glowSm)">0 Nights</text></g>
<g filter="url(#cardShadow)"><rect x="590" y="80" width="240" height="78" rx="10" fill="rgba(88,166,184,0.05)" stroke="rgba(88,166,184,0.22)" stroke-width="0.8"/><text x="710" y="110" text-anchor="middle" font-family="Georgia,'Palatino Linotype',serif" font-size="11" fill="#5a7a80" letter-spacing="3" text-transform="uppercase">TOTAL OFFERINGS</text><text x="710" y="136" text-anchor="middle" font-family="Georgia,'Palatino Linotype',serif" font-size="20" fill="#e8f4f7" font-weight="bold" filter="url(#glowSm)">198</text></g>
<text x="80" y="434.0" text-anchor="end" font-family="'Courier New',monospace" font-size="10" fill="#5a7a80">0</text>
<line x1="86" y1="430.0" x2="90" y2="430.0" stroke="#5a7a80" stroke-width="0.5"/>
<text x="80" y="390.0" text-anchor="end" font-family="'Courier New',monospace" font-size="10" fill="#5a7a80">5</text>
<line x1="86" y1="386.0" x2="90" y2="386.0" stroke="#5a7a80" stroke-width="0.5"/>
<text x="80" y="346.0" text-anchor="end" font-family="'Courier New',monospace" font-size="10" fill="#5a7a80">10</text>
<line x1="86" y1="342.0" x2="90" y2="342.0" stroke="#5a7a80" stroke-width="0.5"/>
<text x="80" y="302.0" text-anchor="end" font-family="'Courier New',monospace" font-size="10" fill="#5a7a80">15</text>
<line x1="86" y1="298.0" x2="90" y2="298.0" stroke="#5a7a80" stroke-width="0.5"/>
<text x="80" y="258.0" text-anchor="end" font-family="'Courier New',monospace" font-size="10" fill="#5a7a80">20</text>
<line x1="86" y1="254.0" x2="90" y2="254.0" stroke="#5a7a80" stroke-width="0.5"/>
<text x="80" y="214.0" text-anchor="end" font-family="'Courier New',monospace" font-size="10" fill="#5a7a80">25</text>
<line x1="86" y1="210.0" x2="90" y2="210.0" stroke="#5a7a80" stroke-width="0.5"/>
<text x="90.0" y="450" text-anchor="middle" font-family="'Courier New',monospace" font-size="10" fill="#5a7a80">13</text>
<text x="196.2" y="450" text-anchor="middle" font-family="'Courier New',monospace" font-size="10" fill="#5a7a80">17</text>
<text x="302.4" y="450" text-anchor="middle" font-family="'Courier New',monospace" font-size="10" fill="#5a7a80">21</text>
<text x="408.6" y="450" text-anchor="middle" font-family="'Courier New',monospace" font-size="10" fill="#5a7a80">25</text>
<text x="514.8" y="450" text-anchor="middle" font-family="'Courier New',monospace" font-size="10" fill="#5a7a80">29</text>
<text x="621.0" y="450" text-anchor="middle" font-family="'Courier New',monospace" font-size="10" fill="#5a7a80">3</text>
<text x="727.2" y="450" text-anchor="middle" font-family="'Courier New',monospace" font-size="10" fill="#5a7a80">7</text>
<text x="833.4" y="450" text-anchor="middle" font-family="'Courier New',monospace" font-size="10" fill="#5a7a80">11</text>
<text x="860.0" y="450" text-anchor="middle" font-family="'Courier New',monospace" font-size="10" fill="#5a7a80">12</text>
<line x1="90" y1="210" x2="90" y2="430" stroke="#58A6B8" stroke-width="0.5" opacity="0.2"/>
<line x1="90" y1="430" x2="860" y2="430" stroke="#58A6B8" stroke-width="0.5" opacity="0.2"/>
<path d="M90.0 430.0 C93.5 424.1,109.5 394.2,116.6 386.0 C123.6 377.8,136.0 367.2,143.1 368.4 C150.2 369.6,162.6 398.3,169.7 394.8 C176.7 391.3,189.1 350.2,196.2 342.0 C203.3 333.8,215.7 347.3,222.8 333.2 C229.8 319.1,242.2 228.2,249.3 236.4 C256.4 244.6,268.8 370.2,275.9 394.8 C282.9 419.4,295.3 418.9,302.4 421.2 C309.5 423.5,321.9 417.1,329.0 412.4 C336.0 407.7,348.4 387.2,355.5 386.0 C362.6 384.8,375.0 398.9,382.1 403.6 C389.1 408.3,401.5 417.7,408.6 421.2 C415.7 424.7,428.1 428.8,435.2 430.0 C442.3 431.2,454.6 430.0,461.7 430.0 C468.8 430.0,481.2 430.0,488.3 430.0 C495.4 430.0,507.7 435.9,514.8 430.0 C521.9 424.1,534.3 393.0,541.4 386.0 C548.5 379.0,560.9 381.9,567.9 377.2 C575.0 372.5,587.4 344.9,594.5 350.8 C601.6 356.7,614.0 410.6,621.0 421.2 C628.1 431.8,640.5 430.0,647.6 430.0 C654.7 430.0,667.1 421.2,674.1 421.2 C681.2 421.2,693.6 432.3,700.7 430.0 C707.8 427.7,720.2 404.8,727.2 403.6 C734.3 402.4,746.7 417.7,753.8 421.2 C760.9 424.7,773.3 428.8,780.3 430.0 C787.4 431.2,799.8 430.0,806.9 430.0 C814.0 430.0,826.4 430.0,833.4 430.0 C840.5 430.0,856.5 430.0,860.0 430.0 L860.0 430 L90.0 430 Z" fill="url(#areaFill)" opacity="0.9">
  <animate attributeName="opacity" values="0;0.9" dur="2s" fill="freeze"/>
</path>
<path d="M90.0 430.0 C93.5 424.1,109.5 394.2,116.6 386.0 C123.6 377.8,136.0 367.2,143.1 368.4 C150.2 369.6,162.6 398.3,169.7 394.8 C176.7 391.3,189.1 350.2,196.2 342.0 C203.3 333.8,215.7 347.3,222.8 333.2 C229.8 319.1,242.2 228.2,249.3 236.4 C256.4 244.6,268.8 370.2,275.9 394.8 C282.9 419.4,295.3 418.9,302.4 421.2 C309.5 423.5,321.9 417.1,329.0 412.4 C336.0 407.7,348.4 387.2,355.5 386.0 C362.6 384.8,375.0 398.9,382.1 403.6 C389.1 408.3,401.5 417.7,408.6 421.2 C415.7 424.7,428.1 428.8,435.2 430.0 C442.3 431.2,454.6 430.0,461.7 430.0 C468.8 430.0,481.2 430.0,488.3 430.0 C495.4 430.0,507.7 435.9,514.8 430.0 C521.9 424.1,534.3 393.0,541.4 386.0 C548.5 379.0,560.9 381.9,567.9 377.2 C575.0 372.5,587.4 344.9,594.5 350.8 C601.6 356.7,614.0 410.6,621.0 421.2 C628.1 431.8,640.5 430.0,647.6 430.0 C654.7 430.0,667.1 421.2,674.1 421.2 C681.2 421.2,693.6 432.3,700.7 430.0 C707.8 427.7,720.2 404.8,727.2 403.6 C734.3 402.4,746.7 417.7,753.8 421.2 C760.9 424.7,773.3 428.8,780.3 430.0 C787.4 431.2,799.8 430.0,806.9 430.0 C814.0 430.0,826.4 430.0,833.4 430.0 C840.5 430.0,856.5 430.0,860.0 430.0" fill="none" stroke="#58A6B8" stroke-width="4" opacity="0.15" filter="url(#glowLg)" stroke-linecap="round" stroke-linejoin="round"/>
<path d="M90.0 430.0 C93.5 424.1,109.5 394.2,116.6 386.0 C123.6 377.8,136.0 367.2,143.1 368.4 C150.2 369.6,162.6 398.3,169.7 394.8 C176.7 391.3,189.1 350.2,196.2 342.0 C203.3 333.8,215.7 347.3,222.8 333.2 C229.8 319.1,242.2 228.2,249.3 236.4 C256.4 244.6,268.8 370.2,275.9 394.8 C282.9 419.4,295.3 418.9,302.4 421.2 C309.5 423.5,321.9 417.1,329.0 412.4 C336.0 407.7,348.4 387.2,355.5 386.0 C362.6 384.8,375.0 398.9,382.1 403.6 C389.1 408.3,401.5 417.7,408.6 421.2 C415.7 424.7,428.1 428.8,435.2 430.0 C442.3 431.2,454.6 430.0,461.7 430.0 C468.8 430.0,481.2 430.0,488.3 430.0 C495.4 430.0,507.7 435.9,514.8 430.0 C521.9 424.1,534.3 393.0,541.4 386.0 C548.5 379.0,560.9 381.9,567.9 377.2 C575.0 372.5,587.4 344.9,594.5 350.8 C601.6 356.7,614.0 410.6,621.0 421.2 C628.1 431.8,640.5 430.0,647.6 430.0 C654.7 430.0,667.1 421.2,674.1 421.2 C681.2 421.2,693.6 432.3,700.7 430.0 C707.8 427.7,720.2 404.8,727.2 403.6 C734.3 402.4,746.7 417.7,753.8 421.2 C760.9 424.7,773.3 428.8,780.3 430.0 C787.4 431.2,799.8 430.0,806.9 430.0 C814.0 430.0,826.4 430.0,833.4 430.0 C840.5 430.0,856.5 430.0,860.0 430.0" fill="none" stroke="#58A6B8" stroke-width="2.2" stroke-linecap="round" stroke-linejoin="round" filter="url(#glowSm)" stroke-dasharray="1555" stroke-dashoffset="1555">
  <animate attributeName="stroke-dashoffset" from="1555" to="0" dur="2.5s" fill="freeze" calcMode="spline" keySplines="0.4 0 0.2 1"/>
  <animate attributeName="opacity" values="0.7;1;0.85;1" dur="6s" begin="2.5s" repeatCount="indefinite"/>
</path>
<circle cx="90.0" cy="430.0" r="2.2" fill="#58A6B8" stroke="#0d0d0d" stroke-width="1" filter="url(#glowSm)" opacity="0">
  <title>Jun 13
0 Contributions</title>
  <animate attributeName="opacity" from="0" to="1" dur="0.4s" begin="0.80s" fill="freeze"/>
  <animate attributeName="r" values="2.2;3.2;2.2" dur="4s" begin="1.20s" repeatCount="indefinite"/>
</circle>
<circle cx="116.6" cy="386.0" r="3.0" fill="#58A6B8" stroke="#0d0d0d" stroke-width="1" filter="url(#glowSm)" opacity="0">
  <title>Jun 14
5 Contributions</title>
  <animate attributeName="opacity" from="0" to="1" dur="0.4s" begin="0.86s" fill="freeze"/>
  <animate attributeName="r" values="3.0;4.0;3.0" dur="4s" begin="1.26s" repeatCount="indefinite"/>
</circle>
<circle cx="143.1" cy="368.4" r="3.3" fill="#58A6B8" stroke="#0d0d0d" stroke-width="1" filter="url(#glowSm)" opacity="0">
  <title>Jun 15
7 Contributions</title>
  <animate attributeName="opacity" from="0" to="1" dur="0.4s" begin="0.92s" fill="freeze"/>
  <animate attributeName="r" values="3.3;4.3;3.3" dur="4s" begin="1.32s" repeatCount="indefinite"/>
</circle>
<circle cx="169.7" cy="394.8" r="2.8" fill="#58A6B8" stroke="#0d0d0d" stroke-width="1" filter="url(#glowSm)" opacity="0">
  <title>Jun 16
4 Contributions</title>
  <animate attributeName="opacity" from="0" to="1" dur="0.4s" begin="0.98s" fill="freeze"/>
  <animate attributeName="r" values="2.8;3.8;2.8" dur="4s" begin="1.38s" repeatCount="indefinite"/>
</circle>
<circle cx="196.2" cy="342.0" r="3.8" fill="#58A6B8" stroke="#0d0d0d" stroke-width="1" filter="url(#glowSm)" opacity="0">
  <title>Jun 17
10 Contributions</title>
  <animate attributeName="opacity" from="0" to="1" dur="0.4s" begin="1.04s" fill="freeze"/>
  <animate attributeName="r" values="3.8;4.8;3.8" dur="4s" begin="1.44s" repeatCount="indefinite"/>
</circle>
<circle cx="222.8" cy="333.2" r="4.0" fill="#58A6B8" stroke="#0d0d0d" stroke-width="1" filter="url(#glowSm)" opacity="0">
  <title>Jun 18
11 Contributions</title>
  <animate attributeName="opacity" from="0" to="1" dur="0.4s" begin="1.10s" fill="freeze"/>
  <animate attributeName="r" values="4.0;5.0;4.0" dur="4s" begin="1.50s" repeatCount="indefinite"/>
</circle>
<circle cx="249.3" cy="236.4" r="18" fill="url(#haloGrad)" opacity="0">
  <animate attributeName="opacity" values="0;0.6;0.3;0.6" dur="4s" begin="1.16s" repeatCount="indefinite"/>
  <animate attributeName="r" values="14;22;14" dur="4s" begin="1.16s" repeatCount="indefinite"/>
</circle>
<circle cx="249.3" cy="236.4" r="7.2" fill="#e8f4f7" stroke="#0d0d0d" stroke-width="1" filter="url(#glowMd)" opacity="0">
  <title>Jun 19
22 Contributions</title>
  <animate attributeName="opacity" from="0" to="1" dur="0.4s" begin="1.16s" fill="freeze"/>
  <animate attributeName="r" values="7.2;9.2;7.2" dur="3s" begin="1.56s" repeatCount="indefinite"/>
</circle>
<circle cx="275.9" cy="394.8" r="2.8" fill="#58A6B8" stroke="#0d0d0d" stroke-width="1" filter="url(#glowSm)" opacity="0">
  <title>Jun 20
4 Contributions</title>
  <animate attributeName="opacity" from="0" to="1" dur="0.4s" begin="1.22s" fill="freeze"/>
  <animate attributeName="r" values="2.8;3.8;2.8" dur="4s" begin="1.62s" repeatCount="indefinite"/>
</circle>
<circle cx="302.4" cy="421.2" r="2.4" fill="#58A6B8" stroke="#0d0d0d" stroke-width="1" filter="url(#glowSm)" opacity="0">
  <title>Jun 21
1 Contribution</title>
  <animate attributeName="opacity" from="0" to="1" dur="0.4s" begin="1.28s" fill="freeze"/>
  <animate attributeName="r" values="2.4;3.4;2.4" dur="4s" begin="1.68s" repeatCount="indefinite"/>
</circle>
<circle cx="329.0" cy="412.4" r="2.5" fill="#58A6B8" stroke="#0d0d0d" stroke-width="1" filter="url(#glowSm)" opacity="0">
  <title>Jun 22
2 Contributions</title>
  <animate attributeName="opacity" from="0" to="1" dur="0.4s" begin="1.34s" fill="freeze"/>
  <animate attributeName="r" values="2.5;3.5;2.5" dur="4s" begin="1.74s" repeatCount="indefinite"/>
</circle>
<circle cx="355.5" cy="386.0" r="3.0" fill="#58A6B8" stroke="#0d0d0d" stroke-width="1" filter="url(#glowSm)" opacity="0">
  <title>Jun 23
5 Contributions</title>
  <animate attributeName="opacity" from="0" to="1" dur="0.4s" begin="1.40s" fill="freeze"/>
  <animate attributeName="r" values="3.0;4.0;3.0" dur="4s" begin="1.80s" repeatCount="indefinite"/>
</circle>
<circle cx="382.1" cy="403.6" r="2.7" fill="#58A6B8" stroke="#0d0d0d" stroke-width="1" filter="url(#glowSm)" opacity="0">
  <title>Jun 24
3 Contributions</title>
  <animate attributeName="opacity" from="0" to="1" dur="0.4s" begin="1.46s" fill="freeze"/>
  <animate attributeName="r" values="2.7;3.7;2.7" dur="4s" begin="1.86s" repeatCount="indefinite"/>
</circle>
<circle cx="408.6" cy="421.2" r="2.4" fill="#58A6B8" stroke="#0d0d0d" stroke-width="1" filter="url(#glowSm)" opacity="0">
  <title>Jun 25
1 Contribution</title>
  <animate attributeName="opacity" from="0" to="1" dur="0.4s" begin="1.52s" fill="freeze"/>
  <animate attributeName="r" values="2.4;3.4;2.4" dur="4s" begin="1.92s" repeatCount="indefinite"/>
</circle>
<circle cx="435.2" cy="430.0" r="2.2" fill="#58A6B8" stroke="#0d0d0d" stroke-width="1" filter="url(#glowSm)" opacity="0">
  <title>Jun 26
0 Contributions</title>
  <animate attributeName="opacity" from="0" to="1" dur="0.4s" begin="1.58s" fill="freeze"/>
  <animate attributeName="r" values="2.2;3.2;2.2" dur="4s" begin="1.98s" repeatCount="indefinite"/>
</circle>
<circle cx="461.7" cy="430.0" r="2.2" fill="#58A6B8" stroke="#0d0d0d" stroke-width="1" filter="url(#glowSm)" opacity="0">
  <title>Jun 27
0 Contributions</title>
  <animate attributeName="opacity" from="0" to="1" dur="0.4s" begin="1.64s" fill="freeze"/>
  <animate attributeName="r" values="2.2;3.2;2.2" dur="4s" begin="2.04s" repeatCount="indefinite"/>
</circle>
<circle cx="488.3" cy="430.0" r="2.2" fill="#58A6B8" stroke="#0d0d0d" stroke-width="1" filter="url(#glowSm)" opacity="0">
  <title>Jun 28
0 Contributions</title>
  <animate attributeName="opacity" from="0" to="1" dur="0.4s" begin="1.70s" fill="freeze"/>
  <animate attributeName="r" values="2.2;3.2;2.2" dur="4s" begin="2.10s" repeatCount="indefinite"/>
</circle>
<circle cx="514.8" cy="430.0" r="2.2" fill="#58A6B8" stroke="#0d0d0d" stroke-width="1" filter="url(#glowSm)" opacity="0">
  <title>Jun 29
0 Contributions</title>
  <animate attributeName="opacity" from="0" to="1" dur="0.4s" begin="1.76s" fill="freeze"/>
  <animate attributeName="r" values="2.2;3.2;2.2" dur="4s" begin="2.16s" repeatCount="indefinite"/>
</circle>
<circle cx="541.4" cy="386.0" r="3.0" fill="#58A6B8" stroke="#0d0d0d" stroke-width="1" filter="url(#glowSm)" opacity="0">
  <title>Jun 30
5 Contributions</title>
  <animate attributeName="opacity" from="0" to="1" dur="0.4s" begin="1.82s" fill="freeze"/>
  <animate attributeName="r" values="3.0;4.0;3.0" dur="4s" begin="2.22s" repeatCount="indefinite"/>
</circle>
<circle cx="567.9" cy="377.2" r="3.2" fill="#58A6B8" stroke="#0d0d0d" stroke-width="1" filter="url(#glowSm)" opacity="0">
  <title>Jul 1
6 Contributions</title>
  <animate attributeName="opacity" from="0" to="1" dur="0.4s" begin="1.88s" fill="freeze"/>
  <animate attributeName="r" values="3.2;4.2;3.2" dur="4s" begin="2.28s" repeatCount="indefinite"/>
</circle>
<circle cx="594.5" cy="350.8" r="3.6" fill="#58A6B8" stroke="#0d0d0d" stroke-width="1" filter="url(#glowSm)" opacity="0">
  <title>Jul 2
9 Contributions</title>
  <animate attributeName="opacity" from="0" to="1" dur="0.4s" begin="1.94s" fill="freeze"/>
  <animate attributeName="r" values="3.6;4.6;3.6" dur="4s" begin="2.34s" repeatCount="indefinite"/>
</circle>
<circle cx="621.0" cy="421.2" r="2.4" fill="#58A6B8" stroke="#0d0d0d" stroke-width="1" filter="url(#glowSm)" opacity="0">
  <title>Jul 3
1 Contribution</title>
  <animate attributeName="opacity" from="0" to="1" dur="0.4s" begin="2.00s" fill="freeze"/>
  <animate attributeName="r" values="2.4;3.4;2.4" dur="4s" begin="2.40s" repeatCount="indefinite"/>
</circle>
<circle cx="647.6" cy="430.0" r="2.2" fill="#58A6B8" stroke="#0d0d0d" stroke-width="1" filter="url(#glowSm)" opacity="0">
  <title>Jul 4
0 Contributions</title>
  <animate attributeName="opacity" from="0" to="1" dur="0.4s" begin="2.06s" fill="freeze"/>
  <animate attributeName="r" values="2.2;3.2;2.2" dur="4s" begin="2.46s" repeatCount="indefinite"/>
</circle>
<circle cx="674.1" cy="421.2" r="2.4" fill="#58A6B8" stroke="#0d0d0d" stroke-width="1" filter="url(#glowSm)" opacity="0">
  <title>Jul 5
1 Contribution</title>
  <animate attributeName="opacity" from="0" to="1" dur="0.4s" begin="2.12s" fill="freeze"/>
  <animate attributeName="r" values="2.4;3.4;2.4" dur="4s" begin="2.52s" repeatCount="indefinite"/>
</circle>
<circle cx="700.7" cy="430.0" r="2.2" fill="#58A6B8" stroke="#0d0d0d" stroke-width="1" filter="url(#glowSm)" opacity="0">
  <title>Jul 6
0 Contributions</title>
  <animate attributeName="opacity" from="0" to="1" dur="0.4s" begin="2.18s" fill="freeze"/>
  <animate attributeName="r" values="2.2;3.2;2.2" dur="4s" begin="2.58s" repeatCount="indefinite"/>
</circle>
<circle cx="727.2" cy="403.6" r="2.7" fill="#58A6B8" stroke="#0d0d0d" stroke-width="1" filter="url(#glowSm)" opacity="0">
  <title>Jul 7
3 Contributions</title>
  <animate attributeName="opacity" from="0" to="1" dur="0.4s" begin="2.24s" fill="freeze"/>
  <animate attributeName="r" values="2.7;3.7;2.7" dur="4s" begin="2.64s" repeatCount="indefinite"/>
</circle>
<circle cx="753.8" cy="421.2" r="2.4" fill="#58A6B8" stroke="#0d0d0d" stroke-width="1" filter="url(#glowSm)" opacity="0">
  <title>Jul 8
1 Contribution</title>
  <animate attributeName="opacity" from="0" to="1" dur="0.4s" begin="2.30s" fill="freeze"/>
  <animate attributeName="r" values="2.4;3.4;2.4" dur="4s" begin="2.70s" repeatCount="indefinite"/>
</circle>
<circle cx="780.3" cy="430.0" r="2.2" fill="#58A6B8" stroke="#0d0d0d" stroke-width="1" filter="url(#glowSm)" opacity="0">
  <title>Jul 9
0 Contributions</title>
  <animate attributeName="opacity" from="0" to="1" dur="0.4s" begin="2.36s" fill="freeze"/>
  <animate attributeName="r" values="2.2;3.2;2.2" dur="4s" begin="2.76s" repeatCount="indefinite"/>
</circle>
<circle cx="806.9" cy="430.0" r="2.2" fill="#58A6B8" stroke="#0d0d0d" stroke-width="1" filter="url(#glowSm)" opacity="0">
  <title>Jul 10
0 Contributions</title>
  <animate attributeName="opacity" from="0" to="1" dur="0.4s" begin="2.42s" fill="freeze"/>
  <animate attributeName="r" values="2.2;3.2;2.2" dur="4s" begin="2.82s" repeatCount="indefinite"/>
</circle>
<circle cx="833.4" cy="430.0" r="2.2" fill="#58A6B8" stroke="#0d0d0d" stroke-width="1" filter="url(#glowSm)" opacity="0">
  <title>Jul 11
0 Contributions</title>
  <animate attributeName="opacity" from="0" to="1" dur="0.4s" begin="2.48s" fill="freeze"/>
  <animate attributeName="r" values="2.2;3.2;2.2" dur="4s" begin="2.88s" repeatCount="indefinite"/>
</circle>
<circle cx="860.0" cy="430.0" r="2.2" fill="#58A6B8" stroke="#0d0d0d" stroke-width="1" filter="url(#glowSm)" opacity="0">
  <title>Jul 12
0 Contributions</title>
  <animate attributeName="opacity" from="0" to="1" dur="0.4s" begin="2.54s" fill="freeze"/>
  <animate attributeName="r" values="2.2;3.2;2.2" dur="4s" begin="2.94s" repeatCount="indefinite"/>
</circle>
<text x="90" y="466" text-anchor="start" font-family="Georgia,'Palatino Linotype',serif" font-size="10" fill="#5a7a80" letter-spacing="1.5">JUN</text>
<text x="860" y="466" text-anchor="end" font-family="Georgia,'Palatino Linotype',serif" font-size="10" fill="#5a7a80" letter-spacing="1.5">JUL</text>
<text x="450" y="522" text-anchor="middle" font-family="Georgia,'Palatino Linotype',serif" font-size="9" fill="#5a7a80" letter-spacing="4" opacity="0.5">LAST 30 DAYS OF DARK RITUALS</text>
</svg>