<svg xmlns="http://www.w3.org/2000/svg" viewBox="0 0 900 540" width="900" height="540">
<defs>
  <!-- Gradients -->
  <linearGradient id="areaFill" x1="0" y1="0" x2="0" y2="1">
    <stop offset="0%" stop-color="#58A6B8" stop-opacity="0.28"/>
    <stop offset="85%" stop-color="#58A6B8" stop-opacity="0.03"/>
    <stop offset="100%" stop-color="#58A6B8" stop-opacity="0"/>
  </linearGradient>
  <radialGradient id="haloGrad" cx="50%" cy="50%" r="50%">
    <stop offset="0%" stop-color="#58A6B8" stop-opacity="0.5"/>
    <stop offset="100%" stop-color="#58A6B8" stop-opacity="0"/>
  </radialGradient>
  <linearGradient id="frameFade" x1="0" y1="0" x2="1" y2="1">
    <stop offset="0%" stop-color="#58A6B8" stop-opacity="0.35"/>
    <stop offset="50%" stop-color="#58A6B8" stop-opacity="0.12"/>
    <stop offset="100%" stop-color="#58A6B8" stop-opacity="0.35"/>
  </linearGradient>
  <!-- Filters -->
  <filter id="glowSm" x="-50%" y="-50%" width="200%" height="200%">
    <feGaussianBlur stdDeviation="2.5" result="b"/><feMerge><feMergeNode in="b"/><feMergeNode in="SourceGraphic"/></feMerge>
  </filter>
  <filter id="glowMd" x="-50%" y="-50%" width="200%" height="200%">
    <feGaussianBlur stdDeviation="5" result="b"/><feMerge><feMergeNode in="b"/><feMergeNode in="SourceGraphic"/></feMerge>
  </filter>
  <filter id="glowLg" x="-80%" y="-80%" width="260%" height="260%">
    <feGaussianBlur stdDeviation="10" result="b"/><feMerge><feMergeNode in="b"/><feMergeNode in="SourceGraphic"/></feMerge>
  </filter>
  <filter id="cardShadow" x="-10%" y="-10%" width="120%" height="130%">
    <feGaussianBlur stdDeviation="6" result="b"/><feFlood flood-color="#58A6B8" flood-opacity="0.08" result="c"/>
    <feComposite in="c" in2="b" operator="in" result="s"/><feMerge><feMergeNode in="s"/><feMergeNode in="SourceGraphic"/></feMerge>
  </filter>
</defs>

<!-- Background -->
<rect width="900" height="540" fill="#0d0d0d" rx="16"/>
<line x1="90" y1="210.0" x2="860" y2="210.0" stroke="rgba(88,166,184,0.055)" stroke-width="0.7"/>
<line x1="90" y1="246.7" x2="860" y2="246.7" stroke="rgba(88,166,184,0.055)" stroke-width="0.7"/>
<line x1="90" y1="283.3" x2="860" y2="283.3" stroke="rgba(88,166,184,0.055)" stroke-width="0.7"/>
<line x1="90" y1="320.0" x2="860" y2="320.0" stroke="rgba(88,166,184,0.055)" stroke-width="0.7"/>
<line x1="90" y1="356.7" x2="860" y2="356.7" stroke="rgba(88,166,184,0.055)" stroke-width="0.7"/>
<line x1="90" y1="393.3" x2="860" y2="393.3" stroke="rgba(88,166,184,0.055)" stroke-width="0.7"/>
<line x1="90" y1="430.0" x2="860" y2="430.0" stroke="rgba(88,166,184,0.055)" stroke-width="0.7"/>
<line x1="90.0" y1="210" x2="90.0" y2="430" stroke="rgba(88,166,184,0.055)" stroke-width="0.5"/>
<line x1="222.8" y1="210" x2="222.8" y2="430" stroke="rgba(88,166,184,0.055)" stroke-width="0.5"/>
<line x1="355.5" y1="210" x2="355.5" y2="430" stroke="rgba(88,166,184,0.055)" stroke-width="0.5"/>
<line x1="488.3" y1="210" x2="488.3" y2="430" stroke="rgba(88,166,184,0.055)" stroke-width="0.5"/>
<line x1="621.0" y1="210" x2="621.0" y2="430" stroke="rgba(88,166,184,0.055)" stroke-width="0.5"/>
<line x1="753.8" y1="210" x2="753.8" y2="430" stroke="rgba(88,166,184,0.055)" stroke-width="0.5"/>
<circle cx="259.0" cy="278.6" r="1.3" fill="#58A6B8" opacity="0.069"><animate attributeName="opacity" values="0.069;0.152;0.069" dur="5.2s" begin="1.2s" repeatCount="indefinite"/></circle>
<circle cx="78.0" cy="246.7" r="1.2" fill="#58A6B8" opacity="0.129"><animate attributeName="opacity" values="0.129;0.284;0.129" dur="7.4s" begin="3.7s" repeatCount="indefinite"/></circle>
<circle cx="406.7" cy="145.2" r="1.0" fill="#58A6B8" opacity="0.067"><animate attributeName="opacity" values="0.067;0.147;0.067" dur="5.0s" begin="4.8s" repeatCount="indefinite"/></circle>
<circle cx="751.8" cy="504.6" r="0.5" fill="#58A6B8" opacity="0.121"><animate attributeName="opacity" values="0.121;0.266;0.121" dur="4.8s" begin="3.1s" repeatCount="indefinite"/></circle>
<circle cx="736.7" cy="503.3" r="0.6" fill="#58A6B8" opacity="0.066"><animate attributeName="opacity" values="0.066;0.145;0.066" dur="3.5s" begin="1.5s" repeatCount="indefinite"/></circle>
<circle cx="564.8" cy="164.0" r="1.0" fill="#58A6B8" opacity="0.159"><animate attributeName="opacity" values="0.159;0.350;0.159" dur="5.8s" begin="1.3s" repeatCount="indefinite"/></circle>
<circle cx="266.9" cy="92.5" r="1.3" fill="#58A6B8" opacity="0.068"><animate attributeName="opacity" values="0.068;0.150;0.068" dur="5.3s" begin="3.4s" repeatCount="indefinite"/></circle>
<circle cx="537.9" cy="71.2" r="0.7" fill="#58A6B8" opacity="0.077"><animate attributeName="opacity" values="0.077;0.169;0.077" dur="6.0s" begin="0.3s" repeatCount="indefinite"/></circle>
<circle cx="179.8" cy="253.7" r="1.0" fill="#58A6B8" opacity="0.113"><animate attributeName="opacity" values="0.113;0.249;0.113" dur="8.2s" begin="5.4s" repeatCount="indefinite"/></circle>
<circle cx="304.4" cy="496.8" r="0.8" fill="#58A6B8" opacity="0.102"><animate attributeName="opacity" values="0.102;0.224;0.102" dur="4.0s" begin="2.6s" repeatCount="indefinite"/></circle>
<circle cx="494.3" cy="65.4" r="1.0" fill="#58A6B8" opacity="0.151"><animate attributeName="opacity" values="0.151;0.332;0.151" dur="7.1s" begin="0.1s" repeatCount="indefinite"/></circle>
<circle cx="879.8" cy="287.1" r="1.1" fill="#58A6B8" opacity="0.128"><animate attributeName="opacity" values="0.128;0.282;0.128" dur="6.8s" begin="5.8s" repeatCount="indefinite"/></circle>
<circle cx="817.0" cy="313.8" r="1.4" fill="#58A6B8" opacity="0.098"><animate attributeName="opacity" values="0.098;0.216;0.098" dur="4.3s" begin="1.8s" repeatCount="indefinite"/></circle>
<circle cx="142.2" cy="335.6" r="0.8" fill="#58A6B8" opacity="0.148"><animate attributeName="opacity" values="0.148;0.326;0.148" dur="6.5s" begin="0.3s" repeatCount="indefinite"/></circle>
<circle cx="526.7" cy="298.7" r="0.4" fill="#58A6B8" opacity="0.113"><animate attributeName="opacity" values="0.113;0.249;0.113" dur="8.4s" begin="4.1s" repeatCount="indefinite"/></circle>
<circle cx="77.2" cy="450.0" r="0.7" fill="#58A6B8" opacity="0.101"><animate attributeName="opacity" values="0.101;0.222;0.101" dur="8.4s" begin="2.8s" repeatCount="indefinite"/></circle>
<circle cx="84.6" cy="139.8" r="0.8" fill="#58A6B8" opacity="0.046"><animate attributeName="opacity" values="0.046;0.101;0.046" dur="4.6s" begin="3.9s" repeatCount="indefinite"/></circle>
<circle cx="773.3" cy="320.6" r="1.4" fill="#58A6B8" opacity="0.060"><animate attributeName="opacity" values="0.060;0.132;0.060" dur="4.3s" begin="3.7s" repeatCount="indefinite"/></circle>
<circle cx="531.9" cy="411.5" r="0.6" fill="#58A6B8" opacity="0.065"><animate attributeName="opacity" values="0.065;0.143;0.065" dur="4.2s" begin="5.3s" repeatCount="indefinite"/></circle>
<circle cx="646.8" cy="506.9" r="1.0" fill="#58A6B8" opacity="0.142"><animate attributeName="opacity" values="0.142;0.312;0.142" dur="4.0s" begin="2.7s" repeatCount="indefinite"/></circle>
<circle cx="7.6" cy="482.7" r="0.8" fill="#58A6B8" opacity="0.120"><animate attributeName="opacity" values="0.120;0.264;0.120" dur="5.1s" begin="0.9s" repeatCount="indefinite"/></circle>
<circle cx="103.1" cy="499.8" r="0.5" fill="#58A6B8" opacity="0.128"><animate attributeName="opacity" values="0.128;0.282;0.128" dur="4.1s" begin="2.4s" repeatCount="indefinite"/></circle>
<circle cx="7.6" cy="490.6" r="0.3" fill="#58A6B8" opacity="0.042"><animate attributeName="opacity" values="0.042;0.092;0.042" dur="4.0s" begin="5.2s" repeatCount="indefinite"/></circle>
<circle cx="647.2" cy="24.5" r="1.1" fill="#58A6B8" opacity="0.069"><animate attributeName="opacity" values="0.069;0.152;0.069" dur="5.0s" begin="0.8s" repeatCount="indefinite"/></circle>
<circle cx="293.4" cy="387.2" r="0.6" fill="#58A6B8" opacity="0.109"><animate attributeName="opacity" values="0.109;0.240;0.109" dur="7.4s" begin="1.7s" repeatCount="indefinite"/></circle>
<circle cx="451.3" cy="437.0" r="0.8" fill="#58A6B8" opacity="0.086"><animate attributeName="opacity" values="0.086;0.189;0.086" dur="4.2s" begin="2.8s" repeatCount="indefinite"/></circle>
<circle cx="509.0" cy="456.9" r="1.1" fill="#58A6B8" opacity="0.153"><animate attributeName="opacity" values="0.153;0.337;0.153" dur="3.8s" begin="0.4s" repeatCount="indefinite"/></circle>
<circle cx="334.3" cy="507.7" r="0.8" fill="#58A6B8" opacity="0.046"><animate attributeName="opacity" values="0.046;0.101;0.046" dur="6.5s" begin="4.8s" repeatCount="indefinite"/></circle>
<circle cx="792.1" cy="390.7" r="0.4" fill="#58A6B8" opacity="0.085"><animate attributeName="opacity" values="0.085;0.187;0.085" dur="6.6s" begin="0.3s" repeatCount="indefinite"/></circle>
<circle cx="318.4" cy="160.3" r="1.4" fill="#58A6B8" opacity="0.142"><animate attributeName="opacity" values="0.142;0.312;0.142" dur="8.4s" begin="0.1s" repeatCount="indefinite"/></circle>
<circle cx="881.8" cy="216.7" r="0.4" fill="#58A6B8" opacity="0.086"><animate attributeName="opacity" values="0.086;0.189;0.086" dur="3.8s" begin="3.0s" repeatCount="indefinite"/></circle>
<circle cx="46.6" cy="520.1" r="0.6" fill="#58A6B8" opacity="0.049"><animate attributeName="opacity" values="0.049;0.108;0.049" dur="6.6s" begin="3.5s" repeatCount="indefinite"/></circle>
<circle cx="469.4" cy="505.2" r="0.5" fill="#58A6B8" opacity="0.100"><animate attributeName="opacity" values="0.100;0.220;0.100" dur="7.8s" begin="0.6s" repeatCount="indefinite"/></circle>
<circle cx="827.9" cy="45.7" r="0.8" fill="#58A6B8" opacity="0.079"><animate attributeName="opacity" values="0.079;0.174;0.079" dur="7.0s" begin="4.5s" repeatCount="indefinite"/></circle>
<circle cx="784.4" cy="301.0" r="1.2" fill="#58A6B8" opacity="0.151"><animate attributeName="opacity" values="0.151;0.332;0.151" dur="5.4s" begin="3.6s" repeatCount="indefinite"/></circle>
<circle cx="180.7" cy="284.3" r="0.9" fill="#58A6B8" opacity="0.082"><animate attributeName="opacity" values="0.082;0.180;0.082" dur="5.9s" begin="4.1s" repeatCount="indefinite"/></circle>
<circle cx="145.4" cy="168.8" r="0.5" fill="#58A6B8" opacity="0.096"><animate attributeName="opacity" values="0.096;0.211;0.096" dur="6.6s" begin="3.7s" repeatCount="indefinite"/></circle>
<circle cx="545.7" cy="473.9" r="0.4" fill="#58A6B8" opacity="0.040"><animate attributeName="opacity" values="0.040;0.088;0.040" dur="6.2s" begin="0.9s" repeatCount="indefinite"/></circle>
<circle cx="216.9" cy="284.6" r="1.2" fill="#58A6B8" opacity="0.127"><animate attributeName="opacity" values="0.127;0.279;0.127" dur="5.4s" begin="2.0s" repeatCount="indefinite"/></circle>
<circle cx="407.1" cy="232.8" r="0.7" fill="#58A6B8" opacity="0.078"><animate attributeName="opacity" values="0.078;0.172;0.078" dur="5.6s" begin="1.8s" repeatCount="indefinite"/></circle>
<circle cx="203.0" cy="56.4" r="1.3" fill="#58A6B8" opacity="0.090"><animate attributeName="opacity" values="0.090;0.198;0.090" dur="3.9s" begin="5.4s" repeatCount="indefinite"/></circle>
<circle cx="235.4" cy="535.0" r="0.6" fill="#58A6B8" opacity="0.088"><animate attributeName="opacity" values="0.088;0.194;0.088" dur="4.4s" begin="2.4s" repeatCount="indefinite"/></circle>
<circle cx="13.6" cy="181.4" r="1.0" fill="#58A6B8" opacity="0.154"><animate attributeName="opacity" values="0.154;0.339;0.154" dur="7.9s" begin="0.5s" repeatCount="indefinite"/></circle>
<circle cx="433.6" cy="467.1" r="0.4" fill="#58A6B8" opacity="0.046"><animate attributeName="opacity" values="0.046;0.101;0.046" dur="4.2s" begin="5.1s" repeatCount="indefinite"/></circle>
<circle cx="15.2" cy="197.3" r="0.6" fill="#58A6B8" opacity="0.074"><animate attributeName="opacity" values="0.074;0.163;0.074" dur="8.3s" begin="2.5s" repeatCount="indefinite"/></circle>
<circle cx="502.9" cy="411.5" r="0.5" fill="#58A6B8" opacity="0.097"><animate attributeName="opacity" values="0.097;0.213;0.097" dur="5.7s" begin="2.4s" repeatCount="indefinite"/></circle>
<circle cx="193.4" cy="312.1" r="0.8" fill="#58A6B8" opacity="0.143"><animate attributeName="opacity" values="0.143;0.315;0.143" dur="7.1s" begin="0.5s" repeatCount="indefinite"/></circle>
<circle cx="304.6" cy="409.7" r="1.2" fill="#58A6B8" opacity="0.048"><animate attributeName="opacity" values="0.048;0.106;0.048" dur="8.3s" begin="3.9s" repeatCount="indefinite"/></circle>
<circle cx="678.7" cy="405.3" r="0.9" fill="#58A6B8" opacity="0.128"><animate attributeName="opacity" values="0.128;0.282;0.128" dur="6.4s" begin="4.4s" repeatCount="indefinite"/></circle>
<circle cx="342.9" cy="399.1" r="1.2" fill="#58A6B8" opacity="0.053"><animate attributeName="opacity" values="0.053;0.117;0.053" dur="5.9s" begin="4.2s" repeatCount="indefinite"/></circle>
<circle cx="17.0" cy="366.5" r="1.2" fill="#58A6B8" opacity="0.143"><animate attributeName="opacity" values="0.143;0.315;0.143" dur="8.5s" begin="3.6s" repeatCount="indefinite"/></circle>
<circle cx="689.5" cy="284.4" r="0.4" fill="#58A6B8" opacity="0.065"><animate attributeName="opacity" values="0.065;0.143;0.065" dur="5.5s" begin="5.4s" repeatCount="indefinite"/></circle>
<circle cx="316.9" cy="153.1" r="0.6" fill="#58A6B8" opacity="0.132"><animate attributeName="opacity" values="0.132;0.290;0.132" dur="8.5s" begin="4.1s" repeatCount="indefinite"/></circle>
<circle cx="518.1" cy="441.2" r="0.4" fill="#58A6B8" opacity="0.096"><animate attributeName="opacity" values="0.096;0.211;0.096" dur="6.4s" begin="1.4s" repeatCount="indefinite"/></circle>
<circle cx="893.9" cy="376.8" r="0.6" fill="#58A6B8" opacity="0.100"><animate attributeName="opacity" values="0.100;0.220;0.100" dur="4.7s" begin="2.8s" repeatCount="indefinite"/></circle>
<g transform="translate(389.3,487.7) rotate(45)" opacity="0.096"><rect x="-1.4" y="-1.4" width="2.9" height="2.9" fill="#58A6B8"/><animate attributeName="opacity" values="0.096;0.240;0.096" dur="8.0s" begin="2.0s" repeatCount="indefinite"/></g>
<g transform="translate(422.5,189.3) rotate(45)" opacity="0.085"><rect x="-1.8" y="-1.8" width="3.6" height="3.6" fill="#58A6B8"/><animate attributeName="opacity" values="0.085;0.213;0.085" dur="7.7s" begin="2.3s" repeatCount="indefinite"/></g>
<g transform="translate(56.8,248.1) rotate(45)" opacity="0.098"><rect x="-2.2" y="-2.2" width="4.4" height="4.4" fill="#58A6B8"/><animate attributeName="opacity" values="0.098;0.245;0.098" dur="9.7s" begin="0.8s" repeatCount="indefinite"/></g>
<g transform="translate(205.2,430.3) rotate(45)" opacity="0.064"><rect x="-2.0" y="-2.0" width="4.1" height="4.1" fill="#58A6B8"/><animate attributeName="opacity" values="0.064;0.160;0.064" dur="9.5s" begin="3.8s" repeatCount="indefinite"/></g>
<g transform="translate(722.1,344.1) rotate(45)" opacity="0.087"><rect x="-1.7" y="-1.7" width="3.5" height="3.5" fill="#58A6B8"/><animate attributeName="opacity" values="0.087;0.217;0.087" dur="7.7s" begin="2.7s" repeatCount="indefinite"/></g>
<g transform="translate(735.1,102.1) rotate(45)" opacity="0.088"><rect x="-1.6" y="-1.6" width="3.1" height="3.1" fill="#58A6B8"/><animate attributeName="opacity" values="0.088;0.220;0.088" dur="7.6s" begin="1.2s" repeatCount="indefinite"/></g>
<g transform="translate(462.9,452.6) rotate(45)" opacity="0.089"><rect x="-2.2" y="-2.2" width="4.5" height="4.5" fill="#58A6B8"/><animate attributeName="opacity" values="0.089;0.222;0.089" dur="6.9s" begin="1.7s" repeatCount="indefinite"/></g>
<g transform="translate(722.2,354.0) rotate(45)" opacity="0.061"><rect x="-1.8" y="-1.8" width="3.6" height="3.6" fill="#58A6B8"/><animate attributeName="opacity" values="0.061;0.152;0.061" dur="9.4s" begin="2.5s" repeatCount="indefinite"/></g>
<g transform="translate(18,18) scale(1,1)"><path d="M0 25 L0 6 Q0 0 6 0 L25 0" fill="none" stroke="#58A6B8" stroke-width="1.3" opacity="0.35"/><circle cx="0" cy="0" r="1.8" fill="#58A6B8" opacity="0.4"/><path d="M0 12 L5 12" fill="none" stroke="#58A6B8" stroke-width="0.6" opacity="0.2"/><path d="M12 0 L12 5" fill="none" stroke="#58A6B8" stroke-width="0.6" opacity="0.2"/></g><g transform="translate(882,18) scale(-1,1)"><path d="M0 25 L0 6 Q0 0 6 0 L25 0" fill="none" stroke="#58A6B8" stroke-width="1.3" opacity="0.35"/><circle cx="0" cy="0" r="1.8" fill="#58A6B8" opacity="0.4"/><path d="M0 12 L5 12" fill="none" stroke="#58A6B8" stroke-width="0.6" opacity="0.2"/><path d="M12 0 L12 5" fill="none" stroke="#58A6B8" stroke-width="0.6" opacity="0.2"/></g><g transform="translate(18,522) scale(1,-1)"><path d="M0 25 L0 6 Q0 0 6 0 L25 0" fill="none" stroke="#58A6B8" stroke-width="1.3" opacity="0.35"/><circle cx="0" cy="0" r="1.8" fill="#58A6B8" opacity="0.4"/><path d="M0 12 L5 12" fill="none" stroke="#58A6B8" stroke-width="0.6" opacity="0.2"/><path d="M12 0 L12 5" fill="none" stroke="#58A6B8" stroke-width="0.6" opacity="0.2"/></g><g transform="translate(882,522) scale(-1,-1)"><path d="M0 25 L0 6 Q0 0 6 0 L25 0" fill="none" stroke="#58A6B8" stroke-width="1.3" opacity="0.35"/><circle cx="0" cy="0" r="1.8" fill="#58A6B8" opacity="0.4"/><path d="M0 12 L5 12" fill="none" stroke="#58A6B8" stroke-width="0.6" opacity="0.2"/><path d="M12 0 L12 5" fill="none" stroke="#58A6B8" stroke-width="0.6" opacity="0.2"/></g>
<rect x="10" y="10" width="880" height="520" rx="12" fill="none" stroke="url(#frameFade)" stroke-width="1"/>
<text x="450" y="50" text-anchor="middle" font-family="Georgia,'Palatino Linotype','Book Antiqua',Palatino,serif" font-size="22" font-weight="bold" fill="#e8f4f7" letter-spacing="8" filter="url(#glowMd)">✧ THE COMMIT COVEN ✧</text>
<line x1="310" y1="62" x2="590" y2="62" stroke="#58A6B8" stroke-width="0.5" opacity="0.25"/>
<g filter="url(#cardShadow)"><rect x="70" y="80" width="240" height="78" rx="10" fill="rgba(88,166,184,0.05)" stroke="rgba(88,166,184,0.22)" stroke-width="0.8"/><text x="190" y="110" text-anchor="middle" font-family="Georgia,'Palatino Linotype',serif" font-size="11" fill="#5a7a80" letter-spacing="3" text-transform="uppercase">LONGEST STREAK</text><text x="190" y="136" text-anchor="middle" font-family="Georgia,'Palatino Linotype',serif" font-size="20" fill="#e8f4f7" font-weight="bold" filter="url(#glowSm)">12 Nights</text></g>
<g filter="url(#cardShadow)"><rect x="330" y="80" width="240" height="78" rx="10" fill="rgba(88,166,184,0.05)" stroke="rgba(88,166,184,0.22)" stroke-width="0.8"/><text x="450" y="110" text-anchor="middle" font-family="Georgia,'Palatino Linotype',serif" font-size="11" fill="#5a7a80" letter-spacing="3" text-transform="uppercase">CURRENT RITUAL</text><text x="450" y="136" text-anchor="middle" font-family="Georgia,'Palatino Linotype',serif" font-size="20" fill="#e8f4f7" font-weight="bold" filter="url(#glowSm)">0 Nights</text></g>
<g filter="url(#cardShadow)"><rect x="590" y="80" width="240" height="78" rx="10" fill="rgba(88,166,184,0.05)" stroke="rgba(88,166,184,0.22)" stroke-width="0.8"/><text x="710" y="110" text-anchor="middle" font-family="Georgia,'Palatino Linotype',serif" font-size="11" fill="#5a7a80" letter-spacing="3" text-transform="uppercase">TOTAL OFFERINGS</text><text x="710" y="136" text-anchor="middle" font-family="Georgia,'Palatino Linotype',serif" font-size="20" fill="#e8f4f7" font-weight="bold" filter="url(#glowSm)">198</text></g>
<text x="80" y="434.0" text-anchor="end" font-family="'Courier New',monospace" font-size="10" fill="#5a7a80">0</text>
<line x1="86" y1="430.0" x2="90" y2="430.0" stroke="#5a7a80" stroke-width="0.5"/>
<text x="80" y="390.0" text-anchor="end" font-family="'Courier New',monospace" font-size="10" fill="#5a7a80">5</text>
<line x1="86" y1="386.0" x2="90" y2="386.0" stroke="#5a7a80" stroke-width="0.5"/>
<text x="80" y="346.0" text-anchor="end" font-family="'Courier New',monospace" font-size="10" fill="#5a7a80">10</text>
<line x1="86" y1="342.0" x2="90" y2="342.0" stroke="#5a7a80" stroke-width="0.5"/>
<text x="80" y="302.0" text-anchor="end" font-family="'Courier New',monospace" font-size="10" fill="#5a7a80">15</text>
<line x1="86" y1="298.0" x2="90" y2="298.0" stroke="#5a7a80" stroke-width="0.5"/>
<text x="80" y="258.0" text-anchor="end" font-family="'Courier New',monospace" font-size="10" fill="#5a7a80">20</text>
<line x1="86" y1="254.0" x2="90" y2="254.0" stroke="#5a7a80" stroke-width="0.5"/>
<text x="80" y="214.0" text-anchor="end" font-family="'Courier New',monospace" font-size="10" fill="#5a7a80">25</text>
<line x1="86" y1="210.0" x2="90" y2="210.0" stroke="#5a7a80" stroke-width="0.5"/>
<text x="90.0" y="450" text-anchor="middle" font-family="'Courier New',monospace" font-size="10" fill="#5a7a80">11</text>
<text x="196.2" y="450" text-anchor="middle" font-family="'Courier New',monospace" font-size="10" fill="#5a7a80">15</text>
<text x="302.4" y="450" text-anchor="middle" font-family="'Courier New',monospace" font-size="10" fill="#5a7a80">19</text>
<text x="408.6" y="450" text-anchor="middle" font-family="'Courier New',monospace" font-size="10" fill="#5a7a80">23</text>
<text x="514.8" y="450" text-anchor="middle" font-family="'Courier New',monospace" font-size="10" fill="#5a7a80">27</text>
<text x="621.0" y="450" text-anchor="middle" font-family="'Courier New',monospace" font-size="10" fill="#5a7a80">1</text>
<text x="727.2" y="450" text-anchor="middle" font-family="'Courier New',monospace" font-size="10" fill="#5a7a80">5</text>
<text x="833.4" y="450" text-anchor="middle" font-family="'Courier New',monospace" font-size="10" fill="#5a7a80">9</text>
<text x="860.0" y="450" text-anchor="middle" font-family="'Courier New',monospace" font-size="10" fill="#5a7a80">10</text>
<line x1="90" y1="210" x2="90" y2="430" stroke="#58A6B8" stroke-width="0.5" opacity="0.2"/>
<line x1="90" y1="430" x2="860" y2="430" stroke="#58A6B8" stroke-width="0.5" opacity="0.2"/>
<path d="M90.0 430.0 C93.5 430.0,109.5 430.0,116.6 430.0 C123.6 430.0,136.0 435.9,143.1 430.0 C150.2 424.1,162.6 394.2,169.7 386.0 C176.7 377.8,189.1 367.2,196.2 368.4 C203.3 369.6,215.7 398.3,222.8 394.8 C229.8 391.3,242.2 350.2,249.3 342.0 C256.4 333.8,268.8 347.3,275.9 333.2 C282.9 319.1,295.3 228.2,302.4 236.4 C309.5 244.6,321.9 370.2,329.0 394.8 C336.0 419.4,348.4 418.9,355.5 421.2 C362.6 423.5,375.0 417.1,382.1 412.4 C389.1 407.7,401.5 387.2,408.6 386.0 C415.7 384.8,428.1 398.9,435.2 403.6 C442.3 408.3,454.6 417.7,461.7 421.2 C468.8 424.7,481.2 428.8,488.3 430.0 C495.4 431.2,507.7 430.0,514.8 430.0 C521.9 430.0,534.3 430.0,541.4 430.0 C548.5 430.0,560.9 435.9,567.9 430.0 C575.0 424.1,587.4 393.0,594.5 386.0 C601.6 379.0,614.0 381.9,621.0 377.2 C628.1 372.5,640.5 344.9,647.6 350.8 C654.7 356.7,667.1 410.6,674.1 421.2 C681.2 431.8,693.6 430.0,700.7 430.0 C707.8 430.0,720.2 421.2,727.2 421.2 C734.3 421.2,746.7 432.3,753.8 430.0 C760.9 427.7,773.3 404.8,780.3 403.6 C787.4 402.4,799.8 417.7,806.9 421.2 C814.0 424.7,826.4 428.8,833.4 430.0 C840.5 431.2,856.5 430.0,860.0 430.0 L860.0 430 L90.0 430 Z" fill="url(#areaFill)" opacity="0.9">
  <animate attributeName="opacity" values="0;0.9" dur="2s" fill="freeze"/>
</path>
<path d="M90.0 430.0 C93.5 430.0,109.5 430.0,116.6 430.0 C123.6 430.0,136.0 435.9,143.1 430.0 C150.2 424.1,162.6 394.2,169.7 386.0 C176.7 377.8,189.1 367.2,196.2 368.4 C203.3 369.6,215.7 398.3,222.8 394.8 C229.8 391.3,242.2 350.2,249.3 342.0 C256.4 333.8,268.8 347.3,275.9 333.2 C282.9 319.1,295.3 228.2,302.4 236.4 C309.5 244.6,321.9 370.2,329.0 394.8 C336.0 419.4,348.4 418.9,355.5 421.2 C362.6 423.5,375.0 417.1,382.1 412.4 C389.1 407.7,401.5 387.2,408.6 386.0 C415.7 384.8,428.1 398.9,435.2 403.6 C442.3 408.3,454.6 417.7,461.7 421.2 C468.8 424.7,481.2 428.8,488.3 430.0 C495.4 431.2,507.7 430.0,514.8 430.0 C521.9 430.0,534.3 430.0,541.4 430.0 C548.5 430.0,560.9 435.9,567.9 430.0 C575.0 424.1,587.4 393.0,594.5 386.0 C601.6 379.0,614.0 381.9,621.0 377.2 C628.1 372.5,640.5 344.9,647.6 350.8 C654.7 356.7,667.1 410.6,674.1 421.2 C681.2 431.8,693.6 430.0,700.7 430.0 C707.8 430.0,720.2 421.2,727.2 421.2 C734.3 421.2,746.7 432.3,753.8 430.0 C760.9 427.7,773.3 404.8,780.3 403.6 C787.4 402.4,799.8 417.7,806.9 421.2 C814.0 424.7,826.4 428.8,833.4 430.0 C840.5 431.2,856.5 430.0,860.0 430.0" fill="none" stroke="#58A6B8" stroke-width="4" opacity="0.15" filter="url(#glowLg)" stroke-linecap="round" stroke-linejoin="round"/>
<path d="M90.0 430.0 C93.5 430.0,109.5 430.0,116.6 430.0 C123.6 430.0,136.0 435.9,143.1 430.0 C150.2 424.1,162.6 394.2,169.7 386.0 C176.7 377.8,189.1 367.2,196.2 368.4 C203.3 369.6,215.7 398.3,222.8 394.8 C229.8 391.3,242.2 350.2,249.3 342.0 C256.4 333.8,268.8 347.3,275.9 333.2 C282.9 319.1,295.3 228.2,302.4 236.4 C309.5 244.6,321.9 370.2,329.0 394.8 C336.0 419.4,348.4 418.9,355.5 421.2 C362.6 423.5,375.0 417.1,382.1 412.4 C389.1 407.7,401.5 387.2,408.6 386.0 C415.7 384.8,428.1 398.9,435.2 403.6 C442.3 408.3,454.6 417.7,461.7 421.2 C468.8 424.7,481.2 428.8,488.3 430.0 C495.4 431.2,507.7 430.0,514.8 430.0 C521.9 430.0,534.3 430.0,541.4 430.0 C548.5 430.0,560.9 435.9,567.9 430.0 C575.0 424.1,587.4 393.0,594.5 386.0 C601.6 379.0,614.0 381.9,621.0 377.2 C628.1 372.5,640.5 344.9,647.6 350.8 C654.7 356.7,667.1 410.6,674.1 421.2 C681.2 431.8,693.6 430.0,700.7 430.0 C707.8 430.0,720.2 421.2,727.2 421.2 C734.3 421.2,746.7 432.3,753.8 430.0 C760.9 427.7,773.3 404.8,780.3 403.6 C787.4 402.4,799.8 417.7,806.9 421.2 C814.0 424.7,826.4 428.8,833.4 430.0 C840.5 431.2,856.5 430.0,860.0 430.0" fill="none" stroke="#58A6B8" stroke-width="2.2" stroke-linecap="round" stroke-linejoin="round" filter="url(#glowSm)" stroke-dasharray="1555" stroke-dashoffset="1555">
  <animate attributeName="stroke-dashoffset" from="1555" to="0" dur="2.5s" fill="freeze" calcMode="spline" keySplines="0.4 0 0.2 1"/>
  <animate attributeName="opacity" values="0.7;1;0.85;1" dur="6s" begin="2.5s" repeatCount="indefinite"/>
</path>
<circle cx="90.0" cy="430.0" r="2.2" fill="#58A6B8" stroke="#0d0d0d" stroke-width="1" filter="url(#glowSm)" opacity="0">
  <title>Jun 11
0 Contributions</title>
  <animate attributeName="opacity" from="0" to="1" dur="0.4s" begin="0.80s" fill="freeze"/>
  <animate attributeName="r" values="2.2;3.2;2.2" dur="4s" begin="1.20s" repeatCount="indefinite"/>
</circle>
<circle cx="116.6" cy="430.0" r="2.2" fill="#58A6B8" stroke="#0d0d0d" stroke-width="1" filter="url(#glowSm)" opacity="0">
  <title>Jun 12
0 Contributions</title>
  <animate attributeName="opacity" from="0" to="1" dur="0.4s" begin="0.86s" fill="freeze"/>
  <animate attributeName="r" values="2.2;3.2;2.2" dur="4s" begin="1.26s" repeatCount="indefinite"/>
</circle>
<circle cx="143.1" cy="430.0" r="2.2" fill="#58A6B8" stroke="#0d0d0d" stroke-width="1" filter="url(#glowSm)" opacity="0">
  <title>Jun 13
0 Contributions</title>
  <animate attributeName="opacity" from="0" to="1" dur="0.4s" begin="0.92s" fill="freeze"/>
  <animate attributeName="r" values="2.2;3.2;2.2" dur="4s" begin="1.32s" repeatCount="indefinite"/>
</circle>
<circle cx="169.7" cy="386.0" r="3.0" fill="#58A6B8" stroke="#0d0d0d" stroke-width="1" filter="url(#glowSm)" opacity="0">
  <title>Jun 14
5 Contributions</title>
  <animate attributeName="opacity" from="0" to="1" dur="0.4s" begin="0.98s" fill="freeze"/>
  <animate attributeName="r" values="3.0;4.0;3.0" dur="4s" begin="1.38s" repeatCount="indefinite"/>
</circle>
<circle cx="196.2" cy="368.4" r="3.3" fill="#58A6B8" stroke="#0d0d0d" stroke-width="1" filter="url(#glowSm)" opacity="0">
  <title>Jun 15
7 Contributions</title>
  <animate attributeName="opacity" from="0" to="1" dur="0.4s" begin="1.04s" fill="freeze"/>
  <animate attributeName="r" values="3.3;4.3;3.3" dur="4s" begin="1.44s" repeatCount="indefinite"/>
</circle>
<circle cx="222.8" cy="394.8" r="2.8" fill="#58A6B8" stroke="#0d0d0d" stroke-width="1" filter="url(#glowSm)" opacity="0">
  <title>Jun 16
4 Contributions</title>
  <animate attributeName="opacity" from="0" to="1" dur="0.4s" begin="1.10s" fill="freeze"/>
  <animate attributeName="r" values="2.8;3.8;2.8" dur="4s" begin="1.50s" repeatCount="indefinite"/>
</circle>
<circle cx="249.3" cy="342.0" r="3.8" fill="#58A6B8" stroke="#0d0d0d" stroke-width="1" filter="url(#glowSm)" opacity="0">
  <title>Jun 17
10 Contributions</title>
  <animate attributeName="opacity" from="0" to="1" dur="0.4s" begin="1.16s" fill="freeze"/>
  <animate attributeName="r" values="3.8;4.8;3.8" dur="4s" begin="1.56s" repeatCount="indefinite"/>
</circle>
<circle cx="275.9" cy="333.2" r="4.0" fill="#58A6B8" stroke="#0d0d0d" stroke-width="1" filter="url(#glowSm)" opacity="0">
  <title>Jun 18
11 Contributions</title>
  <animate attributeName="opacity" from="0" to="1" dur="0.4s" begin="1.22s" fill="freeze"/>
  <animate attributeName="r" values="4.0;5.0;4.0" dur="4s" begin="1.62s" repeatCount="indefinite"/>
</circle>
<circle cx="302.4" cy="236.4" r="18" fill="url(#haloGrad)" opacity="0">
  <animate attributeName="opacity" values="0;0.6;0.3;0.6" dur="4s" begin="1.28s" repeatCount="indefinite"/>
  <animate attributeName="r" values="14;22;14" dur="4s" begin="1.28s" repeatCount="indefinite"/>
</circle>
<circle cx="302.4" cy="236.4" r="7.2" fill="#e8f4f7" stroke="#0d0d0d" stroke-width="1" filter="url(#glowMd)" opacity="0">
  <title>Jun 19
22 Contributions</title>
  <animate attributeName="opacity" from="0" to="1" dur="0.4s" begin="1.28s" fill="freeze"/>
  <animate attributeName="r" values="7.2;9.2;7.2" dur="3s" begin="1.68s" repeatCount="indefinite"/>
</circle>
<circle cx="329.0" cy="394.8" r="2.8" fill="#58A6B8" stroke="#0d0d0d" stroke-width="1" filter="url(#glowSm)" opacity="0">
  <title>Jun 20
4 Contributions</title>
  <animate attributeName="opacity" from="0" to="1" dur="0.4s" begin="1.34s" fill="freeze"/>
  <animate attributeName="r" values="2.8;3.8;2.8" dur="4s" begin="1.74s" repeatCount="indefinite"/>
</circle>
<circle cx="355.5" cy="421.2" r="2.4" fill="#58A6B8" stroke="#0d0d0d" stroke-width="1" filter="url(#glowSm)" opacity="0">
  <title>Jun 21
1 Contribution</title>
  <animate attributeName="opacity" from="0" to="1" dur="0.4s" begin="1.40s" fill="freeze"/>
  <animate attributeName="r" values="2.4;3.4;2.4" dur="4s" begin="1.80s" repeatCount="indefinite"/>
</circle>
<circle cx="382.1" cy="412.4" r="2.5" fill="#58A6B8" stroke="#0d0d0d" stroke-width="1" filter="url(#glowSm)" opacity="0">
  <title>Jun 22
2 Contributions</title>
  <animate attributeName="opacity" from="0" to="1" dur="0.4s" begin="1.46s" fill="freeze"/>
  <animate attributeName="r" values="2.5;3.5;2.5" dur="4s" begin="1.86s" repeatCount="indefinite"/>
</circle>
<circle cx="408.6" cy="386.0" r="3.0" fill="#58A6B8" stroke="#0d0d0d" stroke-width="1" filter="url(#glowSm)" opacity="0">
  <title>Jun 23
5 Contributions</title>
  <animate attributeName="opacity" from="0" to="1" dur="0.4s" begin="1.52s" fill="freeze"/>
  <animate attributeName="r" values="3.0;4.0;3.0" dur="4s" begin="1.92s" repeatCount="indefinite"/>
</circle>
<circle cx="435.2" cy="403.6" r="2.7" fill="#58A6B8" stroke="#0d0d0d" stroke-width="1" filter="url(#glowSm)" opacity="0">
  <title>Jun 24
3 Contributions</title>
  <animate attributeName="opacity" from="0" to="1" dur="0.4s" begin="1.58s" fill="freeze"/>
  <animate attributeName="r" values="2.7;3.7;2.7" dur="4s" begin="1.98s" repeatCount="indefinite"/>
</circle>
<circle cx="461.7" cy="421.2" r="2.4" fill="#58A6B8" stroke="#0d0d0d" stroke-width="1" filter="url(#glowSm)" opacity="0">
  <title>Jun 25
1 Contribution</title>
  <animate attributeName="opacity" from="0" to="1" dur="0.4s" begin="1.64s" fill="freeze"/>
  <animate attributeName="r" values="2.4;3.4;2.4" dur="4s" begin="2.04s" repeatCount="indefinite"/>
</circle>
<circle cx="488.3" cy="430.0" r="2.2" fill="#58A6B8" stroke="#0d0d0d" stroke-width="1" filter="url(#glowSm)" opacity="0">
  <title>Jun 26
0 Contributions</title>
  <animate attributeName="opacity" from="0" to="1" dur="0.4s" begin="1.70s" fill="freeze"/>
  <animate attributeName="r" values="2.2;3.2;2.2" dur="4s" begin="2.10s" repeatCount="indefinite"/>
</circle>
<circle cx="514.8" cy="430.0" r="2.2" fill="#58A6B8" stroke="#0d0d0d" stroke-width="1" filter="url(#glowSm)" opacity="0">
  <title>Jun 27
0 Contributions</title>
  <animate attributeName="opacity" from="0" to="1" dur="0.4s" begin="1.76s" fill="freeze"/>
  <animate attributeName="r" values="2.2;3.2;2.2" dur="4s" begin="2.16s" repeatCount="indefinite"/>
</circle>
<circle cx="541.4" cy="430.0" r="2.2" fill="#58A6B8" stroke="#0d0d0d" stroke-width="1" filter="url(#glowSm)" opacity="0">
  <title>Jun 28
0 Contributions</title>
  <animate attributeName="opacity" from="0" to="1" dur="0.4s" begin="1.82s" fill="freeze"/>
  <animate attributeName="r" values="2.2;3.2;2.2" dur="4s" begin="2.22s" repeatCount="indefinite"/>
</circle>
<circle cx="567.9" cy="430.0" r="2.2" fill="#58A6B8" stroke="#0d0d0d" stroke-width="1" filter="url(#glowSm)" opacity="0">
  <title>Jun 29
0 Contributions</title>
  <animate attributeName="opacity" from="0" to="1" dur="0.4s" begin="1.88s" fill="freeze"/>
  <animate attributeName="r" values="2.2;3.2;2.2" dur="4s" begin="2.28s" repeatCount="indefinite"/>
</circle>
<circle cx="594.5" cy="386.0" r="3.0" fill="#58A6B8" stroke="#0d0d0d" stroke-width="1" filter="url(#glowSm)" opacity="0">
  <title>Jun 30
5 Contributions</title>
  <animate attributeName="opacity" from="0" to="1" dur="0.4s" begin="1.94s" fill="freeze"/>
  <animate attributeName="r" values="3.0;4.0;3.0" dur="4s" begin="2.34s" repeatCount="indefinite"/>
</circle>
<circle cx="621.0" cy="377.2" r="3.2" fill="#58A6B8" stroke="#0d0d0d" stroke-width="1" filter="url(#glowSm)" opacity="0">
  <title>Jul 1
6 Contributions</title>
  <animate attributeName="opacity" from="0" to="1" dur="0.4s" begin="2.00s" fill="freeze"/>
  <animate attributeName="r" values="3.2;4.2;3.2" dur="4s" begin="2.40s" repeatCount="indefinite"/>
</circle>
<circle cx="647.6" cy="350.8" r="3.6" fill="#58A6B8" stroke="#0d0d0d" stroke-width="1" filter="url(#glowSm)" opacity="0">
  <title>Jul 2
9 Contributions</title>
  <animate attributeName="opacity" from="0" to="1" dur="0.4s" begin="2.06s" fill="freeze"/>
  <animate attributeName="r" values="3.6;4.6;3.6" dur="4s" begin="2.46s" repeatCount="indefinite"/>
</circle>
<circle cx="674.1" cy="421.2" r="2.4" fill="#58A6B8" stroke="#0d0d0d" stroke-width="1" filter="url(#glowSm)" opacity="0">
  <title>Jul 3
1 Contribution</title>
  <animate attributeName="opacity" from="0" to="1" dur="0.4s" begin="2.12s" fill="freeze"/>
  <animate attributeName="r" values="2.4;3.4;2.4" dur="4s" begin="2.52s" repeatCount="indefinite"/>
</circle>
<circle cx="700.7" cy="430.0" r="2.2" fill="#58A6B8" stroke="#0d0d0d" stroke-width="1" filter="url(#glowSm)" opacity="0">
  <title>Jul 4
0 Contributions</title>
  <animate attributeName="opacity" from="0" to="1" dur="0.4s" begin="2.18s" fill="freeze"/>
  <animate attributeName="r" values="2.2;3.2;2.2" dur="4s" begin="2.58s" repeatCount="indefinite"/>
</circle>
<circle cx="727.2" cy="421.2" r="2.4" fill="#58A6B8" stroke="#0d0d0d" stroke-width="1" filter="url(#glowSm)" opacity="0">
  <title>Jul 5
1 Contribution</title>
  <animate attributeName="opacity" from="0" to="1" dur="0.4s" begin="2.24s" fill="freeze"/>
  <animate attributeName="r" values="2.4;3.4;2.4" dur="4s" begin="2.64s" repeatCount="indefinite"/>
</circle>
<circle cx="753.8" cy="430.0" r="2.2" fill="#58A6B8" stroke="#0d0d0d" stroke-width="1" filter="url(#glowSm)" opacity="0">
  <title>Jul 6
0 Contributions</title>
  <animate attributeName="opacity" from="0" to="1" dur="0.4s" begin="2.30s" fill="freeze"/>
  <animate attributeName="r" values="2.2;3.2;2.2" dur="4s" begin="2.70s" repeatCount="indefinite"/>
</circle>
<circle cx="780.3" cy="403.6" r="2.7" fill="#58A6B8" stroke="#0d0d0d" stroke-width="1" filter="url(#glowSm)" opacity="0">
  <title>Jul 7
3 Contributions</title>
  <animate attributeName="opacity" from="0" to="1" dur="0.4s" begin="2.36s" fill="freeze"/>
  <animate attributeName="r" values="2.7;3.7;2.7" dur="4s" begin="2.76s" repeatCount="indefinite"/>
</circle>
<circle cx="806.9" cy="421.2" r="2.4" fill="#58A6B8" stroke="#0d0d0d" stroke-width="1" filter="url(#glowSm)" opacity="0">
  <title>Jul 8
1 Contribution</title>
  <animate attributeName="opacity" from="0" to="1" dur="0.4s" begin="2.42s" fill="freeze"/>
  <animate attributeName="r" values="2.4;3.4;2.4" dur="4s" begin="2.82s" repeatCount="indefinite"/>
</circle>
<circle cx="833.4" cy="430.0" r="2.2" fill="#58A6B8" stroke="#0d0d0d" stroke-width="1" filter="url(#glowSm)" opacity="0">
  <title>Jul 9
0 Contributions</title>
  <animate attributeName="opacity" from="0" to="1" dur="0.4s" begin="2.48s" fill="freeze"/>
  <animate attributeName="r" values="2.2;3.2;2.2" dur="4s" begin="2.88s" repeatCount="indefinite"/>
</circle>
<circle cx="860.0" cy="430.0" r="2.2" fill="#58A6B8" stroke="#0d0d0d" stroke-width="1" filter="url(#glowSm)" opacity="0">
  <title>Jul 10
0 Contributions</title>
  <animate attributeName="opacity" from="0" to="1" dur="0.4s" begin="2.54s" fill="freeze"/>
  <animate attributeName="r" values="2.2;3.2;2.2" dur="4s" begin="2.94s" repeatCount="indefinite"/>
</circle>
<text x="90" y="466" text-anchor="start" font-family="Georgia,'Palatino Linotype',serif" font-size="10" fill="#5a7a80" letter-spacing="1.5">JUN</text>
<text x="860" y="466" text-anchor="end" font-family="Georgia,'Palatino Linotype',serif" font-size="10" fill="#5a7a80" letter-spacing="1.5">JUL</text>
<text x="450" y="522" text-anchor="middle" font-family="Georgia,'Palatino Linotype',serif" font-size="9" fill="#5a7a80" letter-spacing="4" opacity="0.5">LAST 30 DAYS OF DARK RITUALS</text>
</svg>