<svg xmlns="http://www.w3.org/2000/svg" viewBox="0 0 900 540" width="900" height="540">
<defs>
  <!-- Gradients -->
  <linearGradient id="areaFill" x1="0" y1="0" x2="0" y2="1">
    <stop offset="0%" stop-color="#58A6B8" stop-opacity="0.28"/>
    <stop offset="85%" stop-color="#58A6B8" stop-opacity="0.03"/>
    <stop offset="100%" stop-color="#58A6B8" stop-opacity="0"/>
  </linearGradient>
  <radialGradient id="haloGrad" cx="50%" cy="50%" r="50%">
    <stop offset="0%" stop-color="#58A6B8" stop-opacity="0.5"/>
    <stop offset="100%" stop-color="#58A6B8" stop-opacity="0"/>
  </radialGradient>
  <linearGradient id="frameFade" x1="0" y1="0" x2="1" y2="1">
    <stop offset="0%" stop-color="#58A6B8" stop-opacity="0.35"/>
    <stop offset="50%" stop-color="#58A6B8" stop-opacity="0.12"/>
    <stop offset="100%" stop-color="#58A6B8" stop-opacity="0.35"/>
  </linearGradient>
  <!-- Filters -->
  <filter id="glowSm" x="-50%" y="-50%" width="200%" height="200%">
    <feGaussianBlur stdDeviation="2.5" result="b"/><feMerge><feMergeNode in="b"/><feMergeNode in="SourceGraphic"/></feMerge>
  </filter>
  <filter id="glowMd" x="-50%" y="-50%" width="200%" height="200%">
    <feGaussianBlur stdDeviation="5" result="b"/><feMerge><feMergeNode in="b"/><feMergeNode in="SourceGraphic"/></feMerge>
  </filter>
  <filter id="glowLg" x="-80%" y="-80%" width="260%" height="260%">
    <feGaussianBlur stdDeviation="10" result="b"/><feMerge><feMergeNode in="b"/><feMergeNode in="SourceGraphic"/></feMerge>
  </filter>
  <filter id="cardShadow" x="-10%" y="-10%" width="120%" height="130%">
    <feGaussianBlur stdDeviation="6" result="b"/><feFlood flood-color="#58A6B8" flood-opacity="0.08" result="c"/>
    <feComposite in="c" in2="b" operator="in" result="s"/><feMerge><feMergeNode in="s"/><feMergeNode in="SourceGraphic"/></feMerge>
  </filter>
</defs>

<!-- Background -->
<rect width="900" height="540" fill="#0d0d0d" rx="16"/>
<line x1="90" y1="210.0" x2="860" y2="210.0" stroke="rgba(88,166,184,0.055)" stroke-width="0.7"/>
<line x1="90" y1="246.7" x2="860" y2="246.7" stroke="rgba(88,166,184,0.055)" stroke-width="0.7"/>
<line x1="90" y1="283.3" x2="860" y2="283.3" stroke="rgba(88,166,184,0.055)" stroke-width="0.7"/>
<line x1="90" y1="320.0" x2="860" y2="320.0" stroke="rgba(88,166,184,0.055)" stroke-width="0.7"/>
<line x1="90" y1="356.7" x2="860" y2="356.7" stroke="rgba(88,166,184,0.055)" stroke-width="0.7"/>
<line x1="90" y1="393.3" x2="860" y2="393.3" stroke="rgba(88,166,184,0.055)" stroke-width="0.7"/>
<line x1="90" y1="430.0" x2="860" y2="430.0" stroke="rgba(88,166,184,0.055)" stroke-width="0.7"/>
<line x1="90.0" y1="210" x2="90.0" y2="430" stroke="rgba(88,166,184,0.055)" stroke-width="0.5"/>
<line x1="222.8" y1="210" x2="222.8" y2="430" stroke="rgba(88,166,184,0.055)" stroke-width="0.5"/>
<line x1="355.5" y1="210" x2="355.5" y2="430" stroke="rgba(88,166,184,0.055)" stroke-width="0.5"/>
<line x1="488.3" y1="210" x2="488.3" y2="430" stroke="rgba(88,166,184,0.055)" stroke-width="0.5"/>
<line x1="621.0" y1="210" x2="621.0" y2="430" stroke="rgba(88,166,184,0.055)" stroke-width="0.5"/>
<line x1="753.8" y1="210" x2="753.8" y2="430" stroke="rgba(88,166,184,0.055)" stroke-width="0.5"/>
<circle cx="796.4" cy="333.9" r="0.3" fill="#58A6B8" opacity="0.103"><animate attributeName="opacity" values="0.103;0.227;0.103" dur="8.3s" begin="5.7s" repeatCount="indefinite"/></circle>
<circle cx="55.8" cy="306.4" r="1.4" fill="#58A6B8" opacity="0.048"><animate attributeName="opacity" values="0.048;0.106;0.048" dur="5.7s" begin="4.9s" repeatCount="indefinite"/></circle>
<circle cx="149.7" cy="451.6" r="1.2" fill="#58A6B8" opacity="0.127"><animate attributeName="opacity" values="0.127;0.279;0.127" dur="7.8s" begin="3.2s" repeatCount="indefinite"/></circle>
<circle cx="237.2" cy="174.7" r="1.4" fill="#58A6B8" opacity="0.154"><animate attributeName="opacity" values="0.154;0.339;0.154" dur="3.6s" begin="4.4s" repeatCount="indefinite"/></circle>
<circle cx="356.9" cy="494.8" r="1.3" fill="#58A6B8" opacity="0.042"><animate attributeName="opacity" values="0.042;0.092;0.042" dur="5.7s" begin="4.5s" repeatCount="indefinite"/></circle>
<circle cx="722.6" cy="275.8" r="0.9" fill="#58A6B8" opacity="0.114"><animate attributeName="opacity" values="0.114;0.251;0.114" dur="4.7s" begin="4.0s" repeatCount="indefinite"/></circle>
<circle cx="48.7" cy="437.0" r="0.3" fill="#58A6B8" opacity="0.119"><animate attributeName="opacity" values="0.119;0.262;0.119" dur="4.3s" begin="0.3s" repeatCount="indefinite"/></circle>
<circle cx="7.3" cy="338.2" r="1.2" fill="#58A6B8" opacity="0.153"><animate attributeName="opacity" values="0.153;0.337;0.153" dur="4.0s" begin="5.2s" repeatCount="indefinite"/></circle>
<circle cx="440.7" cy="232.9" r="1.1" fill="#58A6B8" opacity="0.060"><animate attributeName="opacity" values="0.060;0.132;0.060" dur="5.6s" begin="0.3s" repeatCount="indefinite"/></circle>
<circle cx="449.0" cy="489.6" r="0.9" fill="#58A6B8" opacity="0.056"><animate attributeName="opacity" values="0.056;0.123;0.056" dur="6.7s" begin="0.7s" repeatCount="indefinite"/></circle>
<circle cx="718.8" cy="5.0" r="1.2" fill="#58A6B8" opacity="0.110"><animate attributeName="opacity" values="0.110;0.242;0.110" dur="4.4s" begin="6.0s" repeatCount="indefinite"/></circle>
<circle cx="618.9" cy="197.6" r="0.9" fill="#58A6B8" opacity="0.076"><animate attributeName="opacity" values="0.076;0.167;0.076" dur="6.4s" begin="1.0s" repeatCount="indefinite"/></circle>
<circle cx="596.0" cy="325.5" r="0.4" fill="#58A6B8" opacity="0.095"><animate attributeName="opacity" values="0.095;0.209;0.095" dur="4.4s" begin="1.5s" repeatCount="indefinite"/></circle>
<circle cx="307.0" cy="164.3" r="0.3" fill="#58A6B8" opacity="0.048"><animate attributeName="opacity" values="0.048;0.106;0.048" dur="5.5s" begin="2.0s" repeatCount="indefinite"/></circle>
<circle cx="757.3" cy="269.5" r="0.7" fill="#58A6B8" opacity="0.155"><animate attributeName="opacity" values="0.155;0.341;0.155" dur="5.5s" begin="1.2s" repeatCount="indefinite"/></circle>
<circle cx="373.6" cy="103.4" r="1.1" fill="#58A6B8" opacity="0.062"><animate attributeName="opacity" values="0.062;0.136;0.062" dur="7.2s" begin="5.7s" repeatCount="indefinite"/></circle>
<circle cx="210.6" cy="37.0" r="0.8" fill="#58A6B8" opacity="0.143"><animate attributeName="opacity" values="0.143;0.315;0.143" dur="5.8s" begin="2.1s" repeatCount="indefinite"/></circle>
<circle cx="815.9" cy="504.2" r="0.5" fill="#58A6B8" opacity="0.077"><animate attributeName="opacity" values="0.077;0.169;0.077" dur="7.9s" begin="4.8s" repeatCount="indefinite"/></circle>
<circle cx="407.6" cy="170.3" r="1.4" fill="#58A6B8" opacity="0.109"><animate attributeName="opacity" values="0.109;0.240;0.109" dur="4.9s" begin="4.4s" repeatCount="indefinite"/></circle>
<circle cx="611.5" cy="253.4" r="1.1" fill="#58A6B8" opacity="0.115"><animate attributeName="opacity" values="0.115;0.253;0.115" dur="4.6s" begin="4.3s" repeatCount="indefinite"/></circle>
<circle cx="318.8" cy="190.7" r="0.7" fill="#58A6B8" opacity="0.074"><animate attributeName="opacity" values="0.074;0.163;0.074" dur="5.1s" begin="5.4s" repeatCount="indefinite"/></circle>
<circle cx="199.8" cy="429.3" r="1.0" fill="#58A6B8" opacity="0.126"><animate attributeName="opacity" values="0.126;0.277;0.126" dur="5.3s" begin="5.8s" repeatCount="indefinite"/></circle>
<circle cx="192.2" cy="301.1" r="0.6" fill="#58A6B8" opacity="0.131"><animate attributeName="opacity" values="0.131;0.288;0.131" dur="6.0s" begin="2.9s" repeatCount="indefinite"/></circle>
<circle cx="819.1" cy="282.5" r="0.9" fill="#58A6B8" opacity="0.051"><animate attributeName="opacity" values="0.051;0.112;0.051" dur="5.7s" begin="1.9s" repeatCount="indefinite"/></circle>
<circle cx="632.6" cy="512.9" r="0.7" fill="#58A6B8" opacity="0.089"><animate attributeName="opacity" values="0.089;0.196;0.089" dur="6.0s" begin="3.8s" repeatCount="indefinite"/></circle>
<circle cx="713.3" cy="536.9" r="0.8" fill="#58A6B8" opacity="0.129"><animate attributeName="opacity" values="0.129;0.284;0.129" dur="5.2s" begin="1.4s" repeatCount="indefinite"/></circle>
<circle cx="753.5" cy="434.3" r="1.2" fill="#58A6B8" opacity="0.151"><animate attributeName="opacity" values="0.151;0.332;0.151" dur="7.0s" begin="4.7s" repeatCount="indefinite"/></circle>
<circle cx="843.3" cy="265.5" r="0.5" fill="#58A6B8" opacity="0.159"><animate attributeName="opacity" values="0.159;0.350;0.159" dur="5.2s" begin="1.3s" repeatCount="indefinite"/></circle>
<circle cx="412.3" cy="129.1" r="0.7" fill="#58A6B8" opacity="0.091"><animate attributeName="opacity" values="0.091;0.200;0.091" dur="7.1s" begin="3.9s" repeatCount="indefinite"/></circle>
<circle cx="430.2" cy="349.2" r="0.6" fill="#58A6B8" opacity="0.130"><animate attributeName="opacity" values="0.130;0.286;0.130" dur="7.3s" begin="3.4s" repeatCount="indefinite"/></circle>
<circle cx="752.0" cy="113.2" r="1.4" fill="#58A6B8" opacity="0.051"><animate attributeName="opacity" values="0.051;0.112;0.051" dur="6.2s" begin="2.1s" repeatCount="indefinite"/></circle>
<circle cx="390.9" cy="288.5" r="0.7" fill="#58A6B8" opacity="0.046"><animate attributeName="opacity" values="0.046;0.101;0.046" dur="6.1s" begin="5.7s" repeatCount="indefinite"/></circle>
<circle cx="133.6" cy="339.4" r="1.1" fill="#58A6B8" opacity="0.088"><animate attributeName="opacity" values="0.088;0.194;0.088" dur="6.0s" begin="5.7s" repeatCount="indefinite"/></circle>
<circle cx="605.8" cy="31.1" r="1.3" fill="#58A6B8" opacity="0.056"><animate attributeName="opacity" values="0.056;0.123;0.056" dur="5.2s" begin="4.6s" repeatCount="indefinite"/></circle>
<circle cx="878.1" cy="431.4" r="1.2" fill="#58A6B8" opacity="0.103"><animate attributeName="opacity" values="0.103;0.227;0.103" dur="4.3s" begin="4.1s" repeatCount="indefinite"/></circle>
<circle cx="36.6" cy="90.7" r="0.6" fill="#58A6B8" opacity="0.053"><animate attributeName="opacity" values="0.053;0.117;0.053" dur="5.9s" begin="4.9s" repeatCount="indefinite"/></circle>
<circle cx="860.2" cy="290.6" r="0.9" fill="#58A6B8" opacity="0.147"><animate attributeName="opacity" values="0.147;0.323;0.147" dur="8.1s" begin="4.2s" repeatCount="indefinite"/></circle>
<circle cx="428.9" cy="471.5" r="0.6" fill="#58A6B8" opacity="0.102"><animate attributeName="opacity" values="0.102;0.224;0.102" dur="7.8s" begin="3.1s" repeatCount="indefinite"/></circle>
<circle cx="783.7" cy="424.5" r="0.5" fill="#58A6B8" opacity="0.067"><animate attributeName="opacity" values="0.067;0.147;0.067" dur="8.0s" begin="2.3s" repeatCount="indefinite"/></circle>
<circle cx="157.8" cy="261.3" r="0.6" fill="#58A6B8" opacity="0.158"><animate attributeName="opacity" values="0.158;0.348;0.158" dur="5.5s" begin="2.7s" repeatCount="indefinite"/></circle>
<circle cx="581.5" cy="73.9" r="0.9" fill="#58A6B8" opacity="0.151"><animate attributeName="opacity" values="0.151;0.332;0.151" dur="3.9s" begin="2.8s" repeatCount="indefinite"/></circle>
<circle cx="877.4" cy="310.5" r="0.4" fill="#58A6B8" opacity="0.074"><animate attributeName="opacity" values="0.074;0.163;0.074" dur="5.3s" begin="2.2s" repeatCount="indefinite"/></circle>
<circle cx="361.2" cy="454.8" r="0.4" fill="#58A6B8" opacity="0.044"><animate attributeName="opacity" values="0.044;0.097;0.044" dur="5.8s" begin="1.7s" repeatCount="indefinite"/></circle>
<circle cx="538.6" cy="526.1" r="0.6" fill="#58A6B8" opacity="0.106"><animate attributeName="opacity" values="0.106;0.233;0.106" dur="5.8s" begin="1.3s" repeatCount="indefinite"/></circle>
<circle cx="8.1" cy="84.3" r="0.5" fill="#58A6B8" opacity="0.128"><animate attributeName="opacity" values="0.128;0.282;0.128" dur="7.3s" begin="4.9s" repeatCount="indefinite"/></circle>
<circle cx="718.3" cy="165.2" r="0.5" fill="#58A6B8" opacity="0.077"><animate attributeName="opacity" values="0.077;0.169;0.077" dur="3.9s" begin="4.7s" repeatCount="indefinite"/></circle>
<circle cx="855.3" cy="190.8" r="1.1" fill="#58A6B8" opacity="0.078"><animate attributeName="opacity" values="0.078;0.172;0.078" dur="8.2s" begin="1.2s" repeatCount="indefinite"/></circle>
<circle cx="99.3" cy="532.1" r="1.3" fill="#58A6B8" opacity="0.130"><animate attributeName="opacity" values="0.130;0.286;0.130" dur="4.7s" begin="3.9s" repeatCount="indefinite"/></circle>
<circle cx="830.0" cy="153.7" r="1.0" fill="#58A6B8" opacity="0.050"><animate attributeName="opacity" values="0.050;0.110;0.050" dur="5.6s" begin="6.0s" repeatCount="indefinite"/></circle>
<circle cx="9.1" cy="434.3" r="0.8" fill="#58A6B8" opacity="0.044"><animate attributeName="opacity" values="0.044;0.097;0.044" dur="4.1s" begin="5.5s" repeatCount="indefinite"/></circle>
<circle cx="519.5" cy="206.8" r="0.3" fill="#58A6B8" opacity="0.150"><animate attributeName="opacity" values="0.150;0.330;0.150" dur="3.9s" begin="3.2s" repeatCount="indefinite"/></circle>
<circle cx="850.1" cy="93.6" r="0.5" fill="#58A6B8" opacity="0.047"><animate attributeName="opacity" values="0.047;0.103;0.047" dur="4.0s" begin="4.2s" repeatCount="indefinite"/></circle>
<circle cx="428.6" cy="130.0" r="1.1" fill="#58A6B8" opacity="0.129"><animate attributeName="opacity" values="0.129;0.284;0.129" dur="4.8s" begin="5.6s" repeatCount="indefinite"/></circle>
<circle cx="681.7" cy="372.7" r="0.5" fill="#58A6B8" opacity="0.107"><animate attributeName="opacity" values="0.107;0.235;0.107" dur="5.1s" begin="5.2s" repeatCount="indefinite"/></circle>
<circle cx="155.9" cy="154.7" r="0.8" fill="#58A6B8" opacity="0.135"><animate attributeName="opacity" values="0.135;0.297;0.135" dur="3.6s" begin="4.0s" repeatCount="indefinite"/></circle>
<g transform="translate(418.0,352.5) rotate(45)" opacity="0.040"><rect x="-2.1" y="-2.1" width="4.2" height="4.2" fill="#58A6B8"/><animate attributeName="opacity" values="0.040;0.100;0.040" dur="8.0s" begin="1.5s" repeatCount="indefinite"/></g>
<g transform="translate(229.7,165.5) rotate(45)" opacity="0.055"><rect x="-1.9" y="-1.9" width="3.7" height="3.7" fill="#58A6B8"/><animate attributeName="opacity" values="0.055;0.138;0.055" dur="7.4s" begin="2.4s" repeatCount="indefinite"/></g>
<g transform="translate(274.7,326.7) rotate(45)" opacity="0.056"><rect x="-1.5" y="-1.5" width="3.0" height="3.0" fill="#58A6B8"/><animate attributeName="opacity" values="0.056;0.140;0.056" dur="9.2s" begin="0.3s" repeatCount="indefinite"/></g>
<g transform="translate(149.2,253.2) rotate(45)" opacity="0.054"><rect x="-1.4" y="-1.4" width="2.9" height="2.9" fill="#58A6B8"/><animate attributeName="opacity" values="0.054;0.135;0.054" dur="7.0s" begin="3.2s" repeatCount="indefinite"/></g>
<g transform="translate(283.3,70.6) rotate(45)" opacity="0.048"><rect x="-1.7" y="-1.7" width="3.5" height="3.5" fill="#58A6B8"/><animate attributeName="opacity" values="0.048;0.120;0.048" dur="6.9s" begin="4.1s" repeatCount="indefinite"/></g>
<g transform="translate(807.6,375.8) rotate(45)" opacity="0.082"><rect x="-1.8" y="-1.8" width="3.5" height="3.5" fill="#58A6B8"/><animate attributeName="opacity" values="0.082;0.205;0.082" dur="6.1s" begin="2.8s" repeatCount="indefinite"/></g>
<g transform="translate(429.0,121.0) rotate(45)" opacity="0.044"><rect x="-1.6" y="-1.6" width="3.2" height="3.2" fill="#58A6B8"/><animate attributeName="opacity" values="0.044;0.110;0.044" dur="10.0s" begin="3.8s" repeatCount="indefinite"/></g>
<g transform="translate(624.2,266.4) rotate(45)" opacity="0.093"><rect x="-1.6" y="-1.6" width="3.1" height="3.1" fill="#58A6B8"/><animate attributeName="opacity" values="0.093;0.232;0.093" dur="8.6s" begin="5.0s" repeatCount="indefinite"/></g>
<g transform="translate(18,18) scale(1,1)"><path d="M0 25 L0 6 Q0 0 6 0 L25 0" fill="none" stroke="#58A6B8" stroke-width="1.3" opacity="0.35"/><circle cx="0" cy="0" r="1.8" fill="#58A6B8" opacity="0.4"/><path d="M0 12 L5 12" fill="none" stroke="#58A6B8" stroke-width="0.6" opacity="0.2"/><path d="M12 0 L12 5" fill="none" stroke="#58A6B8" stroke-width="0.6" opacity="0.2"/></g><g transform="translate(882,18) scale(-1,1)"><path d="M0 25 L0 6 Q0 0 6 0 L25 0" fill="none" stroke="#58A6B8" stroke-width="1.3" opacity="0.35"/><circle cx="0" cy="0" r="1.8" fill="#58A6B8" opacity="0.4"/><path d="M0 12 L5 12" fill="none" stroke="#58A6B8" stroke-width="0.6" opacity="0.2"/><path d="M12 0 L12 5" fill="none" stroke="#58A6B8" stroke-width="0.6" opacity="0.2"/></g><g transform="translate(18,522) scale(1,-1)"><path d="M0 25 L0 6 Q0 0 6 0 L25 0" fill="none" stroke="#58A6B8" stroke-width="1.3" opacity="0.35"/><circle cx="0" cy="0" r="1.8" fill="#58A6B8" opacity="0.4"/><path d="M0 12 L5 12" fill="none" stroke="#58A6B8" stroke-width="0.6" opacity="0.2"/><path d="M12 0 L12 5" fill="none" stroke="#58A6B8" stroke-width="0.6" opacity="0.2"/></g><g transform="translate(882,522) scale(-1,-1)"><path d="M0 25 L0 6 Q0 0 6 0 L25 0" fill="none" stroke="#58A6B8" stroke-width="1.3" opacity="0.35"/><circle cx="0" cy="0" r="1.8" fill="#58A6B8" opacity="0.4"/><path d="M0 12 L5 12" fill="none" stroke="#58A6B8" stroke-width="0.6" opacity="0.2"/><path d="M12 0 L12 5" fill="none" stroke="#58A6B8" stroke-width="0.6" opacity="0.2"/></g>
<rect x="10" y="10" width="880" height="520" rx="12" fill="none" stroke="url(#frameFade)" stroke-width="1"/>
<text x="450" y="50" text-anchor="middle" font-family="Georgia,'Palatino Linotype','Book Antiqua',Palatino,serif" font-size="22" font-weight="bold" fill="#e8f4f7" letter-spacing="8" filter="url(#glowMd)">✧ THE COMMIT COVEN ✧</text>
<line x1="310" y1="62" x2="590" y2="62" stroke="#58A6B8" stroke-width="0.5" opacity="0.25"/>
<g filter="url(#cardShadow)"><rect x="70" y="80" width="240" height="78" rx="10" fill="rgba(88,166,184,0.05)" stroke="rgba(88,166,184,0.22)" stroke-width="0.8"/><text x="190" y="110" text-anchor="middle" font-family="Georgia,'Palatino Linotype',serif" font-size="11" fill="#5a7a80" letter-spacing="3" text-transform="uppercase">LONGEST STREAK</text><text x="190" y="136" text-anchor="middle" font-family="Georgia,'Palatino Linotype',serif" font-size="20" fill="#e8f4f7" font-weight="bold" filter="url(#glowSm)">12 Nights</text></g>
<g filter="url(#cardShadow)"><rect x="330" y="80" width="240" height="78" rx="10" fill="rgba(88,166,184,0.05)" stroke="rgba(88,166,184,0.22)" stroke-width="0.8"/><text x="450" y="110" text-anchor="middle" font-family="Georgia,'Palatino Linotype',serif" font-size="11" fill="#5a7a80" letter-spacing="3" text-transform="uppercase">CURRENT RITUAL</text><text x="450" y="136" text-anchor="middle" font-family="Georgia,'Palatino Linotype',serif" font-size="20" fill="#e8f4f7" font-weight="bold" filter="url(#glowSm)">2 Nights</text></g>
<g filter="url(#cardShadow)"><rect x="590" y="80" width="240" height="78" rx="10" fill="rgba(88,166,184,0.05)" stroke="rgba(88,166,184,0.22)" stroke-width="0.8"/><text x="710" y="110" text-anchor="middle" font-family="Georgia,'Palatino Linotype',serif" font-size="11" fill="#5a7a80" letter-spacing="3" text-transform="uppercase">TOTAL OFFERINGS</text><text x="710" y="136" text-anchor="middle" font-family="Georgia,'Palatino Linotype',serif" font-size="20" fill="#e8f4f7" font-weight="bold" filter="url(#glowSm)">198</text></g>
<text x="80" y="434.0" text-anchor="end" font-family="'Courier New',monospace" font-size="10" fill="#5a7a80">0</text>
<line x1="86" y1="430.0" x2="90" y2="430.0" stroke="#5a7a80" stroke-width="0.5"/>
<text x="80" y="390.0" text-anchor="end" font-family="'Courier New',monospace" font-size="10" fill="#5a7a80">5</text>
<line x1="86" y1="386.0" x2="90" y2="386.0" stroke="#5a7a80" stroke-width="0.5"/>
<text x="80" y="346.0" text-anchor="end" font-family="'Courier New',monospace" font-size="10" fill="#5a7a80">10</text>
<line x1="86" y1="342.0" x2="90" y2="342.0" stroke="#5a7a80" stroke-width="0.5"/>
<text x="80" y="302.0" text-anchor="end" font-family="'Courier New',monospace" font-size="10" fill="#5a7a80">15</text>
<line x1="86" y1="298.0" x2="90" y2="298.0" stroke="#5a7a80" stroke-width="0.5"/>
<text x="80" y="258.0" text-anchor="end" font-family="'Courier New',monospace" font-size="10" fill="#5a7a80">20</text>
<line x1="86" y1="254.0" x2="90" y2="254.0" stroke="#5a7a80" stroke-width="0.5"/>
<text x="80" y="214.0" text-anchor="end" font-family="'Courier New',monospace" font-size="10" fill="#5a7a80">25</text>
<line x1="86" y1="210.0" x2="90" y2="210.0" stroke="#5a7a80" stroke-width="0.5"/>
<text x="90.0" y="450" text-anchor="middle" font-family="'Courier New',monospace" font-size="10" fill="#5a7a80">18</text>
<text x="196.2" y="450" text-anchor="middle" font-family="'Courier New',monospace" font-size="10" fill="#5a7a80">22</text>
<text x="302.4" y="450" text-anchor="middle" font-family="'Courier New',monospace" font-size="10" fill="#5a7a80">26</text>
<text x="408.6" y="450" text-anchor="middle" font-family="'Courier New',monospace" font-size="10" fill="#5a7a80">30</text>
<text x="514.8" y="450" text-anchor="middle" font-family="'Courier New',monospace" font-size="10" fill="#5a7a80">4</text>
<text x="621.0" y="450" text-anchor="middle" font-family="'Courier New',monospace" font-size="10" fill="#5a7a80">8</text>
<text x="727.2" y="450" text-anchor="middle" font-family="'Courier New',monospace" font-size="10" fill="#5a7a80">12</text>
<text x="833.4" y="450" text-anchor="middle" font-family="'Courier New',monospace" font-size="10" fill="#5a7a80">16</text>
<text x="860.0" y="450" text-anchor="middle" font-family="'Courier New',monospace" font-size="10" fill="#5a7a80">17</text>
<line x1="90" y1="210" x2="90" y2="430" stroke="#58A6B8" stroke-width="0.5" opacity="0.2"/>
<line x1="90" y1="430" x2="860" y2="430" stroke="#58A6B8" stroke-width="0.5" opacity="0.2"/>
<path d="M90.0 333.2 C93.5 320.3,109.5 228.2,116.6 236.4 C123.6 244.6,136.0 370.2,143.1 394.8 C150.2 419.4,162.6 418.9,169.7 421.2 C176.7 423.5,189.1 417.1,196.2 412.4 C203.3 407.7,215.7 387.2,222.8 386.0 C229.8 384.8,242.2 398.9,249.3 403.6 C256.4 408.3,268.8 417.7,275.9 421.2 C282.9 424.7,295.3 428.8,302.4 430.0 C309.5 431.2,321.9 430.0,329.0 430.0 C336.0 430.0,348.4 430.0,355.5 430.0 C362.6 430.0,375.0 435.9,382.1 430.0 C389.1 424.1,401.5 393.0,408.6 386.0 C415.7 379.0,428.1 381.9,435.2 377.2 C442.3 372.5,454.6 344.9,461.7 350.8 C468.8 356.7,481.2 410.6,488.3 421.2 C495.4 431.8,507.7 430.0,514.8 430.0 C521.9 430.0,534.3 421.2,541.4 421.2 C548.5 421.2,560.9 432.3,567.9 430.0 C575.0 427.7,587.4 404.8,594.5 403.6 C601.6 402.4,614.0 417.7,621.0 421.2 C628.1 424.7,640.5 428.8,647.6 430.0 C654.7 431.2,667.1 430.0,674.1 430.0 C681.2 430.0,693.6 430.0,700.7 430.0 C707.8 430.0,720.2 431.2,727.2 430.0 C734.3 428.8,746.7 421.2,753.8 421.2 C760.9 421.2,773.3 430.0,780.3 430.0 C787.4 430.0,799.8 423.5,806.9 421.2 C814.0 418.9,826.4 411.2,833.4 412.4 C840.5 413.6,856.5 427.7,860.0 430.0 L860.0 430 L90.0 430 Z" fill="url(#areaFill)" opacity="0.9">
  <animate attributeName="opacity" values="0;0.9" dur="2s" fill="freeze"/>
</path>
<path d="M90.0 333.2 C93.5 320.3,109.5 228.2,116.6 236.4 C123.6 244.6,136.0 370.2,143.1 394.8 C150.2 419.4,162.6 418.9,169.7 421.2 C176.7 423.5,189.1 417.1,196.2 412.4 C203.3 407.7,215.7 387.2,222.8 386.0 C229.8 384.8,242.2 398.9,249.3 403.6 C256.4 408.3,268.8 417.7,275.9 421.2 C282.9 424.7,295.3 428.8,302.4 430.0 C309.5 431.2,321.9 430.0,329.0 430.0 C336.0 430.0,348.4 430.0,355.5 430.0 C362.6 430.0,375.0 435.9,382.1 430.0 C389.1 424.1,401.5 393.0,408.6 386.0 C415.7 379.0,428.1 381.9,435.2 377.2 C442.3 372.5,454.6 344.9,461.7 350.8 C468.8 356.7,481.2 410.6,488.3 421.2 C495.4 431.8,507.7 430.0,514.8 430.0 C521.9 430.0,534.3 421.2,541.4 421.2 C548.5 421.2,560.9 432.3,567.9 430.0 C575.0 427.7,587.4 404.8,594.5 403.6 C601.6 402.4,614.0 417.7,621.0 421.2 C628.1 424.7,640.5 428.8,647.6 430.0 C654.7 431.2,667.1 430.0,674.1 430.0 C681.2 430.0,693.6 430.0,700.7 430.0 C707.8 430.0,720.2 431.2,727.2 430.0 C734.3 428.8,746.7 421.2,753.8 421.2 C760.9 421.2,773.3 430.0,780.3 430.0 C787.4 430.0,799.8 423.5,806.9 421.2 C814.0 418.9,826.4 411.2,833.4 412.4 C840.5 413.6,856.5 427.7,860.0 430.0" fill="none" stroke="#58A6B8" stroke-width="4" opacity="0.15" filter="url(#glowLg)" stroke-linecap="round" stroke-linejoin="round"/>
<path d="M90.0 333.2 C93.5 320.3,109.5 228.2,116.6 236.4 C123.6 244.6,136.0 370.2,143.1 394.8 C150.2 419.4,162.6 418.9,169.7 421.2 C176.7 423.5,189.1 417.1,196.2 412.4 C203.3 407.7,215.7 387.2,222.8 386.0 C229.8 384.8,242.2 398.9,249.3 403.6 C256.4 408.3,268.8 417.7,275.9 421.2 C282.9 424.7,295.3 428.8,302.4 430.0 C309.5 431.2,321.9 430.0,329.0 430.0 C336.0 430.0,348.4 430.0,355.5 430.0 C362.6 430.0,375.0 435.9,382.1 430.0 C389.1 424.1,401.5 393.0,408.6 386.0 C415.7 379.0,428.1 381.9,435.2 377.2 C442.3 372.5,454.6 344.9,461.7 350.8 C468.8 356.7,481.2 410.6,488.3 421.2 C495.4 431.8,507.7 430.0,514.8 430.0 C521.9 430.0,534.3 421.2,541.4 421.2 C548.5 421.2,560.9 432.3,567.9 430.0 C575.0 427.7,587.4 404.8,594.5 403.6 C601.6 402.4,614.0 417.7,621.0 421.2 C628.1 424.7,640.5 428.8,647.6 430.0 C654.7 431.2,667.1 430.0,674.1 430.0 C681.2 430.0,693.6 430.0,700.7 430.0 C707.8 430.0,720.2 431.2,727.2 430.0 C734.3 428.8,746.7 421.2,753.8 421.2 C760.9 421.2,773.3 430.0,780.3 430.0 C787.4 430.0,799.8 423.5,806.9 421.2 C814.0 418.9,826.4 411.2,833.4 412.4 C840.5 413.6,856.5 427.7,860.0 430.0" fill="none" stroke="#58A6B8" stroke-width="2.2" stroke-linecap="round" stroke-linejoin="round" filter="url(#glowSm)" stroke-dasharray="1472" stroke-dashoffset="1472">
  <animate attributeName="stroke-dashoffset" from="1472" to="0" dur="2.5s" fill="freeze" calcMode="spline" keySplines="0.4 0 0.2 1"/>
  <animate attributeName="opacity" values="0.7;1;0.85;1" dur="6s" begin="2.5s" repeatCount="indefinite"/>
</path>
<circle cx="90.0" cy="333.2" r="4.0" fill="#58A6B8" stroke="#0d0d0d" stroke-width="1" filter="url(#glowSm)" opacity="0">
  <title>Jun 18
11 Contributions</title>
  <animate attributeName="opacity" from="0" to="1" dur="0.4s" begin="0.80s" fill="freeze"/>
  <animate attributeName="r" values="4.0;5.0;4.0" dur="4s" begin="1.20s" repeatCount="indefinite"/>
</circle>
<circle cx="116.6" cy="236.4" r="18" fill="url(#haloGrad)" opacity="0">
  <animate attributeName="opacity" values="0;0.6;0.3;0.6" dur="4s" begin="0.86s" repeatCount="indefinite"/>
  <animate attributeName="r" values="14;22;14" dur="4s" begin="0.86s" repeatCount="indefinite"/>
</circle>
<circle cx="116.6" cy="236.4" r="7.2" fill="#e8f4f7" stroke="#0d0d0d" stroke-width="1" filter="url(#glowMd)" opacity="0">
  <title>Jun 19
22 Contributions</title>
  <animate attributeName="opacity" from="0" to="1" dur="0.4s" begin="0.86s" fill="freeze"/>
  <animate attributeName="r" values="7.2;9.2;7.2" dur="3s" begin="1.26s" repeatCount="indefinite"/>
</circle>
<circle cx="143.1" cy="394.8" r="2.8" fill="#58A6B8" stroke="#0d0d0d" stroke-width="1" filter="url(#glowSm)" opacity="0">
  <title>Jun 20
4 Contributions</title>
  <animate attributeName="opacity" from="0" to="1" dur="0.4s" begin="0.92s" fill="freeze"/>
  <animate attributeName="r" values="2.8;3.8;2.8" dur="4s" begin="1.32s" repeatCount="indefinite"/>
</circle>
<circle cx="169.7" cy="421.2" r="2.4" fill="#58A6B8" stroke="#0d0d0d" stroke-width="1" filter="url(#glowSm)" opacity="0">
  <title>Jun 21
1 Contribution</title>
  <animate attributeName="opacity" from="0" to="1" dur="0.4s" begin="0.98s" fill="freeze"/>
  <animate attributeName="r" values="2.4;3.4;2.4" dur="4s" begin="1.38s" repeatCount="indefinite"/>
</circle>
<circle cx="196.2" cy="412.4" r="2.5" fill="#58A6B8" stroke="#0d0d0d" stroke-width="1" filter="url(#glowSm)" opacity="0">
  <title>Jun 22
2 Contributions</title>
  <animate attributeName="opacity" from="0" to="1" dur="0.4s" begin="1.04s" fill="freeze"/>
  <animate attributeName="r" values="2.5;3.5;2.5" dur="4s" begin="1.44s" repeatCount="indefinite"/>
</circle>
<circle cx="222.8" cy="386.0" r="3.0" fill="#58A6B8" stroke="#0d0d0d" stroke-width="1" filter="url(#glowSm)" opacity="0">
  <title>Jun 23
5 Contributions</title>
  <animate attributeName="opacity" from="0" to="1" dur="0.4s" begin="1.10s" fill="freeze"/>
  <animate attributeName="r" values="3.0;4.0;3.0" dur="4s" begin="1.50s" repeatCount="indefinite"/>
</circle>
<circle cx="249.3" cy="403.6" r="2.7" fill="#58A6B8" stroke="#0d0d0d" stroke-width="1" filter="url(#glowSm)" opacity="0">
  <title>Jun 24
3 Contributions</title>
  <animate attributeName="opacity" from="0" to="1" dur="0.4s" begin="1.16s" fill="freeze"/>
  <animate attributeName="r" values="2.7;3.7;2.7" dur="4s" begin="1.56s" repeatCount="indefinite"/>
</circle>
<circle cx="275.9" cy="421.2" r="2.4" fill="#58A6B8" stroke="#0d0d0d" stroke-width="1" filter="url(#glowSm)" opacity="0">
  <title>Jun 25
1 Contribution</title>
  <animate attributeName="opacity" from="0" to="1" dur="0.4s" begin="1.22s" fill="freeze"/>
  <animate attributeName="r" values="2.4;3.4;2.4" dur="4s" begin="1.62s" repeatCount="indefinite"/>
</circle>
<circle cx="302.4" cy="430.0" r="2.2" fill="#58A6B8" stroke="#0d0d0d" stroke-width="1" filter="url(#glowSm)" opacity="0">
  <title>Jun 26
0 Contributions</title>
  <animate attributeName="opacity" from="0" to="1" dur="0.4s" begin="1.28s" fill="freeze"/>
  <animate attributeName="r" values="2.2;3.2;2.2" dur="4s" begin="1.68s" repeatCount="indefinite"/>
</circle>
<circle cx="329.0" cy="430.0" r="2.2" fill="#58A6B8" stroke="#0d0d0d" stroke-width="1" filter="url(#glowSm)" opacity="0">
  <title>Jun 27
0 Contributions</title>
  <animate attributeName="opacity" from="0" to="1" dur="0.4s" begin="1.34s" fill="freeze"/>
  <animate attributeName="r" values="2.2;3.2;2.2" dur="4s" begin="1.74s" repeatCount="indefinite"/>
</circle>
<circle cx="355.5" cy="430.0" r="2.2" fill="#58A6B8" stroke="#0d0d0d" stroke-width="1" filter="url(#glowSm)" opacity="0">
  <title>Jun 28
0 Contributions</title>
  <animate attributeName="opacity" from="0" to="1" dur="0.4s" begin="1.40s" fill="freeze"/>
  <animate attributeName="r" values="2.2;3.2;2.2" dur="4s" begin="1.80s" repeatCount="indefinite"/>
</circle>
<circle cx="382.1" cy="430.0" r="2.2" fill="#58A6B8" stroke="#0d0d0d" stroke-width="1" filter="url(#glowSm)" opacity="0">
  <title>Jun 29
0 Contributions</title>
  <animate attributeName="opacity" from="0" to="1" dur="0.4s" begin="1.46s" fill="freeze"/>
  <animate attributeName="r" values="2.2;3.2;2.2" dur="4s" begin="1.86s" repeatCount="indefinite"/>
</circle>
<circle cx="408.6" cy="386.0" r="3.0" fill="#58A6B8" stroke="#0d0d0d" stroke-width="1" filter="url(#glowSm)" opacity="0">
  <title>Jun 30
5 Contributions</title>
  <animate attributeName="opacity" from="0" to="1" dur="0.4s" begin="1.52s" fill="freeze"/>
  <animate attributeName="r" values="3.0;4.0;3.0" dur="4s" begin="1.92s" repeatCount="indefinite"/>
</circle>
<circle cx="435.2" cy="377.2" r="3.2" fill="#58A6B8" stroke="#0d0d0d" stroke-width="1" filter="url(#glowSm)" opacity="0">
  <title>Jul 1
6 Contributions</title>
  <animate attributeName="opacity" from="0" to="1" dur="0.4s" begin="1.58s" fill="freeze"/>
  <animate attributeName="r" values="3.2;4.2;3.2" dur="4s" begin="1.98s" repeatCount="indefinite"/>
</circle>
<circle cx="461.7" cy="350.8" r="3.6" fill="#58A6B8" stroke="#0d0d0d" stroke-width="1" filter="url(#glowSm)" opacity="0">
  <title>Jul 2
9 Contributions</title>
  <animate attributeName="opacity" from="0" to="1" dur="0.4s" begin="1.64s" fill="freeze"/>
  <animate attributeName="r" values="3.6;4.6;3.6" dur="4s" begin="2.04s" repeatCount="indefinite"/>
</circle>
<circle cx="488.3" cy="421.2" r="2.4" fill="#58A6B8" stroke="#0d0d0d" stroke-width="1" filter="url(#glowSm)" opacity="0">
  <title>Jul 3
1 Contribution</title>
  <animate attributeName="opacity" from="0" to="1" dur="0.4s" begin="1.70s" fill="freeze"/>
  <animate attributeName="r" values="2.4;3.4;2.4" dur="4s" begin="2.10s" repeatCount="indefinite"/>
</circle>
<circle cx="514.8" cy="430.0" r="2.2" fill="#58A6B8" stroke="#0d0d0d" stroke-width="1" filter="url(#glowSm)" opacity="0">
  <title>Jul 4
0 Contributions</title>
  <animate attributeName="opacity" from="0" to="1" dur="0.4s" begin="1.76s" fill="freeze"/>
  <animate attributeName="r" values="2.2;3.2;2.2" dur="4s" begin="2.16s" repeatCount="indefinite"/>
</circle>
<circle cx="541.4" cy="421.2" r="2.4" fill="#58A6B8" stroke="#0d0d0d" stroke-width="1" filter="url(#glowSm)" opacity="0">
  <title>Jul 5
1 Contribution</title>
  <animate attributeName="opacity" from="0" to="1" dur="0.4s" begin="1.82s" fill="freeze"/>
  <animate attributeName="r" values="2.4;3.4;2.4" dur="4s" begin="2.22s" repeatCount="indefinite"/>
</circle>
<circle cx="567.9" cy="430.0" r="2.2" fill="#58A6B8" stroke="#0d0d0d" stroke-width="1" filter="url(#glowSm)" opacity="0">
  <title>Jul 6
0 Contributions</title>
  <animate attributeName="opacity" from="0" to="1" dur="0.4s" begin="1.88s" fill="freeze"/>
  <animate attributeName="r" values="2.2;3.2;2.2" dur="4s" begin="2.28s" repeatCount="indefinite"/>
</circle>
<circle cx="594.5" cy="403.6" r="2.7" fill="#58A6B8" stroke="#0d0d0d" stroke-width="1" filter="url(#glowSm)" opacity="0">
  <title>Jul 7
3 Contributions</title>
  <animate attributeName="opacity" from="0" to="1" dur="0.4s" begin="1.94s" fill="freeze"/>
  <animate attributeName="r" values="2.7;3.7;2.7" dur="4s" begin="2.34s" repeatCount="indefinite"/>
</circle>
<circle cx="621.0" cy="421.2" r="2.4" fill="#58A6B8" stroke="#0d0d0d" stroke-width="1" filter="url(#glowSm)" opacity="0">
  <title>Jul 8
1 Contribution</title>
  <animate attributeName="opacity" from="0" to="1" dur="0.4s" begin="2.00s" fill="freeze"/>
  <animate attributeName="r" values="2.4;3.4;2.4" dur="4s" begin="2.40s" repeatCount="indefinite"/>
</circle>
<circle cx="647.6" cy="430.0" r="2.2" fill="#58A6B8" stroke="#0d0d0d" stroke-width="1" filter="url(#glowSm)" opacity="0">
  <title>Jul 9
0 Contributions</title>
  <animate attributeName="opacity" from="0" to="1" dur="0.4s" begin="2.06s" fill="freeze"/>
  <animate attributeName="r" values="2.2;3.2;2.2" dur="4s" begin="2.46s" repeatCount="indefinite"/>
</circle>
<circle cx="674.1" cy="430.0" r="2.2" fill="#58A6B8" stroke="#0d0d0d" stroke-width="1" filter="url(#glowSm)" opacity="0">
  <title>Jul 10
0 Contributions</title>
  <animate attributeName="opacity" from="0" to="1" dur="0.4s" begin="2.12s" fill="freeze"/>
  <animate attributeName="r" values="2.2;3.2;2.2" dur="4s" begin="2.52s" repeatCount="indefinite"/>
</circle>
<circle cx="700.7" cy="430.0" r="2.2" fill="#58A6B8" stroke="#0d0d0d" stroke-width="1" filter="url(#glowSm)" opacity="0">
  <title>Jul 11
0 Contributions</title>
  <animate attributeName="opacity" from="0" to="1" dur="0.4s" begin="2.18s" fill="freeze"/>
  <animate attributeName="r" values="2.2;3.2;2.2" dur="4s" begin="2.58s" repeatCount="indefinite"/>
</circle>
<circle cx="727.2" cy="430.0" r="2.2" fill="#58A6B8" stroke="#0d0d0d" stroke-width="1" filter="url(#glowSm)" opacity="0">
  <title>Jul 12
0 Contributions</title>
  <animate attributeName="opacity" from="0" to="1" dur="0.4s" begin="2.24s" fill="freeze"/>
  <animate attributeName="r" values="2.2;3.2;2.2" dur="4s" begin="2.64s" repeatCount="indefinite"/>
</circle>
<circle cx="753.8" cy="421.2" r="2.4" fill="#58A6B8" stroke="#0d0d0d" stroke-width="1" filter="url(#glowSm)" opacity="0">
  <title>Jul 13
1 Contribution</title>
  <animate attributeName="opacity" from="0" to="1" dur="0.4s" begin="2.30s" fill="freeze"/>
  <animate attributeName="r" values="2.4;3.4;2.4" dur="4s" begin="2.70s" repeatCount="indefinite"/>
</circle>
<circle cx="780.3" cy="430.0" r="2.2" fill="#58A6B8" stroke="#0d0d0d" stroke-width="1" filter="url(#glowSm)" opacity="0">
  <title>Jul 14
0 Contributions</title>
  <animate attributeName="opacity" from="0" to="1" dur="0.4s" begin="2.36s" fill="freeze"/>
  <animate attributeName="r" values="2.2;3.2;2.2" dur="4s" begin="2.76s" repeatCount="indefinite"/>
</circle>
<circle cx="806.9" cy="421.2" r="2.4" fill="#58A6B8" stroke="#0d0d0d" stroke-width="1" filter="url(#glowSm)" opacity="0">
  <title>Jul 15
1 Contribution</title>
  <animate attributeName="opacity" from="0" to="1" dur="0.4s" begin="2.42s" fill="freeze"/>
  <animate attributeName="r" values="2.4;3.4;2.4" dur="4s" begin="2.82s" repeatCount="indefinite"/>
</circle>
<circle cx="833.4" cy="412.4" r="2.5" fill="#58A6B8" stroke="#0d0d0d" stroke-width="1" filter="url(#glowSm)" opacity="0">
  <title>Jul 16
2 Contributions</title>
  <animate attributeName="opacity" from="0" to="1" dur="0.4s" begin="2.48s" fill="freeze"/>
  <animate attributeName="r" values="2.5;3.5;2.5" dur="4s" begin="2.88s" repeatCount="indefinite"/>
</circle>
<circle cx="860.0" cy="430.0" r="2.2" fill="#58A6B8" stroke="#0d0d0d" stroke-width="1" filter="url(#glowSm)" opacity="0">
  <title>Jul 17
0 Contributions</title>
  <animate attributeName="opacity" from="0" to="1" dur="0.4s" begin="2.54s" fill="freeze"/>
  <animate attributeName="r" values="2.2;3.2;2.2" dur="4s" begin="2.94s" repeatCount="indefinite"/>
</circle>
<text x="90" y="466" text-anchor="start" font-family="Georgia,'Palatino Linotype',serif" font-size="10" fill="#5a7a80" letter-spacing="1.5">JUN</text>
<text x="860" y="466" text-anchor="end" font-family="Georgia,'Palatino Linotype',serif" font-size="10" fill="#5a7a80" letter-spacing="1.5">JUL</text>
<text x="450" y="522" text-anchor="middle" font-family="Georgia,'Palatino Linotype',serif" font-size="9" fill="#5a7a80" letter-spacing="4" opacity="0.5">LAST 30 DAYS OF DARK RITUALS</text>
</svg>