<svg xmlns="http://www.w3.org/2000/svg" viewBox="0 0 900 540" width="900" height="540">
<defs>
  <!-- Gradients -->
  <linearGradient id="areaFill" x1="0" y1="0" x2="0" y2="1">
    <stop offset="0%" stop-color="#58A6B8" stop-opacity="0.28"/>
    <stop offset="85%" stop-color="#58A6B8" stop-opacity="0.03"/>
    <stop offset="100%" stop-color="#58A6B8" stop-opacity="0"/>
  </linearGradient>
  <radialGradient id="haloGrad" cx="50%" cy="50%" r="50%">
    <stop offset="0%" stop-color="#58A6B8" stop-opacity="0.5"/>
    <stop offset="100%" stop-color="#58A6B8" stop-opacity="0"/>
  </radialGradient>
  <linearGradient id="frameFade" x1="0" y1="0" x2="1" y2="1">
    <stop offset="0%" stop-color="#58A6B8" stop-opacity="0.35"/>
    <stop offset="50%" stop-color="#58A6B8" stop-opacity="0.12"/>
    <stop offset="100%" stop-color="#58A6B8" stop-opacity="0.35"/>
  </linearGradient>
  <!-- Filters -->
  <filter id="glowSm" x="-50%" y="-50%" width="200%" height="200%">
    <feGaussianBlur stdDeviation="2.5" result="b"/><feMerge><feMergeNode in="b"/><feMergeNode in="SourceGraphic"/></feMerge>
  </filter>
  <filter id="glowMd" x="-50%" y="-50%" width="200%" height="200%">
    <feGaussianBlur stdDeviation="5" result="b"/><feMerge><feMergeNode in="b"/><feMergeNode in="SourceGraphic"/></feMerge>
  </filter>
  <filter id="glowLg" x="-80%" y="-80%" width="260%" height="260%">
    <feGaussianBlur stdDeviation="10" result="b"/><feMerge><feMergeNode in="b"/><feMergeNode in="SourceGraphic"/></feMerge>
  </filter>
  <filter id="cardShadow" x="-10%" y="-10%" width="120%" height="130%">
    <feGaussianBlur stdDeviation="6" result="b"/><feFlood flood-color="#58A6B8" flood-opacity="0.08" result="c"/>
    <feComposite in="c" in2="b" operator="in" result="s"/><feMerge><feMergeNode in="s"/><feMergeNode in="SourceGraphic"/></feMerge>
  </filter>
</defs>

<!-- Background -->
<rect width="900" height="540" fill="#0d0d0d" rx="16"/>
<line x1="90" y1="210.0" x2="860" y2="210.0" stroke="rgba(88,166,184,0.055)" stroke-width="0.7"/>
<line x1="90" y1="246.7" x2="860" y2="246.7" stroke="rgba(88,166,184,0.055)" stroke-width="0.7"/>
<line x1="90" y1="283.3" x2="860" y2="283.3" stroke="rgba(88,166,184,0.055)" stroke-width="0.7"/>
<line x1="90" y1="320.0" x2="860" y2="320.0" stroke="rgba(88,166,184,0.055)" stroke-width="0.7"/>
<line x1="90" y1="356.7" x2="860" y2="356.7" stroke="rgba(88,166,184,0.055)" stroke-width="0.7"/>
<line x1="90" y1="393.3" x2="860" y2="393.3" stroke="rgba(88,166,184,0.055)" stroke-width="0.7"/>
<line x1="90" y1="430.0" x2="860" y2="430.0" stroke="rgba(88,166,184,0.055)" stroke-width="0.7"/>
<line x1="90.0" y1="210" x2="90.0" y2="430" stroke="rgba(88,166,184,0.055)" stroke-width="0.5"/>
<line x1="222.8" y1="210" x2="222.8" y2="430" stroke="rgba(88,166,184,0.055)" stroke-width="0.5"/>
<line x1="355.5" y1="210" x2="355.5" y2="430" stroke="rgba(88,166,184,0.055)" stroke-width="0.5"/>
<line x1="488.3" y1="210" x2="488.3" y2="430" stroke="rgba(88,166,184,0.055)" stroke-width="0.5"/>
<line x1="621.0" y1="210" x2="621.0" y2="430" stroke="rgba(88,166,184,0.055)" stroke-width="0.5"/>
<line x1="753.8" y1="210" x2="753.8" y2="430" stroke="rgba(88,166,184,0.055)" stroke-width="0.5"/>
<circle cx="746.5" cy="319.4" r="1.3" fill="#58A6B8" opacity="0.133"><animate attributeName="opacity" values="0.133;0.293;0.133" dur="4.5s" begin="1.4s" repeatCount="indefinite"/></circle>
<circle cx="204.9" cy="191.4" r="1.0" fill="#58A6B8" opacity="0.138"><animate attributeName="opacity" values="0.138;0.304;0.138" dur="5.7s" begin="2.4s" repeatCount="indefinite"/></circle>
<circle cx="747.4" cy="315.4" r="1.1" fill="#58A6B8" opacity="0.103"><animate attributeName="opacity" values="0.103;0.227;0.103" dur="6.8s" begin="1.7s" repeatCount="indefinite"/></circle>
<circle cx="821.1" cy="289.5" r="0.4" fill="#58A6B8" opacity="0.094"><animate attributeName="opacity" values="0.094;0.207;0.094" dur="4.0s" begin="2.4s" repeatCount="indefinite"/></circle>
<circle cx="204.5" cy="511.1" r="0.9" fill="#58A6B8" opacity="0.079"><animate attributeName="opacity" values="0.079;0.174;0.079" dur="6.2s" begin="4.5s" repeatCount="indefinite"/></circle>
<circle cx="845.7" cy="70.9" r="0.3" fill="#58A6B8" opacity="0.042"><animate attributeName="opacity" values="0.042;0.092;0.042" dur="4.3s" begin="5.5s" repeatCount="indefinite"/></circle>
<circle cx="658.7" cy="120.4" r="0.8" fill="#58A6B8" opacity="0.047"><animate attributeName="opacity" values="0.047;0.103;0.047" dur="4.5s" begin="2.0s" repeatCount="indefinite"/></circle>
<circle cx="416.7" cy="159.4" r="0.8" fill="#58A6B8" opacity="0.069"><animate attributeName="opacity" values="0.069;0.152;0.069" dur="4.7s" begin="0.3s" repeatCount="indefinite"/></circle>
<circle cx="404.5" cy="95.1" r="0.3" fill="#58A6B8" opacity="0.071"><animate attributeName="opacity" values="0.071;0.156;0.071" dur="4.0s" begin="2.2s" repeatCount="indefinite"/></circle>
<circle cx="260.2" cy="210.0" r="0.5" fill="#58A6B8" opacity="0.109"><animate attributeName="opacity" values="0.109;0.240;0.109" dur="3.6s" begin="0.3s" repeatCount="indefinite"/></circle>
<circle cx="667.6" cy="343.2" r="1.2" fill="#58A6B8" opacity="0.133"><animate attributeName="opacity" values="0.133;0.293;0.133" dur="7.6s" begin="0.6s" repeatCount="indefinite"/></circle>
<circle cx="36.5" cy="204.8" r="0.8" fill="#58A6B8" opacity="0.100"><animate attributeName="opacity" values="0.100;0.220;0.100" dur="4.7s" begin="2.4s" repeatCount="indefinite"/></circle>
<circle cx="585.6" cy="202.3" r="0.9" fill="#58A6B8" opacity="0.136"><animate attributeName="opacity" values="0.136;0.299;0.136" dur="5.5s" begin="3.1s" repeatCount="indefinite"/></circle>
<circle cx="897.5" cy="82.8" r="0.6" fill="#58A6B8" opacity="0.055"><animate attributeName="opacity" values="0.055;0.121;0.055" dur="3.9s" begin="0.1s" repeatCount="indefinite"/></circle>
<circle cx="457.3" cy="6.5" r="1.4" fill="#58A6B8" opacity="0.099"><animate attributeName="opacity" values="0.099;0.218;0.099" dur="8.5s" begin="1.8s" repeatCount="indefinite"/></circle>
<circle cx="87.8" cy="100.4" r="0.8" fill="#58A6B8" opacity="0.076"><animate attributeName="opacity" values="0.076;0.167;0.076" dur="4.3s" begin="4.4s" repeatCount="indefinite"/></circle>
<circle cx="521.3" cy="105.7" r="1.0" fill="#58A6B8" opacity="0.104"><animate attributeName="opacity" values="0.104;0.229;0.104" dur="6.3s" begin="2.7s" repeatCount="indefinite"/></circle>
<circle cx="699.2" cy="372.7" r="0.8" fill="#58A6B8" opacity="0.157"><animate attributeName="opacity" values="0.157;0.345;0.157" dur="5.8s" begin="5.7s" repeatCount="indefinite"/></circle>
<circle cx="835.3" cy="389.0" r="1.1" fill="#58A6B8" opacity="0.094"><animate attributeName="opacity" values="0.094;0.207;0.094" dur="6.6s" begin="4.9s" repeatCount="indefinite"/></circle>
<circle cx="286.8" cy="256.0" r="1.2" fill="#58A6B8" opacity="0.088"><animate attributeName="opacity" values="0.088;0.194;0.088" dur="3.9s" begin="1.4s" repeatCount="indefinite"/></circle>
<circle cx="294.6" cy="350.5" r="0.6" fill="#58A6B8" opacity="0.118"><animate attributeName="opacity" values="0.118;0.260;0.118" dur="7.9s" begin="4.1s" repeatCount="indefinite"/></circle>
<circle cx="146.3" cy="53.2" r="0.8" fill="#58A6B8" opacity="0.060"><animate attributeName="opacity" values="0.060;0.132;0.060" dur="7.3s" begin="1.8s" repeatCount="indefinite"/></circle>
<circle cx="282.4" cy="496.2" r="0.3" fill="#58A6B8" opacity="0.090"><animate attributeName="opacity" values="0.090;0.198;0.090" dur="5.2s" begin="2.5s" repeatCount="indefinite"/></circle>
<circle cx="28.1" cy="400.1" r="0.7" fill="#58A6B8" opacity="0.077"><animate attributeName="opacity" values="0.077;0.169;0.077" dur="4.5s" begin="2.7s" repeatCount="indefinite"/></circle>
<circle cx="218.0" cy="369.5" r="0.6" fill="#58A6B8" opacity="0.067"><animate attributeName="opacity" values="0.067;0.147;0.067" dur="7.8s" begin="1.3s" repeatCount="indefinite"/></circle>
<circle cx="346.2" cy="308.4" r="1.0" fill="#58A6B8" opacity="0.123"><animate attributeName="opacity" values="0.123;0.271;0.123" dur="4.2s" begin="2.7s" repeatCount="indefinite"/></circle>
<circle cx="69.5" cy="116.9" r="0.7" fill="#58A6B8" opacity="0.138"><animate attributeName="opacity" values="0.138;0.304;0.138" dur="5.1s" begin="2.6s" repeatCount="indefinite"/></circle>
<circle cx="476.9" cy="523.2" r="0.3" fill="#58A6B8" opacity="0.078"><animate attributeName="opacity" values="0.078;0.172;0.078" dur="3.5s" begin="3.9s" repeatCount="indefinite"/></circle>
<circle cx="265.5" cy="433.7" r="0.6" fill="#58A6B8" opacity="0.071"><animate attributeName="opacity" values="0.071;0.156;0.071" dur="8.3s" begin="5.3s" repeatCount="indefinite"/></circle>
<circle cx="671.6" cy="359.5" r="0.3" fill="#58A6B8" opacity="0.097"><animate attributeName="opacity" values="0.097;0.213;0.097" dur="6.6s" begin="1.0s" repeatCount="indefinite"/></circle>
<circle cx="464.8" cy="476.4" r="1.0" fill="#58A6B8" opacity="0.090"><animate attributeName="opacity" values="0.090;0.198;0.090" dur="6.4s" begin="0.1s" repeatCount="indefinite"/></circle>
<circle cx="165.9" cy="505.4" r="1.2" fill="#58A6B8" opacity="0.159"><animate attributeName="opacity" values="0.159;0.350;0.159" dur="4.0s" begin="1.7s" repeatCount="indefinite"/></circle>
<circle cx="239.7" cy="508.6" r="1.3" fill="#58A6B8" opacity="0.074"><animate attributeName="opacity" values="0.074;0.163;0.074" dur="7.2s" begin="2.9s" repeatCount="indefinite"/></circle>
<circle cx="210.7" cy="481.2" r="1.0" fill="#58A6B8" opacity="0.096"><animate attributeName="opacity" values="0.096;0.211;0.096" dur="6.6s" begin="0.1s" repeatCount="indefinite"/></circle>
<circle cx="317.8" cy="77.5" r="1.2" fill="#58A6B8" opacity="0.118"><animate attributeName="opacity" values="0.118;0.260;0.118" dur="7.6s" begin="2.6s" repeatCount="indefinite"/></circle>
<circle cx="583.8" cy="149.5" r="0.6" fill="#58A6B8" opacity="0.042"><animate attributeName="opacity" values="0.042;0.092;0.042" dur="5.3s" begin="0.2s" repeatCount="indefinite"/></circle>
<circle cx="459.6" cy="265.8" r="0.5" fill="#58A6B8" opacity="0.069"><animate attributeName="opacity" values="0.069;0.152;0.069" dur="6.6s" begin="5.9s" repeatCount="indefinite"/></circle>
<circle cx="671.4" cy="481.6" r="0.4" fill="#58A6B8" opacity="0.082"><animate attributeName="opacity" values="0.082;0.180;0.082" dur="7.9s" begin="2.9s" repeatCount="indefinite"/></circle>
<circle cx="443.9" cy="244.6" r="1.0" fill="#58A6B8" opacity="0.052"><animate attributeName="opacity" values="0.052;0.114;0.052" dur="3.7s" begin="5.8s" repeatCount="indefinite"/></circle>
<circle cx="155.1" cy="229.7" r="0.7" fill="#58A6B8" opacity="0.141"><animate attributeName="opacity" values="0.141;0.310;0.141" dur="5.1s" begin="2.4s" repeatCount="indefinite"/></circle>
<circle cx="580.3" cy="321.1" r="0.9" fill="#58A6B8" opacity="0.074"><animate attributeName="opacity" values="0.074;0.163;0.074" dur="8.3s" begin="1.6s" repeatCount="indefinite"/></circle>
<circle cx="5.2" cy="271.6" r="1.1" fill="#58A6B8" opacity="0.104"><animate attributeName="opacity" values="0.104;0.229;0.104" dur="5.8s" begin="4.7s" repeatCount="indefinite"/></circle>
<circle cx="603.8" cy="13.0" r="0.6" fill="#58A6B8" opacity="0.120"><animate attributeName="opacity" values="0.120;0.264;0.120" dur="6.8s" begin="3.1s" repeatCount="indefinite"/></circle>
<circle cx="497.1" cy="468.9" r="0.9" fill="#58A6B8" opacity="0.069"><animate attributeName="opacity" values="0.069;0.152;0.069" dur="8.0s" begin="4.2s" repeatCount="indefinite"/></circle>
<circle cx="322.8" cy="287.5" r="1.3" fill="#58A6B8" opacity="0.130"><animate attributeName="opacity" values="0.130;0.286;0.130" dur="4.1s" begin="0.9s" repeatCount="indefinite"/></circle>
<circle cx="27.2" cy="68.9" r="0.7" fill="#58A6B8" opacity="0.101"><animate attributeName="opacity" values="0.101;0.222;0.101" dur="4.3s" begin="4.8s" repeatCount="indefinite"/></circle>
<circle cx="296.6" cy="82.5" r="1.2" fill="#58A6B8" opacity="0.056"><animate attributeName="opacity" values="0.056;0.123;0.056" dur="6.3s" begin="2.3s" repeatCount="indefinite"/></circle>
<circle cx="130.7" cy="94.9" r="0.9" fill="#58A6B8" opacity="0.075"><animate attributeName="opacity" values="0.075;0.165;0.075" dur="7.7s" begin="3.7s" repeatCount="indefinite"/></circle>
<circle cx="624.3" cy="428.7" r="0.9" fill="#58A6B8" opacity="0.103"><animate attributeName="opacity" values="0.103;0.227;0.103" dur="4.6s" begin="1.4s" repeatCount="indefinite"/></circle>
<circle cx="581.8" cy="454.9" r="1.3" fill="#58A6B8" opacity="0.105"><animate attributeName="opacity" values="0.105;0.231;0.105" dur="4.0s" begin="5.0s" repeatCount="indefinite"/></circle>
<circle cx="729.0" cy="203.9" r="0.7" fill="#58A6B8" opacity="0.121"><animate attributeName="opacity" values="0.121;0.266;0.121" dur="5.7s" begin="5.2s" repeatCount="indefinite"/></circle>
<circle cx="784.4" cy="90.2" r="0.6" fill="#58A6B8" opacity="0.095"><animate attributeName="opacity" values="0.095;0.209;0.095" dur="4.5s" begin="3.1s" repeatCount="indefinite"/></circle>
<circle cx="576.0" cy="145.6" r="1.1" fill="#58A6B8" opacity="0.079"><animate attributeName="opacity" values="0.079;0.174;0.079" dur="5.6s" begin="5.9s" repeatCount="indefinite"/></circle>
<circle cx="552.5" cy="441.6" r="0.4" fill="#58A6B8" opacity="0.096"><animate attributeName="opacity" values="0.096;0.211;0.096" dur="7.2s" begin="4.4s" repeatCount="indefinite"/></circle>
<circle cx="117.4" cy="472.0" r="0.3" fill="#58A6B8" opacity="0.059"><animate attributeName="opacity" values="0.059;0.130;0.059" dur="5.7s" begin="2.0s" repeatCount="indefinite"/></circle>
<g transform="translate(336.0,399.1) rotate(45)" opacity="0.053"><rect x="-2.2" y="-2.2" width="4.5" height="4.5" fill="#58A6B8"/><animate attributeName="opacity" values="0.053;0.133;0.053" dur="9.5s" begin="4.6s" repeatCount="indefinite"/></g>
<g transform="translate(407.6,497.5) rotate(45)" opacity="0.060"><rect x="-2.2" y="-2.2" width="4.3" height="4.3" fill="#58A6B8"/><animate attributeName="opacity" values="0.060;0.150;0.060" dur="9.5s" begin="4.2s" repeatCount="indefinite"/></g>
<g transform="translate(627.5,495.0) rotate(45)" opacity="0.099"><rect x="-2.2" y="-2.2" width="4.4" height="4.4" fill="#58A6B8"/><animate attributeName="opacity" values="0.099;0.247;0.099" dur="7.1s" begin="1.0s" repeatCount="indefinite"/></g>
<g transform="translate(817.1,433.6) rotate(45)" opacity="0.093"><rect x="-2.1" y="-2.1" width="4.2" height="4.2" fill="#58A6B8"/><animate attributeName="opacity" values="0.093;0.232;0.093" dur="6.1s" begin="1.3s" repeatCount="indefinite"/></g>
<g transform="translate(772.2,375.9) rotate(45)" opacity="0.049"><rect x="-1.4" y="-1.4" width="2.8" height="2.8" fill="#58A6B8"/><animate attributeName="opacity" values="0.049;0.122;0.049" dur="8.7s" begin="0.6s" repeatCount="indefinite"/></g>
<g transform="translate(450.7,310.0) rotate(45)" opacity="0.047"><rect x="-2.1" y="-2.1" width="4.2" height="4.2" fill="#58A6B8"/><animate attributeName="opacity" values="0.047;0.117;0.047" dur="8.0s" begin="1.6s" repeatCount="indefinite"/></g>
<g transform="translate(378.7,180.2) rotate(45)" opacity="0.080"><rect x="-1.7" y="-1.7" width="3.4" height="3.4" fill="#58A6B8"/><animate attributeName="opacity" values="0.080;0.200;0.080" dur="8.3s" begin="0.4s" repeatCount="indefinite"/></g>
<g transform="translate(613.6,402.1) rotate(45)" opacity="0.048"><rect x="-2.0" y="-2.0" width="3.9" height="3.9" fill="#58A6B8"/><animate attributeName="opacity" values="0.048;0.120;0.048" dur="9.7s" begin="1.8s" repeatCount="indefinite"/></g>
<g transform="translate(18,18) scale(1,1)"><path d="M0 25 L0 6 Q0 0 6 0 L25 0" fill="none" stroke="#58A6B8" stroke-width="1.3" opacity="0.35"/><circle cx="0" cy="0" r="1.8" fill="#58A6B8" opacity="0.4"/><path d="M0 12 L5 12" fill="none" stroke="#58A6B8" stroke-width="0.6" opacity="0.2"/><path d="M12 0 L12 5" fill="none" stroke="#58A6B8" stroke-width="0.6" opacity="0.2"/></g><g transform="translate(882,18) scale(-1,1)"><path d="M0 25 L0 6 Q0 0 6 0 L25 0" fill="none" stroke="#58A6B8" stroke-width="1.3" opacity="0.35"/><circle cx="0" cy="0" r="1.8" fill="#58A6B8" opacity="0.4"/><path d="M0 12 L5 12" fill="none" stroke="#58A6B8" stroke-width="0.6" opacity="0.2"/><path d="M12 0 L12 5" fill="none" stroke="#58A6B8" stroke-width="0.6" opacity="0.2"/></g><g transform="translate(18,522) scale(1,-1)"><path d="M0 25 L0 6 Q0 0 6 0 L25 0" fill="none" stroke="#58A6B8" stroke-width="1.3" opacity="0.35"/><circle cx="0" cy="0" r="1.8" fill="#58A6B8" opacity="0.4"/><path d="M0 12 L5 12" fill="none" stroke="#58A6B8" stroke-width="0.6" opacity="0.2"/><path d="M12 0 L12 5" fill="none" stroke="#58A6B8" stroke-width="0.6" opacity="0.2"/></g><g transform="translate(882,522) scale(-1,-1)"><path d="M0 25 L0 6 Q0 0 6 0 L25 0" fill="none" stroke="#58A6B8" stroke-width="1.3" opacity="0.35"/><circle cx="0" cy="0" r="1.8" fill="#58A6B8" opacity="0.4"/><path d="M0 12 L5 12" fill="none" stroke="#58A6B8" stroke-width="0.6" opacity="0.2"/><path d="M12 0 L12 5" fill="none" stroke="#58A6B8" stroke-width="0.6" opacity="0.2"/></g>
<rect x="10" y="10" width="880" height="520" rx="12" fill="none" stroke="url(#frameFade)" stroke-width="1"/>
<text x="450" y="50" text-anchor="middle" font-family="Georgia,'Palatino Linotype','Book Antiqua',Palatino,serif" font-size="22" font-weight="bold" fill="#e8f4f7" letter-spacing="8" filter="url(#glowMd)">✧ THE COMMIT COVEN ✧</text>
<line x1="310" y1="62" x2="590" y2="62" stroke="#58A6B8" stroke-width="0.5" opacity="0.25"/>
<g filter="url(#cardShadow)"><rect x="70" y="80" width="240" height="78" rx="10" fill="rgba(88,166,184,0.05)" stroke="rgba(88,166,184,0.22)" stroke-width="0.8"/><text x="190" y="110" text-anchor="middle" font-family="Georgia,'Palatino Linotype',serif" font-size="11" fill="#5a7a80" letter-spacing="3" text-transform="uppercase">LONGEST STREAK</text><text x="190" y="136" text-anchor="middle" font-family="Georgia,'Palatino Linotype',serif" font-size="20" fill="#e8f4f7" font-weight="bold" filter="url(#glowSm)">12 Nights</text></g>
<g filter="url(#cardShadow)"><rect x="330" y="80" width="240" height="78" rx="10" fill="rgba(88,166,184,0.05)" stroke="rgba(88,166,184,0.22)" stroke-width="0.8"/><text x="450" y="110" text-anchor="middle" font-family="Georgia,'Palatino Linotype',serif" font-size="11" fill="#5a7a80" letter-spacing="3" text-transform="uppercase">CURRENT RITUAL</text><text x="450" y="136" text-anchor="middle" font-family="Georgia,'Palatino Linotype',serif" font-size="20" fill="#e8f4f7" font-weight="bold" filter="url(#glowSm)">0 Nights</text></g>
<g filter="url(#cardShadow)"><rect x="590" y="80" width="240" height="78" rx="10" fill="rgba(88,166,184,0.05)" stroke="rgba(88,166,184,0.22)" stroke-width="0.8"/><text x="710" y="110" text-anchor="middle" font-family="Georgia,'Palatino Linotype',serif" font-size="11" fill="#5a7a80" letter-spacing="3" text-transform="uppercase">TOTAL OFFERINGS</text><text x="710" y="136" text-anchor="middle" font-family="Georgia,'Palatino Linotype',serif" font-size="20" fill="#e8f4f7" font-weight="bold" filter="url(#glowSm)">194</text></g>
<text x="80" y="434.0" text-anchor="end" font-family="'Courier New',monospace" font-size="10" fill="#5a7a80">0</text>
<line x1="86" y1="430.0" x2="90" y2="430.0" stroke="#5a7a80" stroke-width="0.5"/>
<text x="80" y="390.0" text-anchor="end" font-family="'Courier New',monospace" font-size="10" fill="#5a7a80">5</text>
<line x1="86" y1="386.0" x2="90" y2="386.0" stroke="#5a7a80" stroke-width="0.5"/>
<text x="80" y="346.0" text-anchor="end" font-family="'Courier New',monospace" font-size="10" fill="#5a7a80">10</text>
<line x1="86" y1="342.0" x2="90" y2="342.0" stroke="#5a7a80" stroke-width="0.5"/>
<text x="80" y="302.0" text-anchor="end" font-family="'Courier New',monospace" font-size="10" fill="#5a7a80">15</text>
<line x1="86" y1="298.0" x2="90" y2="298.0" stroke="#5a7a80" stroke-width="0.5"/>
<text x="80" y="258.0" text-anchor="end" font-family="'Courier New',monospace" font-size="10" fill="#5a7a80">20</text>
<line x1="86" y1="254.0" x2="90" y2="254.0" stroke="#5a7a80" stroke-width="0.5"/>
<text x="80" y="214.0" text-anchor="end" font-family="'Courier New',monospace" font-size="10" fill="#5a7a80">25</text>
<line x1="86" y1="210.0" x2="90" y2="210.0" stroke="#5a7a80" stroke-width="0.5"/>
<text x="90.0" y="450" text-anchor="middle" font-family="'Courier New',monospace" font-size="10" fill="#5a7a80">14</text>
<text x="196.2" y="450" text-anchor="middle" font-family="'Courier New',monospace" font-size="10" fill="#5a7a80">18</text>
<text x="302.4" y="450" text-anchor="middle" font-family="'Courier New',monospace" font-size="10" fill="#5a7a80">22</text>
<text x="408.6" y="450" text-anchor="middle" font-family="'Courier New',monospace" font-size="10" fill="#5a7a80">26</text>
<text x="514.8" y="450" text-anchor="middle" font-family="'Courier New',monospace" font-size="10" fill="#5a7a80">30</text>
<text x="621.0" y="450" text-anchor="middle" font-family="'Courier New',monospace" font-size="10" fill="#5a7a80">4</text>
<text x="727.2" y="450" text-anchor="middle" font-family="'Courier New',monospace" font-size="10" fill="#5a7a80">8</text>
<text x="833.4" y="450" text-anchor="middle" font-family="'Courier New',monospace" font-size="10" fill="#5a7a80">12</text>
<text x="860.0" y="450" text-anchor="middle" font-family="'Courier New',monospace" font-size="10" fill="#5a7a80">13</text>
<line x1="90" y1="210" x2="90" y2="430" stroke="#58A6B8" stroke-width="0.5" opacity="0.2"/>
<line x1="90" y1="430" x2="860" y2="430" stroke="#58A6B8" stroke-width="0.5" opacity="0.2"/>
<path d="M90.0 386.0 C93.5 383.7,109.5 367.2,116.6 368.4 C123.6 369.6,136.0 398.3,143.1 394.8 C150.2 391.3,162.6 350.2,169.7 342.0 C176.7 333.8,189.1 347.3,196.2 333.2 C203.3 319.1,215.7 228.2,222.8 236.4 C229.8 244.6,242.2 370.2,249.3 394.8 C256.4 419.4,268.8 418.9,275.9 421.2 C282.9 423.5,295.3 417.1,302.4 412.4 C309.5 407.7,321.9 387.2,329.0 386.0 C336.0 384.8,348.4 398.9,355.5 403.6 C362.6 408.3,375.0 417.7,382.1 421.2 C389.1 424.7,401.5 428.8,408.6 430.0 C415.7 431.2,428.1 430.0,435.2 430.0 C442.3 430.0,454.6 430.0,461.7 430.0 C468.8 430.0,481.2 435.9,488.3 430.0 C495.4 424.1,507.7 393.0,514.8 386.0 C521.9 379.0,534.3 381.9,541.4 377.2 C548.5 372.5,560.9 344.9,567.9 350.8 C575.0 356.7,587.4 410.6,594.5 421.2 C601.6 431.8,614.0 430.0,621.0 430.0 C628.1 430.0,640.5 421.2,647.6 421.2 C654.7 421.2,667.1 432.3,674.1 430.0 C681.2 427.7,693.6 404.8,700.7 403.6 C707.8 402.4,720.2 417.7,727.2 421.2 C734.3 424.7,746.7 428.8,753.8 430.0 C760.9 431.2,773.3 430.0,780.3 430.0 C787.4 430.0,799.8 430.0,806.9 430.0 C814.0 430.0,826.4 430.0,833.4 430.0 C840.5 430.0,856.5 430.0,860.0 430.0 L860.0 430 L90.0 430 Z" fill="url(#areaFill)" opacity="0.9">
  <animate attributeName="opacity" values="0;0.9" dur="2s" fill="freeze"/>
</path>
<path d="M90.0 386.0 C93.5 383.7,109.5 367.2,116.6 368.4 C123.6 369.6,136.0 398.3,143.1 394.8 C150.2 391.3,162.6 350.2,169.7 342.0 C176.7 333.8,189.1 347.3,196.2 333.2 C203.3 319.1,215.7 228.2,222.8 236.4 C229.8 244.6,242.2 370.2,249.3 394.8 C256.4 419.4,268.8 418.9,275.9 421.2 C282.9 423.5,295.3 417.1,302.4 412.4 C309.5 407.7,321.9 387.2,329.0 386.0 C336.0 384.8,348.4 398.9,355.5 403.6 C362.6 408.3,375.0 417.7,382.1 421.2 C389.1 424.7,401.5 428.8,408.6 430.0 C415.7 431.2,428.1 430.0,435.2 430.0 C442.3 430.0,454.6 430.0,461.7 430.0 C468.8 430.0,481.2 435.9,488.3 430.0 C495.4 424.1,507.7 393.0,514.8 386.0 C521.9 379.0,534.3 381.9,541.4 377.2 C548.5 372.5,560.9 344.9,567.9 350.8 C575.0 356.7,587.4 410.6,594.5 421.2 C601.6 431.8,614.0 430.0,621.0 430.0 C628.1 430.0,640.5 421.2,647.6 421.2 C654.7 421.2,667.1 432.3,674.1 430.0 C681.2 427.7,693.6 404.8,700.7 403.6 C707.8 402.4,720.2 417.7,727.2 421.2 C734.3 424.7,746.7 428.8,753.8 430.0 C760.9 431.2,773.3 430.0,780.3 430.0 C787.4 430.0,799.8 430.0,806.9 430.0 C814.0 430.0,826.4 430.0,833.4 430.0 C840.5 430.0,856.5 430.0,860.0 430.0" fill="none" stroke="#58A6B8" stroke-width="4" opacity="0.15" filter="url(#glowLg)" stroke-linecap="round" stroke-linejoin="round"/>
<path d="M90.0 386.0 C93.5 383.7,109.5 367.2,116.6 368.4 C123.6 369.6,136.0 398.3,143.1 394.8 C150.2 391.3,162.6 350.2,169.7 342.0 C176.7 333.8,189.1 347.3,196.2 333.2 C203.3 319.1,215.7 228.2,222.8 236.4 C229.8 244.6,242.2 370.2,249.3 394.8 C256.4 419.4,268.8 418.9,275.9 421.2 C282.9 423.5,295.3 417.1,302.4 412.4 C309.5 407.7,321.9 387.2,329.0 386.0 C336.0 384.8,348.4 398.9,355.5 403.6 C362.6 408.3,375.0 417.7,382.1 421.2 C389.1 424.7,401.5 428.8,408.6 430.0 C415.7 431.2,428.1 430.0,435.2 430.0 C442.3 430.0,454.6 430.0,461.7 430.0 C468.8 430.0,481.2 435.9,488.3 430.0 C495.4 424.1,507.7 393.0,514.8 386.0 C521.9 379.0,534.3 381.9,541.4 377.2 C548.5 372.5,560.9 344.9,567.9 350.8 C575.0 356.7,587.4 410.6,594.5 421.2 C601.6 431.8,614.0 430.0,621.0 430.0 C628.1 430.0,640.5 421.2,647.6 421.2 C654.7 421.2,667.1 432.3,674.1 430.0 C681.2 427.7,693.6 404.8,700.7 403.6 C707.8 402.4,720.2 417.7,727.2 421.2 C734.3 424.7,746.7 428.8,753.8 430.0 C760.9 431.2,773.3 430.0,780.3 430.0 C787.4 430.0,799.8 430.0,806.9 430.0 C814.0 430.0,826.4 430.0,833.4 430.0 C840.5 430.0,856.5 430.0,860.0 430.0" fill="none" stroke="#58A6B8" stroke-width="2.2" stroke-linecap="round" stroke-linejoin="round" filter="url(#glowSm)" stroke-dasharray="1523" stroke-dashoffset="1523">
  <animate attributeName="stroke-dashoffset" from="1523" to="0" dur="2.5s" fill="freeze" calcMode="spline" keySplines="0.4 0 0.2 1"/>
  <animate attributeName="opacity" values="0.7;1;0.85;1" dur="6s" begin="2.5s" repeatCount="indefinite"/>
</path>
<circle cx="90.0" cy="386.0" r="3.0" fill="#58A6B8" stroke="#0d0d0d" stroke-width="1" filter="url(#glowSm)" opacity="0">
  <title>Jun 14
5 Contributions</title>
  <animate attributeName="opacity" from="0" to="1" dur="0.4s" begin="0.80s" fill="freeze"/>
  <animate attributeName="r" values="3.0;4.0;3.0" dur="4s" begin="1.20s" repeatCount="indefinite"/>
</circle>
<circle cx="116.6" cy="368.4" r="3.3" fill="#58A6B8" stroke="#0d0d0d" stroke-width="1" filter="url(#glowSm)" opacity="0">
  <title>Jun 15
7 Contributions</title>
  <animate attributeName="opacity" from="0" to="1" dur="0.4s" begin="0.86s" fill="freeze"/>
  <animate attributeName="r" values="3.3;4.3;3.3" dur="4s" begin="1.26s" repeatCount="indefinite"/>
</circle>
<circle cx="143.1" cy="394.8" r="2.8" fill="#58A6B8" stroke="#0d0d0d" stroke-width="1" filter="url(#glowSm)" opacity="0">
  <title>Jun 16
4 Contributions</title>
  <animate attributeName="opacity" from="0" to="1" dur="0.4s" begin="0.92s" fill="freeze"/>
  <animate attributeName="r" values="2.8;3.8;2.8" dur="4s" begin="1.32s" repeatCount="indefinite"/>
</circle>
<circle cx="169.7" cy="342.0" r="3.8" fill="#58A6B8" stroke="#0d0d0d" stroke-width="1" filter="url(#glowSm)" opacity="0">
  <title>Jun 17
10 Contributions</title>
  <animate attributeName="opacity" from="0" to="1" dur="0.4s" begin="0.98s" fill="freeze"/>
  <animate attributeName="r" values="3.8;4.8;3.8" dur="4s" begin="1.38s" repeatCount="indefinite"/>
</circle>
<circle cx="196.2" cy="333.2" r="4.0" fill="#58A6B8" stroke="#0d0d0d" stroke-width="1" filter="url(#glowSm)" opacity="0">
  <title>Jun 18
11 Contributions</title>
  <animate attributeName="opacity" from="0" to="1" dur="0.4s" begin="1.04s" fill="freeze"/>
  <animate attributeName="r" values="4.0;5.0;4.0" dur="4s" begin="1.44s" repeatCount="indefinite"/>
</circle>
<circle cx="222.8" cy="236.4" r="18" fill="url(#haloGrad)" opacity="0">
  <animate attributeName="opacity" values="0;0.6;0.3;0.6" dur="4s" begin="1.10s" repeatCount="indefinite"/>
  <animate attributeName="r" values="14;22;14" dur="4s" begin="1.10s" repeatCount="indefinite"/>
</circle>
<circle cx="222.8" cy="236.4" r="7.2" fill="#e8f4f7" stroke="#0d0d0d" stroke-width="1" filter="url(#glowMd)" opacity="0">
  <title>Jun 19
22 Contributions</title>
  <animate attributeName="opacity" from="0" to="1" dur="0.4s" begin="1.10s" fill="freeze"/>
  <animate attributeName="r" values="7.2;9.2;7.2" dur="3s" begin="1.50s" repeatCount="indefinite"/>
</circle>
<circle cx="249.3" cy="394.8" r="2.8" fill="#58A6B8" stroke="#0d0d0d" stroke-width="1" filter="url(#glowSm)" opacity="0">
  <title>Jun 20
4 Contributions</title>
  <animate attributeName="opacity" from="0" to="1" dur="0.4s" begin="1.16s" fill="freeze"/>
  <animate attributeName="r" values="2.8;3.8;2.8" dur="4s" begin="1.56s" repeatCount="indefinite"/>
</circle>
<circle cx="275.9" cy="421.2" r="2.4" fill="#58A6B8" stroke="#0d0d0d" stroke-width="1" filter="url(#glowSm)" opacity="0">
  <title>Jun 21
1 Contribution</title>
  <animate attributeName="opacity" from="0" to="1" dur="0.4s" begin="1.22s" fill="freeze"/>
  <animate attributeName="r" values="2.4;3.4;2.4" dur="4s" begin="1.62s" repeatCount="indefinite"/>
</circle>
<circle cx="302.4" cy="412.4" r="2.5" fill="#58A6B8" stroke="#0d0d0d" stroke-width="1" filter="url(#glowSm)" opacity="0">
  <title>Jun 22
2 Contributions</title>
  <animate attributeName="opacity" from="0" to="1" dur="0.4s" begin="1.28s" fill="freeze"/>
  <animate attributeName="r" values="2.5;3.5;2.5" dur="4s" begin="1.68s" repeatCount="indefinite"/>
</circle>
<circle cx="329.0" cy="386.0" r="3.0" fill="#58A6B8" stroke="#0d0d0d" stroke-width="1" filter="url(#glowSm)" opacity="0">
  <title>Jun 23
5 Contributions</title>
  <animate attributeName="opacity" from="0" to="1" dur="0.4s" begin="1.34s" fill="freeze"/>
  <animate attributeName="r" values="3.0;4.0;3.0" dur="4s" begin="1.74s" repeatCount="indefinite"/>
</circle>
<circle cx="355.5" cy="403.6" r="2.7" fill="#58A6B8" stroke="#0d0d0d" stroke-width="1" filter="url(#glowSm)" opacity="0">
  <title>Jun 24
3 Contributions</title>
  <animate attributeName="opacity" from="0" to="1" dur="0.4s" begin="1.40s" fill="freeze"/>
  <animate attributeName="r" values="2.7;3.7;2.7" dur="4s" begin="1.80s" repeatCount="indefinite"/>
</circle>
<circle cx="382.1" cy="421.2" r="2.4" fill="#58A6B8" stroke="#0d0d0d" stroke-width="1" filter="url(#glowSm)" opacity="0">
  <title>Jun 25
1 Contribution</title>
  <animate attributeName="opacity" from="0" to="1" dur="0.4s" begin="1.46s" fill="freeze"/>
  <animate attributeName="r" values="2.4;3.4;2.4" dur="4s" begin="1.86s" repeatCount="indefinite"/>
</circle>
<circle cx="408.6" cy="430.0" r="2.2" fill="#58A6B8" stroke="#0d0d0d" stroke-width="1" filter="url(#glowSm)" opacity="0">
  <title>Jun 26
0 Contributions</title>
  <animate attributeName="opacity" from="0" to="1" dur="0.4s" begin="1.52s" fill="freeze"/>
  <animate attributeName="r" values="2.2;3.2;2.2" dur="4s" begin="1.92s" repeatCount="indefinite"/>
</circle>
<circle cx="435.2" cy="430.0" r="2.2" fill="#58A6B8" stroke="#0d0d0d" stroke-width="1" filter="url(#glowSm)" opacity="0">
  <title>Jun 27
0 Contributions</title>
  <animate attributeName="opacity" from="0" to="1" dur="0.4s" begin="1.58s" fill="freeze"/>
  <animate attributeName="r" values="2.2;3.2;2.2" dur="4s" begin="1.98s" repeatCount="indefinite"/>
</circle>
<circle cx="461.7" cy="430.0" r="2.2" fill="#58A6B8" stroke="#0d0d0d" stroke-width="1" filter="url(#glowSm)" opacity="0">
  <title>Jun 28
0 Contributions</title>
  <animate attributeName="opacity" from="0" to="1" dur="0.4s" begin="1.64s" fill="freeze"/>
  <animate attributeName="r" values="2.2;3.2;2.2" dur="4s" begin="2.04s" repeatCount="indefinite"/>
</circle>
<circle cx="488.3" cy="430.0" r="2.2" fill="#58A6B8" stroke="#0d0d0d" stroke-width="1" filter="url(#glowSm)" opacity="0">
  <title>Jun 29
0 Contributions</title>
  <animate attributeName="opacity" from="0" to="1" dur="0.4s" begin="1.70s" fill="freeze"/>
  <animate attributeName="r" values="2.2;3.2;2.2" dur="4s" begin="2.10s" repeatCount="indefinite"/>
</circle>
<circle cx="514.8" cy="386.0" r="3.0" fill="#58A6B8" stroke="#0d0d0d" stroke-width="1" filter="url(#glowSm)" opacity="0">
  <title>Jun 30
5 Contributions</title>
  <animate attributeName="opacity" from="0" to="1" dur="0.4s" begin="1.76s" fill="freeze"/>
  <animate attributeName="r" values="3.0;4.0;3.0" dur="4s" begin="2.16s" repeatCount="indefinite"/>
</circle>
<circle cx="541.4" cy="377.2" r="3.2" fill="#58A6B8" stroke="#0d0d0d" stroke-width="1" filter="url(#glowSm)" opacity="0">
  <title>Jul 1
6 Contributions</title>
  <animate attributeName="opacity" from="0" to="1" dur="0.4s" begin="1.82s" fill="freeze"/>
  <animate attributeName="r" values="3.2;4.2;3.2" dur="4s" begin="2.22s" repeatCount="indefinite"/>
</circle>
<circle cx="567.9" cy="350.8" r="3.6" fill="#58A6B8" stroke="#0d0d0d" stroke-width="1" filter="url(#glowSm)" opacity="0">
  <title>Jul 2
9 Contributions</title>
  <animate attributeName="opacity" from="0" to="1" dur="0.4s" begin="1.88s" fill="freeze"/>
  <animate attributeName="r" values="3.6;4.6;3.6" dur="4s" begin="2.28s" repeatCount="indefinite"/>
</circle>
<circle cx="594.5" cy="421.2" r="2.4" fill="#58A6B8" stroke="#0d0d0d" stroke-width="1" filter="url(#glowSm)" opacity="0">
  <title>Jul 3
1 Contribution</title>
  <animate attributeName="opacity" from="0" to="1" dur="0.4s" begin="1.94s" fill="freeze"/>
  <animate attributeName="r" values="2.4;3.4;2.4" dur="4s" begin="2.34s" repeatCount="indefinite"/>
</circle>
<circle cx="621.0" cy="430.0" r="2.2" fill="#58A6B8" stroke="#0d0d0d" stroke-width="1" filter="url(#glowSm)" opacity="0">
  <title>Jul 4
0 Contributions</title>
  <animate attributeName="opacity" from="0" to="1" dur="0.4s" begin="2.00s" fill="freeze"/>
  <animate attributeName="r" values="2.2;3.2;2.2" dur="4s" begin="2.40s" repeatCount="indefinite"/>
</circle>
<circle cx="647.6" cy="421.2" r="2.4" fill="#58A6B8" stroke="#0d0d0d" stroke-width="1" filter="url(#glowSm)" opacity="0">
  <title>Jul 5
1 Contribution</title>
  <animate attributeName="opacity" from="0" to="1" dur="0.4s" begin="2.06s" fill="freeze"/>
  <animate attributeName="r" values="2.4;3.4;2.4" dur="4s" begin="2.46s" repeatCount="indefinite"/>
</circle>
<circle cx="674.1" cy="430.0" r="2.2" fill="#58A6B8" stroke="#0d0d0d" stroke-width="1" filter="url(#glowSm)" opacity="0">
  <title>Jul 6
0 Contributions</title>
  <animate attributeName="opacity" from="0" to="1" dur="0.4s" begin="2.12s" fill="freeze"/>
  <animate attributeName="r" values="2.2;3.2;2.2" dur="4s" begin="2.52s" repeatCount="indefinite"/>
</circle>
<circle cx="700.7" cy="403.6" r="2.7" fill="#58A6B8" stroke="#0d0d0d" stroke-width="1" filter="url(#glowSm)" opacity="0">
  <title>Jul 7
3 Contributions</title>
  <animate attributeName="opacity" from="0" to="1" dur="0.4s" begin="2.18s" fill="freeze"/>
  <animate attributeName="r" values="2.7;3.7;2.7" dur="4s" begin="2.58s" repeatCount="indefinite"/>
</circle>
<circle cx="727.2" cy="421.2" r="2.4" fill="#58A6B8" stroke="#0d0d0d" stroke-width="1" filter="url(#glowSm)" opacity="0">
  <title>Jul 8
1 Contribution</title>
  <animate attributeName="opacity" from="0" to="1" dur="0.4s" begin="2.24s" fill="freeze"/>
  <animate attributeName="r" values="2.4;3.4;2.4" dur="4s" begin="2.64s" repeatCount="indefinite"/>
</circle>
<circle cx="753.8" cy="430.0" r="2.2" fill="#58A6B8" stroke="#0d0d0d" stroke-width="1" filter="url(#glowSm)" opacity="0">
  <title>Jul 9
0 Contributions</title>
  <animate attributeName="opacity" from="0" to="1" dur="0.4s" begin="2.30s" fill="freeze"/>
  <animate attributeName="r" values="2.2;3.2;2.2" dur="4s" begin="2.70s" repeatCount="indefinite"/>
</circle>
<circle cx="780.3" cy="430.0" r="2.2" fill="#58A6B8" stroke="#0d0d0d" stroke-width="1" filter="url(#glowSm)" opacity="0">
  <title>Jul 10
0 Contributions</title>
  <animate attributeName="opacity" from="0" to="1" dur="0.4s" begin="2.36s" fill="freeze"/>
  <animate attributeName="r" values="2.2;3.2;2.2" dur="4s" begin="2.76s" repeatCount="indefinite"/>
</circle>
<circle cx="806.9" cy="430.0" r="2.2" fill="#58A6B8" stroke="#0d0d0d" stroke-width="1" filter="url(#glowSm)" opacity="0">
  <title>Jul 11
0 Contributions</title>
  <animate attributeName="opacity" from="0" to="1" dur="0.4s" begin="2.42s" fill="freeze"/>
  <animate attributeName="r" values="2.2;3.2;2.2" dur="4s" begin="2.82s" repeatCount="indefinite"/>
</circle>
<circle cx="833.4" cy="430.0" r="2.2" fill="#58A6B8" stroke="#0d0d0d" stroke-width="1" filter="url(#glowSm)" opacity="0">
  <title>Jul 12
0 Contributions</title>
  <animate attributeName="opacity" from="0" to="1" dur="0.4s" begin="2.48s" fill="freeze"/>
  <animate attributeName="r" values="2.2;3.2;2.2" dur="4s" begin="2.88s" repeatCount="indefinite"/>
</circle>
<circle cx="860.0" cy="430.0" r="2.2" fill="#58A6B8" stroke="#0d0d0d" stroke-width="1" filter="url(#glowSm)" opacity="0">
  <title>Jul 13
0 Contributions</title>
  <animate attributeName="opacity" from="0" to="1" dur="0.4s" begin="2.54s" fill="freeze"/>
  <animate attributeName="r" values="2.2;3.2;2.2" dur="4s" begin="2.94s" repeatCount="indefinite"/>
</circle>
<text x="90" y="466" text-anchor="start" font-family="Georgia,'Palatino Linotype',serif" font-size="10" fill="#5a7a80" letter-spacing="1.5">JUN</text>
<text x="860" y="466" text-anchor="end" font-family="Georgia,'Palatino Linotype',serif" font-size="10" fill="#5a7a80" letter-spacing="1.5">JUL</text>
<text x="450" y="522" text-anchor="middle" font-family="Georgia,'Palatino Linotype',serif" font-size="9" fill="#5a7a80" letter-spacing="4" opacity="0.5">LAST 30 DAYS OF DARK RITUALS</text>
</svg>