<svg xmlns="http://www.w3.org/2000/svg" viewBox="0 0 900 540" width="900" height="540">
<defs>
  <!-- Gradients -->
  <linearGradient id="areaFill" x1="0" y1="0" x2="0" y2="1">
    <stop offset="0%" stop-color="#58A6B8" stop-opacity="0.28"/>
    <stop offset="85%" stop-color="#58A6B8" stop-opacity="0.03"/>
    <stop offset="100%" stop-color="#58A6B8" stop-opacity="0"/>
  </linearGradient>
  <radialGradient id="haloGrad" cx="50%" cy="50%" r="50%">
    <stop offset="0%" stop-color="#58A6B8" stop-opacity="0.5"/>
    <stop offset="100%" stop-color="#58A6B8" stop-opacity="0"/>
  </radialGradient>
  <linearGradient id="frameFade" x1="0" y1="0" x2="1" y2="1">
    <stop offset="0%" stop-color="#58A6B8" stop-opacity="0.35"/>
    <stop offset="50%" stop-color="#58A6B8" stop-opacity="0.12"/>
    <stop offset="100%" stop-color="#58A6B8" stop-opacity="0.35"/>
  </linearGradient>
  <!-- Filters -->
  <filter id="glowSm" x="-50%" y="-50%" width="200%" height="200%">
    <feGaussianBlur stdDeviation="2.5" result="b"/><feMerge><feMergeNode in="b"/><feMergeNode in="SourceGraphic"/></feMerge>
  </filter>
  <filter id="glowMd" x="-50%" y="-50%" width="200%" height="200%">
    <feGaussianBlur stdDeviation="5" result="b"/><feMerge><feMergeNode in="b"/><feMergeNode in="SourceGraphic"/></feMerge>
  </filter>
  <filter id="glowLg" x="-80%" y="-80%" width="260%" height="260%">
    <feGaussianBlur stdDeviation="10" result="b"/><feMerge><feMergeNode in="b"/><feMergeNode in="SourceGraphic"/></feMerge>
  </filter>
  <filter id="cardShadow" x="-10%" y="-10%" width="120%" height="130%">
    <feGaussianBlur stdDeviation="6" result="b"/><feFlood flood-color="#58A6B8" flood-opacity="0.08" result="c"/>
    <feComposite in="c" in2="b" operator="in" result="s"/><feMerge><feMergeNode in="s"/><feMergeNode in="SourceGraphic"/></feMerge>
  </filter>
</defs>

<!-- ═══ Background ═══ -->
<rect width="900" height="540" fill="#0d0d0d" rx="16"/>
<line x1="90" y1="210.0" x2="860" y2="210.0" stroke="rgba(88,166,184,0.055)" stroke-width="0.7"/>
<line x1="90" y1="246.7" x2="860" y2="246.7" stroke="rgba(88,166,184,0.055)" stroke-width="0.7"/>
<line x1="90" y1="283.3" x2="860" y2="283.3" stroke="rgba(88,166,184,0.055)" stroke-width="0.7"/>
<line x1="90" y1="320.0" x2="860" y2="320.0" stroke="rgba(88,166,184,0.055)" stroke-width="0.7"/>
<line x1="90" y1="356.7" x2="860" y2="356.7" stroke="rgba(88,166,184,0.055)" stroke-width="0.7"/>
<line x1="90" y1="393.3" x2="860" y2="393.3" stroke="rgba(88,166,184,0.055)" stroke-width="0.7"/>
<line x1="90" y1="430.0" x2="860" y2="430.0" stroke="rgba(88,166,184,0.055)" stroke-width="0.7"/>
<line x1="90.0" y1="210" x2="90.0" y2="430" stroke="rgba(88,166,184,0.055)" stroke-width="0.5"/>
<line x1="222.8" y1="210" x2="222.8" y2="430" stroke="rgba(88,166,184,0.055)" stroke-width="0.5"/>
<line x1="355.5" y1="210" x2="355.5" y2="430" stroke="rgba(88,166,184,0.055)" stroke-width="0.5"/>
<line x1="488.3" y1="210" x2="488.3" y2="430" stroke="rgba(88,166,184,0.055)" stroke-width="0.5"/>
<line x1="621.0" y1="210" x2="621.0" y2="430" stroke="rgba(88,166,184,0.055)" stroke-width="0.5"/>
<line x1="753.8" y1="210" x2="753.8" y2="430" stroke="rgba(88,166,184,0.055)" stroke-width="0.5"/>
<circle cx="523.4" cy="383.9" r="1.0" fill="#58A6B8" opacity="0.060"><animate attributeName="opacity" values="0.060;0.132;0.060" dur="6.4s" begin="5.4s" repeatCount="indefinite"/></circle>
<circle cx="790.1" cy="100.7" r="1.1" fill="#58A6B8" opacity="0.068"><animate attributeName="opacity" values="0.068;0.150;0.068" dur="5.9s" begin="3.8s" repeatCount="indefinite"/></circle>
<circle cx="790.4" cy="383.7" r="1.1" fill="#58A6B8" opacity="0.132"><animate attributeName="opacity" values="0.132;0.290;0.132" dur="8.5s" begin="0.6s" repeatCount="indefinite"/></circle>
<circle cx="610.5" cy="299.1" r="0.7" fill="#58A6B8" opacity="0.056"><animate attributeName="opacity" values="0.056;0.123;0.056" dur="4.5s" begin="4.9s" repeatCount="indefinite"/></circle>
<circle cx="505.8" cy="361.4" r="1.2" fill="#58A6B8" opacity="0.132"><animate attributeName="opacity" values="0.132;0.290;0.132" dur="7.6s" begin="3.0s" repeatCount="indefinite"/></circle>
<circle cx="95.4" cy="63.1" r="0.5" fill="#58A6B8" opacity="0.118"><animate attributeName="opacity" values="0.118;0.260;0.118" dur="5.5s" begin="3.7s" repeatCount="indefinite"/></circle>
<circle cx="669.8" cy="512.2" r="0.5" fill="#58A6B8" opacity="0.146"><animate attributeName="opacity" values="0.146;0.321;0.146" dur="5.0s" begin="2.5s" repeatCount="indefinite"/></circle>
<circle cx="59.4" cy="138.0" r="0.5" fill="#58A6B8" opacity="0.094"><animate attributeName="opacity" values="0.094;0.207;0.094" dur="8.2s" begin="2.8s" repeatCount="indefinite"/></circle>
<circle cx="239.8" cy="8.1" r="1.4" fill="#58A6B8" opacity="0.125"><animate attributeName="opacity" values="0.125;0.275;0.125" dur="5.5s" begin="0.2s" repeatCount="indefinite"/></circle>
<circle cx="765.8" cy="324.5" r="1.3" fill="#58A6B8" opacity="0.057"><animate attributeName="opacity" values="0.057;0.125;0.057" dur="8.1s" begin="4.7s" repeatCount="indefinite"/></circle>
<circle cx="553.7" cy="168.6" r="1.2" fill="#58A6B8" opacity="0.104"><animate attributeName="opacity" values="0.104;0.229;0.104" dur="7.5s" begin="3.7s" repeatCount="indefinite"/></circle>
<circle cx="645.8" cy="59.3" r="0.6" fill="#58A6B8" opacity="0.107"><animate attributeName="opacity" values="0.107;0.235;0.107" dur="4.1s" begin="3.9s" repeatCount="indefinite"/></circle>
<circle cx="869.4" cy="155.4" r="0.5" fill="#58A6B8" opacity="0.143"><animate attributeName="opacity" values="0.143;0.315;0.143" dur="4.9s" begin="2.0s" repeatCount="indefinite"/></circle>
<circle cx="574.1" cy="273.0" r="0.7" fill="#58A6B8" opacity="0.143"><animate attributeName="opacity" values="0.143;0.315;0.143" dur="5.6s" begin="3.2s" repeatCount="indefinite"/></circle>
<circle cx="591.6" cy="4.3" r="0.8" fill="#58A6B8" opacity="0.043"><animate attributeName="opacity" values="0.043;0.095;0.043" dur="6.9s" begin="4.2s" repeatCount="indefinite"/></circle>
<circle cx="821.6" cy="2.1" r="1.1" fill="#58A6B8" opacity="0.070"><animate attributeName="opacity" values="0.070;0.154;0.070" dur="5.3s" begin="4.1s" repeatCount="indefinite"/></circle>
<circle cx="614.2" cy="512.0" r="0.6" fill="#58A6B8" opacity="0.101"><animate attributeName="opacity" values="0.101;0.222;0.101" dur="3.9s" begin="2.5s" repeatCount="indefinite"/></circle>
<circle cx="573.7" cy="220.7" r="0.5" fill="#58A6B8" opacity="0.116"><animate attributeName="opacity" values="0.116;0.255;0.116" dur="6.1s" begin="5.5s" repeatCount="indefinite"/></circle>
<circle cx="34.5" cy="172.7" r="1.1" fill="#58A6B8" opacity="0.099"><animate attributeName="opacity" values="0.099;0.218;0.099" dur="6.9s" begin="1.5s" repeatCount="indefinite"/></circle>
<circle cx="860.7" cy="431.4" r="1.3" fill="#58A6B8" opacity="0.140"><animate attributeName="opacity" values="0.140;0.308;0.140" dur="4.3s" begin="0.7s" repeatCount="indefinite"/></circle>
<circle cx="88.0" cy="10.9" r="0.9" fill="#58A6B8" opacity="0.105"><animate attributeName="opacity" values="0.105;0.231;0.105" dur="6.7s" begin="1.3s" repeatCount="indefinite"/></circle>
<circle cx="859.7" cy="83.6" r="0.8" fill="#58A6B8" opacity="0.114"><animate attributeName="opacity" values="0.114;0.251;0.114" dur="7.9s" begin="4.8s" repeatCount="indefinite"/></circle>
<circle cx="237.4" cy="155.3" r="1.0" fill="#58A6B8" opacity="0.121"><animate attributeName="opacity" values="0.121;0.266;0.121" dur="4.3s" begin="1.5s" repeatCount="indefinite"/></circle>
<circle cx="778.4" cy="158.1" r="1.0" fill="#58A6B8" opacity="0.042"><animate attributeName="opacity" values="0.042;0.092;0.042" dur="3.8s" begin="0.5s" repeatCount="indefinite"/></circle>
<circle cx="80.1" cy="335.3" r="0.5" fill="#58A6B8" opacity="0.058"><animate attributeName="opacity" values="0.058;0.128;0.058" dur="5.3s" begin="3.3s" repeatCount="indefinite"/></circle>
<circle cx="822.2" cy="50.2" r="1.1" fill="#58A6B8" opacity="0.094"><animate attributeName="opacity" values="0.094;0.207;0.094" dur="5.0s" begin="5.9s" repeatCount="indefinite"/></circle>
<circle cx="58.5" cy="328.4" r="0.9" fill="#58A6B8" opacity="0.044"><animate attributeName="opacity" values="0.044;0.097;0.044" dur="8.2s" begin="0.2s" repeatCount="indefinite"/></circle>
<circle cx="867.7" cy="238.8" r="0.7" fill="#58A6B8" opacity="0.059"><animate attributeName="opacity" values="0.059;0.130;0.059" dur="6.2s" begin="4.8s" repeatCount="indefinite"/></circle>
<circle cx="621.4" cy="405.0" r="1.4" fill="#58A6B8" opacity="0.157"><animate attributeName="opacity" values="0.157;0.345;0.157" dur="3.9s" begin="2.4s" repeatCount="indefinite"/></circle>
<circle cx="4.5" cy="102.3" r="0.5" fill="#58A6B8" opacity="0.063"><animate attributeName="opacity" values="0.063;0.139;0.063" dur="5.1s" begin="5.7s" repeatCount="indefinite"/></circle>
<circle cx="547.4" cy="73.6" r="1.1" fill="#58A6B8" opacity="0.122"><animate attributeName="opacity" values="0.122;0.268;0.122" dur="8.3s" begin="0.1s" repeatCount="indefinite"/></circle>
<circle cx="802.4" cy="474.9" r="1.4" fill="#58A6B8" opacity="0.070"><animate attributeName="opacity" values="0.070;0.154;0.070" dur="6.1s" begin="0.5s" repeatCount="indefinite"/></circle>
<circle cx="668.5" cy="163.2" r="1.0" fill="#58A6B8" opacity="0.132"><animate attributeName="opacity" values="0.132;0.290;0.132" dur="4.9s" begin="1.0s" repeatCount="indefinite"/></circle>
<circle cx="634.5" cy="325.2" r="0.3" fill="#58A6B8" opacity="0.099"><animate attributeName="opacity" values="0.099;0.218;0.099" dur="4.7s" begin="0.5s" repeatCount="indefinite"/></circle>
<circle cx="399.5" cy="122.6" r="1.2" fill="#58A6B8" opacity="0.148"><animate attributeName="opacity" values="0.148;0.326;0.148" dur="6.1s" begin="4.9s" repeatCount="indefinite"/></circle>
<circle cx="103.1" cy="314.6" r="1.1" fill="#58A6B8" opacity="0.113"><animate attributeName="opacity" values="0.113;0.249;0.113" dur="5.2s" begin="0.6s" repeatCount="indefinite"/></circle>
<circle cx="662.5" cy="225.3" r="1.4" fill="#58A6B8" opacity="0.098"><animate attributeName="opacity" values="0.098;0.216;0.098" dur="5.3s" begin="3.9s" repeatCount="indefinite"/></circle>
<circle cx="154.5" cy="474.5" r="0.6" fill="#58A6B8" opacity="0.088"><animate attributeName="opacity" values="0.088;0.194;0.088" dur="6.7s" begin="0.2s" repeatCount="indefinite"/></circle>
<circle cx="837.4" cy="488.5" r="1.0" fill="#58A6B8" opacity="0.158"><animate attributeName="opacity" values="0.158;0.348;0.158" dur="4.0s" begin="0.0s" repeatCount="indefinite"/></circle>
<circle cx="531.9" cy="250.3" r="0.4" fill="#58A6B8" opacity="0.099"><animate attributeName="opacity" values="0.099;0.218;0.099" dur="6.0s" begin="1.9s" repeatCount="indefinite"/></circle>
<circle cx="28.4" cy="254.8" r="0.8" fill="#58A6B8" opacity="0.152"><animate attributeName="opacity" values="0.152;0.334;0.152" dur="5.2s" begin="2.9s" repeatCount="indefinite"/></circle>
<circle cx="610.3" cy="532.2" r="0.4" fill="#58A6B8" opacity="0.128"><animate attributeName="opacity" values="0.128;0.282;0.128" dur="4.0s" begin="0.5s" repeatCount="indefinite"/></circle>
<circle cx="181.8" cy="252.6" r="0.6" fill="#58A6B8" opacity="0.086"><animate attributeName="opacity" values="0.086;0.189;0.086" dur="3.9s" begin="1.9s" repeatCount="indefinite"/></circle>
<circle cx="480.4" cy="197.8" r="0.4" fill="#58A6B8" opacity="0.040"><animate attributeName="opacity" values="0.040;0.088;0.040" dur="5.5s" begin="4.2s" repeatCount="indefinite"/></circle>
<circle cx="282.4" cy="26.3" r="0.9" fill="#58A6B8" opacity="0.068"><animate attributeName="opacity" values="0.068;0.150;0.068" dur="5.8s" begin="1.1s" repeatCount="indefinite"/></circle>
<circle cx="498.4" cy="356.4" r="0.7" fill="#58A6B8" opacity="0.042"><animate attributeName="opacity" values="0.042;0.092;0.042" dur="4.6s" begin="3.7s" repeatCount="indefinite"/></circle>
<circle cx="660.1" cy="19.7" r="1.0" fill="#58A6B8" opacity="0.141"><animate attributeName="opacity" values="0.141;0.310;0.141" dur="4.8s" begin="4.9s" repeatCount="indefinite"/></circle>
<circle cx="342.6" cy="170.9" r="0.4" fill="#58A6B8" opacity="0.111"><animate attributeName="opacity" values="0.111;0.244;0.111" dur="4.0s" begin="3.1s" repeatCount="indefinite"/></circle>
<circle cx="658.7" cy="513.9" r="0.8" fill="#58A6B8" opacity="0.149"><animate attributeName="opacity" values="0.149;0.328;0.149" dur="5.6s" begin="2.7s" repeatCount="indefinite"/></circle>
<circle cx="562.0" cy="111.6" r="1.0" fill="#58A6B8" opacity="0.077"><animate attributeName="opacity" values="0.077;0.169;0.077" dur="4.3s" begin="3.5s" repeatCount="indefinite"/></circle>
<circle cx="386.5" cy="45.7" r="0.7" fill="#58A6B8" opacity="0.070"><animate attributeName="opacity" values="0.070;0.154;0.070" dur="8.1s" begin="3.8s" repeatCount="indefinite"/></circle>
<circle cx="845.8" cy="175.2" r="0.9" fill="#58A6B8" opacity="0.092"><animate attributeName="opacity" values="0.092;0.202;0.092" dur="6.0s" begin="1.3s" repeatCount="indefinite"/></circle>
<circle cx="437.4" cy="365.8" r="1.0" fill="#58A6B8" opacity="0.082"><animate attributeName="opacity" values="0.082;0.180;0.082" dur="4.4s" begin="5.1s" repeatCount="indefinite"/></circle>
<circle cx="23.8" cy="10.8" r="0.9" fill="#58A6B8" opacity="0.114"><animate attributeName="opacity" values="0.114;0.251;0.114" dur="3.5s" begin="3.8s" repeatCount="indefinite"/></circle>
<circle cx="702.3" cy="276.9" r="0.7" fill="#58A6B8" opacity="0.141"><animate attributeName="opacity" values="0.141;0.310;0.141" dur="5.8s" begin="4.6s" repeatCount="indefinite"/></circle>
<g transform="translate(607.8,116.7) rotate(45)" opacity="0.069"><rect x="-1.9" y="-1.9" width="3.8" height="3.8" fill="#58A6B8"/><animate attributeName="opacity" values="0.069;0.173;0.069" dur="8.6s" begin="0.7s" repeatCount="indefinite"/></g>
<g transform="translate(216.8,318.9) rotate(45)" opacity="0.056"><rect x="-2.1" y="-2.1" width="4.3" height="4.3" fill="#58A6B8"/><animate attributeName="opacity" values="0.056;0.140;0.056" dur="6.8s" begin="0.7s" repeatCount="indefinite"/></g>
<g transform="translate(323.4,199.6) rotate(45)" opacity="0.083"><rect x="-1.9" y="-1.9" width="3.9" height="3.9" fill="#58A6B8"/><animate attributeName="opacity" values="0.083;0.208;0.083" dur="7.4s" begin="2.6s" repeatCount="indefinite"/></g>
<g transform="translate(378.6,422.6) rotate(45)" opacity="0.064"><rect x="-2.0" y="-2.0" width="4.1" height="4.1" fill="#58A6B8"/><animate attributeName="opacity" values="0.064;0.160;0.064" dur="6.1s" begin="4.3s" repeatCount="indefinite"/></g>
<g transform="translate(166.2,215.3) rotate(45)" opacity="0.090"><rect x="-1.3" y="-1.3" width="2.7" height="2.7" fill="#58A6B8"/><animate attributeName="opacity" values="0.090;0.225;0.090" dur="6.8s" begin="0.1s" repeatCount="indefinite"/></g>
<g transform="translate(617.0,326.0) rotate(45)" opacity="0.080"><rect x="-1.5" y="-1.5" width="3.1" height="3.1" fill="#58A6B8"/><animate attributeName="opacity" values="0.080;0.200;0.080" dur="7.1s" begin="0.8s" repeatCount="indefinite"/></g>
<g transform="translate(177.2,232.3) rotate(45)" opacity="0.042"><rect x="-1.6" y="-1.6" width="3.3" height="3.3" fill="#58A6B8"/><animate attributeName="opacity" values="0.042;0.105;0.042" dur="9.5s" begin="4.3s" repeatCount="indefinite"/></g>
<g transform="translate(288.6,76.9) rotate(45)" opacity="0.041"><rect x="-1.8" y="-1.8" width="3.7" height="3.7" fill="#58A6B8"/><animate attributeName="opacity" values="0.041;0.103;0.041" dur="7.4s" begin="4.2s" repeatCount="indefinite"/></g>
<g transform="translate(18,18) scale(1,1)"><path d="M0 25 L0 6 Q0 0 6 0 L25 0" fill="none" stroke="#58A6B8" stroke-width="1.3" opacity="0.35"/><circle cx="0" cy="0" r="1.8" fill="#58A6B8" opacity="0.4"/><path d="M0 12 L5 12" fill="none" stroke="#58A6B8" stroke-width="0.6" opacity="0.2"/><path d="M12 0 L12 5" fill="none" stroke="#58A6B8" stroke-width="0.6" opacity="0.2"/></g><g transform="translate(882,18) scale(-1,1)"><path d="M0 25 L0 6 Q0 0 6 0 L25 0" fill="none" stroke="#58A6B8" stroke-width="1.3" opacity="0.35"/><circle cx="0" cy="0" r="1.8" fill="#58A6B8" opacity="0.4"/><path d="M0 12 L5 12" fill="none" stroke="#58A6B8" stroke-width="0.6" opacity="0.2"/><path d="M12 0 L12 5" fill="none" stroke="#58A6B8" stroke-width="0.6" opacity="0.2"/></g><g transform="translate(18,522) scale(1,-1)"><path d="M0 25 L0 6 Q0 0 6 0 L25 0" fill="none" stroke="#58A6B8" stroke-width="1.3" opacity="0.35"/><circle cx="0" cy="0" r="1.8" fill="#58A6B8" opacity="0.4"/><path d="M0 12 L5 12" fill="none" stroke="#58A6B8" stroke-width="0.6" opacity="0.2"/><path d="M12 0 L12 5" fill="none" stroke="#58A6B8" stroke-width="0.6" opacity="0.2"/></g><g transform="translate(882,522) scale(-1,-1)"><path d="M0 25 L0 6 Q0 0 6 0 L25 0" fill="none" stroke="#58A6B8" stroke-width="1.3" opacity="0.35"/><circle cx="0" cy="0" r="1.8" fill="#58A6B8" opacity="0.4"/><path d="M0 12 L5 12" fill="none" stroke="#58A6B8" stroke-width="0.6" opacity="0.2"/><path d="M12 0 L12 5" fill="none" stroke="#58A6B8" stroke-width="0.6" opacity="0.2"/></g>
<rect x="10" y="10" width="880" height="520" rx="12" fill="none" stroke="url(#frameFade)" stroke-width="1"/>
<text x="450" y="50" text-anchor="middle" font-family="Georgia,'Palatino Linotype','Book Antiqua',Palatino,serif" font-size="22" font-weight="bold" fill="#e8f4f7" letter-spacing="8" filter="url(#glowMd)">✧ THE COMMIT COVEN ✧</text>
<line x1="310" y1="62" x2="590" y2="62" stroke="#58A6B8" stroke-width="0.5" opacity="0.25"/>
<g filter="url(#cardShadow)"><rect x="70" y="80" width="240" height="78" rx="10" fill="rgba(88,166,184,0.05)" stroke="rgba(88,166,184,0.22)" stroke-width="0.8"/><text x="190" y="110" text-anchor="middle" font-family="Georgia,'Palatino Linotype',serif" font-size="11" fill="#5a7a80" letter-spacing="3" text-transform="uppercase">HIGHEST HARVEST</text><text x="190" y="136" text-anchor="middle" font-family="Georgia,'Palatino Linotype',serif" font-size="20" fill="#e8f4f7" font-weight="bold" filter="url(#glowSm)">14 Offerings</text></g>
<g filter="url(#cardShadow)"><rect x="330" y="80" width="240" height="78" rx="10" fill="rgba(88,166,184,0.05)" stroke="rgba(88,166,184,0.22)" stroke-width="0.8"/><text x="450" y="110" text-anchor="middle" font-family="Georgia,'Palatino Linotype',serif" font-size="11" fill="#5a7a80" letter-spacing="3" text-transform="uppercase">CURRENT RITUAL</text><text x="450" y="136" text-anchor="middle" font-family="Georgia,'Palatino Linotype',serif" font-size="20" fill="#e8f4f7" font-weight="bold" filter="url(#glowSm)">3 Nights</text></g>
<g filter="url(#cardShadow)"><rect x="590" y="80" width="240" height="78" rx="10" fill="rgba(88,166,184,0.05)" stroke="rgba(88,166,184,0.22)" stroke-width="0.8"/><text x="710" y="110" text-anchor="middle" font-family="Georgia,'Palatino Linotype',serif" font-size="11" fill="#5a7a80" letter-spacing="3" text-transform="uppercase">TOTAL OFFERINGS</text><text x="710" y="136" text-anchor="middle" font-family="Georgia,'Palatino Linotype',serif" font-size="20" fill="#e8f4f7" font-weight="bold" filter="url(#glowSm)">847</text></g>
<text x="80" y="434.0" text-anchor="end" font-family="'Courier New',monospace" font-size="10" fill="#5a7a80">0</text>
<line x1="86" y1="430.0" x2="90" y2="430.0" stroke="#5a7a80" stroke-width="0.5"/>
<text x="80" y="390.0" text-anchor="end" font-family="'Courier New',monospace" font-size="10" fill="#5a7a80">3</text>
<line x1="86" y1="386.0" x2="90" y2="386.0" stroke="#5a7a80" stroke-width="0.5"/>
<text x="80" y="346.0" text-anchor="end" font-family="'Courier New',monospace" font-size="10" fill="#5a7a80">6</text>
<line x1="86" y1="342.0" x2="90" y2="342.0" stroke="#5a7a80" stroke-width="0.5"/>
<text x="80" y="302.0" text-anchor="end" font-family="'Courier New',monospace" font-size="10" fill="#5a7a80">9</text>
<line x1="86" y1="298.0" x2="90" y2="298.0" stroke="#5a7a80" stroke-width="0.5"/>
<text x="80" y="258.0" text-anchor="end" font-family="'Courier New',monospace" font-size="10" fill="#5a7a80">12</text>
<line x1="86" y1="254.0" x2="90" y2="254.0" stroke="#5a7a80" stroke-width="0.5"/>
<text x="80" y="214.0" text-anchor="end" font-family="'Courier New',monospace" font-size="10" fill="#5a7a80">15</text>
<line x1="86" y1="210.0" x2="90" y2="210.0" stroke="#5a7a80" stroke-width="0.5"/>
<text x="90.0" y="450" text-anchor="middle" font-family="'Courier New',monospace" font-size="10" fill="#5a7a80">24</text>
<text x="196.2" y="450" text-anchor="middle" font-family="'Courier New',monospace" font-size="10" fill="#5a7a80">28</text>
<text x="302.4" y="450" text-anchor="middle" font-family="'Courier New',monospace" font-size="10" fill="#5a7a80">1</text>
<text x="408.6" y="450" text-anchor="middle" font-family="'Courier New',monospace" font-size="10" fill="#5a7a80">5</text>
<text x="514.8" y="450" text-anchor="middle" font-family="'Courier New',monospace" font-size="10" fill="#5a7a80">9</text>
<text x="621.0" y="450" text-anchor="middle" font-family="'Courier New',monospace" font-size="10" fill="#5a7a80">13</text>
<text x="727.2" y="450" text-anchor="middle" font-family="'Courier New',monospace" font-size="10" fill="#5a7a80">17</text>
<text x="833.4" y="450" text-anchor="middle" font-family="'Courier New',monospace" font-size="10" fill="#5a7a80">21</text>
<text x="860.0" y="450" text-anchor="middle" font-family="'Courier New',monospace" font-size="10" fill="#5a7a80">22</text>
<line x1="90" y1="210" x2="90" y2="430" stroke="#58A6B8" stroke-width="0.5" opacity="0.2"/>
<line x1="90" y1="430" x2="860" y2="430" stroke="#58A6B8" stroke-width="0.5" opacity="0.2"/>
<path d="M90.0 400.7 C93.5 404.6,109.5 435.9,116.6 430.0 C123.6 424.1,136.0 362.5,143.1 356.7 C150.2 350.8,162.6 389.9,169.7 386.0 C176.7 382.1,189.1 323.4,196.2 327.3 C203.3 331.2,215.7 409.5,222.8 415.3 C229.8 421.2,242.2 385.0,249.3 371.3 C256.4 357.6,268.8 316.6,275.9 312.7 C282.9 308.8,295.3 332.2,302.4 342.0 C309.5 351.8,321.9 401.6,329.0 386.0 C336.0 370.4,348.4 222.7,355.5 224.7 C362.6 226.6,375.0 373.3,382.1 400.7 C389.1 428.0,401.5 428.0,408.6 430.0 C415.7 432.0,428.1 425.1,435.2 415.3 C442.3 405.6,454.6 372.3,461.7 356.7 C468.8 341.0,481.2 294.1,488.3 298.0 C495.4 301.9,507.7 368.4,514.8 386.0 C521.9 403.6,534.3 435.9,541.4 430.0 C548.5 424.1,560.9 363.5,567.9 342.0 C575.0 320.5,587.4 264.8,594.5 268.7 C601.6 272.6,614.0 353.7,621.0 371.3 C628.1 388.9,640.5 406.5,647.6 400.7 C654.7 394.8,667.1 329.3,674.1 327.3 C681.2 325.4,693.6 374.3,700.7 386.0 C707.8 397.7,720.2 425.1,727.2 415.3 C734.3 405.6,746.7 320.5,753.8 312.7 C760.9 304.8,773.3 341.0,780.3 356.7 C787.4 372.3,799.8 426.1,806.9 430.0 C814.0 433.9,826.4 397.7,833.4 386.0 C840.5 374.3,856.5 347.9,860.0 342.0 L860.0 430 L90.0 430 Z" fill="url(#areaFill)" opacity="0.9">
  <animate attributeName="opacity" values="0;0.9" dur="2s" fill="freeze"/>
</path>
<path d="M90.0 400.7 C93.5 404.6,109.5 435.9,116.6 430.0 C123.6 424.1,136.0 362.5,143.1 356.7 C150.2 350.8,162.6 389.9,169.7 386.0 C176.7 382.1,189.1 323.4,196.2 327.3 C203.3 331.2,215.7 409.5,222.8 415.3 C229.8 421.2,242.2 385.0,249.3 371.3 C256.4 357.6,268.8 316.6,275.9 312.7 C282.9 308.8,295.3 332.2,302.4 342.0 C309.5 351.8,321.9 401.6,329.0 386.0 C336.0 370.4,348.4 222.7,355.5 224.7 C362.6 226.6,375.0 373.3,382.1 400.7 C389.1 428.0,401.5 428.0,408.6 430.0 C415.7 432.0,428.1 425.1,435.2 415.3 C442.3 405.6,454.6 372.3,461.7 356.7 C468.8 341.0,481.2 294.1,488.3 298.0 C495.4 301.9,507.7 368.4,514.8 386.0 C521.9 403.6,534.3 435.9,541.4 430.0 C548.5 424.1,560.9 363.5,567.9 342.0 C575.0 320.5,587.4 264.8,594.5 268.7 C601.6 272.6,614.0 353.7,621.0 371.3 C628.1 388.9,640.5 406.5,647.6 400.7 C654.7 394.8,667.1 329.3,674.1 327.3 C681.2 325.4,693.6 374.3,700.7 386.0 C707.8 397.7,720.2 425.1,727.2 415.3 C734.3 405.6,746.7 320.5,753.8 312.7 C760.9 304.8,773.3 341.0,780.3 356.7 C787.4 372.3,799.8 426.1,806.9 430.0 C814.0 433.9,826.4 397.7,833.4 386.0 C840.5 374.3,856.5 347.9,860.0 342.0" fill="none" stroke="#58A6B8" stroke-width="4" opacity="0.15" filter="url(#glowLg)" stroke-linecap="round" stroke-linejoin="round"/>
<path d="M90.0 400.7 C93.5 404.6,109.5 435.9,116.6 430.0 C123.6 424.1,136.0 362.5,143.1 356.7 C150.2 350.8,162.6 389.9,169.7 386.0 C176.7 382.1,189.1 323.4,196.2 327.3 C203.3 331.2,215.7 409.5,222.8 415.3 C229.8 421.2,242.2 385.0,249.3 371.3 C256.4 357.6,268.8 316.6,275.9 312.7 C282.9 308.8,295.3 332.2,302.4 342.0 C309.5 351.8,321.9 401.6,329.0 386.0 C336.0 370.4,348.4 222.7,355.5 224.7 C362.6 226.6,375.0 373.3,382.1 400.7 C389.1 428.0,401.5 428.0,408.6 430.0 C415.7 432.0,428.1 425.1,435.2 415.3 C442.3 405.6,454.6 372.3,461.7 356.7 C468.8 341.0,481.2 294.1,488.3 298.0 C495.4 301.9,507.7 368.4,514.8 386.0 C521.9 403.6,534.3 435.9,541.4 430.0 C548.5 424.1,560.9 363.5,567.9 342.0 C575.0 320.5,587.4 264.8,594.5 268.7 C601.6 272.6,614.0 353.7,621.0 371.3 C628.1 388.9,640.5 406.5,647.6 400.7 C654.7 394.8,667.1 329.3,674.1 327.3 C681.2 325.4,693.6 374.3,700.7 386.0 C707.8 397.7,720.2 425.1,727.2 415.3 C734.3 405.6,746.7 320.5,753.8 312.7 C760.9 304.8,773.3 341.0,780.3 356.7 C787.4 372.3,799.8 426.1,806.9 430.0 C814.0 433.9,826.4 397.7,833.4 386.0 C840.5 374.3,856.5 347.9,860.0 342.0" fill="none" stroke="#58A6B8" stroke-width="2.2" stroke-linecap="round" stroke-linejoin="round" filter="url(#glowSm)" stroke-dasharray="2652" stroke-dashoffset="2652">
  <animate attributeName="stroke-dashoffset" from="2652" to="0" dur="2.5s" fill="freeze" calcMode="spline" keySplines="0.4 0 0.2 1"/>
  <animate attributeName="opacity" values="0.7;1;0.85;1" dur="6s" begin="2.5s" repeatCount="indefinite"/>
</path>
<circle cx="90.0" cy="400.7" r="2.7" fill="#58A6B8" stroke="#0d0d0d" stroke-width="1" filter="url(#glowSm)" opacity="0">
  <title>May 24
2 Contributions</title>
  <animate attributeName="opacity" from="0" to="1" dur="0.4s" begin="0.80s" fill="freeze"/>
  <animate attributeName="r" values="2.7;3.7;2.7" dur="4s" begin="1.20s" repeatCount="indefinite"/>
</circle>
<circle cx="116.6" cy="430.0" r="2.2" fill="#58A6B8" stroke="#0d0d0d" stroke-width="1" filter="url(#glowSm)" opacity="0">
  <title>May 25
0 Contributions</title>
  <animate attributeName="opacity" from="0" to="1" dur="0.4s" begin="0.86s" fill="freeze"/>
  <animate attributeName="r" values="2.2;3.2;2.2" dur="4s" begin="1.26s" repeatCount="indefinite"/>
</circle>
<circle cx="143.1" cy="356.7" r="3.5" fill="#58A6B8" stroke="#0d0d0d" stroke-width="1" filter="url(#glowSm)" opacity="0">
  <title>May 26
5 Contributions</title>
  <animate attributeName="opacity" from="0" to="1" dur="0.4s" begin="0.92s" fill="freeze"/>
  <animate attributeName="r" values="3.5;4.5;3.5" dur="4s" begin="1.32s" repeatCount="indefinite"/>
</circle>
<circle cx="169.7" cy="386.0" r="3.0" fill="#58A6B8" stroke="#0d0d0d" stroke-width="1" filter="url(#glowSm)" opacity="0">
  <title>May 27
3 Contributions</title>
  <animate attributeName="opacity" from="0" to="1" dur="0.4s" begin="0.98s" fill="freeze"/>
  <animate attributeName="r" values="3.0;4.0;3.0" dur="4s" begin="1.38s" repeatCount="indefinite"/>
</circle>
<circle cx="196.2" cy="327.3" r="4.0" fill="#58A6B8" stroke="#0d0d0d" stroke-width="1" filter="url(#glowSm)" opacity="0">
  <title>May 28
7 Contributions</title>
  <animate attributeName="opacity" from="0" to="1" dur="0.4s" begin="1.04s" fill="freeze"/>
  <animate attributeName="r" values="4.0;5.0;4.0" dur="4s" begin="1.44s" repeatCount="indefinite"/>
</circle>
<circle cx="222.8" cy="415.3" r="2.5" fill="#58A6B8" stroke="#0d0d0d" stroke-width="1" filter="url(#glowSm)" opacity="0">
  <title>May 29
1 Contribution</title>
  <animate attributeName="opacity" from="0" to="1" dur="0.4s" begin="1.10s" fill="freeze"/>
  <animate attributeName="r" values="2.5;3.5;2.5" dur="4s" begin="1.50s" repeatCount="indefinite"/>
</circle>
<circle cx="249.3" cy="371.3" r="3.2" fill="#58A6B8" stroke="#0d0d0d" stroke-width="1" filter="url(#glowSm)" opacity="0">
  <title>May 30
4 Contributions</title>
  <animate attributeName="opacity" from="0" to="1" dur="0.4s" begin="1.16s" fill="freeze"/>
  <animate attributeName="r" values="3.2;4.2;3.2" dur="4s" begin="1.56s" repeatCount="indefinite"/>
</circle>
<circle cx="275.9" cy="312.7" r="4.2" fill="#58A6B8" stroke="#0d0d0d" stroke-width="1" filter="url(#glowSm)" opacity="0">
  <title>May 31
8 Contributions</title>
  <animate attributeName="opacity" from="0" to="1" dur="0.4s" begin="1.22s" fill="freeze"/>
  <animate attributeName="r" values="4.2;5.2;4.2" dur="4s" begin="1.62s" repeatCount="indefinite"/>
</circle>
<circle cx="302.4" cy="342.0" r="3.7" fill="#58A6B8" stroke="#0d0d0d" stroke-width="1" filter="url(#glowSm)" opacity="0">
  <title>Jun 1
6 Contributions</title>
  <animate attributeName="opacity" from="0" to="1" dur="0.4s" begin="1.28s" fill="freeze"/>
  <animate attributeName="r" values="3.7;4.7;3.7" dur="4s" begin="1.68s" repeatCount="indefinite"/>
</circle>
<circle cx="329.0" cy="386.0" r="3.0" fill="#58A6B8" stroke="#0d0d0d" stroke-width="1" filter="url(#glowSm)" opacity="0">
  <title>Jun 2
3 Contributions</title>
  <animate attributeName="opacity" from="0" to="1" dur="0.4s" begin="1.34s" fill="freeze"/>
  <animate attributeName="r" values="3.0;4.0;3.0" dur="4s" begin="1.74s" repeatCount="indefinite"/>
</circle>
<circle cx="355.5" cy="224.7" r="18" fill="url(#haloGrad)" opacity="0">
  <animate attributeName="opacity" values="0;0.6;0.3;0.6" dur="4s" begin="1.40s" repeatCount="indefinite"/>
  <animate attributeName="r" values="14;22;14" dur="4s" begin="1.40s" repeatCount="indefinite"/>
</circle>
<circle cx="355.5" cy="224.7" r="7.2" fill="#e8f4f7" stroke="#0d0d0d" stroke-width="1" filter="url(#glowMd)" opacity="0">
  <title>Jun 3
14 Contributions</title>
  <animate attributeName="opacity" from="0" to="1" dur="0.4s" begin="1.40s" fill="freeze"/>
  <animate attributeName="r" values="7.2;9.2;7.2" dur="3s" begin="1.80s" repeatCount="indefinite"/>
</circle>
<circle cx="382.1" cy="400.7" r="2.7" fill="#58A6B8" stroke="#0d0d0d" stroke-width="1" filter="url(#glowSm)" opacity="0">
  <title>Jun 4
2 Contributions</title>
  <animate attributeName="opacity" from="0" to="1" dur="0.4s" begin="1.46s" fill="freeze"/>
  <animate attributeName="r" values="2.7;3.7;2.7" dur="4s" begin="1.86s" repeatCount="indefinite"/>
</circle>
<circle cx="408.6" cy="430.0" r="2.2" fill="#58A6B8" stroke="#0d0d0d" stroke-width="1" filter="url(#glowSm)" opacity="0">
  <title>Jun 5
0 Contributions</title>
  <animate attributeName="opacity" from="0" to="1" dur="0.4s" begin="1.52s" fill="freeze"/>
  <animate attributeName="r" values="2.2;3.2;2.2" dur="4s" begin="1.92s" repeatCount="indefinite"/>
</circle>
<circle cx="435.2" cy="415.3" r="2.5" fill="#58A6B8" stroke="#0d0d0d" stroke-width="1" filter="url(#glowSm)" opacity="0">
  <title>Jun 6
1 Contribution</title>
  <animate attributeName="opacity" from="0" to="1" dur="0.4s" begin="1.58s" fill="freeze"/>
  <animate attributeName="r" values="2.5;3.5;2.5" dur="4s" begin="1.98s" repeatCount="indefinite"/>
</circle>
<circle cx="461.7" cy="356.7" r="3.5" fill="#58A6B8" stroke="#0d0d0d" stroke-width="1" filter="url(#glowSm)" opacity="0">
  <title>Jun 7
5 Contributions</title>
  <animate attributeName="opacity" from="0" to="1" dur="0.4s" begin="1.64s" fill="freeze"/>
  <animate attributeName="r" values="3.5;4.5;3.5" dur="4s" begin="2.04s" repeatCount="indefinite"/>
</circle>
<circle cx="488.3" cy="298.0" r="4.5" fill="#58A6B8" stroke="#0d0d0d" stroke-width="1" filter="url(#glowSm)" opacity="0">
  <title>Jun 8
9 Contributions</title>
  <animate attributeName="opacity" from="0" to="1" dur="0.4s" begin="1.70s" fill="freeze"/>
  <animate attributeName="r" values="4.5;5.5;4.5" dur="4s" begin="2.10s" repeatCount="indefinite"/>
</circle>
<circle cx="514.8" cy="386.0" r="3.0" fill="#58A6B8" stroke="#0d0d0d" stroke-width="1" filter="url(#glowSm)" opacity="0">
  <title>Jun 9
3 Contributions</title>
  <animate attributeName="opacity" from="0" to="1" dur="0.4s" begin="1.76s" fill="freeze"/>
  <animate attributeName="r" values="3.0;4.0;3.0" dur="4s" begin="2.16s" repeatCount="indefinite"/>
</circle>
<circle cx="541.4" cy="430.0" r="2.2" fill="#58A6B8" stroke="#0d0d0d" stroke-width="1" filter="url(#glowSm)" opacity="0">
  <title>Jun 10
0 Contributions</title>
  <animate attributeName="opacity" from="0" to="1" dur="0.4s" begin="1.82s" fill="freeze"/>
  <animate attributeName="r" values="2.2;3.2;2.2" dur="4s" begin="2.22s" repeatCount="indefinite"/>
</circle>
<circle cx="567.9" cy="342.0" r="3.7" fill="#58A6B8" stroke="#0d0d0d" stroke-width="1" filter="url(#glowSm)" opacity="0">
  <title>Jun 11
6 Contributions</title>
  <animate attributeName="opacity" from="0" to="1" dur="0.4s" begin="1.88s" fill="freeze"/>
  <animate attributeName="r" values="3.7;4.7;3.7" dur="4s" begin="2.28s" repeatCount="indefinite"/>
</circle>
<circle cx="594.5" cy="268.7" r="5.0" fill="#58A6B8" stroke="#0d0d0d" stroke-width="1" filter="url(#glowSm)" opacity="0">
  <title>Jun 12
11 Contributions</title>
  <animate attributeName="opacity" from="0" to="1" dur="0.4s" begin="1.94s" fill="freeze"/>
  <animate attributeName="r" values="5.0;6.0;5.0" dur="4s" begin="2.34s" repeatCount="indefinite"/>
</circle>
<circle cx="621.0" cy="371.3" r="3.2" fill="#58A6B8" stroke="#0d0d0d" stroke-width="1" filter="url(#glowSm)" opacity="0">
  <title>Jun 13
4 Contributions</title>
  <animate attributeName="opacity" from="0" to="1" dur="0.4s" begin="2.00s" fill="freeze"/>
  <animate attributeName="r" values="3.2;4.2;3.2" dur="4s" begin="2.40s" repeatCount="indefinite"/>
</circle>
<circle cx="647.6" cy="400.7" r="2.7" fill="#58A6B8" stroke="#0d0d0d" stroke-width="1" filter="url(#glowSm)" opacity="0">
  <title>Jun 14
2 Contributions</title>
  <animate attributeName="opacity" from="0" to="1" dur="0.4s" begin="2.06s" fill="freeze"/>
  <animate attributeName="r" values="2.7;3.7;2.7" dur="4s" begin="2.46s" repeatCount="indefinite"/>
</circle>
<circle cx="674.1" cy="327.3" r="4.0" fill="#58A6B8" stroke="#0d0d0d" stroke-width="1" filter="url(#glowSm)" opacity="0">
  <title>Jun 15
7 Contributions</title>
  <animate attributeName="opacity" from="0" to="1" dur="0.4s" begin="2.12s" fill="freeze"/>
  <animate attributeName="r" values="4.0;5.0;4.0" dur="4s" begin="2.52s" repeatCount="indefinite"/>
</circle>
<circle cx="700.7" cy="386.0" r="3.0" fill="#58A6B8" stroke="#0d0d0d" stroke-width="1" filter="url(#glowSm)" opacity="0">
  <title>Jun 16
3 Contributions</title>
  <animate attributeName="opacity" from="0" to="1" dur="0.4s" begin="2.18s" fill="freeze"/>
  <animate attributeName="r" values="3.0;4.0;3.0" dur="4s" begin="2.58s" repeatCount="indefinite"/>
</circle>
<circle cx="727.2" cy="415.3" r="2.5" fill="#58A6B8" stroke="#0d0d0d" stroke-width="1" filter="url(#glowSm)" opacity="0">
  <title>Jun 17
1 Contribution</title>
  <animate attributeName="opacity" from="0" to="1" dur="0.4s" begin="2.24s" fill="freeze"/>
  <animate attributeName="r" values="2.5;3.5;2.5" dur="4s" begin="2.64s" repeatCount="indefinite"/>
</circle>
<circle cx="753.8" cy="312.7" r="4.2" fill="#58A6B8" stroke="#0d0d0d" stroke-width="1" filter="url(#glowSm)" opacity="0">
  <title>Jun 18
8 Contributions</title>
  <animate attributeName="opacity" from="0" to="1" dur="0.4s" begin="2.30s" fill="freeze"/>
  <animate attributeName="r" values="4.2;5.2;4.2" dur="4s" begin="2.70s" repeatCount="indefinite"/>
</circle>
<circle cx="780.3" cy="356.7" r="3.5" fill="#58A6B8" stroke="#0d0d0d" stroke-width="1" filter="url(#glowSm)" opacity="0">
  <title>Jun 19
5 Contributions</title>
  <animate attributeName="opacity" from="0" to="1" dur="0.4s" begin="2.36s" fill="freeze"/>
  <animate attributeName="r" values="3.5;4.5;3.5" dur="4s" begin="2.76s" repeatCount="indefinite"/>
</circle>
<circle cx="806.9" cy="430.0" r="2.2" fill="#58A6B8" stroke="#0d0d0d" stroke-width="1" filter="url(#glowSm)" opacity="0">
  <title>Jun 20
0 Contributions</title>
  <animate attributeName="opacity" from="0" to="1" dur="0.4s" begin="2.42s" fill="freeze"/>
  <animate attributeName="r" values="2.2;3.2;2.2" dur="4s" begin="2.82s" repeatCount="indefinite"/>
</circle>
<circle cx="833.4" cy="386.0" r="3.0" fill="#58A6B8" stroke="#0d0d0d" stroke-width="1" filter="url(#glowSm)" opacity="0">
  <title>Jun 21
3 Contributions</title>
  <animate attributeName="opacity" from="0" to="1" dur="0.4s" begin="2.48s" fill="freeze"/>
  <animate attributeName="r" values="3.0;4.0;3.0" dur="4s" begin="2.88s" repeatCount="indefinite"/>
</circle>
<circle cx="860.0" cy="342.0" r="3.7" fill="#58A6B8" stroke="#0d0d0d" stroke-width="1" filter="url(#glowSm)" opacity="0">
  <title>Jun 22
6 Contributions</title>
  <animate attributeName="opacity" from="0" to="1" dur="0.4s" begin="2.54s" fill="freeze"/>
  <animate attributeName="r" values="3.7;4.7;3.7" dur="4s" begin="2.94s" repeatCount="indefinite"/>
</circle>
<text x="90" y="466" text-anchor="start" font-family="Georgia,'Palatino Linotype',serif" font-size="10" fill="#5a7a80" letter-spacing="1.5">MAY</text>
<text x="860" y="466" text-anchor="end" font-family="Georgia,'Palatino Linotype',serif" font-size="10" fill="#5a7a80" letter-spacing="1.5">JUN</text>
<text x="450" y="522" text-anchor="middle" font-family="Georgia,'Palatino Linotype',serif" font-size="9" fill="#5a7a80" letter-spacing="4" opacity="0.5">LAST 30 DAYS OF DARK RITUALS</text>
</svg>