<svg xmlns="http://www.w3.org/2000/svg" viewBox="0 0 900 540" width="900" height="540">
<defs>
  <!-- Gradients -->
  <linearGradient id="areaFill" x1="0" y1="0" x2="0" y2="1">
    <stop offset="0%" stop-color="#58A6B8" stop-opacity="0.28"/>
    <stop offset="85%" stop-color="#58A6B8" stop-opacity="0.03"/>
    <stop offset="100%" stop-color="#58A6B8" stop-opacity="0"/>
  </linearGradient>
  <radialGradient id="haloGrad" cx="50%" cy="50%" r="50%">
    <stop offset="0%" stop-color="#58A6B8" stop-opacity="0.5"/>
    <stop offset="100%" stop-color="#58A6B8" stop-opacity="0"/>
  </radialGradient>
  <linearGradient id="frameFade" x1="0" y1="0" x2="1" y2="1">
    <stop offset="0%" stop-color="#58A6B8" stop-opacity="0.35"/>
    <stop offset="50%" stop-color="#58A6B8" stop-opacity="0.12"/>
    <stop offset="100%" stop-color="#58A6B8" stop-opacity="0.35"/>
  </linearGradient>
  <!-- Filters -->
  <filter id="glowSm" x="-50%" y="-50%" width="200%" height="200%">
    <feGaussianBlur stdDeviation="2.5" result="b"/><feMerge><feMergeNode in="b"/><feMergeNode in="SourceGraphic"/></feMerge>
  </filter>
  <filter id="glowMd" x="-50%" y="-50%" width="200%" height="200%">
    <feGaussianBlur stdDeviation="5" result="b"/><feMerge><feMergeNode in="b"/><feMergeNode in="SourceGraphic"/></feMerge>
  </filter>
  <filter id="glowLg" x="-80%" y="-80%" width="260%" height="260%">
    <feGaussianBlur stdDeviation="10" result="b"/><feMerge><feMergeNode in="b"/><feMergeNode in="SourceGraphic"/></feMerge>
  </filter>
  <filter id="cardShadow" x="-10%" y="-10%" width="120%" height="130%">
    <feGaussianBlur stdDeviation="6" result="b"/><feFlood flood-color="#58A6B8" flood-opacity="0.08" result="c"/>
    <feComposite in="c" in2="b" operator="in" result="s"/><feMerge><feMergeNode in="s"/><feMergeNode in="SourceGraphic"/></feMerge>
  </filter>
</defs>

<!-- Background -->
<rect width="900" height="540" fill="#0d0d0d" rx="16"/>
<line x1="90" y1="210.0" x2="860" y2="210.0" stroke="rgba(88,166,184,0.055)" stroke-width="0.7"/>
<line x1="90" y1="246.7" x2="860" y2="246.7" stroke="rgba(88,166,184,0.055)" stroke-width="0.7"/>
<line x1="90" y1="283.3" x2="860" y2="283.3" stroke="rgba(88,166,184,0.055)" stroke-width="0.7"/>
<line x1="90" y1="320.0" x2="860" y2="320.0" stroke="rgba(88,166,184,0.055)" stroke-width="0.7"/>
<line x1="90" y1="356.7" x2="860" y2="356.7" stroke="rgba(88,166,184,0.055)" stroke-width="0.7"/>
<line x1="90" y1="393.3" x2="860" y2="393.3" stroke="rgba(88,166,184,0.055)" stroke-width="0.7"/>
<line x1="90" y1="430.0" x2="860" y2="430.0" stroke="rgba(88,166,184,0.055)" stroke-width="0.7"/>
<line x1="90.0" y1="210" x2="90.0" y2="430" stroke="rgba(88,166,184,0.055)" stroke-width="0.5"/>
<line x1="222.8" y1="210" x2="222.8" y2="430" stroke="rgba(88,166,184,0.055)" stroke-width="0.5"/>
<line x1="355.5" y1="210" x2="355.5" y2="430" stroke="rgba(88,166,184,0.055)" stroke-width="0.5"/>
<line x1="488.3" y1="210" x2="488.3" y2="430" stroke="rgba(88,166,184,0.055)" stroke-width="0.5"/>
<line x1="621.0" y1="210" x2="621.0" y2="430" stroke="rgba(88,166,184,0.055)" stroke-width="0.5"/>
<line x1="753.8" y1="210" x2="753.8" y2="430" stroke="rgba(88,166,184,0.055)" stroke-width="0.5"/>
<circle cx="234.1" cy="241.3" r="0.8" fill="#58A6B8" opacity="0.063"><animate attributeName="opacity" values="0.063;0.139;0.063" dur="7.2s" begin="3.2s" repeatCount="indefinite"/></circle>
<circle cx="337.0" cy="191.0" r="0.7" fill="#58A6B8" opacity="0.143"><animate attributeName="opacity" values="0.143;0.315;0.143" dur="6.0s" begin="0.3s" repeatCount="indefinite"/></circle>
<circle cx="179.1" cy="518.4" r="1.3" fill="#58A6B8" opacity="0.136"><animate attributeName="opacity" values="0.136;0.299;0.136" dur="7.3s" begin="1.2s" repeatCount="indefinite"/></circle>
<circle cx="13.1" cy="43.0" r="0.6" fill="#58A6B8" opacity="0.104"><animate attributeName="opacity" values="0.104;0.229;0.104" dur="6.7s" begin="4.0s" repeatCount="indefinite"/></circle>
<circle cx="790.1" cy="215.0" r="0.7" fill="#58A6B8" opacity="0.115"><animate attributeName="opacity" values="0.115;0.253;0.115" dur="4.7s" begin="3.9s" repeatCount="indefinite"/></circle>
<circle cx="124.1" cy="170.0" r="1.4" fill="#58A6B8" opacity="0.096"><animate attributeName="opacity" values="0.096;0.211;0.096" dur="8.2s" begin="0.8s" repeatCount="indefinite"/></circle>
<circle cx="661.7" cy="519.5" r="1.4" fill="#58A6B8" opacity="0.136"><animate attributeName="opacity" values="0.136;0.299;0.136" dur="5.8s" begin="1.3s" repeatCount="indefinite"/></circle>
<circle cx="38.4" cy="141.7" r="0.8" fill="#58A6B8" opacity="0.152"><animate attributeName="opacity" values="0.152;0.334;0.152" dur="6.2s" begin="4.5s" repeatCount="indefinite"/></circle>
<circle cx="140.3" cy="285.5" r="1.0" fill="#58A6B8" opacity="0.078"><animate attributeName="opacity" values="0.078;0.172;0.078" dur="6.1s" begin="2.3s" repeatCount="indefinite"/></circle>
<circle cx="541.1" cy="339.0" r="1.1" fill="#58A6B8" opacity="0.077"><animate attributeName="opacity" values="0.077;0.169;0.077" dur="5.5s" begin="4.6s" repeatCount="indefinite"/></circle>
<circle cx="376.4" cy="529.3" r="1.4" fill="#58A6B8" opacity="0.102"><animate attributeName="opacity" values="0.102;0.224;0.102" dur="5.3s" begin="3.7s" repeatCount="indefinite"/></circle>
<circle cx="459.0" cy="74.1" r="0.4" fill="#58A6B8" opacity="0.061"><animate attributeName="opacity" values="0.061;0.134;0.061" dur="7.2s" begin="4.5s" repeatCount="indefinite"/></circle>
<circle cx="697.6" cy="533.3" r="0.7" fill="#58A6B8" opacity="0.046"><animate attributeName="opacity" values="0.046;0.101;0.046" dur="5.1s" begin="1.1s" repeatCount="indefinite"/></circle>
<circle cx="523.3" cy="145.2" r="0.5" fill="#58A6B8" opacity="0.054"><animate attributeName="opacity" values="0.054;0.119;0.054" dur="7.5s" begin="0.9s" repeatCount="indefinite"/></circle>
<circle cx="446.8" cy="524.1" r="0.7" fill="#58A6B8" opacity="0.075"><animate attributeName="opacity" values="0.075;0.165;0.075" dur="6.3s" begin="4.4s" repeatCount="indefinite"/></circle>
<circle cx="630.7" cy="339.4" r="0.7" fill="#58A6B8" opacity="0.047"><animate attributeName="opacity" values="0.047;0.103;0.047" dur="7.7s" begin="0.9s" repeatCount="indefinite"/></circle>
<circle cx="865.6" cy="181.6" r="0.9" fill="#58A6B8" opacity="0.126"><animate attributeName="opacity" values="0.126;0.277;0.126" dur="7.7s" begin="5.7s" repeatCount="indefinite"/></circle>
<circle cx="487.6" cy="278.4" r="0.9" fill="#58A6B8" opacity="0.079"><animate attributeName="opacity" values="0.079;0.174;0.079" dur="5.4s" begin="4.2s" repeatCount="indefinite"/></circle>
<circle cx="861.5" cy="95.6" r="0.7" fill="#58A6B8" opacity="0.055"><animate attributeName="opacity" values="0.055;0.121;0.055" dur="7.3s" begin="1.7s" repeatCount="indefinite"/></circle>
<circle cx="111.5" cy="467.3" r="0.7" fill="#58A6B8" opacity="0.097"><animate attributeName="opacity" values="0.097;0.213;0.097" dur="6.0s" begin="0.6s" repeatCount="indefinite"/></circle>
<circle cx="631.1" cy="128.5" r="1.2" fill="#58A6B8" opacity="0.135"><animate attributeName="opacity" values="0.135;0.297;0.135" dur="5.5s" begin="2.1s" repeatCount="indefinite"/></circle>
<circle cx="873.8" cy="181.7" r="1.0" fill="#58A6B8" opacity="0.082"><animate attributeName="opacity" values="0.082;0.180;0.082" dur="6.5s" begin="3.2s" repeatCount="indefinite"/></circle>
<circle cx="22.7" cy="325.4" r="0.8" fill="#58A6B8" opacity="0.098"><animate attributeName="opacity" values="0.098;0.216;0.098" dur="7.5s" begin="5.1s" repeatCount="indefinite"/></circle>
<circle cx="828.9" cy="418.3" r="0.9" fill="#58A6B8" opacity="0.143"><animate attributeName="opacity" values="0.143;0.315;0.143" dur="5.1s" begin="6.0s" repeatCount="indefinite"/></circle>
<circle cx="279.2" cy="275.9" r="0.6" fill="#58A6B8" opacity="0.103"><animate attributeName="opacity" values="0.103;0.227;0.103" dur="3.7s" begin="4.9s" repeatCount="indefinite"/></circle>
<circle cx="648.9" cy="252.8" r="1.2" fill="#58A6B8" opacity="0.129"><animate attributeName="opacity" values="0.129;0.284;0.129" dur="4.5s" begin="3.7s" repeatCount="indefinite"/></circle>
<circle cx="100.3" cy="475.3" r="0.8" fill="#58A6B8" opacity="0.057"><animate attributeName="opacity" values="0.057;0.125;0.057" dur="7.9s" begin="1.0s" repeatCount="indefinite"/></circle>
<circle cx="734.5" cy="217.8" r="1.0" fill="#58A6B8" opacity="0.109"><animate attributeName="opacity" values="0.109;0.240;0.109" dur="7.3s" begin="1.9s" repeatCount="indefinite"/></circle>
<circle cx="504.1" cy="291.3" r="1.1" fill="#58A6B8" opacity="0.080"><animate attributeName="opacity" values="0.080;0.176;0.080" dur="4.6s" begin="3.5s" repeatCount="indefinite"/></circle>
<circle cx="202.3" cy="268.5" r="0.9" fill="#58A6B8" opacity="0.119"><animate attributeName="opacity" values="0.119;0.262;0.119" dur="7.2s" begin="4.3s" repeatCount="indefinite"/></circle>
<circle cx="613.2" cy="246.1" r="1.0" fill="#58A6B8" opacity="0.081"><animate attributeName="opacity" values="0.081;0.178;0.081" dur="6.4s" begin="1.2s" repeatCount="indefinite"/></circle>
<circle cx="382.4" cy="171.4" r="1.2" fill="#58A6B8" opacity="0.076"><animate attributeName="opacity" values="0.076;0.167;0.076" dur="6.1s" begin="3.0s" repeatCount="indefinite"/></circle>
<circle cx="140.4" cy="376.6" r="0.8" fill="#58A6B8" opacity="0.053"><animate attributeName="opacity" values="0.053;0.117;0.053" dur="8.3s" begin="4.4s" repeatCount="indefinite"/></circle>
<circle cx="809.1" cy="325.2" r="1.0" fill="#58A6B8" opacity="0.152"><animate attributeName="opacity" values="0.152;0.334;0.152" dur="8.5s" begin="3.6s" repeatCount="indefinite"/></circle>
<circle cx="495.3" cy="184.3" r="0.8" fill="#58A6B8" opacity="0.070"><animate attributeName="opacity" values="0.070;0.154;0.070" dur="4.8s" begin="4.4s" repeatCount="indefinite"/></circle>
<circle cx="13.8" cy="39.3" r="0.3" fill="#58A6B8" opacity="0.149"><animate attributeName="opacity" values="0.149;0.328;0.149" dur="7.1s" begin="1.9s" repeatCount="indefinite"/></circle>
<circle cx="400.0" cy="278.2" r="1.1" fill="#58A6B8" opacity="0.141"><animate attributeName="opacity" values="0.141;0.310;0.141" dur="4.2s" begin="2.9s" repeatCount="indefinite"/></circle>
<circle cx="69.6" cy="295.6" r="1.1" fill="#58A6B8" opacity="0.074"><animate attributeName="opacity" values="0.074;0.163;0.074" dur="4.4s" begin="0.0s" repeatCount="indefinite"/></circle>
<circle cx="272.9" cy="19.3" r="1.2" fill="#58A6B8" opacity="0.070"><animate attributeName="opacity" values="0.070;0.154;0.070" dur="8.2s" begin="2.0s" repeatCount="indefinite"/></circle>
<circle cx="219.9" cy="44.1" r="1.4" fill="#58A6B8" opacity="0.130"><animate attributeName="opacity" values="0.130;0.286;0.130" dur="6.2s" begin="5.5s" repeatCount="indefinite"/></circle>
<circle cx="421.8" cy="207.1" r="1.1" fill="#58A6B8" opacity="0.092"><animate attributeName="opacity" values="0.092;0.202;0.092" dur="6.3s" begin="5.7s" repeatCount="indefinite"/></circle>
<circle cx="586.6" cy="327.0" r="0.7" fill="#58A6B8" opacity="0.129"><animate attributeName="opacity" values="0.129;0.284;0.129" dur="6.4s" begin="2.4s" repeatCount="indefinite"/></circle>
<circle cx="258.9" cy="58.8" r="1.2" fill="#58A6B8" opacity="0.115"><animate attributeName="opacity" values="0.115;0.253;0.115" dur="5.4s" begin="0.7s" repeatCount="indefinite"/></circle>
<circle cx="160.6" cy="467.5" r="1.1" fill="#58A6B8" opacity="0.058"><animate attributeName="opacity" values="0.058;0.128;0.058" dur="4.3s" begin="5.9s" repeatCount="indefinite"/></circle>
<circle cx="16.1" cy="370.4" r="0.6" fill="#58A6B8" opacity="0.141"><animate attributeName="opacity" values="0.141;0.310;0.141" dur="5.5s" begin="3.7s" repeatCount="indefinite"/></circle>
<circle cx="102.6" cy="67.9" r="0.4" fill="#58A6B8" opacity="0.064"><animate attributeName="opacity" values="0.064;0.141;0.064" dur="6.6s" begin="5.1s" repeatCount="indefinite"/></circle>
<circle cx="322.9" cy="278.1" r="1.0" fill="#58A6B8" opacity="0.095"><animate attributeName="opacity" values="0.095;0.209;0.095" dur="6.2s" begin="1.8s" repeatCount="indefinite"/></circle>
<circle cx="125.7" cy="68.9" r="0.9" fill="#58A6B8" opacity="0.051"><animate attributeName="opacity" values="0.051;0.112;0.051" dur="7.1s" begin="4.7s" repeatCount="indefinite"/></circle>
<circle cx="98.6" cy="274.5" r="1.0" fill="#58A6B8" opacity="0.044"><animate attributeName="opacity" values="0.044;0.097;0.044" dur="8.1s" begin="1.8s" repeatCount="indefinite"/></circle>
<circle cx="714.7" cy="48.6" r="1.0" fill="#58A6B8" opacity="0.102"><animate attributeName="opacity" values="0.102;0.224;0.102" dur="5.3s" begin="2.0s" repeatCount="indefinite"/></circle>
<circle cx="547.6" cy="459.8" r="0.6" fill="#58A6B8" opacity="0.100"><animate attributeName="opacity" values="0.100;0.220;0.100" dur="5.8s" begin="1.7s" repeatCount="indefinite"/></circle>
<circle cx="676.8" cy="349.8" r="1.0" fill="#58A6B8" opacity="0.160"><animate attributeName="opacity" values="0.160;0.352;0.160" dur="6.0s" begin="5.1s" repeatCount="indefinite"/></circle>
<circle cx="32.2" cy="314.1" r="0.9" fill="#58A6B8" opacity="0.072"><animate attributeName="opacity" values="0.072;0.158;0.072" dur="8.4s" begin="1.8s" repeatCount="indefinite"/></circle>
<circle cx="339.8" cy="472.8" r="1.2" fill="#58A6B8" opacity="0.054"><animate attributeName="opacity" values="0.054;0.119;0.054" dur="4.1s" begin="3.2s" repeatCount="indefinite"/></circle>
<circle cx="672.5" cy="413.0" r="0.6" fill="#58A6B8" opacity="0.097"><animate attributeName="opacity" values="0.097;0.213;0.097" dur="4.1s" begin="0.7s" repeatCount="indefinite"/></circle>
<g transform="translate(509.7,422.3) rotate(45)" opacity="0.061"><rect x="-1.4" y="-1.4" width="2.8" height="2.8" fill="#58A6B8"/><animate attributeName="opacity" values="0.061;0.152;0.061" dur="9.0s" begin="2.1s" repeatCount="indefinite"/></g>
<g transform="translate(253.4,177.2) rotate(45)" opacity="0.056"><rect x="-1.9" y="-1.9" width="3.7" height="3.7" fill="#58A6B8"/><animate attributeName="opacity" values="0.056;0.140;0.056" dur="6.5s" begin="2.5s" repeatCount="indefinite"/></g>
<g transform="translate(49.3,141.9) rotate(45)" opacity="0.044"><rect x="-1.6" y="-1.6" width="3.2" height="3.2" fill="#58A6B8"/><animate attributeName="opacity" values="0.044;0.110;0.044" dur="7.2s" begin="0.6s" repeatCount="indefinite"/></g>
<g transform="translate(830.2,342.5) rotate(45)" opacity="0.059"><rect x="-1.6" y="-1.6" width="3.1" height="3.1" fill="#58A6B8"/><animate attributeName="opacity" values="0.059;0.147;0.059" dur="7.8s" begin="1.4s" repeatCount="indefinite"/></g>
<g transform="translate(746.6,484.8) rotate(45)" opacity="0.054"><rect x="-1.5" y="-1.5" width="3.0" height="3.0" fill="#58A6B8"/><animate attributeName="opacity" values="0.054;0.135;0.054" dur="7.2s" begin="2.0s" repeatCount="indefinite"/></g>
<g transform="translate(407.8,444.6) rotate(45)" opacity="0.065"><rect x="-1.4" y="-1.4" width="2.7" height="2.7" fill="#58A6B8"/><animate attributeName="opacity" values="0.065;0.163;0.065" dur="6.8s" begin="0.8s" repeatCount="indefinite"/></g>
<g transform="translate(467.6,244.6) rotate(45)" opacity="0.091"><rect x="-1.7" y="-1.7" width="3.4" height="3.4" fill="#58A6B8"/><animate attributeName="opacity" values="0.091;0.227;0.091" dur="7.5s" begin="4.1s" repeatCount="indefinite"/></g>
<g transform="translate(606.1,187.1) rotate(45)" opacity="0.045"><rect x="-1.5" y="-1.5" width="3.0" height="3.0" fill="#58A6B8"/><animate attributeName="opacity" values="0.045;0.112;0.045" dur="7.2s" begin="4.8s" repeatCount="indefinite"/></g>
<g transform="translate(18,18) scale(1,1)"><path d="M0 25 L0 6 Q0 0 6 0 L25 0" fill="none" stroke="#58A6B8" stroke-width="1.3" opacity="0.35"/><circle cx="0" cy="0" r="1.8" fill="#58A6B8" opacity="0.4"/><path d="M0 12 L5 12" fill="none" stroke="#58A6B8" stroke-width="0.6" opacity="0.2"/><path d="M12 0 L12 5" fill="none" stroke="#58A6B8" stroke-width="0.6" opacity="0.2"/></g><g transform="translate(882,18) scale(-1,1)"><path d="M0 25 L0 6 Q0 0 6 0 L25 0" fill="none" stroke="#58A6B8" stroke-width="1.3" opacity="0.35"/><circle cx="0" cy="0" r="1.8" fill="#58A6B8" opacity="0.4"/><path d="M0 12 L5 12" fill="none" stroke="#58A6B8" stroke-width="0.6" opacity="0.2"/><path d="M12 0 L12 5" fill="none" stroke="#58A6B8" stroke-width="0.6" opacity="0.2"/></g><g transform="translate(18,522) scale(1,-1)"><path d="M0 25 L0 6 Q0 0 6 0 L25 0" fill="none" stroke="#58A6B8" stroke-width="1.3" opacity="0.35"/><circle cx="0" cy="0" r="1.8" fill="#58A6B8" opacity="0.4"/><path d="M0 12 L5 12" fill="none" stroke="#58A6B8" stroke-width="0.6" opacity="0.2"/><path d="M12 0 L12 5" fill="none" stroke="#58A6B8" stroke-width="0.6" opacity="0.2"/></g><g transform="translate(882,522) scale(-1,-1)"><path d="M0 25 L0 6 Q0 0 6 0 L25 0" fill="none" stroke="#58A6B8" stroke-width="1.3" opacity="0.35"/><circle cx="0" cy="0" r="1.8" fill="#58A6B8" opacity="0.4"/><path d="M0 12 L5 12" fill="none" stroke="#58A6B8" stroke-width="0.6" opacity="0.2"/><path d="M12 0 L12 5" fill="none" stroke="#58A6B8" stroke-width="0.6" opacity="0.2"/></g>
<rect x="10" y="10" width="880" height="520" rx="12" fill="none" stroke="url(#frameFade)" stroke-width="1"/>
<text x="450" y="50" text-anchor="middle" font-family="Georgia,'Palatino Linotype','Book Antiqua',Palatino,serif" font-size="22" font-weight="bold" fill="#e8f4f7" letter-spacing="8" filter="url(#glowMd)">✧ THE COMMIT COVEN ✧</text>
<line x1="310" y1="62" x2="590" y2="62" stroke="#58A6B8" stroke-width="0.5" opacity="0.25"/>
<g filter="url(#cardShadow)"><rect x="70" y="80" width="240" height="78" rx="10" fill="rgba(88,166,184,0.05)" stroke="rgba(88,166,184,0.22)" stroke-width="0.8"/><text x="190" y="110" text-anchor="middle" font-family="Georgia,'Palatino Linotype',serif" font-size="11" fill="#5a7a80" letter-spacing="3" text-transform="uppercase">LONGEST STREAK</text><text x="190" y="136" text-anchor="middle" font-family="Georgia,'Palatino Linotype',serif" font-size="20" fill="#e8f4f7" font-weight="bold" filter="url(#glowSm)">12 Nights</text></g>
<g filter="url(#cardShadow)"><rect x="330" y="80" width="240" height="78" rx="10" fill="rgba(88,166,184,0.05)" stroke="rgba(88,166,184,0.22)" stroke-width="0.8"/><text x="450" y="110" text-anchor="middle" font-family="Georgia,'Palatino Linotype',serif" font-size="11" fill="#5a7a80" letter-spacing="3" text-transform="uppercase">CURRENT RITUAL</text><text x="450" y="136" text-anchor="middle" font-family="Georgia,'Palatino Linotype',serif" font-size="20" fill="#e8f4f7" font-weight="bold" filter="url(#glowSm)">1 Nights</text></g>
<g filter="url(#cardShadow)"><rect x="590" y="80" width="240" height="78" rx="10" fill="rgba(88,166,184,0.05)" stroke="rgba(88,166,184,0.22)" stroke-width="0.8"/><text x="710" y="110" text-anchor="middle" font-family="Georgia,'Palatino Linotype',serif" font-size="11" fill="#5a7a80" letter-spacing="3" text-transform="uppercase">TOTAL OFFERINGS</text><text x="710" y="136" text-anchor="middle" font-family="Georgia,'Palatino Linotype',serif" font-size="20" fill="#e8f4f7" font-weight="bold" filter="url(#glowSm)">197</text></g>
<text x="80" y="434.0" text-anchor="end" font-family="'Courier New',monospace" font-size="10" fill="#5a7a80">0</text>
<line x1="86" y1="430.0" x2="90" y2="430.0" stroke="#5a7a80" stroke-width="0.5"/>
<text x="80" y="390.0" text-anchor="end" font-family="'Courier New',monospace" font-size="10" fill="#5a7a80">5</text>
<line x1="86" y1="386.0" x2="90" y2="386.0" stroke="#5a7a80" stroke-width="0.5"/>
<text x="80" y="346.0" text-anchor="end" font-family="'Courier New',monospace" font-size="10" fill="#5a7a80">10</text>
<line x1="86" y1="342.0" x2="90" y2="342.0" stroke="#5a7a80" stroke-width="0.5"/>
<text x="80" y="302.0" text-anchor="end" font-family="'Courier New',monospace" font-size="10" fill="#5a7a80">15</text>
<line x1="86" y1="298.0" x2="90" y2="298.0" stroke="#5a7a80" stroke-width="0.5"/>
<text x="80" y="258.0" text-anchor="end" font-family="'Courier New',monospace" font-size="10" fill="#5a7a80">20</text>
<line x1="86" y1="254.0" x2="90" y2="254.0" stroke="#5a7a80" stroke-width="0.5"/>
<text x="80" y="214.0" text-anchor="end" font-family="'Courier New',monospace" font-size="10" fill="#5a7a80">25</text>
<line x1="86" y1="210.0" x2="90" y2="210.0" stroke="#5a7a80" stroke-width="0.5"/>
<text x="90.0" y="450" text-anchor="middle" font-family="'Courier New',monospace" font-size="10" fill="#5a7a80">9</text>
<text x="196.2" y="450" text-anchor="middle" font-family="'Courier New',monospace" font-size="10" fill="#5a7a80">13</text>
<text x="302.4" y="450" text-anchor="middle" font-family="'Courier New',monospace" font-size="10" fill="#5a7a80">17</text>
<text x="408.6" y="450" text-anchor="middle" font-family="'Courier New',monospace" font-size="10" fill="#5a7a80">21</text>
<text x="514.8" y="450" text-anchor="middle" font-family="'Courier New',monospace" font-size="10" fill="#5a7a80">25</text>
<text x="621.0" y="450" text-anchor="middle" font-family="'Courier New',monospace" font-size="10" fill="#5a7a80">29</text>
<text x="727.2" y="450" text-anchor="middle" font-family="'Courier New',monospace" font-size="10" fill="#5a7a80">3</text>
<text x="833.4" y="450" text-anchor="middle" font-family="'Courier New',monospace" font-size="10" fill="#5a7a80">7</text>
<text x="860.0" y="450" text-anchor="middle" font-family="'Courier New',monospace" font-size="10" fill="#5a7a80">8</text>
<line x1="90" y1="210" x2="90" y2="430" stroke="#58A6B8" stroke-width="0.5" opacity="0.2"/>
<line x1="90" y1="430" x2="860" y2="430" stroke="#58A6B8" stroke-width="0.5" opacity="0.2"/>
<path d="M90.0 430.0 C93.5 430.0,109.5 430.0,116.6 430.0 C123.6 430.0,136.0 430.0,143.1 430.0 C150.2 430.0,162.6 430.0,169.7 430.0 C176.7 430.0,189.1 435.9,196.2 430.0 C203.3 424.1,215.7 394.2,222.8 386.0 C229.8 377.8,242.2 367.2,249.3 368.4 C256.4 369.6,268.8 398.3,275.9 394.8 C282.9 391.3,295.3 350.2,302.4 342.0 C309.5 333.8,321.9 347.3,329.0 333.2 C336.0 319.1,348.4 228.2,355.5 236.4 C362.6 244.6,375.0 370.2,382.1 394.8 C389.1 419.4,401.5 418.9,408.6 421.2 C415.7 423.5,428.1 417.1,435.2 412.4 C442.3 407.7,454.6 387.2,461.7 386.0 C468.8 384.8,481.2 398.9,488.3 403.6 C495.4 408.3,507.7 417.7,514.8 421.2 C521.9 424.7,534.3 428.8,541.4 430.0 C548.5 431.2,560.9 430.0,567.9 430.0 C575.0 430.0,587.4 430.0,594.5 430.0 C601.6 430.0,614.0 435.9,621.0 430.0 C628.1 424.1,640.5 393.0,647.6 386.0 C654.7 379.0,667.1 381.9,674.1 377.2 C681.2 372.5,693.6 344.9,700.7 350.8 C707.8 356.7,720.2 410.6,727.2 421.2 C734.3 431.8,746.7 430.0,753.8 430.0 C760.9 430.0,773.3 421.2,780.3 421.2 C787.4 421.2,799.8 432.3,806.9 430.0 C814.0 427.7,826.4 403.6,833.4 403.6 C840.5 403.6,856.5 426.5,860.0 430.0 L860.0 430 L90.0 430 Z" fill="url(#areaFill)" opacity="0.9">
  <animate attributeName="opacity" values="0;0.9" dur="2s" fill="freeze"/>
</path>
<path d="M90.0 430.0 C93.5 430.0,109.5 430.0,116.6 430.0 C123.6 430.0,136.0 430.0,143.1 430.0 C150.2 430.0,162.6 430.0,169.7 430.0 C176.7 430.0,189.1 435.9,196.2 430.0 C203.3 424.1,215.7 394.2,222.8 386.0 C229.8 377.8,242.2 367.2,249.3 368.4 C256.4 369.6,268.8 398.3,275.9 394.8 C282.9 391.3,295.3 350.2,302.4 342.0 C309.5 333.8,321.9 347.3,329.0 333.2 C336.0 319.1,348.4 228.2,355.5 236.4 C362.6 244.6,375.0 370.2,382.1 394.8 C389.1 419.4,401.5 418.9,408.6 421.2 C415.7 423.5,428.1 417.1,435.2 412.4 C442.3 407.7,454.6 387.2,461.7 386.0 C468.8 384.8,481.2 398.9,488.3 403.6 C495.4 408.3,507.7 417.7,514.8 421.2 C521.9 424.7,534.3 428.8,541.4 430.0 C548.5 431.2,560.9 430.0,567.9 430.0 C575.0 430.0,587.4 430.0,594.5 430.0 C601.6 430.0,614.0 435.9,621.0 430.0 C628.1 424.1,640.5 393.0,647.6 386.0 C654.7 379.0,667.1 381.9,674.1 377.2 C681.2 372.5,693.6 344.9,700.7 350.8 C707.8 356.7,720.2 410.6,727.2 421.2 C734.3 431.8,746.7 430.0,753.8 430.0 C760.9 430.0,773.3 421.2,780.3 421.2 C787.4 421.2,799.8 432.3,806.9 430.0 C814.0 427.7,826.4 403.6,833.4 403.6 C840.5 403.6,856.5 426.5,860.0 430.0" fill="none" stroke="#58A6B8" stroke-width="4" opacity="0.15" filter="url(#glowLg)" stroke-linecap="round" stroke-linejoin="round"/>
<path d="M90.0 430.0 C93.5 430.0,109.5 430.0,116.6 430.0 C123.6 430.0,136.0 430.0,143.1 430.0 C150.2 430.0,162.6 430.0,169.7 430.0 C176.7 430.0,189.1 435.9,196.2 430.0 C203.3 424.1,215.7 394.2,222.8 386.0 C229.8 377.8,242.2 367.2,249.3 368.4 C256.4 369.6,268.8 398.3,275.9 394.8 C282.9 391.3,295.3 350.2,302.4 342.0 C309.5 333.8,321.9 347.3,329.0 333.2 C336.0 319.1,348.4 228.2,355.5 236.4 C362.6 244.6,375.0 370.2,382.1 394.8 C389.1 419.4,401.5 418.9,408.6 421.2 C415.7 423.5,428.1 417.1,435.2 412.4 C442.3 407.7,454.6 387.2,461.7 386.0 C468.8 384.8,481.2 398.9,488.3 403.6 C495.4 408.3,507.7 417.7,514.8 421.2 C521.9 424.7,534.3 428.8,541.4 430.0 C548.5 431.2,560.9 430.0,567.9 430.0 C575.0 430.0,587.4 430.0,594.5 430.0 C601.6 430.0,614.0 435.9,621.0 430.0 C628.1 424.1,640.5 393.0,647.6 386.0 C654.7 379.0,667.1 381.9,674.1 377.2 C681.2 372.5,693.6 344.9,700.7 350.8 C707.8 356.7,720.2 410.6,727.2 421.2 C734.3 431.8,746.7 430.0,753.8 430.0 C760.9 430.0,773.3 421.2,780.3 421.2 C787.4 421.2,799.8 432.3,806.9 430.0 C814.0 427.7,826.4 403.6,833.4 403.6 C840.5 403.6,856.5 426.5,860.0 430.0" fill="none" stroke="#58A6B8" stroke-width="2.2" stroke-linecap="round" stroke-linejoin="round" filter="url(#glowSm)" stroke-dasharray="1560" stroke-dashoffset="1560">
  <animate attributeName="stroke-dashoffset" from="1560" to="0" dur="2.5s" fill="freeze" calcMode="spline" keySplines="0.4 0 0.2 1"/>
  <animate attributeName="opacity" values="0.7;1;0.85;1" dur="6s" begin="2.5s" repeatCount="indefinite"/>
</path>
<circle cx="90.0" cy="430.0" r="2.2" fill="#58A6B8" stroke="#0d0d0d" stroke-width="1" filter="url(#glowSm)" opacity="0">
  <title>Jun 9
0 Contributions</title>
  <animate attributeName="opacity" from="0" to="1" dur="0.4s" begin="0.80s" fill="freeze"/>
  <animate attributeName="r" values="2.2;3.2;2.2" dur="4s" begin="1.20s" repeatCount="indefinite"/>
</circle>
<circle cx="116.6" cy="430.0" r="2.2" fill="#58A6B8" stroke="#0d0d0d" stroke-width="1" filter="url(#glowSm)" opacity="0">
  <title>Jun 10
0 Contributions</title>
  <animate attributeName="opacity" from="0" to="1" dur="0.4s" begin="0.86s" fill="freeze"/>
  <animate attributeName="r" values="2.2;3.2;2.2" dur="4s" begin="1.26s" repeatCount="indefinite"/>
</circle>
<circle cx="143.1" cy="430.0" r="2.2" fill="#58A6B8" stroke="#0d0d0d" stroke-width="1" filter="url(#glowSm)" opacity="0">
  <title>Jun 11
0 Contributions</title>
  <animate attributeName="opacity" from="0" to="1" dur="0.4s" begin="0.92s" fill="freeze"/>
  <animate attributeName="r" values="2.2;3.2;2.2" dur="4s" begin="1.32s" repeatCount="indefinite"/>
</circle>
<circle cx="169.7" cy="430.0" r="2.2" fill="#58A6B8" stroke="#0d0d0d" stroke-width="1" filter="url(#glowSm)" opacity="0">
  <title>Jun 12
0 Contributions</title>
  <animate attributeName="opacity" from="0" to="1" dur="0.4s" begin="0.98s" fill="freeze"/>
  <animate attributeName="r" values="2.2;3.2;2.2" dur="4s" begin="1.38s" repeatCount="indefinite"/>
</circle>
<circle cx="196.2" cy="430.0" r="2.2" fill="#58A6B8" stroke="#0d0d0d" stroke-width="1" filter="url(#glowSm)" opacity="0">
  <title>Jun 13
0 Contributions</title>
  <animate attributeName="opacity" from="0" to="1" dur="0.4s" begin="1.04s" fill="freeze"/>
  <animate attributeName="r" values="2.2;3.2;2.2" dur="4s" begin="1.44s" repeatCount="indefinite"/>
</circle>
<circle cx="222.8" cy="386.0" r="3.0" fill="#58A6B8" stroke="#0d0d0d" stroke-width="1" filter="url(#glowSm)" opacity="0">
  <title>Jun 14
5 Contributions</title>
  <animate attributeName="opacity" from="0" to="1" dur="0.4s" begin="1.10s" fill="freeze"/>
  <animate attributeName="r" values="3.0;4.0;3.0" dur="4s" begin="1.50s" repeatCount="indefinite"/>
</circle>
<circle cx="249.3" cy="368.4" r="3.3" fill="#58A6B8" stroke="#0d0d0d" stroke-width="1" filter="url(#glowSm)" opacity="0">
  <title>Jun 15
7 Contributions</title>
  <animate attributeName="opacity" from="0" to="1" dur="0.4s" begin="1.16s" fill="freeze"/>
  <animate attributeName="r" values="3.3;4.3;3.3" dur="4s" begin="1.56s" repeatCount="indefinite"/>
</circle>
<circle cx="275.9" cy="394.8" r="2.8" fill="#58A6B8" stroke="#0d0d0d" stroke-width="1" filter="url(#glowSm)" opacity="0">
  <title>Jun 16
4 Contributions</title>
  <animate attributeName="opacity" from="0" to="1" dur="0.4s" begin="1.22s" fill="freeze"/>
  <animate attributeName="r" values="2.8;3.8;2.8" dur="4s" begin="1.62s" repeatCount="indefinite"/>
</circle>
<circle cx="302.4" cy="342.0" r="3.8" fill="#58A6B8" stroke="#0d0d0d" stroke-width="1" filter="url(#glowSm)" opacity="0">
  <title>Jun 17
10 Contributions</title>
  <animate attributeName="opacity" from="0" to="1" dur="0.4s" begin="1.28s" fill="freeze"/>
  <animate attributeName="r" values="3.8;4.8;3.8" dur="4s" begin="1.68s" repeatCount="indefinite"/>
</circle>
<circle cx="329.0" cy="333.2" r="4.0" fill="#58A6B8" stroke="#0d0d0d" stroke-width="1" filter="url(#glowSm)" opacity="0">
  <title>Jun 18
11 Contributions</title>
  <animate attributeName="opacity" from="0" to="1" dur="0.4s" begin="1.34s" fill="freeze"/>
  <animate attributeName="r" values="4.0;5.0;4.0" dur="4s" begin="1.74s" repeatCount="indefinite"/>
</circle>
<circle cx="355.5" cy="236.4" r="18" fill="url(#haloGrad)" opacity="0">
  <animate attributeName="opacity" values="0;0.6;0.3;0.6" dur="4s" begin="1.40s" repeatCount="indefinite"/>
  <animate attributeName="r" values="14;22;14" dur="4s" begin="1.40s" repeatCount="indefinite"/>
</circle>
<circle cx="355.5" cy="236.4" r="7.2" fill="#e8f4f7" stroke="#0d0d0d" stroke-width="1" filter="url(#glowMd)" opacity="0">
  <title>Jun 19
22 Contributions</title>
  <animate attributeName="opacity" from="0" to="1" dur="0.4s" begin="1.40s" fill="freeze"/>
  <animate attributeName="r" values="7.2;9.2;7.2" dur="3s" begin="1.80s" repeatCount="indefinite"/>
</circle>
<circle cx="382.1" cy="394.8" r="2.8" fill="#58A6B8" stroke="#0d0d0d" stroke-width="1" filter="url(#glowSm)" opacity="0">
  <title>Jun 20
4 Contributions</title>
  <animate attributeName="opacity" from="0" to="1" dur="0.4s" begin="1.46s" fill="freeze"/>
  <animate attributeName="r" values="2.8;3.8;2.8" dur="4s" begin="1.86s" repeatCount="indefinite"/>
</circle>
<circle cx="408.6" cy="421.2" r="2.4" fill="#58A6B8" stroke="#0d0d0d" stroke-width="1" filter="url(#glowSm)" opacity="0">
  <title>Jun 21
1 Contribution</title>
  <animate attributeName="opacity" from="0" to="1" dur="0.4s" begin="1.52s" fill="freeze"/>
  <animate attributeName="r" values="2.4;3.4;2.4" dur="4s" begin="1.92s" repeatCount="indefinite"/>
</circle>
<circle cx="435.2" cy="412.4" r="2.5" fill="#58A6B8" stroke="#0d0d0d" stroke-width="1" filter="url(#glowSm)" opacity="0">
  <title>Jun 22
2 Contributions</title>
  <animate attributeName="opacity" from="0" to="1" dur="0.4s" begin="1.58s" fill="freeze"/>
  <animate attributeName="r" values="2.5;3.5;2.5" dur="4s" begin="1.98s" repeatCount="indefinite"/>
</circle>
<circle cx="461.7" cy="386.0" r="3.0" fill="#58A6B8" stroke="#0d0d0d" stroke-width="1" filter="url(#glowSm)" opacity="0">
  <title>Jun 23
5 Contributions</title>
  <animate attributeName="opacity" from="0" to="1" dur="0.4s" begin="1.64s" fill="freeze"/>
  <animate attributeName="r" values="3.0;4.0;3.0" dur="4s" begin="2.04s" repeatCount="indefinite"/>
</circle>
<circle cx="488.3" cy="403.6" r="2.7" fill="#58A6B8" stroke="#0d0d0d" stroke-width="1" filter="url(#glowSm)" opacity="0">
  <title>Jun 24
3 Contributions</title>
  <animate attributeName="opacity" from="0" to="1" dur="0.4s" begin="1.70s" fill="freeze"/>
  <animate attributeName="r" values="2.7;3.7;2.7" dur="4s" begin="2.10s" repeatCount="indefinite"/>
</circle>
<circle cx="514.8" cy="421.2" r="2.4" fill="#58A6B8" stroke="#0d0d0d" stroke-width="1" filter="url(#glowSm)" opacity="0">
  <title>Jun 25
1 Contribution</title>
  <animate attributeName="opacity" from="0" to="1" dur="0.4s" begin="1.76s" fill="freeze"/>
  <animate attributeName="r" values="2.4;3.4;2.4" dur="4s" begin="2.16s" repeatCount="indefinite"/>
</circle>
<circle cx="541.4" cy="430.0" r="2.2" fill="#58A6B8" stroke="#0d0d0d" stroke-width="1" filter="url(#glowSm)" opacity="0">
  <title>Jun 26
0 Contributions</title>
  <animate attributeName="opacity" from="0" to="1" dur="0.4s" begin="1.82s" fill="freeze"/>
  <animate attributeName="r" values="2.2;3.2;2.2" dur="4s" begin="2.22s" repeatCount="indefinite"/>
</circle>
<circle cx="567.9" cy="430.0" r="2.2" fill="#58A6B8" stroke="#0d0d0d" stroke-width="1" filter="url(#glowSm)" opacity="0">
  <title>Jun 27
0 Contributions</title>
  <animate attributeName="opacity" from="0" to="1" dur="0.4s" begin="1.88s" fill="freeze"/>
  <animate attributeName="r" values="2.2;3.2;2.2" dur="4s" begin="2.28s" repeatCount="indefinite"/>
</circle>
<circle cx="594.5" cy="430.0" r="2.2" fill="#58A6B8" stroke="#0d0d0d" stroke-width="1" filter="url(#glowSm)" opacity="0">
  <title>Jun 28
0 Contributions</title>
  <animate attributeName="opacity" from="0" to="1" dur="0.4s" begin="1.94s" fill="freeze"/>
  <animate attributeName="r" values="2.2;3.2;2.2" dur="4s" begin="2.34s" repeatCount="indefinite"/>
</circle>
<circle cx="621.0" cy="430.0" r="2.2" fill="#58A6B8" stroke="#0d0d0d" stroke-width="1" filter="url(#glowSm)" opacity="0">
  <title>Jun 29
0 Contributions</title>
  <animate attributeName="opacity" from="0" to="1" dur="0.4s" begin="2.00s" fill="freeze"/>
  <animate attributeName="r" values="2.2;3.2;2.2" dur="4s" begin="2.40s" repeatCount="indefinite"/>
</circle>
<circle cx="647.6" cy="386.0" r="3.0" fill="#58A6B8" stroke="#0d0d0d" stroke-width="1" filter="url(#glowSm)" opacity="0">
  <title>Jun 30
5 Contributions</title>
  <animate attributeName="opacity" from="0" to="1" dur="0.4s" begin="2.06s" fill="freeze"/>
  <animate attributeName="r" values="3.0;4.0;3.0" dur="4s" begin="2.46s" repeatCount="indefinite"/>
</circle>
<circle cx="674.1" cy="377.2" r="3.2" fill="#58A6B8" stroke="#0d0d0d" stroke-width="1" filter="url(#glowSm)" opacity="0">
  <title>Jul 1
6 Contributions</title>
  <animate attributeName="opacity" from="0" to="1" dur="0.4s" begin="2.12s" fill="freeze"/>
  <animate attributeName="r" values="3.2;4.2;3.2" dur="4s" begin="2.52s" repeatCount="indefinite"/>
</circle>
<circle cx="700.7" cy="350.8" r="3.6" fill="#58A6B8" stroke="#0d0d0d" stroke-width="1" filter="url(#glowSm)" opacity="0">
  <title>Jul 2
9 Contributions</title>
  <animate attributeName="opacity" from="0" to="1" dur="0.4s" begin="2.18s" fill="freeze"/>
  <animate attributeName="r" values="3.6;4.6;3.6" dur="4s" begin="2.58s" repeatCount="indefinite"/>
</circle>
<circle cx="727.2" cy="421.2" r="2.4" fill="#58A6B8" stroke="#0d0d0d" stroke-width="1" filter="url(#glowSm)" opacity="0">
  <title>Jul 3
1 Contribution</title>
  <animate attributeName="opacity" from="0" to="1" dur="0.4s" begin="2.24s" fill="freeze"/>
  <animate attributeName="r" values="2.4;3.4;2.4" dur="4s" begin="2.64s" repeatCount="indefinite"/>
</circle>
<circle cx="753.8" cy="430.0" r="2.2" fill="#58A6B8" stroke="#0d0d0d" stroke-width="1" filter="url(#glowSm)" opacity="0">
  <title>Jul 4
0 Contributions</title>
  <animate attributeName="opacity" from="0" to="1" dur="0.4s" begin="2.30s" fill="freeze"/>
  <animate attributeName="r" values="2.2;3.2;2.2" dur="4s" begin="2.70s" repeatCount="indefinite"/>
</circle>
<circle cx="780.3" cy="421.2" r="2.4" fill="#58A6B8" stroke="#0d0d0d" stroke-width="1" filter="url(#glowSm)" opacity="0">
  <title>Jul 5
1 Contribution</title>
  <animate attributeName="opacity" from="0" to="1" dur="0.4s" begin="2.36s" fill="freeze"/>
  <animate attributeName="r" values="2.4;3.4;2.4" dur="4s" begin="2.76s" repeatCount="indefinite"/>
</circle>
<circle cx="806.9" cy="430.0" r="2.2" fill="#58A6B8" stroke="#0d0d0d" stroke-width="1" filter="url(#glowSm)" opacity="0">
  <title>Jul 6
0 Contributions</title>
  <animate attributeName="opacity" from="0" to="1" dur="0.4s" begin="2.42s" fill="freeze"/>
  <animate attributeName="r" values="2.2;3.2;2.2" dur="4s" begin="2.82s" repeatCount="indefinite"/>
</circle>
<circle cx="833.4" cy="403.6" r="2.7" fill="#58A6B8" stroke="#0d0d0d" stroke-width="1" filter="url(#glowSm)" opacity="0">
  <title>Jul 7
3 Contributions</title>
  <animate attributeName="opacity" from="0" to="1" dur="0.4s" begin="2.48s" fill="freeze"/>
  <animate attributeName="r" values="2.7;3.7;2.7" dur="4s" begin="2.88s" repeatCount="indefinite"/>
</circle>
<circle cx="860.0" cy="430.0" r="2.2" fill="#58A6B8" stroke="#0d0d0d" stroke-width="1" filter="url(#glowSm)" opacity="0">
  <title>Jul 8
0 Contributions</title>
  <animate attributeName="opacity" from="0" to="1" dur="0.4s" begin="2.54s" fill="freeze"/>
  <animate attributeName="r" values="2.2;3.2;2.2" dur="4s" begin="2.94s" repeatCount="indefinite"/>
</circle>
<text x="90" y="466" text-anchor="start" font-family="Georgia,'Palatino Linotype',serif" font-size="10" fill="#5a7a80" letter-spacing="1.5">JUN</text>
<text x="860" y="466" text-anchor="end" font-family="Georgia,'Palatino Linotype',serif" font-size="10" fill="#5a7a80" letter-spacing="1.5">JUL</text>
<text x="450" y="522" text-anchor="middle" font-family="Georgia,'Palatino Linotype',serif" font-size="9" fill="#5a7a80" letter-spacing="4" opacity="0.5">LAST 30 DAYS OF DARK RITUALS</text>
</svg>