<svg xmlns="http://www.w3.org/2000/svg" viewBox="0 0 900 540" width="900" height="540">
<defs>
  <!-- Gradients -->
  <linearGradient id="areaFill" x1="0" y1="0" x2="0" y2="1">
    <stop offset="0%" stop-color="#58A6B8" stop-opacity="0.28"/>
    <stop offset="85%" stop-color="#58A6B8" stop-opacity="0.03"/>
    <stop offset="100%" stop-color="#58A6B8" stop-opacity="0"/>
  </linearGradient>
  <radialGradient id="haloGrad" cx="50%" cy="50%" r="50%">
    <stop offset="0%" stop-color="#58A6B8" stop-opacity="0.5"/>
    <stop offset="100%" stop-color="#58A6B8" stop-opacity="0"/>
  </radialGradient>
  <linearGradient id="frameFade" x1="0" y1="0" x2="1" y2="1">
    <stop offset="0%" stop-color="#58A6B8" stop-opacity="0.35"/>
    <stop offset="50%" stop-color="#58A6B8" stop-opacity="0.12"/>
    <stop offset="100%" stop-color="#58A6B8" stop-opacity="0.35"/>
  </linearGradient>
  <!-- Filters -->
  <filter id="glowSm" x="-50%" y="-50%" width="200%" height="200%">
    <feGaussianBlur stdDeviation="2.5" result="b"/><feMerge><feMergeNode in="b"/><feMergeNode in="SourceGraphic"/></feMerge>
  </filter>
  <filter id="glowMd" x="-50%" y="-50%" width="200%" height="200%">
    <feGaussianBlur stdDeviation="5" result="b"/><feMerge><feMergeNode in="b"/><feMergeNode in="SourceGraphic"/></feMerge>
  </filter>
  <filter id="glowLg" x="-80%" y="-80%" width="260%" height="260%">
    <feGaussianBlur stdDeviation="10" result="b"/><feMerge><feMergeNode in="b"/><feMergeNode in="SourceGraphic"/></feMerge>
  </filter>
  <filter id="cardShadow" x="-10%" y="-10%" width="120%" height="130%">
    <feGaussianBlur stdDeviation="6" result="b"/><feFlood flood-color="#58A6B8" flood-opacity="0.08" result="c"/>
    <feComposite in="c" in2="b" operator="in" result="s"/><feMerge><feMergeNode in="s"/><feMergeNode in="SourceGraphic"/></feMerge>
  </filter>
</defs>

<!-- Background -->
<rect width="900" height="540" fill="#0d0d0d" rx="16"/>
<line x1="90" y1="210.0" x2="860" y2="210.0" stroke="rgba(88,166,184,0.055)" stroke-width="0.7"/>
<line x1="90" y1="246.7" x2="860" y2="246.7" stroke="rgba(88,166,184,0.055)" stroke-width="0.7"/>
<line x1="90" y1="283.3" x2="860" y2="283.3" stroke="rgba(88,166,184,0.055)" stroke-width="0.7"/>
<line x1="90" y1="320.0" x2="860" y2="320.0" stroke="rgba(88,166,184,0.055)" stroke-width="0.7"/>
<line x1="90" y1="356.7" x2="860" y2="356.7" stroke="rgba(88,166,184,0.055)" stroke-width="0.7"/>
<line x1="90" y1="393.3" x2="860" y2="393.3" stroke="rgba(88,166,184,0.055)" stroke-width="0.7"/>
<line x1="90" y1="430.0" x2="860" y2="430.0" stroke="rgba(88,166,184,0.055)" stroke-width="0.7"/>
<line x1="90.0" y1="210" x2="90.0" y2="430" stroke="rgba(88,166,184,0.055)" stroke-width="0.5"/>
<line x1="222.8" y1="210" x2="222.8" y2="430" stroke="rgba(88,166,184,0.055)" stroke-width="0.5"/>
<line x1="355.5" y1="210" x2="355.5" y2="430" stroke="rgba(88,166,184,0.055)" stroke-width="0.5"/>
<line x1="488.3" y1="210" x2="488.3" y2="430" stroke="rgba(88,166,184,0.055)" stroke-width="0.5"/>
<line x1="621.0" y1="210" x2="621.0" y2="430" stroke="rgba(88,166,184,0.055)" stroke-width="0.5"/>
<line x1="753.8" y1="210" x2="753.8" y2="430" stroke="rgba(88,166,184,0.055)" stroke-width="0.5"/>
<circle cx="184.2" cy="196.9" r="1.3" fill="#58A6B8" opacity="0.100"><animate attributeName="opacity" values="0.100;0.220;0.100" dur="5.0s" begin="3.6s" repeatCount="indefinite"/></circle>
<circle cx="770.4" cy="292.2" r="0.7" fill="#58A6B8" opacity="0.149"><animate attributeName="opacity" values="0.149;0.328;0.149" dur="4.7s" begin="1.4s" repeatCount="indefinite"/></circle>
<circle cx="779.1" cy="193.6" r="1.1" fill="#58A6B8" opacity="0.068"><animate attributeName="opacity" values="0.068;0.150;0.068" dur="3.6s" begin="2.4s" repeatCount="indefinite"/></circle>
<circle cx="894.6" cy="95.5" r="0.7" fill="#58A6B8" opacity="0.095"><animate attributeName="opacity" values="0.095;0.209;0.095" dur="6.9s" begin="1.2s" repeatCount="indefinite"/></circle>
<circle cx="589.0" cy="414.6" r="1.0" fill="#58A6B8" opacity="0.119"><animate attributeName="opacity" values="0.119;0.262;0.119" dur="6.2s" begin="4.1s" repeatCount="indefinite"/></circle>
<circle cx="836.9" cy="85.1" r="0.6" fill="#58A6B8" opacity="0.063"><animate attributeName="opacity" values="0.063;0.139;0.063" dur="5.2s" begin="2.0s" repeatCount="indefinite"/></circle>
<circle cx="253.8" cy="153.4" r="0.6" fill="#58A6B8" opacity="0.082"><animate attributeName="opacity" values="0.082;0.180;0.082" dur="5.4s" begin="3.3s" repeatCount="indefinite"/></circle>
<circle cx="470.5" cy="446.6" r="1.0" fill="#58A6B8" opacity="0.098"><animate attributeName="opacity" values="0.098;0.216;0.098" dur="8.0s" begin="3.6s" repeatCount="indefinite"/></circle>
<circle cx="215.8" cy="476.2" r="0.6" fill="#58A6B8" opacity="0.139"><animate attributeName="opacity" values="0.139;0.306;0.139" dur="3.6s" begin="3.4s" repeatCount="indefinite"/></circle>
<circle cx="884.8" cy="179.4" r="1.0" fill="#58A6B8" opacity="0.113"><animate attributeName="opacity" values="0.113;0.249;0.113" dur="5.4s" begin="2.9s" repeatCount="indefinite"/></circle>
<circle cx="615.4" cy="235.3" r="1.0" fill="#58A6B8" opacity="0.069"><animate attributeName="opacity" values="0.069;0.152;0.069" dur="6.6s" begin="5.9s" repeatCount="indefinite"/></circle>
<circle cx="213.0" cy="257.6" r="0.9" fill="#58A6B8" opacity="0.087"><animate attributeName="opacity" values="0.087;0.191;0.087" dur="4.9s" begin="2.2s" repeatCount="indefinite"/></circle>
<circle cx="390.4" cy="332.1" r="0.4" fill="#58A6B8" opacity="0.079"><animate attributeName="opacity" values="0.079;0.174;0.079" dur="7.6s" begin="3.4s" repeatCount="indefinite"/></circle>
<circle cx="659.6" cy="243.5" r="0.8" fill="#58A6B8" opacity="0.089"><animate attributeName="opacity" values="0.089;0.196;0.089" dur="5.1s" begin="1.9s" repeatCount="indefinite"/></circle>
<circle cx="367.5" cy="397.5" r="0.4" fill="#58A6B8" opacity="0.120"><animate attributeName="opacity" values="0.120;0.264;0.120" dur="4.5s" begin="1.5s" repeatCount="indefinite"/></circle>
<circle cx="505.7" cy="94.3" r="0.5" fill="#58A6B8" opacity="0.124"><animate attributeName="opacity" values="0.124;0.273;0.124" dur="4.0s" begin="1.1s" repeatCount="indefinite"/></circle>
<circle cx="381.3" cy="22.7" r="1.0" fill="#58A6B8" opacity="0.100"><animate attributeName="opacity" values="0.100;0.220;0.100" dur="7.1s" begin="5.3s" repeatCount="indefinite"/></circle>
<circle cx="40.6" cy="477.8" r="0.6" fill="#58A6B8" opacity="0.070"><animate attributeName="opacity" values="0.070;0.154;0.070" dur="4.6s" begin="0.9s" repeatCount="indefinite"/></circle>
<circle cx="463.0" cy="178.8" r="0.7" fill="#58A6B8" opacity="0.045"><animate attributeName="opacity" values="0.045;0.099;0.045" dur="7.6s" begin="2.7s" repeatCount="indefinite"/></circle>
<circle cx="332.2" cy="515.3" r="0.5" fill="#58A6B8" opacity="0.046"><animate attributeName="opacity" values="0.046;0.101;0.046" dur="6.6s" begin="5.2s" repeatCount="indefinite"/></circle>
<circle cx="659.1" cy="248.0" r="0.5" fill="#58A6B8" opacity="0.112"><animate attributeName="opacity" values="0.112;0.246;0.112" dur="8.0s" begin="2.1s" repeatCount="indefinite"/></circle>
<circle cx="198.3" cy="459.8" r="1.2" fill="#58A6B8" opacity="0.056"><animate attributeName="opacity" values="0.056;0.123;0.056" dur="7.6s" begin="1.8s" repeatCount="indefinite"/></circle>
<circle cx="618.4" cy="161.6" r="0.8" fill="#58A6B8" opacity="0.096"><animate attributeName="opacity" values="0.096;0.211;0.096" dur="8.2s" begin="1.4s" repeatCount="indefinite"/></circle>
<circle cx="820.4" cy="102.0" r="0.8" fill="#58A6B8" opacity="0.080"><animate attributeName="opacity" values="0.080;0.176;0.080" dur="6.1s" begin="4.8s" repeatCount="indefinite"/></circle>
<circle cx="297.0" cy="253.9" r="1.2" fill="#58A6B8" opacity="0.081"><animate attributeName="opacity" values="0.081;0.178;0.081" dur="8.0s" begin="3.8s" repeatCount="indefinite"/></circle>
<circle cx="170.0" cy="344.7" r="1.2" fill="#58A6B8" opacity="0.056"><animate attributeName="opacity" values="0.056;0.123;0.056" dur="6.8s" begin="1.9s" repeatCount="indefinite"/></circle>
<circle cx="264.7" cy="509.8" r="0.4" fill="#58A6B8" opacity="0.093"><animate attributeName="opacity" values="0.093;0.205;0.093" dur="6.3s" begin="0.6s" repeatCount="indefinite"/></circle>
<circle cx="794.8" cy="202.8" r="1.0" fill="#58A6B8" opacity="0.137"><animate attributeName="opacity" values="0.137;0.301;0.137" dur="6.8s" begin="5.9s" repeatCount="indefinite"/></circle>
<circle cx="236.0" cy="115.3" r="0.7" fill="#58A6B8" opacity="0.083"><animate attributeName="opacity" values="0.083;0.183;0.083" dur="5.4s" begin="2.7s" repeatCount="indefinite"/></circle>
<circle cx="693.6" cy="98.3" r="0.3" fill="#58A6B8" opacity="0.119"><animate attributeName="opacity" values="0.119;0.262;0.119" dur="6.3s" begin="4.8s" repeatCount="indefinite"/></circle>
<circle cx="700.9" cy="175.2" r="0.5" fill="#58A6B8" opacity="0.116"><animate attributeName="opacity" values="0.116;0.255;0.116" dur="7.8s" begin="3.9s" repeatCount="indefinite"/></circle>
<circle cx="880.5" cy="132.0" r="1.1" fill="#58A6B8" opacity="0.074"><animate attributeName="opacity" values="0.074;0.163;0.074" dur="4.6s" begin="0.7s" repeatCount="indefinite"/></circle>
<circle cx="857.8" cy="34.7" r="0.9" fill="#58A6B8" opacity="0.137"><animate attributeName="opacity" values="0.137;0.301;0.137" dur="3.8s" begin="5.0s" repeatCount="indefinite"/></circle>
<circle cx="301.3" cy="538.9" r="0.5" fill="#58A6B8" opacity="0.159"><animate attributeName="opacity" values="0.159;0.350;0.159" dur="7.1s" begin="3.4s" repeatCount="indefinite"/></circle>
<circle cx="899.4" cy="245.8" r="0.4" fill="#58A6B8" opacity="0.059"><animate attributeName="opacity" values="0.059;0.130;0.059" dur="4.5s" begin="5.2s" repeatCount="indefinite"/></circle>
<circle cx="896.1" cy="312.6" r="1.1" fill="#58A6B8" opacity="0.096"><animate attributeName="opacity" values="0.096;0.211;0.096" dur="5.1s" begin="4.7s" repeatCount="indefinite"/></circle>
<circle cx="445.6" cy="138.3" r="0.5" fill="#58A6B8" opacity="0.121"><animate attributeName="opacity" values="0.121;0.266;0.121" dur="7.8s" begin="4.3s" repeatCount="indefinite"/></circle>
<circle cx="373.1" cy="106.1" r="0.5" fill="#58A6B8" opacity="0.062"><animate attributeName="opacity" values="0.062;0.136;0.062" dur="7.3s" begin="0.1s" repeatCount="indefinite"/></circle>
<circle cx="740.1" cy="297.9" r="0.6" fill="#58A6B8" opacity="0.146"><animate attributeName="opacity" values="0.146;0.321;0.146" dur="6.1s" begin="3.7s" repeatCount="indefinite"/></circle>
<circle cx="844.9" cy="471.5" r="0.4" fill="#58A6B8" opacity="0.085"><animate attributeName="opacity" values="0.085;0.187;0.085" dur="4.8s" begin="4.6s" repeatCount="indefinite"/></circle>
<circle cx="333.7" cy="478.5" r="0.4" fill="#58A6B8" opacity="0.052"><animate attributeName="opacity" values="0.052;0.114;0.052" dur="7.5s" begin="1.1s" repeatCount="indefinite"/></circle>
<circle cx="18.2" cy="1.6" r="0.7" fill="#58A6B8" opacity="0.061"><animate attributeName="opacity" values="0.061;0.134;0.061" dur="6.5s" begin="3.3s" repeatCount="indefinite"/></circle>
<circle cx="368.3" cy="325.7" r="1.0" fill="#58A6B8" opacity="0.086"><animate attributeName="opacity" values="0.086;0.189;0.086" dur="4.6s" begin="4.2s" repeatCount="indefinite"/></circle>
<circle cx="7.3" cy="26.9" r="0.5" fill="#58A6B8" opacity="0.059"><animate attributeName="opacity" values="0.059;0.130;0.059" dur="4.6s" begin="2.8s" repeatCount="indefinite"/></circle>
<circle cx="550.0" cy="483.4" r="0.7" fill="#58A6B8" opacity="0.118"><animate attributeName="opacity" values="0.118;0.260;0.118" dur="5.9s" begin="3.2s" repeatCount="indefinite"/></circle>
<circle cx="36.5" cy="254.6" r="0.4" fill="#58A6B8" opacity="0.069"><animate attributeName="opacity" values="0.069;0.152;0.069" dur="6.6s" begin="3.5s" repeatCount="indefinite"/></circle>
<circle cx="85.2" cy="161.1" r="0.6" fill="#58A6B8" opacity="0.077"><animate attributeName="opacity" values="0.077;0.169;0.077" dur="5.0s" begin="1.0s" repeatCount="indefinite"/></circle>
<circle cx="460.0" cy="109.5" r="0.7" fill="#58A6B8" opacity="0.102"><animate attributeName="opacity" values="0.102;0.224;0.102" dur="4.2s" begin="4.9s" repeatCount="indefinite"/></circle>
<circle cx="855.6" cy="21.8" r="0.3" fill="#58A6B8" opacity="0.132"><animate attributeName="opacity" values="0.132;0.290;0.132" dur="4.5s" begin="5.3s" repeatCount="indefinite"/></circle>
<circle cx="306.4" cy="61.9" r="1.1" fill="#58A6B8" opacity="0.118"><animate attributeName="opacity" values="0.118;0.260;0.118" dur="5.2s" begin="3.8s" repeatCount="indefinite"/></circle>
<circle cx="206.1" cy="277.2" r="0.9" fill="#58A6B8" opacity="0.067"><animate attributeName="opacity" values="0.067;0.147;0.067" dur="4.9s" begin="2.9s" repeatCount="indefinite"/></circle>
<circle cx="26.0" cy="388.3" r="0.8" fill="#58A6B8" opacity="0.130"><animate attributeName="opacity" values="0.130;0.286;0.130" dur="7.2s" begin="4.4s" repeatCount="indefinite"/></circle>
<circle cx="159.2" cy="173.3" r="0.6" fill="#58A6B8" opacity="0.124"><animate attributeName="opacity" values="0.124;0.273;0.124" dur="4.2s" begin="4.7s" repeatCount="indefinite"/></circle>
<circle cx="596.2" cy="524.9" r="0.5" fill="#58A6B8" opacity="0.079"><animate attributeName="opacity" values="0.079;0.174;0.079" dur="7.4s" begin="1.4s" repeatCount="indefinite"/></circle>
<circle cx="93.9" cy="82.9" r="1.1" fill="#58A6B8" opacity="0.101"><animate attributeName="opacity" values="0.101;0.222;0.101" dur="7.4s" begin="5.3s" repeatCount="indefinite"/></circle>
<g transform="translate(457.2,356.8) rotate(45)" opacity="0.065"><rect x="-1.3" y="-1.3" width="2.7" height="2.7" fill="#58A6B8"/><animate attributeName="opacity" values="0.065;0.163;0.065" dur="9.4s" begin="4.3s" repeatCount="indefinite"/></g>
<g transform="translate(603.7,407.1) rotate(45)" opacity="0.082"><rect x="-2.1" y="-2.1" width="4.3" height="4.3" fill="#58A6B8"/><animate attributeName="opacity" values="0.082;0.205;0.082" dur="8.8s" begin="5.0s" repeatCount="indefinite"/></g>
<g transform="translate(755.1,184.8) rotate(45)" opacity="0.052"><rect x="-1.8" y="-1.8" width="3.6" height="3.6" fill="#58A6B8"/><animate attributeName="opacity" values="0.052;0.130;0.052" dur="9.6s" begin="2.9s" repeatCount="indefinite"/></g>
<g transform="translate(151.2,226.8) rotate(45)" opacity="0.097"><rect x="-1.5" y="-1.5" width="3.1" height="3.1" fill="#58A6B8"/><animate attributeName="opacity" values="0.097;0.242;0.097" dur="7.7s" begin="1.1s" repeatCount="indefinite"/></g>
<g transform="translate(780.2,188.1) rotate(45)" opacity="0.086"><rect x="-1.5" y="-1.5" width="2.9" height="2.9" fill="#58A6B8"/><animate attributeName="opacity" values="0.086;0.215;0.086" dur="8.7s" begin="1.9s" repeatCount="indefinite"/></g>
<g transform="translate(646.0,329.4) rotate(45)" opacity="0.096"><rect x="-1.8" y="-1.8" width="3.5" height="3.5" fill="#58A6B8"/><animate attributeName="opacity" values="0.096;0.240;0.096" dur="6.1s" begin="1.4s" repeatCount="indefinite"/></g>
<g transform="translate(790.9,179.4) rotate(45)" opacity="0.091"><rect x="-1.6" y="-1.6" width="3.2" height="3.2" fill="#58A6B8"/><animate attributeName="opacity" values="0.091;0.227;0.091" dur="9.4s" begin="3.2s" repeatCount="indefinite"/></g>
<g transform="translate(304.8,339.1) rotate(45)" opacity="0.050"><rect x="-1.8" y="-1.8" width="3.5" height="3.5" fill="#58A6B8"/><animate attributeName="opacity" values="0.050;0.125;0.050" dur="7.1s" begin="1.4s" repeatCount="indefinite"/></g>
<g transform="translate(18,18) scale(1,1)"><path d="M0 25 L0 6 Q0 0 6 0 L25 0" fill="none" stroke="#58A6B8" stroke-width="1.3" opacity="0.35"/><circle cx="0" cy="0" r="1.8" fill="#58A6B8" opacity="0.4"/><path d="M0 12 L5 12" fill="none" stroke="#58A6B8" stroke-width="0.6" opacity="0.2"/><path d="M12 0 L12 5" fill="none" stroke="#58A6B8" stroke-width="0.6" opacity="0.2"/></g><g transform="translate(882,18) scale(-1,1)"><path d="M0 25 L0 6 Q0 0 6 0 L25 0" fill="none" stroke="#58A6B8" stroke-width="1.3" opacity="0.35"/><circle cx="0" cy="0" r="1.8" fill="#58A6B8" opacity="0.4"/><path d="M0 12 L5 12" fill="none" stroke="#58A6B8" stroke-width="0.6" opacity="0.2"/><path d="M12 0 L12 5" fill="none" stroke="#58A6B8" stroke-width="0.6" opacity="0.2"/></g><g transform="translate(18,522) scale(1,-1)"><path d="M0 25 L0 6 Q0 0 6 0 L25 0" fill="none" stroke="#58A6B8" stroke-width="1.3" opacity="0.35"/><circle cx="0" cy="0" r="1.8" fill="#58A6B8" opacity="0.4"/><path d="M0 12 L5 12" fill="none" stroke="#58A6B8" stroke-width="0.6" opacity="0.2"/><path d="M12 0 L12 5" fill="none" stroke="#58A6B8" stroke-width="0.6" opacity="0.2"/></g><g transform="translate(882,522) scale(-1,-1)"><path d="M0 25 L0 6 Q0 0 6 0 L25 0" fill="none" stroke="#58A6B8" stroke-width="1.3" opacity="0.35"/><circle cx="0" cy="0" r="1.8" fill="#58A6B8" opacity="0.4"/><path d="M0 12 L5 12" fill="none" stroke="#58A6B8" stroke-width="0.6" opacity="0.2"/><path d="M12 0 L12 5" fill="none" stroke="#58A6B8" stroke-width="0.6" opacity="0.2"/></g>
<rect x="10" y="10" width="880" height="520" rx="12" fill="none" stroke="url(#frameFade)" stroke-width="1"/>
<text x="450" y="50" text-anchor="middle" font-family="Georgia,'Palatino Linotype','Book Antiqua',Palatino,serif" font-size="22" font-weight="bold" fill="#e8f4f7" letter-spacing="8" filter="url(#glowMd)">✧ THE COMMIT COVEN ✧</text>
<line x1="310" y1="62" x2="590" y2="62" stroke="#58A6B8" stroke-width="0.5" opacity="0.25"/>
<g filter="url(#cardShadow)"><rect x="70" y="80" width="240" height="78" rx="10" fill="rgba(88,166,184,0.05)" stroke="rgba(88,166,184,0.22)" stroke-width="0.8"/><text x="190" y="110" text-anchor="middle" font-family="Georgia,'Palatino Linotype',serif" font-size="11" fill="#5a7a80" letter-spacing="3" text-transform="uppercase">LONGEST STREAK</text><text x="190" y="136" text-anchor="middle" font-family="Georgia,'Palatino Linotype',serif" font-size="20" fill="#e8f4f7" font-weight="bold" filter="url(#glowSm)">12 Nights</text></g>
<g filter="url(#cardShadow)"><rect x="330" y="80" width="240" height="78" rx="10" fill="rgba(88,166,184,0.05)" stroke="rgba(88,166,184,0.22)" stroke-width="0.8"/><text x="450" y="110" text-anchor="middle" font-family="Georgia,'Palatino Linotype',serif" font-size="11" fill="#5a7a80" letter-spacing="3" text-transform="uppercase">CURRENT RITUAL</text><text x="450" y="136" text-anchor="middle" font-family="Georgia,'Palatino Linotype',serif" font-size="20" fill="#e8f4f7" font-weight="bold" filter="url(#glowSm)">4 Nights</text></g>
<g filter="url(#cardShadow)"><rect x="590" y="80" width="240" height="78" rx="10" fill="rgba(88,166,184,0.05)" stroke="rgba(88,166,184,0.22)" stroke-width="0.8"/><text x="710" y="110" text-anchor="middle" font-family="Georgia,'Palatino Linotype',serif" font-size="11" fill="#5a7a80" letter-spacing="3" text-transform="uppercase">TOTAL OFFERINGS</text><text x="710" y="136" text-anchor="middle" font-family="Georgia,'Palatino Linotype',serif" font-size="20" fill="#e8f4f7" font-weight="bold" filter="url(#glowSm)">193</text></g>
<text x="80" y="434.0" text-anchor="end" font-family="'Courier New',monospace" font-size="10" fill="#5a7a80">0</text>
<line x1="86" y1="430.0" x2="90" y2="430.0" stroke="#5a7a80" stroke-width="0.5"/>
<text x="80" y="390.0" text-anchor="end" font-family="'Courier New',monospace" font-size="10" fill="#5a7a80">5</text>
<line x1="86" y1="386.0" x2="90" y2="386.0" stroke="#5a7a80" stroke-width="0.5"/>
<text x="80" y="346.0" text-anchor="end" font-family="'Courier New',monospace" font-size="10" fill="#5a7a80">10</text>
<line x1="86" y1="342.0" x2="90" y2="342.0" stroke="#5a7a80" stroke-width="0.5"/>
<text x="80" y="302.0" text-anchor="end" font-family="'Courier New',monospace" font-size="10" fill="#5a7a80">15</text>
<line x1="86" y1="298.0" x2="90" y2="298.0" stroke="#5a7a80" stroke-width="0.5"/>
<text x="80" y="258.0" text-anchor="end" font-family="'Courier New',monospace" font-size="10" fill="#5a7a80">20</text>
<line x1="86" y1="254.0" x2="90" y2="254.0" stroke="#5a7a80" stroke-width="0.5"/>
<text x="80" y="214.0" text-anchor="end" font-family="'Courier New',monospace" font-size="10" fill="#5a7a80">25</text>
<line x1="86" y1="210.0" x2="90" y2="210.0" stroke="#5a7a80" stroke-width="0.5"/>
<text x="90.0" y="450" text-anchor="middle" font-family="'Courier New',monospace" font-size="10" fill="#5a7a80">5</text>
<text x="196.2" y="450" text-anchor="middle" font-family="'Courier New',monospace" font-size="10" fill="#5a7a80">9</text>
<text x="302.4" y="450" text-anchor="middle" font-family="'Courier New',monospace" font-size="10" fill="#5a7a80">13</text>
<text x="408.6" y="450" text-anchor="middle" font-family="'Courier New',monospace" font-size="10" fill="#5a7a80">17</text>
<text x="514.8" y="450" text-anchor="middle" font-family="'Courier New',monospace" font-size="10" fill="#5a7a80">21</text>
<text x="621.0" y="450" text-anchor="middle" font-family="'Courier New',monospace" font-size="10" fill="#5a7a80">25</text>
<text x="727.2" y="450" text-anchor="middle" font-family="'Courier New',monospace" font-size="10" fill="#5a7a80">29</text>
<text x="833.4" y="450" text-anchor="middle" font-family="'Courier New',monospace" font-size="10" fill="#5a7a80">3</text>
<text x="860.0" y="450" text-anchor="middle" font-family="'Courier New',monospace" font-size="10" fill="#5a7a80">4</text>
<line x1="90" y1="210" x2="90" y2="430" stroke="#58A6B8" stroke-width="0.5" opacity="0.2"/>
<line x1="90" y1="430" x2="860" y2="430" stroke="#58A6B8" stroke-width="0.5" opacity="0.2"/>
<path d="M90.0 430.0 C93.5 430.0,109.5 430.0,116.6 430.0 C123.6 430.0,136.0 430.0,143.1 430.0 C150.2 430.0,162.6 430.0,169.7 430.0 C176.7 430.0,189.1 430.0,196.2 430.0 C203.3 430.0,215.7 430.0,222.8 430.0 C229.8 430.0,242.2 430.0,249.3 430.0 C256.4 430.0,268.8 430.0,275.9 430.0 C282.9 430.0,295.3 435.9,302.4 430.0 C309.5 424.1,321.9 394.2,329.0 386.0 C336.0 377.8,348.4 367.2,355.5 368.4 C362.6 369.6,375.0 398.3,382.1 394.8 C389.1 391.3,401.5 350.2,408.6 342.0 C415.7 333.8,428.1 347.3,435.2 333.2 C442.3 319.1,454.6 228.2,461.7 236.4 C468.8 244.6,481.2 370.2,488.3 394.8 C495.4 419.4,507.7 418.9,514.8 421.2 C521.9 423.5,534.3 417.1,541.4 412.4 C548.5 407.7,560.9 387.2,567.9 386.0 C575.0 384.8,587.4 398.9,594.5 403.6 C601.6 408.3,614.0 417.7,621.0 421.2 C628.1 424.7,640.5 428.8,647.6 430.0 C654.7 431.2,667.1 430.0,674.1 430.0 C681.2 430.0,693.6 430.0,700.7 430.0 C707.8 430.0,720.2 435.9,727.2 430.0 C734.3 424.1,746.7 393.0,753.8 386.0 C760.9 379.0,773.3 381.9,780.3 377.2 C787.4 372.5,799.8 344.9,806.9 350.8 C814.0 356.7,826.4 410.6,833.4 421.2 C840.5 431.8,856.5 428.8,860.0 430.0 L860.0 430 L90.0 430 Z" fill="url(#areaFill)" opacity="0.9">
  <animate attributeName="opacity" values="0;0.9" dur="2s" fill="freeze"/>
</path>
<path d="M90.0 430.0 C93.5 430.0,109.5 430.0,116.6 430.0 C123.6 430.0,136.0 430.0,143.1 430.0 C150.2 430.0,162.6 430.0,169.7 430.0 C176.7 430.0,189.1 430.0,196.2 430.0 C203.3 430.0,215.7 430.0,222.8 430.0 C229.8 430.0,242.2 430.0,249.3 430.0 C256.4 430.0,268.8 430.0,275.9 430.0 C282.9 430.0,295.3 435.9,302.4 430.0 C309.5 424.1,321.9 394.2,329.0 386.0 C336.0 377.8,348.4 367.2,355.5 368.4 C362.6 369.6,375.0 398.3,382.1 394.8 C389.1 391.3,401.5 350.2,408.6 342.0 C415.7 333.8,428.1 347.3,435.2 333.2 C442.3 319.1,454.6 228.2,461.7 236.4 C468.8 244.6,481.2 370.2,488.3 394.8 C495.4 419.4,507.7 418.9,514.8 421.2 C521.9 423.5,534.3 417.1,541.4 412.4 C548.5 407.7,560.9 387.2,567.9 386.0 C575.0 384.8,587.4 398.9,594.5 403.6 C601.6 408.3,614.0 417.7,621.0 421.2 C628.1 424.7,640.5 428.8,647.6 430.0 C654.7 431.2,667.1 430.0,674.1 430.0 C681.2 430.0,693.6 430.0,700.7 430.0 C707.8 430.0,720.2 435.9,727.2 430.0 C734.3 424.1,746.7 393.0,753.8 386.0 C760.9 379.0,773.3 381.9,780.3 377.2 C787.4 372.5,799.8 344.9,806.9 350.8 C814.0 356.7,826.4 410.6,833.4 421.2 C840.5 431.8,856.5 428.8,860.0 430.0" fill="none" stroke="#58A6B8" stroke-width="4" opacity="0.15" filter="url(#glowLg)" stroke-linecap="round" stroke-linejoin="round"/>
<path d="M90.0 430.0 C93.5 430.0,109.5 430.0,116.6 430.0 C123.6 430.0,136.0 430.0,143.1 430.0 C150.2 430.0,162.6 430.0,169.7 430.0 C176.7 430.0,189.1 430.0,196.2 430.0 C203.3 430.0,215.7 430.0,222.8 430.0 C229.8 430.0,242.2 430.0,249.3 430.0 C256.4 430.0,268.8 430.0,275.9 430.0 C282.9 430.0,295.3 435.9,302.4 430.0 C309.5 424.1,321.9 394.2,329.0 386.0 C336.0 377.8,348.4 367.2,355.5 368.4 C362.6 369.6,375.0 398.3,382.1 394.8 C389.1 391.3,401.5 350.2,408.6 342.0 C415.7 333.8,428.1 347.3,435.2 333.2 C442.3 319.1,454.6 228.2,461.7 236.4 C468.8 244.6,481.2 370.2,488.3 394.8 C495.4 419.4,507.7 418.9,514.8 421.2 C521.9 423.5,534.3 417.1,541.4 412.4 C548.5 407.7,560.9 387.2,567.9 386.0 C575.0 384.8,587.4 398.9,594.5 403.6 C601.6 408.3,614.0 417.7,621.0 421.2 C628.1 424.7,640.5 428.8,647.6 430.0 C654.7 431.2,667.1 430.0,674.1 430.0 C681.2 430.0,693.6 430.0,700.7 430.0 C707.8 430.0,720.2 435.9,727.2 430.0 C734.3 424.1,746.7 393.0,753.8 386.0 C760.9 379.0,773.3 381.9,780.3 377.2 C787.4 372.5,799.8 344.9,806.9 350.8 C814.0 356.7,826.4 410.6,833.4 421.2 C840.5 431.8,856.5 428.8,860.0 430.0" fill="none" stroke="#58A6B8" stroke-width="2.2" stroke-linecap="round" stroke-linejoin="round" filter="url(#glowSm)" stroke-dasharray="1528" stroke-dashoffset="1528">
  <animate attributeName="stroke-dashoffset" from="1528" to="0" dur="2.5s" fill="freeze" calcMode="spline" keySplines="0.4 0 0.2 1"/>
  <animate attributeName="opacity" values="0.7;1;0.85;1" dur="6s" begin="2.5s" repeatCount="indefinite"/>
</path>
<circle cx="90.0" cy="430.0" r="2.2" fill="#58A6B8" stroke="#0d0d0d" stroke-width="1" filter="url(#glowSm)" opacity="0">
  <title>Jun 5
0 Contributions</title>
  <animate attributeName="opacity" from="0" to="1" dur="0.4s" begin="0.80s" fill="freeze"/>
  <animate attributeName="r" values="2.2;3.2;2.2" dur="4s" begin="1.20s" repeatCount="indefinite"/>
</circle>
<circle cx="116.6" cy="430.0" r="2.2" fill="#58A6B8" stroke="#0d0d0d" stroke-width="1" filter="url(#glowSm)" opacity="0">
  <title>Jun 6
0 Contributions</title>
  <animate attributeName="opacity" from="0" to="1" dur="0.4s" begin="0.86s" fill="freeze"/>
  <animate attributeName="r" values="2.2;3.2;2.2" dur="4s" begin="1.26s" repeatCount="indefinite"/>
</circle>
<circle cx="143.1" cy="430.0" r="2.2" fill="#58A6B8" stroke="#0d0d0d" stroke-width="1" filter="url(#glowSm)" opacity="0">
  <title>Jun 7
0 Contributions</title>
  <animate attributeName="opacity" from="0" to="1" dur="0.4s" begin="0.92s" fill="freeze"/>
  <animate attributeName="r" values="2.2;3.2;2.2" dur="4s" begin="1.32s" repeatCount="indefinite"/>
</circle>
<circle cx="169.7" cy="430.0" r="2.2" fill="#58A6B8" stroke="#0d0d0d" stroke-width="1" filter="url(#glowSm)" opacity="0">
  <title>Jun 8
0 Contributions</title>
  <animate attributeName="opacity" from="0" to="1" dur="0.4s" begin="0.98s" fill="freeze"/>
  <animate attributeName="r" values="2.2;3.2;2.2" dur="4s" begin="1.38s" repeatCount="indefinite"/>
</circle>
<circle cx="196.2" cy="430.0" r="2.2" fill="#58A6B8" stroke="#0d0d0d" stroke-width="1" filter="url(#glowSm)" opacity="0">
  <title>Jun 9
0 Contributions</title>
  <animate attributeName="opacity" from="0" to="1" dur="0.4s" begin="1.04s" fill="freeze"/>
  <animate attributeName="r" values="2.2;3.2;2.2" dur="4s" begin="1.44s" repeatCount="indefinite"/>
</circle>
<circle cx="222.8" cy="430.0" r="2.2" fill="#58A6B8" stroke="#0d0d0d" stroke-width="1" filter="url(#glowSm)" opacity="0">
  <title>Jun 10
0 Contributions</title>
  <animate attributeName="opacity" from="0" to="1" dur="0.4s" begin="1.10s" fill="freeze"/>
  <animate attributeName="r" values="2.2;3.2;2.2" dur="4s" begin="1.50s" repeatCount="indefinite"/>
</circle>
<circle cx="249.3" cy="430.0" r="2.2" fill="#58A6B8" stroke="#0d0d0d" stroke-width="1" filter="url(#glowSm)" opacity="0">
  <title>Jun 11
0 Contributions</title>
  <animate attributeName="opacity" from="0" to="1" dur="0.4s" begin="1.16s" fill="freeze"/>
  <animate attributeName="r" values="2.2;3.2;2.2" dur="4s" begin="1.56s" repeatCount="indefinite"/>
</circle>
<circle cx="275.9" cy="430.0" r="2.2" fill="#58A6B8" stroke="#0d0d0d" stroke-width="1" filter="url(#glowSm)" opacity="0">
  <title>Jun 12
0 Contributions</title>
  <animate attributeName="opacity" from="0" to="1" dur="0.4s" begin="1.22s" fill="freeze"/>
  <animate attributeName="r" values="2.2;3.2;2.2" dur="4s" begin="1.62s" repeatCount="indefinite"/>
</circle>
<circle cx="302.4" cy="430.0" r="2.2" fill="#58A6B8" stroke="#0d0d0d" stroke-width="1" filter="url(#glowSm)" opacity="0">
  <title>Jun 13
0 Contributions</title>
  <animate attributeName="opacity" from="0" to="1" dur="0.4s" begin="1.28s" fill="freeze"/>
  <animate attributeName="r" values="2.2;3.2;2.2" dur="4s" begin="1.68s" repeatCount="indefinite"/>
</circle>
<circle cx="329.0" cy="386.0" r="3.0" fill="#58A6B8" stroke="#0d0d0d" stroke-width="1" filter="url(#glowSm)" opacity="0">
  <title>Jun 14
5 Contributions</title>
  <animate attributeName="opacity" from="0" to="1" dur="0.4s" begin="1.34s" fill="freeze"/>
  <animate attributeName="r" values="3.0;4.0;3.0" dur="4s" begin="1.74s" repeatCount="indefinite"/>
</circle>
<circle cx="355.5" cy="368.4" r="3.3" fill="#58A6B8" stroke="#0d0d0d" stroke-width="1" filter="url(#glowSm)" opacity="0">
  <title>Jun 15
7 Contributions</title>
  <animate attributeName="opacity" from="0" to="1" dur="0.4s" begin="1.40s" fill="freeze"/>
  <animate attributeName="r" values="3.3;4.3;3.3" dur="4s" begin="1.80s" repeatCount="indefinite"/>
</circle>
<circle cx="382.1" cy="394.8" r="2.8" fill="#58A6B8" stroke="#0d0d0d" stroke-width="1" filter="url(#glowSm)" opacity="0">
  <title>Jun 16
4 Contributions</title>
  <animate attributeName="opacity" from="0" to="1" dur="0.4s" begin="1.46s" fill="freeze"/>
  <animate attributeName="r" values="2.8;3.8;2.8" dur="4s" begin="1.86s" repeatCount="indefinite"/>
</circle>
<circle cx="408.6" cy="342.0" r="3.8" fill="#58A6B8" stroke="#0d0d0d" stroke-width="1" filter="url(#glowSm)" opacity="0">
  <title>Jun 17
10 Contributions</title>
  <animate attributeName="opacity" from="0" to="1" dur="0.4s" begin="1.52s" fill="freeze"/>
  <animate attributeName="r" values="3.8;4.8;3.8" dur="4s" begin="1.92s" repeatCount="indefinite"/>
</circle>
<circle cx="435.2" cy="333.2" r="4.0" fill="#58A6B8" stroke="#0d0d0d" stroke-width="1" filter="url(#glowSm)" opacity="0">
  <title>Jun 18
11 Contributions</title>
  <animate attributeName="opacity" from="0" to="1" dur="0.4s" begin="1.58s" fill="freeze"/>
  <animate attributeName="r" values="4.0;5.0;4.0" dur="4s" begin="1.98s" repeatCount="indefinite"/>
</circle>
<circle cx="461.7" cy="236.4" r="18" fill="url(#haloGrad)" opacity="0">
  <animate attributeName="opacity" values="0;0.6;0.3;0.6" dur="4s" begin="1.64s" repeatCount="indefinite"/>
  <animate attributeName="r" values="14;22;14" dur="4s" begin="1.64s" repeatCount="indefinite"/>
</circle>
<circle cx="461.7" cy="236.4" r="7.2" fill="#e8f4f7" stroke="#0d0d0d" stroke-width="1" filter="url(#glowMd)" opacity="0">
  <title>Jun 19
22 Contributions</title>
  <animate attributeName="opacity" from="0" to="1" dur="0.4s" begin="1.64s" fill="freeze"/>
  <animate attributeName="r" values="7.2;9.2;7.2" dur="3s" begin="2.04s" repeatCount="indefinite"/>
</circle>
<circle cx="488.3" cy="394.8" r="2.8" fill="#58A6B8" stroke="#0d0d0d" stroke-width="1" filter="url(#glowSm)" opacity="0">
  <title>Jun 20
4 Contributions</title>
  <animate attributeName="opacity" from="0" to="1" dur="0.4s" begin="1.70s" fill="freeze"/>
  <animate attributeName="r" values="2.8;3.8;2.8" dur="4s" begin="2.10s" repeatCount="indefinite"/>
</circle>
<circle cx="514.8" cy="421.2" r="2.4" fill="#58A6B8" stroke="#0d0d0d" stroke-width="1" filter="url(#glowSm)" opacity="0">
  <title>Jun 21
1 Contribution</title>
  <animate attributeName="opacity" from="0" to="1" dur="0.4s" begin="1.76s" fill="freeze"/>
  <animate attributeName="r" values="2.4;3.4;2.4" dur="4s" begin="2.16s" repeatCount="indefinite"/>
</circle>
<circle cx="541.4" cy="412.4" r="2.5" fill="#58A6B8" stroke="#0d0d0d" stroke-width="1" filter="url(#glowSm)" opacity="0">
  <title>Jun 22
2 Contributions</title>
  <animate attributeName="opacity" from="0" to="1" dur="0.4s" begin="1.82s" fill="freeze"/>
  <animate attributeName="r" values="2.5;3.5;2.5" dur="4s" begin="2.22s" repeatCount="indefinite"/>
</circle>
<circle cx="567.9" cy="386.0" r="3.0" fill="#58A6B8" stroke="#0d0d0d" stroke-width="1" filter="url(#glowSm)" opacity="0">
  <title>Jun 23
5 Contributions</title>
  <animate attributeName="opacity" from="0" to="1" dur="0.4s" begin="1.88s" fill="freeze"/>
  <animate attributeName="r" values="3.0;4.0;3.0" dur="4s" begin="2.28s" repeatCount="indefinite"/>
</circle>
<circle cx="594.5" cy="403.6" r="2.7" fill="#58A6B8" stroke="#0d0d0d" stroke-width="1" filter="url(#glowSm)" opacity="0">
  <title>Jun 24
3 Contributions</title>
  <animate attributeName="opacity" from="0" to="1" dur="0.4s" begin="1.94s" fill="freeze"/>
  <animate attributeName="r" values="2.7;3.7;2.7" dur="4s" begin="2.34s" repeatCount="indefinite"/>
</circle>
<circle cx="621.0" cy="421.2" r="2.4" fill="#58A6B8" stroke="#0d0d0d" stroke-width="1" filter="url(#glowSm)" opacity="0">
  <title>Jun 25
1 Contribution</title>
  <animate attributeName="opacity" from="0" to="1" dur="0.4s" begin="2.00s" fill="freeze"/>
  <animate attributeName="r" values="2.4;3.4;2.4" dur="4s" begin="2.40s" repeatCount="indefinite"/>
</circle>
<circle cx="647.6" cy="430.0" r="2.2" fill="#58A6B8" stroke="#0d0d0d" stroke-width="1" filter="url(#glowSm)" opacity="0">
  <title>Jun 26
0 Contributions</title>
  <animate attributeName="opacity" from="0" to="1" dur="0.4s" begin="2.06s" fill="freeze"/>
  <animate attributeName="r" values="2.2;3.2;2.2" dur="4s" begin="2.46s" repeatCount="indefinite"/>
</circle>
<circle cx="674.1" cy="430.0" r="2.2" fill="#58A6B8" stroke="#0d0d0d" stroke-width="1" filter="url(#glowSm)" opacity="0">
  <title>Jun 27
0 Contributions</title>
  <animate attributeName="opacity" from="0" to="1" dur="0.4s" begin="2.12s" fill="freeze"/>
  <animate attributeName="r" values="2.2;3.2;2.2" dur="4s" begin="2.52s" repeatCount="indefinite"/>
</circle>
<circle cx="700.7" cy="430.0" r="2.2" fill="#58A6B8" stroke="#0d0d0d" stroke-width="1" filter="url(#glowSm)" opacity="0">
  <title>Jun 28
0 Contributions</title>
  <animate attributeName="opacity" from="0" to="1" dur="0.4s" begin="2.18s" fill="freeze"/>
  <animate attributeName="r" values="2.2;3.2;2.2" dur="4s" begin="2.58s" repeatCount="indefinite"/>
</circle>
<circle cx="727.2" cy="430.0" r="2.2" fill="#58A6B8" stroke="#0d0d0d" stroke-width="1" filter="url(#glowSm)" opacity="0">
  <title>Jun 29
0 Contributions</title>
  <animate attributeName="opacity" from="0" to="1" dur="0.4s" begin="2.24s" fill="freeze"/>
  <animate attributeName="r" values="2.2;3.2;2.2" dur="4s" begin="2.64s" repeatCount="indefinite"/>
</circle>
<circle cx="753.8" cy="386.0" r="3.0" fill="#58A6B8" stroke="#0d0d0d" stroke-width="1" filter="url(#glowSm)" opacity="0">
  <title>Jun 30
5 Contributions</title>
  <animate attributeName="opacity" from="0" to="1" dur="0.4s" begin="2.30s" fill="freeze"/>
  <animate attributeName="r" values="3.0;4.0;3.0" dur="4s" begin="2.70s" repeatCount="indefinite"/>
</circle>
<circle cx="780.3" cy="377.2" r="3.2" fill="#58A6B8" stroke="#0d0d0d" stroke-width="1" filter="url(#glowSm)" opacity="0">
  <title>Jul 1
6 Contributions</title>
  <animate attributeName="opacity" from="0" to="1" dur="0.4s" begin="2.36s" fill="freeze"/>
  <animate attributeName="r" values="3.2;4.2;3.2" dur="4s" begin="2.76s" repeatCount="indefinite"/>
</circle>
<circle cx="806.9" cy="350.8" r="3.6" fill="#58A6B8" stroke="#0d0d0d" stroke-width="1" filter="url(#glowSm)" opacity="0">
  <title>Jul 2
9 Contributions</title>
  <animate attributeName="opacity" from="0" to="1" dur="0.4s" begin="2.42s" fill="freeze"/>
  <animate attributeName="r" values="3.6;4.6;3.6" dur="4s" begin="2.82s" repeatCount="indefinite"/>
</circle>
<circle cx="833.4" cy="421.2" r="2.4" fill="#58A6B8" stroke="#0d0d0d" stroke-width="1" filter="url(#glowSm)" opacity="0">
  <title>Jul 3
1 Contribution</title>
  <animate attributeName="opacity" from="0" to="1" dur="0.4s" begin="2.48s" fill="freeze"/>
  <animate attributeName="r" values="2.4;3.4;2.4" dur="4s" begin="2.88s" repeatCount="indefinite"/>
</circle>
<circle cx="860.0" cy="430.0" r="2.2" fill="#58A6B8" stroke="#0d0d0d" stroke-width="1" filter="url(#glowSm)" opacity="0">
  <title>Jul 4
0 Contributions</title>
  <animate attributeName="opacity" from="0" to="1" dur="0.4s" begin="2.54s" fill="freeze"/>
  <animate attributeName="r" values="2.2;3.2;2.2" dur="4s" begin="2.94s" repeatCount="indefinite"/>
</circle>
<text x="90" y="466" text-anchor="start" font-family="Georgia,'Palatino Linotype',serif" font-size="10" fill="#5a7a80" letter-spacing="1.5">JUN</text>
<text x="860" y="466" text-anchor="end" font-family="Georgia,'Palatino Linotype',serif" font-size="10" fill="#5a7a80" letter-spacing="1.5">JUL</text>
<text x="450" y="522" text-anchor="middle" font-family="Georgia,'Palatino Linotype',serif" font-size="9" fill="#5a7a80" letter-spacing="4" opacity="0.5">LAST 30 DAYS OF DARK RITUALS</text>
</svg>