<svg xmlns="http://www.w3.org/2000/svg" viewBox="0 0 900 540" width="900" height="540">
<defs>
  <!-- Gradients -->
  <linearGradient id="areaFill" x1="0" y1="0" x2="0" y2="1">
    <stop offset="0%" stop-color="#58A6B8" stop-opacity="0.28"/>
    <stop offset="85%" stop-color="#58A6B8" stop-opacity="0.03"/>
    <stop offset="100%" stop-color="#58A6B8" stop-opacity="0"/>
  </linearGradient>
  <radialGradient id="haloGrad" cx="50%" cy="50%" r="50%">
    <stop offset="0%" stop-color="#58A6B8" stop-opacity="0.5"/>
    <stop offset="100%" stop-color="#58A6B8" stop-opacity="0"/>
  </radialGradient>
  <linearGradient id="frameFade" x1="0" y1="0" x2="1" y2="1">
    <stop offset="0%" stop-color="#58A6B8" stop-opacity="0.35"/>
    <stop offset="50%" stop-color="#58A6B8" stop-opacity="0.12"/>
    <stop offset="100%" stop-color="#58A6B8" stop-opacity="0.35"/>
  </linearGradient>
  <!-- Filters -->
  <filter id="glowSm" x="-50%" y="-50%" width="200%" height="200%">
    <feGaussianBlur stdDeviation="2.5" result="b"/><feMerge><feMergeNode in="b"/><feMergeNode in="SourceGraphic"/></feMerge>
  </filter>
  <filter id="glowMd" x="-50%" y="-50%" width="200%" height="200%">
    <feGaussianBlur stdDeviation="5" result="b"/><feMerge><feMergeNode in="b"/><feMergeNode in="SourceGraphic"/></feMerge>
  </filter>
  <filter id="glowLg" x="-80%" y="-80%" width="260%" height="260%">
    <feGaussianBlur stdDeviation="10" result="b"/><feMerge><feMergeNode in="b"/><feMergeNode in="SourceGraphic"/></feMerge>
  </filter>
  <filter id="cardShadow" x="-10%" y="-10%" width="120%" height="130%">
    <feGaussianBlur stdDeviation="6" result="b"/><feFlood flood-color="#58A6B8" flood-opacity="0.08" result="c"/>
    <feComposite in="c" in2="b" operator="in" result="s"/><feMerge><feMergeNode in="s"/><feMergeNode in="SourceGraphic"/></feMerge>
  </filter>
</defs>

<!-- Background -->
<rect width="900" height="540" fill="#0d0d0d" rx="16"/>
<line x1="90" y1="210.0" x2="860" y2="210.0" stroke="rgba(88,166,184,0.055)" stroke-width="0.7"/>
<line x1="90" y1="246.7" x2="860" y2="246.7" stroke="rgba(88,166,184,0.055)" stroke-width="0.7"/>
<line x1="90" y1="283.3" x2="860" y2="283.3" stroke="rgba(88,166,184,0.055)" stroke-width="0.7"/>
<line x1="90" y1="320.0" x2="860" y2="320.0" stroke="rgba(88,166,184,0.055)" stroke-width="0.7"/>
<line x1="90" y1="356.7" x2="860" y2="356.7" stroke="rgba(88,166,184,0.055)" stroke-width="0.7"/>
<line x1="90" y1="393.3" x2="860" y2="393.3" stroke="rgba(88,166,184,0.055)" stroke-width="0.7"/>
<line x1="90" y1="430.0" x2="860" y2="430.0" stroke="rgba(88,166,184,0.055)" stroke-width="0.7"/>
<line x1="90.0" y1="210" x2="90.0" y2="430" stroke="rgba(88,166,184,0.055)" stroke-width="0.5"/>
<line x1="222.8" y1="210" x2="222.8" y2="430" stroke="rgba(88,166,184,0.055)" stroke-width="0.5"/>
<line x1="355.5" y1="210" x2="355.5" y2="430" stroke="rgba(88,166,184,0.055)" stroke-width="0.5"/>
<line x1="488.3" y1="210" x2="488.3" y2="430" stroke="rgba(88,166,184,0.055)" stroke-width="0.5"/>
<line x1="621.0" y1="210" x2="621.0" y2="430" stroke="rgba(88,166,184,0.055)" stroke-width="0.5"/>
<line x1="753.8" y1="210" x2="753.8" y2="430" stroke="rgba(88,166,184,0.055)" stroke-width="0.5"/>
<circle cx="598.3" cy="435.6" r="0.3" fill="#58A6B8" opacity="0.085"><animate attributeName="opacity" values="0.085;0.187;0.085" dur="3.8s" begin="5.6s" repeatCount="indefinite"/></circle>
<circle cx="381.8" cy="439.1" r="0.4" fill="#58A6B8" opacity="0.159"><animate attributeName="opacity" values="0.159;0.350;0.159" dur="7.2s" begin="5.4s" repeatCount="indefinite"/></circle>
<circle cx="335.0" cy="131.8" r="1.3" fill="#58A6B8" opacity="0.149"><animate attributeName="opacity" values="0.149;0.328;0.149" dur="8.5s" begin="6.0s" repeatCount="indefinite"/></circle>
<circle cx="831.9" cy="498.4" r="0.5" fill="#58A6B8" opacity="0.042"><animate attributeName="opacity" values="0.042;0.092;0.042" dur="6.8s" begin="3.4s" repeatCount="indefinite"/></circle>
<circle cx="238.7" cy="125.2" r="0.5" fill="#58A6B8" opacity="0.154"><animate attributeName="opacity" values="0.154;0.339;0.154" dur="3.9s" begin="0.8s" repeatCount="indefinite"/></circle>
<circle cx="808.4" cy="144.3" r="1.3" fill="#58A6B8" opacity="0.157"><animate attributeName="opacity" values="0.157;0.345;0.157" dur="3.9s" begin="5.4s" repeatCount="indefinite"/></circle>
<circle cx="176.6" cy="209.1" r="0.4" fill="#58A6B8" opacity="0.107"><animate attributeName="opacity" values="0.107;0.235;0.107" dur="7.0s" begin="4.0s" repeatCount="indefinite"/></circle>
<circle cx="770.2" cy="55.0" r="0.6" fill="#58A6B8" opacity="0.106"><animate attributeName="opacity" values="0.106;0.233;0.106" dur="3.8s" begin="3.7s" repeatCount="indefinite"/></circle>
<circle cx="73.6" cy="168.0" r="0.5" fill="#58A6B8" opacity="0.051"><animate attributeName="opacity" values="0.051;0.112;0.051" dur="4.0s" begin="2.7s" repeatCount="indefinite"/></circle>
<circle cx="410.7" cy="303.1" r="0.6" fill="#58A6B8" opacity="0.041"><animate attributeName="opacity" values="0.041;0.090;0.041" dur="4.5s" begin="1.6s" repeatCount="indefinite"/></circle>
<circle cx="42.8" cy="363.8" r="1.0" fill="#58A6B8" opacity="0.144"><animate attributeName="opacity" values="0.144;0.317;0.144" dur="5.4s" begin="4.3s" repeatCount="indefinite"/></circle>
<circle cx="899.9" cy="290.8" r="0.9" fill="#58A6B8" opacity="0.112"><animate attributeName="opacity" values="0.112;0.246;0.112" dur="5.1s" begin="5.7s" repeatCount="indefinite"/></circle>
<circle cx="580.7" cy="334.4" r="0.9" fill="#58A6B8" opacity="0.091"><animate attributeName="opacity" values="0.091;0.200;0.091" dur="3.6s" begin="5.0s" repeatCount="indefinite"/></circle>
<circle cx="113.8" cy="16.6" r="1.0" fill="#58A6B8" opacity="0.091"><animate attributeName="opacity" values="0.091;0.200;0.091" dur="7.6s" begin="2.8s" repeatCount="indefinite"/></circle>
<circle cx="258.1" cy="390.4" r="0.5" fill="#58A6B8" opacity="0.078"><animate attributeName="opacity" values="0.078;0.172;0.078" dur="3.9s" begin="0.6s" repeatCount="indefinite"/></circle>
<circle cx="358.2" cy="76.5" r="0.8" fill="#58A6B8" opacity="0.087"><animate attributeName="opacity" values="0.087;0.191;0.087" dur="6.9s" begin="0.5s" repeatCount="indefinite"/></circle>
<circle cx="14.0" cy="212.9" r="1.3" fill="#58A6B8" opacity="0.159"><animate attributeName="opacity" values="0.159;0.350;0.159" dur="5.9s" begin="1.3s" repeatCount="indefinite"/></circle>
<circle cx="411.2" cy="83.9" r="0.6" fill="#58A6B8" opacity="0.125"><animate attributeName="opacity" values="0.125;0.275;0.125" dur="6.4s" begin="1.6s" repeatCount="indefinite"/></circle>
<circle cx="499.0" cy="41.8" r="0.6" fill="#58A6B8" opacity="0.142"><animate attributeName="opacity" values="0.142;0.312;0.142" dur="7.8s" begin="4.3s" repeatCount="indefinite"/></circle>
<circle cx="650.2" cy="324.3" r="0.6" fill="#58A6B8" opacity="0.097"><animate attributeName="opacity" values="0.097;0.213;0.097" dur="5.1s" begin="0.1s" repeatCount="indefinite"/></circle>
<circle cx="11.5" cy="200.1" r="0.3" fill="#58A6B8" opacity="0.091"><animate attributeName="opacity" values="0.091;0.200;0.091" dur="5.9s" begin="2.4s" repeatCount="indefinite"/></circle>
<circle cx="784.8" cy="470.7" r="0.4" fill="#58A6B8" opacity="0.064"><animate attributeName="opacity" values="0.064;0.141;0.064" dur="5.7s" begin="1.8s" repeatCount="indefinite"/></circle>
<circle cx="92.2" cy="453.4" r="1.2" fill="#58A6B8" opacity="0.137"><animate attributeName="opacity" values="0.137;0.301;0.137" dur="7.3s" begin="0.1s" repeatCount="indefinite"/></circle>
<circle cx="311.9" cy="47.4" r="1.0" fill="#58A6B8" opacity="0.049"><animate attributeName="opacity" values="0.049;0.108;0.049" dur="4.1s" begin="5.0s" repeatCount="indefinite"/></circle>
<circle cx="554.2" cy="422.7" r="0.4" fill="#58A6B8" opacity="0.100"><animate attributeName="opacity" values="0.100;0.220;0.100" dur="7.1s" begin="4.6s" repeatCount="indefinite"/></circle>
<circle cx="52.5" cy="395.2" r="0.3" fill="#58A6B8" opacity="0.081"><animate attributeName="opacity" values="0.081;0.178;0.081" dur="7.0s" begin="1.4s" repeatCount="indefinite"/></circle>
<circle cx="148.8" cy="457.9" r="0.8" fill="#58A6B8" opacity="0.133"><animate attributeName="opacity" values="0.133;0.293;0.133" dur="7.8s" begin="0.2s" repeatCount="indefinite"/></circle>
<circle cx="513.2" cy="515.5" r="1.2" fill="#58A6B8" opacity="0.149"><animate attributeName="opacity" values="0.149;0.328;0.149" dur="4.6s" begin="0.1s" repeatCount="indefinite"/></circle>
<circle cx="256.2" cy="127.0" r="0.3" fill="#58A6B8" opacity="0.075"><animate attributeName="opacity" values="0.075;0.165;0.075" dur="5.0s" begin="3.8s" repeatCount="indefinite"/></circle>
<circle cx="13.6" cy="49.2" r="0.5" fill="#58A6B8" opacity="0.147"><animate attributeName="opacity" values="0.147;0.323;0.147" dur="3.6s" begin="1.4s" repeatCount="indefinite"/></circle>
<circle cx="44.1" cy="448.6" r="1.1" fill="#58A6B8" opacity="0.068"><animate attributeName="opacity" values="0.068;0.150;0.068" dur="5.9s" begin="3.0s" repeatCount="indefinite"/></circle>
<circle cx="612.7" cy="209.0" r="1.2" fill="#58A6B8" opacity="0.070"><animate attributeName="opacity" values="0.070;0.154;0.070" dur="6.2s" begin="4.3s" repeatCount="indefinite"/></circle>
<circle cx="806.5" cy="321.1" r="1.3" fill="#58A6B8" opacity="0.047"><animate attributeName="opacity" values="0.047;0.103;0.047" dur="4.9s" begin="2.7s" repeatCount="indefinite"/></circle>
<circle cx="811.4" cy="6.2" r="0.8" fill="#58A6B8" opacity="0.138"><animate attributeName="opacity" values="0.138;0.304;0.138" dur="5.2s" begin="2.1s" repeatCount="indefinite"/></circle>
<circle cx="440.8" cy="322.5" r="1.3" fill="#58A6B8" opacity="0.041"><animate attributeName="opacity" values="0.041;0.090;0.041" dur="4.9s" begin="2.2s" repeatCount="indefinite"/></circle>
<circle cx="190.5" cy="26.6" r="0.9" fill="#58A6B8" opacity="0.059"><animate attributeName="opacity" values="0.059;0.130;0.059" dur="6.2s" begin="0.4s" repeatCount="indefinite"/></circle>
<circle cx="27.2" cy="510.1" r="0.7" fill="#58A6B8" opacity="0.098"><animate attributeName="opacity" values="0.098;0.216;0.098" dur="6.1s" begin="2.5s" repeatCount="indefinite"/></circle>
<circle cx="481.8" cy="168.8" r="1.0" fill="#58A6B8" opacity="0.104"><animate attributeName="opacity" values="0.104;0.229;0.104" dur="6.7s" begin="4.2s" repeatCount="indefinite"/></circle>
<circle cx="317.3" cy="274.5" r="0.4" fill="#58A6B8" opacity="0.120"><animate attributeName="opacity" values="0.120;0.264;0.120" dur="7.2s" begin="1.7s" repeatCount="indefinite"/></circle>
<circle cx="572.6" cy="112.8" r="0.7" fill="#58A6B8" opacity="0.105"><animate attributeName="opacity" values="0.105;0.231;0.105" dur="4.8s" begin="4.0s" repeatCount="indefinite"/></circle>
<circle cx="457.0" cy="85.0" r="0.6" fill="#58A6B8" opacity="0.059"><animate attributeName="opacity" values="0.059;0.130;0.059" dur="8.2s" begin="4.4s" repeatCount="indefinite"/></circle>
<circle cx="538.5" cy="414.9" r="1.2" fill="#58A6B8" opacity="0.068"><animate attributeName="opacity" values="0.068;0.150;0.068" dur="8.2s" begin="0.9s" repeatCount="indefinite"/></circle>
<circle cx="640.2" cy="199.8" r="1.1" fill="#58A6B8" opacity="0.077"><animate attributeName="opacity" values="0.077;0.169;0.077" dur="5.6s" begin="5.7s" repeatCount="indefinite"/></circle>
<circle cx="62.4" cy="103.3" r="0.5" fill="#58A6B8" opacity="0.104"><animate attributeName="opacity" values="0.104;0.229;0.104" dur="6.7s" begin="2.1s" repeatCount="indefinite"/></circle>
<circle cx="211.4" cy="39.4" r="1.1" fill="#58A6B8" opacity="0.103"><animate attributeName="opacity" values="0.103;0.227;0.103" dur="4.4s" begin="2.8s" repeatCount="indefinite"/></circle>
<circle cx="693.5" cy="432.3" r="0.9" fill="#58A6B8" opacity="0.055"><animate attributeName="opacity" values="0.055;0.121;0.055" dur="6.7s" begin="1.7s" repeatCount="indefinite"/></circle>
<circle cx="24.0" cy="159.9" r="0.5" fill="#58A6B8" opacity="0.114"><animate attributeName="opacity" values="0.114;0.251;0.114" dur="4.8s" begin="4.2s" repeatCount="indefinite"/></circle>
<circle cx="448.7" cy="347.5" r="1.2" fill="#58A6B8" opacity="0.108"><animate attributeName="opacity" values="0.108;0.238;0.108" dur="4.4s" begin="4.1s" repeatCount="indefinite"/></circle>
<circle cx="76.3" cy="52.0" r="0.6" fill="#58A6B8" opacity="0.113"><animate attributeName="opacity" values="0.113;0.249;0.113" dur="4.4s" begin="5.9s" repeatCount="indefinite"/></circle>
<circle cx="639.0" cy="306.6" r="1.4" fill="#58A6B8" opacity="0.109"><animate attributeName="opacity" values="0.109;0.240;0.109" dur="8.2s" begin="4.3s" repeatCount="indefinite"/></circle>
<circle cx="384.5" cy="531.2" r="0.6" fill="#58A6B8" opacity="0.146"><animate attributeName="opacity" values="0.146;0.321;0.146" dur="7.6s" begin="2.1s" repeatCount="indefinite"/></circle>
<circle cx="545.0" cy="424.7" r="0.5" fill="#58A6B8" opacity="0.134"><animate attributeName="opacity" values="0.134;0.295;0.134" dur="8.0s" begin="3.1s" repeatCount="indefinite"/></circle>
<circle cx="801.8" cy="502.7" r="0.5" fill="#58A6B8" opacity="0.064"><animate attributeName="opacity" values="0.064;0.141;0.064" dur="6.0s" begin="2.8s" repeatCount="indefinite"/></circle>
<circle cx="60.6" cy="399.2" r="1.3" fill="#58A6B8" opacity="0.120"><animate attributeName="opacity" values="0.120;0.264;0.120" dur="7.6s" begin="3.8s" repeatCount="indefinite"/></circle>
<circle cx="754.6" cy="230.1" r="1.0" fill="#58A6B8" opacity="0.105"><animate attributeName="opacity" values="0.105;0.231;0.105" dur="7.7s" begin="3.5s" repeatCount="indefinite"/></circle>
<g transform="translate(398.7,259.8) rotate(45)" opacity="0.070"><rect x="-1.7" y="-1.7" width="3.4" height="3.4" fill="#58A6B8"/><animate attributeName="opacity" values="0.070;0.175;0.070" dur="6.6s" begin="1.6s" repeatCount="indefinite"/></g>
<g transform="translate(495.4,381.9) rotate(45)" opacity="0.055"><rect x="-1.3" y="-1.3" width="2.6" height="2.6" fill="#58A6B8"/><animate attributeName="opacity" values="0.055;0.138;0.055" dur="7.8s" begin="2.9s" repeatCount="indefinite"/></g>
<g transform="translate(605.1,123.5) rotate(45)" opacity="0.053"><rect x="-1.8" y="-1.8" width="3.6" height="3.6" fill="#58A6B8"/><animate attributeName="opacity" values="0.053;0.133;0.053" dur="7.9s" begin="4.5s" repeatCount="indefinite"/></g>
<g transform="translate(663.4,247.8) rotate(45)" opacity="0.069"><rect x="-1.6" y="-1.6" width="3.2" height="3.2" fill="#58A6B8"/><animate attributeName="opacity" values="0.069;0.173;0.069" dur="9.8s" begin="2.0s" repeatCount="indefinite"/></g>
<g transform="translate(140.6,410.8) rotate(45)" opacity="0.056"><rect x="-1.3" y="-1.3" width="2.6" height="2.6" fill="#58A6B8"/><animate attributeName="opacity" values="0.056;0.140;0.056" dur="7.0s" begin="0.8s" repeatCount="indefinite"/></g>
<g transform="translate(470.9,288.8) rotate(45)" opacity="0.086"><rect x="-1.9" y="-1.9" width="3.7" height="3.7" fill="#58A6B8"/><animate attributeName="opacity" values="0.086;0.215;0.086" dur="6.7s" begin="1.6s" repeatCount="indefinite"/></g>
<g transform="translate(752.6,217.1) rotate(45)" opacity="0.057"><rect x="-1.5" y="-1.5" width="3.1" height="3.1" fill="#58A6B8"/><animate attributeName="opacity" values="0.057;0.143;0.057" dur="6.4s" begin="1.2s" repeatCount="indefinite"/></g>
<g transform="translate(65.3,60.3) rotate(45)" opacity="0.088"><rect x="-2.2" y="-2.2" width="4.5" height="4.5" fill="#58A6B8"/><animate attributeName="opacity" values="0.088;0.220;0.088" dur="8.7s" begin="4.3s" repeatCount="indefinite"/></g>
<g transform="translate(18,18) scale(1,1)"><path d="M0 25 L0 6 Q0 0 6 0 L25 0" fill="none" stroke="#58A6B8" stroke-width="1.3" opacity="0.35"/><circle cx="0" cy="0" r="1.8" fill="#58A6B8" opacity="0.4"/><path d="M0 12 L5 12" fill="none" stroke="#58A6B8" stroke-width="0.6" opacity="0.2"/><path d="M12 0 L12 5" fill="none" stroke="#58A6B8" stroke-width="0.6" opacity="0.2"/></g><g transform="translate(882,18) scale(-1,1)"><path d="M0 25 L0 6 Q0 0 6 0 L25 0" fill="none" stroke="#58A6B8" stroke-width="1.3" opacity="0.35"/><circle cx="0" cy="0" r="1.8" fill="#58A6B8" opacity="0.4"/><path d="M0 12 L5 12" fill="none" stroke="#58A6B8" stroke-width="0.6" opacity="0.2"/><path d="M12 0 L12 5" fill="none" stroke="#58A6B8" stroke-width="0.6" opacity="0.2"/></g><g transform="translate(18,522) scale(1,-1)"><path d="M0 25 L0 6 Q0 0 6 0 L25 0" fill="none" stroke="#58A6B8" stroke-width="1.3" opacity="0.35"/><circle cx="0" cy="0" r="1.8" fill="#58A6B8" opacity="0.4"/><path d="M0 12 L5 12" fill="none" stroke="#58A6B8" stroke-width="0.6" opacity="0.2"/><path d="M12 0 L12 5" fill="none" stroke="#58A6B8" stroke-width="0.6" opacity="0.2"/></g><g transform="translate(882,522) scale(-1,-1)"><path d="M0 25 L0 6 Q0 0 6 0 L25 0" fill="none" stroke="#58A6B8" stroke-width="1.3" opacity="0.35"/><circle cx="0" cy="0" r="1.8" fill="#58A6B8" opacity="0.4"/><path d="M0 12 L5 12" fill="none" stroke="#58A6B8" stroke-width="0.6" opacity="0.2"/><path d="M12 0 L12 5" fill="none" stroke="#58A6B8" stroke-width="0.6" opacity="0.2"/></g>
<rect x="10" y="10" width="880" height="520" rx="12" fill="none" stroke="url(#frameFade)" stroke-width="1"/>
<text x="450" y="50" text-anchor="middle" font-family="Georgia,'Palatino Linotype','Book Antiqua',Palatino,serif" font-size="22" font-weight="bold" fill="#e8f4f7" letter-spacing="8" filter="url(#glowMd)">✧ THE COMMIT COVEN ✧</text>
<line x1="310" y1="62" x2="590" y2="62" stroke="#58A6B8" stroke-width="0.5" opacity="0.25"/>
<g filter="url(#cardShadow)"><rect x="70" y="80" width="240" height="78" rx="10" fill="rgba(88,166,184,0.05)" stroke="rgba(88,166,184,0.22)" stroke-width="0.8"/><text x="190" y="110" text-anchor="middle" font-family="Georgia,'Palatino Linotype',serif" font-size="11" fill="#5a7a80" letter-spacing="3" text-transform="uppercase">LONGEST STREAK</text><text x="190" y="136" text-anchor="middle" font-family="Georgia,'Palatino Linotype',serif" font-size="20" fill="#e8f4f7" font-weight="bold" filter="url(#glowSm)">12 Nights</text></g>
<g filter="url(#cardShadow)"><rect x="330" y="80" width="240" height="78" rx="10" fill="rgba(88,166,184,0.05)" stroke="rgba(88,166,184,0.22)" stroke-width="0.8"/><text x="450" y="110" text-anchor="middle" font-family="Georgia,'Palatino Linotype',serif" font-size="11" fill="#5a7a80" letter-spacing="3" text-transform="uppercase">CURRENT RITUAL</text><text x="450" y="136" text-anchor="middle" font-family="Georgia,'Palatino Linotype',serif" font-size="20" fill="#e8f4f7" font-weight="bold" filter="url(#glowSm)">0 Nights</text></g>
<g filter="url(#cardShadow)"><rect x="590" y="80" width="240" height="78" rx="10" fill="rgba(88,166,184,0.05)" stroke="rgba(88,166,184,0.22)" stroke-width="0.8"/><text x="710" y="110" text-anchor="middle" font-family="Georgia,'Palatino Linotype',serif" font-size="11" fill="#5a7a80" letter-spacing="3" text-transform="uppercase">TOTAL OFFERINGS</text><text x="710" y="136" text-anchor="middle" font-family="Georgia,'Palatino Linotype',serif" font-size="20" fill="#e8f4f7" font-weight="bold" filter="url(#glowSm)">164</text></g>
<text x="80" y="434.0" text-anchor="end" font-family="'Courier New',monospace" font-size="10" fill="#5a7a80">0</text>
<line x1="86" y1="430.0" x2="90" y2="430.0" stroke="#5a7a80" stroke-width="0.5"/>
<text x="80" y="390.0" text-anchor="end" font-family="'Courier New',monospace" font-size="10" fill="#5a7a80">3</text>
<line x1="86" y1="386.0" x2="90" y2="386.0" stroke="#5a7a80" stroke-width="0.5"/>
<text x="80" y="346.0" text-anchor="end" font-family="'Courier New',monospace" font-size="10" fill="#5a7a80">6</text>
<line x1="86" y1="342.0" x2="90" y2="342.0" stroke="#5a7a80" stroke-width="0.5"/>
<text x="80" y="302.0" text-anchor="end" font-family="'Courier New',monospace" font-size="10" fill="#5a7a80">9</text>
<line x1="86" y1="298.0" x2="90" y2="298.0" stroke="#5a7a80" stroke-width="0.5"/>
<text x="80" y="258.0" text-anchor="end" font-family="'Courier New',monospace" font-size="10" fill="#5a7a80">12</text>
<line x1="86" y1="254.0" x2="90" y2="254.0" stroke="#5a7a80" stroke-width="0.5"/>
<text x="80" y="214.0" text-anchor="end" font-family="'Courier New',monospace" font-size="10" fill="#5a7a80">15</text>
<line x1="86" y1="210.0" x2="90" y2="210.0" stroke="#5a7a80" stroke-width="0.5"/>
<text x="90.0" y="450" text-anchor="middle" font-family="'Courier New',monospace" font-size="10" fill="#5a7a80">30</text>
<text x="196.2" y="450" text-anchor="middle" font-family="'Courier New',monospace" font-size="10" fill="#5a7a80">3</text>
<text x="302.4" y="450" text-anchor="middle" font-family="'Courier New',monospace" font-size="10" fill="#5a7a80">7</text>
<text x="408.6" y="450" text-anchor="middle" font-family="'Courier New',monospace" font-size="10" fill="#5a7a80">11</text>
<text x="514.8" y="450" text-anchor="middle" font-family="'Courier New',monospace" font-size="10" fill="#5a7a80">15</text>
<text x="621.0" y="450" text-anchor="middle" font-family="'Courier New',monospace" font-size="10" fill="#5a7a80">19</text>
<text x="727.2" y="450" text-anchor="middle" font-family="'Courier New',monospace" font-size="10" fill="#5a7a80">23</text>
<text x="833.4" y="450" text-anchor="middle" font-family="'Courier New',monospace" font-size="10" fill="#5a7a80">27</text>
<text x="860.0" y="450" text-anchor="middle" font-family="'Courier New',monospace" font-size="10" fill="#5a7a80">28</text>
<line x1="90" y1="210" x2="90" y2="430" stroke="#58A6B8" stroke-width="0.5" opacity="0.2"/>
<line x1="90" y1="430" x2="860" y2="430" stroke="#58A6B8" stroke-width="0.5" opacity="0.2"/>
<path d="M90.0 430.0 C93.5 430.0,109.5 430.0,116.6 430.0 C123.6 430.0,136.0 430.0,143.1 430.0 C150.2 430.0,162.6 432.0,169.7 430.0 C176.7 428.0,189.1 415.3,196.2 415.3 C203.3 415.3,215.7 428.0,222.8 430.0 C229.8 432.0,242.2 430.0,249.3 430.0 C256.4 430.0,268.8 430.0,275.9 430.0 C282.9 430.0,295.3 430.0,302.4 430.0 C309.5 430.0,321.9 430.0,329.0 430.0 C336.0 430.0,348.4 430.0,355.5 430.0 C362.6 430.0,375.0 430.0,382.1 430.0 C389.1 430.0,401.5 430.0,408.6 430.0 C415.7 430.0,428.1 430.0,435.2 430.0 C442.3 430.0,454.6 439.8,461.7 430.0 C468.8 420.2,481.2 370.4,488.3 356.7 C495.4 343.0,507.7 325.4,514.8 327.3 C521.9 329.3,534.3 377.2,541.4 371.3 C548.5 365.5,560.9 297.0,567.9 283.3 C575.0 269.6,587.4 276.5,594.5 268.7 C601.6 260.8,614.0 211.0,621.0 224.7 C628.1 238.4,640.5 345.9,647.6 371.3 C654.7 396.8,667.1 411.4,674.1 415.3 C681.2 419.2,693.6 408.5,700.7 400.7 C707.8 392.8,720.2 358.6,727.2 356.7 C734.3 354.7,746.7 378.2,753.8 386.0 C760.9 393.8,773.3 409.5,780.3 415.3 C787.4 421.2,799.8 428.0,806.9 430.0 C814.0 432.0,826.4 430.0,833.4 430.0 C840.5 430.0,856.5 430.0,860.0 430.0 L860.0 430 L90.0 430 Z" fill="url(#areaFill)" opacity="0.9">
  <animate attributeName="opacity" values="0;0.9" dur="2s" fill="freeze"/>
</path>
<path d="M90.0 430.0 C93.5 430.0,109.5 430.0,116.6 430.0 C123.6 430.0,136.0 430.0,143.1 430.0 C150.2 430.0,162.6 432.0,169.7 430.0 C176.7 428.0,189.1 415.3,196.2 415.3 C203.3 415.3,215.7 428.0,222.8 430.0 C229.8 432.0,242.2 430.0,249.3 430.0 C256.4 430.0,268.8 430.0,275.9 430.0 C282.9 430.0,295.3 430.0,302.4 430.0 C309.5 430.0,321.9 430.0,329.0 430.0 C336.0 430.0,348.4 430.0,355.5 430.0 C362.6 430.0,375.0 430.0,382.1 430.0 C389.1 430.0,401.5 430.0,408.6 430.0 C415.7 430.0,428.1 430.0,435.2 430.0 C442.3 430.0,454.6 439.8,461.7 430.0 C468.8 420.2,481.2 370.4,488.3 356.7 C495.4 343.0,507.7 325.4,514.8 327.3 C521.9 329.3,534.3 377.2,541.4 371.3 C548.5 365.5,560.9 297.0,567.9 283.3 C575.0 269.6,587.4 276.5,594.5 268.7 C601.6 260.8,614.0 211.0,621.0 224.7 C628.1 238.4,640.5 345.9,647.6 371.3 C654.7 396.8,667.1 411.4,674.1 415.3 C681.2 419.2,693.6 408.5,700.7 400.7 C707.8 392.8,720.2 358.6,727.2 356.7 C734.3 354.7,746.7 378.2,753.8 386.0 C760.9 393.8,773.3 409.5,780.3 415.3 C787.4 421.2,799.8 428.0,806.9 430.0 C814.0 432.0,826.4 430.0,833.4 430.0 C840.5 430.0,856.5 430.0,860.0 430.0" fill="none" stroke="#58A6B8" stroke-width="4" opacity="0.15" filter="url(#glowLg)" stroke-linecap="round" stroke-linejoin="round"/>
<path d="M90.0 430.0 C93.5 430.0,109.5 430.0,116.6 430.0 C123.6 430.0,136.0 430.0,143.1 430.0 C150.2 430.0,162.6 432.0,169.7 430.0 C176.7 428.0,189.1 415.3,196.2 415.3 C203.3 415.3,215.7 428.0,222.8 430.0 C229.8 432.0,242.2 430.0,249.3 430.0 C256.4 430.0,268.8 430.0,275.9 430.0 C282.9 430.0,295.3 430.0,302.4 430.0 C309.5 430.0,321.9 430.0,329.0 430.0 C336.0 430.0,348.4 430.0,355.5 430.0 C362.6 430.0,375.0 430.0,382.1 430.0 C389.1 430.0,401.5 430.0,408.6 430.0 C415.7 430.0,428.1 430.0,435.2 430.0 C442.3 430.0,454.6 439.8,461.7 430.0 C468.8 420.2,481.2 370.4,488.3 356.7 C495.4 343.0,507.7 325.4,514.8 327.3 C521.9 329.3,534.3 377.2,541.4 371.3 C548.5 365.5,560.9 297.0,567.9 283.3 C575.0 269.6,587.4 276.5,594.5 268.7 C601.6 260.8,614.0 211.0,621.0 224.7 C628.1 238.4,640.5 345.9,647.6 371.3 C654.7 396.8,667.1 411.4,674.1 415.3 C681.2 419.2,693.6 408.5,700.7 400.7 C707.8 392.8,720.2 358.6,727.2 356.7 C734.3 354.7,746.7 378.2,753.8 386.0 C760.9 393.8,773.3 409.5,780.3 415.3 C787.4 421.2,799.8 428.0,806.9 430.0 C814.0 432.0,826.4 430.0,833.4 430.0 C840.5 430.0,856.5 430.0,860.0 430.0" fill="none" stroke="#58A6B8" stroke-width="2.2" stroke-linecap="round" stroke-linejoin="round" filter="url(#glowSm)" stroke-dasharray="1517" stroke-dashoffset="1517">
  <animate attributeName="stroke-dashoffset" from="1517" to="0" dur="2.5s" fill="freeze" calcMode="spline" keySplines="0.4 0 0.2 1"/>
  <animate attributeName="opacity" values="0.7;1;0.85;1" dur="6s" begin="2.5s" repeatCount="indefinite"/>
</path>
<circle cx="90.0" cy="430.0" r="2.2" fill="#58A6B8" stroke="#0d0d0d" stroke-width="1" filter="url(#glowSm)" opacity="0">
  <title>May 30
0 Contributions</title>
  <animate attributeName="opacity" from="0" to="1" dur="0.4s" begin="0.80s" fill="freeze"/>
  <animate attributeName="r" values="2.2;3.2;2.2" dur="4s" begin="1.20s" repeatCount="indefinite"/>
</circle>
<circle cx="116.6" cy="430.0" r="2.2" fill="#58A6B8" stroke="#0d0d0d" stroke-width="1" filter="url(#glowSm)" opacity="0">
  <title>May 31
0 Contributions</title>
  <animate attributeName="opacity" from="0" to="1" dur="0.4s" begin="0.86s" fill="freeze"/>
  <animate attributeName="r" values="2.2;3.2;2.2" dur="4s" begin="1.26s" repeatCount="indefinite"/>
</circle>
<circle cx="143.1" cy="430.0" r="2.2" fill="#58A6B8" stroke="#0d0d0d" stroke-width="1" filter="url(#glowSm)" opacity="0">
  <title>Jun 1
0 Contributions</title>
  <animate attributeName="opacity" from="0" to="1" dur="0.4s" begin="0.92s" fill="freeze"/>
  <animate attributeName="r" values="2.2;3.2;2.2" dur="4s" begin="1.32s" repeatCount="indefinite"/>
</circle>
<circle cx="169.7" cy="430.0" r="2.2" fill="#58A6B8" stroke="#0d0d0d" stroke-width="1" filter="url(#glowSm)" opacity="0">
  <title>Jun 2
0 Contributions</title>
  <animate attributeName="opacity" from="0" to="1" dur="0.4s" begin="0.98s" fill="freeze"/>
  <animate attributeName="r" values="2.2;3.2;2.2" dur="4s" begin="1.38s" repeatCount="indefinite"/>
</circle>
<circle cx="196.2" cy="415.3" r="2.5" fill="#58A6B8" stroke="#0d0d0d" stroke-width="1" filter="url(#glowSm)" opacity="0">
  <title>Jun 3
1 Contribution</title>
  <animate attributeName="opacity" from="0" to="1" dur="0.4s" begin="1.04s" fill="freeze"/>
  <animate attributeName="r" values="2.5;3.5;2.5" dur="4s" begin="1.44s" repeatCount="indefinite"/>
</circle>
<circle cx="222.8" cy="430.0" r="2.2" fill="#58A6B8" stroke="#0d0d0d" stroke-width="1" filter="url(#glowSm)" opacity="0">
  <title>Jun 4
0 Contributions</title>
  <animate attributeName="opacity" from="0" to="1" dur="0.4s" begin="1.10s" fill="freeze"/>
  <animate attributeName="r" values="2.2;3.2;2.2" dur="4s" begin="1.50s" repeatCount="indefinite"/>
</circle>
<circle cx="249.3" cy="430.0" r="2.2" fill="#58A6B8" stroke="#0d0d0d" stroke-width="1" filter="url(#glowSm)" opacity="0">
  <title>Jun 5
0 Contributions</title>
  <animate attributeName="opacity" from="0" to="1" dur="0.4s" begin="1.16s" fill="freeze"/>
  <animate attributeName="r" values="2.2;3.2;2.2" dur="4s" begin="1.56s" repeatCount="indefinite"/>
</circle>
<circle cx="275.9" cy="430.0" r="2.2" fill="#58A6B8" stroke="#0d0d0d" stroke-width="1" filter="url(#glowSm)" opacity="0">
  <title>Jun 6
0 Contributions</title>
  <animate attributeName="opacity" from="0" to="1" dur="0.4s" begin="1.22s" fill="freeze"/>
  <animate attributeName="r" values="2.2;3.2;2.2" dur="4s" begin="1.62s" repeatCount="indefinite"/>
</circle>
<circle cx="302.4" cy="430.0" r="2.2" fill="#58A6B8" stroke="#0d0d0d" stroke-width="1" filter="url(#glowSm)" opacity="0">
  <title>Jun 7
0 Contributions</title>
  <animate attributeName="opacity" from="0" to="1" dur="0.4s" begin="1.28s" fill="freeze"/>
  <animate attributeName="r" values="2.2;3.2;2.2" dur="4s" begin="1.68s" repeatCount="indefinite"/>
</circle>
<circle cx="329.0" cy="430.0" r="2.2" fill="#58A6B8" stroke="#0d0d0d" stroke-width="1" filter="url(#glowSm)" opacity="0">
  <title>Jun 8
0 Contributions</title>
  <animate attributeName="opacity" from="0" to="1" dur="0.4s" begin="1.34s" fill="freeze"/>
  <animate attributeName="r" values="2.2;3.2;2.2" dur="4s" begin="1.74s" repeatCount="indefinite"/>
</circle>
<circle cx="355.5" cy="430.0" r="2.2" fill="#58A6B8" stroke="#0d0d0d" stroke-width="1" filter="url(#glowSm)" opacity="0">
  <title>Jun 9
0 Contributions</title>
  <animate attributeName="opacity" from="0" to="1" dur="0.4s" begin="1.40s" fill="freeze"/>
  <animate attributeName="r" values="2.2;3.2;2.2" dur="4s" begin="1.80s" repeatCount="indefinite"/>
</circle>
<circle cx="382.1" cy="430.0" r="2.2" fill="#58A6B8" stroke="#0d0d0d" stroke-width="1" filter="url(#glowSm)" opacity="0">
  <title>Jun 10
0 Contributions</title>
  <animate attributeName="opacity" from="0" to="1" dur="0.4s" begin="1.46s" fill="freeze"/>
  <animate attributeName="r" values="2.2;3.2;2.2" dur="4s" begin="1.86s" repeatCount="indefinite"/>
</circle>
<circle cx="408.6" cy="430.0" r="2.2" fill="#58A6B8" stroke="#0d0d0d" stroke-width="1" filter="url(#glowSm)" opacity="0">
  <title>Jun 11
0 Contributions</title>
  <animate attributeName="opacity" from="0" to="1" dur="0.4s" begin="1.52s" fill="freeze"/>
  <animate attributeName="r" values="2.2;3.2;2.2" dur="4s" begin="1.92s" repeatCount="indefinite"/>
</circle>
<circle cx="435.2" cy="430.0" r="2.2" fill="#58A6B8" stroke="#0d0d0d" stroke-width="1" filter="url(#glowSm)" opacity="0">
  <title>Jun 12
0 Contributions</title>
  <animate attributeName="opacity" from="0" to="1" dur="0.4s" begin="1.58s" fill="freeze"/>
  <animate attributeName="r" values="2.2;3.2;2.2" dur="4s" begin="1.98s" repeatCount="indefinite"/>
</circle>
<circle cx="461.7" cy="430.0" r="2.2" fill="#58A6B8" stroke="#0d0d0d" stroke-width="1" filter="url(#glowSm)" opacity="0">
  <title>Jun 13
0 Contributions</title>
  <animate attributeName="opacity" from="0" to="1" dur="0.4s" begin="1.64s" fill="freeze"/>
  <animate attributeName="r" values="2.2;3.2;2.2" dur="4s" begin="2.04s" repeatCount="indefinite"/>
</circle>
<circle cx="488.3" cy="356.7" r="3.5" fill="#58A6B8" stroke="#0d0d0d" stroke-width="1" filter="url(#glowSm)" opacity="0">
  <title>Jun 14
5 Contributions</title>
  <animate attributeName="opacity" from="0" to="1" dur="0.4s" begin="1.70s" fill="freeze"/>
  <animate attributeName="r" values="3.5;4.5;3.5" dur="4s" begin="2.10s" repeatCount="indefinite"/>
</circle>
<circle cx="514.8" cy="327.3" r="4.0" fill="#58A6B8" stroke="#0d0d0d" stroke-width="1" filter="url(#glowSm)" opacity="0">
  <title>Jun 15
7 Contributions</title>
  <animate attributeName="opacity" from="0" to="1" dur="0.4s" begin="1.76s" fill="freeze"/>
  <animate attributeName="r" values="4.0;5.0;4.0" dur="4s" begin="2.16s" repeatCount="indefinite"/>
</circle>
<circle cx="541.4" cy="371.3" r="3.2" fill="#58A6B8" stroke="#0d0d0d" stroke-width="1" filter="url(#glowSm)" opacity="0">
  <title>Jun 16
4 Contributions</title>
  <animate attributeName="opacity" from="0" to="1" dur="0.4s" begin="1.82s" fill="freeze"/>
  <animate attributeName="r" values="3.2;4.2;3.2" dur="4s" begin="2.22s" repeatCount="indefinite"/>
</circle>
<circle cx="567.9" cy="283.3" r="4.7" fill="#58A6B8" stroke="#0d0d0d" stroke-width="1" filter="url(#glowSm)" opacity="0">
  <title>Jun 17
10 Contributions</title>
  <animate attributeName="opacity" from="0" to="1" dur="0.4s" begin="1.88s" fill="freeze"/>
  <animate attributeName="r" values="4.7;5.7;4.7" dur="4s" begin="2.28s" repeatCount="indefinite"/>
</circle>
<circle cx="594.5" cy="268.7" r="5.0" fill="#58A6B8" stroke="#0d0d0d" stroke-width="1" filter="url(#glowSm)" opacity="0">
  <title>Jun 18
11 Contributions</title>
  <animate attributeName="opacity" from="0" to="1" dur="0.4s" begin="1.94s" fill="freeze"/>
  <animate attributeName="r" values="5.0;6.0;5.0" dur="4s" begin="2.34s" repeatCount="indefinite"/>
</circle>
<circle cx="621.0" cy="224.7" r="18" fill="url(#haloGrad)" opacity="0">
  <animate attributeName="opacity" values="0;0.6;0.3;0.6" dur="4s" begin="2.00s" repeatCount="indefinite"/>
  <animate attributeName="r" values="14;22;14" dur="4s" begin="2.00s" repeatCount="indefinite"/>
</circle>
<circle cx="621.0" cy="224.7" r="7.2" fill="#e8f4f7" stroke="#0d0d0d" stroke-width="1" filter="url(#glowMd)" opacity="0">
  <title>Jun 19
14 Contributions</title>
  <animate attributeName="opacity" from="0" to="1" dur="0.4s" begin="2.00s" fill="freeze"/>
  <animate attributeName="r" values="7.2;9.2;7.2" dur="3s" begin="2.40s" repeatCount="indefinite"/>
</circle>
<circle cx="647.6" cy="371.3" r="3.2" fill="#58A6B8" stroke="#0d0d0d" stroke-width="1" filter="url(#glowSm)" opacity="0">
  <title>Jun 20
4 Contributions</title>
  <animate attributeName="opacity" from="0" to="1" dur="0.4s" begin="2.06s" fill="freeze"/>
  <animate attributeName="r" values="3.2;4.2;3.2" dur="4s" begin="2.46s" repeatCount="indefinite"/>
</circle>
<circle cx="674.1" cy="415.3" r="2.5" fill="#58A6B8" stroke="#0d0d0d" stroke-width="1" filter="url(#glowSm)" opacity="0">
  <title>Jun 21
1 Contribution</title>
  <animate attributeName="opacity" from="0" to="1" dur="0.4s" begin="2.12s" fill="freeze"/>
  <animate attributeName="r" values="2.5;3.5;2.5" dur="4s" begin="2.52s" repeatCount="indefinite"/>
</circle>
<circle cx="700.7" cy="400.7" r="2.7" fill="#58A6B8" stroke="#0d0d0d" stroke-width="1" filter="url(#glowSm)" opacity="0">
  <title>Jun 22
2 Contributions</title>
  <animate attributeName="opacity" from="0" to="1" dur="0.4s" begin="2.18s" fill="freeze"/>
  <animate attributeName="r" values="2.7;3.7;2.7" dur="4s" begin="2.58s" repeatCount="indefinite"/>
</circle>
<circle cx="727.2" cy="356.7" r="3.5" fill="#58A6B8" stroke="#0d0d0d" stroke-width="1" filter="url(#glowSm)" opacity="0">
  <title>Jun 23
5 Contributions</title>
  <animate attributeName="opacity" from="0" to="1" dur="0.4s" begin="2.24s" fill="freeze"/>
  <animate attributeName="r" values="3.5;4.5;3.5" dur="4s" begin="2.64s" repeatCount="indefinite"/>
</circle>
<circle cx="753.8" cy="386.0" r="3.0" fill="#58A6B8" stroke="#0d0d0d" stroke-width="1" filter="url(#glowSm)" opacity="0">
  <title>Jun 24
3 Contributions</title>
  <animate attributeName="opacity" from="0" to="1" dur="0.4s" begin="2.30s" fill="freeze"/>
  <animate attributeName="r" values="3.0;4.0;3.0" dur="4s" begin="2.70s" repeatCount="indefinite"/>
</circle>
<circle cx="780.3" cy="415.3" r="2.5" fill="#58A6B8" stroke="#0d0d0d" stroke-width="1" filter="url(#glowSm)" opacity="0">
  <title>Jun 25
1 Contribution</title>
  <animate attributeName="opacity" from="0" to="1" dur="0.4s" begin="2.36s" fill="freeze"/>
  <animate attributeName="r" values="2.5;3.5;2.5" dur="4s" begin="2.76s" repeatCount="indefinite"/>
</circle>
<circle cx="806.9" cy="430.0" r="2.2" fill="#58A6B8" stroke="#0d0d0d" stroke-width="1" filter="url(#glowSm)" opacity="0">
  <title>Jun 26
0 Contributions</title>
  <animate attributeName="opacity" from="0" to="1" dur="0.4s" begin="2.42s" fill="freeze"/>
  <animate attributeName="r" values="2.2;3.2;2.2" dur="4s" begin="2.82s" repeatCount="indefinite"/>
</circle>
<circle cx="833.4" cy="430.0" r="2.2" fill="#58A6B8" stroke="#0d0d0d" stroke-width="1" filter="url(#glowSm)" opacity="0">
  <title>Jun 27
0 Contributions</title>
  <animate attributeName="opacity" from="0" to="1" dur="0.4s" begin="2.48s" fill="freeze"/>
  <animate attributeName="r" values="2.2;3.2;2.2" dur="4s" begin="2.88s" repeatCount="indefinite"/>
</circle>
<circle cx="860.0" cy="430.0" r="2.2" fill="#58A6B8" stroke="#0d0d0d" stroke-width="1" filter="url(#glowSm)" opacity="0">
  <title>Jun 28
0 Contributions</title>
  <animate attributeName="opacity" from="0" to="1" dur="0.4s" begin="2.54s" fill="freeze"/>
  <animate attributeName="r" values="2.2;3.2;2.2" dur="4s" begin="2.94s" repeatCount="indefinite"/>
</circle>
<text x="90" y="466" text-anchor="start" font-family="Georgia,'Palatino Linotype',serif" font-size="10" fill="#5a7a80" letter-spacing="1.5">MAY</text>
<text x="860" y="466" text-anchor="end" font-family="Georgia,'Palatino Linotype',serif" font-size="10" fill="#5a7a80" letter-spacing="1.5">JUN</text>
<text x="450" y="522" text-anchor="middle" font-family="Georgia,'Palatino Linotype',serif" font-size="9" fill="#5a7a80" letter-spacing="4" opacity="0.5">LAST 30 DAYS OF DARK RITUALS</text>
</svg>