<svg xmlns="http://www.w3.org/2000/svg" viewBox="0 0 900 540" width="900" height="540">
<defs>
  <!-- Gradients -->
  <linearGradient id="areaFill" x1="0" y1="0" x2="0" y2="1">
    <stop offset="0%" stop-color="#58A6B8" stop-opacity="0.28"/>
    <stop offset="85%" stop-color="#58A6B8" stop-opacity="0.03"/>
    <stop offset="100%" stop-color="#58A6B8" stop-opacity="0"/>
  </linearGradient>
  <radialGradient id="haloGrad" cx="50%" cy="50%" r="50%">
    <stop offset="0%" stop-color="#58A6B8" stop-opacity="0.5"/>
    <stop offset="100%" stop-color="#58A6B8" stop-opacity="0"/>
  </radialGradient>
  <linearGradient id="frameFade" x1="0" y1="0" x2="1" y2="1">
    <stop offset="0%" stop-color="#58A6B8" stop-opacity="0.35"/>
    <stop offset="50%" stop-color="#58A6B8" stop-opacity="0.12"/>
    <stop offset="100%" stop-color="#58A6B8" stop-opacity="0.35"/>
  </linearGradient>
  <!-- Filters -->
  <filter id="glowSm" x="-50%" y="-50%" width="200%" height="200%">
    <feGaussianBlur stdDeviation="2.5" result="b"/><feMerge><feMergeNode in="b"/><feMergeNode in="SourceGraphic"/></feMerge>
  </filter>
  <filter id="glowMd" x="-50%" y="-50%" width="200%" height="200%">
    <feGaussianBlur stdDeviation="5" result="b"/><feMerge><feMergeNode in="b"/><feMergeNode in="SourceGraphic"/></feMerge>
  </filter>
  <filter id="glowLg" x="-80%" y="-80%" width="260%" height="260%">
    <feGaussianBlur stdDeviation="10" result="b"/><feMerge><feMergeNode in="b"/><feMergeNode in="SourceGraphic"/></feMerge>
  </filter>
  <filter id="cardShadow" x="-10%" y="-10%" width="120%" height="130%">
    <feGaussianBlur stdDeviation="6" result="b"/><feFlood flood-color="#58A6B8" flood-opacity="0.08" result="c"/>
    <feComposite in="c" in2="b" operator="in" result="s"/><feMerge><feMergeNode in="s"/><feMergeNode in="SourceGraphic"/></feMerge>
  </filter>
</defs>

<!-- Background -->
<rect width="900" height="540" fill="#0d0d0d" rx="16"/>
<line x1="90" y1="210.0" x2="860" y2="210.0" stroke="rgba(88,166,184,0.055)" stroke-width="0.7"/>
<line x1="90" y1="246.7" x2="860" y2="246.7" stroke="rgba(88,166,184,0.055)" stroke-width="0.7"/>
<line x1="90" y1="283.3" x2="860" y2="283.3" stroke="rgba(88,166,184,0.055)" stroke-width="0.7"/>
<line x1="90" y1="320.0" x2="860" y2="320.0" stroke="rgba(88,166,184,0.055)" stroke-width="0.7"/>
<line x1="90" y1="356.7" x2="860" y2="356.7" stroke="rgba(88,166,184,0.055)" stroke-width="0.7"/>
<line x1="90" y1="393.3" x2="860" y2="393.3" stroke="rgba(88,166,184,0.055)" stroke-width="0.7"/>
<line x1="90" y1="430.0" x2="860" y2="430.0" stroke="rgba(88,166,184,0.055)" stroke-width="0.7"/>
<line x1="90.0" y1="210" x2="90.0" y2="430" stroke="rgba(88,166,184,0.055)" stroke-width="0.5"/>
<line x1="222.8" y1="210" x2="222.8" y2="430" stroke="rgba(88,166,184,0.055)" stroke-width="0.5"/>
<line x1="355.5" y1="210" x2="355.5" y2="430" stroke="rgba(88,166,184,0.055)" stroke-width="0.5"/>
<line x1="488.3" y1="210" x2="488.3" y2="430" stroke="rgba(88,166,184,0.055)" stroke-width="0.5"/>
<line x1="621.0" y1="210" x2="621.0" y2="430" stroke="rgba(88,166,184,0.055)" stroke-width="0.5"/>
<line x1="753.8" y1="210" x2="753.8" y2="430" stroke="rgba(88,166,184,0.055)" stroke-width="0.5"/>
<circle cx="110.9" cy="424.7" r="0.6" fill="#58A6B8" opacity="0.159"><animate attributeName="opacity" values="0.159;0.350;0.159" dur="4.6s" begin="4.1s" repeatCount="indefinite"/></circle>
<circle cx="139.8" cy="302.7" r="0.4" fill="#58A6B8" opacity="0.094"><animate attributeName="opacity" values="0.094;0.207;0.094" dur="7.9s" begin="2.3s" repeatCount="indefinite"/></circle>
<circle cx="199.3" cy="439.7" r="0.7" fill="#58A6B8" opacity="0.130"><animate attributeName="opacity" values="0.130;0.286;0.130" dur="4.7s" begin="1.7s" repeatCount="indefinite"/></circle>
<circle cx="101.3" cy="394.5" r="1.1" fill="#58A6B8" opacity="0.042"><animate attributeName="opacity" values="0.042;0.092;0.042" dur="5.7s" begin="3.8s" repeatCount="indefinite"/></circle>
<circle cx="53.3" cy="108.4" r="1.2" fill="#58A6B8" opacity="0.095"><animate attributeName="opacity" values="0.095;0.209;0.095" dur="5.4s" begin="2.4s" repeatCount="indefinite"/></circle>
<circle cx="736.2" cy="142.8" r="1.3" fill="#58A6B8" opacity="0.078"><animate attributeName="opacity" values="0.078;0.172;0.078" dur="7.4s" begin="3.6s" repeatCount="indefinite"/></circle>
<circle cx="211.5" cy="447.8" r="0.7" fill="#58A6B8" opacity="0.124"><animate attributeName="opacity" values="0.124;0.273;0.124" dur="3.7s" begin="2.2s" repeatCount="indefinite"/></circle>
<circle cx="623.7" cy="193.5" r="1.2" fill="#58A6B8" opacity="0.058"><animate attributeName="opacity" values="0.058;0.128;0.058" dur="5.2s" begin="0.6s" repeatCount="indefinite"/></circle>
<circle cx="704.7" cy="101.5" r="0.8" fill="#58A6B8" opacity="0.096"><animate attributeName="opacity" values="0.096;0.211;0.096" dur="6.2s" begin="3.0s" repeatCount="indefinite"/></circle>
<circle cx="623.2" cy="69.0" r="0.8" fill="#58A6B8" opacity="0.100"><animate attributeName="opacity" values="0.100;0.220;0.100" dur="7.0s" begin="5.0s" repeatCount="indefinite"/></circle>
<circle cx="164.1" cy="148.2" r="0.6" fill="#58A6B8" opacity="0.109"><animate attributeName="opacity" values="0.109;0.240;0.109" dur="3.8s" begin="0.7s" repeatCount="indefinite"/></circle>
<circle cx="352.5" cy="103.9" r="0.6" fill="#58A6B8" opacity="0.108"><animate attributeName="opacity" values="0.108;0.238;0.108" dur="7.0s" begin="1.8s" repeatCount="indefinite"/></circle>
<circle cx="246.9" cy="413.8" r="0.9" fill="#58A6B8" opacity="0.041"><animate attributeName="opacity" values="0.041;0.090;0.041" dur="5.2s" begin="4.3s" repeatCount="indefinite"/></circle>
<circle cx="417.3" cy="41.0" r="1.4" fill="#58A6B8" opacity="0.134"><animate attributeName="opacity" values="0.134;0.295;0.134" dur="3.5s" begin="5.5s" repeatCount="indefinite"/></circle>
<circle cx="764.9" cy="147.4" r="1.3" fill="#58A6B8" opacity="0.040"><animate attributeName="opacity" values="0.040;0.088;0.040" dur="4.6s" begin="1.4s" repeatCount="indefinite"/></circle>
<circle cx="29.6" cy="369.8" r="1.1" fill="#58A6B8" opacity="0.134"><animate attributeName="opacity" values="0.134;0.295;0.134" dur="4.4s" begin="0.9s" repeatCount="indefinite"/></circle>
<circle cx="352.3" cy="38.5" r="1.1" fill="#58A6B8" opacity="0.097"><animate attributeName="opacity" values="0.097;0.213;0.097" dur="8.4s" begin="4.7s" repeatCount="indefinite"/></circle>
<circle cx="185.8" cy="300.4" r="0.8" fill="#58A6B8" opacity="0.109"><animate attributeName="opacity" values="0.109;0.240;0.109" dur="7.7s" begin="0.3s" repeatCount="indefinite"/></circle>
<circle cx="467.1" cy="493.0" r="1.2" fill="#58A6B8" opacity="0.111"><animate attributeName="opacity" values="0.111;0.244;0.111" dur="8.5s" begin="2.9s" repeatCount="indefinite"/></circle>
<circle cx="188.2" cy="391.9" r="0.8" fill="#58A6B8" opacity="0.057"><animate attributeName="opacity" values="0.057;0.125;0.057" dur="6.3s" begin="4.5s" repeatCount="indefinite"/></circle>
<circle cx="40.6" cy="283.5" r="1.2" fill="#58A6B8" opacity="0.061"><animate attributeName="opacity" values="0.061;0.134;0.061" dur="8.0s" begin="1.4s" repeatCount="indefinite"/></circle>
<circle cx="163.0" cy="398.3" r="0.6" fill="#58A6B8" opacity="0.054"><animate attributeName="opacity" values="0.054;0.119;0.054" dur="5.6s" begin="4.2s" repeatCount="indefinite"/></circle>
<circle cx="254.8" cy="100.5" r="0.9" fill="#58A6B8" opacity="0.063"><animate attributeName="opacity" values="0.063;0.139;0.063" dur="8.0s" begin="3.0s" repeatCount="indefinite"/></circle>
<circle cx="461.3" cy="444.3" r="0.7" fill="#58A6B8" opacity="0.144"><animate attributeName="opacity" values="0.144;0.317;0.144" dur="5.9s" begin="4.1s" repeatCount="indefinite"/></circle>
<circle cx="440.3" cy="206.9" r="1.4" fill="#58A6B8" opacity="0.049"><animate attributeName="opacity" values="0.049;0.108;0.049" dur="4.2s" begin="4.7s" repeatCount="indefinite"/></circle>
<circle cx="93.0" cy="317.8" r="1.0" fill="#58A6B8" opacity="0.136"><animate attributeName="opacity" values="0.136;0.299;0.136" dur="8.2s" begin="4.5s" repeatCount="indefinite"/></circle>
<circle cx="212.3" cy="414.9" r="1.2" fill="#58A6B8" opacity="0.114"><animate attributeName="opacity" values="0.114;0.251;0.114" dur="6.7s" begin="1.4s" repeatCount="indefinite"/></circle>
<circle cx="820.8" cy="44.2" r="0.5" fill="#58A6B8" opacity="0.076"><animate attributeName="opacity" values="0.076;0.167;0.076" dur="5.9s" begin="4.8s" repeatCount="indefinite"/></circle>
<circle cx="21.4" cy="285.4" r="0.7" fill="#58A6B8" opacity="0.060"><animate attributeName="opacity" values="0.060;0.132;0.060" dur="6.5s" begin="3.2s" repeatCount="indefinite"/></circle>
<circle cx="763.0" cy="124.6" r="0.5" fill="#58A6B8" opacity="0.139"><animate attributeName="opacity" values="0.139;0.306;0.139" dur="6.9s" begin="3.5s" repeatCount="indefinite"/></circle>
<circle cx="344.4" cy="74.1" r="0.3" fill="#58A6B8" opacity="0.053"><animate attributeName="opacity" values="0.053;0.117;0.053" dur="7.8s" begin="3.5s" repeatCount="indefinite"/></circle>
<circle cx="480.3" cy="135.1" r="0.4" fill="#58A6B8" opacity="0.158"><animate attributeName="opacity" values="0.158;0.348;0.158" dur="6.9s" begin="0.7s" repeatCount="indefinite"/></circle>
<circle cx="454.3" cy="107.4" r="0.7" fill="#58A6B8" opacity="0.135"><animate attributeName="opacity" values="0.135;0.297;0.135" dur="3.6s" begin="5.5s" repeatCount="indefinite"/></circle>
<circle cx="332.7" cy="403.8" r="0.8" fill="#58A6B8" opacity="0.083"><animate attributeName="opacity" values="0.083;0.183;0.083" dur="6.7s" begin="6.0s" repeatCount="indefinite"/></circle>
<circle cx="44.7" cy="56.8" r="1.4" fill="#58A6B8" opacity="0.099"><animate attributeName="opacity" values="0.099;0.218;0.099" dur="8.2s" begin="5.8s" repeatCount="indefinite"/></circle>
<circle cx="800.2" cy="16.4" r="0.5" fill="#58A6B8" opacity="0.146"><animate attributeName="opacity" values="0.146;0.321;0.146" dur="6.1s" begin="0.7s" repeatCount="indefinite"/></circle>
<circle cx="181.2" cy="311.1" r="1.1" fill="#58A6B8" opacity="0.068"><animate attributeName="opacity" values="0.068;0.150;0.068" dur="6.3s" begin="0.1s" repeatCount="indefinite"/></circle>
<circle cx="766.2" cy="94.6" r="1.1" fill="#58A6B8" opacity="0.080"><animate attributeName="opacity" values="0.080;0.176;0.080" dur="6.8s" begin="0.6s" repeatCount="indefinite"/></circle>
<circle cx="415.8" cy="446.4" r="0.4" fill="#58A6B8" opacity="0.138"><animate attributeName="opacity" values="0.138;0.304;0.138" dur="4.8s" begin="4.2s" repeatCount="indefinite"/></circle>
<circle cx="494.8" cy="370.0" r="1.3" fill="#58A6B8" opacity="0.146"><animate attributeName="opacity" values="0.146;0.321;0.146" dur="5.6s" begin="1.3s" repeatCount="indefinite"/></circle>
<circle cx="347.0" cy="523.1" r="0.6" fill="#58A6B8" opacity="0.103"><animate attributeName="opacity" values="0.103;0.227;0.103" dur="4.4s" begin="0.9s" repeatCount="indefinite"/></circle>
<circle cx="875.9" cy="165.1" r="0.6" fill="#58A6B8" opacity="0.112"><animate attributeName="opacity" values="0.112;0.246;0.112" dur="8.2s" begin="5.9s" repeatCount="indefinite"/></circle>
<circle cx="707.8" cy="379.5" r="0.6" fill="#58A6B8" opacity="0.148"><animate attributeName="opacity" values="0.148;0.326;0.148" dur="6.2s" begin="5.8s" repeatCount="indefinite"/></circle>
<circle cx="82.9" cy="300.4" r="0.6" fill="#58A6B8" opacity="0.123"><animate attributeName="opacity" values="0.123;0.271;0.123" dur="7.4s" begin="3.7s" repeatCount="indefinite"/></circle>
<circle cx="320.5" cy="144.4" r="0.5" fill="#58A6B8" opacity="0.150"><animate attributeName="opacity" values="0.150;0.330;0.150" dur="7.6s" begin="1.9s" repeatCount="indefinite"/></circle>
<circle cx="814.7" cy="234.5" r="1.4" fill="#58A6B8" opacity="0.046"><animate attributeName="opacity" values="0.046;0.101;0.046" dur="3.8s" begin="2.1s" repeatCount="indefinite"/></circle>
<circle cx="4.2" cy="302.4" r="0.7" fill="#58A6B8" opacity="0.056"><animate attributeName="opacity" values="0.056;0.123;0.056" dur="5.3s" begin="2.7s" repeatCount="indefinite"/></circle>
<circle cx="213.0" cy="369.8" r="0.9" fill="#58A6B8" opacity="0.059"><animate attributeName="opacity" values="0.059;0.130;0.059" dur="6.9s" begin="0.1s" repeatCount="indefinite"/></circle>
<circle cx="688.3" cy="437.7" r="0.3" fill="#58A6B8" opacity="0.078"><animate attributeName="opacity" values="0.078;0.172;0.078" dur="3.7s" begin="3.7s" repeatCount="indefinite"/></circle>
<circle cx="694.5" cy="275.6" r="0.7" fill="#58A6B8" opacity="0.067"><animate attributeName="opacity" values="0.067;0.147;0.067" dur="6.1s" begin="2.9s" repeatCount="indefinite"/></circle>
<circle cx="552.6" cy="245.6" r="0.3" fill="#58A6B8" opacity="0.094"><animate attributeName="opacity" values="0.094;0.207;0.094" dur="6.5s" begin="3.5s" repeatCount="indefinite"/></circle>
<circle cx="774.6" cy="449.6" r="0.5" fill="#58A6B8" opacity="0.146"><animate attributeName="opacity" values="0.146;0.321;0.146" dur="7.8s" begin="1.4s" repeatCount="indefinite"/></circle>
<circle cx="592.4" cy="401.1" r="0.6" fill="#58A6B8" opacity="0.096"><animate attributeName="opacity" values="0.096;0.211;0.096" dur="6.1s" begin="0.6s" repeatCount="indefinite"/></circle>
<circle cx="73.3" cy="128.1" r="0.8" fill="#58A6B8" opacity="0.095"><animate attributeName="opacity" values="0.095;0.209;0.095" dur="6.7s" begin="3.7s" repeatCount="indefinite"/></circle>
<circle cx="745.9" cy="408.6" r="1.1" fill="#58A6B8" opacity="0.064"><animate attributeName="opacity" values="0.064;0.141;0.064" dur="7.4s" begin="5.9s" repeatCount="indefinite"/></circle>
<g transform="translate(722.2,204.1) rotate(45)" opacity="0.051"><rect x="-2.0" y="-2.0" width="4.1" height="4.1" fill="#58A6B8"/><animate attributeName="opacity" values="0.051;0.128;0.051" dur="7.4s" begin="1.0s" repeatCount="indefinite"/></g>
<g transform="translate(190.1,67.0) rotate(45)" opacity="0.090"><rect x="-1.3" y="-1.3" width="2.6" height="2.6" fill="#58A6B8"/><animate attributeName="opacity" values="0.090;0.225;0.090" dur="8.5s" begin="1.1s" repeatCount="indefinite"/></g>
<g transform="translate(372.6,405.5) rotate(45)" opacity="0.080"><rect x="-2.1" y="-2.1" width="4.1" height="4.1" fill="#58A6B8"/><animate attributeName="opacity" values="0.080;0.200;0.080" dur="9.3s" begin="1.3s" repeatCount="indefinite"/></g>
<g transform="translate(419.2,172.9) rotate(45)" opacity="0.078"><rect x="-1.7" y="-1.7" width="3.5" height="3.5" fill="#58A6B8"/><animate attributeName="opacity" values="0.078;0.195;0.078" dur="9.8s" begin="1.0s" repeatCount="indefinite"/></g>
<g transform="translate(304.0,402.3) rotate(45)" opacity="0.059"><rect x="-1.3" y="-1.3" width="2.7" height="2.7" fill="#58A6B8"/><animate attributeName="opacity" values="0.059;0.147;0.059" dur="9.6s" begin="3.1s" repeatCount="indefinite"/></g>
<g transform="translate(660.6,295.4) rotate(45)" opacity="0.049"><rect x="-1.8" y="-1.8" width="3.7" height="3.7" fill="#58A6B8"/><animate attributeName="opacity" values="0.049;0.122;0.049" dur="9.4s" begin="4.8s" repeatCount="indefinite"/></g>
<g transform="translate(268.2,151.2) rotate(45)" opacity="0.058"><rect x="-1.5" y="-1.5" width="3.0" height="3.0" fill="#58A6B8"/><animate attributeName="opacity" values="0.058;0.145;0.058" dur="9.1s" begin="1.4s" repeatCount="indefinite"/></g>
<g transform="translate(270.1,408.1) rotate(45)" opacity="0.048"><rect x="-1.8" y="-1.8" width="3.6" height="3.6" fill="#58A6B8"/><animate attributeName="opacity" values="0.048;0.120;0.048" dur="8.5s" begin="4.2s" repeatCount="indefinite"/></g>
<g transform="translate(18,18) scale(1,1)"><path d="M0 25 L0 6 Q0 0 6 0 L25 0" fill="none" stroke="#58A6B8" stroke-width="1.3" opacity="0.35"/><circle cx="0" cy="0" r="1.8" fill="#58A6B8" opacity="0.4"/><path d="M0 12 L5 12" fill="none" stroke="#58A6B8" stroke-width="0.6" opacity="0.2"/><path d="M12 0 L12 5" fill="none" stroke="#58A6B8" stroke-width="0.6" opacity="0.2"/></g><g transform="translate(882,18) scale(-1,1)"><path d="M0 25 L0 6 Q0 0 6 0 L25 0" fill="none" stroke="#58A6B8" stroke-width="1.3" opacity="0.35"/><circle cx="0" cy="0" r="1.8" fill="#58A6B8" opacity="0.4"/><path d="M0 12 L5 12" fill="none" stroke="#58A6B8" stroke-width="0.6" opacity="0.2"/><path d="M12 0 L12 5" fill="none" stroke="#58A6B8" stroke-width="0.6" opacity="0.2"/></g><g transform="translate(18,522) scale(1,-1)"><path d="M0 25 L0 6 Q0 0 6 0 L25 0" fill="none" stroke="#58A6B8" stroke-width="1.3" opacity="0.35"/><circle cx="0" cy="0" r="1.8" fill="#58A6B8" opacity="0.4"/><path d="M0 12 L5 12" fill="none" stroke="#58A6B8" stroke-width="0.6" opacity="0.2"/><path d="M12 0 L12 5" fill="none" stroke="#58A6B8" stroke-width="0.6" opacity="0.2"/></g><g transform="translate(882,522) scale(-1,-1)"><path d="M0 25 L0 6 Q0 0 6 0 L25 0" fill="none" stroke="#58A6B8" stroke-width="1.3" opacity="0.35"/><circle cx="0" cy="0" r="1.8" fill="#58A6B8" opacity="0.4"/><path d="M0 12 L5 12" fill="none" stroke="#58A6B8" stroke-width="0.6" opacity="0.2"/><path d="M12 0 L12 5" fill="none" stroke="#58A6B8" stroke-width="0.6" opacity="0.2"/></g>
<rect x="10" y="10" width="880" height="520" rx="12" fill="none" stroke="url(#frameFade)" stroke-width="1"/>
<text x="450" y="50" text-anchor="middle" font-family="Georgia,'Palatino Linotype','Book Antiqua',Palatino,serif" font-size="22" font-weight="bold" fill="#e8f4f7" letter-spacing="8" filter="url(#glowMd)">✧ THE COMMIT COVEN ✧</text>
<line x1="310" y1="62" x2="590" y2="62" stroke="#58A6B8" stroke-width="0.5" opacity="0.25"/>
<g filter="url(#cardShadow)"><rect x="70" y="80" width="240" height="78" rx="10" fill="rgba(88,166,184,0.05)" stroke="rgba(88,166,184,0.22)" stroke-width="0.8"/><text x="190" y="110" text-anchor="middle" font-family="Georgia,'Palatino Linotype',serif" font-size="11" fill="#5a7a80" letter-spacing="3" text-transform="uppercase">LONGEST STREAK</text><text x="190" y="136" text-anchor="middle" font-family="Georgia,'Palatino Linotype',serif" font-size="20" fill="#e8f4f7" font-weight="bold" filter="url(#glowSm)">11 Nights</text></g>
<g filter="url(#cardShadow)"><rect x="330" y="80" width="240" height="78" rx="10" fill="rgba(88,166,184,0.05)" stroke="rgba(88,166,184,0.22)" stroke-width="0.8"/><text x="450" y="110" text-anchor="middle" font-family="Georgia,'Palatino Linotype',serif" font-size="11" fill="#5a7a80" letter-spacing="3" text-transform="uppercase">CURRENT RITUAL</text><text x="450" y="136" text-anchor="middle" font-family="Georgia,'Palatino Linotype',serif" font-size="20" fill="#e8f4f7" font-weight="bold" filter="url(#glowSm)">11 Nights</text></g>
<g filter="url(#cardShadow)"><rect x="590" y="80" width="240" height="78" rx="10" fill="rgba(88,166,184,0.05)" stroke="rgba(88,166,184,0.22)" stroke-width="0.8"/><text x="710" y="110" text-anchor="middle" font-family="Georgia,'Palatino Linotype',serif" font-size="11" fill="#5a7a80" letter-spacing="3" text-transform="uppercase">TOTAL OFFERINGS</text><text x="710" y="136" text-anchor="middle" font-family="Georgia,'Palatino Linotype',serif" font-size="20" fill="#e8f4f7" font-weight="bold" filter="url(#glowSm)">163</text></g>
<text x="80" y="434.0" text-anchor="end" font-family="'Courier New',monospace" font-size="10" fill="#5a7a80">0</text>
<line x1="86" y1="430.0" x2="90" y2="430.0" stroke="#5a7a80" stroke-width="0.5"/>
<text x="80" y="390.0" text-anchor="end" font-family="'Courier New',monospace" font-size="10" fill="#5a7a80">3</text>
<line x1="86" y1="386.0" x2="90" y2="386.0" stroke="#5a7a80" stroke-width="0.5"/>
<text x="80" y="346.0" text-anchor="end" font-family="'Courier New',monospace" font-size="10" fill="#5a7a80">6</text>
<line x1="86" y1="342.0" x2="90" y2="342.0" stroke="#5a7a80" stroke-width="0.5"/>
<text x="80" y="302.0" text-anchor="end" font-family="'Courier New',monospace" font-size="10" fill="#5a7a80">9</text>
<line x1="86" y1="298.0" x2="90" y2="298.0" stroke="#5a7a80" stroke-width="0.5"/>
<text x="80" y="258.0" text-anchor="end" font-family="'Courier New',monospace" font-size="10" fill="#5a7a80">12</text>
<line x1="86" y1="254.0" x2="90" y2="254.0" stroke="#5a7a80" stroke-width="0.5"/>
<text x="80" y="214.0" text-anchor="end" font-family="'Courier New',monospace" font-size="10" fill="#5a7a80">15</text>
<line x1="86" y1="210.0" x2="90" y2="210.0" stroke="#5a7a80" stroke-width="0.5"/>
<text x="90.0" y="450" text-anchor="middle" font-family="'Courier New',monospace" font-size="10" fill="#5a7a80">27</text>
<text x="196.2" y="450" text-anchor="middle" font-family="'Courier New',monospace" font-size="10" fill="#5a7a80">31</text>
<text x="302.4" y="450" text-anchor="middle" font-family="'Courier New',monospace" font-size="10" fill="#5a7a80">4</text>
<text x="408.6" y="450" text-anchor="middle" font-family="'Courier New',monospace" font-size="10" fill="#5a7a80">8</text>
<text x="514.8" y="450" text-anchor="middle" font-family="'Courier New',monospace" font-size="10" fill="#5a7a80">12</text>
<text x="621.0" y="450" text-anchor="middle" font-family="'Courier New',monospace" font-size="10" fill="#5a7a80">16</text>
<text x="727.2" y="450" text-anchor="middle" font-family="'Courier New',monospace" font-size="10" fill="#5a7a80">20</text>
<text x="833.4" y="450" text-anchor="middle" font-family="'Courier New',monospace" font-size="10" fill="#5a7a80">24</text>
<text x="860.0" y="450" text-anchor="middle" font-family="'Courier New',monospace" font-size="10" fill="#5a7a80">25</text>
<line x1="90" y1="210" x2="90" y2="430" stroke="#58A6B8" stroke-width="0.5" opacity="0.2"/>
<line x1="90" y1="430" x2="860" y2="430" stroke="#58A6B8" stroke-width="0.5" opacity="0.2"/>
<path d="M90.0 430.0 C93.5 418.3,109.5 342.0,116.6 342.0 C123.6 342.0,136.0 418.3,143.1 430.0 C150.2 441.7,162.6 430.0,169.7 430.0 C176.7 430.0,189.1 430.0,196.2 430.0 C203.3 430.0,215.7 430.0,222.8 430.0 C229.8 430.0,242.2 432.0,249.3 430.0 C256.4 428.0,268.8 415.3,275.9 415.3 C282.9 415.3,295.3 428.0,302.4 430.0 C309.5 432.0,321.9 430.0,329.0 430.0 C336.0 430.0,348.4 430.0,355.5 430.0 C362.6 430.0,375.0 430.0,382.1 430.0 C389.1 430.0,401.5 430.0,408.6 430.0 C415.7 430.0,428.1 430.0,435.2 430.0 C442.3 430.0,454.6 430.0,461.7 430.0 C468.8 430.0,481.2 430.0,488.3 430.0 C495.4 430.0,507.7 430.0,514.8 430.0 C521.9 430.0,534.3 439.8,541.4 430.0 C548.5 420.2,560.9 370.4,567.9 356.7 C575.0 343.0,587.4 325.4,594.5 327.3 C601.6 329.3,614.0 377.2,621.0 371.3 C628.1 365.5,640.5 297.0,647.6 283.3 C654.7 269.6,667.1 276.5,674.1 268.7 C681.2 260.8,693.6 211.0,700.7 224.7 C707.8 238.4,720.2 345.9,727.2 371.3 C734.3 396.8,746.7 411.4,753.8 415.3 C760.9 419.2,773.3 408.5,780.3 400.7 C787.4 392.8,799.8 358.6,806.9 356.7 C814.0 354.7,826.4 376.2,833.4 386.0 C840.5 395.8,856.5 424.1,860.0 430.0 L860.0 430 L90.0 430 Z" fill="url(#areaFill)" opacity="0.9">
  <animate attributeName="opacity" values="0;0.9" dur="2s" fill="freeze"/>
</path>
<path d="M90.0 430.0 C93.5 418.3,109.5 342.0,116.6 342.0 C123.6 342.0,136.0 418.3,143.1 430.0 C150.2 441.7,162.6 430.0,169.7 430.0 C176.7 430.0,189.1 430.0,196.2 430.0 C203.3 430.0,215.7 430.0,222.8 430.0 C229.8 430.0,242.2 432.0,249.3 430.0 C256.4 428.0,268.8 415.3,275.9 415.3 C282.9 415.3,295.3 428.0,302.4 430.0 C309.5 432.0,321.9 430.0,329.0 430.0 C336.0 430.0,348.4 430.0,355.5 430.0 C362.6 430.0,375.0 430.0,382.1 430.0 C389.1 430.0,401.5 430.0,408.6 430.0 C415.7 430.0,428.1 430.0,435.2 430.0 C442.3 430.0,454.6 430.0,461.7 430.0 C468.8 430.0,481.2 430.0,488.3 430.0 C495.4 430.0,507.7 430.0,514.8 430.0 C521.9 430.0,534.3 439.8,541.4 430.0 C548.5 420.2,560.9 370.4,567.9 356.7 C575.0 343.0,587.4 325.4,594.5 327.3 C601.6 329.3,614.0 377.2,621.0 371.3 C628.1 365.5,640.5 297.0,647.6 283.3 C654.7 269.6,667.1 276.5,674.1 268.7 C681.2 260.8,693.6 211.0,700.7 224.7 C707.8 238.4,720.2 345.9,727.2 371.3 C734.3 396.8,746.7 411.4,753.8 415.3 C760.9 419.2,773.3 408.5,780.3 400.7 C787.4 392.8,799.8 358.6,806.9 356.7 C814.0 354.7,826.4 376.2,833.4 386.0 C840.5 395.8,856.5 424.1,860.0 430.0" fill="none" stroke="#58A6B8" stroke-width="4" opacity="0.15" filter="url(#glowLg)" stroke-linecap="round" stroke-linejoin="round"/>
<path d="M90.0 430.0 C93.5 418.3,109.5 342.0,116.6 342.0 C123.6 342.0,136.0 418.3,143.1 430.0 C150.2 441.7,162.6 430.0,169.7 430.0 C176.7 430.0,189.1 430.0,196.2 430.0 C203.3 430.0,215.7 430.0,222.8 430.0 C229.8 430.0,242.2 432.0,249.3 430.0 C256.4 428.0,268.8 415.3,275.9 415.3 C282.9 415.3,295.3 428.0,302.4 430.0 C309.5 432.0,321.9 430.0,329.0 430.0 C336.0 430.0,348.4 430.0,355.5 430.0 C362.6 430.0,375.0 430.0,382.1 430.0 C389.1 430.0,401.5 430.0,408.6 430.0 C415.7 430.0,428.1 430.0,435.2 430.0 C442.3 430.0,454.6 430.0,461.7 430.0 C468.8 430.0,481.2 430.0,488.3 430.0 C495.4 430.0,507.7 430.0,514.8 430.0 C521.9 430.0,534.3 439.8,541.4 430.0 C548.5 420.2,560.9 370.4,567.9 356.7 C575.0 343.0,587.4 325.4,594.5 327.3 C601.6 329.3,614.0 377.2,621.0 371.3 C628.1 365.5,640.5 297.0,647.6 283.3 C654.7 269.6,667.1 276.5,674.1 268.7 C681.2 260.8,693.6 211.0,700.7 224.7 C707.8 238.4,720.2 345.9,727.2 371.3 C734.3 396.8,746.7 411.4,753.8 415.3 C760.9 419.2,773.3 408.5,780.3 400.7 C787.4 392.8,799.8 358.6,806.9 356.7 C814.0 354.7,826.4 376.2,833.4 386.0 C840.5 395.8,856.5 424.1,860.0 430.0" fill="none" stroke="#58A6B8" stroke-width="2.2" stroke-linecap="round" stroke-linejoin="round" filter="url(#glowSm)" stroke-dasharray="1698" stroke-dashoffset="1698">
  <animate attributeName="stroke-dashoffset" from="1698" to="0" dur="2.5s" fill="freeze" calcMode="spline" keySplines="0.4 0 0.2 1"/>
  <animate attributeName="opacity" values="0.7;1;0.85;1" dur="6s" begin="2.5s" repeatCount="indefinite"/>
</path>
<circle cx="90.0" cy="430.0" r="2.2" fill="#58A6B8" stroke="#0d0d0d" stroke-width="1" filter="url(#glowSm)" opacity="0">
  <title>May 27
0 Contributions</title>
  <animate attributeName="opacity" from="0" to="1" dur="0.4s" begin="0.80s" fill="freeze"/>
  <animate attributeName="r" values="2.2;3.2;2.2" dur="4s" begin="1.20s" repeatCount="indefinite"/>
</circle>
<circle cx="116.6" cy="342.0" r="3.7" fill="#58A6B8" stroke="#0d0d0d" stroke-width="1" filter="url(#glowSm)" opacity="0">
  <title>May 28
6 Contributions</title>
  <animate attributeName="opacity" from="0" to="1" dur="0.4s" begin="0.86s" fill="freeze"/>
  <animate attributeName="r" values="3.7;4.7;3.7" dur="4s" begin="1.26s" repeatCount="indefinite"/>
</circle>
<circle cx="143.1" cy="430.0" r="2.2" fill="#58A6B8" stroke="#0d0d0d" stroke-width="1" filter="url(#glowSm)" opacity="0">
  <title>May 29
0 Contributions</title>
  <animate attributeName="opacity" from="0" to="1" dur="0.4s" begin="0.92s" fill="freeze"/>
  <animate attributeName="r" values="2.2;3.2;2.2" dur="4s" begin="1.32s" repeatCount="indefinite"/>
</circle>
<circle cx="169.7" cy="430.0" r="2.2" fill="#58A6B8" stroke="#0d0d0d" stroke-width="1" filter="url(#glowSm)" opacity="0">
  <title>May 30
0 Contributions</title>
  <animate attributeName="opacity" from="0" to="1" dur="0.4s" begin="0.98s" fill="freeze"/>
  <animate attributeName="r" values="2.2;3.2;2.2" dur="4s" begin="1.38s" repeatCount="indefinite"/>
</circle>
<circle cx="196.2" cy="430.0" r="2.2" fill="#58A6B8" stroke="#0d0d0d" stroke-width="1" filter="url(#glowSm)" opacity="0">
  <title>May 31
0 Contributions</title>
  <animate attributeName="opacity" from="0" to="1" dur="0.4s" begin="1.04s" fill="freeze"/>
  <animate attributeName="r" values="2.2;3.2;2.2" dur="4s" begin="1.44s" repeatCount="indefinite"/>
</circle>
<circle cx="222.8" cy="430.0" r="2.2" fill="#58A6B8" stroke="#0d0d0d" stroke-width="1" filter="url(#glowSm)" opacity="0">
  <title>Jun 1
0 Contributions</title>
  <animate attributeName="opacity" from="0" to="1" dur="0.4s" begin="1.10s" fill="freeze"/>
  <animate attributeName="r" values="2.2;3.2;2.2" dur="4s" begin="1.50s" repeatCount="indefinite"/>
</circle>
<circle cx="249.3" cy="430.0" r="2.2" fill="#58A6B8" stroke="#0d0d0d" stroke-width="1" filter="url(#glowSm)" opacity="0">
  <title>Jun 2
0 Contributions</title>
  <animate attributeName="opacity" from="0" to="1" dur="0.4s" begin="1.16s" fill="freeze"/>
  <animate attributeName="r" values="2.2;3.2;2.2" dur="4s" begin="1.56s" repeatCount="indefinite"/>
</circle>
<circle cx="275.9" cy="415.3" r="2.5" fill="#58A6B8" stroke="#0d0d0d" stroke-width="1" filter="url(#glowSm)" opacity="0">
  <title>Jun 3
1 Contribution</title>
  <animate attributeName="opacity" from="0" to="1" dur="0.4s" begin="1.22s" fill="freeze"/>
  <animate attributeName="r" values="2.5;3.5;2.5" dur="4s" begin="1.62s" repeatCount="indefinite"/>
</circle>
<circle cx="302.4" cy="430.0" r="2.2" fill="#58A6B8" stroke="#0d0d0d" stroke-width="1" filter="url(#glowSm)" opacity="0">
  <title>Jun 4
0 Contributions</title>
  <animate attributeName="opacity" from="0" to="1" dur="0.4s" begin="1.28s" fill="freeze"/>
  <animate attributeName="r" values="2.2;3.2;2.2" dur="4s" begin="1.68s" repeatCount="indefinite"/>
</circle>
<circle cx="329.0" cy="430.0" r="2.2" fill="#58A6B8" stroke="#0d0d0d" stroke-width="1" filter="url(#glowSm)" opacity="0">
  <title>Jun 5
0 Contributions</title>
  <animate attributeName="opacity" from="0" to="1" dur="0.4s" begin="1.34s" fill="freeze"/>
  <animate attributeName="r" values="2.2;3.2;2.2" dur="4s" begin="1.74s" repeatCount="indefinite"/>
</circle>
<circle cx="355.5" cy="430.0" r="2.2" fill="#58A6B8" stroke="#0d0d0d" stroke-width="1" filter="url(#glowSm)" opacity="0">
  <title>Jun 6
0 Contributions</title>
  <animate attributeName="opacity" from="0" to="1" dur="0.4s" begin="1.40s" fill="freeze"/>
  <animate attributeName="r" values="2.2;3.2;2.2" dur="4s" begin="1.80s" repeatCount="indefinite"/>
</circle>
<circle cx="382.1" cy="430.0" r="2.2" fill="#58A6B8" stroke="#0d0d0d" stroke-width="1" filter="url(#glowSm)" opacity="0">
  <title>Jun 7
0 Contributions</title>
  <animate attributeName="opacity" from="0" to="1" dur="0.4s" begin="1.46s" fill="freeze"/>
  <animate attributeName="r" values="2.2;3.2;2.2" dur="4s" begin="1.86s" repeatCount="indefinite"/>
</circle>
<circle cx="408.6" cy="430.0" r="2.2" fill="#58A6B8" stroke="#0d0d0d" stroke-width="1" filter="url(#glowSm)" opacity="0">
  <title>Jun 8
0 Contributions</title>
  <animate attributeName="opacity" from="0" to="1" dur="0.4s" begin="1.52s" fill="freeze"/>
  <animate attributeName="r" values="2.2;3.2;2.2" dur="4s" begin="1.92s" repeatCount="indefinite"/>
</circle>
<circle cx="435.2" cy="430.0" r="2.2" fill="#58A6B8" stroke="#0d0d0d" stroke-width="1" filter="url(#glowSm)" opacity="0">
  <title>Jun 9
0 Contributions</title>
  <animate attributeName="opacity" from="0" to="1" dur="0.4s" begin="1.58s" fill="freeze"/>
  <animate attributeName="r" values="2.2;3.2;2.2" dur="4s" begin="1.98s" repeatCount="indefinite"/>
</circle>
<circle cx="461.7" cy="430.0" r="2.2" fill="#58A6B8" stroke="#0d0d0d" stroke-width="1" filter="url(#glowSm)" opacity="0">
  <title>Jun 10
0 Contributions</title>
  <animate attributeName="opacity" from="0" to="1" dur="0.4s" begin="1.64s" fill="freeze"/>
  <animate attributeName="r" values="2.2;3.2;2.2" dur="4s" begin="2.04s" repeatCount="indefinite"/>
</circle>
<circle cx="488.3" cy="430.0" r="2.2" fill="#58A6B8" stroke="#0d0d0d" stroke-width="1" filter="url(#glowSm)" opacity="0">
  <title>Jun 11
0 Contributions</title>
  <animate attributeName="opacity" from="0" to="1" dur="0.4s" begin="1.70s" fill="freeze"/>
  <animate attributeName="r" values="2.2;3.2;2.2" dur="4s" begin="2.10s" repeatCount="indefinite"/>
</circle>
<circle cx="514.8" cy="430.0" r="2.2" fill="#58A6B8" stroke="#0d0d0d" stroke-width="1" filter="url(#glowSm)" opacity="0">
  <title>Jun 12
0 Contributions</title>
  <animate attributeName="opacity" from="0" to="1" dur="0.4s" begin="1.76s" fill="freeze"/>
  <animate attributeName="r" values="2.2;3.2;2.2" dur="4s" begin="2.16s" repeatCount="indefinite"/>
</circle>
<circle cx="541.4" cy="430.0" r="2.2" fill="#58A6B8" stroke="#0d0d0d" stroke-width="1" filter="url(#glowSm)" opacity="0">
  <title>Jun 13
0 Contributions</title>
  <animate attributeName="opacity" from="0" to="1" dur="0.4s" begin="1.82s" fill="freeze"/>
  <animate attributeName="r" values="2.2;3.2;2.2" dur="4s" begin="2.22s" repeatCount="indefinite"/>
</circle>
<circle cx="567.9" cy="356.7" r="3.5" fill="#58A6B8" stroke="#0d0d0d" stroke-width="1" filter="url(#glowSm)" opacity="0">
  <title>Jun 14
5 Contributions</title>
  <animate attributeName="opacity" from="0" to="1" dur="0.4s" begin="1.88s" fill="freeze"/>
  <animate attributeName="r" values="3.5;4.5;3.5" dur="4s" begin="2.28s" repeatCount="indefinite"/>
</circle>
<circle cx="594.5" cy="327.3" r="4.0" fill="#58A6B8" stroke="#0d0d0d" stroke-width="1" filter="url(#glowSm)" opacity="0">
  <title>Jun 15
7 Contributions</title>
  <animate attributeName="opacity" from="0" to="1" dur="0.4s" begin="1.94s" fill="freeze"/>
  <animate attributeName="r" values="4.0;5.0;4.0" dur="4s" begin="2.34s" repeatCount="indefinite"/>
</circle>
<circle cx="621.0" cy="371.3" r="3.2" fill="#58A6B8" stroke="#0d0d0d" stroke-width="1" filter="url(#glowSm)" opacity="0">
  <title>Jun 16
4 Contributions</title>
  <animate attributeName="opacity" from="0" to="1" dur="0.4s" begin="2.00s" fill="freeze"/>
  <animate attributeName="r" values="3.2;4.2;3.2" dur="4s" begin="2.40s" repeatCount="indefinite"/>
</circle>
<circle cx="647.6" cy="283.3" r="4.7" fill="#58A6B8" stroke="#0d0d0d" stroke-width="1" filter="url(#glowSm)" opacity="0">
  <title>Jun 17
10 Contributions</title>
  <animate attributeName="opacity" from="0" to="1" dur="0.4s" begin="2.06s" fill="freeze"/>
  <animate attributeName="r" values="4.7;5.7;4.7" dur="4s" begin="2.46s" repeatCount="indefinite"/>
</circle>
<circle cx="674.1" cy="268.7" r="5.0" fill="#58A6B8" stroke="#0d0d0d" stroke-width="1" filter="url(#glowSm)" opacity="0">
  <title>Jun 18
11 Contributions</title>
  <animate attributeName="opacity" from="0" to="1" dur="0.4s" begin="2.12s" fill="freeze"/>
  <animate attributeName="r" values="5.0;6.0;5.0" dur="4s" begin="2.52s" repeatCount="indefinite"/>
</circle>
<circle cx="700.7" cy="224.7" r="18" fill="url(#haloGrad)" opacity="0">
  <animate attributeName="opacity" values="0;0.6;0.3;0.6" dur="4s" begin="2.18s" repeatCount="indefinite"/>
  <animate attributeName="r" values="14;22;14" dur="4s" begin="2.18s" repeatCount="indefinite"/>
</circle>
<circle cx="700.7" cy="224.7" r="7.2" fill="#e8f4f7" stroke="#0d0d0d" stroke-width="1" filter="url(#glowMd)" opacity="0">
  <title>Jun 19
14 Contributions</title>
  <animate attributeName="opacity" from="0" to="1" dur="0.4s" begin="2.18s" fill="freeze"/>
  <animate attributeName="r" values="7.2;9.2;7.2" dur="3s" begin="2.58s" repeatCount="indefinite"/>
</circle>
<circle cx="727.2" cy="371.3" r="3.2" fill="#58A6B8" stroke="#0d0d0d" stroke-width="1" filter="url(#glowSm)" opacity="0">
  <title>Jun 20
4 Contributions</title>
  <animate attributeName="opacity" from="0" to="1" dur="0.4s" begin="2.24s" fill="freeze"/>
  <animate attributeName="r" values="3.2;4.2;3.2" dur="4s" begin="2.64s" repeatCount="indefinite"/>
</circle>
<circle cx="753.8" cy="415.3" r="2.5" fill="#58A6B8" stroke="#0d0d0d" stroke-width="1" filter="url(#glowSm)" opacity="0">
  <title>Jun 21
1 Contribution</title>
  <animate attributeName="opacity" from="0" to="1" dur="0.4s" begin="2.30s" fill="freeze"/>
  <animate attributeName="r" values="2.5;3.5;2.5" dur="4s" begin="2.70s" repeatCount="indefinite"/>
</circle>
<circle cx="780.3" cy="400.7" r="2.7" fill="#58A6B8" stroke="#0d0d0d" stroke-width="1" filter="url(#glowSm)" opacity="0">
  <title>Jun 22
2 Contributions</title>
  <animate attributeName="opacity" from="0" to="1" dur="0.4s" begin="2.36s" fill="freeze"/>
  <animate attributeName="r" values="2.7;3.7;2.7" dur="4s" begin="2.76s" repeatCount="indefinite"/>
</circle>
<circle cx="806.9" cy="356.7" r="3.5" fill="#58A6B8" stroke="#0d0d0d" stroke-width="1" filter="url(#glowSm)" opacity="0">
  <title>Jun 23
5 Contributions</title>
  <animate attributeName="opacity" from="0" to="1" dur="0.4s" begin="2.42s" fill="freeze"/>
  <animate attributeName="r" values="3.5;4.5;3.5" dur="4s" begin="2.82s" repeatCount="indefinite"/>
</circle>
<circle cx="833.4" cy="386.0" r="3.0" fill="#58A6B8" stroke="#0d0d0d" stroke-width="1" filter="url(#glowSm)" opacity="0">
  <title>Jun 24
3 Contributions</title>
  <animate attributeName="opacity" from="0" to="1" dur="0.4s" begin="2.48s" fill="freeze"/>
  <animate attributeName="r" values="3.0;4.0;3.0" dur="4s" begin="2.88s" repeatCount="indefinite"/>
</circle>
<circle cx="860.0" cy="430.0" r="2.2" fill="#58A6B8" stroke="#0d0d0d" stroke-width="1" filter="url(#glowSm)" opacity="0">
  <title>Jun 25
0 Contributions</title>
  <animate attributeName="opacity" from="0" to="1" dur="0.4s" begin="2.54s" fill="freeze"/>
  <animate attributeName="r" values="2.2;3.2;2.2" dur="4s" begin="2.94s" repeatCount="indefinite"/>
</circle>
<text x="90" y="466" text-anchor="start" font-family="Georgia,'Palatino Linotype',serif" font-size="10" fill="#5a7a80" letter-spacing="1.5">MAY</text>
<text x="860" y="466" text-anchor="end" font-family="Georgia,'Palatino Linotype',serif" font-size="10" fill="#5a7a80" letter-spacing="1.5">JUN</text>
<text x="450" y="522" text-anchor="middle" font-family="Georgia,'Palatino Linotype',serif" font-size="9" fill="#5a7a80" letter-spacing="4" opacity="0.5">LAST 30 DAYS OF DARK RITUALS</text>
</svg>