<svg xmlns="http://www.w3.org/2000/svg" viewBox="0 0 900 540" width="900" height="540">
<defs>
  <!-- Gradients -->
  <linearGradient id="areaFill" x1="0" y1="0" x2="0" y2="1">
    <stop offset="0%" stop-color="#58A6B8" stop-opacity="0.28"/>
    <stop offset="85%" stop-color="#58A6B8" stop-opacity="0.03"/>
    <stop offset="100%" stop-color="#58A6B8" stop-opacity="0"/>
  </linearGradient>
  <radialGradient id="haloGrad" cx="50%" cy="50%" r="50%">
    <stop offset="0%" stop-color="#58A6B8" stop-opacity="0.5"/>
    <stop offset="100%" stop-color="#58A6B8" stop-opacity="0"/>
  </radialGradient>
  <linearGradient id="frameFade" x1="0" y1="0" x2="1" y2="1">
    <stop offset="0%" stop-color="#58A6B8" stop-opacity="0.35"/>
    <stop offset="50%" stop-color="#58A6B8" stop-opacity="0.12"/>
    <stop offset="100%" stop-color="#58A6B8" stop-opacity="0.35"/>
  </linearGradient>
  <!-- Filters -->
  <filter id="glowSm" x="-50%" y="-50%" width="200%" height="200%">
    <feGaussianBlur stdDeviation="2.5" result="b"/><feMerge><feMergeNode in="b"/><feMergeNode in="SourceGraphic"/></feMerge>
  </filter>
  <filter id="glowMd" x="-50%" y="-50%" width="200%" height="200%">
    <feGaussianBlur stdDeviation="5" result="b"/><feMerge><feMergeNode in="b"/><feMergeNode in="SourceGraphic"/></feMerge>
  </filter>
  <filter id="glowLg" x="-80%" y="-80%" width="260%" height="260%">
    <feGaussianBlur stdDeviation="10" result="b"/><feMerge><feMergeNode in="b"/><feMergeNode in="SourceGraphic"/></feMerge>
  </filter>
  <filter id="cardShadow" x="-10%" y="-10%" width="120%" height="130%">
    <feGaussianBlur stdDeviation="6" result="b"/><feFlood flood-color="#58A6B8" flood-opacity="0.08" result="c"/>
    <feComposite in="c" in2="b" operator="in" result="s"/><feMerge><feMergeNode in="s"/><feMergeNode in="SourceGraphic"/></feMerge>
  </filter>
</defs>

<!-- Background -->
<rect width="900" height="540" fill="#0d0d0d" rx="16"/>
<line x1="90" y1="210.0" x2="860" y2="210.0" stroke="rgba(88,166,184,0.055)" stroke-width="0.7"/>
<line x1="90" y1="246.7" x2="860" y2="246.7" stroke="rgba(88,166,184,0.055)" stroke-width="0.7"/>
<line x1="90" y1="283.3" x2="860" y2="283.3" stroke="rgba(88,166,184,0.055)" stroke-width="0.7"/>
<line x1="90" y1="320.0" x2="860" y2="320.0" stroke="rgba(88,166,184,0.055)" stroke-width="0.7"/>
<line x1="90" y1="356.7" x2="860" y2="356.7" stroke="rgba(88,166,184,0.055)" stroke-width="0.7"/>
<line x1="90" y1="393.3" x2="860" y2="393.3" stroke="rgba(88,166,184,0.055)" stroke-width="0.7"/>
<line x1="90" y1="430.0" x2="860" y2="430.0" stroke="rgba(88,166,184,0.055)" stroke-width="0.7"/>
<line x1="90.0" y1="210" x2="90.0" y2="430" stroke="rgba(88,166,184,0.055)" stroke-width="0.5"/>
<line x1="222.8" y1="210" x2="222.8" y2="430" stroke="rgba(88,166,184,0.055)" stroke-width="0.5"/>
<line x1="355.5" y1="210" x2="355.5" y2="430" stroke="rgba(88,166,184,0.055)" stroke-width="0.5"/>
<line x1="488.3" y1="210" x2="488.3" y2="430" stroke="rgba(88,166,184,0.055)" stroke-width="0.5"/>
<line x1="621.0" y1="210" x2="621.0" y2="430" stroke="rgba(88,166,184,0.055)" stroke-width="0.5"/>
<line x1="753.8" y1="210" x2="753.8" y2="430" stroke="rgba(88,166,184,0.055)" stroke-width="0.5"/>
<circle cx="308.9" cy="323.0" r="0.7" fill="#58A6B8" opacity="0.126"><animate attributeName="opacity" values="0.126;0.277;0.126" dur="4.5s" begin="2.9s" repeatCount="indefinite"/></circle>
<circle cx="133.6" cy="330.4" r="0.7" fill="#58A6B8" opacity="0.135"><animate attributeName="opacity" values="0.135;0.297;0.135" dur="4.1s" begin="3.7s" repeatCount="indefinite"/></circle>
<circle cx="189.9" cy="215.0" r="0.8" fill="#58A6B8" opacity="0.066"><animate attributeName="opacity" values="0.066;0.145;0.066" dur="7.6s" begin="1.7s" repeatCount="indefinite"/></circle>
<circle cx="68.7" cy="5.5" r="0.8" fill="#58A6B8" opacity="0.044"><animate attributeName="opacity" values="0.044;0.097;0.044" dur="6.9s" begin="3.7s" repeatCount="indefinite"/></circle>
<circle cx="438.5" cy="537.7" r="0.9" fill="#58A6B8" opacity="0.126"><animate attributeName="opacity" values="0.126;0.277;0.126" dur="7.0s" begin="2.4s" repeatCount="indefinite"/></circle>
<circle cx="700.8" cy="344.8" r="1.3" fill="#58A6B8" opacity="0.102"><animate attributeName="opacity" values="0.102;0.224;0.102" dur="3.7s" begin="0.8s" repeatCount="indefinite"/></circle>
<circle cx="831.0" cy="368.4" r="0.4" fill="#58A6B8" opacity="0.145"><animate attributeName="opacity" values="0.145;0.319;0.145" dur="8.5s" begin="0.7s" repeatCount="indefinite"/></circle>
<circle cx="236.2" cy="99.8" r="1.4" fill="#58A6B8" opacity="0.119"><animate attributeName="opacity" values="0.119;0.262;0.119" dur="5.0s" begin="0.1s" repeatCount="indefinite"/></circle>
<circle cx="628.9" cy="442.4" r="1.0" fill="#58A6B8" opacity="0.123"><animate attributeName="opacity" values="0.123;0.271;0.123" dur="6.3s" begin="2.8s" repeatCount="indefinite"/></circle>
<circle cx="591.0" cy="230.6" r="1.0" fill="#58A6B8" opacity="0.044"><animate attributeName="opacity" values="0.044;0.097;0.044" dur="5.6s" begin="0.9s" repeatCount="indefinite"/></circle>
<circle cx="141.9" cy="97.1" r="0.4" fill="#58A6B8" opacity="0.060"><animate attributeName="opacity" values="0.060;0.132;0.060" dur="8.5s" begin="4.6s" repeatCount="indefinite"/></circle>
<circle cx="699.8" cy="69.5" r="1.3" fill="#58A6B8" opacity="0.047"><animate attributeName="opacity" values="0.047;0.103;0.047" dur="5.4s" begin="2.1s" repeatCount="indefinite"/></circle>
<circle cx="390.9" cy="460.8" r="1.1" fill="#58A6B8" opacity="0.146"><animate attributeName="opacity" values="0.146;0.321;0.146" dur="6.5s" begin="3.6s" repeatCount="indefinite"/></circle>
<circle cx="769.5" cy="146.4" r="0.7" fill="#58A6B8" opacity="0.143"><animate attributeName="opacity" values="0.143;0.315;0.143" dur="4.1s" begin="3.4s" repeatCount="indefinite"/></circle>
<circle cx="11.3" cy="105.2" r="1.3" fill="#58A6B8" opacity="0.088"><animate attributeName="opacity" values="0.088;0.194;0.088" dur="8.3s" begin="2.1s" repeatCount="indefinite"/></circle>
<circle cx="787.3" cy="20.1" r="0.8" fill="#58A6B8" opacity="0.057"><animate attributeName="opacity" values="0.057;0.125;0.057" dur="8.0s" begin="4.0s" repeatCount="indefinite"/></circle>
<circle cx="248.6" cy="21.4" r="1.3" fill="#58A6B8" opacity="0.150"><animate attributeName="opacity" values="0.150;0.330;0.150" dur="6.7s" begin="4.3s" repeatCount="indefinite"/></circle>
<circle cx="515.7" cy="239.6" r="1.0" fill="#58A6B8" opacity="0.116"><animate attributeName="opacity" values="0.116;0.255;0.116" dur="5.4s" begin="1.8s" repeatCount="indefinite"/></circle>
<circle cx="562.4" cy="445.2" r="1.1" fill="#58A6B8" opacity="0.114"><animate attributeName="opacity" values="0.114;0.251;0.114" dur="7.4s" begin="5.2s" repeatCount="indefinite"/></circle>
<circle cx="499.2" cy="50.3" r="1.3" fill="#58A6B8" opacity="0.118"><animate attributeName="opacity" values="0.118;0.260;0.118" dur="5.1s" begin="3.9s" repeatCount="indefinite"/></circle>
<circle cx="686.1" cy="258.9" r="0.9" fill="#58A6B8" opacity="0.063"><animate attributeName="opacity" values="0.063;0.139;0.063" dur="7.0s" begin="3.8s" repeatCount="indefinite"/></circle>
<circle cx="237.2" cy="69.9" r="0.9" fill="#58A6B8" opacity="0.143"><animate attributeName="opacity" values="0.143;0.315;0.143" dur="4.9s" begin="2.4s" repeatCount="indefinite"/></circle>
<circle cx="856.0" cy="227.4" r="1.2" fill="#58A6B8" opacity="0.111"><animate attributeName="opacity" values="0.111;0.244;0.111" dur="7.6s" begin="4.1s" repeatCount="indefinite"/></circle>
<circle cx="410.3" cy="129.1" r="1.2" fill="#58A6B8" opacity="0.112"><animate attributeName="opacity" values="0.112;0.246;0.112" dur="7.9s" begin="4.5s" repeatCount="indefinite"/></circle>
<circle cx="590.6" cy="375.9" r="0.7" fill="#58A6B8" opacity="0.103"><animate attributeName="opacity" values="0.103;0.227;0.103" dur="4.9s" begin="5.0s" repeatCount="indefinite"/></circle>
<circle cx="590.7" cy="276.4" r="0.5" fill="#58A6B8" opacity="0.108"><animate attributeName="opacity" values="0.108;0.238;0.108" dur="6.4s" begin="0.0s" repeatCount="indefinite"/></circle>
<circle cx="866.1" cy="86.5" r="0.7" fill="#58A6B8" opacity="0.054"><animate attributeName="opacity" values="0.054;0.119;0.054" dur="4.1s" begin="1.7s" repeatCount="indefinite"/></circle>
<circle cx="79.1" cy="379.6" r="1.1" fill="#58A6B8" opacity="0.099"><animate attributeName="opacity" values="0.099;0.218;0.099" dur="4.1s" begin="1.9s" repeatCount="indefinite"/></circle>
<circle cx="584.4" cy="145.0" r="1.1" fill="#58A6B8" opacity="0.125"><animate attributeName="opacity" values="0.125;0.275;0.125" dur="7.0s" begin="1.1s" repeatCount="indefinite"/></circle>
<circle cx="350.8" cy="63.0" r="0.9" fill="#58A6B8" opacity="0.059"><animate attributeName="opacity" values="0.059;0.130;0.059" dur="4.1s" begin="3.7s" repeatCount="indefinite"/></circle>
<circle cx="170.1" cy="443.8" r="0.6" fill="#58A6B8" opacity="0.073"><animate attributeName="opacity" values="0.073;0.161;0.073" dur="3.9s" begin="4.2s" repeatCount="indefinite"/></circle>
<circle cx="171.0" cy="86.9" r="0.9" fill="#58A6B8" opacity="0.082"><animate attributeName="opacity" values="0.082;0.180;0.082" dur="7.2s" begin="2.5s" repeatCount="indefinite"/></circle>
<circle cx="875.3" cy="147.0" r="0.5" fill="#58A6B8" opacity="0.150"><animate attributeName="opacity" values="0.150;0.330;0.150" dur="5.8s" begin="2.2s" repeatCount="indefinite"/></circle>
<circle cx="717.6" cy="469.5" r="0.8" fill="#58A6B8" opacity="0.084"><animate attributeName="opacity" values="0.084;0.185;0.084" dur="4.0s" begin="1.8s" repeatCount="indefinite"/></circle>
<circle cx="442.5" cy="326.8" r="1.1" fill="#58A6B8" opacity="0.104"><animate attributeName="opacity" values="0.104;0.229;0.104" dur="3.5s" begin="6.0s" repeatCount="indefinite"/></circle>
<circle cx="718.3" cy="466.6" r="1.0" fill="#58A6B8" opacity="0.146"><animate attributeName="opacity" values="0.146;0.321;0.146" dur="3.7s" begin="4.7s" repeatCount="indefinite"/></circle>
<circle cx="882.6" cy="219.2" r="1.1" fill="#58A6B8" opacity="0.096"><animate attributeName="opacity" values="0.096;0.211;0.096" dur="4.8s" begin="1.7s" repeatCount="indefinite"/></circle>
<circle cx="807.7" cy="233.6" r="1.0" fill="#58A6B8" opacity="0.111"><animate attributeName="opacity" values="0.111;0.244;0.111" dur="5.0s" begin="5.5s" repeatCount="indefinite"/></circle>
<circle cx="526.6" cy="234.1" r="1.2" fill="#58A6B8" opacity="0.088"><animate attributeName="opacity" values="0.088;0.194;0.088" dur="8.2s" begin="4.1s" repeatCount="indefinite"/></circle>
<circle cx="188.2" cy="61.6" r="0.4" fill="#58A6B8" opacity="0.055"><animate attributeName="opacity" values="0.055;0.121;0.055" dur="4.9s" begin="3.1s" repeatCount="indefinite"/></circle>
<circle cx="152.9" cy="292.7" r="0.4" fill="#58A6B8" opacity="0.118"><animate attributeName="opacity" values="0.118;0.260;0.118" dur="7.9s" begin="5.4s" repeatCount="indefinite"/></circle>
<circle cx="770.4" cy="109.9" r="1.1" fill="#58A6B8" opacity="0.051"><animate attributeName="opacity" values="0.051;0.112;0.051" dur="7.5s" begin="3.8s" repeatCount="indefinite"/></circle>
<circle cx="820.2" cy="433.0" r="1.2" fill="#58A6B8" opacity="0.113"><animate attributeName="opacity" values="0.113;0.249;0.113" dur="5.4s" begin="4.8s" repeatCount="indefinite"/></circle>
<circle cx="750.0" cy="445.4" r="1.4" fill="#58A6B8" opacity="0.098"><animate attributeName="opacity" values="0.098;0.216;0.098" dur="5.9s" begin="2.1s" repeatCount="indefinite"/></circle>
<circle cx="485.5" cy="47.4" r="1.0" fill="#58A6B8" opacity="0.054"><animate attributeName="opacity" values="0.054;0.119;0.054" dur="5.6s" begin="2.7s" repeatCount="indefinite"/></circle>
<circle cx="357.3" cy="481.8" r="0.9" fill="#58A6B8" opacity="0.043"><animate attributeName="opacity" values="0.043;0.095;0.043" dur="6.2s" begin="4.8s" repeatCount="indefinite"/></circle>
<circle cx="677.4" cy="414.3" r="1.0" fill="#58A6B8" opacity="0.098"><animate attributeName="opacity" values="0.098;0.216;0.098" dur="7.9s" begin="2.2s" repeatCount="indefinite"/></circle>
<circle cx="663.6" cy="217.5" r="1.1" fill="#58A6B8" opacity="0.121"><animate attributeName="opacity" values="0.121;0.266;0.121" dur="7.2s" begin="5.4s" repeatCount="indefinite"/></circle>
<circle cx="158.9" cy="78.3" r="1.2" fill="#58A6B8" opacity="0.112"><animate attributeName="opacity" values="0.112;0.246;0.112" dur="7.4s" begin="2.0s" repeatCount="indefinite"/></circle>
<circle cx="86.6" cy="205.3" r="1.0" fill="#58A6B8" opacity="0.104"><animate attributeName="opacity" values="0.104;0.229;0.104" dur="4.0s" begin="0.3s" repeatCount="indefinite"/></circle>
<circle cx="436.5" cy="372.6" r="0.3" fill="#58A6B8" opacity="0.103"><animate attributeName="opacity" values="0.103;0.227;0.103" dur="4.5s" begin="0.3s" repeatCount="indefinite"/></circle>
<circle cx="645.5" cy="68.2" r="1.0" fill="#58A6B8" opacity="0.080"><animate attributeName="opacity" values="0.080;0.176;0.080" dur="4.5s" begin="4.6s" repeatCount="indefinite"/></circle>
<circle cx="344.4" cy="255.3" r="1.2" fill="#58A6B8" opacity="0.119"><animate attributeName="opacity" values="0.119;0.262;0.119" dur="4.7s" begin="0.4s" repeatCount="indefinite"/></circle>
<circle cx="678.3" cy="123.8" r="1.4" fill="#58A6B8" opacity="0.081"><animate attributeName="opacity" values="0.081;0.178;0.081" dur="4.2s" begin="4.1s" repeatCount="indefinite"/></circle>
<circle cx="283.7" cy="268.6" r="1.1" fill="#58A6B8" opacity="0.157"><animate attributeName="opacity" values="0.157;0.345;0.157" dur="6.8s" begin="1.6s" repeatCount="indefinite"/></circle>
<g transform="translate(737.1,329.9) rotate(45)" opacity="0.041"><rect x="-2.0" y="-2.0" width="4.0" height="4.0" fill="#58A6B8"/><animate attributeName="opacity" values="0.041;0.103;0.041" dur="6.4s" begin="2.8s" repeatCount="indefinite"/></g>
<g transform="translate(187.2,138.0) rotate(45)" opacity="0.048"><rect x="-2.0" y="-2.0" width="4.0" height="4.0" fill="#58A6B8"/><animate attributeName="opacity" values="0.048;0.120;0.048" dur="9.3s" begin="5.0s" repeatCount="indefinite"/></g>
<g transform="translate(218.9,260.6) rotate(45)" opacity="0.063"><rect x="-2.0" y="-2.0" width="3.9" height="3.9" fill="#58A6B8"/><animate attributeName="opacity" values="0.063;0.158;0.063" dur="9.2s" begin="5.0s" repeatCount="indefinite"/></g>
<g transform="translate(714.9,252.3) rotate(45)" opacity="0.062"><rect x="-1.5" y="-1.5" width="3.1" height="3.1" fill="#58A6B8"/><animate attributeName="opacity" values="0.062;0.155;0.062" dur="7.1s" begin="4.0s" repeatCount="indefinite"/></g>
<g transform="translate(845.8,416.2) rotate(45)" opacity="0.084"><rect x="-1.5" y="-1.5" width="3.0" height="3.0" fill="#58A6B8"/><animate attributeName="opacity" values="0.084;0.210;0.084" dur="7.6s" begin="4.7s" repeatCount="indefinite"/></g>
<g transform="translate(275.9,182.1) rotate(45)" opacity="0.069"><rect x="-1.9" y="-1.9" width="3.8" height="3.8" fill="#58A6B8"/><animate attributeName="opacity" values="0.069;0.173;0.069" dur="9.0s" begin="4.0s" repeatCount="indefinite"/></g>
<g transform="translate(203.6,491.0) rotate(45)" opacity="0.078"><rect x="-2.2" y="-2.2" width="4.4" height="4.4" fill="#58A6B8"/><animate attributeName="opacity" values="0.078;0.195;0.078" dur="7.1s" begin="1.6s" repeatCount="indefinite"/></g>
<g transform="translate(319.9,449.3) rotate(45)" opacity="0.091"><rect x="-1.3" y="-1.3" width="2.6" height="2.6" fill="#58A6B8"/><animate attributeName="opacity" values="0.091;0.227;0.091" dur="9.9s" begin="0.7s" repeatCount="indefinite"/></g>
<g transform="translate(18,18) scale(1,1)"><path d="M0 25 L0 6 Q0 0 6 0 L25 0" fill="none" stroke="#58A6B8" stroke-width="1.3" opacity="0.35"/><circle cx="0" cy="0" r="1.8" fill="#58A6B8" opacity="0.4"/><path d="M0 12 L5 12" fill="none" stroke="#58A6B8" stroke-width="0.6" opacity="0.2"/><path d="M12 0 L12 5" fill="none" stroke="#58A6B8" stroke-width="0.6" opacity="0.2"/></g><g transform="translate(882,18) scale(-1,1)"><path d="M0 25 L0 6 Q0 0 6 0 L25 0" fill="none" stroke="#58A6B8" stroke-width="1.3" opacity="0.35"/><circle cx="0" cy="0" r="1.8" fill="#58A6B8" opacity="0.4"/><path d="M0 12 L5 12" fill="none" stroke="#58A6B8" stroke-width="0.6" opacity="0.2"/><path d="M12 0 L12 5" fill="none" stroke="#58A6B8" stroke-width="0.6" opacity="0.2"/></g><g transform="translate(18,522) scale(1,-1)"><path d="M0 25 L0 6 Q0 0 6 0 L25 0" fill="none" stroke="#58A6B8" stroke-width="1.3" opacity="0.35"/><circle cx="0" cy="0" r="1.8" fill="#58A6B8" opacity="0.4"/><path d="M0 12 L5 12" fill="none" stroke="#58A6B8" stroke-width="0.6" opacity="0.2"/><path d="M12 0 L12 5" fill="none" stroke="#58A6B8" stroke-width="0.6" opacity="0.2"/></g><g transform="translate(882,522) scale(-1,-1)"><path d="M0 25 L0 6 Q0 0 6 0 L25 0" fill="none" stroke="#58A6B8" stroke-width="1.3" opacity="0.35"/><circle cx="0" cy="0" r="1.8" fill="#58A6B8" opacity="0.4"/><path d="M0 12 L5 12" fill="none" stroke="#58A6B8" stroke-width="0.6" opacity="0.2"/><path d="M12 0 L12 5" fill="none" stroke="#58A6B8" stroke-width="0.6" opacity="0.2"/></g>
<rect x="10" y="10" width="880" height="520" rx="12" fill="none" stroke="url(#frameFade)" stroke-width="1"/>
<text x="450" y="50" text-anchor="middle" font-family="Georgia,'Palatino Linotype','Book Antiqua',Palatino,serif" font-size="22" font-weight="bold" fill="#e8f4f7" letter-spacing="8" filter="url(#glowMd)">✧ THE COMMIT COVEN ✧</text>
<line x1="310" y1="62" x2="590" y2="62" stroke="#58A6B8" stroke-width="0.5" opacity="0.25"/>
<g filter="url(#cardShadow)"><rect x="70" y="80" width="240" height="78" rx="10" fill="rgba(88,166,184,0.05)" stroke="rgba(88,166,184,0.22)" stroke-width="0.8"/><text x="190" y="110" text-anchor="middle" font-family="Georgia,'Palatino Linotype',serif" font-size="11" fill="#5a7a80" letter-spacing="3" text-transform="uppercase">LONGEST STREAK</text><text x="190" y="136" text-anchor="middle" font-family="Georgia,'Palatino Linotype',serif" font-size="20" fill="#e8f4f7" font-weight="bold" filter="url(#glowSm)">12 Nights</text></g>
<g filter="url(#cardShadow)"><rect x="330" y="80" width="240" height="78" rx="10" fill="rgba(88,166,184,0.05)" stroke="rgba(88,166,184,0.22)" stroke-width="0.8"/><text x="450" y="110" text-anchor="middle" font-family="Georgia,'Palatino Linotype',serif" font-size="11" fill="#5a7a80" letter-spacing="3" text-transform="uppercase">CURRENT RITUAL</text><text x="450" y="136" text-anchor="middle" font-family="Georgia,'Palatino Linotype',serif" font-size="20" fill="#e8f4f7" font-weight="bold" filter="url(#glowSm)">1 Nights</text></g>
<g filter="url(#cardShadow)"><rect x="590" y="80" width="240" height="78" rx="10" fill="rgba(88,166,184,0.05)" stroke="rgba(88,166,184,0.22)" stroke-width="0.8"/><text x="710" y="110" text-anchor="middle" font-family="Georgia,'Palatino Linotype',serif" font-size="11" fill="#5a7a80" letter-spacing="3" text-transform="uppercase">TOTAL OFFERINGS</text><text x="710" y="136" text-anchor="middle" font-family="Georgia,'Palatino Linotype',serif" font-size="20" fill="#e8f4f7" font-weight="bold" filter="url(#glowSm)">195</text></g>
<text x="80" y="434.0" text-anchor="end" font-family="'Courier New',monospace" font-size="10" fill="#5a7a80">0</text>
<line x1="86" y1="430.0" x2="90" y2="430.0" stroke="#5a7a80" stroke-width="0.5"/>
<text x="80" y="390.0" text-anchor="end" font-family="'Courier New',monospace" font-size="10" fill="#5a7a80">5</text>
<line x1="86" y1="386.0" x2="90" y2="386.0" stroke="#5a7a80" stroke-width="0.5"/>
<text x="80" y="346.0" text-anchor="end" font-family="'Courier New',monospace" font-size="10" fill="#5a7a80">10</text>
<line x1="86" y1="342.0" x2="90" y2="342.0" stroke="#5a7a80" stroke-width="0.5"/>
<text x="80" y="302.0" text-anchor="end" font-family="'Courier New',monospace" font-size="10" fill="#5a7a80">15</text>
<line x1="86" y1="298.0" x2="90" y2="298.0" stroke="#5a7a80" stroke-width="0.5"/>
<text x="80" y="258.0" text-anchor="end" font-family="'Courier New',monospace" font-size="10" fill="#5a7a80">20</text>
<line x1="86" y1="254.0" x2="90" y2="254.0" stroke="#5a7a80" stroke-width="0.5"/>
<text x="80" y="214.0" text-anchor="end" font-family="'Courier New',monospace" font-size="10" fill="#5a7a80">25</text>
<line x1="86" y1="210.0" x2="90" y2="210.0" stroke="#5a7a80" stroke-width="0.5"/>
<text x="90.0" y="450" text-anchor="middle" font-family="'Courier New',monospace" font-size="10" fill="#5a7a80">15</text>
<text x="196.2" y="450" text-anchor="middle" font-family="'Courier New',monospace" font-size="10" fill="#5a7a80">19</text>
<text x="302.4" y="450" text-anchor="middle" font-family="'Courier New',monospace" font-size="10" fill="#5a7a80">23</text>
<text x="408.6" y="450" text-anchor="middle" font-family="'Courier New',monospace" font-size="10" fill="#5a7a80">27</text>
<text x="514.8" y="450" text-anchor="middle" font-family="'Courier New',monospace" font-size="10" fill="#5a7a80">1</text>
<text x="621.0" y="450" text-anchor="middle" font-family="'Courier New',monospace" font-size="10" fill="#5a7a80">5</text>
<text x="727.2" y="450" text-anchor="middle" font-family="'Courier New',monospace" font-size="10" fill="#5a7a80">9</text>
<text x="833.4" y="450" text-anchor="middle" font-family="'Courier New',monospace" font-size="10" fill="#5a7a80">13</text>
<text x="860.0" y="450" text-anchor="middle" font-family="'Courier New',monospace" font-size="10" fill="#5a7a80">14</text>
<line x1="90" y1="210" x2="90" y2="430" stroke="#58A6B8" stroke-width="0.5" opacity="0.2"/>
<line x1="90" y1="430" x2="860" y2="430" stroke="#58A6B8" stroke-width="0.5" opacity="0.2"/>
<path d="M90.0 368.4 C93.5 371.9,109.5 398.3,116.6 394.8 C123.6 391.3,136.0 350.2,143.1 342.0 C150.2 333.8,162.6 347.3,169.7 333.2 C176.7 319.1,189.1 228.2,196.2 236.4 C203.3 244.6,215.7 370.2,222.8 394.8 C229.8 419.4,242.2 418.9,249.3 421.2 C256.4 423.5,268.8 417.1,275.9 412.4 C282.9 407.7,295.3 387.2,302.4 386.0 C309.5 384.8,321.9 398.9,329.0 403.6 C336.0 408.3,348.4 417.7,355.5 421.2 C362.6 424.7,375.0 428.8,382.1 430.0 C389.1 431.2,401.5 430.0,408.6 430.0 C415.7 430.0,428.1 430.0,435.2 430.0 C442.3 430.0,454.6 435.9,461.7 430.0 C468.8 424.1,481.2 393.0,488.3 386.0 C495.4 379.0,507.7 381.9,514.8 377.2 C521.9 372.5,534.3 344.9,541.4 350.8 C548.5 356.7,560.9 410.6,567.9 421.2 C575.0 431.8,587.4 430.0,594.5 430.0 C601.6 430.0,614.0 421.2,621.0 421.2 C628.1 421.2,640.5 432.3,647.6 430.0 C654.7 427.7,667.1 404.8,674.1 403.6 C681.2 402.4,693.6 417.7,700.7 421.2 C707.8 424.7,720.2 428.8,727.2 430.0 C734.3 431.2,746.7 430.0,753.8 430.0 C760.9 430.0,773.3 430.0,780.3 430.0 C787.4 430.0,799.8 431.2,806.9 430.0 C814.0 428.8,826.4 421.2,833.4 421.2 C840.5 421.2,856.5 428.8,860.0 430.0 L860.0 430 L90.0 430 Z" fill="url(#areaFill)" opacity="0.9">
  <animate attributeName="opacity" values="0;0.9" dur="2s" fill="freeze"/>
</path>
<path d="M90.0 368.4 C93.5 371.9,109.5 398.3,116.6 394.8 C123.6 391.3,136.0 350.2,143.1 342.0 C150.2 333.8,162.6 347.3,169.7 333.2 C176.7 319.1,189.1 228.2,196.2 236.4 C203.3 244.6,215.7 370.2,222.8 394.8 C229.8 419.4,242.2 418.9,249.3 421.2 C256.4 423.5,268.8 417.1,275.9 412.4 C282.9 407.7,295.3 387.2,302.4 386.0 C309.5 384.8,321.9 398.9,329.0 403.6 C336.0 408.3,348.4 417.7,355.5 421.2 C362.6 424.7,375.0 428.8,382.1 430.0 C389.1 431.2,401.5 430.0,408.6 430.0 C415.7 430.0,428.1 430.0,435.2 430.0 C442.3 430.0,454.6 435.9,461.7 430.0 C468.8 424.1,481.2 393.0,488.3 386.0 C495.4 379.0,507.7 381.9,514.8 377.2 C521.9 372.5,534.3 344.9,541.4 350.8 C548.5 356.7,560.9 410.6,567.9 421.2 C575.0 431.8,587.4 430.0,594.5 430.0 C601.6 430.0,614.0 421.2,621.0 421.2 C628.1 421.2,640.5 432.3,647.6 430.0 C654.7 427.7,667.1 404.8,674.1 403.6 C681.2 402.4,693.6 417.7,700.7 421.2 C707.8 424.7,720.2 428.8,727.2 430.0 C734.3 431.2,746.7 430.0,753.8 430.0 C760.9 430.0,773.3 430.0,780.3 430.0 C787.4 430.0,799.8 431.2,806.9 430.0 C814.0 428.8,826.4 421.2,833.4 421.2 C840.5 421.2,856.5 428.8,860.0 430.0" fill="none" stroke="#58A6B8" stroke-width="4" opacity="0.15" filter="url(#glowLg)" stroke-linecap="round" stroke-linejoin="round"/>
<path d="M90.0 368.4 C93.5 371.9,109.5 398.3,116.6 394.8 C123.6 391.3,136.0 350.2,143.1 342.0 C150.2 333.8,162.6 347.3,169.7 333.2 C176.7 319.1,189.1 228.2,196.2 236.4 C203.3 244.6,215.7 370.2,222.8 394.8 C229.8 419.4,242.2 418.9,249.3 421.2 C256.4 423.5,268.8 417.1,275.9 412.4 C282.9 407.7,295.3 387.2,302.4 386.0 C309.5 384.8,321.9 398.9,329.0 403.6 C336.0 408.3,348.4 417.7,355.5 421.2 C362.6 424.7,375.0 428.8,382.1 430.0 C389.1 431.2,401.5 430.0,408.6 430.0 C415.7 430.0,428.1 430.0,435.2 430.0 C442.3 430.0,454.6 435.9,461.7 430.0 C468.8 424.1,481.2 393.0,488.3 386.0 C495.4 379.0,507.7 381.9,514.8 377.2 C521.9 372.5,534.3 344.9,541.4 350.8 C548.5 356.7,560.9 410.6,567.9 421.2 C575.0 431.8,587.4 430.0,594.5 430.0 C601.6 430.0,614.0 421.2,621.0 421.2 C628.1 421.2,640.5 432.3,647.6 430.0 C654.7 427.7,667.1 404.8,674.1 403.6 C681.2 402.4,693.6 417.7,700.7 421.2 C707.8 424.7,720.2 428.8,727.2 430.0 C734.3 431.2,746.7 430.0,753.8 430.0 C760.9 430.0,773.3 430.0,780.3 430.0 C787.4 430.0,799.8 431.2,806.9 430.0 C814.0 428.8,826.4 421.2,833.4 421.2 C840.5 421.2,856.5 428.8,860.0 430.0" fill="none" stroke="#58A6B8" stroke-width="2.2" stroke-linecap="round" stroke-linejoin="round" filter="url(#glowSm)" stroke-dasharray="1520" stroke-dashoffset="1520">
  <animate attributeName="stroke-dashoffset" from="1520" to="0" dur="2.5s" fill="freeze" calcMode="spline" keySplines="0.4 0 0.2 1"/>
  <animate attributeName="opacity" values="0.7;1;0.85;1" dur="6s" begin="2.5s" repeatCount="indefinite"/>
</path>
<circle cx="90.0" cy="368.4" r="3.3" fill="#58A6B8" stroke="#0d0d0d" stroke-width="1" filter="url(#glowSm)" opacity="0">
  <title>Jun 15
7 Contributions</title>
  <animate attributeName="opacity" from="0" to="1" dur="0.4s" begin="0.80s" fill="freeze"/>
  <animate attributeName="r" values="3.3;4.3;3.3" dur="4s" begin="1.20s" repeatCount="indefinite"/>
</circle>
<circle cx="116.6" cy="394.8" r="2.8" fill="#58A6B8" stroke="#0d0d0d" stroke-width="1" filter="url(#glowSm)" opacity="0">
  <title>Jun 16
4 Contributions</title>
  <animate attributeName="opacity" from="0" to="1" dur="0.4s" begin="0.86s" fill="freeze"/>
  <animate attributeName="r" values="2.8;3.8;2.8" dur="4s" begin="1.26s" repeatCount="indefinite"/>
</circle>
<circle cx="143.1" cy="342.0" r="3.8" fill="#58A6B8" stroke="#0d0d0d" stroke-width="1" filter="url(#glowSm)" opacity="0">
  <title>Jun 17
10 Contributions</title>
  <animate attributeName="opacity" from="0" to="1" dur="0.4s" begin="0.92s" fill="freeze"/>
  <animate attributeName="r" values="3.8;4.8;3.8" dur="4s" begin="1.32s" repeatCount="indefinite"/>
</circle>
<circle cx="169.7" cy="333.2" r="4.0" fill="#58A6B8" stroke="#0d0d0d" stroke-width="1" filter="url(#glowSm)" opacity="0">
  <title>Jun 18
11 Contributions</title>
  <animate attributeName="opacity" from="0" to="1" dur="0.4s" begin="0.98s" fill="freeze"/>
  <animate attributeName="r" values="4.0;5.0;4.0" dur="4s" begin="1.38s" repeatCount="indefinite"/>
</circle>
<circle cx="196.2" cy="236.4" r="18" fill="url(#haloGrad)" opacity="0">
  <animate attributeName="opacity" values="0;0.6;0.3;0.6" dur="4s" begin="1.04s" repeatCount="indefinite"/>
  <animate attributeName="r" values="14;22;14" dur="4s" begin="1.04s" repeatCount="indefinite"/>
</circle>
<circle cx="196.2" cy="236.4" r="7.2" fill="#e8f4f7" stroke="#0d0d0d" stroke-width="1" filter="url(#glowMd)" opacity="0">
  <title>Jun 19
22 Contributions</title>
  <animate attributeName="opacity" from="0" to="1" dur="0.4s" begin="1.04s" fill="freeze"/>
  <animate attributeName="r" values="7.2;9.2;7.2" dur="3s" begin="1.44s" repeatCount="indefinite"/>
</circle>
<circle cx="222.8" cy="394.8" r="2.8" fill="#58A6B8" stroke="#0d0d0d" stroke-width="1" filter="url(#glowSm)" opacity="0">
  <title>Jun 20
4 Contributions</title>
  <animate attributeName="opacity" from="0" to="1" dur="0.4s" begin="1.10s" fill="freeze"/>
  <animate attributeName="r" values="2.8;3.8;2.8" dur="4s" begin="1.50s" repeatCount="indefinite"/>
</circle>
<circle cx="249.3" cy="421.2" r="2.4" fill="#58A6B8" stroke="#0d0d0d" stroke-width="1" filter="url(#glowSm)" opacity="0">
  <title>Jun 21
1 Contribution</title>
  <animate attributeName="opacity" from="0" to="1" dur="0.4s" begin="1.16s" fill="freeze"/>
  <animate attributeName="r" values="2.4;3.4;2.4" dur="4s" begin="1.56s" repeatCount="indefinite"/>
</circle>
<circle cx="275.9" cy="412.4" r="2.5" fill="#58A6B8" stroke="#0d0d0d" stroke-width="1" filter="url(#glowSm)" opacity="0">
  <title>Jun 22
2 Contributions</title>
  <animate attributeName="opacity" from="0" to="1" dur="0.4s" begin="1.22s" fill="freeze"/>
  <animate attributeName="r" values="2.5;3.5;2.5" dur="4s" begin="1.62s" repeatCount="indefinite"/>
</circle>
<circle cx="302.4" cy="386.0" r="3.0" fill="#58A6B8" stroke="#0d0d0d" stroke-width="1" filter="url(#glowSm)" opacity="0">
  <title>Jun 23
5 Contributions</title>
  <animate attributeName="opacity" from="0" to="1" dur="0.4s" begin="1.28s" fill="freeze"/>
  <animate attributeName="r" values="3.0;4.0;3.0" dur="4s" begin="1.68s" repeatCount="indefinite"/>
</circle>
<circle cx="329.0" cy="403.6" r="2.7" fill="#58A6B8" stroke="#0d0d0d" stroke-width="1" filter="url(#glowSm)" opacity="0">
  <title>Jun 24
3 Contributions</title>
  <animate attributeName="opacity" from="0" to="1" dur="0.4s" begin="1.34s" fill="freeze"/>
  <animate attributeName="r" values="2.7;3.7;2.7" dur="4s" begin="1.74s" repeatCount="indefinite"/>
</circle>
<circle cx="355.5" cy="421.2" r="2.4" fill="#58A6B8" stroke="#0d0d0d" stroke-width="1" filter="url(#glowSm)" opacity="0">
  <title>Jun 25
1 Contribution</title>
  <animate attributeName="opacity" from="0" to="1" dur="0.4s" begin="1.40s" fill="freeze"/>
  <animate attributeName="r" values="2.4;3.4;2.4" dur="4s" begin="1.80s" repeatCount="indefinite"/>
</circle>
<circle cx="382.1" cy="430.0" r="2.2" fill="#58A6B8" stroke="#0d0d0d" stroke-width="1" filter="url(#glowSm)" opacity="0">
  <title>Jun 26
0 Contributions</title>
  <animate attributeName="opacity" from="0" to="1" dur="0.4s" begin="1.46s" fill="freeze"/>
  <animate attributeName="r" values="2.2;3.2;2.2" dur="4s" begin="1.86s" repeatCount="indefinite"/>
</circle>
<circle cx="408.6" cy="430.0" r="2.2" fill="#58A6B8" stroke="#0d0d0d" stroke-width="1" filter="url(#glowSm)" opacity="0">
  <title>Jun 27
0 Contributions</title>
  <animate attributeName="opacity" from="0" to="1" dur="0.4s" begin="1.52s" fill="freeze"/>
  <animate attributeName="r" values="2.2;3.2;2.2" dur="4s" begin="1.92s" repeatCount="indefinite"/>
</circle>
<circle cx="435.2" cy="430.0" r="2.2" fill="#58A6B8" stroke="#0d0d0d" stroke-width="1" filter="url(#glowSm)" opacity="0">
  <title>Jun 28
0 Contributions</title>
  <animate attributeName="opacity" from="0" to="1" dur="0.4s" begin="1.58s" fill="freeze"/>
  <animate attributeName="r" values="2.2;3.2;2.2" dur="4s" begin="1.98s" repeatCount="indefinite"/>
</circle>
<circle cx="461.7" cy="430.0" r="2.2" fill="#58A6B8" stroke="#0d0d0d" stroke-width="1" filter="url(#glowSm)" opacity="0">
  <title>Jun 29
0 Contributions</title>
  <animate attributeName="opacity" from="0" to="1" dur="0.4s" begin="1.64s" fill="freeze"/>
  <animate attributeName="r" values="2.2;3.2;2.2" dur="4s" begin="2.04s" repeatCount="indefinite"/>
</circle>
<circle cx="488.3" cy="386.0" r="3.0" fill="#58A6B8" stroke="#0d0d0d" stroke-width="1" filter="url(#glowSm)" opacity="0">
  <title>Jun 30
5 Contributions</title>
  <animate attributeName="opacity" from="0" to="1" dur="0.4s" begin="1.70s" fill="freeze"/>
  <animate attributeName="r" values="3.0;4.0;3.0" dur="4s" begin="2.10s" repeatCount="indefinite"/>
</circle>
<circle cx="514.8" cy="377.2" r="3.2" fill="#58A6B8" stroke="#0d0d0d" stroke-width="1" filter="url(#glowSm)" opacity="0">
  <title>Jul 1
6 Contributions</title>
  <animate attributeName="opacity" from="0" to="1" dur="0.4s" begin="1.76s" fill="freeze"/>
  <animate attributeName="r" values="3.2;4.2;3.2" dur="4s" begin="2.16s" repeatCount="indefinite"/>
</circle>
<circle cx="541.4" cy="350.8" r="3.6" fill="#58A6B8" stroke="#0d0d0d" stroke-width="1" filter="url(#glowSm)" opacity="0">
  <title>Jul 2
9 Contributions</title>
  <animate attributeName="opacity" from="0" to="1" dur="0.4s" begin="1.82s" fill="freeze"/>
  <animate attributeName="r" values="3.6;4.6;3.6" dur="4s" begin="2.22s" repeatCount="indefinite"/>
</circle>
<circle cx="567.9" cy="421.2" r="2.4" fill="#58A6B8" stroke="#0d0d0d" stroke-width="1" filter="url(#glowSm)" opacity="0">
  <title>Jul 3
1 Contribution</title>
  <animate attributeName="opacity" from="0" to="1" dur="0.4s" begin="1.88s" fill="freeze"/>
  <animate attributeName="r" values="2.4;3.4;2.4" dur="4s" begin="2.28s" repeatCount="indefinite"/>
</circle>
<circle cx="594.5" cy="430.0" r="2.2" fill="#58A6B8" stroke="#0d0d0d" stroke-width="1" filter="url(#glowSm)" opacity="0">
  <title>Jul 4
0 Contributions</title>
  <animate attributeName="opacity" from="0" to="1" dur="0.4s" begin="1.94s" fill="freeze"/>
  <animate attributeName="r" values="2.2;3.2;2.2" dur="4s" begin="2.34s" repeatCount="indefinite"/>
</circle>
<circle cx="621.0" cy="421.2" r="2.4" fill="#58A6B8" stroke="#0d0d0d" stroke-width="1" filter="url(#glowSm)" opacity="0">
  <title>Jul 5
1 Contribution</title>
  <animate attributeName="opacity" from="0" to="1" dur="0.4s" begin="2.00s" fill="freeze"/>
  <animate attributeName="r" values="2.4;3.4;2.4" dur="4s" begin="2.40s" repeatCount="indefinite"/>
</circle>
<circle cx="647.6" cy="430.0" r="2.2" fill="#58A6B8" stroke="#0d0d0d" stroke-width="1" filter="url(#glowSm)" opacity="0">
  <title>Jul 6
0 Contributions</title>
  <animate attributeName="opacity" from="0" to="1" dur="0.4s" begin="2.06s" fill="freeze"/>
  <animate attributeName="r" values="2.2;3.2;2.2" dur="4s" begin="2.46s" repeatCount="indefinite"/>
</circle>
<circle cx="674.1" cy="403.6" r="2.7" fill="#58A6B8" stroke="#0d0d0d" stroke-width="1" filter="url(#glowSm)" opacity="0">
  <title>Jul 7
3 Contributions</title>
  <animate attributeName="opacity" from="0" to="1" dur="0.4s" begin="2.12s" fill="freeze"/>
  <animate attributeName="r" values="2.7;3.7;2.7" dur="4s" begin="2.52s" repeatCount="indefinite"/>
</circle>
<circle cx="700.7" cy="421.2" r="2.4" fill="#58A6B8" stroke="#0d0d0d" stroke-width="1" filter="url(#glowSm)" opacity="0">
  <title>Jul 8
1 Contribution</title>
  <animate attributeName="opacity" from="0" to="1" dur="0.4s" begin="2.18s" fill="freeze"/>
  <animate attributeName="r" values="2.4;3.4;2.4" dur="4s" begin="2.58s" repeatCount="indefinite"/>
</circle>
<circle cx="727.2" cy="430.0" r="2.2" fill="#58A6B8" stroke="#0d0d0d" stroke-width="1" filter="url(#glowSm)" opacity="0">
  <title>Jul 9
0 Contributions</title>
  <animate attributeName="opacity" from="0" to="1" dur="0.4s" begin="2.24s" fill="freeze"/>
  <animate attributeName="r" values="2.2;3.2;2.2" dur="4s" begin="2.64s" repeatCount="indefinite"/>
</circle>
<circle cx="753.8" cy="430.0" r="2.2" fill="#58A6B8" stroke="#0d0d0d" stroke-width="1" filter="url(#glowSm)" opacity="0">
  <title>Jul 10
0 Contributions</title>
  <animate attributeName="opacity" from="0" to="1" dur="0.4s" begin="2.30s" fill="freeze"/>
  <animate attributeName="r" values="2.2;3.2;2.2" dur="4s" begin="2.70s" repeatCount="indefinite"/>
</circle>
<circle cx="780.3" cy="430.0" r="2.2" fill="#58A6B8" stroke="#0d0d0d" stroke-width="1" filter="url(#glowSm)" opacity="0">
  <title>Jul 11
0 Contributions</title>
  <animate attributeName="opacity" from="0" to="1" dur="0.4s" begin="2.36s" fill="freeze"/>
  <animate attributeName="r" values="2.2;3.2;2.2" dur="4s" begin="2.76s" repeatCount="indefinite"/>
</circle>
<circle cx="806.9" cy="430.0" r="2.2" fill="#58A6B8" stroke="#0d0d0d" stroke-width="1" filter="url(#glowSm)" opacity="0">
  <title>Jul 12
0 Contributions</title>
  <animate attributeName="opacity" from="0" to="1" dur="0.4s" begin="2.42s" fill="freeze"/>
  <animate attributeName="r" values="2.2;3.2;2.2" dur="4s" begin="2.82s" repeatCount="indefinite"/>
</circle>
<circle cx="833.4" cy="421.2" r="2.4" fill="#58A6B8" stroke="#0d0d0d" stroke-width="1" filter="url(#glowSm)" opacity="0">
  <title>Jul 13
1 Contribution</title>
  <animate attributeName="opacity" from="0" to="1" dur="0.4s" begin="2.48s" fill="freeze"/>
  <animate attributeName="r" values="2.4;3.4;2.4" dur="4s" begin="2.88s" repeatCount="indefinite"/>
</circle>
<circle cx="860.0" cy="430.0" r="2.2" fill="#58A6B8" stroke="#0d0d0d" stroke-width="1" filter="url(#glowSm)" opacity="0">
  <title>Jul 14
0 Contributions</title>
  <animate attributeName="opacity" from="0" to="1" dur="0.4s" begin="2.54s" fill="freeze"/>
  <animate attributeName="r" values="2.2;3.2;2.2" dur="4s" begin="2.94s" repeatCount="indefinite"/>
</circle>
<text x="90" y="466" text-anchor="start" font-family="Georgia,'Palatino Linotype',serif" font-size="10" fill="#5a7a80" letter-spacing="1.5">JUN</text>
<text x="860" y="466" text-anchor="end" font-family="Georgia,'Palatino Linotype',serif" font-size="10" fill="#5a7a80" letter-spacing="1.5">JUL</text>
<text x="450" y="522" text-anchor="middle" font-family="Georgia,'Palatino Linotype',serif" font-size="9" fill="#5a7a80" letter-spacing="4" opacity="0.5">LAST 30 DAYS OF DARK RITUALS</text>
</svg>