<svg xmlns="http://www.w3.org/2000/svg" viewBox="0 0 900 540" width="900" height="540">
<defs>
  <!-- Gradients -->
  <linearGradient id="areaFill" x1="0" y1="0" x2="0" y2="1">
    <stop offset="0%" stop-color="#58A6B8" stop-opacity="0.28"/>
    <stop offset="85%" stop-color="#58A6B8" stop-opacity="0.03"/>
    <stop offset="100%" stop-color="#58A6B8" stop-opacity="0"/>
  </linearGradient>
  <radialGradient id="haloGrad" cx="50%" cy="50%" r="50%">
    <stop offset="0%" stop-color="#58A6B8" stop-opacity="0.5"/>
    <stop offset="100%" stop-color="#58A6B8" stop-opacity="0"/>
  </radialGradient>
  <linearGradient id="frameFade" x1="0" y1="0" x2="1" y2="1">
    <stop offset="0%" stop-color="#58A6B8" stop-opacity="0.35"/>
    <stop offset="50%" stop-color="#58A6B8" stop-opacity="0.12"/>
    <stop offset="100%" stop-color="#58A6B8" stop-opacity="0.35"/>
  </linearGradient>
  <!-- Filters -->
  <filter id="glowSm" x="-50%" y="-50%" width="200%" height="200%">
    <feGaussianBlur stdDeviation="2.5" result="b"/><feMerge><feMergeNode in="b"/><feMergeNode in="SourceGraphic"/></feMerge>
  </filter>
  <filter id="glowMd" x="-50%" y="-50%" width="200%" height="200%">
    <feGaussianBlur stdDeviation="5" result="b"/><feMerge><feMergeNode in="b"/><feMergeNode in="SourceGraphic"/></feMerge>
  </filter>
  <filter id="glowLg" x="-80%" y="-80%" width="260%" height="260%">
    <feGaussianBlur stdDeviation="10" result="b"/><feMerge><feMergeNode in="b"/><feMergeNode in="SourceGraphic"/></feMerge>
  </filter>
  <filter id="cardShadow" x="-10%" y="-10%" width="120%" height="130%">
    <feGaussianBlur stdDeviation="6" result="b"/><feFlood flood-color="#58A6B8" flood-opacity="0.08" result="c"/>
    <feComposite in="c" in2="b" operator="in" result="s"/><feMerge><feMergeNode in="s"/><feMergeNode in="SourceGraphic"/></feMerge>
  </filter>
</defs>

<!-- Background -->
<rect width="900" height="540" fill="#0d0d0d" rx="16"/>
<line x1="90" y1="210.0" x2="860" y2="210.0" stroke="rgba(88,166,184,0.055)" stroke-width="0.7"/>
<line x1="90" y1="246.7" x2="860" y2="246.7" stroke="rgba(88,166,184,0.055)" stroke-width="0.7"/>
<line x1="90" y1="283.3" x2="860" y2="283.3" stroke="rgba(88,166,184,0.055)" stroke-width="0.7"/>
<line x1="90" y1="320.0" x2="860" y2="320.0" stroke="rgba(88,166,184,0.055)" stroke-width="0.7"/>
<line x1="90" y1="356.7" x2="860" y2="356.7" stroke="rgba(88,166,184,0.055)" stroke-width="0.7"/>
<line x1="90" y1="393.3" x2="860" y2="393.3" stroke="rgba(88,166,184,0.055)" stroke-width="0.7"/>
<line x1="90" y1="430.0" x2="860" y2="430.0" stroke="rgba(88,166,184,0.055)" stroke-width="0.7"/>
<line x1="90.0" y1="210" x2="90.0" y2="430" stroke="rgba(88,166,184,0.055)" stroke-width="0.5"/>
<line x1="222.8" y1="210" x2="222.8" y2="430" stroke="rgba(88,166,184,0.055)" stroke-width="0.5"/>
<line x1="355.5" y1="210" x2="355.5" y2="430" stroke="rgba(88,166,184,0.055)" stroke-width="0.5"/>
<line x1="488.3" y1="210" x2="488.3" y2="430" stroke="rgba(88,166,184,0.055)" stroke-width="0.5"/>
<line x1="621.0" y1="210" x2="621.0" y2="430" stroke="rgba(88,166,184,0.055)" stroke-width="0.5"/>
<line x1="753.8" y1="210" x2="753.8" y2="430" stroke="rgba(88,166,184,0.055)" stroke-width="0.5"/>
<circle cx="294.1" cy="410.1" r="1.0" fill="#58A6B8" opacity="0.128"><animate attributeName="opacity" values="0.128;0.282;0.128" dur="8.4s" begin="0.1s" repeatCount="indefinite"/></circle>
<circle cx="519.1" cy="178.1" r="0.3" fill="#58A6B8" opacity="0.098"><animate attributeName="opacity" values="0.098;0.216;0.098" dur="3.5s" begin="1.3s" repeatCount="indefinite"/></circle>
<circle cx="27.7" cy="274.0" r="0.8" fill="#58A6B8" opacity="0.124"><animate attributeName="opacity" values="0.124;0.273;0.124" dur="6.4s" begin="3.7s" repeatCount="indefinite"/></circle>
<circle cx="410.5" cy="128.1" r="0.4" fill="#58A6B8" opacity="0.067"><animate attributeName="opacity" values="0.067;0.147;0.067" dur="4.9s" begin="1.6s" repeatCount="indefinite"/></circle>
<circle cx="40.2" cy="471.9" r="1.4" fill="#58A6B8" opacity="0.132"><animate attributeName="opacity" values="0.132;0.290;0.132" dur="3.8s" begin="2.7s" repeatCount="indefinite"/></circle>
<circle cx="143.7" cy="503.2" r="0.3" fill="#58A6B8" opacity="0.147"><animate attributeName="opacity" values="0.147;0.323;0.147" dur="7.8s" begin="0.4s" repeatCount="indefinite"/></circle>
<circle cx="789.2" cy="499.5" r="1.0" fill="#58A6B8" opacity="0.094"><animate attributeName="opacity" values="0.094;0.207;0.094" dur="5.5s" begin="5.6s" repeatCount="indefinite"/></circle>
<circle cx="486.3" cy="250.5" r="0.6" fill="#58A6B8" opacity="0.085"><animate attributeName="opacity" values="0.085;0.187;0.085" dur="7.4s" begin="2.7s" repeatCount="indefinite"/></circle>
<circle cx="123.8" cy="32.4" r="0.5" fill="#58A6B8" opacity="0.139"><animate attributeName="opacity" values="0.139;0.306;0.139" dur="5.8s" begin="0.4s" repeatCount="indefinite"/></circle>
<circle cx="778.9" cy="105.3" r="0.4" fill="#58A6B8" opacity="0.124"><animate attributeName="opacity" values="0.124;0.273;0.124" dur="4.1s" begin="4.6s" repeatCount="indefinite"/></circle>
<circle cx="15.5" cy="102.1" r="0.9" fill="#58A6B8" opacity="0.053"><animate attributeName="opacity" values="0.053;0.117;0.053" dur="8.5s" begin="1.4s" repeatCount="indefinite"/></circle>
<circle cx="378.7" cy="473.5" r="1.0" fill="#58A6B8" opacity="0.098"><animate attributeName="opacity" values="0.098;0.216;0.098" dur="5.6s" begin="2.5s" repeatCount="indefinite"/></circle>
<circle cx="603.8" cy="533.5" r="1.1" fill="#58A6B8" opacity="0.076"><animate attributeName="opacity" values="0.076;0.167;0.076" dur="5.1s" begin="1.5s" repeatCount="indefinite"/></circle>
<circle cx="549.6" cy="442.7" r="0.5" fill="#58A6B8" opacity="0.054"><animate attributeName="opacity" values="0.054;0.119;0.054" dur="8.3s" begin="0.8s" repeatCount="indefinite"/></circle>
<circle cx="775.3" cy="241.0" r="0.9" fill="#58A6B8" opacity="0.146"><animate attributeName="opacity" values="0.146;0.321;0.146" dur="8.2s" begin="3.6s" repeatCount="indefinite"/></circle>
<circle cx="333.5" cy="527.9" r="0.4" fill="#58A6B8" opacity="0.091"><animate attributeName="opacity" values="0.091;0.200;0.091" dur="4.4s" begin="1.6s" repeatCount="indefinite"/></circle>
<circle cx="35.3" cy="140.3" r="0.6" fill="#58A6B8" opacity="0.157"><animate attributeName="opacity" values="0.157;0.345;0.157" dur="6.0s" begin="3.5s" repeatCount="indefinite"/></circle>
<circle cx="825.0" cy="431.6" r="0.9" fill="#58A6B8" opacity="0.104"><animate attributeName="opacity" values="0.104;0.229;0.104" dur="4.2s" begin="5.7s" repeatCount="indefinite"/></circle>
<circle cx="82.6" cy="255.0" r="0.4" fill="#58A6B8" opacity="0.093"><animate attributeName="opacity" values="0.093;0.205;0.093" dur="6.0s" begin="4.7s" repeatCount="indefinite"/></circle>
<circle cx="0.7" cy="451.8" r="0.3" fill="#58A6B8" opacity="0.040"><animate attributeName="opacity" values="0.040;0.088;0.040" dur="5.4s" begin="3.2s" repeatCount="indefinite"/></circle>
<circle cx="436.3" cy="192.3" r="1.3" fill="#58A6B8" opacity="0.135"><animate attributeName="opacity" values="0.135;0.297;0.135" dur="7.7s" begin="3.0s" repeatCount="indefinite"/></circle>
<circle cx="461.9" cy="15.7" r="0.6" fill="#58A6B8" opacity="0.092"><animate attributeName="opacity" values="0.092;0.202;0.092" dur="5.1s" begin="0.3s" repeatCount="indefinite"/></circle>
<circle cx="652.4" cy="473.4" r="0.8" fill="#58A6B8" opacity="0.102"><animate attributeName="opacity" values="0.102;0.224;0.102" dur="6.1s" begin="3.7s" repeatCount="indefinite"/></circle>
<circle cx="767.2" cy="452.7" r="1.2" fill="#58A6B8" opacity="0.137"><animate attributeName="opacity" values="0.137;0.301;0.137" dur="7.1s" begin="5.2s" repeatCount="indefinite"/></circle>
<circle cx="194.7" cy="96.6" r="0.4" fill="#58A6B8" opacity="0.108"><animate attributeName="opacity" values="0.108;0.238;0.108" dur="8.0s" begin="1.8s" repeatCount="indefinite"/></circle>
<circle cx="421.3" cy="158.4" r="1.2" fill="#58A6B8" opacity="0.119"><animate attributeName="opacity" values="0.119;0.262;0.119" dur="4.2s" begin="0.1s" repeatCount="indefinite"/></circle>
<circle cx="882.2" cy="115.9" r="0.3" fill="#58A6B8" opacity="0.085"><animate attributeName="opacity" values="0.085;0.187;0.085" dur="8.5s" begin="5.9s" repeatCount="indefinite"/></circle>
<circle cx="888.0" cy="154.2" r="1.1" fill="#58A6B8" opacity="0.055"><animate attributeName="opacity" values="0.055;0.121;0.055" dur="3.7s" begin="2.6s" repeatCount="indefinite"/></circle>
<circle cx="784.4" cy="262.0" r="0.9" fill="#58A6B8" opacity="0.150"><animate attributeName="opacity" values="0.150;0.330;0.150" dur="4.2s" begin="5.3s" repeatCount="indefinite"/></circle>
<circle cx="675.6" cy="371.5" r="1.0" fill="#58A6B8" opacity="0.108"><animate attributeName="opacity" values="0.108;0.238;0.108" dur="6.6s" begin="5.9s" repeatCount="indefinite"/></circle>
<circle cx="603.8" cy="473.4" r="0.7" fill="#58A6B8" opacity="0.134"><animate attributeName="opacity" values="0.134;0.295;0.134" dur="8.0s" begin="2.7s" repeatCount="indefinite"/></circle>
<circle cx="382.8" cy="0.1" r="0.4" fill="#58A6B8" opacity="0.074"><animate attributeName="opacity" values="0.074;0.163;0.074" dur="3.8s" begin="2.2s" repeatCount="indefinite"/></circle>
<circle cx="593.5" cy="143.6" r="0.8" fill="#58A6B8" opacity="0.053"><animate attributeName="opacity" values="0.053;0.117;0.053" dur="6.9s" begin="5.0s" repeatCount="indefinite"/></circle>
<circle cx="577.2" cy="358.4" r="1.4" fill="#58A6B8" opacity="0.075"><animate attributeName="opacity" values="0.075;0.165;0.075" dur="7.8s" begin="4.3s" repeatCount="indefinite"/></circle>
<circle cx="393.6" cy="56.2" r="0.5" fill="#58A6B8" opacity="0.132"><animate attributeName="opacity" values="0.132;0.290;0.132" dur="4.0s" begin="5.5s" repeatCount="indefinite"/></circle>
<circle cx="757.9" cy="361.4" r="0.7" fill="#58A6B8" opacity="0.149"><animate attributeName="opacity" values="0.149;0.328;0.149" dur="6.7s" begin="3.3s" repeatCount="indefinite"/></circle>
<circle cx="139.1" cy="257.6" r="0.8" fill="#58A6B8" opacity="0.070"><animate attributeName="opacity" values="0.070;0.154;0.070" dur="8.2s" begin="3.9s" repeatCount="indefinite"/></circle>
<circle cx="227.0" cy="281.7" r="0.7" fill="#58A6B8" opacity="0.054"><animate attributeName="opacity" values="0.054;0.119;0.054" dur="4.8s" begin="2.5s" repeatCount="indefinite"/></circle>
<circle cx="272.2" cy="227.0" r="0.7" fill="#58A6B8" opacity="0.085"><animate attributeName="opacity" values="0.085;0.187;0.085" dur="4.8s" begin="0.1s" repeatCount="indefinite"/></circle>
<circle cx="125.0" cy="409.9" r="0.9" fill="#58A6B8" opacity="0.099"><animate attributeName="opacity" values="0.099;0.218;0.099" dur="6.5s" begin="4.0s" repeatCount="indefinite"/></circle>
<circle cx="393.5" cy="342.7" r="0.5" fill="#58A6B8" opacity="0.055"><animate attributeName="opacity" values="0.055;0.121;0.055" dur="3.6s" begin="1.2s" repeatCount="indefinite"/></circle>
<circle cx="715.1" cy="411.7" r="1.0" fill="#58A6B8" opacity="0.118"><animate attributeName="opacity" values="0.118;0.260;0.118" dur="6.7s" begin="5.8s" repeatCount="indefinite"/></circle>
<circle cx="436.2" cy="406.7" r="1.0" fill="#58A6B8" opacity="0.125"><animate attributeName="opacity" values="0.125;0.275;0.125" dur="7.6s" begin="0.7s" repeatCount="indefinite"/></circle>
<circle cx="221.5" cy="197.2" r="1.3" fill="#58A6B8" opacity="0.103"><animate attributeName="opacity" values="0.103;0.227;0.103" dur="7.4s" begin="0.8s" repeatCount="indefinite"/></circle>
<circle cx="270.8" cy="186.1" r="1.3" fill="#58A6B8" opacity="0.060"><animate attributeName="opacity" values="0.060;0.132;0.060" dur="6.1s" begin="4.5s" repeatCount="indefinite"/></circle>
<circle cx="851.8" cy="97.9" r="1.3" fill="#58A6B8" opacity="0.110"><animate attributeName="opacity" values="0.110;0.242;0.110" dur="3.8s" begin="3.5s" repeatCount="indefinite"/></circle>
<circle cx="166.4" cy="123.2" r="1.3" fill="#58A6B8" opacity="0.069"><animate attributeName="opacity" values="0.069;0.152;0.069" dur="6.6s" begin="1.5s" repeatCount="indefinite"/></circle>
<circle cx="72.7" cy="487.4" r="0.9" fill="#58A6B8" opacity="0.104"><animate attributeName="opacity" values="0.104;0.229;0.104" dur="7.7s" begin="4.5s" repeatCount="indefinite"/></circle>
<circle cx="497.0" cy="386.1" r="0.5" fill="#58A6B8" opacity="0.099"><animate attributeName="opacity" values="0.099;0.218;0.099" dur="6.1s" begin="0.5s" repeatCount="indefinite"/></circle>
<circle cx="192.6" cy="316.3" r="0.8" fill="#58A6B8" opacity="0.088"><animate attributeName="opacity" values="0.088;0.194;0.088" dur="8.2s" begin="3.1s" repeatCount="indefinite"/></circle>
<circle cx="79.9" cy="416.8" r="1.2" fill="#58A6B8" opacity="0.160"><animate attributeName="opacity" values="0.160;0.352;0.160" dur="6.4s" begin="3.9s" repeatCount="indefinite"/></circle>
<circle cx="641.0" cy="298.9" r="0.6" fill="#58A6B8" opacity="0.084"><animate attributeName="opacity" values="0.084;0.185;0.084" dur="4.3s" begin="4.4s" repeatCount="indefinite"/></circle>
<circle cx="504.0" cy="128.4" r="0.8" fill="#58A6B8" opacity="0.137"><animate attributeName="opacity" values="0.137;0.301;0.137" dur="4.0s" begin="1.8s" repeatCount="indefinite"/></circle>
<circle cx="348.9" cy="277.0" r="0.5" fill="#58A6B8" opacity="0.094"><animate attributeName="opacity" values="0.094;0.207;0.094" dur="6.3s" begin="2.8s" repeatCount="indefinite"/></circle>
<circle cx="309.0" cy="142.3" r="1.1" fill="#58A6B8" opacity="0.051"><animate attributeName="opacity" values="0.051;0.112;0.051" dur="5.8s" begin="3.1s" repeatCount="indefinite"/></circle>
<g transform="translate(493.4,172.5) rotate(45)" opacity="0.089"><rect x="-1.9" y="-1.9" width="3.8" height="3.8" fill="#58A6B8"/><animate attributeName="opacity" values="0.089;0.222;0.089" dur="8.3s" begin="2.4s" repeatCount="indefinite"/></g>
<g transform="translate(178.2,258.0) rotate(45)" opacity="0.098"><rect x="-1.8" y="-1.8" width="3.5" height="3.5" fill="#58A6B8"/><animate attributeName="opacity" values="0.098;0.245;0.098" dur="6.0s" begin="2.0s" repeatCount="indefinite"/></g>
<g transform="translate(44.9,476.1) rotate(45)" opacity="0.080"><rect x="-1.4" y="-1.4" width="2.7" height="2.7" fill="#58A6B8"/><animate attributeName="opacity" values="0.080;0.200;0.080" dur="6.5s" begin="4.3s" repeatCount="indefinite"/></g>
<g transform="translate(778.8,293.3) rotate(45)" opacity="0.061"><rect x="-1.4" y="-1.4" width="2.9" height="2.9" fill="#58A6B8"/><animate attributeName="opacity" values="0.061;0.152;0.061" dur="7.9s" begin="3.6s" repeatCount="indefinite"/></g>
<g transform="translate(537.0,107.5) rotate(45)" opacity="0.056"><rect x="-2.2" y="-2.2" width="4.4" height="4.4" fill="#58A6B8"/><animate attributeName="opacity" values="0.056;0.140;0.056" dur="9.9s" begin="2.3s" repeatCount="indefinite"/></g>
<g transform="translate(499.6,245.6) rotate(45)" opacity="0.087"><rect x="-2.1" y="-2.1" width="4.2" height="4.2" fill="#58A6B8"/><animate attributeName="opacity" values="0.087;0.217;0.087" dur="7.5s" begin="1.2s" repeatCount="indefinite"/></g>
<g transform="translate(565.4,232.7) rotate(45)" opacity="0.078"><rect x="-1.8" y="-1.8" width="3.7" height="3.7" fill="#58A6B8"/><animate attributeName="opacity" values="0.078;0.195;0.078" dur="8.6s" begin="3.7s" repeatCount="indefinite"/></g>
<g transform="translate(87.6,366.7) rotate(45)" opacity="0.094"><rect x="-2.1" y="-2.1" width="4.3" height="4.3" fill="#58A6B8"/><animate attributeName="opacity" values="0.094;0.235;0.094" dur="7.6s" begin="1.7s" repeatCount="indefinite"/></g>
<g transform="translate(18,18) scale(1,1)"><path d="M0 25 L0 6 Q0 0 6 0 L25 0" fill="none" stroke="#58A6B8" stroke-width="1.3" opacity="0.35"/><circle cx="0" cy="0" r="1.8" fill="#58A6B8" opacity="0.4"/><path d="M0 12 L5 12" fill="none" stroke="#58A6B8" stroke-width="0.6" opacity="0.2"/><path d="M12 0 L12 5" fill="none" stroke="#58A6B8" stroke-width="0.6" opacity="0.2"/></g><g transform="translate(882,18) scale(-1,1)"><path d="M0 25 L0 6 Q0 0 6 0 L25 0" fill="none" stroke="#58A6B8" stroke-width="1.3" opacity="0.35"/><circle cx="0" cy="0" r="1.8" fill="#58A6B8" opacity="0.4"/><path d="M0 12 L5 12" fill="none" stroke="#58A6B8" stroke-width="0.6" opacity="0.2"/><path d="M12 0 L12 5" fill="none" stroke="#58A6B8" stroke-width="0.6" opacity="0.2"/></g><g transform="translate(18,522) scale(1,-1)"><path d="M0 25 L0 6 Q0 0 6 0 L25 0" fill="none" stroke="#58A6B8" stroke-width="1.3" opacity="0.35"/><circle cx="0" cy="0" r="1.8" fill="#58A6B8" opacity="0.4"/><path d="M0 12 L5 12" fill="none" stroke="#58A6B8" stroke-width="0.6" opacity="0.2"/><path d="M12 0 L12 5" fill="none" stroke="#58A6B8" stroke-width="0.6" opacity="0.2"/></g><g transform="translate(882,522) scale(-1,-1)"><path d="M0 25 L0 6 Q0 0 6 0 L25 0" fill="none" stroke="#58A6B8" stroke-width="1.3" opacity="0.35"/><circle cx="0" cy="0" r="1.8" fill="#58A6B8" opacity="0.4"/><path d="M0 12 L5 12" fill="none" stroke="#58A6B8" stroke-width="0.6" opacity="0.2"/><path d="M12 0 L12 5" fill="none" stroke="#58A6B8" stroke-width="0.6" opacity="0.2"/></g>
<rect x="10" y="10" width="880" height="520" rx="12" fill="none" stroke="url(#frameFade)" stroke-width="1"/>
<text x="450" y="50" text-anchor="middle" font-family="Georgia,'Palatino Linotype','Book Antiqua',Palatino,serif" font-size="22" font-weight="bold" fill="#e8f4f7" letter-spacing="8" filter="url(#glowMd)">✧ THE COMMIT COVEN ✧</text>
<line x1="310" y1="62" x2="590" y2="62" stroke="#58A6B8" stroke-width="0.5" opacity="0.25"/>
<g filter="url(#cardShadow)"><rect x="70" y="80" width="240" height="78" rx="10" fill="rgba(88,166,184,0.05)" stroke="rgba(88,166,184,0.22)" stroke-width="0.8"/><text x="190" y="110" text-anchor="middle" font-family="Georgia,'Palatino Linotype',serif" font-size="11" fill="#5a7a80" letter-spacing="3" text-transform="uppercase">LONGEST STREAK</text><text x="190" y="136" text-anchor="middle" font-family="Georgia,'Palatino Linotype',serif" font-size="20" fill="#e8f4f7" font-weight="bold" filter="url(#glowSm)">12 Nights</text></g>
<g filter="url(#cardShadow)"><rect x="330" y="80" width="240" height="78" rx="10" fill="rgba(88,166,184,0.05)" stroke="rgba(88,166,184,0.22)" stroke-width="0.8"/><text x="450" y="110" text-anchor="middle" font-family="Georgia,'Palatino Linotype',serif" font-size="11" fill="#5a7a80" letter-spacing="3" text-transform="uppercase">CURRENT RITUAL</text><text x="450" y="136" text-anchor="middle" font-family="Georgia,'Palatino Linotype',serif" font-size="20" fill="#e8f4f7" font-weight="bold" filter="url(#glowSm)">0 Nights</text></g>
<g filter="url(#cardShadow)"><rect x="590" y="80" width="240" height="78" rx="10" fill="rgba(88,166,184,0.05)" stroke="rgba(88,166,184,0.22)" stroke-width="0.8"/><text x="710" y="110" text-anchor="middle" font-family="Georgia,'Palatino Linotype',serif" font-size="11" fill="#5a7a80" letter-spacing="3" text-transform="uppercase">TOTAL OFFERINGS</text><text x="710" y="136" text-anchor="middle" font-family="Georgia,'Palatino Linotype',serif" font-size="20" fill="#e8f4f7" font-weight="bold" filter="url(#glowSm)">259</text></g>
<text x="80" y="434.0" text-anchor="end" font-family="'Courier New',monospace" font-size="10" fill="#5a7a80">0</text>
<line x1="86" y1="430.0" x2="90" y2="430.0" stroke="#5a7a80" stroke-width="0.5"/>
<text x="80" y="390.0" text-anchor="end" font-family="'Courier New',monospace" font-size="10" fill="#5a7a80">2</text>
<line x1="86" y1="386.0" x2="90" y2="386.0" stroke="#5a7a80" stroke-width="0.5"/>
<text x="80" y="346.0" text-anchor="end" font-family="'Courier New',monospace" font-size="10" fill="#5a7a80">4</text>
<line x1="86" y1="342.0" x2="90" y2="342.0" stroke="#5a7a80" stroke-width="0.5"/>
<text x="80" y="302.0" text-anchor="end" font-family="'Courier New',monospace" font-size="10" fill="#5a7a80">6</text>
<line x1="86" y1="298.0" x2="90" y2="298.0" stroke="#5a7a80" stroke-width="0.5"/>
<text x="80" y="258.0" text-anchor="end" font-family="'Courier New',monospace" font-size="10" fill="#5a7a80">8</text>
<line x1="86" y1="254.0" x2="90" y2="254.0" stroke="#5a7a80" stroke-width="0.5"/>
<text x="80" y="214.0" text-anchor="end" font-family="'Courier New',monospace" font-size="10" fill="#5a7a80">10</text>
<line x1="86" y1="210.0" x2="90" y2="210.0" stroke="#5a7a80" stroke-width="0.5"/>
<text x="90.0" y="450" text-anchor="middle" font-family="'Courier New',monospace" font-size="10" fill="#5a7a80">22</text>
<text x="196.2" y="450" text-anchor="middle" font-family="'Courier New',monospace" font-size="10" fill="#5a7a80">26</text>
<text x="302.4" y="450" text-anchor="middle" font-family="'Courier New',monospace" font-size="10" fill="#5a7a80">30</text>
<text x="408.6" y="450" text-anchor="middle" font-family="'Courier New',monospace" font-size="10" fill="#5a7a80">3</text>
<text x="514.8" y="450" text-anchor="middle" font-family="'Courier New',monospace" font-size="10" fill="#5a7a80">7</text>
<text x="621.0" y="450" text-anchor="middle" font-family="'Courier New',monospace" font-size="10" fill="#5a7a80">11</text>
<text x="727.2" y="450" text-anchor="middle" font-family="'Courier New',monospace" font-size="10" fill="#5a7a80">15</text>
<text x="833.4" y="450" text-anchor="middle" font-family="'Courier New',monospace" font-size="10" fill="#5a7a80">19</text>
<text x="860.0" y="450" text-anchor="middle" font-family="'Courier New',monospace" font-size="10" fill="#5a7a80">20</text>
<line x1="90" y1="210" x2="90" y2="430" stroke="#58A6B8" stroke-width="0.5" opacity="0.2"/>
<line x1="90" y1="430" x2="860" y2="430" stroke="#58A6B8" stroke-width="0.5" opacity="0.2"/>
<path d="M90.0 430.0 C93.5 409.5,109.5 305.3,116.6 276.0 C123.6 246.7,136.0 189.5,143.1 210.0 C150.2 230.5,162.6 400.7,169.7 430.0 C176.7 459.3,189.1 430.0,196.2 430.0 C203.3 430.0,215.7 430.0,222.8 430.0 C229.8 430.0,242.2 432.9,249.3 430.0 C256.4 427.1,268.8 408.0,275.9 408.0 C282.9 408.0,295.3 427.1,302.4 430.0 C309.5 432.9,321.9 430.0,329.0 430.0 C336.0 430.0,348.4 441.7,355.5 430.0 C362.6 418.3,375.0 342.0,382.1 342.0 C389.1 342.0,401.5 424.1,408.6 430.0 C415.7 435.9,428.1 386.0,435.2 386.0 C442.3 386.0,454.6 424.1,461.7 430.0 C468.8 435.9,481.2 435.9,488.3 430.0 C495.4 424.1,507.7 394.8,514.8 386.0 C521.9 377.2,534.3 375.7,541.4 364.0 C548.5 352.3,560.9 300.9,567.9 298.0 C575.0 295.1,587.4 336.1,594.5 342.0 C601.6 347.9,614.0 330.3,621.0 342.0 C628.1 353.7,640.5 424.1,647.6 430.0 C654.7 435.9,667.1 386.0,674.1 386.0 C681.2 386.0,693.6 430.0,700.7 430.0 C707.8 430.0,720.2 386.0,727.2 386.0 C734.3 386.0,746.7 424.1,753.8 430.0 C760.9 435.9,773.3 435.9,780.3 430.0 C787.4 424.1,799.8 386.0,806.9 386.0 C814.0 386.0,826.4 424.1,833.4 430.0 C840.5 435.9,856.5 430.0,860.0 430.0 L860.0 430 L90.0 430 Z" fill="url(#areaFill)" opacity="0.9">
  <animate attributeName="opacity" values="0;0.9" dur="2s" fill="freeze"/>
</path>
<path d="M90.0 430.0 C93.5 409.5,109.5 305.3,116.6 276.0 C123.6 246.7,136.0 189.5,143.1 210.0 C150.2 230.5,162.6 400.7,169.7 430.0 C176.7 459.3,189.1 430.0,196.2 430.0 C203.3 430.0,215.7 430.0,222.8 430.0 C229.8 430.0,242.2 432.9,249.3 430.0 C256.4 427.1,268.8 408.0,275.9 408.0 C282.9 408.0,295.3 427.1,302.4 430.0 C309.5 432.9,321.9 430.0,329.0 430.0 C336.0 430.0,348.4 441.7,355.5 430.0 C362.6 418.3,375.0 342.0,382.1 342.0 C389.1 342.0,401.5 424.1,408.6 430.0 C415.7 435.9,428.1 386.0,435.2 386.0 C442.3 386.0,454.6 424.1,461.7 430.0 C468.8 435.9,481.2 435.9,488.3 430.0 C495.4 424.1,507.7 394.8,514.8 386.0 C521.9 377.2,534.3 375.7,541.4 364.0 C548.5 352.3,560.9 300.9,567.9 298.0 C575.0 295.1,587.4 336.1,594.5 342.0 C601.6 347.9,614.0 330.3,621.0 342.0 C628.1 353.7,640.5 424.1,647.6 430.0 C654.7 435.9,667.1 386.0,674.1 386.0 C681.2 386.0,693.6 430.0,700.7 430.0 C707.8 430.0,720.2 386.0,727.2 386.0 C734.3 386.0,746.7 424.1,753.8 430.0 C760.9 435.9,773.3 435.9,780.3 430.0 C787.4 424.1,799.8 386.0,806.9 386.0 C814.0 386.0,826.4 424.1,833.4 430.0 C840.5 435.9,856.5 430.0,860.0 430.0" fill="none" stroke="#58A6B8" stroke-width="4" opacity="0.15" filter="url(#glowLg)" stroke-linecap="round" stroke-linejoin="round"/>
<path d="M90.0 430.0 C93.5 409.5,109.5 305.3,116.6 276.0 C123.6 246.7,136.0 189.5,143.1 210.0 C150.2 230.5,162.6 400.7,169.7 430.0 C176.7 459.3,189.1 430.0,196.2 430.0 C203.3 430.0,215.7 430.0,222.8 430.0 C229.8 430.0,242.2 432.9,249.3 430.0 C256.4 427.1,268.8 408.0,275.9 408.0 C282.9 408.0,295.3 427.1,302.4 430.0 C309.5 432.9,321.9 430.0,329.0 430.0 C336.0 430.0,348.4 441.7,355.5 430.0 C362.6 418.3,375.0 342.0,382.1 342.0 C389.1 342.0,401.5 424.1,408.6 430.0 C415.7 435.9,428.1 386.0,435.2 386.0 C442.3 386.0,454.6 424.1,461.7 430.0 C468.8 435.9,481.2 435.9,488.3 430.0 C495.4 424.1,507.7 394.8,514.8 386.0 C521.9 377.2,534.3 375.7,541.4 364.0 C548.5 352.3,560.9 300.9,567.9 298.0 C575.0 295.1,587.4 336.1,594.5 342.0 C601.6 347.9,614.0 330.3,621.0 342.0 C628.1 353.7,640.5 424.1,647.6 430.0 C654.7 435.9,667.1 386.0,674.1 386.0 C681.2 386.0,693.6 430.0,700.7 430.0 C707.8 430.0,720.2 386.0,727.2 386.0 C734.3 386.0,746.7 424.1,753.8 430.0 C760.9 435.9,773.3 435.9,780.3 430.0 C787.4 424.1,799.8 386.0,806.9 386.0 C814.0 386.0,826.4 424.1,833.4 430.0 C840.5 435.9,856.5 430.0,860.0 430.0" fill="none" stroke="#58A6B8" stroke-width="2.2" stroke-linecap="round" stroke-linejoin="round" filter="url(#glowSm)" stroke-dasharray="2148" stroke-dashoffset="2148">
  <animate attributeName="stroke-dashoffset" from="2148" to="0" dur="2.5s" fill="freeze" calcMode="spline" keySplines="0.4 0 0.2 1"/>
  <animate attributeName="opacity" values="0.7;1;0.85;1" dur="6s" begin="2.5s" repeatCount="indefinite"/>
</path>
<circle cx="90.0" cy="430.0" r="2.2" fill="#58A6B8" stroke="#0d0d0d" stroke-width="1" filter="url(#glowSm)" opacity="0">
  <title>Jul 22
0 Contributions</title>
  <animate attributeName="opacity" from="0" to="1" dur="0.4s" begin="0.80s" fill="freeze"/>
  <animate attributeName="r" values="2.2;3.2;2.2" dur="4s" begin="1.20s" repeatCount="indefinite"/>
</circle>
<circle cx="116.6" cy="276.0" r="4.7" fill="#58A6B8" stroke="#0d0d0d" stroke-width="1" filter="url(#glowSm)" opacity="0">
  <title>Jul 23
7 Contributions</title>
  <animate attributeName="opacity" from="0" to="1" dur="0.4s" begin="0.86s" fill="freeze"/>
  <animate attributeName="r" values="4.7;5.7;4.7" dur="4s" begin="1.26s" repeatCount="indefinite"/>
</circle>
<circle cx="143.1" cy="210.0" r="18" fill="url(#haloGrad)" opacity="0">
  <animate attributeName="opacity" values="0;0.6;0.3;0.6" dur="4s" begin="0.92s" repeatCount="indefinite"/>
  <animate attributeName="r" values="14;22;14" dur="4s" begin="0.92s" repeatCount="indefinite"/>
</circle>
<circle cx="143.1" cy="210.0" r="7.2" fill="#e8f4f7" stroke="#0d0d0d" stroke-width="1" filter="url(#glowMd)" opacity="0">
  <title>Jul 24
10 Contributions</title>
  <animate attributeName="opacity" from="0" to="1" dur="0.4s" begin="0.92s" fill="freeze"/>
  <animate attributeName="r" values="7.2;9.2;7.2" dur="3s" begin="1.32s" repeatCount="indefinite"/>
</circle>
<circle cx="169.7" cy="430.0" r="2.2" fill="#58A6B8" stroke="#0d0d0d" stroke-width="1" filter="url(#glowSm)" opacity="0">
  <title>Jul 25
0 Contributions</title>
  <animate attributeName="opacity" from="0" to="1" dur="0.4s" begin="0.98s" fill="freeze"/>
  <animate attributeName="r" values="2.2;3.2;2.2" dur="4s" begin="1.38s" repeatCount="indefinite"/>
</circle>
<circle cx="196.2" cy="430.0" r="2.2" fill="#58A6B8" stroke="#0d0d0d" stroke-width="1" filter="url(#glowSm)" opacity="0">
  <title>Jul 26
0 Contributions</title>
  <animate attributeName="opacity" from="0" to="1" dur="0.4s" begin="1.04s" fill="freeze"/>
  <animate attributeName="r" values="2.2;3.2;2.2" dur="4s" begin="1.44s" repeatCount="indefinite"/>
</circle>
<circle cx="222.8" cy="430.0" r="2.2" fill="#58A6B8" stroke="#0d0d0d" stroke-width="1" filter="url(#glowSm)" opacity="0">
  <title>Jul 27
0 Contributions</title>
  <animate attributeName="opacity" from="0" to="1" dur="0.4s" begin="1.10s" fill="freeze"/>
  <animate attributeName="r" values="2.2;3.2;2.2" dur="4s" begin="1.50s" repeatCount="indefinite"/>
</circle>
<circle cx="249.3" cy="430.0" r="2.2" fill="#58A6B8" stroke="#0d0d0d" stroke-width="1" filter="url(#glowSm)" opacity="0">
  <title>Jul 28
0 Contributions</title>
  <animate attributeName="opacity" from="0" to="1" dur="0.4s" begin="1.16s" fill="freeze"/>
  <animate attributeName="r" values="2.2;3.2;2.2" dur="4s" begin="1.56s" repeatCount="indefinite"/>
</circle>
<circle cx="275.9" cy="408.0" r="2.6" fill="#58A6B8" stroke="#0d0d0d" stroke-width="1" filter="url(#glowSm)" opacity="0">
  <title>Jul 29
1 Contribution</title>
  <animate attributeName="opacity" from="0" to="1" dur="0.4s" begin="1.22s" fill="freeze"/>
  <animate attributeName="r" values="2.6;3.6;2.6" dur="4s" begin="1.62s" repeatCount="indefinite"/>
</circle>
<circle cx="302.4" cy="430.0" r="2.2" fill="#58A6B8" stroke="#0d0d0d" stroke-width="1" filter="url(#glowSm)" opacity="0">
  <title>Jul 30
0 Contributions</title>
  <animate attributeName="opacity" from="0" to="1" dur="0.4s" begin="1.28s" fill="freeze"/>
  <animate attributeName="r" values="2.2;3.2;2.2" dur="4s" begin="1.68s" repeatCount="indefinite"/>
</circle>
<circle cx="329.0" cy="430.0" r="2.2" fill="#58A6B8" stroke="#0d0d0d" stroke-width="1" filter="url(#glowSm)" opacity="0">
  <title>Jul 31
0 Contributions</title>
  <animate attributeName="opacity" from="0" to="1" dur="0.4s" begin="1.34s" fill="freeze"/>
  <animate attributeName="r" values="2.2;3.2;2.2" dur="4s" begin="1.74s" repeatCount="indefinite"/>
</circle>
<circle cx="355.5" cy="430.0" r="2.2" fill="#58A6B8" stroke="#0d0d0d" stroke-width="1" filter="url(#glowSm)" opacity="0">
  <title>Aug 1
0 Contributions</title>
  <animate attributeName="opacity" from="0" to="1" dur="0.4s" begin="1.40s" fill="freeze"/>
  <animate attributeName="r" values="2.2;3.2;2.2" dur="4s" begin="1.80s" repeatCount="indefinite"/>
</circle>
<circle cx="382.1" cy="342.0" r="3.6" fill="#58A6B8" stroke="#0d0d0d" stroke-width="1" filter="url(#glowSm)" opacity="0">
  <title>Aug 2
4 Contributions</title>
  <animate attributeName="opacity" from="0" to="1" dur="0.4s" begin="1.46s" fill="freeze"/>
  <animate attributeName="r" values="3.6;4.6;3.6" dur="4s" begin="1.86s" repeatCount="indefinite"/>
</circle>
<circle cx="408.6" cy="430.0" r="2.2" fill="#58A6B8" stroke="#0d0d0d" stroke-width="1" filter="url(#glowSm)" opacity="0">
  <title>Aug 3
0 Contributions</title>
  <animate attributeName="opacity" from="0" to="1" dur="0.4s" begin="1.52s" fill="freeze"/>
  <animate attributeName="r" values="2.2;3.2;2.2" dur="4s" begin="1.92s" repeatCount="indefinite"/>
</circle>
<circle cx="435.2" cy="386.0" r="2.9" fill="#58A6B8" stroke="#0d0d0d" stroke-width="1" filter="url(#glowSm)" opacity="0">
  <title>Aug 4
2 Contributions</title>
  <animate attributeName="opacity" from="0" to="1" dur="0.4s" begin="1.58s" fill="freeze"/>
  <animate attributeName="r" values="2.9;3.9;2.9" dur="4s" begin="1.98s" repeatCount="indefinite"/>
</circle>
<circle cx="461.7" cy="430.0" r="2.2" fill="#58A6B8" stroke="#0d0d0d" stroke-width="1" filter="url(#glowSm)" opacity="0">
  <title>Aug 5
0 Contributions</title>
  <animate attributeName="opacity" from="0" to="1" dur="0.4s" begin="1.64s" fill="freeze"/>
  <animate attributeName="r" values="2.2;3.2;2.2" dur="4s" begin="2.04s" repeatCount="indefinite"/>
</circle>
<circle cx="488.3" cy="430.0" r="2.2" fill="#58A6B8" stroke="#0d0d0d" stroke-width="1" filter="url(#glowSm)" opacity="0">
  <title>Aug 6
0 Contributions</title>
  <animate attributeName="opacity" from="0" to="1" dur="0.4s" begin="1.70s" fill="freeze"/>
  <animate attributeName="r" values="2.2;3.2;2.2" dur="4s" begin="2.10s" repeatCount="indefinite"/>
</circle>
<circle cx="514.8" cy="386.0" r="2.9" fill="#58A6B8" stroke="#0d0d0d" stroke-width="1" filter="url(#glowSm)" opacity="0">
  <title>Aug 7
2 Contributions</title>
  <animate attributeName="opacity" from="0" to="1" dur="0.4s" begin="1.76s" fill="freeze"/>
  <animate attributeName="r" values="2.9;3.9;2.9" dur="4s" begin="2.16s" repeatCount="indefinite"/>
</circle>
<circle cx="541.4" cy="364.0" r="3.3" fill="#58A6B8" stroke="#0d0d0d" stroke-width="1" filter="url(#glowSm)" opacity="0">
  <title>Aug 8
3 Contributions</title>
  <animate attributeName="opacity" from="0" to="1" dur="0.4s" begin="1.82s" fill="freeze"/>
  <animate attributeName="r" values="3.3;4.3;3.3" dur="4s" begin="2.22s" repeatCount="indefinite"/>
</circle>
<circle cx="567.9" cy="298.0" r="4.3" fill="#58A6B8" stroke="#0d0d0d" stroke-width="1" filter="url(#glowSm)" opacity="0">
  <title>Aug 9
6 Contributions</title>
  <animate attributeName="opacity" from="0" to="1" dur="0.4s" begin="1.88s" fill="freeze"/>
  <animate attributeName="r" values="4.3;5.3;4.3" dur="4s" begin="2.28s" repeatCount="indefinite"/>
</circle>
<circle cx="594.5" cy="342.0" r="3.6" fill="#58A6B8" stroke="#0d0d0d" stroke-width="1" filter="url(#glowSm)" opacity="0">
  <title>Aug 10
4 Contributions</title>
  <animate attributeName="opacity" from="0" to="1" dur="0.4s" begin="1.94s" fill="freeze"/>
  <animate attributeName="r" values="3.6;4.6;3.6" dur="4s" begin="2.34s" repeatCount="indefinite"/>
</circle>
<circle cx="621.0" cy="342.0" r="3.6" fill="#58A6B8" stroke="#0d0d0d" stroke-width="1" filter="url(#glowSm)" opacity="0">
  <title>Aug 11
4 Contributions</title>
  <animate attributeName="opacity" from="0" to="1" dur="0.4s" begin="2.00s" fill="freeze"/>
  <animate attributeName="r" values="3.6;4.6;3.6" dur="4s" begin="2.40s" repeatCount="indefinite"/>
</circle>
<circle cx="647.6" cy="430.0" r="2.2" fill="#58A6B8" stroke="#0d0d0d" stroke-width="1" filter="url(#glowSm)" opacity="0">
  <title>Aug 12
0 Contributions</title>
  <animate attributeName="opacity" from="0" to="1" dur="0.4s" begin="2.06s" fill="freeze"/>
  <animate attributeName="r" values="2.2;3.2;2.2" dur="4s" begin="2.46s" repeatCount="indefinite"/>
</circle>
<circle cx="674.1" cy="386.0" r="2.9" fill="#58A6B8" stroke="#0d0d0d" stroke-width="1" filter="url(#glowSm)" opacity="0">
  <title>Aug 13
2 Contributions</title>
  <animate attributeName="opacity" from="0" to="1" dur="0.4s" begin="2.12s" fill="freeze"/>
  <animate attributeName="r" values="2.9;3.9;2.9" dur="4s" begin="2.52s" repeatCount="indefinite"/>
</circle>
<circle cx="700.7" cy="430.0" r="2.2" fill="#58A6B8" stroke="#0d0d0d" stroke-width="1" filter="url(#glowSm)" opacity="0">
  <title>Aug 14
0 Contributions</title>
  <animate attributeName="opacity" from="0" to="1" dur="0.4s" begin="2.18s" fill="freeze"/>
  <animate attributeName="r" values="2.2;3.2;2.2" dur="4s" begin="2.58s" repeatCount="indefinite"/>
</circle>
<circle cx="727.2" cy="386.0" r="2.9" fill="#58A6B8" stroke="#0d0d0d" stroke-width="1" filter="url(#glowSm)" opacity="0">
  <title>Aug 15
2 Contributions</title>
  <animate attributeName="opacity" from="0" to="1" dur="0.4s" begin="2.24s" fill="freeze"/>
  <animate attributeName="r" values="2.9;3.9;2.9" dur="4s" begin="2.64s" repeatCount="indefinite"/>
</circle>
<circle cx="753.8" cy="430.0" r="2.2" fill="#58A6B8" stroke="#0d0d0d" stroke-width="1" filter="url(#glowSm)" opacity="0">
  <title>Aug 16
0 Contributions</title>
  <animate attributeName="opacity" from="0" to="1" dur="0.4s" begin="2.30s" fill="freeze"/>
  <animate attributeName="r" values="2.2;3.2;2.2" dur="4s" begin="2.70s" repeatCount="indefinite"/>
</circle>
<circle cx="780.3" cy="430.0" r="2.2" fill="#58A6B8" stroke="#0d0d0d" stroke-width="1" filter="url(#glowSm)" opacity="0">
  <title>Aug 17
0 Contributions</title>
  <animate attributeName="opacity" from="0" to="1" dur="0.4s" begin="2.36s" fill="freeze"/>
  <animate attributeName="r" values="2.2;3.2;2.2" dur="4s" begin="2.76s" repeatCount="indefinite"/>
</circle>
<circle cx="806.9" cy="386.0" r="2.9" fill="#58A6B8" stroke="#0d0d0d" stroke-width="1" filter="url(#glowSm)" opacity="0">
  <title>Aug 18
2 Contributions</title>
  <animate attributeName="opacity" from="0" to="1" dur="0.4s" begin="2.42s" fill="freeze"/>
  <animate attributeName="r" values="2.9;3.9;2.9" dur="4s" begin="2.82s" repeatCount="indefinite"/>
</circle>
<circle cx="833.4" cy="430.0" r="2.2" fill="#58A6B8" stroke="#0d0d0d" stroke-width="1" filter="url(#glowSm)" opacity="0">
  <title>Aug 19
0 Contributions</title>
  <animate attributeName="opacity" from="0" to="1" dur="0.4s" begin="2.48s" fill="freeze"/>
  <animate attributeName="r" values="2.2;3.2;2.2" dur="4s" begin="2.88s" repeatCount="indefinite"/>
</circle>
<circle cx="860.0" cy="430.0" r="2.2" fill="#58A6B8" stroke="#0d0d0d" stroke-width="1" filter="url(#glowSm)" opacity="0">
  <title>Aug 20
0 Contributions</title>
  <animate attributeName="opacity" from="0" to="1" dur="0.4s" begin="2.54s" fill="freeze"/>
  <animate attributeName="r" values="2.2;3.2;2.2" dur="4s" begin="2.94s" repeatCount="indefinite"/>
</circle>
<text x="90" y="466" text-anchor="start" font-family="Georgia,'Palatino Linotype',serif" font-size="10" fill="#5a7a80" letter-spacing="1.5">JUL</text>
<text x="860" y="466" text-anchor="end" font-family="Georgia,'Palatino Linotype',serif" font-size="10" fill="#5a7a80" letter-spacing="1.5">AUG</text>
<text x="450" y="522" text-anchor="middle" font-family="Georgia,'Palatino Linotype',serif" font-size="9" fill="#5a7a80" letter-spacing="4" opacity="0.5">LAST 30 DAYS OF DARK RITUALS</text>
</svg>