<svg xmlns="http://www.w3.org/2000/svg" viewBox="0 0 900 540" width="900" height="540">
<defs>
  <!-- Gradients -->
  <linearGradient id="areaFill" x1="0" y1="0" x2="0" y2="1">
    <stop offset="0%" stop-color="#58A6B8" stop-opacity="0.28"/>
    <stop offset="85%" stop-color="#58A6B8" stop-opacity="0.03"/>
    <stop offset="100%" stop-color="#58A6B8" stop-opacity="0"/>
  </linearGradient>
  <radialGradient id="haloGrad" cx="50%" cy="50%" r="50%">
    <stop offset="0%" stop-color="#58A6B8" stop-opacity="0.5"/>
    <stop offset="100%" stop-color="#58A6B8" stop-opacity="0"/>
  </radialGradient>
  <linearGradient id="frameFade" x1="0" y1="0" x2="1" y2="1">
    <stop offset="0%" stop-color="#58A6B8" stop-opacity="0.35"/>
    <stop offset="50%" stop-color="#58A6B8" stop-opacity="0.12"/>
    <stop offset="100%" stop-color="#58A6B8" stop-opacity="0.35"/>
  </linearGradient>
  <!-- Filters -->
  <filter id="glowSm" x="-50%" y="-50%" width="200%" height="200%">
    <feGaussianBlur stdDeviation="2.5" result="b"/><feMerge><feMergeNode in="b"/><feMergeNode in="SourceGraphic"/></feMerge>
  </filter>
  <filter id="glowMd" x="-50%" y="-50%" width="200%" height="200%">
    <feGaussianBlur stdDeviation="5" result="b"/><feMerge><feMergeNode in="b"/><feMergeNode in="SourceGraphic"/></feMerge>
  </filter>
  <filter id="glowLg" x="-80%" y="-80%" width="260%" height="260%">
    <feGaussianBlur stdDeviation="10" result="b"/><feMerge><feMergeNode in="b"/><feMergeNode in="SourceGraphic"/></feMerge>
  </filter>
  <filter id="cardShadow" x="-10%" y="-10%" width="120%" height="130%">
    <feGaussianBlur stdDeviation="6" result="b"/><feFlood flood-color="#58A6B8" flood-opacity="0.08" result="c"/>
    <feComposite in="c" in2="b" operator="in" result="s"/><feMerge><feMergeNode in="s"/><feMergeNode in="SourceGraphic"/></feMerge>
  </filter>
</defs>

<!-- Background -->
<rect width="900" height="540" fill="#0d0d0d" rx="16"/>
<line x1="90" y1="210.0" x2="860" y2="210.0" stroke="rgba(88,166,184,0.055)" stroke-width="0.7"/>
<line x1="90" y1="246.7" x2="860" y2="246.7" stroke="rgba(88,166,184,0.055)" stroke-width="0.7"/>
<line x1="90" y1="283.3" x2="860" y2="283.3" stroke="rgba(88,166,184,0.055)" stroke-width="0.7"/>
<line x1="90" y1="320.0" x2="860" y2="320.0" stroke="rgba(88,166,184,0.055)" stroke-width="0.7"/>
<line x1="90" y1="356.7" x2="860" y2="356.7" stroke="rgba(88,166,184,0.055)" stroke-width="0.7"/>
<line x1="90" y1="393.3" x2="860" y2="393.3" stroke="rgba(88,166,184,0.055)" stroke-width="0.7"/>
<line x1="90" y1="430.0" x2="860" y2="430.0" stroke="rgba(88,166,184,0.055)" stroke-width="0.7"/>
<line x1="90.0" y1="210" x2="90.0" y2="430" stroke="rgba(88,166,184,0.055)" stroke-width="0.5"/>
<line x1="222.8" y1="210" x2="222.8" y2="430" stroke="rgba(88,166,184,0.055)" stroke-width="0.5"/>
<line x1="355.5" y1="210" x2="355.5" y2="430" stroke="rgba(88,166,184,0.055)" stroke-width="0.5"/>
<line x1="488.3" y1="210" x2="488.3" y2="430" stroke="rgba(88,166,184,0.055)" stroke-width="0.5"/>
<line x1="621.0" y1="210" x2="621.0" y2="430" stroke="rgba(88,166,184,0.055)" stroke-width="0.5"/>
<line x1="753.8" y1="210" x2="753.8" y2="430" stroke="rgba(88,166,184,0.055)" stroke-width="0.5"/>
<circle cx="135.8" cy="432.0" r="0.7" fill="#58A6B8" opacity="0.144"><animate attributeName="opacity" values="0.144;0.317;0.144" dur="4.6s" begin="4.4s" repeatCount="indefinite"/></circle>
<circle cx="240.6" cy="327.7" r="1.4" fill="#58A6B8" opacity="0.131"><animate attributeName="opacity" values="0.131;0.288;0.131" dur="5.8s" begin="1.6s" repeatCount="indefinite"/></circle>
<circle cx="884.8" cy="177.8" r="0.9" fill="#58A6B8" opacity="0.152"><animate attributeName="opacity" values="0.152;0.334;0.152" dur="7.4s" begin="2.9s" repeatCount="indefinite"/></circle>
<circle cx="460.7" cy="16.3" r="1.4" fill="#58A6B8" opacity="0.042"><animate attributeName="opacity" values="0.042;0.092;0.042" dur="5.9s" begin="4.0s" repeatCount="indefinite"/></circle>
<circle cx="30.7" cy="177.6" r="0.7" fill="#58A6B8" opacity="0.054"><animate attributeName="opacity" values="0.054;0.119;0.054" dur="5.2s" begin="4.7s" repeatCount="indefinite"/></circle>
<circle cx="50.1" cy="477.6" r="0.5" fill="#58A6B8" opacity="0.091"><animate attributeName="opacity" values="0.091;0.200;0.091" dur="7.0s" begin="3.2s" repeatCount="indefinite"/></circle>
<circle cx="97.9" cy="53.0" r="0.7" fill="#58A6B8" opacity="0.131"><animate attributeName="opacity" values="0.131;0.288;0.131" dur="7.7s" begin="4.0s" repeatCount="indefinite"/></circle>
<circle cx="660.4" cy="270.1" r="0.8" fill="#58A6B8" opacity="0.125"><animate attributeName="opacity" values="0.125;0.275;0.125" dur="5.6s" begin="2.7s" repeatCount="indefinite"/></circle>
<circle cx="87.3" cy="203.5" r="1.0" fill="#58A6B8" opacity="0.076"><animate attributeName="opacity" values="0.076;0.167;0.076" dur="5.6s" begin="0.5s" repeatCount="indefinite"/></circle>
<circle cx="778.4" cy="321.2" r="0.6" fill="#58A6B8" opacity="0.150"><animate attributeName="opacity" values="0.150;0.330;0.150" dur="5.6s" begin="3.6s" repeatCount="indefinite"/></circle>
<circle cx="657.4" cy="527.1" r="1.3" fill="#58A6B8" opacity="0.106"><animate attributeName="opacity" values="0.106;0.233;0.106" dur="5.2s" begin="4.5s" repeatCount="indefinite"/></circle>
<circle cx="507.4" cy="306.7" r="1.4" fill="#58A6B8" opacity="0.112"><animate attributeName="opacity" values="0.112;0.246;0.112" dur="4.6s" begin="0.9s" repeatCount="indefinite"/></circle>
<circle cx="524.0" cy="431.3" r="0.5" fill="#58A6B8" opacity="0.133"><animate attributeName="opacity" values="0.133;0.293;0.133" dur="6.7s" begin="2.9s" repeatCount="indefinite"/></circle>
<circle cx="103.9" cy="217.4" r="1.0" fill="#58A6B8" opacity="0.093"><animate attributeName="opacity" values="0.093;0.205;0.093" dur="6.9s" begin="0.1s" repeatCount="indefinite"/></circle>
<circle cx="444.5" cy="435.4" r="0.9" fill="#58A6B8" opacity="0.156"><animate attributeName="opacity" values="0.156;0.343;0.156" dur="3.8s" begin="2.8s" repeatCount="indefinite"/></circle>
<circle cx="555.3" cy="304.1" r="0.5" fill="#58A6B8" opacity="0.091"><animate attributeName="opacity" values="0.091;0.200;0.091" dur="8.2s" begin="5.5s" repeatCount="indefinite"/></circle>
<circle cx="63.2" cy="56.2" r="0.6" fill="#58A6B8" opacity="0.108"><animate attributeName="opacity" values="0.108;0.238;0.108" dur="8.4s" begin="4.5s" repeatCount="indefinite"/></circle>
<circle cx="155.8" cy="202.0" r="1.3" fill="#58A6B8" opacity="0.044"><animate attributeName="opacity" values="0.044;0.097;0.044" dur="8.1s" begin="5.0s" repeatCount="indefinite"/></circle>
<circle cx="64.9" cy="484.6" r="1.1" fill="#58A6B8" opacity="0.051"><animate attributeName="opacity" values="0.051;0.112;0.051" dur="5.0s" begin="5.3s" repeatCount="indefinite"/></circle>
<circle cx="514.2" cy="467.2" r="1.2" fill="#58A6B8" opacity="0.064"><animate attributeName="opacity" values="0.064;0.141;0.064" dur="4.8s" begin="0.6s" repeatCount="indefinite"/></circle>
<circle cx="654.6" cy="242.9" r="0.8" fill="#58A6B8" opacity="0.095"><animate attributeName="opacity" values="0.095;0.209;0.095" dur="6.4s" begin="1.1s" repeatCount="indefinite"/></circle>
<circle cx="602.4" cy="386.8" r="0.5" fill="#58A6B8" opacity="0.073"><animate attributeName="opacity" values="0.073;0.161;0.073" dur="7.1s" begin="3.0s" repeatCount="indefinite"/></circle>
<circle cx="184.8" cy="90.4" r="1.3" fill="#58A6B8" opacity="0.081"><animate attributeName="opacity" values="0.081;0.178;0.081" dur="7.7s" begin="0.3s" repeatCount="indefinite"/></circle>
<circle cx="326.9" cy="217.1" r="1.2" fill="#58A6B8" opacity="0.052"><animate attributeName="opacity" values="0.052;0.114;0.052" dur="6.0s" begin="3.4s" repeatCount="indefinite"/></circle>
<circle cx="174.9" cy="538.2" r="1.4" fill="#58A6B8" opacity="0.070"><animate attributeName="opacity" values="0.070;0.154;0.070" dur="5.1s" begin="5.8s" repeatCount="indefinite"/></circle>
<circle cx="322.5" cy="349.0" r="1.1" fill="#58A6B8" opacity="0.160"><animate attributeName="opacity" values="0.160;0.352;0.160" dur="5.2s" begin="5.7s" repeatCount="indefinite"/></circle>
<circle cx="782.8" cy="58.0" r="0.8" fill="#58A6B8" opacity="0.143"><animate attributeName="opacity" values="0.143;0.315;0.143" dur="8.2s" begin="3.4s" repeatCount="indefinite"/></circle>
<circle cx="367.9" cy="1.5" r="1.2" fill="#58A6B8" opacity="0.133"><animate attributeName="opacity" values="0.133;0.293;0.133" dur="8.2s" begin="3.8s" repeatCount="indefinite"/></circle>
<circle cx="67.7" cy="427.7" r="0.9" fill="#58A6B8" opacity="0.088"><animate attributeName="opacity" values="0.088;0.194;0.088" dur="8.3s" begin="4.5s" repeatCount="indefinite"/></circle>
<circle cx="626.7" cy="532.3" r="0.7" fill="#58A6B8" opacity="0.096"><animate attributeName="opacity" values="0.096;0.211;0.096" dur="6.0s" begin="0.1s" repeatCount="indefinite"/></circle>
<circle cx="485.0" cy="183.6" r="0.5" fill="#58A6B8" opacity="0.050"><animate attributeName="opacity" values="0.050;0.110;0.050" dur="4.5s" begin="5.9s" repeatCount="indefinite"/></circle>
<circle cx="437.0" cy="112.0" r="1.2" fill="#58A6B8" opacity="0.111"><animate attributeName="opacity" values="0.111;0.244;0.111" dur="8.3s" begin="5.8s" repeatCount="indefinite"/></circle>
<circle cx="439.5" cy="42.3" r="0.9" fill="#58A6B8" opacity="0.079"><animate attributeName="opacity" values="0.079;0.174;0.079" dur="7.4s" begin="1.1s" repeatCount="indefinite"/></circle>
<circle cx="741.3" cy="491.5" r="0.6" fill="#58A6B8" opacity="0.064"><animate attributeName="opacity" values="0.064;0.141;0.064" dur="6.5s" begin="3.5s" repeatCount="indefinite"/></circle>
<circle cx="244.3" cy="227.4" r="0.5" fill="#58A6B8" opacity="0.092"><animate attributeName="opacity" values="0.092;0.202;0.092" dur="6.8s" begin="5.5s" repeatCount="indefinite"/></circle>
<circle cx="712.3" cy="105.1" r="0.6" fill="#58A6B8" opacity="0.059"><animate attributeName="opacity" values="0.059;0.130;0.059" dur="6.4s" begin="3.1s" repeatCount="indefinite"/></circle>
<circle cx="217.2" cy="31.5" r="1.0" fill="#58A6B8" opacity="0.073"><animate attributeName="opacity" values="0.073;0.161;0.073" dur="8.4s" begin="4.5s" repeatCount="indefinite"/></circle>
<circle cx="642.7" cy="209.9" r="0.9" fill="#58A6B8" opacity="0.111"><animate attributeName="opacity" values="0.111;0.244;0.111" dur="6.7s" begin="3.5s" repeatCount="indefinite"/></circle>
<circle cx="689.7" cy="34.2" r="1.2" fill="#58A6B8" opacity="0.128"><animate attributeName="opacity" values="0.128;0.282;0.128" dur="5.8s" begin="4.0s" repeatCount="indefinite"/></circle>
<circle cx="382.9" cy="132.3" r="1.0" fill="#58A6B8" opacity="0.084"><animate attributeName="opacity" values="0.084;0.185;0.084" dur="3.7s" begin="2.9s" repeatCount="indefinite"/></circle>
<circle cx="57.5" cy="201.1" r="0.6" fill="#58A6B8" opacity="0.147"><animate attributeName="opacity" values="0.147;0.323;0.147" dur="7.4s" begin="4.0s" repeatCount="indefinite"/></circle>
<circle cx="30.0" cy="66.2" r="0.9" fill="#58A6B8" opacity="0.052"><animate attributeName="opacity" values="0.052;0.114;0.052" dur="3.8s" begin="1.8s" repeatCount="indefinite"/></circle>
<circle cx="376.6" cy="534.1" r="0.6" fill="#58A6B8" opacity="0.129"><animate attributeName="opacity" values="0.129;0.284;0.129" dur="3.9s" begin="3.3s" repeatCount="indefinite"/></circle>
<circle cx="374.6" cy="203.6" r="0.6" fill="#58A6B8" opacity="0.083"><animate attributeName="opacity" values="0.083;0.183;0.083" dur="5.3s" begin="5.5s" repeatCount="indefinite"/></circle>
<circle cx="258.5" cy="89.2" r="0.4" fill="#58A6B8" opacity="0.058"><animate attributeName="opacity" values="0.058;0.128;0.058" dur="6.7s" begin="4.5s" repeatCount="indefinite"/></circle>
<circle cx="872.8" cy="423.7" r="1.0" fill="#58A6B8" opacity="0.064"><animate attributeName="opacity" values="0.064;0.141;0.064" dur="8.3s" begin="5.8s" repeatCount="indefinite"/></circle>
<circle cx="648.6" cy="320.6" r="0.8" fill="#58A6B8" opacity="0.102"><animate attributeName="opacity" values="0.102;0.224;0.102" dur="7.5s" begin="3.9s" repeatCount="indefinite"/></circle>
<circle cx="557.7" cy="88.9" r="1.1" fill="#58A6B8" opacity="0.044"><animate attributeName="opacity" values="0.044;0.097;0.044" dur="5.3s" begin="5.9s" repeatCount="indefinite"/></circle>
<circle cx="527.8" cy="383.6" r="0.7" fill="#58A6B8" opacity="0.104"><animate attributeName="opacity" values="0.104;0.229;0.104" dur="6.0s" begin="0.1s" repeatCount="indefinite"/></circle>
<circle cx="415.9" cy="152.7" r="0.4" fill="#58A6B8" opacity="0.156"><animate attributeName="opacity" values="0.156;0.343;0.156" dur="5.8s" begin="3.1s" repeatCount="indefinite"/></circle>
<circle cx="381.3" cy="191.8" r="0.9" fill="#58A6B8" opacity="0.069"><animate attributeName="opacity" values="0.069;0.152;0.069" dur="5.5s" begin="2.3s" repeatCount="indefinite"/></circle>
<circle cx="705.8" cy="424.1" r="0.8" fill="#58A6B8" opacity="0.122"><animate attributeName="opacity" values="0.122;0.268;0.122" dur="4.8s" begin="2.2s" repeatCount="indefinite"/></circle>
<circle cx="443.9" cy="283.1" r="1.2" fill="#58A6B8" opacity="0.114"><animate attributeName="opacity" values="0.114;0.251;0.114" dur="6.3s" begin="3.2s" repeatCount="indefinite"/></circle>
<circle cx="41.2" cy="300.0" r="0.8" fill="#58A6B8" opacity="0.142"><animate attributeName="opacity" values="0.142;0.312;0.142" dur="4.4s" begin="3.4s" repeatCount="indefinite"/></circle>
<circle cx="232.2" cy="248.3" r="0.6" fill="#58A6B8" opacity="0.110"><animate attributeName="opacity" values="0.110;0.242;0.110" dur="7.7s" begin="5.7s" repeatCount="indefinite"/></circle>
<g transform="translate(568.1,100.6) rotate(45)" opacity="0.068"><rect x="-1.6" y="-1.6" width="3.2" height="3.2" fill="#58A6B8"/><animate attributeName="opacity" values="0.068;0.170;0.068" dur="9.6s" begin="3.0s" repeatCount="indefinite"/></g>
<g transform="translate(475.8,93.0) rotate(45)" opacity="0.076"><rect x="-1.5" y="-1.5" width="3.0" height="3.0" fill="#58A6B8"/><animate attributeName="opacity" values="0.076;0.190;0.076" dur="8.3s" begin="2.9s" repeatCount="indefinite"/></g>
<g transform="translate(821.9,369.0) rotate(45)" opacity="0.055"><rect x="-1.9" y="-1.9" width="3.7" height="3.7" fill="#58A6B8"/><animate attributeName="opacity" values="0.055;0.138;0.055" dur="9.8s" begin="0.1s" repeatCount="indefinite"/></g>
<g transform="translate(280.8,314.3) rotate(45)" opacity="0.088"><rect x="-1.6" y="-1.6" width="3.1" height="3.1" fill="#58A6B8"/><animate attributeName="opacity" values="0.088;0.220;0.088" dur="8.4s" begin="0.1s" repeatCount="indefinite"/></g>
<g transform="translate(341.0,149.4) rotate(45)" opacity="0.086"><rect x="-1.7" y="-1.7" width="3.4" height="3.4" fill="#58A6B8"/><animate attributeName="opacity" values="0.086;0.215;0.086" dur="9.2s" begin="3.4s" repeatCount="indefinite"/></g>
<g transform="translate(814.5,91.9) rotate(45)" opacity="0.071"><rect x="-2.1" y="-2.1" width="4.2" height="4.2" fill="#58A6B8"/><animate attributeName="opacity" values="0.071;0.177;0.071" dur="9.9s" begin="4.6s" repeatCount="indefinite"/></g>
<g transform="translate(611.5,167.4) rotate(45)" opacity="0.081"><rect x="-2.2" y="-2.2" width="4.3" height="4.3" fill="#58A6B8"/><animate attributeName="opacity" values="0.081;0.203;0.081" dur="9.6s" begin="0.3s" repeatCount="indefinite"/></g>
<g transform="translate(482.6,245.0) rotate(45)" opacity="0.062"><rect x="-1.4" y="-1.4" width="2.8" height="2.8" fill="#58A6B8"/><animate attributeName="opacity" values="0.062;0.155;0.062" dur="8.5s" begin="2.7s" repeatCount="indefinite"/></g>
<g transform="translate(18,18) scale(1,1)"><path d="M0 25 L0 6 Q0 0 6 0 L25 0" fill="none" stroke="#58A6B8" stroke-width="1.3" opacity="0.35"/><circle cx="0" cy="0" r="1.8" fill="#58A6B8" opacity="0.4"/><path d="M0 12 L5 12" fill="none" stroke="#58A6B8" stroke-width="0.6" opacity="0.2"/><path d="M12 0 L12 5" fill="none" stroke="#58A6B8" stroke-width="0.6" opacity="0.2"/></g><g transform="translate(882,18) scale(-1,1)"><path d="M0 25 L0 6 Q0 0 6 0 L25 0" fill="none" stroke="#58A6B8" stroke-width="1.3" opacity="0.35"/><circle cx="0" cy="0" r="1.8" fill="#58A6B8" opacity="0.4"/><path d="M0 12 L5 12" fill="none" stroke="#58A6B8" stroke-width="0.6" opacity="0.2"/><path d="M12 0 L12 5" fill="none" stroke="#58A6B8" stroke-width="0.6" opacity="0.2"/></g><g transform="translate(18,522) scale(1,-1)"><path d="M0 25 L0 6 Q0 0 6 0 L25 0" fill="none" stroke="#58A6B8" stroke-width="1.3" opacity="0.35"/><circle cx="0" cy="0" r="1.8" fill="#58A6B8" opacity="0.4"/><path d="M0 12 L5 12" fill="none" stroke="#58A6B8" stroke-width="0.6" opacity="0.2"/><path d="M12 0 L12 5" fill="none" stroke="#58A6B8" stroke-width="0.6" opacity="0.2"/></g><g transform="translate(882,522) scale(-1,-1)"><path d="M0 25 L0 6 Q0 0 6 0 L25 0" fill="none" stroke="#58A6B8" stroke-width="1.3" opacity="0.35"/><circle cx="0" cy="0" r="1.8" fill="#58A6B8" opacity="0.4"/><path d="M0 12 L5 12" fill="none" stroke="#58A6B8" stroke-width="0.6" opacity="0.2"/><path d="M12 0 L12 5" fill="none" stroke="#58A6B8" stroke-width="0.6" opacity="0.2"/></g>
<rect x="10" y="10" width="880" height="520" rx="12" fill="none" stroke="url(#frameFade)" stroke-width="1"/>
<text x="450" y="50" text-anchor="middle" font-family="Georgia,'Palatino Linotype','Book Antiqua',Palatino,serif" font-size="22" font-weight="bold" fill="#e8f4f7" letter-spacing="8" filter="url(#glowMd)">✧ THE COMMIT COVEN ✧</text>
<line x1="310" y1="62" x2="590" y2="62" stroke="#58A6B8" stroke-width="0.5" opacity="0.25"/>
<g filter="url(#cardShadow)"><rect x="70" y="80" width="240" height="78" rx="10" fill="rgba(88,166,184,0.05)" stroke="rgba(88,166,184,0.22)" stroke-width="0.8"/><text x="190" y="110" text-anchor="middle" font-family="Georgia,'Palatino Linotype',serif" font-size="11" fill="#5a7a80" letter-spacing="3" text-transform="uppercase">LONGEST STREAK</text><text x="190" y="136" text-anchor="middle" font-family="Georgia,'Palatino Linotype',serif" font-size="20" fill="#e8f4f7" font-weight="bold" filter="url(#glowSm)">12 Nights</text></g>
<g filter="url(#cardShadow)"><rect x="330" y="80" width="240" height="78" rx="10" fill="rgba(88,166,184,0.05)" stroke="rgba(88,166,184,0.22)" stroke-width="0.8"/><text x="450" y="110" text-anchor="middle" font-family="Georgia,'Palatino Linotype',serif" font-size="11" fill="#5a7a80" letter-spacing="3" text-transform="uppercase">CURRENT RITUAL</text><text x="450" y="136" text-anchor="middle" font-family="Georgia,'Palatino Linotype',serif" font-size="20" fill="#e8f4f7" font-weight="bold" filter="url(#glowSm)">0 Nights</text></g>
<g filter="url(#cardShadow)"><rect x="590" y="80" width="240" height="78" rx="10" fill="rgba(88,166,184,0.05)" stroke="rgba(88,166,184,0.22)" stroke-width="0.8"/><text x="710" y="110" text-anchor="middle" font-family="Georgia,'Palatino Linotype',serif" font-size="11" fill="#5a7a80" letter-spacing="3" text-transform="uppercase">TOTAL OFFERINGS</text><text x="710" y="136" text-anchor="middle" font-family="Georgia,'Palatino Linotype',serif" font-size="20" fill="#e8f4f7" font-weight="bold" filter="url(#glowSm)">164</text></g>
<text x="80" y="434.0" text-anchor="end" font-family="'Courier New',monospace" font-size="10" fill="#5a7a80">0</text>
<line x1="86" y1="430.0" x2="90" y2="430.0" stroke="#5a7a80" stroke-width="0.5"/>
<text x="80" y="390.0" text-anchor="end" font-family="'Courier New',monospace" font-size="10" fill="#5a7a80">3</text>
<line x1="86" y1="386.0" x2="90" y2="386.0" stroke="#5a7a80" stroke-width="0.5"/>
<text x="80" y="346.0" text-anchor="end" font-family="'Courier New',monospace" font-size="10" fill="#5a7a80">6</text>
<line x1="86" y1="342.0" x2="90" y2="342.0" stroke="#5a7a80" stroke-width="0.5"/>
<text x="80" y="302.0" text-anchor="end" font-family="'Courier New',monospace" font-size="10" fill="#5a7a80">9</text>
<line x1="86" y1="298.0" x2="90" y2="298.0" stroke="#5a7a80" stroke-width="0.5"/>
<text x="80" y="258.0" text-anchor="end" font-family="'Courier New',monospace" font-size="10" fill="#5a7a80">12</text>
<line x1="86" y1="254.0" x2="90" y2="254.0" stroke="#5a7a80" stroke-width="0.5"/>
<text x="80" y="214.0" text-anchor="end" font-family="'Courier New',monospace" font-size="10" fill="#5a7a80">15</text>
<line x1="86" y1="210.0" x2="90" y2="210.0" stroke="#5a7a80" stroke-width="0.5"/>
<text x="90.0" y="450" text-anchor="middle" font-family="'Courier New',monospace" font-size="10" fill="#5a7a80">29</text>
<text x="196.2" y="450" text-anchor="middle" font-family="'Courier New',monospace" font-size="10" fill="#5a7a80">2</text>
<text x="302.4" y="450" text-anchor="middle" font-family="'Courier New',monospace" font-size="10" fill="#5a7a80">6</text>
<text x="408.6" y="450" text-anchor="middle" font-family="'Courier New',monospace" font-size="10" fill="#5a7a80">10</text>
<text x="514.8" y="450" text-anchor="middle" font-family="'Courier New',monospace" font-size="10" fill="#5a7a80">14</text>
<text x="621.0" y="450" text-anchor="middle" font-family="'Courier New',monospace" font-size="10" fill="#5a7a80">18</text>
<text x="727.2" y="450" text-anchor="middle" font-family="'Courier New',monospace" font-size="10" fill="#5a7a80">22</text>
<text x="833.4" y="450" text-anchor="middle" font-family="'Courier New',monospace" font-size="10" fill="#5a7a80">26</text>
<text x="860.0" y="450" text-anchor="middle" font-family="'Courier New',monospace" font-size="10" fill="#5a7a80">27</text>
<line x1="90" y1="210" x2="90" y2="430" stroke="#58A6B8" stroke-width="0.5" opacity="0.2"/>
<line x1="90" y1="430" x2="860" y2="430" stroke="#58A6B8" stroke-width="0.5" opacity="0.2"/>
<path d="M90.0 430.0 C93.5 430.0,109.5 430.0,116.6 430.0 C123.6 430.0,136.0 430.0,143.1 430.0 C150.2 430.0,162.6 430.0,169.7 430.0 C176.7 430.0,189.1 432.0,196.2 430.0 C203.3 428.0,215.7 415.3,222.8 415.3 C229.8 415.3,242.2 428.0,249.3 430.0 C256.4 432.0,268.8 430.0,275.9 430.0 C282.9 430.0,295.3 430.0,302.4 430.0 C309.5 430.0,321.9 430.0,329.0 430.0 C336.0 430.0,348.4 430.0,355.5 430.0 C362.6 430.0,375.0 430.0,382.1 430.0 C389.1 430.0,401.5 430.0,408.6 430.0 C415.7 430.0,428.1 430.0,435.2 430.0 C442.3 430.0,454.6 430.0,461.7 430.0 C468.8 430.0,481.2 439.8,488.3 430.0 C495.4 420.2,507.7 370.4,514.8 356.7 C521.9 343.0,534.3 325.4,541.4 327.3 C548.5 329.3,560.9 377.2,567.9 371.3 C575.0 365.5,587.4 297.0,594.5 283.3 C601.6 269.6,614.0 276.5,621.0 268.7 C628.1 260.8,640.5 211.0,647.6 224.7 C654.7 238.4,667.1 345.9,674.1 371.3 C681.2 396.8,693.6 411.4,700.7 415.3 C707.8 419.2,720.2 408.5,727.2 400.7 C734.3 392.8,746.7 358.6,753.8 356.7 C760.9 354.7,773.3 378.2,780.3 386.0 C787.4 393.8,799.8 409.5,806.9 415.3 C814.0 421.2,826.4 428.0,833.4 430.0 C840.5 432.0,856.5 430.0,860.0 430.0 L860.0 430 L90.0 430 Z" fill="url(#areaFill)" opacity="0.9">
  <animate attributeName="opacity" values="0;0.9" dur="2s" fill="freeze"/>
</path>
<path d="M90.0 430.0 C93.5 430.0,109.5 430.0,116.6 430.0 C123.6 430.0,136.0 430.0,143.1 430.0 C150.2 430.0,162.6 430.0,169.7 430.0 C176.7 430.0,189.1 432.0,196.2 430.0 C203.3 428.0,215.7 415.3,222.8 415.3 C229.8 415.3,242.2 428.0,249.3 430.0 C256.4 432.0,268.8 430.0,275.9 430.0 C282.9 430.0,295.3 430.0,302.4 430.0 C309.5 430.0,321.9 430.0,329.0 430.0 C336.0 430.0,348.4 430.0,355.5 430.0 C362.6 430.0,375.0 430.0,382.1 430.0 C389.1 430.0,401.5 430.0,408.6 430.0 C415.7 430.0,428.1 430.0,435.2 430.0 C442.3 430.0,454.6 430.0,461.7 430.0 C468.8 430.0,481.2 439.8,488.3 430.0 C495.4 420.2,507.7 370.4,514.8 356.7 C521.9 343.0,534.3 325.4,541.4 327.3 C548.5 329.3,560.9 377.2,567.9 371.3 C575.0 365.5,587.4 297.0,594.5 283.3 C601.6 269.6,614.0 276.5,621.0 268.7 C628.1 260.8,640.5 211.0,647.6 224.7 C654.7 238.4,667.1 345.9,674.1 371.3 C681.2 396.8,693.6 411.4,700.7 415.3 C707.8 419.2,720.2 408.5,727.2 400.7 C734.3 392.8,746.7 358.6,753.8 356.7 C760.9 354.7,773.3 378.2,780.3 386.0 C787.4 393.8,799.8 409.5,806.9 415.3 C814.0 421.2,826.4 428.0,833.4 430.0 C840.5 432.0,856.5 430.0,860.0 430.0" fill="none" stroke="#58A6B8" stroke-width="4" opacity="0.15" filter="url(#glowLg)" stroke-linecap="round" stroke-linejoin="round"/>
<path d="M90.0 430.0 C93.5 430.0,109.5 430.0,116.6 430.0 C123.6 430.0,136.0 430.0,143.1 430.0 C150.2 430.0,162.6 430.0,169.7 430.0 C176.7 430.0,189.1 432.0,196.2 430.0 C203.3 428.0,215.7 415.3,222.8 415.3 C229.8 415.3,242.2 428.0,249.3 430.0 C256.4 432.0,268.8 430.0,275.9 430.0 C282.9 430.0,295.3 430.0,302.4 430.0 C309.5 430.0,321.9 430.0,329.0 430.0 C336.0 430.0,348.4 430.0,355.5 430.0 C362.6 430.0,375.0 430.0,382.1 430.0 C389.1 430.0,401.5 430.0,408.6 430.0 C415.7 430.0,428.1 430.0,435.2 430.0 C442.3 430.0,454.6 430.0,461.7 430.0 C468.8 430.0,481.2 439.8,488.3 430.0 C495.4 420.2,507.7 370.4,514.8 356.7 C521.9 343.0,534.3 325.4,541.4 327.3 C548.5 329.3,560.9 377.2,567.9 371.3 C575.0 365.5,587.4 297.0,594.5 283.3 C601.6 269.6,614.0 276.5,621.0 268.7 C628.1 260.8,640.5 211.0,647.6 224.7 C654.7 238.4,667.1 345.9,674.1 371.3 C681.2 396.8,693.6 411.4,700.7 415.3 C707.8 419.2,720.2 408.5,727.2 400.7 C734.3 392.8,746.7 358.6,753.8 356.7 C760.9 354.7,773.3 378.2,780.3 386.0 C787.4 393.8,799.8 409.5,806.9 415.3 C814.0 421.2,826.4 428.0,833.4 430.0 C840.5 432.0,856.5 430.0,860.0 430.0" fill="none" stroke="#58A6B8" stroke-width="2.2" stroke-linecap="round" stroke-linejoin="round" filter="url(#glowSm)" stroke-dasharray="1517" stroke-dashoffset="1517">
  <animate attributeName="stroke-dashoffset" from="1517" to="0" dur="2.5s" fill="freeze" calcMode="spline" keySplines="0.4 0 0.2 1"/>
  <animate attributeName="opacity" values="0.7;1;0.85;1" dur="6s" begin="2.5s" repeatCount="indefinite"/>
</path>
<circle cx="90.0" cy="430.0" r="2.2" fill="#58A6B8" stroke="#0d0d0d" stroke-width="1" filter="url(#glowSm)" opacity="0">
  <title>May 29
0 Contributions</title>
  <animate attributeName="opacity" from="0" to="1" dur="0.4s" begin="0.80s" fill="freeze"/>
  <animate attributeName="r" values="2.2;3.2;2.2" dur="4s" begin="1.20s" repeatCount="indefinite"/>
</circle>
<circle cx="116.6" cy="430.0" r="2.2" fill="#58A6B8" stroke="#0d0d0d" stroke-width="1" filter="url(#glowSm)" opacity="0">
  <title>May 30
0 Contributions</title>
  <animate attributeName="opacity" from="0" to="1" dur="0.4s" begin="0.86s" fill="freeze"/>
  <animate attributeName="r" values="2.2;3.2;2.2" dur="4s" begin="1.26s" repeatCount="indefinite"/>
</circle>
<circle cx="143.1" cy="430.0" r="2.2" fill="#58A6B8" stroke="#0d0d0d" stroke-width="1" filter="url(#glowSm)" opacity="0">
  <title>May 31
0 Contributions</title>
  <animate attributeName="opacity" from="0" to="1" dur="0.4s" begin="0.92s" fill="freeze"/>
  <animate attributeName="r" values="2.2;3.2;2.2" dur="4s" begin="1.32s" repeatCount="indefinite"/>
</circle>
<circle cx="169.7" cy="430.0" r="2.2" fill="#58A6B8" stroke="#0d0d0d" stroke-width="1" filter="url(#glowSm)" opacity="0">
  <title>Jun 1
0 Contributions</title>
  <animate attributeName="opacity" from="0" to="1" dur="0.4s" begin="0.98s" fill="freeze"/>
  <animate attributeName="r" values="2.2;3.2;2.2" dur="4s" begin="1.38s" repeatCount="indefinite"/>
</circle>
<circle cx="196.2" cy="430.0" r="2.2" fill="#58A6B8" stroke="#0d0d0d" stroke-width="1" filter="url(#glowSm)" opacity="0">
  <title>Jun 2
0 Contributions</title>
  <animate attributeName="opacity" from="0" to="1" dur="0.4s" begin="1.04s" fill="freeze"/>
  <animate attributeName="r" values="2.2;3.2;2.2" dur="4s" begin="1.44s" repeatCount="indefinite"/>
</circle>
<circle cx="222.8" cy="415.3" r="2.5" fill="#58A6B8" stroke="#0d0d0d" stroke-width="1" filter="url(#glowSm)" opacity="0">
  <title>Jun 3
1 Contribution</title>
  <animate attributeName="opacity" from="0" to="1" dur="0.4s" begin="1.10s" fill="freeze"/>
  <animate attributeName="r" values="2.5;3.5;2.5" dur="4s" begin="1.50s" repeatCount="indefinite"/>
</circle>
<circle cx="249.3" cy="430.0" r="2.2" fill="#58A6B8" stroke="#0d0d0d" stroke-width="1" filter="url(#glowSm)" opacity="0">
  <title>Jun 4
0 Contributions</title>
  <animate attributeName="opacity" from="0" to="1" dur="0.4s" begin="1.16s" fill="freeze"/>
  <animate attributeName="r" values="2.2;3.2;2.2" dur="4s" begin="1.56s" repeatCount="indefinite"/>
</circle>
<circle cx="275.9" cy="430.0" r="2.2" fill="#58A6B8" stroke="#0d0d0d" stroke-width="1" filter="url(#glowSm)" opacity="0">
  <title>Jun 5
0 Contributions</title>
  <animate attributeName="opacity" from="0" to="1" dur="0.4s" begin="1.22s" fill="freeze"/>
  <animate attributeName="r" values="2.2;3.2;2.2" dur="4s" begin="1.62s" repeatCount="indefinite"/>
</circle>
<circle cx="302.4" cy="430.0" r="2.2" fill="#58A6B8" stroke="#0d0d0d" stroke-width="1" filter="url(#glowSm)" opacity="0">
  <title>Jun 6
0 Contributions</title>
  <animate attributeName="opacity" from="0" to="1" dur="0.4s" begin="1.28s" fill="freeze"/>
  <animate attributeName="r" values="2.2;3.2;2.2" dur="4s" begin="1.68s" repeatCount="indefinite"/>
</circle>
<circle cx="329.0" cy="430.0" r="2.2" fill="#58A6B8" stroke="#0d0d0d" stroke-width="1" filter="url(#glowSm)" opacity="0">
  <title>Jun 7
0 Contributions</title>
  <animate attributeName="opacity" from="0" to="1" dur="0.4s" begin="1.34s" fill="freeze"/>
  <animate attributeName="r" values="2.2;3.2;2.2" dur="4s" begin="1.74s" repeatCount="indefinite"/>
</circle>
<circle cx="355.5" cy="430.0" r="2.2" fill="#58A6B8" stroke="#0d0d0d" stroke-width="1" filter="url(#glowSm)" opacity="0">
  <title>Jun 8
0 Contributions</title>
  <animate attributeName="opacity" from="0" to="1" dur="0.4s" begin="1.40s" fill="freeze"/>
  <animate attributeName="r" values="2.2;3.2;2.2" dur="4s" begin="1.80s" repeatCount="indefinite"/>
</circle>
<circle cx="382.1" cy="430.0" r="2.2" fill="#58A6B8" stroke="#0d0d0d" stroke-width="1" filter="url(#glowSm)" opacity="0">
  <title>Jun 9
0 Contributions</title>
  <animate attributeName="opacity" from="0" to="1" dur="0.4s" begin="1.46s" fill="freeze"/>
  <animate attributeName="r" values="2.2;3.2;2.2" dur="4s" begin="1.86s" repeatCount="indefinite"/>
</circle>
<circle cx="408.6" cy="430.0" r="2.2" fill="#58A6B8" stroke="#0d0d0d" stroke-width="1" filter="url(#glowSm)" opacity="0">
  <title>Jun 10
0 Contributions</title>
  <animate attributeName="opacity" from="0" to="1" dur="0.4s" begin="1.52s" fill="freeze"/>
  <animate attributeName="r" values="2.2;3.2;2.2" dur="4s" begin="1.92s" repeatCount="indefinite"/>
</circle>
<circle cx="435.2" cy="430.0" r="2.2" fill="#58A6B8" stroke="#0d0d0d" stroke-width="1" filter="url(#glowSm)" opacity="0">
  <title>Jun 11
0 Contributions</title>
  <animate attributeName="opacity" from="0" to="1" dur="0.4s" begin="1.58s" fill="freeze"/>
  <animate attributeName="r" values="2.2;3.2;2.2" dur="4s" begin="1.98s" repeatCount="indefinite"/>
</circle>
<circle cx="461.7" cy="430.0" r="2.2" fill="#58A6B8" stroke="#0d0d0d" stroke-width="1" filter="url(#glowSm)" opacity="0">
  <title>Jun 12
0 Contributions</title>
  <animate attributeName="opacity" from="0" to="1" dur="0.4s" begin="1.64s" fill="freeze"/>
  <animate attributeName="r" values="2.2;3.2;2.2" dur="4s" begin="2.04s" repeatCount="indefinite"/>
</circle>
<circle cx="488.3" cy="430.0" r="2.2" fill="#58A6B8" stroke="#0d0d0d" stroke-width="1" filter="url(#glowSm)" opacity="0">
  <title>Jun 13
0 Contributions</title>
  <animate attributeName="opacity" from="0" to="1" dur="0.4s" begin="1.70s" fill="freeze"/>
  <animate attributeName="r" values="2.2;3.2;2.2" dur="4s" begin="2.10s" repeatCount="indefinite"/>
</circle>
<circle cx="514.8" cy="356.7" r="3.5" fill="#58A6B8" stroke="#0d0d0d" stroke-width="1" filter="url(#glowSm)" opacity="0">
  <title>Jun 14
5 Contributions</title>
  <animate attributeName="opacity" from="0" to="1" dur="0.4s" begin="1.76s" fill="freeze"/>
  <animate attributeName="r" values="3.5;4.5;3.5" dur="4s" begin="2.16s" repeatCount="indefinite"/>
</circle>
<circle cx="541.4" cy="327.3" r="4.0" fill="#58A6B8" stroke="#0d0d0d" stroke-width="1" filter="url(#glowSm)" opacity="0">
  <title>Jun 15
7 Contributions</title>
  <animate attributeName="opacity" from="0" to="1" dur="0.4s" begin="1.82s" fill="freeze"/>
  <animate attributeName="r" values="4.0;5.0;4.0" dur="4s" begin="2.22s" repeatCount="indefinite"/>
</circle>
<circle cx="567.9" cy="371.3" r="3.2" fill="#58A6B8" stroke="#0d0d0d" stroke-width="1" filter="url(#glowSm)" opacity="0">
  <title>Jun 16
4 Contributions</title>
  <animate attributeName="opacity" from="0" to="1" dur="0.4s" begin="1.88s" fill="freeze"/>
  <animate attributeName="r" values="3.2;4.2;3.2" dur="4s" begin="2.28s" repeatCount="indefinite"/>
</circle>
<circle cx="594.5" cy="283.3" r="4.7" fill="#58A6B8" stroke="#0d0d0d" stroke-width="1" filter="url(#glowSm)" opacity="0">
  <title>Jun 17
10 Contributions</title>
  <animate attributeName="opacity" from="0" to="1" dur="0.4s" begin="1.94s" fill="freeze"/>
  <animate attributeName="r" values="4.7;5.7;4.7" dur="4s" begin="2.34s" repeatCount="indefinite"/>
</circle>
<circle cx="621.0" cy="268.7" r="5.0" fill="#58A6B8" stroke="#0d0d0d" stroke-width="1" filter="url(#glowSm)" opacity="0">
  <title>Jun 18
11 Contributions</title>
  <animate attributeName="opacity" from="0" to="1" dur="0.4s" begin="2.00s" fill="freeze"/>
  <animate attributeName="r" values="5.0;6.0;5.0" dur="4s" begin="2.40s" repeatCount="indefinite"/>
</circle>
<circle cx="647.6" cy="224.7" r="18" fill="url(#haloGrad)" opacity="0">
  <animate attributeName="opacity" values="0;0.6;0.3;0.6" dur="4s" begin="2.06s" repeatCount="indefinite"/>
  <animate attributeName="r" values="14;22;14" dur="4s" begin="2.06s" repeatCount="indefinite"/>
</circle>
<circle cx="647.6" cy="224.7" r="7.2" fill="#e8f4f7" stroke="#0d0d0d" stroke-width="1" filter="url(#glowMd)" opacity="0">
  <title>Jun 19
14 Contributions</title>
  <animate attributeName="opacity" from="0" to="1" dur="0.4s" begin="2.06s" fill="freeze"/>
  <animate attributeName="r" values="7.2;9.2;7.2" dur="3s" begin="2.46s" repeatCount="indefinite"/>
</circle>
<circle cx="674.1" cy="371.3" r="3.2" fill="#58A6B8" stroke="#0d0d0d" stroke-width="1" filter="url(#glowSm)" opacity="0">
  <title>Jun 20
4 Contributions</title>
  <animate attributeName="opacity" from="0" to="1" dur="0.4s" begin="2.12s" fill="freeze"/>
  <animate attributeName="r" values="3.2;4.2;3.2" dur="4s" begin="2.52s" repeatCount="indefinite"/>
</circle>
<circle cx="700.7" cy="415.3" r="2.5" fill="#58A6B8" stroke="#0d0d0d" stroke-width="1" filter="url(#glowSm)" opacity="0">
  <title>Jun 21
1 Contribution</title>
  <animate attributeName="opacity" from="0" to="1" dur="0.4s" begin="2.18s" fill="freeze"/>
  <animate attributeName="r" values="2.5;3.5;2.5" dur="4s" begin="2.58s" repeatCount="indefinite"/>
</circle>
<circle cx="727.2" cy="400.7" r="2.7" fill="#58A6B8" stroke="#0d0d0d" stroke-width="1" filter="url(#glowSm)" opacity="0">
  <title>Jun 22
2 Contributions</title>
  <animate attributeName="opacity" from="0" to="1" dur="0.4s" begin="2.24s" fill="freeze"/>
  <animate attributeName="r" values="2.7;3.7;2.7" dur="4s" begin="2.64s" repeatCount="indefinite"/>
</circle>
<circle cx="753.8" cy="356.7" r="3.5" fill="#58A6B8" stroke="#0d0d0d" stroke-width="1" filter="url(#glowSm)" opacity="0">
  <title>Jun 23
5 Contributions</title>
  <animate attributeName="opacity" from="0" to="1" dur="0.4s" begin="2.30s" fill="freeze"/>
  <animate attributeName="r" values="3.5;4.5;3.5" dur="4s" begin="2.70s" repeatCount="indefinite"/>
</circle>
<circle cx="780.3" cy="386.0" r="3.0" fill="#58A6B8" stroke="#0d0d0d" stroke-width="1" filter="url(#glowSm)" opacity="0">
  <title>Jun 24
3 Contributions</title>
  <animate attributeName="opacity" from="0" to="1" dur="0.4s" begin="2.36s" fill="freeze"/>
  <animate attributeName="r" values="3.0;4.0;3.0" dur="4s" begin="2.76s" repeatCount="indefinite"/>
</circle>
<circle cx="806.9" cy="415.3" r="2.5" fill="#58A6B8" stroke="#0d0d0d" stroke-width="1" filter="url(#glowSm)" opacity="0">
  <title>Jun 25
1 Contribution</title>
  <animate attributeName="opacity" from="0" to="1" dur="0.4s" begin="2.42s" fill="freeze"/>
  <animate attributeName="r" values="2.5;3.5;2.5" dur="4s" begin="2.82s" repeatCount="indefinite"/>
</circle>
<circle cx="833.4" cy="430.0" r="2.2" fill="#58A6B8" stroke="#0d0d0d" stroke-width="1" filter="url(#glowSm)" opacity="0">
  <title>Jun 26
0 Contributions</title>
  <animate attributeName="opacity" from="0" to="1" dur="0.4s" begin="2.48s" fill="freeze"/>
  <animate attributeName="r" values="2.2;3.2;2.2" dur="4s" begin="2.88s" repeatCount="indefinite"/>
</circle>
<circle cx="860.0" cy="430.0" r="2.2" fill="#58A6B8" stroke="#0d0d0d" stroke-width="1" filter="url(#glowSm)" opacity="0">
  <title>Jun 27
0 Contributions</title>
  <animate attributeName="opacity" from="0" to="1" dur="0.4s" begin="2.54s" fill="freeze"/>
  <animate attributeName="r" values="2.2;3.2;2.2" dur="4s" begin="2.94s" repeatCount="indefinite"/>
</circle>
<text x="90" y="466" text-anchor="start" font-family="Georgia,'Palatino Linotype',serif" font-size="10" fill="#5a7a80" letter-spacing="1.5">MAY</text>
<text x="860" y="466" text-anchor="end" font-family="Georgia,'Palatino Linotype',serif" font-size="10" fill="#5a7a80" letter-spacing="1.5">JUN</text>
<text x="450" y="522" text-anchor="middle" font-family="Georgia,'Palatino Linotype',serif" font-size="9" fill="#5a7a80" letter-spacing="4" opacity="0.5">LAST 30 DAYS OF DARK RITUALS</text>
</svg>