<svg xmlns="http://www.w3.org/2000/svg" viewBox="0 0 900 540" width="900" height="540">
<defs>
  <!-- Gradients -->
  <linearGradient id="areaFill" x1="0" y1="0" x2="0" y2="1">
    <stop offset="0%" stop-color="#58A6B8" stop-opacity="0.28"/>
    <stop offset="85%" stop-color="#58A6B8" stop-opacity="0.03"/>
    <stop offset="100%" stop-color="#58A6B8" stop-opacity="0"/>
  </linearGradient>
  <radialGradient id="haloGrad" cx="50%" cy="50%" r="50%">
    <stop offset="0%" stop-color="#58A6B8" stop-opacity="0.5"/>
    <stop offset="100%" stop-color="#58A6B8" stop-opacity="0"/>
  </radialGradient>
  <linearGradient id="frameFade" x1="0" y1="0" x2="1" y2="1">
    <stop offset="0%" stop-color="#58A6B8" stop-opacity="0.35"/>
    <stop offset="50%" stop-color="#58A6B8" stop-opacity="0.12"/>
    <stop offset="100%" stop-color="#58A6B8" stop-opacity="0.35"/>
  </linearGradient>
  <!-- Filters -->
  <filter id="glowSm" x="-50%" y="-50%" width="200%" height="200%">
    <feGaussianBlur stdDeviation="2.5" result="b"/><feMerge><feMergeNode in="b"/><feMergeNode in="SourceGraphic"/></feMerge>
  </filter>
  <filter id="glowMd" x="-50%" y="-50%" width="200%" height="200%">
    <feGaussianBlur stdDeviation="5" result="b"/><feMerge><feMergeNode in="b"/><feMergeNode in="SourceGraphic"/></feMerge>
  </filter>
  <filter id="glowLg" x="-80%" y="-80%" width="260%" height="260%">
    <feGaussianBlur stdDeviation="10" result="b"/><feMerge><feMergeNode in="b"/><feMergeNode in="SourceGraphic"/></feMerge>
  </filter>
  <filter id="cardShadow" x="-10%" y="-10%" width="120%" height="130%">
    <feGaussianBlur stdDeviation="6" result="b"/><feFlood flood-color="#58A6B8" flood-opacity="0.08" result="c"/>
    <feComposite in="c" in2="b" operator="in" result="s"/><feMerge><feMergeNode in="s"/><feMergeNode in="SourceGraphic"/></feMerge>
  </filter>
</defs>

<!-- Background -->
<rect width="900" height="540" fill="#0d0d0d" rx="16"/>
<line x1="90" y1="210.0" x2="860" y2="210.0" stroke="rgba(88,166,184,0.055)" stroke-width="0.7"/>
<line x1="90" y1="246.7" x2="860" y2="246.7" stroke="rgba(88,166,184,0.055)" stroke-width="0.7"/>
<line x1="90" y1="283.3" x2="860" y2="283.3" stroke="rgba(88,166,184,0.055)" stroke-width="0.7"/>
<line x1="90" y1="320.0" x2="860" y2="320.0" stroke="rgba(88,166,184,0.055)" stroke-width="0.7"/>
<line x1="90" y1="356.7" x2="860" y2="356.7" stroke="rgba(88,166,184,0.055)" stroke-width="0.7"/>
<line x1="90" y1="393.3" x2="860" y2="393.3" stroke="rgba(88,166,184,0.055)" stroke-width="0.7"/>
<line x1="90" y1="430.0" x2="860" y2="430.0" stroke="rgba(88,166,184,0.055)" stroke-width="0.7"/>
<line x1="90.0" y1="210" x2="90.0" y2="430" stroke="rgba(88,166,184,0.055)" stroke-width="0.5"/>
<line x1="222.8" y1="210" x2="222.8" y2="430" stroke="rgba(88,166,184,0.055)" stroke-width="0.5"/>
<line x1="355.5" y1="210" x2="355.5" y2="430" stroke="rgba(88,166,184,0.055)" stroke-width="0.5"/>
<line x1="488.3" y1="210" x2="488.3" y2="430" stroke="rgba(88,166,184,0.055)" stroke-width="0.5"/>
<line x1="621.0" y1="210" x2="621.0" y2="430" stroke="rgba(88,166,184,0.055)" stroke-width="0.5"/>
<line x1="753.8" y1="210" x2="753.8" y2="430" stroke="rgba(88,166,184,0.055)" stroke-width="0.5"/>
<circle cx="548.4" cy="421.1" r="1.2" fill="#58A6B8" opacity="0.115"><animate attributeName="opacity" values="0.115;0.253;0.115" dur="5.0s" begin="1.3s" repeatCount="indefinite"/></circle>
<circle cx="733.7" cy="460.3" r="1.1" fill="#58A6B8" opacity="0.144"><animate attributeName="opacity" values="0.144;0.317;0.144" dur="5.3s" begin="2.4s" repeatCount="indefinite"/></circle>
<circle cx="378.3" cy="178.1" r="0.5" fill="#58A6B8" opacity="0.107"><animate attributeName="opacity" values="0.107;0.235;0.107" dur="8.1s" begin="5.8s" repeatCount="indefinite"/></circle>
<circle cx="691.3" cy="139.1" r="0.9" fill="#58A6B8" opacity="0.109"><animate attributeName="opacity" values="0.109;0.240;0.109" dur="7.2s" begin="5.6s" repeatCount="indefinite"/></circle>
<circle cx="518.3" cy="226.4" r="0.8" fill="#58A6B8" opacity="0.142"><animate attributeName="opacity" values="0.142;0.312;0.142" dur="6.2s" begin="4.1s" repeatCount="indefinite"/></circle>
<circle cx="610.8" cy="480.2" r="1.1" fill="#58A6B8" opacity="0.051"><animate attributeName="opacity" values="0.051;0.112;0.051" dur="7.8s" begin="3.6s" repeatCount="indefinite"/></circle>
<circle cx="76.8" cy="170.7" r="1.0" fill="#58A6B8" opacity="0.104"><animate attributeName="opacity" values="0.104;0.229;0.104" dur="5.6s" begin="1.8s" repeatCount="indefinite"/></circle>
<circle cx="76.2" cy="293.2" r="0.6" fill="#58A6B8" opacity="0.096"><animate attributeName="opacity" values="0.096;0.211;0.096" dur="6.9s" begin="5.2s" repeatCount="indefinite"/></circle>
<circle cx="372.5" cy="105.9" r="0.9" fill="#58A6B8" opacity="0.149"><animate attributeName="opacity" values="0.149;0.328;0.149" dur="7.8s" begin="2.3s" repeatCount="indefinite"/></circle>
<circle cx="272.5" cy="65.4" r="0.8" fill="#58A6B8" opacity="0.100"><animate attributeName="opacity" values="0.100;0.220;0.100" dur="6.8s" begin="5.1s" repeatCount="indefinite"/></circle>
<circle cx="389.6" cy="256.5" r="1.2" fill="#58A6B8" opacity="0.050"><animate attributeName="opacity" values="0.050;0.110;0.050" dur="5.1s" begin="3.2s" repeatCount="indefinite"/></circle>
<circle cx="194.6" cy="445.3" r="1.4" fill="#58A6B8" opacity="0.112"><animate attributeName="opacity" values="0.112;0.246;0.112" dur="4.1s" begin="1.9s" repeatCount="indefinite"/></circle>
<circle cx="614.2" cy="352.3" r="1.0" fill="#58A6B8" opacity="0.114"><animate attributeName="opacity" values="0.114;0.251;0.114" dur="7.3s" begin="5.2s" repeatCount="indefinite"/></circle>
<circle cx="379.4" cy="258.5" r="1.3" fill="#58A6B8" opacity="0.057"><animate attributeName="opacity" values="0.057;0.125;0.057" dur="6.0s" begin="0.8s" repeatCount="indefinite"/></circle>
<circle cx="420.6" cy="279.6" r="0.6" fill="#58A6B8" opacity="0.041"><animate attributeName="opacity" values="0.041;0.090;0.041" dur="6.7s" begin="5.5s" repeatCount="indefinite"/></circle>
<circle cx="321.0" cy="458.6" r="1.2" fill="#58A6B8" opacity="0.154"><animate attributeName="opacity" values="0.154;0.339;0.154" dur="6.7s" begin="2.3s" repeatCount="indefinite"/></circle>
<circle cx="563.5" cy="325.0" r="0.5" fill="#58A6B8" opacity="0.111"><animate attributeName="opacity" values="0.111;0.244;0.111" dur="5.1s" begin="2.4s" repeatCount="indefinite"/></circle>
<circle cx="56.3" cy="56.8" r="1.2" fill="#58A6B8" opacity="0.137"><animate attributeName="opacity" values="0.137;0.301;0.137" dur="3.8s" begin="5.2s" repeatCount="indefinite"/></circle>
<circle cx="83.2" cy="471.7" r="0.5" fill="#58A6B8" opacity="0.150"><animate attributeName="opacity" values="0.150;0.330;0.150" dur="5.6s" begin="3.6s" repeatCount="indefinite"/></circle>
<circle cx="49.1" cy="116.9" r="0.7" fill="#58A6B8" opacity="0.149"><animate attributeName="opacity" values="0.149;0.328;0.149" dur="4.0s" begin="2.8s" repeatCount="indefinite"/></circle>
<circle cx="726.2" cy="174.9" r="1.2" fill="#58A6B8" opacity="0.127"><animate attributeName="opacity" values="0.127;0.279;0.127" dur="5.2s" begin="5.2s" repeatCount="indefinite"/></circle>
<circle cx="729.0" cy="103.3" r="0.5" fill="#58A6B8" opacity="0.097"><animate attributeName="opacity" values="0.097;0.213;0.097" dur="6.7s" begin="0.7s" repeatCount="indefinite"/></circle>
<circle cx="436.0" cy="218.8" r="0.9" fill="#58A6B8" opacity="0.104"><animate attributeName="opacity" values="0.104;0.229;0.104" dur="6.5s" begin="3.4s" repeatCount="indefinite"/></circle>
<circle cx="563.0" cy="397.0" r="1.3" fill="#58A6B8" opacity="0.102"><animate attributeName="opacity" values="0.102;0.224;0.102" dur="6.6s" begin="3.8s" repeatCount="indefinite"/></circle>
<circle cx="154.9" cy="393.5" r="0.4" fill="#58A6B8" opacity="0.145"><animate attributeName="opacity" values="0.145;0.319;0.145" dur="3.9s" begin="0.2s" repeatCount="indefinite"/></circle>
<circle cx="387.6" cy="340.7" r="1.3" fill="#58A6B8" opacity="0.113"><animate attributeName="opacity" values="0.113;0.249;0.113" dur="7.0s" begin="1.4s" repeatCount="indefinite"/></circle>
<circle cx="83.7" cy="136.6" r="1.1" fill="#58A6B8" opacity="0.124"><animate attributeName="opacity" values="0.124;0.273;0.124" dur="6.0s" begin="4.6s" repeatCount="indefinite"/></circle>
<circle cx="19.2" cy="187.7" r="1.1" fill="#58A6B8" opacity="0.139"><animate attributeName="opacity" values="0.139;0.306;0.139" dur="6.3s" begin="3.8s" repeatCount="indefinite"/></circle>
<circle cx="534.6" cy="120.6" r="0.8" fill="#58A6B8" opacity="0.137"><animate attributeName="opacity" values="0.137;0.301;0.137" dur="8.2s" begin="5.7s" repeatCount="indefinite"/></circle>
<circle cx="760.2" cy="284.8" r="0.4" fill="#58A6B8" opacity="0.134"><animate attributeName="opacity" values="0.134;0.295;0.134" dur="7.1s" begin="5.4s" repeatCount="indefinite"/></circle>
<circle cx="615.2" cy="497.1" r="1.3" fill="#58A6B8" opacity="0.074"><animate attributeName="opacity" values="0.074;0.163;0.074" dur="6.0s" begin="3.0s" repeatCount="indefinite"/></circle>
<circle cx="870.4" cy="246.9" r="1.2" fill="#58A6B8" opacity="0.122"><animate attributeName="opacity" values="0.122;0.268;0.122" dur="3.5s" begin="3.0s" repeatCount="indefinite"/></circle>
<circle cx="569.1" cy="48.3" r="0.9" fill="#58A6B8" opacity="0.108"><animate attributeName="opacity" values="0.108;0.238;0.108" dur="6.9s" begin="4.2s" repeatCount="indefinite"/></circle>
<circle cx="790.9" cy="249.6" r="0.3" fill="#58A6B8" opacity="0.073"><animate attributeName="opacity" values="0.073;0.161;0.073" dur="4.1s" begin="1.7s" repeatCount="indefinite"/></circle>
<circle cx="291.1" cy="185.4" r="0.8" fill="#58A6B8" opacity="0.071"><animate attributeName="opacity" values="0.071;0.156;0.071" dur="6.8s" begin="4.1s" repeatCount="indefinite"/></circle>
<circle cx="785.4" cy="236.0" r="0.7" fill="#58A6B8" opacity="0.100"><animate attributeName="opacity" values="0.100;0.220;0.100" dur="8.0s" begin="4.7s" repeatCount="indefinite"/></circle>
<circle cx="278.4" cy="236.1" r="0.9" fill="#58A6B8" opacity="0.127"><animate attributeName="opacity" values="0.127;0.279;0.127" dur="3.8s" begin="1.5s" repeatCount="indefinite"/></circle>
<circle cx="154.7" cy="147.4" r="0.9" fill="#58A6B8" opacity="0.042"><animate attributeName="opacity" values="0.042;0.092;0.042" dur="4.5s" begin="3.0s" repeatCount="indefinite"/></circle>
<circle cx="380.3" cy="347.4" r="1.3" fill="#58A6B8" opacity="0.147"><animate attributeName="opacity" values="0.147;0.323;0.147" dur="4.1s" begin="4.5s" repeatCount="indefinite"/></circle>
<circle cx="788.3" cy="381.9" r="0.4" fill="#58A6B8" opacity="0.137"><animate attributeName="opacity" values="0.137;0.301;0.137" dur="3.9s" begin="1.0s" repeatCount="indefinite"/></circle>
<circle cx="291.4" cy="150.7" r="1.3" fill="#58A6B8" opacity="0.073"><animate attributeName="opacity" values="0.073;0.161;0.073" dur="5.3s" begin="1.8s" repeatCount="indefinite"/></circle>
<circle cx="828.6" cy="28.3" r="1.0" fill="#58A6B8" opacity="0.125"><animate attributeName="opacity" values="0.125;0.275;0.125" dur="5.6s" begin="0.5s" repeatCount="indefinite"/></circle>
<circle cx="891.9" cy="470.9" r="1.1" fill="#58A6B8" opacity="0.150"><animate attributeName="opacity" values="0.150;0.330;0.150" dur="6.9s" begin="4.5s" repeatCount="indefinite"/></circle>
<circle cx="730.1" cy="428.2" r="0.8" fill="#58A6B8" opacity="0.093"><animate attributeName="opacity" values="0.093;0.205;0.093" dur="4.7s" begin="3.3s" repeatCount="indefinite"/></circle>
<circle cx="127.7" cy="525.3" r="0.5" fill="#58A6B8" opacity="0.095"><animate attributeName="opacity" values="0.095;0.209;0.095" dur="4.9s" begin="3.5s" repeatCount="indefinite"/></circle>
<circle cx="422.3" cy="75.5" r="0.9" fill="#58A6B8" opacity="0.149"><animate attributeName="opacity" values="0.149;0.328;0.149" dur="5.1s" begin="2.7s" repeatCount="indefinite"/></circle>
<circle cx="242.7" cy="353.2" r="0.7" fill="#58A6B8" opacity="0.134"><animate attributeName="opacity" values="0.134;0.295;0.134" dur="4.6s" begin="0.2s" repeatCount="indefinite"/></circle>
<circle cx="273.2" cy="90.9" r="0.8" fill="#58A6B8" opacity="0.066"><animate attributeName="opacity" values="0.066;0.145;0.066" dur="4.1s" begin="4.1s" repeatCount="indefinite"/></circle>
<circle cx="300.2" cy="535.3" r="1.1" fill="#58A6B8" opacity="0.106"><animate attributeName="opacity" values="0.106;0.233;0.106" dur="5.5s" begin="1.6s" repeatCount="indefinite"/></circle>
<circle cx="261.2" cy="172.9" r="1.0" fill="#58A6B8" opacity="0.068"><animate attributeName="opacity" values="0.068;0.150;0.068" dur="4.5s" begin="1.5s" repeatCount="indefinite"/></circle>
<circle cx="159.6" cy="476.3" r="1.1" fill="#58A6B8" opacity="0.048"><animate attributeName="opacity" values="0.048;0.106;0.048" dur="5.5s" begin="3.3s" repeatCount="indefinite"/></circle>
<circle cx="306.0" cy="441.6" r="1.2" fill="#58A6B8" opacity="0.120"><animate attributeName="opacity" values="0.120;0.264;0.120" dur="5.1s" begin="3.4s" repeatCount="indefinite"/></circle>
<circle cx="537.4" cy="249.6" r="0.5" fill="#58A6B8" opacity="0.072"><animate attributeName="opacity" values="0.072;0.158;0.072" dur="5.1s" begin="1.6s" repeatCount="indefinite"/></circle>
<circle cx="255.6" cy="326.3" r="0.5" fill="#58A6B8" opacity="0.071"><animate attributeName="opacity" values="0.071;0.156;0.071" dur="7.0s" begin="4.8s" repeatCount="indefinite"/></circle>
<circle cx="105.2" cy="183.6" r="1.3" fill="#58A6B8" opacity="0.100"><animate attributeName="opacity" values="0.100;0.220;0.100" dur="8.4s" begin="5.5s" repeatCount="indefinite"/></circle>
<g transform="translate(633.9,131.9) rotate(45)" opacity="0.088"><rect x="-1.5" y="-1.5" width="3.0" height="3.0" fill="#58A6B8"/><animate attributeName="opacity" values="0.088;0.220;0.088" dur="6.2s" begin="4.8s" repeatCount="indefinite"/></g>
<g transform="translate(344.5,481.9) rotate(45)" opacity="0.097"><rect x="-1.7" y="-1.7" width="3.4" height="3.4" fill="#58A6B8"/><animate attributeName="opacity" values="0.097;0.242;0.097" dur="6.5s" begin="0.4s" repeatCount="indefinite"/></g>
<g transform="translate(845.4,407.1) rotate(45)" opacity="0.091"><rect x="-1.8" y="-1.8" width="3.6" height="3.6" fill="#58A6B8"/><animate attributeName="opacity" values="0.091;0.227;0.091" dur="9.3s" begin="3.7s" repeatCount="indefinite"/></g>
<g transform="translate(55.3,225.6) rotate(45)" opacity="0.052"><rect x="-1.4" y="-1.4" width="2.8" height="2.8" fill="#58A6B8"/><animate attributeName="opacity" values="0.052;0.130;0.052" dur="8.9s" begin="0.7s" repeatCount="indefinite"/></g>
<g transform="translate(212.5,375.8) rotate(45)" opacity="0.099"><rect x="-1.9" y="-1.9" width="3.8" height="3.8" fill="#58A6B8"/><animate attributeName="opacity" values="0.099;0.247;0.099" dur="7.7s" begin="2.4s" repeatCount="indefinite"/></g>
<g transform="translate(208.7,221.7) rotate(45)" opacity="0.064"><rect x="-1.6" y="-1.6" width="3.3" height="3.3" fill="#58A6B8"/><animate attributeName="opacity" values="0.064;0.160;0.064" dur="9.5s" begin="0.7s" repeatCount="indefinite"/></g>
<g transform="translate(377.1,269.2) rotate(45)" opacity="0.090"><rect x="-2.1" y="-2.1" width="4.3" height="4.3" fill="#58A6B8"/><animate attributeName="opacity" values="0.090;0.225;0.090" dur="8.8s" begin="4.5s" repeatCount="indefinite"/></g>
<g transform="translate(658.0,242.0) rotate(45)" opacity="0.064"><rect x="-1.3" y="-1.3" width="2.5" height="2.5" fill="#58A6B8"/><animate attributeName="opacity" values="0.064;0.160;0.064" dur="9.1s" begin="4.9s" repeatCount="indefinite"/></g>
<g transform="translate(18,18) scale(1,1)"><path d="M0 25 L0 6 Q0 0 6 0 L25 0" fill="none" stroke="#58A6B8" stroke-width="1.3" opacity="0.35"/><circle cx="0" cy="0" r="1.8" fill="#58A6B8" opacity="0.4"/><path d="M0 12 L5 12" fill="none" stroke="#58A6B8" stroke-width="0.6" opacity="0.2"/><path d="M12 0 L12 5" fill="none" stroke="#58A6B8" stroke-width="0.6" opacity="0.2"/></g><g transform="translate(882,18) scale(-1,1)"><path d="M0 25 L0 6 Q0 0 6 0 L25 0" fill="none" stroke="#58A6B8" stroke-width="1.3" opacity="0.35"/><circle cx="0" cy="0" r="1.8" fill="#58A6B8" opacity="0.4"/><path d="M0 12 L5 12" fill="none" stroke="#58A6B8" stroke-width="0.6" opacity="0.2"/><path d="M12 0 L12 5" fill="none" stroke="#58A6B8" stroke-width="0.6" opacity="0.2"/></g><g transform="translate(18,522) scale(1,-1)"><path d="M0 25 L0 6 Q0 0 6 0 L25 0" fill="none" stroke="#58A6B8" stroke-width="1.3" opacity="0.35"/><circle cx="0" cy="0" r="1.8" fill="#58A6B8" opacity="0.4"/><path d="M0 12 L5 12" fill="none" stroke="#58A6B8" stroke-width="0.6" opacity="0.2"/><path d="M12 0 L12 5" fill="none" stroke="#58A6B8" stroke-width="0.6" opacity="0.2"/></g><g transform="translate(882,522) scale(-1,-1)"><path d="M0 25 L0 6 Q0 0 6 0 L25 0" fill="none" stroke="#58A6B8" stroke-width="1.3" opacity="0.35"/><circle cx="0" cy="0" r="1.8" fill="#58A6B8" opacity="0.4"/><path d="M0 12 L5 12" fill="none" stroke="#58A6B8" stroke-width="0.6" opacity="0.2"/><path d="M12 0 L12 5" fill="none" stroke="#58A6B8" stroke-width="0.6" opacity="0.2"/></g>
<rect x="10" y="10" width="880" height="520" rx="12" fill="none" stroke="url(#frameFade)" stroke-width="1"/>
<text x="450" y="50" text-anchor="middle" font-family="Georgia,'Palatino Linotype','Book Antiqua',Palatino,serif" font-size="22" font-weight="bold" fill="#e8f4f7" letter-spacing="8" filter="url(#glowMd)">✧ THE COMMIT COVEN ✧</text>
<line x1="310" y1="62" x2="590" y2="62" stroke="#58A6B8" stroke-width="0.5" opacity="0.25"/>
<g filter="url(#cardShadow)"><rect x="70" y="80" width="240" height="78" rx="10" fill="rgba(88,166,184,0.05)" stroke="rgba(88,166,184,0.22)" stroke-width="0.8"/><text x="190" y="110" text-anchor="middle" font-family="Georgia,'Palatino Linotype',serif" font-size="11" fill="#5a7a80" letter-spacing="3" text-transform="uppercase">LONGEST STREAK</text><text x="190" y="136" text-anchor="middle" font-family="Georgia,'Palatino Linotype',serif" font-size="20" fill="#e8f4f7" font-weight="bold" filter="url(#glowSm)">11 Nights</text></g>
<g filter="url(#cardShadow)"><rect x="330" y="80" width="240" height="78" rx="10" fill="rgba(88,166,184,0.05)" stroke="rgba(88,166,184,0.22)" stroke-width="0.8"/><text x="450" y="110" text-anchor="middle" font-family="Georgia,'Palatino Linotype',serif" font-size="11" fill="#5a7a80" letter-spacing="3" text-transform="uppercase">CURRENT RITUAL</text><text x="450" y="136" text-anchor="middle" font-family="Georgia,'Palatino Linotype',serif" font-size="20" fill="#e8f4f7" font-weight="bold" filter="url(#glowSm)">11 Nights</text></g>
<g filter="url(#cardShadow)"><rect x="590" y="80" width="240" height="78" rx="10" fill="rgba(88,166,184,0.05)" stroke="rgba(88,166,184,0.22)" stroke-width="0.8"/><text x="710" y="110" text-anchor="middle" font-family="Georgia,'Palatino Linotype',serif" font-size="11" fill="#5a7a80" letter-spacing="3" text-transform="uppercase">TOTAL OFFERINGS</text><text x="710" y="136" text-anchor="middle" font-family="Georgia,'Palatino Linotype',serif" font-size="20" fill="#e8f4f7" font-weight="bold" filter="url(#glowSm)">161</text></g>
<text x="80" y="434.0" text-anchor="end" font-family="'Courier New',monospace" font-size="10" fill="#5a7a80">0</text>
<line x1="86" y1="430.0" x2="90" y2="430.0" stroke="#5a7a80" stroke-width="0.5"/>
<text x="80" y="390.0" text-anchor="end" font-family="'Courier New',monospace" font-size="10" fill="#5a7a80">3</text>
<line x1="86" y1="386.0" x2="90" y2="386.0" stroke="#5a7a80" stroke-width="0.5"/>
<text x="80" y="346.0" text-anchor="end" font-family="'Courier New',monospace" font-size="10" fill="#5a7a80">6</text>
<line x1="86" y1="342.0" x2="90" y2="342.0" stroke="#5a7a80" stroke-width="0.5"/>
<text x="80" y="302.0" text-anchor="end" font-family="'Courier New',monospace" font-size="10" fill="#5a7a80">9</text>
<line x1="86" y1="298.0" x2="90" y2="298.0" stroke="#5a7a80" stroke-width="0.5"/>
<text x="80" y="258.0" text-anchor="end" font-family="'Courier New',monospace" font-size="10" fill="#5a7a80">12</text>
<line x1="86" y1="254.0" x2="90" y2="254.0" stroke="#5a7a80" stroke-width="0.5"/>
<text x="80" y="214.0" text-anchor="end" font-family="'Courier New',monospace" font-size="10" fill="#5a7a80">15</text>
<line x1="86" y1="210.0" x2="90" y2="210.0" stroke="#5a7a80" stroke-width="0.5"/>
<text x="90.0" y="450" text-anchor="middle" font-family="'Courier New',monospace" font-size="10" fill="#5a7a80">26</text>
<text x="196.2" y="450" text-anchor="middle" font-family="'Courier New',monospace" font-size="10" fill="#5a7a80">30</text>
<text x="302.4" y="450" text-anchor="middle" font-family="'Courier New',monospace" font-size="10" fill="#5a7a80">3</text>
<text x="408.6" y="450" text-anchor="middle" font-family="'Courier New',monospace" font-size="10" fill="#5a7a80">7</text>
<text x="514.8" y="450" text-anchor="middle" font-family="'Courier New',monospace" font-size="10" fill="#5a7a80">11</text>
<text x="621.0" y="450" text-anchor="middle" font-family="'Courier New',monospace" font-size="10" fill="#5a7a80">15</text>
<text x="727.2" y="450" text-anchor="middle" font-family="'Courier New',monospace" font-size="10" fill="#5a7a80">19</text>
<text x="833.4" y="450" text-anchor="middle" font-family="'Courier New',monospace" font-size="10" fill="#5a7a80">23</text>
<text x="860.0" y="450" text-anchor="middle" font-family="'Courier New',monospace" font-size="10" fill="#5a7a80">24</text>
<line x1="90" y1="210" x2="90" y2="430" stroke="#58A6B8" stroke-width="0.5" opacity="0.2"/>
<line x1="90" y1="430" x2="860" y2="430" stroke="#58A6B8" stroke-width="0.5" opacity="0.2"/>
<path d="M90.0 430.0 C93.5 430.0,109.5 441.7,116.6 430.0 C123.6 418.3,136.0 342.0,143.1 342.0 C150.2 342.0,162.6 418.3,169.7 430.0 C176.7 441.7,189.1 430.0,196.2 430.0 C203.3 430.0,215.7 430.0,222.8 430.0 C229.8 430.0,242.2 430.0,249.3 430.0 C256.4 430.0,268.8 432.0,275.9 430.0 C282.9 428.0,295.3 415.3,302.4 415.3 C309.5 415.3,321.9 428.0,329.0 430.0 C336.0 432.0,348.4 430.0,355.5 430.0 C362.6 430.0,375.0 430.0,382.1 430.0 C389.1 430.0,401.5 430.0,408.6 430.0 C415.7 430.0,428.1 430.0,435.2 430.0 C442.3 430.0,454.6 430.0,461.7 430.0 C468.8 430.0,481.2 430.0,488.3 430.0 C495.4 430.0,507.7 430.0,514.8 430.0 C521.9 430.0,534.3 430.0,541.4 430.0 C548.5 430.0,560.9 439.8,567.9 430.0 C575.0 420.2,587.4 370.4,594.5 356.7 C601.6 343.0,614.0 325.4,621.0 327.3 C628.1 329.3,640.5 377.2,647.6 371.3 C654.7 365.5,667.1 297.0,674.1 283.3 C681.2 269.6,693.6 276.5,700.7 268.7 C707.8 260.8,720.2 211.0,727.2 224.7 C734.3 238.4,746.7 345.9,753.8 371.3 C760.9 396.8,773.3 411.4,780.3 415.3 C787.4 419.2,799.8 408.5,806.9 400.7 C814.0 392.8,826.4 354.7,833.4 356.7 C840.5 358.6,856.5 407.5,860.0 415.3 L860.0 430 L90.0 430 Z" fill="url(#areaFill)" opacity="0.9">
  <animate attributeName="opacity" values="0;0.9" dur="2s" fill="freeze"/>
</path>
<path d="M90.0 430.0 C93.5 430.0,109.5 441.7,116.6 430.0 C123.6 418.3,136.0 342.0,143.1 342.0 C150.2 342.0,162.6 418.3,169.7 430.0 C176.7 441.7,189.1 430.0,196.2 430.0 C203.3 430.0,215.7 430.0,222.8 430.0 C229.8 430.0,242.2 430.0,249.3 430.0 C256.4 430.0,268.8 432.0,275.9 430.0 C282.9 428.0,295.3 415.3,302.4 415.3 C309.5 415.3,321.9 428.0,329.0 430.0 C336.0 432.0,348.4 430.0,355.5 430.0 C362.6 430.0,375.0 430.0,382.1 430.0 C389.1 430.0,401.5 430.0,408.6 430.0 C415.7 430.0,428.1 430.0,435.2 430.0 C442.3 430.0,454.6 430.0,461.7 430.0 C468.8 430.0,481.2 430.0,488.3 430.0 C495.4 430.0,507.7 430.0,514.8 430.0 C521.9 430.0,534.3 430.0,541.4 430.0 C548.5 430.0,560.9 439.8,567.9 430.0 C575.0 420.2,587.4 370.4,594.5 356.7 C601.6 343.0,614.0 325.4,621.0 327.3 C628.1 329.3,640.5 377.2,647.6 371.3 C654.7 365.5,667.1 297.0,674.1 283.3 C681.2 269.6,693.6 276.5,700.7 268.7 C707.8 260.8,720.2 211.0,727.2 224.7 C734.3 238.4,746.7 345.9,753.8 371.3 C760.9 396.8,773.3 411.4,780.3 415.3 C787.4 419.2,799.8 408.5,806.9 400.7 C814.0 392.8,826.4 354.7,833.4 356.7 C840.5 358.6,856.5 407.5,860.0 415.3" fill="none" stroke="#58A6B8" stroke-width="4" opacity="0.15" filter="url(#glowLg)" stroke-linecap="round" stroke-linejoin="round"/>
<path d="M90.0 430.0 C93.5 430.0,109.5 441.7,116.6 430.0 C123.6 418.3,136.0 342.0,143.1 342.0 C150.2 342.0,162.6 418.3,169.7 430.0 C176.7 441.7,189.1 430.0,196.2 430.0 C203.3 430.0,215.7 430.0,222.8 430.0 C229.8 430.0,242.2 430.0,249.3 430.0 C256.4 430.0,268.8 432.0,275.9 430.0 C282.9 428.0,295.3 415.3,302.4 415.3 C309.5 415.3,321.9 428.0,329.0 430.0 C336.0 432.0,348.4 430.0,355.5 430.0 C362.6 430.0,375.0 430.0,382.1 430.0 C389.1 430.0,401.5 430.0,408.6 430.0 C415.7 430.0,428.1 430.0,435.2 430.0 C442.3 430.0,454.6 430.0,461.7 430.0 C468.8 430.0,481.2 430.0,488.3 430.0 C495.4 430.0,507.7 430.0,514.8 430.0 C521.9 430.0,534.3 430.0,541.4 430.0 C548.5 430.0,560.9 439.8,567.9 430.0 C575.0 420.2,587.4 370.4,594.5 356.7 C601.6 343.0,614.0 325.4,621.0 327.3 C628.1 329.3,640.5 377.2,647.6 371.3 C654.7 365.5,667.1 297.0,674.1 283.3 C681.2 269.6,693.6 276.5,700.7 268.7 C707.8 260.8,720.2 211.0,727.2 224.7 C734.3 238.4,746.7 345.9,753.8 371.3 C760.9 396.8,773.3 411.4,780.3 415.3 C787.4 419.2,799.8 408.5,806.9 400.7 C814.0 392.8,826.4 354.7,833.4 356.7 C840.5 358.6,856.5 407.5,860.0 415.3" fill="none" stroke="#58A6B8" stroke-width="2.2" stroke-linecap="round" stroke-linejoin="round" filter="url(#glowSm)" stroke-dasharray="1697" stroke-dashoffset="1697">
  <animate attributeName="stroke-dashoffset" from="1697" to="0" dur="2.5s" fill="freeze" calcMode="spline" keySplines="0.4 0 0.2 1"/>
  <animate attributeName="opacity" values="0.7;1;0.85;1" dur="6s" begin="2.5s" repeatCount="indefinite"/>
</path>
<circle cx="90.0" cy="430.0" r="2.2" fill="#58A6B8" stroke="#0d0d0d" stroke-width="1" filter="url(#glowSm)" opacity="0">
  <title>May 26
0 Contributions</title>
  <animate attributeName="opacity" from="0" to="1" dur="0.4s" begin="0.80s" fill="freeze"/>
  <animate attributeName="r" values="2.2;3.2;2.2" dur="4s" begin="1.20s" repeatCount="indefinite"/>
</circle>
<circle cx="116.6" cy="430.0" r="2.2" fill="#58A6B8" stroke="#0d0d0d" stroke-width="1" filter="url(#glowSm)" opacity="0">
  <title>May 27
0 Contributions</title>
  <animate attributeName="opacity" from="0" to="1" dur="0.4s" begin="0.86s" fill="freeze"/>
  <animate attributeName="r" values="2.2;3.2;2.2" dur="4s" begin="1.26s" repeatCount="indefinite"/>
</circle>
<circle cx="143.1" cy="342.0" r="3.7" fill="#58A6B8" stroke="#0d0d0d" stroke-width="1" filter="url(#glowSm)" opacity="0">
  <title>May 28
6 Contributions</title>
  <animate attributeName="opacity" from="0" to="1" dur="0.4s" begin="0.92s" fill="freeze"/>
  <animate attributeName="r" values="3.7;4.7;3.7" dur="4s" begin="1.32s" repeatCount="indefinite"/>
</circle>
<circle cx="169.7" cy="430.0" r="2.2" fill="#58A6B8" stroke="#0d0d0d" stroke-width="1" filter="url(#glowSm)" opacity="0">
  <title>May 29
0 Contributions</title>
  <animate attributeName="opacity" from="0" to="1" dur="0.4s" begin="0.98s" fill="freeze"/>
  <animate attributeName="r" values="2.2;3.2;2.2" dur="4s" begin="1.38s" repeatCount="indefinite"/>
</circle>
<circle cx="196.2" cy="430.0" r="2.2" fill="#58A6B8" stroke="#0d0d0d" stroke-width="1" filter="url(#glowSm)" opacity="0">
  <title>May 30
0 Contributions</title>
  <animate attributeName="opacity" from="0" to="1" dur="0.4s" begin="1.04s" fill="freeze"/>
  <animate attributeName="r" values="2.2;3.2;2.2" dur="4s" begin="1.44s" repeatCount="indefinite"/>
</circle>
<circle cx="222.8" cy="430.0" r="2.2" fill="#58A6B8" stroke="#0d0d0d" stroke-width="1" filter="url(#glowSm)" opacity="0">
  <title>May 31
0 Contributions</title>
  <animate attributeName="opacity" from="0" to="1" dur="0.4s" begin="1.10s" fill="freeze"/>
  <animate attributeName="r" values="2.2;3.2;2.2" dur="4s" begin="1.50s" repeatCount="indefinite"/>
</circle>
<circle cx="249.3" cy="430.0" r="2.2" fill="#58A6B8" stroke="#0d0d0d" stroke-width="1" filter="url(#glowSm)" opacity="0">
  <title>Jun 1
0 Contributions</title>
  <animate attributeName="opacity" from="0" to="1" dur="0.4s" begin="1.16s" fill="freeze"/>
  <animate attributeName="r" values="2.2;3.2;2.2" dur="4s" begin="1.56s" repeatCount="indefinite"/>
</circle>
<circle cx="275.9" cy="430.0" r="2.2" fill="#58A6B8" stroke="#0d0d0d" stroke-width="1" filter="url(#glowSm)" opacity="0">
  <title>Jun 2
0 Contributions</title>
  <animate attributeName="opacity" from="0" to="1" dur="0.4s" begin="1.22s" fill="freeze"/>
  <animate attributeName="r" values="2.2;3.2;2.2" dur="4s" begin="1.62s" repeatCount="indefinite"/>
</circle>
<circle cx="302.4" cy="415.3" r="2.5" fill="#58A6B8" stroke="#0d0d0d" stroke-width="1" filter="url(#glowSm)" opacity="0">
  <title>Jun 3
1 Contribution</title>
  <animate attributeName="opacity" from="0" to="1" dur="0.4s" begin="1.28s" fill="freeze"/>
  <animate attributeName="r" values="2.5;3.5;2.5" dur="4s" begin="1.68s" repeatCount="indefinite"/>
</circle>
<circle cx="329.0" cy="430.0" r="2.2" fill="#58A6B8" stroke="#0d0d0d" stroke-width="1" filter="url(#glowSm)" opacity="0">
  <title>Jun 4
0 Contributions</title>
  <animate attributeName="opacity" from="0" to="1" dur="0.4s" begin="1.34s" fill="freeze"/>
  <animate attributeName="r" values="2.2;3.2;2.2" dur="4s" begin="1.74s" repeatCount="indefinite"/>
</circle>
<circle cx="355.5" cy="430.0" r="2.2" fill="#58A6B8" stroke="#0d0d0d" stroke-width="1" filter="url(#glowSm)" opacity="0">
  <title>Jun 5
0 Contributions</title>
  <animate attributeName="opacity" from="0" to="1" dur="0.4s" begin="1.40s" fill="freeze"/>
  <animate attributeName="r" values="2.2;3.2;2.2" dur="4s" begin="1.80s" repeatCount="indefinite"/>
</circle>
<circle cx="382.1" cy="430.0" r="2.2" fill="#58A6B8" stroke="#0d0d0d" stroke-width="1" filter="url(#glowSm)" opacity="0">
  <title>Jun 6
0 Contributions</title>
  <animate attributeName="opacity" from="0" to="1" dur="0.4s" begin="1.46s" fill="freeze"/>
  <animate attributeName="r" values="2.2;3.2;2.2" dur="4s" begin="1.86s" repeatCount="indefinite"/>
</circle>
<circle cx="408.6" cy="430.0" r="2.2" fill="#58A6B8" stroke="#0d0d0d" stroke-width="1" filter="url(#glowSm)" opacity="0">
  <title>Jun 7
0 Contributions</title>
  <animate attributeName="opacity" from="0" to="1" dur="0.4s" begin="1.52s" fill="freeze"/>
  <animate attributeName="r" values="2.2;3.2;2.2" dur="4s" begin="1.92s" repeatCount="indefinite"/>
</circle>
<circle cx="435.2" cy="430.0" r="2.2" fill="#58A6B8" stroke="#0d0d0d" stroke-width="1" filter="url(#glowSm)" opacity="0">
  <title>Jun 8
0 Contributions</title>
  <animate attributeName="opacity" from="0" to="1" dur="0.4s" begin="1.58s" fill="freeze"/>
  <animate attributeName="r" values="2.2;3.2;2.2" dur="4s" begin="1.98s" repeatCount="indefinite"/>
</circle>
<circle cx="461.7" cy="430.0" r="2.2" fill="#58A6B8" stroke="#0d0d0d" stroke-width="1" filter="url(#glowSm)" opacity="0">
  <title>Jun 9
0 Contributions</title>
  <animate attributeName="opacity" from="0" to="1" dur="0.4s" begin="1.64s" fill="freeze"/>
  <animate attributeName="r" values="2.2;3.2;2.2" dur="4s" begin="2.04s" repeatCount="indefinite"/>
</circle>
<circle cx="488.3" cy="430.0" r="2.2" fill="#58A6B8" stroke="#0d0d0d" stroke-width="1" filter="url(#glowSm)" opacity="0">
  <title>Jun 10
0 Contributions</title>
  <animate attributeName="opacity" from="0" to="1" dur="0.4s" begin="1.70s" fill="freeze"/>
  <animate attributeName="r" values="2.2;3.2;2.2" dur="4s" begin="2.10s" repeatCount="indefinite"/>
</circle>
<circle cx="514.8" cy="430.0" r="2.2" fill="#58A6B8" stroke="#0d0d0d" stroke-width="1" filter="url(#glowSm)" opacity="0">
  <title>Jun 11
0 Contributions</title>
  <animate attributeName="opacity" from="0" to="1" dur="0.4s" begin="1.76s" fill="freeze"/>
  <animate attributeName="r" values="2.2;3.2;2.2" dur="4s" begin="2.16s" repeatCount="indefinite"/>
</circle>
<circle cx="541.4" cy="430.0" r="2.2" fill="#58A6B8" stroke="#0d0d0d" stroke-width="1" filter="url(#glowSm)" opacity="0">
  <title>Jun 12
0 Contributions</title>
  <animate attributeName="opacity" from="0" to="1" dur="0.4s" begin="1.82s" fill="freeze"/>
  <animate attributeName="r" values="2.2;3.2;2.2" dur="4s" begin="2.22s" repeatCount="indefinite"/>
</circle>
<circle cx="567.9" cy="430.0" r="2.2" fill="#58A6B8" stroke="#0d0d0d" stroke-width="1" filter="url(#glowSm)" opacity="0">
  <title>Jun 13
0 Contributions</title>
  <animate attributeName="opacity" from="0" to="1" dur="0.4s" begin="1.88s" fill="freeze"/>
  <animate attributeName="r" values="2.2;3.2;2.2" dur="4s" begin="2.28s" repeatCount="indefinite"/>
</circle>
<circle cx="594.5" cy="356.7" r="3.5" fill="#58A6B8" stroke="#0d0d0d" stroke-width="1" filter="url(#glowSm)" opacity="0">
  <title>Jun 14
5 Contributions</title>
  <animate attributeName="opacity" from="0" to="1" dur="0.4s" begin="1.94s" fill="freeze"/>
  <animate attributeName="r" values="3.5;4.5;3.5" dur="4s" begin="2.34s" repeatCount="indefinite"/>
</circle>
<circle cx="621.0" cy="327.3" r="4.0" fill="#58A6B8" stroke="#0d0d0d" stroke-width="1" filter="url(#glowSm)" opacity="0">
  <title>Jun 15
7 Contributions</title>
  <animate attributeName="opacity" from="0" to="1" dur="0.4s" begin="2.00s" fill="freeze"/>
  <animate attributeName="r" values="4.0;5.0;4.0" dur="4s" begin="2.40s" repeatCount="indefinite"/>
</circle>
<circle cx="647.6" cy="371.3" r="3.2" fill="#58A6B8" stroke="#0d0d0d" stroke-width="1" filter="url(#glowSm)" opacity="0">
  <title>Jun 16
4 Contributions</title>
  <animate attributeName="opacity" from="0" to="1" dur="0.4s" begin="2.06s" fill="freeze"/>
  <animate attributeName="r" values="3.2;4.2;3.2" dur="4s" begin="2.46s" repeatCount="indefinite"/>
</circle>
<circle cx="674.1" cy="283.3" r="4.7" fill="#58A6B8" stroke="#0d0d0d" stroke-width="1" filter="url(#glowSm)" opacity="0">
  <title>Jun 17
10 Contributions</title>
  <animate attributeName="opacity" from="0" to="1" dur="0.4s" begin="2.12s" fill="freeze"/>
  <animate attributeName="r" values="4.7;5.7;4.7" dur="4s" begin="2.52s" repeatCount="indefinite"/>
</circle>
<circle cx="700.7" cy="268.7" r="5.0" fill="#58A6B8" stroke="#0d0d0d" stroke-width="1" filter="url(#glowSm)" opacity="0">
  <title>Jun 18
11 Contributions</title>
  <animate attributeName="opacity" from="0" to="1" dur="0.4s" begin="2.18s" fill="freeze"/>
  <animate attributeName="r" values="5.0;6.0;5.0" dur="4s" begin="2.58s" repeatCount="indefinite"/>
</circle>
<circle cx="727.2" cy="224.7" r="18" fill="url(#haloGrad)" opacity="0">
  <animate attributeName="opacity" values="0;0.6;0.3;0.6" dur="4s" begin="2.24s" repeatCount="indefinite"/>
  <animate attributeName="r" values="14;22;14" dur="4s" begin="2.24s" repeatCount="indefinite"/>
</circle>
<circle cx="727.2" cy="224.7" r="7.2" fill="#e8f4f7" stroke="#0d0d0d" stroke-width="1" filter="url(#glowMd)" opacity="0">
  <title>Jun 19
14 Contributions</title>
  <animate attributeName="opacity" from="0" to="1" dur="0.4s" begin="2.24s" fill="freeze"/>
  <animate attributeName="r" values="7.2;9.2;7.2" dur="3s" begin="2.64s" repeatCount="indefinite"/>
</circle>
<circle cx="753.8" cy="371.3" r="3.2" fill="#58A6B8" stroke="#0d0d0d" stroke-width="1" filter="url(#glowSm)" opacity="0">
  <title>Jun 20
4 Contributions</title>
  <animate attributeName="opacity" from="0" to="1" dur="0.4s" begin="2.30s" fill="freeze"/>
  <animate attributeName="r" values="3.2;4.2;3.2" dur="4s" begin="2.70s" repeatCount="indefinite"/>
</circle>
<circle cx="780.3" cy="415.3" r="2.5" fill="#58A6B8" stroke="#0d0d0d" stroke-width="1" filter="url(#glowSm)" opacity="0">
  <title>Jun 21
1 Contribution</title>
  <animate attributeName="opacity" from="0" to="1" dur="0.4s" begin="2.36s" fill="freeze"/>
  <animate attributeName="r" values="2.5;3.5;2.5" dur="4s" begin="2.76s" repeatCount="indefinite"/>
</circle>
<circle cx="806.9" cy="400.7" r="2.7" fill="#58A6B8" stroke="#0d0d0d" stroke-width="1" filter="url(#glowSm)" opacity="0">
  <title>Jun 22
2 Contributions</title>
  <animate attributeName="opacity" from="0" to="1" dur="0.4s" begin="2.42s" fill="freeze"/>
  <animate attributeName="r" values="2.7;3.7;2.7" dur="4s" begin="2.82s" repeatCount="indefinite"/>
</circle>
<circle cx="833.4" cy="356.7" r="3.5" fill="#58A6B8" stroke="#0d0d0d" stroke-width="1" filter="url(#glowSm)" opacity="0">
  <title>Jun 23
5 Contributions</title>
  <animate attributeName="opacity" from="0" to="1" dur="0.4s" begin="2.48s" fill="freeze"/>
  <animate attributeName="r" values="3.5;4.5;3.5" dur="4s" begin="2.88s" repeatCount="indefinite"/>
</circle>
<circle cx="860.0" cy="415.3" r="2.5" fill="#58A6B8" stroke="#0d0d0d" stroke-width="1" filter="url(#glowSm)" opacity="0">
  <title>Jun 24
1 Contribution</title>
  <animate attributeName="opacity" from="0" to="1" dur="0.4s" begin="2.54s" fill="freeze"/>
  <animate attributeName="r" values="2.5;3.5;2.5" dur="4s" begin="2.94s" repeatCount="indefinite"/>
</circle>
<text x="90" y="466" text-anchor="start" font-family="Georgia,'Palatino Linotype',serif" font-size="10" fill="#5a7a80" letter-spacing="1.5">MAY</text>
<text x="860" y="466" text-anchor="end" font-family="Georgia,'Palatino Linotype',serif" font-size="10" fill="#5a7a80" letter-spacing="1.5">JUN</text>
<text x="450" y="522" text-anchor="middle" font-family="Georgia,'Palatino Linotype',serif" font-size="9" fill="#5a7a80" letter-spacing="4" opacity="0.5">LAST 30 DAYS OF DARK RITUALS</text>
</svg>