<svg xmlns="http://www.w3.org/2000/svg" viewBox="0 0 900 540" width="900" height="540">
<defs>
  <!-- Gradients -->
  <linearGradient id="areaFill" x1="0" y1="0" x2="0" y2="1">
    <stop offset="0%" stop-color="#58A6B8" stop-opacity="0.28"/>
    <stop offset="85%" stop-color="#58A6B8" stop-opacity="0.03"/>
    <stop offset="100%" stop-color="#58A6B8" stop-opacity="0"/>
  </linearGradient>
  <radialGradient id="haloGrad" cx="50%" cy="50%" r="50%">
    <stop offset="0%" stop-color="#58A6B8" stop-opacity="0.5"/>
    <stop offset="100%" stop-color="#58A6B8" stop-opacity="0"/>
  </radialGradient>
  <linearGradient id="frameFade" x1="0" y1="0" x2="1" y2="1">
    <stop offset="0%" stop-color="#58A6B8" stop-opacity="0.35"/>
    <stop offset="50%" stop-color="#58A6B8" stop-opacity="0.12"/>
    <stop offset="100%" stop-color="#58A6B8" stop-opacity="0.35"/>
  </linearGradient>
  <!-- Filters -->
  <filter id="glowSm" x="-50%" y="-50%" width="200%" height="200%">
    <feGaussianBlur stdDeviation="2.5" result="b"/><feMerge><feMergeNode in="b"/><feMergeNode in="SourceGraphic"/></feMerge>
  </filter>
  <filter id="glowMd" x="-50%" y="-50%" width="200%" height="200%">
    <feGaussianBlur stdDeviation="5" result="b"/><feMerge><feMergeNode in="b"/><feMergeNode in="SourceGraphic"/></feMerge>
  </filter>
  <filter id="glowLg" x="-80%" y="-80%" width="260%" height="260%">
    <feGaussianBlur stdDeviation="10" result="b"/><feMerge><feMergeNode in="b"/><feMergeNode in="SourceGraphic"/></feMerge>
  </filter>
  <filter id="cardShadow" x="-10%" y="-10%" width="120%" height="130%">
    <feGaussianBlur stdDeviation="6" result="b"/><feFlood flood-color="#58A6B8" flood-opacity="0.08" result="c"/>
    <feComposite in="c" in2="b" operator="in" result="s"/><feMerge><feMergeNode in="s"/><feMergeNode in="SourceGraphic"/></feMerge>
  </filter>
</defs>

<!-- Background -->
<rect width="900" height="540" fill="#0d0d0d" rx="16"/>
<line x1="90" y1="210.0" x2="860" y2="210.0" stroke="rgba(88,166,184,0.055)" stroke-width="0.7"/>
<line x1="90" y1="246.7" x2="860" y2="246.7" stroke="rgba(88,166,184,0.055)" stroke-width="0.7"/>
<line x1="90" y1="283.3" x2="860" y2="283.3" stroke="rgba(88,166,184,0.055)" stroke-width="0.7"/>
<line x1="90" y1="320.0" x2="860" y2="320.0" stroke="rgba(88,166,184,0.055)" stroke-width="0.7"/>
<line x1="90" y1="356.7" x2="860" y2="356.7" stroke="rgba(88,166,184,0.055)" stroke-width="0.7"/>
<line x1="90" y1="393.3" x2="860" y2="393.3" stroke="rgba(88,166,184,0.055)" stroke-width="0.7"/>
<line x1="90" y1="430.0" x2="860" y2="430.0" stroke="rgba(88,166,184,0.055)" stroke-width="0.7"/>
<line x1="90.0" y1="210" x2="90.0" y2="430" stroke="rgba(88,166,184,0.055)" stroke-width="0.5"/>
<line x1="222.8" y1="210" x2="222.8" y2="430" stroke="rgba(88,166,184,0.055)" stroke-width="0.5"/>
<line x1="355.5" y1="210" x2="355.5" y2="430" stroke="rgba(88,166,184,0.055)" stroke-width="0.5"/>
<line x1="488.3" y1="210" x2="488.3" y2="430" stroke="rgba(88,166,184,0.055)" stroke-width="0.5"/>
<line x1="621.0" y1="210" x2="621.0" y2="430" stroke="rgba(88,166,184,0.055)" stroke-width="0.5"/>
<line x1="753.8" y1="210" x2="753.8" y2="430" stroke="rgba(88,166,184,0.055)" stroke-width="0.5"/>
<circle cx="846.3" cy="408.3" r="1.3" fill="#58A6B8" opacity="0.060"><animate attributeName="opacity" values="0.060;0.132;0.060" dur="6.8s" begin="2.8s" repeatCount="indefinite"/></circle>
<circle cx="836.3" cy="484.7" r="1.0" fill="#58A6B8" opacity="0.061"><animate attributeName="opacity" values="0.061;0.134;0.061" dur="7.8s" begin="5.9s" repeatCount="indefinite"/></circle>
<circle cx="867.8" cy="422.9" r="0.4" fill="#58A6B8" opacity="0.160"><animate attributeName="opacity" values="0.160;0.352;0.160" dur="4.8s" begin="4.7s" repeatCount="indefinite"/></circle>
<circle cx="558.2" cy="179.7" r="1.4" fill="#58A6B8" opacity="0.146"><animate attributeName="opacity" values="0.146;0.321;0.146" dur="4.8s" begin="4.1s" repeatCount="indefinite"/></circle>
<circle cx="13.1" cy="191.2" r="0.7" fill="#58A6B8" opacity="0.090"><animate attributeName="opacity" values="0.090;0.198;0.090" dur="6.2s" begin="2.2s" repeatCount="indefinite"/></circle>
<circle cx="230.8" cy="234.6" r="0.7" fill="#58A6B8" opacity="0.102"><animate attributeName="opacity" values="0.102;0.224;0.102" dur="7.0s" begin="1.8s" repeatCount="indefinite"/></circle>
<circle cx="122.8" cy="240.6" r="0.6" fill="#58A6B8" opacity="0.157"><animate attributeName="opacity" values="0.157;0.345;0.157" dur="6.3s" begin="1.2s" repeatCount="indefinite"/></circle>
<circle cx="873.8" cy="451.7" r="0.6" fill="#58A6B8" opacity="0.130"><animate attributeName="opacity" values="0.130;0.286;0.130" dur="4.7s" begin="2.0s" repeatCount="indefinite"/></circle>
<circle cx="680.2" cy="373.7" r="0.9" fill="#58A6B8" opacity="0.048"><animate attributeName="opacity" values="0.048;0.106;0.048" dur="7.2s" begin="3.8s" repeatCount="indefinite"/></circle>
<circle cx="890.9" cy="233.2" r="1.2" fill="#58A6B8" opacity="0.160"><animate attributeName="opacity" values="0.160;0.352;0.160" dur="3.9s" begin="2.4s" repeatCount="indefinite"/></circle>
<circle cx="417.6" cy="94.4" r="1.2" fill="#58A6B8" opacity="0.086"><animate attributeName="opacity" values="0.086;0.189;0.086" dur="4.3s" begin="5.9s" repeatCount="indefinite"/></circle>
<circle cx="271.4" cy="486.9" r="0.8" fill="#58A6B8" opacity="0.064"><animate attributeName="opacity" values="0.064;0.141;0.064" dur="5.6s" begin="0.9s" repeatCount="indefinite"/></circle>
<circle cx="427.0" cy="33.8" r="1.3" fill="#58A6B8" opacity="0.076"><animate attributeName="opacity" values="0.076;0.167;0.076" dur="6.4s" begin="1.0s" repeatCount="indefinite"/></circle>
<circle cx="175.1" cy="80.8" r="1.4" fill="#58A6B8" opacity="0.052"><animate attributeName="opacity" values="0.052;0.114;0.052" dur="7.3s" begin="2.8s" repeatCount="indefinite"/></circle>
<circle cx="847.8" cy="16.3" r="1.0" fill="#58A6B8" opacity="0.057"><animate attributeName="opacity" values="0.057;0.125;0.057" dur="4.9s" begin="5.4s" repeatCount="indefinite"/></circle>
<circle cx="312.9" cy="478.8" r="1.0" fill="#58A6B8" opacity="0.070"><animate attributeName="opacity" values="0.070;0.154;0.070" dur="7.6s" begin="5.9s" repeatCount="indefinite"/></circle>
<circle cx="777.0" cy="48.5" r="1.2" fill="#58A6B8" opacity="0.095"><animate attributeName="opacity" values="0.095;0.209;0.095" dur="3.6s" begin="2.2s" repeatCount="indefinite"/></circle>
<circle cx="717.7" cy="96.0" r="1.3" fill="#58A6B8" opacity="0.055"><animate attributeName="opacity" values="0.055;0.121;0.055" dur="5.8s" begin="2.7s" repeatCount="indefinite"/></circle>
<circle cx="354.7" cy="357.6" r="0.5" fill="#58A6B8" opacity="0.043"><animate attributeName="opacity" values="0.043;0.095;0.043" dur="5.2s" begin="3.1s" repeatCount="indefinite"/></circle>
<circle cx="9.4" cy="418.6" r="0.9" fill="#58A6B8" opacity="0.156"><animate attributeName="opacity" values="0.156;0.343;0.156" dur="4.6s" begin="5.8s" repeatCount="indefinite"/></circle>
<circle cx="475.9" cy="92.9" r="0.9" fill="#58A6B8" opacity="0.121"><animate attributeName="opacity" values="0.121;0.266;0.121" dur="3.7s" begin="2.3s" repeatCount="indefinite"/></circle>
<circle cx="696.0" cy="311.5" r="0.7" fill="#58A6B8" opacity="0.089"><animate attributeName="opacity" values="0.089;0.196;0.089" dur="4.2s" begin="1.0s" repeatCount="indefinite"/></circle>
<circle cx="839.3" cy="285.1" r="1.1" fill="#58A6B8" opacity="0.101"><animate attributeName="opacity" values="0.101;0.222;0.101" dur="4.0s" begin="4.3s" repeatCount="indefinite"/></circle>
<circle cx="814.1" cy="226.9" r="1.1" fill="#58A6B8" opacity="0.158"><animate attributeName="opacity" values="0.158;0.348;0.158" dur="4.3s" begin="0.2s" repeatCount="indefinite"/></circle>
<circle cx="131.7" cy="109.0" r="1.3" fill="#58A6B8" opacity="0.156"><animate attributeName="opacity" values="0.156;0.343;0.156" dur="8.4s" begin="4.0s" repeatCount="indefinite"/></circle>
<circle cx="288.4" cy="94.8" r="1.4" fill="#58A6B8" opacity="0.063"><animate attributeName="opacity" values="0.063;0.139;0.063" dur="7.1s" begin="3.9s" repeatCount="indefinite"/></circle>
<circle cx="306.5" cy="531.8" r="0.6" fill="#58A6B8" opacity="0.126"><animate attributeName="opacity" values="0.126;0.277;0.126" dur="5.8s" begin="3.4s" repeatCount="indefinite"/></circle>
<circle cx="511.9" cy="70.7" r="0.5" fill="#58A6B8" opacity="0.085"><animate attributeName="opacity" values="0.085;0.187;0.085" dur="6.3s" begin="5.4s" repeatCount="indefinite"/></circle>
<circle cx="682.3" cy="403.4" r="0.5" fill="#58A6B8" opacity="0.053"><animate attributeName="opacity" values="0.053;0.117;0.053" dur="8.3s" begin="5.3s" repeatCount="indefinite"/></circle>
<circle cx="398.7" cy="387.8" r="1.4" fill="#58A6B8" opacity="0.107"><animate attributeName="opacity" values="0.107;0.235;0.107" dur="5.9s" begin="5.8s" repeatCount="indefinite"/></circle>
<circle cx="798.8" cy="342.0" r="1.4" fill="#58A6B8" opacity="0.107"><animate attributeName="opacity" values="0.107;0.235;0.107" dur="7.2s" begin="4.4s" repeatCount="indefinite"/></circle>
<circle cx="220.1" cy="173.3" r="0.6" fill="#58A6B8" opacity="0.082"><animate attributeName="opacity" values="0.082;0.180;0.082" dur="7.5s" begin="2.1s" repeatCount="indefinite"/></circle>
<circle cx="353.0" cy="334.3" r="1.2" fill="#58A6B8" opacity="0.043"><animate attributeName="opacity" values="0.043;0.095;0.043" dur="6.4s" begin="3.5s" repeatCount="indefinite"/></circle>
<circle cx="592.0" cy="179.9" r="0.9" fill="#58A6B8" opacity="0.099"><animate attributeName="opacity" values="0.099;0.218;0.099" dur="5.0s" begin="3.5s" repeatCount="indefinite"/></circle>
<circle cx="718.9" cy="196.0" r="0.6" fill="#58A6B8" opacity="0.129"><animate attributeName="opacity" values="0.129;0.284;0.129" dur="7.9s" begin="0.7s" repeatCount="indefinite"/></circle>
<circle cx="419.1" cy="194.2" r="0.4" fill="#58A6B8" opacity="0.078"><animate attributeName="opacity" values="0.078;0.172;0.078" dur="4.4s" begin="3.7s" repeatCount="indefinite"/></circle>
<circle cx="133.5" cy="188.7" r="0.8" fill="#58A6B8" opacity="0.068"><animate attributeName="opacity" values="0.068;0.150;0.068" dur="6.3s" begin="0.6s" repeatCount="indefinite"/></circle>
<circle cx="588.3" cy="244.1" r="0.6" fill="#58A6B8" opacity="0.047"><animate attributeName="opacity" values="0.047;0.103;0.047" dur="4.1s" begin="6.0s" repeatCount="indefinite"/></circle>
<circle cx="657.7" cy="82.6" r="0.6" fill="#58A6B8" opacity="0.147"><animate attributeName="opacity" values="0.147;0.323;0.147" dur="7.8s" begin="5.2s" repeatCount="indefinite"/></circle>
<circle cx="650.4" cy="73.6" r="0.3" fill="#58A6B8" opacity="0.092"><animate attributeName="opacity" values="0.092;0.202;0.092" dur="7.0s" begin="0.6s" repeatCount="indefinite"/></circle>
<circle cx="442.2" cy="440.8" r="1.2" fill="#58A6B8" opacity="0.129"><animate attributeName="opacity" values="0.129;0.284;0.129" dur="7.5s" begin="5.4s" repeatCount="indefinite"/></circle>
<circle cx="488.5" cy="501.0" r="1.1" fill="#58A6B8" opacity="0.102"><animate attributeName="opacity" values="0.102;0.224;0.102" dur="6.2s" begin="4.7s" repeatCount="indefinite"/></circle>
<circle cx="446.9" cy="212.0" r="0.6" fill="#58A6B8" opacity="0.150"><animate attributeName="opacity" values="0.150;0.330;0.150" dur="7.9s" begin="4.7s" repeatCount="indefinite"/></circle>
<circle cx="748.4" cy="225.2" r="1.1" fill="#58A6B8" opacity="0.066"><animate attributeName="opacity" values="0.066;0.145;0.066" dur="6.6s" begin="2.3s" repeatCount="indefinite"/></circle>
<circle cx="751.2" cy="125.6" r="1.4" fill="#58A6B8" opacity="0.040"><animate attributeName="opacity" values="0.040;0.088;0.040" dur="6.4s" begin="2.0s" repeatCount="indefinite"/></circle>
<circle cx="253.9" cy="452.1" r="0.6" fill="#58A6B8" opacity="0.127"><animate attributeName="opacity" values="0.127;0.279;0.127" dur="4.7s" begin="2.5s" repeatCount="indefinite"/></circle>
<circle cx="244.0" cy="52.9" r="1.3" fill="#58A6B8" opacity="0.081"><animate attributeName="opacity" values="0.081;0.178;0.081" dur="4.8s" begin="1.4s" repeatCount="indefinite"/></circle>
<circle cx="473.1" cy="361.9" r="1.1" fill="#58A6B8" opacity="0.064"><animate attributeName="opacity" values="0.064;0.141;0.064" dur="7.7s" begin="4.6s" repeatCount="indefinite"/></circle>
<circle cx="528.5" cy="173.2" r="0.8" fill="#58A6B8" opacity="0.081"><animate attributeName="opacity" values="0.081;0.178;0.081" dur="3.7s" begin="3.9s" repeatCount="indefinite"/></circle>
<circle cx="385.5" cy="282.9" r="0.6" fill="#58A6B8" opacity="0.115"><animate attributeName="opacity" values="0.115;0.253;0.115" dur="3.8s" begin="0.4s" repeatCount="indefinite"/></circle>
<circle cx="79.5" cy="209.1" r="0.7" fill="#58A6B8" opacity="0.054"><animate attributeName="opacity" values="0.054;0.119;0.054" dur="7.1s" begin="4.7s" repeatCount="indefinite"/></circle>
<circle cx="332.8" cy="197.9" r="0.4" fill="#58A6B8" opacity="0.098"><animate attributeName="opacity" values="0.098;0.216;0.098" dur="7.2s" begin="0.7s" repeatCount="indefinite"/></circle>
<circle cx="423.0" cy="369.5" r="0.9" fill="#58A6B8" opacity="0.131"><animate attributeName="opacity" values="0.131;0.288;0.131" dur="7.2s" begin="2.4s" repeatCount="indefinite"/></circle>
<circle cx="758.4" cy="131.8" r="0.9" fill="#58A6B8" opacity="0.113"><animate attributeName="opacity" values="0.113;0.249;0.113" dur="8.3s" begin="2.4s" repeatCount="indefinite"/></circle>
<circle cx="310.2" cy="232.4" r="1.3" fill="#58A6B8" opacity="0.128"><animate attributeName="opacity" values="0.128;0.282;0.128" dur="6.2s" begin="1.4s" repeatCount="indefinite"/></circle>
<g transform="translate(256.5,167.2) rotate(45)" opacity="0.056"><rect x="-1.7" y="-1.7" width="3.4" height="3.4" fill="#58A6B8"/><animate attributeName="opacity" values="0.056;0.140;0.056" dur="8.6s" begin="3.3s" repeatCount="indefinite"/></g>
<g transform="translate(785.3,278.5) rotate(45)" opacity="0.087"><rect x="-2.2" y="-2.2" width="4.5" height="4.5" fill="#58A6B8"/><animate attributeName="opacity" values="0.087;0.217;0.087" dur="9.5s" begin="4.5s" repeatCount="indefinite"/></g>
<g transform="translate(63.2,48.3) rotate(45)" opacity="0.099"><rect x="-1.4" y="-1.4" width="2.9" height="2.9" fill="#58A6B8"/><animate attributeName="opacity" values="0.099;0.247;0.099" dur="8.9s" begin="1.9s" repeatCount="indefinite"/></g>
<g transform="translate(791.6,180.1) rotate(45)" opacity="0.075"><rect x="-2.2" y="-2.2" width="4.5" height="4.5" fill="#58A6B8"/><animate attributeName="opacity" values="0.075;0.188;0.075" dur="6.8s" begin="1.4s" repeatCount="indefinite"/></g>
<g transform="translate(555.5,441.8) rotate(45)" opacity="0.086"><rect x="-1.5" y="-1.5" width="2.9" height="2.9" fill="#58A6B8"/><animate attributeName="opacity" values="0.086;0.215;0.086" dur="9.6s" begin="1.5s" repeatCount="indefinite"/></g>
<g transform="translate(603.4,197.4) rotate(45)" opacity="0.098"><rect x="-1.6" y="-1.6" width="3.1" height="3.1" fill="#58A6B8"/><animate attributeName="opacity" values="0.098;0.245;0.098" dur="8.8s" begin="3.0s" repeatCount="indefinite"/></g>
<g transform="translate(450.9,311.2) rotate(45)" opacity="0.067"><rect x="-1.5" y="-1.5" width="3.0" height="3.0" fill="#58A6B8"/><animate attributeName="opacity" values="0.067;0.168;0.067" dur="6.8s" begin="1.7s" repeatCount="indefinite"/></g>
<g transform="translate(460.0,297.2) rotate(45)" opacity="0.092"><rect x="-1.7" y="-1.7" width="3.4" height="3.4" fill="#58A6B8"/><animate attributeName="opacity" values="0.092;0.230;0.092" dur="8.8s" begin="3.6s" repeatCount="indefinite"/></g>
<g transform="translate(18,18) scale(1,1)"><path d="M0 25 L0 6 Q0 0 6 0 L25 0" fill="none" stroke="#58A6B8" stroke-width="1.3" opacity="0.35"/><circle cx="0" cy="0" r="1.8" fill="#58A6B8" opacity="0.4"/><path d="M0 12 L5 12" fill="none" stroke="#58A6B8" stroke-width="0.6" opacity="0.2"/><path d="M12 0 L12 5" fill="none" stroke="#58A6B8" stroke-width="0.6" opacity="0.2"/></g><g transform="translate(882,18) scale(-1,1)"><path d="M0 25 L0 6 Q0 0 6 0 L25 0" fill="none" stroke="#58A6B8" stroke-width="1.3" opacity="0.35"/><circle cx="0" cy="0" r="1.8" fill="#58A6B8" opacity="0.4"/><path d="M0 12 L5 12" fill="none" stroke="#58A6B8" stroke-width="0.6" opacity="0.2"/><path d="M12 0 L12 5" fill="none" stroke="#58A6B8" stroke-width="0.6" opacity="0.2"/></g><g transform="translate(18,522) scale(1,-1)"><path d="M0 25 L0 6 Q0 0 6 0 L25 0" fill="none" stroke="#58A6B8" stroke-width="1.3" opacity="0.35"/><circle cx="0" cy="0" r="1.8" fill="#58A6B8" opacity="0.4"/><path d="M0 12 L5 12" fill="none" stroke="#58A6B8" stroke-width="0.6" opacity="0.2"/><path d="M12 0 L12 5" fill="none" stroke="#58A6B8" stroke-width="0.6" opacity="0.2"/></g><g transform="translate(882,522) scale(-1,-1)"><path d="M0 25 L0 6 Q0 0 6 0 L25 0" fill="none" stroke="#58A6B8" stroke-width="1.3" opacity="0.35"/><circle cx="0" cy="0" r="1.8" fill="#58A6B8" opacity="0.4"/><path d="M0 12 L5 12" fill="none" stroke="#58A6B8" stroke-width="0.6" opacity="0.2"/><path d="M12 0 L12 5" fill="none" stroke="#58A6B8" stroke-width="0.6" opacity="0.2"/></g>
<rect x="10" y="10" width="880" height="520" rx="12" fill="none" stroke="url(#frameFade)" stroke-width="1"/>
<text x="450" y="50" text-anchor="middle" font-family="Georgia,'Palatino Linotype','Book Antiqua',Palatino,serif" font-size="22" font-weight="bold" fill="#e8f4f7" letter-spacing="8" filter="url(#glowMd)">✧ THE COMMIT COVEN ✧</text>
<line x1="310" y1="62" x2="590" y2="62" stroke="#58A6B8" stroke-width="0.5" opacity="0.25"/>
<g filter="url(#cardShadow)"><rect x="70" y="80" width="240" height="78" rx="10" fill="rgba(88,166,184,0.05)" stroke="rgba(88,166,184,0.22)" stroke-width="0.8"/><text x="190" y="110" text-anchor="middle" font-family="Georgia,'Palatino Linotype',serif" font-size="11" fill="#5a7a80" letter-spacing="3" text-transform="uppercase">LONGEST STREAK</text><text x="190" y="136" text-anchor="middle" font-family="Georgia,'Palatino Linotype',serif" font-size="20" fill="#e8f4f7" font-weight="bold" filter="url(#glowSm)">12 Nights</text></g>
<g filter="url(#cardShadow)"><rect x="330" y="80" width="240" height="78" rx="10" fill="rgba(88,166,184,0.05)" stroke="rgba(88,166,184,0.22)" stroke-width="0.8"/><text x="450" y="110" text-anchor="middle" font-family="Georgia,'Palatino Linotype',serif" font-size="11" fill="#5a7a80" letter-spacing="3" text-transform="uppercase">CURRENT RITUAL</text><text x="450" y="136" text-anchor="middle" font-family="Georgia,'Palatino Linotype',serif" font-size="20" fill="#e8f4f7" font-weight="bold" filter="url(#glowSm)">6 Nights</text></g>
<g filter="url(#cardShadow)"><rect x="590" y="80" width="240" height="78" rx="10" fill="rgba(88,166,184,0.05)" stroke="rgba(88,166,184,0.22)" stroke-width="0.8"/><text x="710" y="110" text-anchor="middle" font-family="Georgia,'Palatino Linotype',serif" font-size="11" fill="#5a7a80" letter-spacing="3" text-transform="uppercase">TOTAL OFFERINGS</text><text x="710" y="136" text-anchor="middle" font-family="Georgia,'Palatino Linotype',serif" font-size="20" fill="#e8f4f7" font-weight="bold" filter="url(#glowSm)">209</text></g>
<text x="80" y="434.0" text-anchor="end" font-family="'Courier New',monospace" font-size="10" fill="#5a7a80">0</text>
<line x1="86" y1="430.0" x2="90" y2="430.0" stroke="#5a7a80" stroke-width="0.5"/>
<text x="80" y="390.0" text-anchor="end" font-family="'Courier New',monospace" font-size="10" fill="#5a7a80">2</text>
<line x1="86" y1="386.0" x2="90" y2="386.0" stroke="#5a7a80" stroke-width="0.5"/>
<text x="80" y="346.0" text-anchor="end" font-family="'Courier New',monospace" font-size="10" fill="#5a7a80">4</text>
<line x1="86" y1="342.0" x2="90" y2="342.0" stroke="#5a7a80" stroke-width="0.5"/>
<text x="80" y="302.0" text-anchor="end" font-family="'Courier New',monospace" font-size="10" fill="#5a7a80">6</text>
<line x1="86" y1="298.0" x2="90" y2="298.0" stroke="#5a7a80" stroke-width="0.5"/>
<text x="80" y="258.0" text-anchor="end" font-family="'Courier New',monospace" font-size="10" fill="#5a7a80">8</text>
<line x1="86" y1="254.0" x2="90" y2="254.0" stroke="#5a7a80" stroke-width="0.5"/>
<text x="80" y="214.0" text-anchor="end" font-family="'Courier New',monospace" font-size="10" fill="#5a7a80">10</text>
<line x1="86" y1="210.0" x2="90" y2="210.0" stroke="#5a7a80" stroke-width="0.5"/>
<text x="90.0" y="450" text-anchor="middle" font-family="'Courier New',monospace" font-size="10" fill="#5a7a80">22</text>
<text x="196.2" y="450" text-anchor="middle" font-family="'Courier New',monospace" font-size="10" fill="#5a7a80">26</text>
<text x="302.4" y="450" text-anchor="middle" font-family="'Courier New',monospace" font-size="10" fill="#5a7a80">30</text>
<text x="408.6" y="450" text-anchor="middle" font-family="'Courier New',monospace" font-size="10" fill="#5a7a80">4</text>
<text x="514.8" y="450" text-anchor="middle" font-family="'Courier New',monospace" font-size="10" fill="#5a7a80">8</text>
<text x="621.0" y="450" text-anchor="middle" font-family="'Courier New',monospace" font-size="10" fill="#5a7a80">12</text>
<text x="727.2" y="450" text-anchor="middle" font-family="'Courier New',monospace" font-size="10" fill="#5a7a80">16</text>
<text x="833.4" y="450" text-anchor="middle" font-family="'Courier New',monospace" font-size="10" fill="#5a7a80">20</text>
<text x="860.0" y="450" text-anchor="middle" font-family="'Courier New',monospace" font-size="10" fill="#5a7a80">21</text>
<line x1="90" y1="210" x2="90" y2="430" stroke="#58A6B8" stroke-width="0.5" opacity="0.2"/>
<line x1="90" y1="430" x2="860" y2="430" stroke="#58A6B8" stroke-width="0.5" opacity="0.2"/>
<path d="M90.0 386.0 C93.5 377.2,109.5 322.9,116.6 320.0 C123.6 317.1,136.0 352.3,143.1 364.0 C150.2 375.7,162.6 399.2,169.7 408.0 C176.7 416.8,189.1 427.1,196.2 430.0 C203.3 432.9,215.7 430.0,222.8 430.0 C229.8 430.0,242.2 430.0,249.3 430.0 C256.4 430.0,268.8 444.7,275.9 430.0 C282.9 415.3,295.3 337.6,302.4 320.0 C309.5 302.4,321.9 309.7,329.0 298.0 C336.0 286.3,348.4 217.3,355.5 232.0 C362.6 246.7,375.0 381.6,382.1 408.0 C389.1 434.4,401.5 430.0,408.6 430.0 C415.7 430.0,428.1 408.0,435.2 408.0 C442.3 408.0,454.6 435.9,461.7 430.0 C468.8 424.1,481.2 366.9,488.3 364.0 C495.4 361.1,507.7 399.2,514.8 408.0 C521.9 416.8,534.3 427.1,541.4 430.0 C548.5 432.9,560.9 430.0,567.9 430.0 C575.0 430.0,587.4 430.0,594.5 430.0 C601.6 430.0,614.0 432.9,621.0 430.0 C628.1 427.1,640.5 408.0,647.6 408.0 C654.7 408.0,667.1 430.0,674.1 430.0 C681.2 430.0,693.6 413.9,700.7 408.0 C707.8 402.1,720.2 391.9,727.2 386.0 C734.3 380.1,746.7 369.9,753.8 364.0 C760.9 358.1,773.3 339.1,780.3 342.0 C787.4 344.9,799.8 383.1,806.9 386.0 C814.0 388.9,826.4 358.1,833.4 364.0 C840.5 369.9,856.5 421.2,860.0 430.0 L860.0 430 L90.0 430 Z" fill="url(#areaFill)" opacity="0.9">
  <animate attributeName="opacity" values="0;0.9" dur="2s" fill="freeze"/>
</path>
<path d="M90.0 386.0 C93.5 377.2,109.5 322.9,116.6 320.0 C123.6 317.1,136.0 352.3,143.1 364.0 C150.2 375.7,162.6 399.2,169.7 408.0 C176.7 416.8,189.1 427.1,196.2 430.0 C203.3 432.9,215.7 430.0,222.8 430.0 C229.8 430.0,242.2 430.0,249.3 430.0 C256.4 430.0,268.8 444.7,275.9 430.0 C282.9 415.3,295.3 337.6,302.4 320.0 C309.5 302.4,321.9 309.7,329.0 298.0 C336.0 286.3,348.4 217.3,355.5 232.0 C362.6 246.7,375.0 381.6,382.1 408.0 C389.1 434.4,401.5 430.0,408.6 430.0 C415.7 430.0,428.1 408.0,435.2 408.0 C442.3 408.0,454.6 435.9,461.7 430.0 C468.8 424.1,481.2 366.9,488.3 364.0 C495.4 361.1,507.7 399.2,514.8 408.0 C521.9 416.8,534.3 427.1,541.4 430.0 C548.5 432.9,560.9 430.0,567.9 430.0 C575.0 430.0,587.4 430.0,594.5 430.0 C601.6 430.0,614.0 432.9,621.0 430.0 C628.1 427.1,640.5 408.0,647.6 408.0 C654.7 408.0,667.1 430.0,674.1 430.0 C681.2 430.0,693.6 413.9,700.7 408.0 C707.8 402.1,720.2 391.9,727.2 386.0 C734.3 380.1,746.7 369.9,753.8 364.0 C760.9 358.1,773.3 339.1,780.3 342.0 C787.4 344.9,799.8 383.1,806.9 386.0 C814.0 388.9,826.4 358.1,833.4 364.0 C840.5 369.9,856.5 421.2,860.0 430.0" fill="none" stroke="#58A6B8" stroke-width="4" opacity="0.15" filter="url(#glowLg)" stroke-linecap="round" stroke-linejoin="round"/>
<path d="M90.0 386.0 C93.5 377.2,109.5 322.9,116.6 320.0 C123.6 317.1,136.0 352.3,143.1 364.0 C150.2 375.7,162.6 399.2,169.7 408.0 C176.7 416.8,189.1 427.1,196.2 430.0 C203.3 432.9,215.7 430.0,222.8 430.0 C229.8 430.0,242.2 430.0,249.3 430.0 C256.4 430.0,268.8 444.7,275.9 430.0 C282.9 415.3,295.3 337.6,302.4 320.0 C309.5 302.4,321.9 309.7,329.0 298.0 C336.0 286.3,348.4 217.3,355.5 232.0 C362.6 246.7,375.0 381.6,382.1 408.0 C389.1 434.4,401.5 430.0,408.6 430.0 C415.7 430.0,428.1 408.0,435.2 408.0 C442.3 408.0,454.6 435.9,461.7 430.0 C468.8 424.1,481.2 366.9,488.3 364.0 C495.4 361.1,507.7 399.2,514.8 408.0 C521.9 416.8,534.3 427.1,541.4 430.0 C548.5 432.9,560.9 430.0,567.9 430.0 C575.0 430.0,587.4 430.0,594.5 430.0 C601.6 430.0,614.0 432.9,621.0 430.0 C628.1 427.1,640.5 408.0,647.6 408.0 C654.7 408.0,667.1 430.0,674.1 430.0 C681.2 430.0,693.6 413.9,700.7 408.0 C707.8 402.1,720.2 391.9,727.2 386.0 C734.3 380.1,746.7 369.9,753.8 364.0 C760.9 358.1,773.3 339.1,780.3 342.0 C787.4 344.9,799.8 383.1,806.9 386.0 C814.0 388.9,826.4 358.1,833.4 364.0 C840.5 369.9,856.5 421.2,860.0 430.0" fill="none" stroke="#58A6B8" stroke-width="2.2" stroke-linecap="round" stroke-linejoin="round" filter="url(#glowSm)" stroke-dasharray="1806" stroke-dashoffset="1806">
  <animate attributeName="stroke-dashoffset" from="1806" to="0" dur="2.5s" fill="freeze" calcMode="spline" keySplines="0.4 0 0.2 1"/>
  <animate attributeName="opacity" values="0.7;1;0.85;1" dur="6s" begin="2.5s" repeatCount="indefinite"/>
</path>
<circle cx="90.0" cy="386.0" r="3.0" fill="#58A6B8" stroke="#0d0d0d" stroke-width="1" filter="url(#glowSm)" opacity="0">
  <title>Jun 22
2 Contributions</title>
  <animate attributeName="opacity" from="0" to="1" dur="0.4s" begin="0.80s" fill="freeze"/>
  <animate attributeName="r" values="3.0;4.0;3.0" dur="4s" begin="1.20s" repeatCount="indefinite"/>
</circle>
<circle cx="116.6" cy="320.0" r="4.1" fill="#58A6B8" stroke="#0d0d0d" stroke-width="1" filter="url(#glowSm)" opacity="0">
  <title>Jun 23
5 Contributions</title>
  <animate attributeName="opacity" from="0" to="1" dur="0.4s" begin="0.86s" fill="freeze"/>
  <animate attributeName="r" values="4.1;5.1;4.1" dur="4s" begin="1.26s" repeatCount="indefinite"/>
</circle>
<circle cx="143.1" cy="364.0" r="3.4" fill="#58A6B8" stroke="#0d0d0d" stroke-width="1" filter="url(#glowSm)" opacity="0">
  <title>Jun 24
3 Contributions</title>
  <animate attributeName="opacity" from="0" to="1" dur="0.4s" begin="0.92s" fill="freeze"/>
  <animate attributeName="r" values="3.4;4.4;3.4" dur="4s" begin="1.32s" repeatCount="indefinite"/>
</circle>
<circle cx="169.7" cy="408.0" r="2.6" fill="#58A6B8" stroke="#0d0d0d" stroke-width="1" filter="url(#glowSm)" opacity="0">
  <title>Jun 25
1 Contribution</title>
  <animate attributeName="opacity" from="0" to="1" dur="0.4s" begin="0.98s" fill="freeze"/>
  <animate attributeName="r" values="2.6;3.6;2.6" dur="4s" begin="1.38s" repeatCount="indefinite"/>
</circle>
<circle cx="196.2" cy="430.0" r="2.2" fill="#58A6B8" stroke="#0d0d0d" stroke-width="1" filter="url(#glowSm)" opacity="0">
  <title>Jun 26
0 Contributions</title>
  <animate attributeName="opacity" from="0" to="1" dur="0.4s" begin="1.04s" fill="freeze"/>
  <animate attributeName="r" values="2.2;3.2;2.2" dur="4s" begin="1.44s" repeatCount="indefinite"/>
</circle>
<circle cx="222.8" cy="430.0" r="2.2" fill="#58A6B8" stroke="#0d0d0d" stroke-width="1" filter="url(#glowSm)" opacity="0">
  <title>Jun 27
0 Contributions</title>
  <animate attributeName="opacity" from="0" to="1" dur="0.4s" begin="1.10s" fill="freeze"/>
  <animate attributeName="r" values="2.2;3.2;2.2" dur="4s" begin="1.50s" repeatCount="indefinite"/>
</circle>
<circle cx="249.3" cy="430.0" r="2.2" fill="#58A6B8" stroke="#0d0d0d" stroke-width="1" filter="url(#glowSm)" opacity="0">
  <title>Jun 28
0 Contributions</title>
  <animate attributeName="opacity" from="0" to="1" dur="0.4s" begin="1.16s" fill="freeze"/>
  <animate attributeName="r" values="2.2;3.2;2.2" dur="4s" begin="1.56s" repeatCount="indefinite"/>
</circle>
<circle cx="275.9" cy="430.0" r="2.2" fill="#58A6B8" stroke="#0d0d0d" stroke-width="1" filter="url(#glowSm)" opacity="0">
  <title>Jun 29
0 Contributions</title>
  <animate attributeName="opacity" from="0" to="1" dur="0.4s" begin="1.22s" fill="freeze"/>
  <animate attributeName="r" values="2.2;3.2;2.2" dur="4s" begin="1.62s" repeatCount="indefinite"/>
</circle>
<circle cx="302.4" cy="320.0" r="4.1" fill="#58A6B8" stroke="#0d0d0d" stroke-width="1" filter="url(#glowSm)" opacity="0">
  <title>Jun 30
5 Contributions</title>
  <animate attributeName="opacity" from="0" to="1" dur="0.4s" begin="1.28s" fill="freeze"/>
  <animate attributeName="r" values="4.1;5.1;4.1" dur="4s" begin="1.68s" repeatCount="indefinite"/>
</circle>
<circle cx="329.0" cy="298.0" r="4.5" fill="#58A6B8" stroke="#0d0d0d" stroke-width="1" filter="url(#glowSm)" opacity="0">
  <title>Jul 1
6 Contributions</title>
  <animate attributeName="opacity" from="0" to="1" dur="0.4s" begin="1.34s" fill="freeze"/>
  <animate attributeName="r" values="4.5;5.5;4.5" dur="4s" begin="1.74s" repeatCount="indefinite"/>
</circle>
<circle cx="355.5" cy="232.0" r="18" fill="url(#haloGrad)" opacity="0">
  <animate attributeName="opacity" values="0;0.6;0.3;0.6" dur="4s" begin="1.40s" repeatCount="indefinite"/>
  <animate attributeName="r" values="14;22;14" dur="4s" begin="1.40s" repeatCount="indefinite"/>
</circle>
<circle cx="355.5" cy="232.0" r="7.2" fill="#e8f4f7" stroke="#0d0d0d" stroke-width="1" filter="url(#glowMd)" opacity="0">
  <title>Jul 2
9 Contributions</title>
  <animate attributeName="opacity" from="0" to="1" dur="0.4s" begin="1.40s" fill="freeze"/>
  <animate attributeName="r" values="7.2;9.2;7.2" dur="3s" begin="1.80s" repeatCount="indefinite"/>
</circle>
<circle cx="382.1" cy="408.0" r="2.6" fill="#58A6B8" stroke="#0d0d0d" stroke-width="1" filter="url(#glowSm)" opacity="0">
  <title>Jul 3
1 Contribution</title>
  <animate attributeName="opacity" from="0" to="1" dur="0.4s" begin="1.46s" fill="freeze"/>
  <animate attributeName="r" values="2.6;3.6;2.6" dur="4s" begin="1.86s" repeatCount="indefinite"/>
</circle>
<circle cx="408.6" cy="430.0" r="2.2" fill="#58A6B8" stroke="#0d0d0d" stroke-width="1" filter="url(#glowSm)" opacity="0">
  <title>Jul 4
0 Contributions</title>
  <animate attributeName="opacity" from="0" to="1" dur="0.4s" begin="1.52s" fill="freeze"/>
  <animate attributeName="r" values="2.2;3.2;2.2" dur="4s" begin="1.92s" repeatCount="indefinite"/>
</circle>
<circle cx="435.2" cy="408.0" r="2.6" fill="#58A6B8" stroke="#0d0d0d" stroke-width="1" filter="url(#glowSm)" opacity="0">
  <title>Jul 5
1 Contribution</title>
  <animate attributeName="opacity" from="0" to="1" dur="0.4s" begin="1.58s" fill="freeze"/>
  <animate attributeName="r" values="2.6;3.6;2.6" dur="4s" begin="1.98s" repeatCount="indefinite"/>
</circle>
<circle cx="461.7" cy="430.0" r="2.2" fill="#58A6B8" stroke="#0d0d0d" stroke-width="1" filter="url(#glowSm)" opacity="0">
  <title>Jul 6
0 Contributions</title>
  <animate attributeName="opacity" from="0" to="1" dur="0.4s" begin="1.64s" fill="freeze"/>
  <animate attributeName="r" values="2.2;3.2;2.2" dur="4s" begin="2.04s" repeatCount="indefinite"/>
</circle>
<circle cx="488.3" cy="364.0" r="3.4" fill="#58A6B8" stroke="#0d0d0d" stroke-width="1" filter="url(#glowSm)" opacity="0">
  <title>Jul 7
3 Contributions</title>
  <animate attributeName="opacity" from="0" to="1" dur="0.4s" begin="1.70s" fill="freeze"/>
  <animate attributeName="r" values="3.4;4.4;3.4" dur="4s" begin="2.10s" repeatCount="indefinite"/>
</circle>
<circle cx="514.8" cy="408.0" r="2.6" fill="#58A6B8" stroke="#0d0d0d" stroke-width="1" filter="url(#glowSm)" opacity="0">
  <title>Jul 8
1 Contribution</title>
  <animate attributeName="opacity" from="0" to="1" dur="0.4s" begin="1.76s" fill="freeze"/>
  <animate attributeName="r" values="2.6;3.6;2.6" dur="4s" begin="2.16s" repeatCount="indefinite"/>
</circle>
<circle cx="541.4" cy="430.0" r="2.2" fill="#58A6B8" stroke="#0d0d0d" stroke-width="1" filter="url(#glowSm)" opacity="0">
  <title>Jul 9
0 Contributions</title>
  <animate attributeName="opacity" from="0" to="1" dur="0.4s" begin="1.82s" fill="freeze"/>
  <animate attributeName="r" values="2.2;3.2;2.2" dur="4s" begin="2.22s" repeatCount="indefinite"/>
</circle>
<circle cx="567.9" cy="430.0" r="2.2" fill="#58A6B8" stroke="#0d0d0d" stroke-width="1" filter="url(#glowSm)" opacity="0">
  <title>Jul 10
0 Contributions</title>
  <animate attributeName="opacity" from="0" to="1" dur="0.4s" begin="1.88s" fill="freeze"/>
  <animate attributeName="r" values="2.2;3.2;2.2" dur="4s" begin="2.28s" repeatCount="indefinite"/>
</circle>
<circle cx="594.5" cy="430.0" r="2.2" fill="#58A6B8" stroke="#0d0d0d" stroke-width="1" filter="url(#glowSm)" opacity="0">
  <title>Jul 11
0 Contributions</title>
  <animate attributeName="opacity" from="0" to="1" dur="0.4s" begin="1.94s" fill="freeze"/>
  <animate attributeName="r" values="2.2;3.2;2.2" dur="4s" begin="2.34s" repeatCount="indefinite"/>
</circle>
<circle cx="621.0" cy="430.0" r="2.2" fill="#58A6B8" stroke="#0d0d0d" stroke-width="1" filter="url(#glowSm)" opacity="0">
  <title>Jul 12
0 Contributions</title>
  <animate attributeName="opacity" from="0" to="1" dur="0.4s" begin="2.00s" fill="freeze"/>
  <animate attributeName="r" values="2.2;3.2;2.2" dur="4s" begin="2.40s" repeatCount="indefinite"/>
</circle>
<circle cx="647.6" cy="408.0" r="2.6" fill="#58A6B8" stroke="#0d0d0d" stroke-width="1" filter="url(#glowSm)" opacity="0">
  <title>Jul 13
1 Contribution</title>
  <animate attributeName="opacity" from="0" to="1" dur="0.4s" begin="2.06s" fill="freeze"/>
  <animate attributeName="r" values="2.6;3.6;2.6" dur="4s" begin="2.46s" repeatCount="indefinite"/>
</circle>
<circle cx="674.1" cy="430.0" r="2.2" fill="#58A6B8" stroke="#0d0d0d" stroke-width="1" filter="url(#glowSm)" opacity="0">
  <title>Jul 14
0 Contributions</title>
  <animate attributeName="opacity" from="0" to="1" dur="0.4s" begin="2.12s" fill="freeze"/>
  <animate attributeName="r" values="2.2;3.2;2.2" dur="4s" begin="2.52s" repeatCount="indefinite"/>
</circle>
<circle cx="700.7" cy="408.0" r="2.6" fill="#58A6B8" stroke="#0d0d0d" stroke-width="1" filter="url(#glowSm)" opacity="0">
  <title>Jul 15
1 Contribution</title>
  <animate attributeName="opacity" from="0" to="1" dur="0.4s" begin="2.18s" fill="freeze"/>
  <animate attributeName="r" values="2.6;3.6;2.6" dur="4s" begin="2.58s" repeatCount="indefinite"/>
</circle>
<circle cx="727.2" cy="386.0" r="3.0" fill="#58A6B8" stroke="#0d0d0d" stroke-width="1" filter="url(#glowSm)" opacity="0">
  <title>Jul 16
2 Contributions</title>
  <animate attributeName="opacity" from="0" to="1" dur="0.4s" begin="2.24s" fill="freeze"/>
  <animate attributeName="r" values="3.0;4.0;3.0" dur="4s" begin="2.64s" repeatCount="indefinite"/>
</circle>
<circle cx="753.8" cy="364.0" r="3.4" fill="#58A6B8" stroke="#0d0d0d" stroke-width="1" filter="url(#glowSm)" opacity="0">
  <title>Jul 17
3 Contributions</title>
  <animate attributeName="opacity" from="0" to="1" dur="0.4s" begin="2.30s" fill="freeze"/>
  <animate attributeName="r" values="3.4;4.4;3.4" dur="4s" begin="2.70s" repeatCount="indefinite"/>
</circle>
<circle cx="780.3" cy="342.0" r="3.8" fill="#58A6B8" stroke="#0d0d0d" stroke-width="1" filter="url(#glowSm)" opacity="0">
  <title>Jul 18
4 Contributions</title>
  <animate attributeName="opacity" from="0" to="1" dur="0.4s" begin="2.36s" fill="freeze"/>
  <animate attributeName="r" values="3.8;4.8;3.8" dur="4s" begin="2.76s" repeatCount="indefinite"/>
</circle>
<circle cx="806.9" cy="386.0" r="3.0" fill="#58A6B8" stroke="#0d0d0d" stroke-width="1" filter="url(#glowSm)" opacity="0">
  <title>Jul 19
2 Contributions</title>
  <animate attributeName="opacity" from="0" to="1" dur="0.4s" begin="2.42s" fill="freeze"/>
  <animate attributeName="r" values="3.0;4.0;3.0" dur="4s" begin="2.82s" repeatCount="indefinite"/>
</circle>
<circle cx="833.4" cy="364.0" r="3.4" fill="#58A6B8" stroke="#0d0d0d" stroke-width="1" filter="url(#glowSm)" opacity="0">
  <title>Jul 20
3 Contributions</title>
  <animate attributeName="opacity" from="0" to="1" dur="0.4s" begin="2.48s" fill="freeze"/>
  <animate attributeName="r" values="3.4;4.4;3.4" dur="4s" begin="2.88s" repeatCount="indefinite"/>
</circle>
<circle cx="860.0" cy="430.0" r="2.2" fill="#58A6B8" stroke="#0d0d0d" stroke-width="1" filter="url(#glowSm)" opacity="0">
  <title>Jul 21
0 Contributions</title>
  <animate attributeName="opacity" from="0" to="1" dur="0.4s" begin="2.54s" fill="freeze"/>
  <animate attributeName="r" values="2.2;3.2;2.2" dur="4s" begin="2.94s" repeatCount="indefinite"/>
</circle>
<text x="90" y="466" text-anchor="start" font-family="Georgia,'Palatino Linotype',serif" font-size="10" fill="#5a7a80" letter-spacing="1.5">JUN</text>
<text x="860" y="466" text-anchor="end" font-family="Georgia,'Palatino Linotype',serif" font-size="10" fill="#5a7a80" letter-spacing="1.5">JUL</text>
<text x="450" y="522" text-anchor="middle" font-family="Georgia,'Palatino Linotype',serif" font-size="9" fill="#5a7a80" letter-spacing="4" opacity="0.5">LAST 30 DAYS OF DARK RITUALS</text>
</svg>